<svg width="1542" height="1488" viewBox="0 0 1542 1488" fill="none" xmlns="http://www.w3.org/2000/svg">
<path d="M75.3268 -170.604C42.8155 -170.124 21.9149 -159.326 13.1907 -142.722C4.46681 -126.119 9.44293 -107.184 21.485 -96.1725C27.5057 -90.6668 35.7466 -86.9413 44.8031 -87.1259C46.1809 -87.1576 47.5247 -87.8905 48.9038 -88.1029C49.2237 -86.4053 49.1382 -84.6074 49.6955 -82.9582C52.5532 -74.5094 59.8759 -67.4042 68.2448 -64.6919C80.6387 -60.6749 94.0748 -62.6982 110.112 -68.1795C110.821 -63.1183 112.143 -58.3629 114.46 -54.0685C119.667 -44.4205 129.255 -38.3115 139.288 -35.8208C155.268 -31.8538 173.588 -34.3615 193.896 -39.4011C194.475 -34.6008 195.463 -30.0414 197.181 -25.8158C200.844 -16.8032 207.965 -9.36151 216.744 -5.62025C229.742 -0.0810394 244.538 -1.05821 261.655 -5.93098C262.272 2.54279 264.645 10.6856 268.452 18.2159C248.362 26.6342 228.69 43.1154 209.829 69.3548C155.09 145.464 155.013 227.403 163.762 277.512C139.904 291.056 120.019 311.093 107.354 331.797C98.623 346.069 93.071 360.792 93.5916 375.416C94.1122 390.04 103.075 404.658 118.307 411.009C134.375 417.709 151.696 414.166 167.51 406.754C169.22 405.953 170.92 405.082 172.619 404.188C173.19 411.076 174.044 418.036 175.223 425.033C178.634 445.254 184.362 464.22 191.911 481.427C190.86 482.734 189.755 484.156 188.614 485.787C183.562 493.007 177.429 503.88 172.384 518.968C166.055 537.896 161.819 563.797 163.137 597.153C162.587 599.51 162.725 601.976 163.533 604.258C164.5 619.923 166.543 636.981 170.312 655.897C86.1403 716.751 46.6214 780.825 28.9319 847.39C11.2932 913.764 14.1604 981.785 11.2238 1053.07C8.83322 1055.03 6.72327 1057.24 5.04486 1059.76C-0.68293 1068.37 -1.1978 1079.01 1.81002 1088.06C5.68555 1099.73 15.1381 1109.75 28.0969 1115.18C28.508 1124.9 29.4717 1145.41 32.0802 1173.91C35.4307 1210.52 40.4239 1251.95 50.9573 1277.44C62.0123 1304.16 83.3809 1337.73 113.829 1359.53C143.051 1380.46 182.954 1388.78 222.997 1365.26C228.115 1366.52 233.265 1367.36 238.33 1367.79C259.691 1369.62 279.954 1365.34 294.609 1358.18C311.368 1349.99 321.598 1333.15 325.034 1315.2C328.359 1297.82 324.914 1277.97 310.919 1263.97C318.772 1251.53 326.222 1234.67 326.58 1214.41C327.363 1171.79 301.73 1149.17 289.16 1134.44C280.001 1123.71 261.607 1109.2 244.206 1095.59C232.182 1086.18 223.11 1079.35 217.35 1075.04C217.521 1069.82 216.522 1064.65 214.524 1060.03C210.885 1051.62 204.271 1044.6 195.832 1040.02C190.948 998.357 188.608 957.927 196.172 920.282C203.41 884.264 220.083 850.7 252.08 819.1C281.692 858.405 384.313 985.132 530.381 1063.64L531.927 1132.21C527.448 1133.94 523.501 1136.07 520.095 1138.7C511.896 1145.05 507.473 1155.15 508.325 1164.22C509.681 1178.65 519.908 1189.5 533.288 1193.71C522.239 1226.17 508.816 1278.91 515.296 1332.97C515.316 1333.23 515.344 1333.49 515.381 1333.75C515.83 1337.39 516.014 1341.02 516.655 1344.67C522.236 1376.43 532.204 1410.42 557.056 1437.55C581.909 1464.68 621.17 1483.57 680.698 1486.98C737.393 1490.24 778.294 1473.39 804.92 1448.79C829.085 1426.45 841.39 1398.54 845.594 1374.17C848.14 1375.99 850.914 1377.82 853.95 1379.64C876.904 1393.4 914.771 1405.87 973.534 1406.5C973.837 1406.61 974.145 1406.7 974.455 1406.79C974.694 1406.72 974.932 1406.65 975.167 1406.58C977.177 1406.58 978.723 1406.86 980.783 1406.84C1042.2 1406.39 1094.67 1406.64 1135.73 1403.58C1176.78 1400.52 1207.09 1395.78 1224.82 1377.1C1235.5 1365.84 1236.62 1349.99 1234.18 1333.71C1231.75 1317.44 1225.12 1299.65 1214.99 1282.46C1194.73 1248.06 1159.81 1215.32 1113.73 1210.68C1106.7 1209.97 1099.9 1209.77 1093.33 1210.04C1084.84 1210.38 1076.73 1211.51 1069.01 1213.32C1049.46 1206.57 1026.62 1202.75 1002.18 1202.82C995.969 1202.85 989.65 1203.11 983.263 1203.64C974.775 1191.25 968.331 1177.73 963.965 1162.87C966.076 1161.72 968.051 1160.36 969.878 1158.7C976.669 1152.54 978.315 1140.73 974.796 1133.28C967.757 1118.37 952.106 1111.06 932.811 1107.43C930.365 1106.97 927.774 1106.58 925.067 1106.24C977.55 1081.96 1019.87 1042.77 1069.22 996.731C1087.16 984.84 1102.6 970.245 1114.85 952.692C1185.77 851.05 1130.82 685.189 994.229 541.212C1042.84 537.402 1084.89 521.169 1119.3 492.783C1157.13 461.567 1185.53 416.258 1205.36 358.346C1207.81 358.755 1210.21 358.971 1212.58 358.964C1221.59 358.932 1230.11 355.34 1235.6 349.28C1240.52 343.849 1243 337.24 1243.42 330.39C1279.8 324.492 1330.16 317.467 1378.39 305.952C1431.8 293.199 1482.29 276.454 1507.05 243.634C1512.08 236.968 1515.7 230.504 1517.7 223.964C1523.66 220.628 1529.8 216.116 1534.65 209.445C1541.07 200.615 1544.02 187.7 1540.49 173.989C1537.8 163.563 1531.7 155.08 1523.9 150.262C1520.01 147.863 1515.93 146.334 1511.82 145.402C1509.51 138.293 1506.03 132.188 1501.38 127.408C1494.79 120.638 1486.34 116.934 1478.03 115.313C1461.42 112.071 1444.53 115.666 1429.72 118.732C1411.37 122.519 1377.4 135.098 1346.21 146.991C1333.23 151.94 1331.83 152.624 1321.89 156.551C1326.79 145.09 1330.74 132.716 1333.27 120.334C1335.95 107.222 1337.06 94.2509 1335.29 82.2676C1333.53 70.2847 1328.43 58.3387 1317.52 51.4425C1312.28 48.1385 1306.46 46.5905 1300.66 46.3843C1294.86 46.1786 1289.09 47.3182 1283.97 49.371C1273.71 53.4773 1264.76 60.5458 1256.27 68.7441C1239.29 85.1411 1224.28 106.662 1213.91 121.849C1205.25 134.532 1179.35 161.946 1156.41 184.785C1137.43 203.683 1122.95 217.384 1117.56 222.468C1114.83 222.249 1112.15 222.284 1109.53 222.61C1105.28 223.14 1101.22 224.395 1097.47 226.382C1089.98 230.355 1084.05 237.901 1082.68 246.788C1081.55 254.066 1083.38 261.584 1087.37 268.56C1048.28 310.755 1008.16 348.101 964.46 371.467C918.175 396.215 868.316 405.958 808.143 390.401C806.588 390.013 804.974 389.922 803.386 390.135C700.117 329.028 594.185 294.445 502.46 288.348C499.618 278.503 496.261 269.022 492.359 260.058C491.976 257.881 491.029 255.843 489.613 254.146C487.881 250.47 486.073 246.877 484.177 243.381C494.204 237.47 509.132 228.407 523.131 217.824C540.143 204.946 550.997 191.696 556.295 178.138C561.594 164.579 560.699 150.478 554.545 139.552C545.316 123.166 526.805 114.522 506.326 114.849C499.501 114.96 492.459 116.07 485.469 118.219C473.007 122.047 458.804 130.382 442.742 141.259C437.106 120.472 425.001 86.4413 401.172 58.9184C395.227 41.4811 347.89 -86.2554 218.629 -136.594C153.565 -161.935 107.861 -171.077 75.35 -170.597L75.3268 -170.604ZM743.274 1129.26C751.503 1130.17 759.52 1130.9 767.297 1131.41C763.46 1133.89 760.322 1136.79 758.063 1140.63C754.42 1135.69 749.45 1131.59 743.274 1129.26ZM764.081 1168.59C764.443 1168.87 764.798 1169.18 765.164 1169.44C766.058 1170.08 766.977 1170.68 767.916 1171.26C767.126 1178.4 766.117 1188.72 765.436 1200.68C764.824 1211.42 764.377 1223.05 764.786 1234.37C762.512 1233.01 760.214 1231.72 757.89 1230.5C754.267 1215.79 748.38 1197.92 743.936 1185.13C751.163 1184.06 758.031 1180.07 761.613 1174.19C762.727 1172.36 763.516 1170.48 764.081 1168.59Z" fill="#070922"/>
<path d="M685.098 1238.77C685.297 1238.77 685.499 1238.81 685.698 1238.81C685.772 1238.82 685.845 1238.83 685.919 1238.84C685.964 1238.84 686.01 1238.84 686.055 1238.84C699.75 1239.17 714.056 1241.43 729.017 1245.88C752.175 1252.78 777.41 1272.59 795.378 1296.04C813.345 1319.5 823.458 1346.49 821.535 1364.07C819.335 1384.2 809.236 1410.33 787.727 1430.21C766.217 1450.09 733.286 1464.66 682.152 1461.72C627.2 1458.57 595.723 1442.26 575.749 1420.46C555.776 1398.66 546.83 1369.99 541.613 1340.3C541.19 1337.9 541.109 1335.45 540.784 1333.02C562.52 1296.65 589.51 1269.16 620.344 1253.68C636.291 1245.68 653.25 1240.69 671.328 1239.23C675.846 1238.86 680.431 1238.71 685.09 1238.79L685.098 1238.77Z" fill="white"/>
<path d="M1094.18 1235.25C1099.6 1235.08 1105.26 1235.28 1111.18 1235.88C1146.48 1239.44 1175.83 1265.89 1193.16 1295.31C1201.82 1310.02 1207.3 1325.31 1209.12 1337.46C1210.94 1349.62 1208.44 1357.56 1206.44 1359.66C1198.83 1367.69 1173.18 1375.39 1133.84 1378.33C1095.73 1381.17 1044.97 1381.06 985.85 1381.47C985.205 1348.71 993.476 1311.5 1012.04 1283.27C1026.14 1261.84 1045.01 1245.5 1070.49 1238.69C1071.09 1238.58 1071.67 1238.42 1072.24 1238.23C1079.08 1236.54 1086.36 1235.49 1094.16 1235.25H1094.18Z" fill="white"/>
<path d="M950.824 1198.35C952.386 1201.46 954.043 1204.52 955.791 1207.53C954.73 1207.74 953.668 1207.97 952.606 1208.2C952.06 1205.07 951.493 1201.79 950.824 1198.35Z" fill="white"/>
<path d="M646.948 1195.09C649.275 1195.18 652.412 1195.86 655.619 1197.46C661.551 1200.41 667.428 1205.88 670.593 1214.04C659.029 1214.89 647.786 1216.92 636.934 1220.08C637.244 1213.01 638.449 1204.57 641.839 1197.16C642.478 1195.76 642.643 1195.59 644.919 1195.22C645.488 1195.13 646.172 1195.1 646.948 1195.13V1195.09Z" fill="white"/>
<path d="M902.358 1179.98C906.194 1179.82 912.239 1181.14 916.98 1183.51C920.545 1185.28 922.665 1188.99 924.662 1197.16C925.903 1202.24 926.72 1208.38 927.946 1214.93C921.073 1217.22 914.227 1219.86 907.442 1222.87C905.933 1220.54 904.281 1217.85 902.655 1214.84C897.624 1205.55 894.059 1194.02 895.06 1187.8C896.262 1180.33 897.28 1180.82 900.861 1180.14C901.309 1180.06 901.81 1180 902.358 1179.98Z" fill="white"/>
<path d="M936.92 1167.03C937.608 1167.38 938.327 1167.66 939.066 1167.88C939.279 1168.63 939.494 1169.39 939.716 1170.14C938.854 1169.06 937.922 1168.02 936.92 1167.03Z" fill="white"/>
<path d="M630.656 1149.95C676.238 1149.9 722.178 1151.6 732.402 1152.52C735.38 1152.8 738.836 1156.67 739.595 1159.77C739.69 1160.15 739.671 1159.83 739.687 1160.08C719.536 1160.61 686.537 1160.08 686.537 1160.08C683.179 1160.02 679.936 1161.3 677.52 1163.63C675.103 1165.96 673.712 1169.16 673.654 1172.52C673.625 1174.18 673.925 1175.83 674.535 1177.38C675.145 1178.93 676.054 1180.34 677.21 1181.54C678.367 1182.73 679.748 1183.69 681.274 1184.35C682.8 1185.01 684.441 1185.37 686.105 1185.4C686.105 1185.4 701.042 1185.64 717.197 1185.64C720.077 1193.82 724.555 1206.85 728.423 1219.45C717.754 1216.73 707.248 1215.01 696.935 1214.18C693.967 1200.34 686.472 1189.19 677.21 1181.54C673.952 1178.85 670.488 1176.57 666.912 1174.79C658.676 1170.68 649.762 1168.76 640.897 1170.19V1170.22C632.037 1171.64 622.984 1177.46 618.791 1186.64C611.387 1202.83 610.829 1219.6 611.443 1229.88C610.623 1230.27 609.79 1230.64 608.976 1231.04C582.441 1244.37 559.242 1264.91 539.337 1290.41C541.588 1252.96 551.535 1217.91 559.34 1195.91C577.168 1196.01 598.987 1195.62 598.987 1195.62C602.345 1195.57 605.545 1194.18 607.881 1191.77C610.217 1189.36 611.498 1186.11 611.443 1182.76C611.417 1181.09 611.064 1179.45 610.403 1177.93C609.742 1176.4 608.785 1175.02 607.59 1173.86C606.395 1172.7 604.984 1171.79 603.437 1171.18C601.89 1170.57 600.236 1170.27 598.572 1170.3C598.572 1170.3 559.249 1170.89 545.151 1170.3C539.341 1170.06 533.732 1163.67 533.56 1161.83C533.474 1160.91 532.97 1160.76 535.62 1158.71C538.269 1156.66 544.9 1153.68 556.785 1152.53C576.085 1150.67 603.305 1149.99 630.655 1149.96L630.656 1149.95Z" fill="#64BBA9"/>
<path d="M907.831 1130.72C915.924 1130.83 922.891 1131.35 928.125 1132.32C938.387 1134.25 944.838 1138.66 948.375 1141.45C946.431 1142.02 944.236 1142.65 940.804 1142.98C939.148 1143.13 937.54 1143.62 936.07 1144.39C934.6 1145.17 933.297 1146.23 932.236 1147.51C931.176 1148.8 930.378 1150.27 929.889 1151.86C929.4 1153.45 929.23 1155.12 929.387 1156.78C929.644 1159 930.485 1161.11 931.824 1162.9C930.71 1162.17 929.549 1161.47 928.298 1160.84C921.438 1157.41 913.486 1154.72 904.918 1154.53C902.061 1154.47 899.136 1154.68 896.16 1155.25C884.255 1157.49 872.518 1168.41 870.046 1183.77C867.373 1200.38 874.142 1215.37 880.369 1226.88C881.848 1229.62 883.35 1232.16 884.792 1234.46C878.015 1238.45 871.352 1242.84 864.851 1247.68C863.517 1248.68 862.391 1249.92 861.539 1251.35C860.686 1252.78 860.123 1254.36 859.882 1256.01C859.642 1257.65 859.728 1259.33 860.136 1260.94C860.544 1262.56 861.265 1264.07 862.259 1265.41C863.253 1266.74 864.5 1267.87 865.928 1268.72C867.357 1269.57 868.94 1270.13 870.586 1270.37C872.232 1270.61 873.909 1270.53 875.522 1270.12C877.135 1269.71 878.652 1268.99 879.986 1268C910.634 1245.17 945.489 1233.32 978.676 1229.52C996.635 1227.47 1014.1 1227.83 1029.98 1230.02C1014.17 1240.32 1001.03 1253.91 990.879 1269.35C969.085 1302.49 959.961 1343.29 960.547 1380.58C913.634 1378.34 883.934 1368.08 866.978 1357.91C857.294 1352.11 851.354 1346.48 847.903 1342.53C846.236 1340.63 845.308 1339.37 844.737 1338.53C840.157 1318.73 829.4 1298.77 815.493 1280.62C808.683 1271.73 800.999 1263.33 792.738 1255.65C789.978 1242.93 789.672 1220.77 790.734 1202.11C791.23 1193.41 791.924 1185.5 792.559 1179.18C799.296 1179.89 806.336 1179.7 813.384 1178.69C815.031 1178.46 816.615 1177.9 818.046 1177.05C819.477 1176.2 820.729 1175.08 821.726 1173.75C822.724 1172.42 823.448 1170.91 823.86 1169.3C824.272 1167.68 824.364 1166.01 824.128 1164.36C823.651 1161.04 821.875 1158.04 819.187 1156.02C816.5 1154.01 813.122 1153.15 809.797 1153.62C801.18 1154.85 791.772 1152.78 785.613 1150.7C786.753 1150.06 787.127 1149.61 788.761 1148.93C816.566 1137.5 872.763 1130.24 907.831 1130.71V1130.72Z" fill="#64BBA9"/>
<path d="M206.49 1098.57C212.425 1103.05 220.277 1109.03 228.596 1115.54C245.674 1128.9 265.214 1145.41 269.894 1150.89C284.938 1168.52 301.861 1180.98 301.253 1213.96C301.069 1224.42 297.999 1234.06 293.979 1242.32C287.205 1232.1 279.844 1219.82 273.556 1208.34C261.628 1186.56 252.483 1167.34 252.483 1167.34C251.041 1164.31 248.453 1161.97 245.29 1160.85C242.127 1159.73 238.648 1159.9 235.616 1161.34C232.582 1162.79 230.245 1165.37 229.12 1168.54C227.995 1171.7 228.174 1175.19 229.616 1178.22C229.616 1178.22 239.029 1198 251.351 1220.5C263.674 1243 277.754 1267.66 292.334 1281.16C299.941 1288.2 302.325 1299.14 300.164 1310.44C298.003 1321.73 290.899 1331.81 283.495 1335.43C273.957 1340.08 256.824 1343.95 240.502 1342.55C224.178 1341.15 209.128 1335.19 199.056 1321.79C198.056 1320.46 196.805 1319.34 195.372 1318.49C193.94 1317.65 192.354 1317.09 190.707 1316.86C189.06 1316.62 187.383 1316.72 185.771 1317.13C184.16 1317.54 182.646 1318.27 181.317 1319.27C178.632 1321.29 176.857 1324.29 176.385 1327.62C175.913 1330.94 176.782 1334.32 178.799 1337C183.092 1342.71 188.003 1347.48 193.303 1351.45C168.854 1359.84 148.038 1352.87 128.588 1338.94C103.834 1321.21 83.7851 1290.5 74.3813 1267.77C66.769 1249.35 60.5925 1207.4 57.3165 1171.61C55.2087 1148.58 54.2411 1131.35 53.6672 1119.45C63.2997 1119.2 86.9243 1119.95 112.401 1119.32C138.737 1118.67 167.012 1116.86 188.244 1109.37C195.53 1106.79 201.707 1103.12 206.496 1098.57H206.49Z" fill="white"/>
<path d="M556.02 1076.68C594.956 1095.38 636.629 1110.4 680.62 1119.31C694.788 1122.18 708.308 1124.53 721.312 1126.44C706.241 1125.66 683.003 1124.87 657.283 1124.56L657.252 1124.6C622.978 1124.18 584.816 1124.65 557.144 1127.11L556.02 1076.68Z" fill="#070922"/>
<path d="M172.639 1059.6C174.049 1059.6 175.392 1059.7 176.665 1059.9C184.307 1061.13 189.446 1065.87 191.268 1070.09C192.484 1072.9 192.468 1074.99 191.319 1077.29C190.169 1079.59 187.305 1082.83 179.778 1085.49C164.494 1090.88 137.126 1093.38 111.754 1094.01C86.3755 1094.63 63.282 1093.72 51.4854 1094.15C36.1568 1094.71 27.8636 1086.18 25.8356 1080.08C24.8215 1077.03 25.1984 1075.18 26.1263 1073.79C26.626 1073.04 27.5171 1072.08 29.2807 1071.23C29.3719 1071.19 29.4625 1071.15 29.5528 1071.11C31.0463 1070.43 33.1058 1069.83 36.0905 1069.48C42.7174 1068.7 71.8931 1067.01 100.379 1065.3C128.858 1063.58 156.258 1062.01 168.206 1059.99C169.742 1059.73 171.218 1059.61 172.628 1059.6L172.639 1059.6Z" fill="white"/>
<path d="M998.376 1026.61C968.931 1051.7 940.636 1072.06 908.747 1085.87C908.178 1086.12 907.587 1086.34 907.015 1086.58C920.276 1070.43 931.965 1053.18 941.701 1034.61C961.634 1033.52 980.603 1030.88 998.376 1026.61Z" fill="#FFB900"/>
<path d="M808.232 1021.65C844.514 1029.95 879.522 1034.53 912.377 1035.17C898 1059.33 879.782 1081.23 858.517 1101.52C829.455 1107.37 796.342 1108.99 756.474 1105.27C773.954 1082.58 791.13 1054.61 808.232 1021.65Z" fill="#FFB900"/>
<path d="M644.034 961.614C690.897 985.066 737.723 1002.98 782.953 1015.31C763.999 1051.16 745.16 1080.2 726.823 1101.67C713.769 1099.77 700.118 1097.42 685.654 1094.49C648.846 1087.03 613.566 1074.88 580.135 1059.71L644.034 961.614Z" fill="#FFB900"/>
<path d="M506.835 876.436C515.52 882.965 524.379 889.395 533.425 895.704C562.39 915.904 591.862 933.973 621.434 949.89L557.09 1048.69C512.497 1026.05 471.679 998.34 435.502 969.597L506.835 876.436Z" fill="#FFB900"/>
<path d="M386.354 766.714C415.813 799.379 449.447 831.069 486.851 860.865L415.876 953.57C373.852 918.16 339.149 882.388 313.555 853.532L386.354 766.714Z" fill="#FFB900"/>
<path d="M473.596 590.241C507.159 630.808 542.551 665.757 582.48 687.429C622.53 709.167 667.654 716.884 716.537 702.69L808.034 794.176C798.044 791.309 786.622 785.84 776.063 779.681C754.336 767.008 736.49 751.923 736.49 751.923C734.525 750.257 732.099 749.23 729.535 748.978C726.971 748.726 724.392 749.262 722.141 750.513L676.383 775.934C674.717 776.86 673.281 778.15 672.183 779.708C671.085 781.265 670.352 783.05 670.04 784.93C669.728 786.81 669.844 788.736 670.38 790.565C670.916 792.394 671.858 794.078 673.136 795.493C728.706 856.982 786.868 879.513 831.012 885.995C862.29 890.588 886.831 887.155 898.634 884.752L927.741 913.852C839.824 936.129 708.641 903.11 587.279 818.471C507.075 762.535 446.357 694.417 411.813 628.74C430.51 612.042 450.374 598.375 473.596 590.241Z" fill="#FFB900"/>
<path d="M237.441 545.485C245.4 552.361 253.884 558.119 262.744 562.477C281.536 622.74 318.082 686.367 369.481 747.415L296.781 834.115C275.532 808.86 263.857 792.364 263.857 792.364C262.838 790.903 261.52 789.674 259.993 788.756C258.466 787.839 256.763 787.254 254.994 787.04C253.224 786.826 251.429 786.988 249.726 787.515C248.023 788.042 246.449 788.924 245.11 790.101C202.034 827.944 180.254 870.935 171.34 915.299C163.467 954.477 165.403 994.56 169.756 1034.41C167.865 1034.52 165.957 1034.69 164.023 1035.02C157.282 1036.16 127.305 1038.31 98.8993 1040.02C73.0246 1041.58 48.7898 1042.88 36.9302 1044C39.3651 975.418 37.8551 912.491 53.426 853.903C70.2449 790.615 106.214 731.415 191.293 671.784C193.34 670.35 194.917 668.342 195.825 666.013C196.733 663.685 196.931 661.141 196.396 658.7C191.883 638.172 189.55 620.177 188.516 604.037L237.441 545.485Z" fill="#FFB900"/>
<path d="M558.747 544.922L625.157 611.327C607.751 607.255 590.935 597.339 578.459 583.928C568.841 573.588 562.054 561.797 559.378 551.662C558.704 549.108 558.952 547.162 558.747 544.922Z" fill="#FFB900"/>
<path d="M630.204 518.178C640.261 525.001 649.108 533.459 655.576 543.555L630.204 518.178Z" fill="#FFB900"/>
<path d="M472.495 517.714C471.167 517.665 469.84 517.826 468.562 518.19C425.328 530.535 387.482 554.704 353.87 585.529C351.395 587.799 349.924 590.959 349.779 594.314C349.634 597.668 350.827 600.943 353.097 603.418C354.221 604.644 355.577 605.637 357.085 606.339C358.593 607.042 360.224 607.44 361.886 607.512C363.548 607.584 365.209 607.327 366.772 606.757C368.335 606.188 369.771 605.316 370.997 604.191C402.494 575.306 436.918 553.567 475.514 542.547C477.113 542.091 478.608 541.323 479.911 540.29C481.215 539.256 482.301 537.975 483.109 536.521C483.917 535.067 484.431 533.468 484.621 531.816C484.811 530.163 484.673 528.49 484.216 526.89C483.481 524.32 481.952 522.048 479.846 520.399C477.741 518.751 475.168 517.811 472.495 517.714Z" fill="#070922"/>
<path d="M205.253 506.992C209.715 514.231 214.553 520.982 219.695 527.218L188.85 564.122C190.316 549.096 193.14 536.798 196.421 527.002C199.242 518.564 202.364 512.069 205.253 506.992Z" fill="#FFB900"/>
<path d="M471.493 500.146C472.532 500.191 473.568 500.282 474.586 500.425C486.804 502.145 497.3 510.966 500.669 523.737C505.157 540.752 495.145 557.931 478.099 562.396C476.855 562.724 475.639 563.095 474.413 563.448C474.346 563.479 474.276 563.489 474.21 563.508C441.257 573.036 414.674 591.713 391.286 613.212C386.303 616.607 386.898 616.707 383.956 619.543C371.24 628.59 353.765 627.137 342.707 615.469C330.592 602.649 331.158 582.818 343.951 570.712C378.091 538.426 415.753 513.355 462 501.196C465.192 500.355 468.384 500.023 471.501 500.151L471.493 500.146Z" fill="#7D4C54"/>
<path d="M390.777 497.884C393.243 498.515 395.73 499.006 398.23 499.417C394.725 501.302 391.27 503.252 387.864 505.273C388.886 502.855 389.857 500.39 390.777 497.884Z" fill="#FFB900"/>
<path d="M512.322 424.837C608.032 424.479 668.689 469.016 714.483 524.714L679.172 533.989C658.579 497.87 618.723 478.085 582.208 474.151C579.602 473.87 576.974 474.405 574.685 475.681C572.396 476.957 570.559 478.911 569.428 481.274C568.296 483.637 567.924 486.293 568.365 488.876C568.807 491.459 570.039 493.841 571.891 495.694L704.074 627.874C704.385 628.071 704.705 628.255 705.033 628.425C706.177 629.391 707.484 630.147 708.892 630.657C709.449 630.861 710.019 631.027 710.599 631.151C712.202 631.464 713.851 631.464 715.455 631.151C715.809 631.127 716.161 631.088 716.512 631.034C716.626 631.023 716.739 631.01 716.852 630.996C788.285 608.382 858.168 643.321 902.815 694.409C925.139 719.952 940.693 749.358 946.538 776.019C952.384 802.681 948.832 825.648 934.836 842.128C933.702 843.499 932.869 845.094 932.393 846.809C932.329 847.2 932.284 847.594 932.257 847.99C931.96 849.551 931.96 851.153 932.257 852.714C932.381 853.311 932.549 853.898 932.758 854.47C933.266 855.871 934.018 857.171 934.978 858.31C935.149 858.64 935.335 858.962 935.535 859.275L971.879 895.61C966.375 898.987 960.54 902.006 954.406 904.693L561.129 511.486C559.853 510.211 558.319 509.224 556.631 508.589C554.942 507.955 553.138 507.688 551.338 507.807C549.537 507.926 547.782 508.429 546.192 509.281C544.601 510.133 543.212 511.315 542.115 512.748C532.056 525.887 530.821 542.758 534.879 558.129C538.937 573.499 547.916 588.285 559.91 601.179C582.334 625.284 616.368 643.245 651.883 638.045L695.65 681.807C658.763 689.301 626.156 682.319 594.566 665.173C561.257 647.094 529.53 617.131 498.782 580.909C520.249 568.298 531.785 542.428 525.15 517.274C518.496 492.053 495.612 475.182 470.646 474.861C481.238 464.292 490.029 451.007 496.661 435.942C498.187 432.474 499.579 428.887 500.891 425.232C504.717 425.08 508.603 424.851 512.322 424.837Z" fill="#FFB900"/>
<path d="M255.446 393.369C261.285 430.964 273.518 458.333 291.753 476.136C298.245 465.625 303.406 453.626 307.079 439.95C311.449 457.837 311.703 474.108 308.916 489.146C323.863 497.703 341.62 501.783 362.028 501.631C349.805 526.004 331.887 541.507 310.599 545.095C288.834 548.763 266.326 539.532 246.471 519.656C245.871 518.831 245.173 518.081 244.393 517.424C244.317 517.373 244.241 517.324 244.164 517.275C243.854 516.949 243.538 516.647 243.23 516.316C234.171 506.569 225.884 494.594 218.873 480.891C218.439 479.14 217.635 477.502 216.516 476.086C208.721 459.713 202.715 441.097 199.322 420.972C198.737 417.503 198.247 414.054 197.831 410.621C216.113 408.018 235.252 402.412 255.446 393.369Z" fill="white"/>
<path d="M539.666 380.735C621.843 380.909 725.035 415.641 821.449 482.882C990.178 600.556 1071.81 770.494 1007.76 862.281C1003.21 868.804 997.965 874.709 992.215 880.127L961.092 849.011C975.168 826.505 977.39 798.441 971.285 770.597C964.286 738.677 946.669 706.098 921.89 677.745C884.722 635.215 830.4 601.805 770.515 598.855C752.951 597.989 734.913 599.754 716.685 604.667L670.235 558.216C671.885 559.626 673.87 560.589 675.999 561.011L739.873 544.229C741.884 543.7 743.732 542.685 745.258 541.273C746.783 539.861 747.938 538.096 748.619 536.133C749.301 534.17 749.487 532.069 749.165 530.016C748.843 527.963 748.02 526.021 746.77 524.361C697.338 458.763 625.651 399.973 513.954 399.533C511.993 399.533 509.984 399.587 507.998 399.612C509.14 393.981 510.057 388.21 510.738 382.317C520.062 381.312 529.67 380.714 539.666 380.735Z" fill="#FFB900"/>
<path d="M404.094 334.538C406.37 364.848 413.671 390.442 428.97 408.475C438.661 395.622 446.388 380.173 451.676 361.462C455.318 384.288 452.847 404.583 445.12 422.66C452.288 427.297 460.572 430.884 470.058 433.327C457.898 455.866 440.633 470.183 420.286 473.613C412.838 474.868 405.38 474.578 397.952 472.914C403.509 446.778 404.164 417.501 399.071 387.303C396.29 370.81 391.955 355.154 386.379 340.573C392.444 338.883 398.346 336.866 404.094 334.538Z" fill="white"/>
<path d="M507.979 311.777C594.07 317.067 694.854 349.481 793.548 407.647C794.288 409.399 795.414 410.962 796.842 412.22C798.269 413.478 799.961 414.398 801.793 414.912C803.918 415.462 806.012 415.899 808.12 416.39C821.865 424.865 835.559 433.773 849.14 443.246C888.693 470.83 924.511 500.672 956.249 531.726C956.739 534.179 957.945 536.431 959.714 538.2C961.483 539.968 963.735 541.173 966.188 541.663C1102.46 679.925 1157.15 840.12 1090.47 935.693C1058.77 981.125 1003.83 1005.82 935.961 1010.67C933.8 1010.23 931.559 1010.35 929.461 1011.03C892.548 1012.97 852.034 1009.23 809.394 999.81C808.48 998.916 807.435 998.165 806.296 997.584C803.33 996.083 799.894 995.808 796.727 996.817C749.282 985.209 699.534 966.842 649.558 941.765C648.553 939.724 647.016 937.992 645.111 936.75C642.511 935.09 639.395 934.434 636.346 934.907C605.7 918.819 575.049 900.333 544.88 879.292C534.663 872.167 524.771 864.841 515.049 857.427C514.317 854.772 512.738 852.427 510.552 850.749C508.445 849.179 505.9 848.304 503.272 848.245C463.131 816.515 427.533 782.553 397.098 747.626C396.71 744.443 395.13 741.526 392.676 739.463C391.334 738.388 389.787 737.597 388.13 737.138C341.996 682.056 308.718 625.06 290.732 571.258C298.207 572.296 305.792 572.279 313.401 571.153C304.729 591.426 308.227 615.893 324.268 632.866C342.683 652.317 371.874 655.813 394.191 642.957C432.418 710.404 495.058 778.541 575.837 834.877C755.49 960.169 960.612 981.758 1032.12 879.275C1103.65 776.773 1012.55 591.77 832.898 466.478C723.279 390.028 604.755 352.277 512.21 357.622C512.27 344.046 511.162 330.036 508.765 315.821C508.534 314.456 508.231 313.131 507.979 311.777Z" fill="#FFB900"/>
<path d="M1103.46 288.452C1125.19 310.966 1157.8 334.952 1181.79 348.934C1163.04 404.221 1136.76 445.534 1103.17 473.248C1067.87 502.377 1024.24 517.098 969.93 516.774C937.262 485.134 900.713 454.813 860.595 426.834C858.611 425.45 856.603 424.167 854.614 422.803C899.232 424.581 939.708 413.414 976.4 393.795C1023.26 368.743 1064.33 330.486 1103.46 288.452Z" fill="#FFB900"/>
<path d="M312.281 279.74C322.052 286.432 331.423 295.605 339.892 306.799C285.649 353.522 240.643 376.622 202.482 384.149C206.168 381.205 209.819 378.149 213.43 375.01C242.887 349.399 270.164 317.978 284.547 304.771C290.367 299.426 300.551 290.22 312.281 279.74Z" fill="#FFB900"/>
<path d="M359.838 205.271C339.799 222.014 320.443 238.786 304.234 253.082C303.455 253.624 302.739 254.261 302.1 254.98C286.871 268.439 274.428 279.686 267.414 286.127C250.318 301.825 224.317 331.981 196.804 355.903C190.051 361.773 183.24 367.209 176.597 371.918C176.215 372.148 175.845 372.399 175.49 372.672C168.991 377.211 162.663 381.062 156.761 383.828C144.509 389.569 135.106 390.583 128.056 387.643C120.582 384.527 119.164 381.555 118.914 374.521C118.664 367.487 121.952 356.483 128.965 345.019C142.989 322.094 170.934 297.924 199.519 289.528C228.636 280.988 272.564 256.989 310.852 234.872C337.644 219.394 348.098 212.601 359.838 205.271Z" fill="#2F6DF6"/>
<path d="M406.357 199.804C424.227 207.052 441.722 222.405 455.938 244.09C456.003 244.384 456.079 244.674 456.165 244.962C456.49 245.332 456.837 245.684 457.204 246.013C459.946 250.348 462.522 254.959 464.973 259.735C438.266 288.092 409.634 308.778 375.838 317.168C373.468 312.649 370.983 308.262 368.354 304.059C367.82 302.775 367.078 301.589 366.158 300.546C366.085 300.481 366.012 300.417 365.937 300.353C356.017 285.29 344.485 272.449 331.733 262.534C347.902 248.351 365.993 232.738 384.814 217.215C391.994 211.294 399.195 205.498 406.357 199.804Z" fill="#FFB900"/>
<path d="M506.403 140.237C519.073 140.095 528.849 145.544 532.467 151.967C534.879 156.25 535.694 161.231 532.694 168.904C529.696 176.577 522.248 186.707 507.83 197.621C495.191 207.175 480.307 216.197 470.725 221.866C458.613 205.211 444.412 191.664 428.796 182.397C435.3 177.492 441.691 172.761 447.753 168.49C467.058 154.89 484.293 145.054 492.886 142.414C497.633 140.955 502.179 140.284 506.403 140.237Z" fill="#2F6DF6"/>
<path d="M298.984 36.7617C315.718 35.8556 333.044 41.5182 351.421 50.9468C395.632 73.6172 414.901 136.333 420.244 157.187C413.372 162.301 406.261 167.853 399.127 173.462C398.793 173.558 398.463 173.669 398.138 173.796V173.827C396.746 174.646 395.525 175.754 394.544 177.086C391.837 179.232 389.178 181.264 386.46 183.443C386.873 180.547 386.269 177.597 384.753 175.095C382.949 172.262 380.094 170.262 376.814 169.534C373.535 168.806 370.102 169.409 367.268 171.212C367.268 171.212 335.946 191.141 298.192 212.951C260.437 234.761 215.314 258.507 192.401 265.227C190.831 265.688 189.287 266.22 187.737 266.742C180.949 221.052 182.977 150.097 230.409 84.1472C252.754 53.0603 272.917 40.8134 291.858 37.5663C294.226 37.1604 296.605 36.8973 298.996 36.7679L298.984 36.7617Z" fill="#2F6DF6"/>
<path d="M727.095 776.738C733.985 782.242 745.927 791.427 763.297 801.559C775.325 808.574 788.631 815.14 802.207 818.86C812.674 821.728 823.747 823.061 834.234 820.363L876.355 862.479C865.611 863.342 851.45 863.399 834.698 860.939C798.459 855.618 751.186 838.143 703.214 790.002L727.095 776.738Z" fill="#FFB900"/>
<path d="M1114.43 247.819C1118.92 247.895 1125.54 249.747 1132.95 256.21C1143.44 265.341 1161.71 277.839 1179.09 290.424C1187.78 296.716 1196.15 302.938 1202.78 308.325C1209.41 313.713 1214.45 318.839 1215.34 320.124C1219.13 325.592 1218.04 330.918 1216.82 332.262C1216.22 332.934 1215.58 333.613 1212.51 333.622C1209.43 333.622 1203.92 332.433 1196.36 328.107C1170.32 313.239 1124.87 277.359 1110.69 258.09C1107.6 253.888 1107.57 251.491 1107.71 250.639C1107.84 249.786 1107.9 249.507 1109.34 248.747C1110.05 248.366 1111.18 248.028 1112.65 247.887C1113.2 247.833 1113.79 247.806 1114.43 247.819Z" fill="white"/>
<path d="M1222.82 198.975C1213.34 199.086 1203.62 200.511 1193.82 203.205C1190.58 204.095 1187.82 206.235 1186.16 209.154C1184.5 212.072 1184.07 215.531 1184.96 218.769C1185.4 220.373 1186.15 221.874 1187.17 223.187C1188.19 224.5 1189.46 225.601 1190.91 226.423C1192.35 227.246 1193.95 227.776 1195.6 227.983C1197.25 228.19 1198.92 228.07 1200.53 227.63C1232.99 218.713 1256.44 224.407 1277.76 250.794C1279.87 253.406 1282.93 255.073 1286.27 255.428C1289.61 255.783 1292.96 254.796 1295.57 252.686C1298.19 250.575 1299.85 247.513 1300.21 244.173C1300.56 240.834 1299.58 237.49 1297.47 234.877C1277.5 210.169 1251.25 198.646 1222.82 198.975Z" fill="#070922"/>
<path d="M1299.5 71.3405C1301.1 71.3405 1302.43 71.8769 1304 72.8555C1306.68 74.5569 1309.11 78.323 1310.24 85.9585C1311.36 93.5993 1310.73 104.158 1308.46 115.262C1303.92 137.471 1292.57 162.15 1282.91 173.475C1281.07 175.633 1280.01 178.346 1279.9 181.179C1279.79 184.011 1280.63 186.8 1282.29 189.099C1283.94 191.397 1286.33 193.073 1289.05 193.857C1291.78 194.641 1294.69 194.488 1297.32 193.423C1297.32 193.423 1324.36 182.434 1355.25 170.655C1386.14 158.876 1422.05 146.176 1434.86 143.534C1449.25 140.553 1463.96 138.37 1473.18 140.17C1477.79 141.07 1480.81 142.588 1483.22 145.067C1483.35 145.207 1483.48 145.407 1483.61 145.556C1473.68 147.199 1464.78 149.829 1458.56 151.183C1446.21 153.866 1415.73 163.077 1386.82 171.916C1357.91 180.755 1331.63 189.026 1331.63 189.026C1328.43 190.034 1325.76 192.274 1324.2 195.252C1322.65 198.229 1322.34 201.702 1323.35 204.906C1324.36 208.109 1326.6 210.781 1329.58 212.334C1332.56 213.886 1336.03 214.193 1339.23 213.185C1339.23 213.185 1365.44 204.94 1394.23 196.137C1423.02 187.334 1455.45 177.773 1463.94 175.929C1475.34 173.448 1489.26 169.44 1499.47 169.443C1504.57 169.444 1508.3 170.394 1510.57 171.799C1512.85 173.203 1514.56 174.898 1515.96 180.301C1517.93 188.012 1516.64 191.15 1514.16 194.554C1513.93 194.868 1513.67 195.177 1513.4 195.488C1512.07 193.717 1510.55 192.107 1508.86 190.745C1501.79 185.067 1493.3 182.363 1483.77 181.841V181.809C1474.25 181.287 1463.69 182.947 1452.48 185.989C1428.74 192.438 1353.53 216.246 1353.53 216.246C1350.32 217.258 1347.66 219.502 1346.11 222.482C1344.56 225.463 1344.26 228.935 1345.27 232.137C1346.28 235.339 1348.53 238.008 1351.51 239.556C1354.49 241.104 1357.96 241.405 1361.17 240.392C1361.17 240.392 1437.65 216.268 1459.13 210.433C1477.29 205.501 1490.46 208.424 1492.98 210.465C1494.24 211.478 1494.29 211.153 1494.09 213.594C1493.89 216.034 1492.13 221.333 1486.82 228.372C1470.35 250.195 1424.08 268.991 1372.51 281.304C1324.7 292.718 1273.54 299.744 1236.28 305.871C1236.25 305.82 1236.22 305.766 1236.18 305.716C1231.9 299.516 1226.08 294.614 1218.77 288.674C1211.46 282.731 1202.8 276.316 1193.96 269.913C1176.27 257.107 1157.48 243.967 1149.6 237.109C1147.68 235.433 1145.72 233.914 1143.73 232.521C1151.79 224.798 1162.71 214.238 1174.28 202.716C1179.8 197.227 1185.43 191.561 1190.98 185.897C1193.58 185.29 1197.51 184.466 1202.36 183.819C1210.74 182.7 1221.06 182.675 1226.82 184.549C1230.01 185.587 1233.49 185.315 1236.48 183.791C1239.48 182.267 1241.74 179.617 1242.78 176.423C1243.82 173.229 1243.55 169.754 1242.03 166.761C1240.5 163.768 1237.85 161.503 1234.66 160.464C1228.93 158.603 1223.15 157.796 1217.57 157.594C1224.56 149.683 1230.59 142.325 1234.84 136.113C1244.99 121.223 1259.58 100.744 1273.86 86.9532C1281 80.058 1288.09 74.99 1293.38 72.8733C1296.02 71.8152 1297.9 71.3153 1299.5 71.3274L1299.5 71.3405Z" fill="white"/>
<path d="M93.872 1194.05C90.5233 1193.8 87.2102 1194.88 84.6608 1197.07C82.1114 1199.25 80.5346 1202.36 80.2771 1205.71C78.7864 1225.17 82.7768 1241.46 91.1568 1254.02C93.0213 1256.81 95.9188 1258.75 99.2129 1259.41C102.507 1260.06 105.928 1259.39 108.723 1257.52C111.516 1255.66 113.453 1252.76 114.11 1249.47C114.766 1246.17 114.088 1242.75 112.223 1239.96C107.237 1232.49 104.374 1222.84 105.537 1207.65C105.665 1205.99 105.464 1204.33 104.947 1202.74C104.429 1201.16 103.605 1199.7 102.522 1198.44C101.439 1197.17 100.117 1196.14 98.6331 1195.39C97.1488 1194.63 95.5312 1194.18 93.872 1194.05Z" fill="#070922"/>
<path d="M131.958 1183.67C128.608 1183.41 125.295 1184.5 122.745 1186.68C120.196 1188.87 118.619 1191.98 118.363 1195.33C116.872 1214.78 120.857 1231.08 129.237 1243.63C130.16 1245.02 131.347 1246.21 132.73 1247.13C134.113 1248.06 135.664 1248.7 137.296 1249.03C138.928 1249.35 140.607 1249.35 142.239 1249.03C143.872 1248.71 145.425 1248.06 146.809 1247.14C148.192 1246.22 149.381 1245.03 150.306 1243.65C151.231 1242.26 151.874 1240.71 152.199 1239.08C152.524 1237.45 152.525 1235.77 152.201 1234.14C151.876 1232.51 151.234 1230.96 150.309 1229.57C145.323 1222.1 142.46 1212.45 143.623 1197.26C143.751 1195.61 143.55 1193.94 143.033 1192.36C142.515 1190.78 141.691 1189.31 140.608 1188.05C139.525 1186.79 138.203 1185.75 136.719 1185C135.235 1184.25 133.617 1183.79 131.958 1183.67Z" fill="#070922"/>
<path d="M170.042 1170.35C166.693 1170.1 163.379 1171.18 160.83 1173.37C158.28 1175.56 156.703 1178.67 156.447 1182.01C154.957 1201.47 158.947 1217.76 167.327 1230.31C169.192 1233.11 172.089 1235.05 175.383 1235.7C178.677 1236.36 182.098 1235.68 184.893 1233.82C187.686 1231.96 189.624 1229.06 190.28 1225.77C190.937 1222.47 190.258 1219.05 188.394 1216.26C183.407 1208.79 180.544 1199.13 181.708 1183.95C181.835 1182.29 181.634 1180.62 181.117 1179.04C180.6 1177.46 179.776 1176 178.692 1174.74C177.609 1173.47 176.288 1172.44 174.803 1171.68C173.319 1170.93 171.702 1170.48 170.042 1170.35Z" fill="#070922"/>
<path d="M788.297 670.596C784.53 670.565 780.691 670.704 776.787 671.004C775.457 671.108 774.153 671.421 772.921 671.932C772.888 671.951 772.855 671.97 772.822 671.989C771.463 672.586 770.219 673.417 769.148 674.444C769.031 674.52 768.916 674.598 768.802 674.678C768.694 674.853 768.591 675.03 768.492 675.21C767.204 676.602 766.244 678.265 765.684 680.077C765.628 680.205 765.574 680.335 765.522 680.466C765.162 681.816 765.029 683.216 765.126 684.609C765.221 685.17 765.353 685.723 765.522 686.266C765.594 686.641 765.682 687.012 765.788 687.379C766.349 689.204 767.315 690.878 768.615 692.277C768.675 692.383 768.738 692.489 768.802 692.594L871.215 794.98C871.354 795.063 871.494 795.144 871.636 795.222C872.807 796.357 874.187 797.255 875.7 797.867C875.968 797.932 876.238 797.989 876.51 798.036C876.863 798.125 877.22 798.198 877.58 798.257C879.46 798.692 881.415 798.692 883.295 798.257C883.361 798.247 883.426 798.236 883.491 798.225C885.375 797.661 887.1 796.666 888.532 795.319C888.736 795.209 888.935 795.094 889.132 794.973C889.335 794.737 889.529 794.493 889.714 794.243C889.919 794.005 890.115 793.76 890.301 793.507C890.921 792.677 891.436 791.773 891.835 790.817C891.899 790.709 891.962 790.6 892.022 790.49C892.054 790.423 892.067 790.357 892.092 790.293C892.117 790.222 892.141 790.15 892.165 790.078C911.624 737.603 866.235 673.261 792.039 670.673C790.799 670.629 789.553 670.603 788.297 670.596Z" fill="#070922"/>
<path d="M810.366 698.318C846.495 706.337 867.776 733.213 870.826 758.762L810.366 698.318Z" fill="#FFB900"/>
</svg>
