<?xml version="1.0" encoding="UTF-8" standalone="no"?>
<svg
   width="4869.2676"
   height="5236.9106"
   viewBox="0 0 4869.2676 5236.9107"
   version="1.1"
   xml:space="preserve"
   style="clip-rule:evenodd;fill-rule:evenodd;stroke-linecap:round;stroke-linejoin:round;stroke-miterlimit:1.5"
   id="svg2157"
   xmlns="http://www.w3.org/2000/svg"
   xmlns:svg="http://www.w3.org/2000/svg"><defs
   id="defs2161" />
    
    
<g
   id="fullcolor-retro-dudes-coin"
   transform="matrix(9.9999994,0,0,9.9999994,46467.494,-32494.007)"><path
     id="path122212-0"
     style="color:#000000;clip-rule:nonzero;fill:#000000;fill-rule:nonzero;stroke-width:1.18969;stroke-linecap:butt;stroke-linejoin:miter;-inkscape-stroke:none"
     d="m -4622.9629,3249.4043 c -10.2663,0.1516 -16.8662,3.5623 -19.6211,8.8066 -2.7548,5.2444 -1.1834,11.2251 2.6192,14.7032 1.9012,1.739 4.5034,2.9157 7.3632,2.8574 0.4351,-0.01 0.8595,-0.2415 1.295,-0.3086 0.101,0.5362 0.074,1.1041 0.25,1.625 0.9024,2.6686 3.2147,4.9128 5.8574,5.7695 3.9137,1.2688 8.1565,0.6298 13.2207,-1.1015 0.2237,1.5986 0.6412,3.1006 1.373,4.457 1.6443,3.0474 4.6719,4.977 7.8399,5.7637 5.0463,1.253 10.8311,0.4609 17.2441,-1.1309 0.1829,1.5162 0.4948,2.9563 1.0371,4.291 1.1567,2.8467 3.4054,5.1972 6.1778,6.3789 4.1043,1.7496 8.7766,1.4411 14.1816,-0.098 0.195,2.6765 0.9443,5.2484 2.1465,7.6269 -6.3439,2.659 -12.5559,7.8645 -18.5117,16.1524 -17.2852,24.0397 -17.3098,49.9208 -14.5469,65.748 -7.534,4.2782 -13.8131,10.6068 -17.8125,17.1465 -2.7569,4.5078 -4.5101,9.1581 -4.3457,13.7773 0.1644,4.6192 2.9948,9.2364 7.8047,11.2422 5.0736,2.1163 10.5434,0.9972 15.5371,-1.3437 0.5398,-0.2531 1.0767,-0.5282 1.6133,-0.8106 0.1803,2.1755 0.4497,4.3738 0.8222,6.584 1.0769,6.387 2.8858,12.3775 5.2696,17.8125 -0.3319,0.4127 -0.6809,0.8621 -1.0411,1.377 -1.5954,2.2807 -3.5319,5.7149 -5.125,10.4804 -1.9985,5.9788 -3.3362,14.1598 -2.9199,24.6953 a 4,4 0 0 0 0.125,2.2442 c 0.3053,4.9481 0.9504,10.3358 2.1406,16.3105 -26.5795,19.2212 -39.0586,39.4594 -44.6445,60.4844 -5.5699,20.9647 -4.6645,42.4497 -5.5918,64.9668 -0.7549,0.6175 -1.4211,1.3159 -1.9511,2.1133 -1.8087,2.7197 -1.9713,6.0778 -1.0215,8.9375 1.2238,3.6848 4.2086,6.8507 8.3007,8.5644 0.1298,3.0727 0.4342,9.5511 1.2579,18.5528 1.058,11.5621 2.6347,24.6479 5.9609,32.6992 3.4909,8.4408 10.2386,19.0422 19.8535,25.9297 9.2274,6.6098 21.8281,9.239 34.4727,1.8086 1.6159,0.3997 3.2423,0.6637 4.8418,0.8008 6.7451,0.5782 13.1435,-0.7757 17.7714,-3.0352 5.292,-2.5871 8.5224,-7.9069 9.6075,-13.5781 1.0501,-5.4885 -0.038,-11.7583 -4.4571,-16.1797 2.4797,-3.929 4.8324,-9.2534 4.9454,-15.6543 0.2471,-13.4615 -7.8473,-20.6059 -11.8165,-25.2578 -2.8922,-3.3886 -8.7007,-7.9737 -14.1953,-12.2735 -3.7969,-2.9713 -6.6617,-5.1283 -8.4804,-6.4882 0.054,-1.6499 -0.2615,-3.2832 -0.8926,-4.7422 -1.149,-2.6566 -3.2376,-4.8734 -5.9024,-6.3203 -1.5424,-13.1599 -2.2813,-25.9298 0.1075,-37.8203 2.2853,-11.3766 7.5503,-21.9782 17.6543,-31.959 9.3506,12.4145 41.7561,52.4424 87.8808,77.2382 l 0.4883,21.6602 c -1.4144,0.545 -2.6609,1.2179 -3.7363,2.0508 -2.5891,2.0054 -3.9858,5.1948 -3.7168,8.0586 0.4281,4.5576 3.6575,7.9844 7.8828,9.3164 -3.489,10.2528 -7.7278,26.9109 -5.6816,43.9863 a 4,4 0 0 0 0.027,0.2442 c 0.142,1.151 0.1999,2.2969 0.4023,3.4492 1.7625,10.0322 4.9102,20.7693 12.7578,29.3379 7.8478,8.5686 20.2457,14.5369 39.043,15.6132 17.903,1.0306 30.8188,-4.2914 39.2266,-12.0644 7.6307,-7.0547 11.5161,-15.8716 12.8437,-23.5684 0.8039,0.575 1.68,1.1538 2.6387,1.7285 7.2484,4.3454 19.2058,8.284 37.7617,8.4844 a 4,4 0 0 0 0.291,0.09 4,4 0 0 0 0.2246,-0.066 c 0.6347,0 1.123,0.089 1.7735,0.084 19.393,-0.1448 35.9631,-0.065 48.9277,-1.0312 12.9632,-0.9664 22.5354,-2.4619 28.1328,-8.3652 3.3733,-3.5544 3.7254,-8.5624 2.9571,-13.7032 -0.7684,-5.1407 -2.8622,-10.7569 -6.0606,-16.1894 -6.3967,-10.8651 -17.4253,-21.2054 -31.9765,-22.6719 -2.2176,-0.2231 -4.3658,-0.2852 -6.4415,-0.2012 -2.6813,0.1085 -5.2405,0.4656 -7.6777,1.0352 -6.1754,-2.1324 -13.3865,-3.3376 -21.1035,-3.3164 -1.9625,0.01 -3.9577,0.093 -5.9746,0.2598 -2.6803,-3.913 -4.7152,-8.1825 -6.0938,-12.879 0.6666,-0.362 1.2903,-0.7908 1.8672,-1.3144 2.1444,-1.9461 2.6641,-5.6777 1.5528,-8.0313 -2.2227,-4.707 -7.1648,-7.0176 -13.2579,-8.164 -0.7722,-0.1444 -1.5904,-0.2687 -2.4453,-0.375 16.5729,-7.6694 29.9369,-20.0488 45.5196,-34.5899 5.6662,-3.7559 10.5406,-8.3659 14.4082,-13.9101 22.3955,-32.1042 5.0429,-84.4928 -38.0879,-129.9688 15.3502,-1.2034 28.6294,-6.3309 39.4941,-15.2968 11.9473,-9.8596 20.9134,-24.1707 27.1758,-42.4629 0.7723,0.1294 1.5327,0.1975 2.2812,0.1953 2.845,-0.01 5.5335,-1.1445 7.2676,-3.0586 1.5543,-1.7157 2.3382,-3.803 2.4707,-5.9668 11.4854,-1.8627 27.3907,-4.0819 42.6192,-7.7188 16.8669,-4.0281 32.8091,-9.3173 40.6289,-19.6836 1.5866,-2.1055 2.7316,-4.1471 3.3613,-6.2129 1.8819,-1.0538 3.8216,-2.4788 5.3535,-4.5859 2.0277,-2.789 2.9569,-6.8684 1.8438,-11.1992 -0.8497,-3.2931 -2.7772,-5.9723 -5.2403,-7.4941 -1.2265,-0.7579 -2.5163,-1.2408 -3.8144,-1.5352 -0.7276,-2.2453 -1.8282,-4.1737 -3.2969,-5.6836 -2.0801,-2.1384 -4.749,-3.3082 -7.3711,-3.8203 -5.2442,-1.024 -10.58,0.1115 -15.2558,1.0801 -5.7946,1.196 -16.5204,5.1694 -26.3692,8.9258 -4.099,1.5631 -4.5421,1.7791 -7.6797,3.0195 1.5447,-3.62 2.7929,-7.5284 3.5918,-11.4395 0.8461,-4.1415 1.1963,-8.2384 0.6387,-12.0234 -0.5576,-3.7849 -2.1676,-7.5581 -5.6133,-9.7363 -1.6538,-1.0436 -3.4923,-1.5326 -5.3222,-1.5977 -1.8302,-0.065 -3.6528,0.295 -5.2715,0.9434 -3.2386,1.297 -6.0649,3.5296 -8.7461,6.1191 -5.3624,5.1791 -10.1029,11.9765 -13.375,16.7734 -2.7358,4.0062 -10.9131,12.6651 -18.1582,19.8789 -5.9949,5.9692 -10.5652,10.2968 -12.2676,11.9024 -0.8616,-0.069 -1.7101,-0.058 -2.5352,0.045 -1.3431,0.1674 -2.6261,0.5639 -3.8086,1.1914 -2.3649,1.2548 -4.239,3.6383 -4.6718,6.4453 -0.3546,2.2989 0.2231,4.6734 1.4824,6.877 -12.3438,13.3275 -25.0126,25.1234 -38.8125,32.5039 -14.6157,7.8169 -30.3601,10.8941 -49.3613,5.9805 a 4,4 0 0 0 -1.502,-0.084 c -32.6101,-19.3011 -66.0609,-30.2245 -95.0254,-32.1504 -0.8975,-3.1094 -1.9575,-6.1043 -3.1894,-8.9356 a 4,4 0 0 0 -0.8672,-1.8671 c -0.547,-1.1612 -1.1179,-2.2961 -1.7168,-3.4004 3.1664,-1.8669 7.8805,-4.7296 12.3008,-8.0723 5.372,-4.0677 8.7994,-8.2527 10.4726,-12.5352 1.6732,-4.2825 1.3906,-8.7364 -0.5527,-12.1875 -2.9144,-5.1757 -8.7596,-7.9059 -15.2266,-7.8027 -2.155,0.035 -4.3787,0.3858 -6.5859,1.0645 -3.9353,1.2092 -8.4201,3.8418 -13.4922,7.2773 -1.7798,-6.5657 -5.6022,-17.3145 -13.127,-26.0078 -1.8773,-5.5077 -16.825,-45.8542 -57.6425,-61.7539 -20.5457,-8.0042 -34.9779,-10.8917 -45.2442,-10.7403 z m 210.9219,410.5703 c 2.5985,0.289 5.1299,0.5194 7.5859,0.6816 -1.2118,0.7811 -2.2026,1.6984 -2.916,2.9122 -1.1505,-1.5609 -2.7199,-2.8563 -4.6699,-3.5938 z m 6.5703,12.4238 c 0.1142,0.089 0.2263,0.1847 0.3418,0.2676 0.2824,0.2027 0.5725,0.3937 0.8691,0.5762 -0.2495,2.2538 -0.5681,5.5133 -0.7832,9.291 -0.1931,3.3928 -0.3343,7.0659 -0.205,10.6406 -0.7181,-0.4295 -1.4439,-0.8358 -2.1778,-1.2207 -1.144,-4.6469 -3.0028,-10.2907 -4.4062,-14.332 2.2822,-0.3372 4.4509,-1.5979 5.582,-3.4551 0.3516,-0.5773 0.6008,-1.1706 0.7793,-1.7676 z" /><path
     style="color:#000000;clip-rule:nonzero;fill:#ffffff;fill-rule:nonzero;stroke-width:1.18969;stroke-linecap:butt;stroke-linejoin:miter;-inkscape-stroke:none"
     d="m -4430.4121,3694.5664 c 0.063,0 0.1267,0.01 0.1894,0.01 a 4,4 0 0 0 0.07,0.01 4,4 0 0 0 0.043,0 c 4.3246,0.1038 8.8421,0.8199 13.5664,2.2246 7.3126,2.1791 15.2814,8.4357 20.9551,15.8437 5.6737,7.4081 8.867,15.9358 8.2598,21.4883 -0.6947,6.3571 -3.8836,14.6092 -10.6758,20.8887 -6.7922,6.2795 -17.1909,10.8826 -33.3379,9.9531 -17.3527,-0.9936 -27.2924,-6.1448 -33.5996,-13.0312 -6.3071,-6.8864 -9.1318,-15.9407 -10.7793,-25.3184 -0.1335,-0.76 -0.1592,-1.5338 -0.2617,-2.2988 6.8635,-11.4905 15.3863,-20.1711 25.123,-25.0606 5.0356,-2.5287 10.391,-4.1032 16.0996,-4.5664 v 0 c 1.4266,-0.1156 2.8745,-0.1623 4.3457,-0.1367 z"
     id="path186450" /><path
     style="color:#000000;clip-rule:nonzero;fill:#ffffff;fill-rule:nonzero;stroke-width:1.18969;stroke-linecap:butt;stroke-linejoin:miter;-inkscape-stroke:none"
     d="m -4301.2344,3693.4531 v 0 c 1.7113,-0.053 3.5006,0.011 5.3692,0.1992 11.1484,1.1235 20.4159,9.4791 25.8867,18.7715 2.7354,4.6462 4.4672,9.4756 5.041,13.3145 0.5738,3.8389 -0.216,6.3461 -0.8476,7.0117 -2.4028,2.535 -10.5035,4.9686 -22.9239,5.8945 -12.0361,0.8973 -28.0634,0.8649 -46.7324,0.9942 -0.2035,-10.3473 2.4081,-22.0998 8.2715,-31.0176 4.4503,-6.7686 10.409,-11.9307 18.457,-14.082 a 4,4 0 0 0 0.5528,-0.1446 c 2.158,-0.5333 4.4559,-0.8641 6.9218,-0.9414 z"
     id="path186448" /><path
     style="color:#000000;clip-rule:nonzero;fill:#ffffff;fill-rule:nonzero;stroke-width:1.18969;stroke-linecap:butt;stroke-linejoin:miter;-inkscape-stroke:none"
     d="m -4346.502,3681.7969 c 0.4931,0.9842 1.0164,1.9509 1.5684,2.9004 -0.335,0.067 -0.6704,0.1405 -1.0059,0.2129 -0.1725,-0.9886 -0.3515,-2.0263 -0.5625,-3.1133 z"
     id="path186446" /><path
     style="color:#000000;clip-rule:nonzero;fill:#005dc7;fill-rule:nonzero;stroke-width:1.18969;stroke-linecap:butt;stroke-linejoin:miter;-inkscape-stroke:none"
     d="m -4442.459,3680.7695 c 0.7348,0.027 1.7254,0.2415 2.7383,0.7461 1.873,0.9333 3.7289,2.6617 4.7285,5.2383 -3.6519,0.2678 -7.2022,0.9106 -10.6289,1.9063 0.098,-2.2317 0.4784,-4.8982 1.5488,-7.2383 0.2018,-0.4426 0.2541,-0.4958 0.9727,-0.6113 0.1796,-0.029 0.3957,-0.04 0.6406,-0.031 z"
     id="path186444" /><path
     style="color:#000000;clip-rule:nonzero;fill:#005dc7;fill-rule:nonzero;stroke-width:1.18969;stroke-linecap:butt;stroke-linejoin:miter;-inkscape-stroke:none"
     d="m -4361.8066,3675.9961 c 1.2112,-0.051 3.1201,0.3647 4.6171,1.1133 1.1258,0.5618 1.7953,1.7324 2.4258,4.3144 0.3918,1.6046 0.6498,3.5438 1.0371,5.6114 -2.1704,0.7224 -4.3322,1.5576 -6.4746,2.5078 -0.4766,-0.7356 -0.9981,-1.5856 -1.5117,-2.5352 -1.5886,-2.937 -2.7143,-6.5778 -2.3984,-8.541 0.3796,-2.3595 0.7012,-2.2066 1.832,-2.4199 0.1414,-0.027 0.2996,-0.044 0.4727,-0.051 z"
     id="path186438" /><path
     style="color:#000000;clip-rule:nonzero;fill:#ffffff;fill-rule:nonzero;stroke-width:1.18969;stroke-linecap:butt;stroke-linejoin:miter;-inkscape-stroke:none"
     d="m -4350.8926,3671.9062 a 4,4 0 0 0 0.6778,0.2676 c 0.067,0.2384 0.1351,0.4761 0.205,0.7129 -0.272,-0.3401 -0.5666,-0.6678 -0.8828,-0.9805 z"
     id="path186432" /><path
     style="color:#000000;clip-rule:nonzero;fill:#ffffff;fill-rule:nonzero;stroke-width:1.18969;stroke-linecap:butt;stroke-linejoin:miter;-inkscape-stroke:none"
     d="m -4447.6035,3666.5117 c 14.3937,-0.018 28.9004,0.5213 32.1289,0.8106 0.9404,0.09 2.0318,1.3127 2.2715,2.289 0.03,0.1217 0.024,0.019 0.029,0.098 -6.3629,0.1681 -16.7832,0 -16.7832,0 a 4,4 0 0 0 -4.0684,3.9297 4,4 0 0 0 1.1231,2.8496 4,4 0 0 0 2.8085,1.2187 c 0,0 4.7169,0.076 9.8184,0.076 0.9094,2.5835 2.3233,6.7005 3.5449,10.6797 -3.3692,-0.8588 -6.6866,-1.4037 -9.9433,-1.666 -0.937,-4.3709 -3.3039,-7.8928 -6.2285,-10.3086 -1.0288,-0.8498 -2.1228,-1.5702 -3.252,-2.1328 -2.6008,-1.2959 -5.4156,-1.9031 -8.2148,-1.4532 v 0.01 c -2.798,0.4496 -5.6565,2.2874 -6.9805,5.1875 -2.3383,5.1148 -2.5145,10.4104 -2.3203,13.6562 -0.2591,0.1249 -0.5221,0.24 -0.7793,0.3691 -8.3789,4.2077 -15.7048,10.6972 -21.9903,18.75 0.7107,-11.8289 3.8521,-22.8979 6.3165,-29.8476 5.6298,0.032 12.5195,-0.09 12.5195,-0.09 a 4,4 0 0 0 3.9336,-4.0644 4,4 0 0 0 -4.0645,-3.9356 c 0,0 -12.4174,0.1879 -16.8691,0 -1.8347,-0.074 -3.6058,-2.0939 -3.6602,-2.6738 -0.027,-0.29 -0.1864,-0.3383 0.6504,-0.9863 0.8367,-0.6481 2.9305,-1.5891 6.6836,-1.9531 6.0944,-0.5871 14.69,-0.7995 23.3262,-0.8106 z"
     id="path186430" /><path
     style="color:#000000;clip-rule:nonzero;fill:#ffffff;fill-rule:nonzero;stroke-width:1.18969;stroke-linecap:butt;stroke-linejoin:miter;-inkscape-stroke:none"
     d="m -4360.0781,3660.4355 c 2.5555,0.035 4.7554,0.1992 6.4082,0.5079 3.2405,0.6097 5.2775,2.0002 6.3945,2.8828 -0.6139,0.181 -1.307,0.3798 -2.3906,0.4824 a 4,4 0 0 0 -3.6055,4.3594 4,4 0 0 0 0.7695,1.9336 c -0.3515,-0.2326 -0.7181,-0.4532 -1.1132,-0.6504 -2.1664,-1.083 -4.6772,-1.9349 -7.3828,-1.9942 v 0 c -0.9022,-0.02 -1.8259,0.049 -2.7657,0.2265 -3.7592,0.7092 -7.4657,4.1593 -8.2461,9.0098 -0.8441,5.2468 1.2934,9.9817 3.2598,13.6172 0.4668,0.863 0.9413,1.6654 1.3965,2.3945 -2.1398,1.2579 -4.244,2.6466 -6.2969,4.1758 a 4,4 0 0 0 -0.8184,5.5977 4,4 0 0 0 5.5977,0.8183 c 9.6779,-7.2091 20.6843,-10.9533 31.1641,-12.1523 5.671,-0.6473 11.1854,-0.5356 16.1992,0.1582 -4.9926,3.2531 -9.1389,7.5446 -12.3457,12.4219 -6.8823,10.4674 -9.7633,23.3532 -9.5781,35.1308 -14.814,-0.7053 -24.1928,-3.9484 -29.5469,-7.1582 -3.0582,-1.8333 -4.934,-3.6103 -6.0235,-4.8574 -0.5265,-0.6028 -0.8197,-0.9983 -1,-1.2637 -1.446,-6.2564 -4.8428,-12.5591 -9.2343,-18.2929 -2.1504,-2.8078 -4.5771,-5.4601 -7.1856,-7.8868 -0.8714,-4.0176 -0.9681,-11.018 -0.6328,-16.9101 0.1565,-2.7497 0.3759,-5.2485 0.5762,-7.2442 2.1274,0.2239 4.3505,0.166 6.5762,-0.1523 a 4,4 0 0 0 3.3925,-4.5273 4,4 0 0 0 -4.5254,-3.3926 c -2.721,0.3891 -5.6918,-0.2654 -7.6367,-0.9239 0.3601,-0.2007 0.4781,-0.3439 0.9942,-0.5566 8.7802,-3.6124 26.5257,-5.9058 37.5996,-5.7559 z"
     id="path186428" /><path
     style="color:#000000;clip-rule:nonzero;fill:#ffffff;fill-rule:nonzero;stroke-width:1.18969;stroke-linecap:butt;stroke-linejoin:miter;-inkscape-stroke:none"
     d="m -4581.5449,3650.2812 c 1.8742,1.4157 4.3535,3.3056 6.9804,5.3614 5.3929,4.2202 11.5633,9.4346 13.0411,11.166 4.7506,5.5679 10.0942,9.5028 9.9023,19.9199 -0.058,3.3026 -1.0276,6.3502 -2.2969,8.957 -2.1392,-3.2275 -4.4635,-7.1058 -6.4492,-10.7324 -3.7664,-6.8785 -6.6543,-12.9492 -6.6543,-12.9492 a 4,4 0 0 0 -2.2715,-2.0508 v 0 a 4,4 0 0 0 -3.0547,0.1563 4,4 0 0 0 -1.8945,5.3301 c 0,0 2.9721,6.2489 6.8632,13.3554 3.8912,7.1065 8.3373,14.8953 12.9414,19.1602 2.4021,2.222 3.155,5.6798 2.4727,9.2461 -0.6824,3.5664 -2.9258,6.7515 -5.2637,7.8945 -3.0121,1.4701 -8.422,2.6917 -13.5761,2.25 -5.1549,-0.4419 -9.9073,-2.3245 -13.0879,-6.5586 a 4,4 0 0 0 -5.6016,-0.7949 4,4 0 0 0 -0.7949,5.5996 c 1.3557,1.8048 2.9065,3.3085 4.5801,4.5644 -7.7204,2.6494 -14.2939,0.4484 -20.4356,-3.9511 -7.8167,-5.5994 -14.1477,-15.3015 -17.1172,-22.4805 -2.4038,-5.8186 -4.3541,-19.0677 -5.3886,-30.373 -0.6656,-7.2733 -0.9712,-12.715 -1.1524,-16.4746 3.0417,-0.078 10.5018,0.1573 18.5469,-0.041 8.3162,-0.2049 17.2448,-0.776 23.9492,-3.1425 2.3009,-0.8142 4.2515,-1.9751 5.7637,-3.4122 z"
     id="path186424" /><path
     style="color:#000000;clip-rule:nonzero;fill:#000000;fill-rule:nonzero;stroke-width:1.18969;stroke-linecap:butt;stroke-linejoin:miter;-inkscape-stroke:none"
     d="m -4471.1719,3643.3672 c 12.2953,5.9058 25.4544,10.6511 39.3457,13.4648 4.4741,0.9071 8.7433,1.6496 12.8496,2.2539 -4.759,-0.2474 -12.097,-0.4981 -20.2187,-0.5957 l -0.01,0.012 c -10.823,-0.13 -22.873,0.016 -31.6114,0.7929 z"
     id="path186422" /><path
     style="color:#000000;clip-rule:nonzero;fill:#ffffff;fill-rule:nonzero;stroke-width:1.18969;stroke-linecap:butt;stroke-linejoin:miter;-inkscape-stroke:none"
     d="m -4592.2344,3637.9727 c 0.4452,0 0.8694,0.031 1.2715,0.096 v 0 c 2.413,0.3889 4.0359,1.8862 4.6113,3.2168 0.3837,0.887 0.3787,1.5494 0.016,2.2753 -0.3634,0.726 -1.2678,1.7489 -3.6446,2.5899 -4.8262,1.7026 -13.4684,2.492 -21.4804,2.6894 -8.0138,0.1976 -15.3062,-0.091 -19.0313,0.045 -4.8404,0.1777 -7.4592,-2.5153 -8.0996,-4.4434 -0.3202,-0.964 -0.201,-1.5464 0.092,-1.9863 0.1578,-0.2372 0.4392,-0.5395 0.9961,-0.8086 a 4,4 0 0 0 0.086,-0.039 c 0.4716,-0.2139 1.122,-0.4039 2.0645,-0.5136 2.0926,-0.2458 11.3056,-0.7816 20.3008,-1.3223 8.9931,-0.5407 17.6452,-1.0368 21.4179,-1.6758 0.4852,-0.082 0.9514,-0.1205 1.3965,-0.123 z"
     id="path186420" /><path
     style="color:#000000;clip-rule:nonzero;fill:#ffb900;fill-rule:nonzero;stroke-width:1.18969;stroke-linecap:butt;stroke-linejoin:miter;-inkscape-stroke:none"
     d="m -4331.4863,3627.5527 c -9.298,7.9242 -18.2329,14.3549 -28.3028,18.7188 -0.1797,0.078 -0.3663,0.146 -0.5468,0.2226 4.1874,-5.1001 7.8786,-10.5491 10.9531,-16.414 6.2943,-0.3462 12.2842,-1.1801 17.8965,-2.5274 z"
     id="path186418" /><path
     style="color:#000000;clip-rule:nonzero;fill:#ffb900;fill-rule:nonzero;stroke-width:1.18969;stroke-linecap:butt;stroke-linejoin:miter;-inkscape-stroke:none"
     d="m -4391.5293,3625.9863 c 11.4572,2.6223 22.5118,4.0667 32.8867,4.2696 -4.5399,7.6328 -10.293,14.5491 -17.0078,20.957 -9.1772,1.8489 -19.6333,2.3593 -32.2226,1.1855 5.5197,-7.1677 10.9433,-16.0024 16.3437,-26.4121 z"
     id="path186416" /><path
     style="color:#000000;clip-rule:nonzero;fill:#ffb900;fill-rule:nonzero;stroke-width:1.18969;stroke-linecap:butt;stroke-linejoin:miter;-inkscape-stroke:none"
     d="m -4443.3789,3607.0234 c 14.7982,7.4073 29.5845,13.0651 43.8672,16.959 -5.9852,11.3249 -11.934,20.4974 -17.7246,27.2774 -4.1222,-0.5994 -8.4327,-1.3416 -13,-2.2676 -11.6233,-2.3543 -22.7636,-6.1933 -33.3203,-10.9844 z"
     id="path186414" /><path
     style="color:#000000;clip-rule:nonzero;fill:#ffb900;fill-rule:nonzero;stroke-width:1.18969;stroke-linecap:butt;stroke-linejoin:miter;-inkscape-stroke:none"
     d="m -4486.7031,3580.1191 c 2.7424,2.0623 5.54,4.0933 8.3965,6.086 9.1463,6.3804 18.4528,12.0876 27.791,17.1152 l -20.3184,31.2051 c -14.0813,-7.1485 -26.9706,-15.9019 -38.3945,-24.9805 z"
     id="path186412" /><path
     style="color:#000000;clip-rule:nonzero;fill:#ffb900;fill-rule:nonzero;stroke-width:1.18969;stroke-linecap:butt;stroke-linejoin:miter;-inkscape-stroke:none"
     d="m -4524.748,3545.4629 c 9.3024,10.3175 19.923,20.3269 31.7343,29.7383 l -22.4121,29.2812 c -13.2704,-11.1843 -24.2286,-22.483 -32.3105,-31.5976 z"
     id="path186408" /><path
     style="color:#000000;clip-rule:nonzero;fill:#ffb900;fill-rule:nonzero;stroke-width:1.18969;stroke-linecap:butt;stroke-linejoin:miter;-inkscape-stroke:none"
     d="m -4497.1992,3489.7227 c 10.5983,12.8132 21.7742,23.852 34.3828,30.6972 12.647,6.8662 26.896,9.3038 42.332,4.8203 l 28.8926,28.8965 c -3.1545,-0.9055 -6.7613,-2.6327 -10.0957,-4.5781 -6.8608,-4.0028 -12.4961,-8.7676 -12.4961,-8.7676 a 4.0004,4.0004 0 0 0 -4.5312,-0.4453 l -14.4493,8.0293 a 4.0004,4.0004 0 0 0 -1.0254,6.1777 c 17.5479,19.4218 35.9141,26.5385 49.8536,28.586 9.8769,1.4507 17.6265,0.3662 21.3535,-0.3926 l 9.1914,9.1914 c -27.7621,7.0361 -69.1867,-3.393 -107.5098,-30.127 -25.3268,-17.6678 -44.5,-39.1833 -55.4082,-59.9277 5.904,-5.2742 12.1767,-9.5909 19.5098,-12.1601 z"
     id="path186402" /><path
     style="color:#000000;clip-rule:nonzero;fill:#ffb900;fill-rule:nonzero;stroke-width:1.18969;stroke-linecap:butt;stroke-linejoin:miter;-inkscape-stroke:none"
     d="m -4571.7715,3475.5859 c 2.5134,2.1719 5.1925,3.9906 7.9903,5.3672 5.9342,19.0344 17.4743,39.1315 33.705,58.4141 l -22.957,27.3848 c -6.71,-7.9769 -10.3965,-13.1875 -10.3965,-13.1875 a 4.0004,4.0004 0 0 0 -2.7988,-1.6817 v 0 a 4.0004,4.0004 0 0 0 -3.1211,0.9668 c -13.6024,11.9532 -20.4799,25.532 -23.2949,39.5449 -2.4859,12.3745 -1.8748,25.035 -0.5,37.6211 -0.5972,0.035 -1.1996,0.09 -1.8105,0.1933 -2.1286,0.3608 -11.5947,1.0409 -20.5645,1.5801 -8.1706,0.4912 -15.8233,0.9029 -19.5683,1.2559 0.7689,-21.6615 0.292,-41.5373 5.2089,-60.043 5.311,-19.9899 16.6691,-38.6884 43.5352,-57.5234 a 4.0004,4.0004 0 0 0 1.6113,-4.1328 c -1.425,-6.4838 -2.1618,-12.1677 -2.4883,-17.2657 z"
     id="path186400" /><path
     style="color:#000000;clip-rule:nonzero;fill:#ffb900;fill-rule:nonzero;stroke-width:1.18969;stroke-linecap:butt;stroke-linejoin:miter;-inkscape-stroke:none"
     d="m -4470.3105,3475.4082 20.9707,20.9746 c -5.4965,-1.2864 -10.8066,-4.4182 -14.7461,-8.6543 -3.0374,-3.266 -5.1805,-6.9903 -6.0254,-10.1914 -0.2129,-0.8066 -0.1347,-1.4212 -0.1992,-2.1289 z"
     id="path186398" /><path
     style="color:#000000;clip-rule:nonzero;fill:#ffb900;fill-rule:nonzero;stroke-width:1.18969;stroke-linecap:butt;stroke-linejoin:miter;-inkscape-stroke:none"
     d="m -4447.7461,3466.9609 c 3.1756,2.155 5.9692,4.8266 8.0117,8.0157 z"
     id="path186396" /><path
     style="color:#000000;clip-rule:nonzero;fill:#000000;fill-rule:nonzero;stroke-width:1.18969;stroke-linecap:butt;stroke-linejoin:miter;-inkscape-stroke:none"
     d="m -4497.5469,3466.8145 a 4,4 0 0 0 -1.2422,0.1503 c -13.6522,3.8992 -25.6029,11.5333 -36.2168,21.2696 a 4,4 0 0 0 -0.2441,5.6504 4,4 0 0 0 5.6523,0.2441 c 9.9461,-9.1237 20.8163,-15.9899 33.0039,-19.4707 a 4,4 0 0 0 2.7481,-4.9453 4,4 0 0 0 -3.7012,-2.8984 z"
     id="path186394" /><path
     style="color:#000000;clip-rule:nonzero;fill:#ffb900;fill-rule:nonzero;stroke-width:1.18969;stroke-linecap:butt;stroke-linejoin:miter;-inkscape-stroke:none"
     d="m -4581.9355,3463.4277 c 1.409,2.2864 2.9367,4.4188 4.5605,6.3887 l -9.7402,11.6563 c 0.463,-4.7459 1.3547,-8.6306 2.3906,-11.7247 0.8909,-2.6653 1.8768,-4.7166 2.7891,-6.3203 z"
     id="path186392" /><path
     style="color:#000000;clip-rule:nonzero;fill:#ff9cae;fill-rule:nonzero;stroke-width:1.18969;stroke-linecap:butt;stroke-linejoin:miter;-inkscape-stroke:none"
     d="m -4497.8633,3461.2656 c 0.3281,0.014 0.6551,0.043 0.9766,0.088 v 0 c 3.8582,0.5433 7.1727,3.3296 8.2364,7.3633 1.4174,5.3745 -1.7442,10.8005 -7.127,12.2109 -0.3929,0.1034 -0.7767,0.2205 -1.1641,0.332 -0.021,0.01 -0.043,0.013 -0.064,0.019 -10.4058,3.0096 -18.8,8.9088 -26.1856,15.6993 -1.5734,1.0724 -1.3851,1.1042 -2.3142,2 -4.0155,2.8575 -9.5338,2.3985 -13.0254,-1.2871 -3.8257,-4.049 -3.6471,-10.313 0.3926,-14.1368 10.7807,-10.1977 22.6735,-18.1164 37.2773,-21.957 1.0079,-0.2658 2.0157,-0.3705 3,-0.3301 z"
     id="path186390" /><path
     style="color:#000000;clip-rule:nonzero;fill:#ffb900;fill-rule:nonzero;stroke-width:1.18969;stroke-linecap:butt;stroke-linejoin:miter;-inkscape-stroke:none"
     d="m -4523.3516,3460.5508 c 0.7786,0.1993 1.5641,0.3547 2.3536,0.4844 -1.1068,0.5953 -2.1978,1.2112 -3.2735,1.8496 0.3229,-0.7636 0.6293,-1.5423 0.9199,-2.334 z"
     id="path186388" /><path
     style="color:#000000;clip-rule:nonzero;fill:#ffb900;fill-rule:nonzero;stroke-width:1.18969;stroke-linecap:butt;stroke-linejoin:miter;-inkscape-stroke:none"
     d="m -4484.9707,3437.4785 c 30.2232,-0.1131 49.3772,13.9545 63.8379,31.5469 l -11.1504,2.9297 c -6.503,-11.4085 -19.0883,-17.6577 -30.6191,-18.9004 a 4.0004,4.0004 0 0 0 -3.2579,6.8047 l 41.7403,41.75 a 4,4 0 0 0 0.3027,0.1738 4,4 0 0 0 1.2188,0.7051 4,4 0 0 0 0.539,0.1562 4,4 0 0 0 1.5332,0 4,4 0 0 0 0.334,-0.037 4,4 0 0 0 0.1074,-0.012 c 22.5567,-7.1429 44.6242,3.8929 58.7227,20.0293 7.0492,8.0682 11.9607,17.3562 13.8066,25.7773 1.846,8.4213 0.7243,15.6756 -3.6953,20.8809 a 4,4 0 0 0 -0.7715,1.4785 4,4 0 0 0 -0.043,0.3731 4,4 0 0 0 0,1.4922 4,4 0 0 0 0.1582,0.5546 4,4 0 0 0 0.7011,1.2129 4,4 0 0 0 0.1758,0.3047 l 11.4766,11.4766 c -1.7378,1.0668 -3.5806,2.0203 -5.5176,2.8691 l -124.1875,-124.1972 a 4.0004,4.0004 0 0 0 -3.0918,-1.1622 4.0004,4.0004 0 0 0 -2.9121,1.5606 c -3.1766,4.1501 -3.5666,9.4791 -2.2852,14.334 1.2814,4.8548 4.1167,9.5248 7.9043,13.5976 7.0809,7.6139 17.8282,13.2869 29.043,11.6446 l 13.8203,13.8222 c -11.648,2.3672 -21.9443,0.162 -31.9199,-5.2539 -10.5181,-5.7103 -20.5366,-15.1744 -30.2461,-26.6152 6.7786,-3.9832 10.4214,-12.1546 8.3262,-20.0996 -2.1009,-7.9664 -9.3274,-13.295 -17.211,-13.3965 3.3448,-3.3383 6.1206,-7.5344 8.2149,-12.293 0.482,-1.0953 0.9216,-2.2281 1.3359,-3.3828 1.208,-0.048 2.4352,-0.1206 3.6094,-0.125 z"
     id="path186386" /><path
     style="color:#000000;clip-rule:nonzero;fill:#ffffff;fill-rule:nonzero;stroke-width:1.18969;stroke-linecap:butt;stroke-linejoin:miter;-inkscape-stroke:none"
     d="m -4566.0859,3427.5391 c 1.8439,11.8748 5.7068,20.5193 11.4648,26.1425 2.05,-3.32 3.6799,-7.1097 4.8399,-11.4296 1.3799,5.6499 1.46,10.789 0.58,15.539 4.7199,2.7029 10.3269,3.9915 16.7715,3.9434 -3.86,7.6984 -9.518,12.5951 -16.2402,13.7285 -6.8729,1.1586 -13.9802,-1.7572 -20.25,-8.0352 a 4,4 0 0 0 -0.6563,-0.705 4,4 0 0 0 -0.072,-0.047 c -0.098,-0.103 -0.1977,-0.1981 -0.295,-0.3028 -2.8607,-3.0786 -5.4774,-6.8613 -7.6914,-11.1894 a 4,4 0 0 0 -0.7441,-1.5176 c -2.4617,-5.1716 -4.3581,-11.0518 -5.4297,-17.4082 -0.1847,-1.0957 -0.3395,-2.1851 -0.4707,-3.2695 5.773,-0.8221 11.8167,-2.5927 18.1934,-5.4492 z"
     id="path186384" /><path
     style="color:#000000;clip-rule:nonzero;fill:#ffb900;fill-rule:nonzero;stroke-width:1.18969;stroke-linecap:butt;stroke-linejoin:miter;-inkscape-stroke:none"
     d="m -4476.3359,3423.5488 c 25.9496,0.055 58.5351,11.0253 88.9804,32.2637 53.2806,37.1683 79.0565,90.8442 58.8321,119.8359 -1.4372,2.0602 -3.0927,3.9255 -4.9082,5.6368 l -9.8282,-9.8282 c 4.4451,-7.1086 5.1466,-15.9727 3.2188,-24.7675 -2.21,-10.0822 -7.7732,-20.3726 -15.5977,-29.3282 -11.7367,-13.4333 -28.8904,-23.9861 -47.8008,-24.9179 -5.5461,-0.2734 -11.2421,0.284 -16.998,1.8359 l -14.668,-14.6719 a 4.0004,4.0004 0 0 0 1.8203,0.8828 l 20.17,-5.3007 a 4.0004,4.0004 0 0 0 2.1777,-6.2754 c -15.6094,-20.7195 -38.2466,-39.2889 -73.5176,-39.4278 -0.6193,0 -1.2536,0.017 -1.8808,0.025 0.3607,-1.7786 0.65,-3.6014 0.8652,-5.4629 2.9444,-0.3175 5.9782,-0.5066 9.1348,-0.5 z"
     id="path186382" /><path
     style="color:#000000;clip-rule:nonzero;fill:#ffffff;fill-rule:nonzero;stroke-width:1.18969;stroke-linecap:butt;stroke-linejoin:miter;-inkscape-stroke:none"
     d="m -4519.1465,3408.957 c 0.7188,9.5736 3.0244,17.6576 7.8555,23.3535 3.06,-4.0599 5.4999,-8.9396 7.1699,-14.8496 1.15,7.21 0.3697,13.6201 -2.0703,19.3301 2.2634,1.4646 4.8794,2.5975 7.875,3.3692 -3.8401,7.119 -9.2918,11.6413 -15.7168,12.7246 -2.3519,0.3965 -4.707,0.3047 -7.0527,-0.2207 1.7549,-8.2552 1.9615,-17.5029 0.3535,-27.0411 -0.8783,-5.2093 -2.2473,-10.1545 -4.0078,-14.7597 1.915,-0.5341 3.7788,-1.171 5.5937,-1.9063 z"
     id="path186380" /><path
     style="color:#000000;clip-rule:nonzero;fill:#ffb900;fill-rule:nonzero;stroke-width:1.18969;stroke-linecap:butt;stroke-linejoin:miter;-inkscape-stroke:none"
     d="m -4486.3418,3401.7676 c 27.1855,1.6711 59.0105,11.9093 90.1758,30.2812 a 4,4 0 0 0 2.6035,2.295 c 0.6711,0.1735 1.3323,0.3115 1.998,0.4667 4.3402,2.6769 8.6644,5.4906 12.9532,8.4825 12.4899,8.7129 23.8001,18.1384 33.8222,27.9472 a 4,4 0 0 0 3.1387,3.1387 c 43.0305,43.6709 60.3027,94.2695 39.2442,124.457 -10.0106,14.3501 -27.3567,22.1495 -48.7891,23.6836 a 4,4 0 0 0 -2.0527,0.1133 c -11.6562,0.6112 -24.4495,-0.5684 -37.9141,-3.5449 a 4,4 0 0 0 -0.9785,-0.7031 4,4 0 0 0 -3.0215,-0.2422 c -14.9821,-3.6666 -30.6913,-9.468 -46.4727,-17.3887 a 4,4 0 0 0 -1.4043,-1.584 4,4 0 0 0 -2.7675,-0.582 c -9.6773,-5.0818 -19.3563,-10.9207 -28.8829,-17.5664 -3.2264,-2.2507 -6.3499,-4.5647 -9.4199,-6.9063 a 4,4 0 0 0 -1.4199,-2.1093 4,4 0 0 0 -2.2988,-0.7911 c -12.6758,-10.022 -23.9167,-20.7491 -33.5274,-31.7812 a 4,4 0 0 0 -1.3965,-2.5781 4,4 0 0 0 -1.4355,-0.7344 c -14.5679,-17.3982 -25.0764,-35.4007 -30.7559,-52.3945 2.3604,0.3278 4.7555,0.3225 7.1582,-0.033 -2.7383,6.4033 -1.6336,14.1312 3.4317,19.4921 5.8152,6.1439 15.033,7.2482 22.0801,3.1875 12.0711,21.3036 31.8514,42.8251 57.3593,60.6192 56.7303,39.5746 121.5029,46.3935 144.084,14.0234 22.5853,-32.3759 -6.1799,-90.8102 -62.9101,-130.3847 -34.615,-24.1472 -72.0423,-36.0713 -101.2657,-34.3829 0.019,-4.2882 -0.3309,-8.7132 -1.0879,-13.2031 -0.073,-0.4313 -0.1687,-0.8496 -0.248,-1.2773 z"
     id="path186378" /><path
     style="color:#000000;clip-rule:nonzero;fill:#ffb900;fill-rule:nonzero;stroke-width:1.18969;stroke-linecap:butt;stroke-linejoin:miter;-inkscape-stroke:none"
     d="m -4298.3027,3394.4004 c 6.8627,7.1112 17.1572,14.6872 24.7343,19.1035 -5.9214,17.4628 -14.2188,30.5119 -24.8261,39.2656 -11.1486,9.2005 -24.925,13.8503 -42.0743,13.7481 -10.3159,-9.9939 -21.8572,-19.571 -34.5253,-28.4082 -0.6267,-0.4372 -1.2606,-0.8426 -1.8887,-1.2735 14.0892,0.5618 26.8706,-2.9653 38.457,-9.1621 14.7959,-7.9131 27.7652,-19.9966 40.1231,-33.2734 z"
     id="path186376" /><path
     style="color:#000000;clip-rule:nonzero;fill:#ff87a8;fill-rule:nonzero;stroke-width:1.18969;stroke-linecap:butt;stroke-linejoin:miter;-inkscape-stroke:none"
     d="m -4548.1387,3391.6484 c 3.0855,2.114 6.0445,5.0113 8.7188,8.5469 -17.1286,14.7578 -31.3402,22.0541 -43.3906,24.4317 1.1638,-0.93 2.3167,-1.8951 3.457,-2.8868 9.3018,-8.0894 17.9153,-18.0138 22.457,-22.1855 1.8379,-1.6881 5.0536,-4.5961 8.7578,-7.9063 z"
     id="path186374" /><path
     style="color:#000000;clip-rule:nonzero;fill:#ff5312;fill-rule:nonzero;stroke-width:1.18969;stroke-linecap:butt;stroke-linejoin:miter;-inkscape-stroke:none"
     d="m -4533.1211,3368.127 c -6.3281,5.2886 -12.4401,10.5861 -17.5586,15.1015 a 4.1417138,3.8580465 80.430508 0 0 -0.6738,0.5996 c -4.8089,4.251 -8.738,7.8033 -10.9531,9.8379 -5.3983,4.9584 -13.6088,14.4834 -22.2969,22.0391 -2.1323,1.8543 -4.2833,3.5712 -6.3809,5.0586 a 4.1417138,3.8580465 80.430508 0 0 -0.3496,0.2383 c -2.0522,1.4336 -4.0504,2.6498 -5.914,3.5234 -3.8688,1.8135 -6.8382,2.1337 -9.0645,1.2051 -2.3601,-0.9842 -2.8077,-1.9228 -2.8867,-4.1446 -0.079,-2.2217 0.9594,-5.6975 3.1738,-9.3183 4.4285,-7.2413 13.2527,-14.8755 22.2793,-17.5274 9.1945,-2.6973 23.0658,-10.2775 35.1563,-17.2636 8.4603,-4.8887 11.7614,-7.0344 15.4687,-9.3496 z"
     id="path186370" /><path
     style="color:#000000;clip-rule:nonzero;fill:#ff87a8;fill-rule:nonzero;stroke-width:1.18969;stroke-linecap:butt;stroke-linejoin:miter;-inkscape-stroke:none"
     d="m -4518.4316,3366.4004 c 5.6427,2.2895 11.1673,7.1388 15.6562,13.9883 a 4,4 0 0 0 0.072,0.2754 4,4 0 0 0 0.3281,0.332 c 0.866,1.3691 1.6793,2.8255 2.4531,4.334 -8.4334,8.957 -17.4746,15.4908 -28.1465,18.1406 -0.7484,-1.4273 -1.533,-2.8128 -2.3632,-4.1406 a 4,4 0 0 0 -0.6934,-1.1094 4,4 0 0 0 -0.07,-0.061 c -3.1326,-4.7577 -6.7742,-8.8138 -10.8008,-11.9454 5.1056,-4.48 10.8183,-9.4113 16.7617,-14.3144 2.2671,-1.8702 4.5412,-3.7015 6.8028,-5.5 z"
     id="path186368" /><path
     style="color:#000000;clip-rule:nonzero;fill:#ff5312;fill-rule:nonzero;stroke-width:1.18969;stroke-linecap:butt;stroke-linejoin:miter;-inkscape-stroke:none"
     d="m -4486.8398,3347.5859 c 4.0011,-0.045 7.0879,1.6761 8.2304,3.7051 0.7617,1.3526 1.0194,2.9261 0.072,5.3496 -0.9468,2.4234 -3.2988,5.623 -7.8516,9.0703 -3.9909,3.0177 -8.6911,5.8674 -11.7168,7.6582 -3.8247,-5.2606 -8.3089,-9.5397 -13.2402,-12.4668 2.0539,-1.5492 4.0718,-3.0434 5.9863,-4.3925 6.0959,-4.2957 11.5385,-7.4026 14.252,-8.2364 1.4989,-0.4609 2.9338,-0.6726 4.2676,-0.6875 z"
     id="path186364" /><path
     style="color:#000000;clip-rule:nonzero;fill:#ff5312;fill-rule:nonzero;stroke-width:1.18969;stroke-linecap:butt;stroke-linejoin:miter;-inkscape-stroke:none"
     d="m -4552.3379,3314.9023 c 5.2842,-0.2862 10.7555,1.5024 16.5586,4.4805 13.9607,7.1606 20.0452,26.9698 21.7324,33.5567 -2.17,1.6154 -4.4152,3.3691 -6.6679,5.1406 a 4.1417138,3.8580465 80.430508 0 0 -0.3125,0.1054 v 0.01 a 4.1417138,3.8580465 80.430508 0 0 -1.1348,1.0293 c -0.855,0.6777 -1.6945,1.3197 -2.5528,2.0078 a 4,4 0 0 0 -0.539,-2.6367 4,4 0 0 0 -5.5215,-1.2266 c 0,0 -9.8905,6.2948 -21.8125,13.1836 -11.922,6.8888 -26.1709,14.3891 -33.4062,16.5117 -0.4956,0.1456 -0.9835,0.3138 -1.4727,0.4785 -2.1435,-14.4314 -1.5031,-36.8432 13.4746,-57.6738 7.0562,-9.819 13.423,-13.6873 19.4043,-14.7129 0.7477,-0.1282 1.499,-0.2111 2.2539,-0.252 z"
     id="path186360" /><path
     style="color:#000000;clip-rule:nonzero;fill:#ffb900;fill-rule:nonzero;stroke-width:1.18969;stroke-linecap:butt;stroke-linejoin:miter;-inkscape-stroke:none"
     d="m -4622.8457,3257.4043 c 8.6153,-0.1272 22.2635,2.4196 42.2227,10.1953 25.1447,9.7945 39.7633,30.2381 47.1386,43.9942 -5.1359,-2.5069 -10.5587,-4.3988 -16.2148,-4.6876 v 0 c -1.4145,-0.072 -2.8448,-0.037 -4.2871,0.1055 -2.4748,-3.2001 -3.1092,-6.1194 -1.8164,-10.1191 a 4.0004,4.0004 0 0 0 -5.2558,-4.959 c -7.216,2.8059 -12.1941,3.039 -14.1094,2.2226 -0.9577,-0.4082 -1.419,-0.8416 -1.9024,-2.0312 -0.4833,-1.1896 -0.7919,-3.231 -0.5527,-6.125 a 4.0004,4.0004 0 0 0 -5.0938,-4.1719 c -8.0012,2.3027 -14.8501,3.1946 -18.1191,2.3828 -1.6345,-0.4058 -2.2352,-0.8862 -2.7266,-1.7968 -0.4913,-0.9107 -0.8743,-2.7353 -0.375,-5.8985 a 4.0004,4.0004 0 0 0 -5.5078,-4.3086 c -7.0481,2.9749 -12.0079,3.4551 -13.2851,3.041 -0.6386,-0.207 -0.5395,-0.1135 -0.7461,-0.7246 -0.2067,-0.611 -0.3444,-2.1663 0.1445,-4.5488 a 4.0004,4.0004 0 0 0 -6.7285,-3.6484 c -1.2446,1.2292 -2.0887,1.4348 -2.7012,1.4472 -0.6124,0.012 -1.1991,-0.2113 -1.8008,-0.7617 -1.2033,-1.1007 -1.8939,-3.2594 -0.9375,-5.0801 0.9564,-1.8206 4.041,-4.4001 12.6563,-4.5273 z"
     id="path186358" /><path
     style="color:#000000;clip-rule:nonzero;fill:#ffb900;fill-rule:nonzero;stroke-width:1.18969;stroke-linecap:butt;stroke-linejoin:miter;-inkscape-stroke:none"
     d="m -4417.1504,3548.6289 c 2.1757,1.7386 5.9468,4.6398 11.4316,7.8399 3.7983,2.2159 8.0002,4.2898 12.2872,5.4648 3.3051,0.9059 6.8016,1.3269 10.1132,0.4746 l 13.3008,13.3027 c -3.3928,0.2726 -7.8644,0.2907 -13.1543,-0.4863 -11.4435,-1.6808 -26.3711,-7.2004 -41.5195,-22.4062 z"
     id="path186410" /><path
     style="color:#000000;clip-rule:nonzero;fill:#ffffff;fill-rule:nonzero;stroke-width:1.18969;stroke-linecap:butt;stroke-linejoin:miter;-inkscape-stroke:none"
     d="m -4294.8379,3381.5664 c 1.4159,0.024 3.506,0.6089 5.8477,2.6504 3.3125,2.8841 9.0804,6.8316 14.5683,10.8066 2.7439,1.9875 5.389,3.9527 7.4824,5.6543 2.0934,1.7016 3.6844,3.3208 3.9649,3.7266 1.1957,1.7271 0.8532,3.4096 0.4687,3.834 -0.1922,0.2122 -0.3916,0.4267 -1.3632,0.4297 -0.9716,0 -2.7119,-0.3756 -5.0997,-1.7422 -8.2228,-4.696 -22.5734,-16.0289 -27.0507,-22.1153 -0.9753,-1.3271 -0.9849,-2.0843 -0.9434,-2.3535 0.042,-0.2693 0.063,-0.3575 0.5156,-0.5976 0.2263,-0.1201 0.5822,-0.2269 1.045,-0.2715 0.1735,-0.017 0.3621,-0.025 0.5644,-0.021 z"
     id="path186372" /><path
     style="color:#000000;clip-rule:nonzero;fill:#000000;fill-rule:nonzero;stroke-width:1.18969;stroke-linecap:butt;stroke-linejoin:miter;-inkscape-stroke:none"
     d="m -4260.6133,3366.1387 c -2.9924,0.035 -6.0612,0.4851 -9.1582,1.3359 a 4,4 0 0 0 -2.7969,4.916 4,4 0 0 0 4.9161,2.7989 c 10.2518,-2.8166 17.6553,-1.0181 24.3886,7.3164 a 4,4 0 0 0 5.625,0.5976 4,4 0 0 0 0.5977,-5.625 c -6.305,-7.8041 -14.5949,-11.4438 -23.5723,-11.3398 z"
     id="path186366" /><path
     style="color:#000000;clip-rule:nonzero;fill:#ffffff;fill-rule:nonzero;stroke-width:1.18969;stroke-linecap:butt;stroke-linejoin:miter;-inkscape-stroke:none"
     d="m -4236.3984,3325.8242 c 0.5064,0 0.9267,0.1694 1.4199,0.4785 0.8486,0.5374 1.6155,1.727 1.9707,4.1387 0.3556,2.4134 0.154,5.7486 -0.5625,9.2559 -1.4329,7.0146 -5.016,14.8099 -8.0664,18.3867 a 4.0004,4.0004 0 0 0 4.5488,6.3008 c 0,0 8.5402,-3.4709 18.2949,-7.1914 9.7547,-3.7205 21.0926,-7.7317 25.1387,-8.5664 4.5442,-0.9414 9.1888,-1.6309 12.0996,-1.0625 1.4554,0.2842 2.4081,0.7636 3.1699,1.5468 0.043,0.044 0.082,0.1072 0.125,0.1543 -3.1382,0.5189 -5.9484,1.3499 -7.9121,1.7774 -3.8999,0.8475 -13.5237,3.7568 -22.6523,6.5488 -9.1286,2.7919 -17.4278,5.4043 -17.4278,5.4043 a 4,4 0 0 0 -2.6152,5.0156 4,4 0 0 0 5.0156,2.6153 c 0,0 8.2759,-2.6043 17.3672,-5.3848 9.0914,-2.7806 19.3317,-5.8004 22.0117,-6.3828 3.6008,-0.7838 7.9947,-2.0498 11.2188,-2.0489 1.6121,5e-4 2.7898,0.3006 3.5078,0.7442 0.7179,0.4435 1.2588,0.9787 1.6992,2.6855 0.625,2.4354 0.2153,3.4267 -0.5664,4.502 -0.072,0.099 -0.1563,0.1967 -0.2402,0.2949 -0.4215,-0.5594 -0.9006,-1.0679 -1.4356,-1.498 -2.2305,-1.7935 -4.9116,-2.6477 -7.9199,-2.8125 v -0.01 c -3.0083,-0.1648 -6.3433,0.3593 -9.8808,1.3203 -7.4967,2.0369 -31.2481,9.5567 -31.2481,9.5567 a 4,4 0 0 0 -2.6074,5.0195 4,4 0 0 0 5.0195,2.6074 c 0,0 24.1503,-7.6198 30.9336,-9.4629 5.7349,-1.5579 9.893,-0.6347 10.6895,0.01 0.3982,0.3202 0.4136,0.2173 0.3515,0.9883 -0.062,0.7709 -0.6192,2.4444 -2.2949,4.6679 -5.2016,6.8928 -19.8138,12.8298 -36.0977,16.7188 -15.0967,3.6054 -31.2521,5.8246 -43.0175,7.7597 -0.011,-0.016 -0.02,-0.033 -0.031,-0.049 -1.3543,-1.9582 -3.1895,-3.5064 -5.498,-5.3828 -2.3094,-1.8772 -5.0437,-3.9033 -7.836,-5.9258 -5.5841,-4.0447 -11.5179,-8.1952 -14.0058,-10.3613 -0.6072,-0.5292 -1.2265,-1.009 -1.8535,-1.4492 2.5453,-2.4394 5.9916,-5.7749 9.6464,-9.4141 1.7414,-1.7338 3.5192,-3.5235 5.2715,-5.3125 0.8223,-0.1917 2.0616,-0.4517 3.5938,-0.6562 2.6472,-0.3534 5.9049,-0.3614 7.7246,0.2304 a 4,4 0 0 0 5.041,-2.5664 4,4 0 0 0 -2.5664,-5.041 c -1.8068,-0.5876 -3.6348,-0.8424 -5.3965,-0.9062 2.2095,-2.499 4.1134,-4.8231 5.4531,-6.7852 3.2079,-4.7031 7.8122,-11.1714 12.3223,-15.5273 2.255,-2.1779 4.4949,-3.7787 6.1641,-4.4473 0.8346,-0.3342 1.4271,-0.4921 1.9336,-0.4883 z"
     id="path186362" /><path
     style="color:#000000;clip-rule:nonzero;fill:#000000;fill-rule:nonzero;stroke-width:1.18969;stroke-linecap:butt;stroke-linejoin:miter;-inkscape-stroke:none"
     d="m -4617.1074,3680.4414 a 4.0000013,4.0000013 0 0 0 -4.293,3.6816 c -0.4707,6.145 0.7894,11.2934 3.4356,15.2579 a 4.0000013,4.0000013 0 0 0 5.5468,1.1074 4.0000013,4.0000013 0 0 0 1.1055,-5.5469 c -1.5747,-2.3593 -2.4787,-5.4091 -2.1113,-10.2051 a 4.0000013,4.0000013 0 0 0 -3.6836,-4.2949 z"
     id="path186442" /><path
     style="color:#000000;clip-rule:nonzero;fill:#000000;fill-rule:nonzero;stroke-width:1.18969;stroke-linecap:butt;stroke-linejoin:miter;-inkscape-stroke:none"
     d="m -4605.0801,3677.1602 a 4.0000013,4.0000013 0 0 0 -4.2929,3.6836 c -0.4707,6.1449 0.7873,11.2933 3.4335,15.2578 a 4.0000013,4.0000013 0 0 0 5.5489,1.1074 4.0000013,4.0000013 0 0 0 1.1054,-5.5488 c -1.5747,-2.3593 -2.4787,-5.4091 -2.1113,-10.2051 a 4.0000013,4.0000013 0 0 0 -3.6836,-4.2949 z"
     id="path186440" /><path
     style="color:#000000;clip-rule:nonzero;fill:#000000;fill-rule:nonzero;stroke-width:1.18969;stroke-linecap:butt;stroke-linejoin:miter;-inkscape-stroke:none"
     d="m -4593.0547,3672.9551 a 4.0000013,4.0000013 0 0 0 -4.293,3.6836 c -0.4707,6.145 0.7894,11.2913 3.4356,15.2558 a 4.0000013,4.0000013 0 0 0 5.5469,1.1075 4.0000013,4.0000013 0 0 0 1.1054,-5.5469 c -1.5747,-2.3593 -2.4787,-5.4091 -2.1113,-10.2051 a 4.0000013,4.0000013 0 0 0 -3.6836,-4.2949 z"
     id="path186436" /><path
     style="color:#000000;clip-rule:nonzero;fill:#000000;fill-rule:nonzero;stroke-width:1.18969;stroke-linecap:butt;stroke-linejoin:miter;-inkscape-stroke:none"
     d="m -4397.8242,3515.1035 c -1.1896,-0.01 -2.4019,0.034 -3.6348,0.1289 a 4,4 0 0 0 -1.2207,0.293 4,4 0 0 0 -0.031,0.018 4,4 0 0 0 -1.1602,0.7754 4,4 0 0 0 -0.1094,0.074 4,4 0 0 0 -0.098,0.1679 4,4 0 0 0 -0.8867,1.5372 4,4 0 0 0 -0.051,0.123 4,4 0 0 0 -0.125,1.3086 4,4 0 0 0 0.125,0.5234 4,4 0 0 0 0.084,0.3516 4,4 0 0 0 0.8925,1.5469 4,4 0 0 0 0.059,0.1 l 32.3399,32.3398 a 4,4 0 0 0 0.1328,0.076 4,4 0 0 0 1.2832,0.8359 4,4 0 0 0 0.2558,0.053 4,4 0 0 0 0.3379,0.07 4,4 0 0 0 1.8047,0 4,4 0 0 0 0.062,-0.01 4,4 0 0 0 1.5918,-0.918 4,4 0 0 0 0.1895,-0.1094 4,4 0 0 0 0.1836,-0.2304 4,4 0 0 0 0.1855,-0.2325 4,4 0 0 0 0.4844,-0.8496 4,4 0 0 0 0.059,-0.1035 c 0.01,-0.021 0.014,-0.042 0.022,-0.062 a 4,4 0 0 0 0.023,-0.068 c 6.1447,-16.5746 -8.1878,-36.8975 -31.6172,-37.7149 -0.3915,-0.014 -0.7851,-0.023 -1.1816,-0.025 z"
     id="path186404" /><path
     style="color:#000000;clip-rule:nonzero;fill:#ffb900;fill-rule:nonzero;stroke-width:1.18969;stroke-linecap:butt;stroke-linejoin:miter;-inkscape-stroke:none"
     d="m -4390.8555,3523.8594 c 11.4087,2.5328 18.1289,11.0218 19.0918,19.0918 z"
     id="path186406" /></g></svg>
