<svg width="1542" height="1487" viewBox="0 0 1542 1487" fill="none" xmlns="http://www.w3.org/2000/svg">
<g clip-path="url(#clip0_101_519)">
<path d="M75.3268 -170.989C42.8155 -170.509 21.9149 -159.711 13.1907 -143.107C4.46681 -126.504 9.44294 -107.569 21.485 -96.5575C27.5057 -91.0518 35.7466 -87.3264 44.8031 -87.5109C46.1809 -87.5426 47.5247 -88.2755 48.9038 -88.4879C49.2237 -86.7903 49.1382 -84.9924 49.6955 -83.3432C52.5532 -74.8944 59.8759 -67.7892 68.2448 -65.0769C80.6387 -61.0599 94.0748 -63.0832 110.112 -68.5645C110.821 -63.5033 112.143 -58.7479 114.46 -54.4536C119.667 -44.8055 129.255 -38.6965 139.288 -36.2058C155.268 -32.2388 173.588 -34.7465 193.896 -39.7861C194.475 -34.9858 195.463 -30.4265 197.181 -26.2008C200.844 -17.1882 207.965 -9.74652 216.744 -6.00527C229.742 -0.466053 244.538 -1.44322 261.655 -6.31599C262.272 2.15778 264.645 10.3006 268.452 17.8309C248.362 26.2492 228.69 42.7304 209.829 68.9698C155.09 145.079 155.013 227.018 163.762 277.127C139.904 290.671 120.019 310.708 107.354 331.412C98.623 345.684 93.071 360.407 93.5916 375.031C94.1122 389.655 103.075 404.273 118.307 410.624C134.375 417.324 151.696 413.781 167.51 406.369C169.22 405.568 170.92 404.697 172.619 403.803C173.19 410.691 174.044 417.651 175.223 424.648C178.634 444.869 184.362 463.835 191.911 481.042C190.86 482.349 189.755 483.771 188.614 485.402C183.562 492.622 177.429 503.495 172.384 518.583C166.055 537.511 161.819 563.412 163.137 596.768C162.587 599.125 162.725 601.591 163.533 603.873C164.5 619.538 166.543 636.596 170.312 655.512C86.1403 716.366 46.6214 780.44 28.9319 847.004C11.2932 913.378 14.1604 981.4 11.2238 1052.69C8.83322 1054.64 6.72327 1056.85 5.04486 1059.38C-0.68293 1067.99 -1.1978 1078.62 1.81002 1087.68C5.68555 1099.34 15.1381 1109.36 28.0969 1114.79C28.508 1124.52 29.4717 1145.03 32.0802 1173.53C35.4307 1210.13 40.4239 1251.56 50.9573 1277.05C62.0123 1303.78 83.3809 1337.34 113.829 1359.15C143.051 1380.07 182.954 1388.4 222.997 1364.87C228.115 1366.14 233.265 1366.97 238.33 1367.41C259.691 1369.24 279.954 1364.95 294.609 1357.8C311.368 1349.61 321.598 1332.77 325.034 1314.81C328.359 1297.43 324.914 1277.58 310.919 1263.59C318.772 1251.15 326.222 1234.29 326.58 1214.02C327.363 1171.41 301.73 1148.79 289.16 1134.06C280.001 1123.33 261.607 1108.81 244.206 1095.2C232.182 1085.79 223.11 1078.97 217.35 1074.66C217.521 1069.44 216.522 1064.26 214.524 1059.65C210.885 1051.23 204.271 1044.22 195.832 1039.64C190.948 997.972 188.608 957.542 196.172 919.897C203.409 883.879 220.083 850.315 252.08 818.715C281.692 858.02 384.313 984.747 530.381 1063.25L531.927 1131.83C527.448 1133.55 523.501 1135.68 520.095 1138.32C511.896 1144.67 507.473 1154.77 508.325 1163.83C509.681 1178.26 519.908 1189.11 533.288 1193.33C522.239 1225.79 508.816 1278.53 515.296 1332.59C515.316 1332.85 515.344 1333.1 515.381 1333.36C515.83 1337.01 516.014 1340.63 516.655 1344.28C522.236 1376.04 532.204 1410.04 557.056 1437.17C581.909 1464.29 621.17 1483.19 680.698 1486.6C737.393 1489.86 778.294 1473.01 804.92 1448.4C829.085 1426.07 841.39 1398.15 845.594 1373.78C848.14 1375.6 850.914 1377.44 853.95 1379.26C876.904 1393.01 914.771 1405.48 973.534 1406.12C973.837 1406.22 974.145 1406.32 974.455 1406.4C974.694 1406.34 974.932 1406.27 975.167 1406.19C977.177 1406.19 978.723 1406.48 980.783 1406.46C1042.2 1406 1094.67 1406.25 1135.73 1403.19C1176.78 1400.13 1207.09 1395.4 1224.82 1376.71C1235.5 1365.46 1236.62 1349.6 1234.18 1333.33C1231.75 1317.05 1225.12 1299.27 1214.99 1282.07C1194.73 1247.67 1159.81 1214.93 1113.73 1210.29C1106.7 1209.59 1099.9 1209.39 1093.33 1209.65C1084.84 1210 1076.73 1211.13 1069.01 1212.93C1049.46 1206.18 1026.62 1202.37 1002.18 1202.43C995.969 1202.46 989.65 1202.73 983.263 1203.25C974.775 1190.87 968.331 1177.35 963.965 1162.48C966.076 1161.33 968.051 1159.98 969.878 1158.32C976.669 1152.16 978.315 1140.34 974.796 1132.89C967.757 1117.99 952.106 1110.67 932.811 1107.04C930.365 1106.59 927.774 1106.19 925.067 1105.86C977.55 1081.58 1019.87 1042.38 1069.22 996.346C1087.16 984.455 1102.6 969.86 1114.85 952.307C1185.77 850.665 1130.82 684.804 994.229 540.827C1042.84 537.017 1084.89 520.784 1119.3 492.398C1157.13 461.182 1185.53 415.873 1205.36 357.961C1207.81 358.37 1210.21 358.586 1212.58 358.579C1221.59 358.547 1230.11 354.955 1235.6 348.895C1240.52 343.464 1243 336.855 1243.42 330.005C1279.8 324.107 1330.16 317.082 1378.39 305.567C1431.8 292.814 1482.29 276.069 1507.05 243.249C1512.08 236.583 1515.7 230.119 1517.7 223.579C1523.66 220.243 1529.8 215.731 1534.65 209.06C1541.07 200.23 1544.01 187.315 1540.49 173.604C1537.8 163.178 1531.7 154.695 1523.9 149.877C1520.01 147.478 1515.93 145.949 1511.82 145.017C1509.51 137.908 1506.03 131.803 1501.38 127.023C1494.79 120.253 1486.34 116.549 1478.03 114.928C1461.42 111.686 1444.53 115.281 1429.72 118.347C1411.37 122.134 1377.4 134.713 1346.21 146.606C1333.23 151.555 1331.83 152.239 1321.89 156.166C1326.79 144.705 1330.74 132.331 1333.27 119.949C1335.95 106.837 1337.06 93.8659 1335.29 81.8826C1333.53 69.8996 1328.43 57.9536 1317.52 51.0575C1312.28 47.7535 1306.46 46.2054 1300.66 45.9993C1294.86 45.7935 1289.09 46.9332 1283.97 48.986C1273.71 53.0923 1264.76 60.1608 1256.27 68.3591C1239.29 84.7561 1224.28 106.277 1213.91 121.464C1205.25 134.147 1179.35 161.561 1156.41 184.4C1137.43 203.298 1122.95 216.999 1117.56 222.083C1114.83 221.864 1112.15 221.899 1109.53 222.225C1105.28 222.755 1101.22 224.01 1097.47 225.997C1089.98 229.97 1084.05 237.516 1082.68 246.403C1081.55 253.681 1083.38 261.199 1087.37 268.175C1048.28 310.37 1008.16 347.716 964.46 371.082C918.175 395.83 868.316 405.573 808.143 390.016C806.588 389.628 804.974 389.537 803.386 389.75C700.117 328.643 594.185 294.06 502.46 287.963C499.618 278.118 496.261 268.637 492.359 259.673C491.976 257.496 491.029 255.458 489.613 253.761C487.881 250.085 486.073 246.492 484.177 242.996C494.204 237.085 509.132 228.022 523.131 217.439C540.143 204.561 550.997 191.311 556.295 177.753C561.594 164.194 560.699 150.093 554.545 139.167C545.316 122.781 526.805 114.137 506.326 114.464C499.501 114.575 492.459 115.685 485.469 117.834C473.007 121.662 458.804 129.997 442.742 140.874C437.106 120.087 425.001 86.0563 401.172 58.5334C395.227 41.0961 347.89 -86.6405 218.629 -136.979C153.565 -162.32 107.861 -171.462 75.35 -170.982L75.3268 -170.989ZM743.274 1128.87C751.503 1129.79 759.52 1130.52 767.297 1131.03C763.46 1133.5 760.322 1136.41 758.063 1140.25C754.42 1135.31 749.45 1131.21 743.274 1128.87ZM764.081 1168.21C764.443 1168.49 764.798 1168.79 765.164 1169.05C766.058 1169.69 766.977 1170.3 767.916 1170.88C767.126 1178.01 766.117 1188.33 765.436 1200.29C764.824 1211.03 764.377 1222.66 764.786 1233.98C762.512 1232.62 760.214 1231.33 757.89 1230.12C754.267 1215.4 748.38 1197.54 743.936 1184.74C751.163 1183.67 758.031 1179.68 761.613 1173.8C762.727 1171.97 763.516 1170.1 764.081 1168.21Z" fill="#070922"/>
<path d="M685.098 1238.39C685.297 1238.39 685.499 1238.42 685.698 1238.42C685.772 1238.43 685.845 1238.44 685.919 1238.45C685.964 1238.45 686.01 1238.45 686.055 1238.45C699.75 1238.78 714.056 1241.05 729.017 1245.49C752.175 1252.39 777.41 1272.2 795.378 1295.66C813.345 1319.11 823.458 1346.11 821.535 1363.69C819.335 1383.81 809.236 1409.94 787.727 1429.82C766.217 1449.7 733.286 1464.28 682.152 1461.33C627.2 1458.19 595.723 1441.88 575.749 1420.08C555.776 1398.27 546.83 1369.61 541.613 1339.92C541.19 1337.51 541.109 1335.06 540.784 1332.64C562.52 1296.26 589.51 1268.78 620.344 1253.3C636.291 1245.29 653.25 1240.31 671.328 1238.84C675.846 1238.48 680.431 1238.33 685.09 1238.41L685.098 1238.39Z" fill="white"/>
<path d="M1094.18 1234.86C1099.6 1234.7 1105.26 1234.9 1111.18 1235.5C1146.48 1239.05 1175.83 1265.51 1193.16 1294.93C1201.82 1309.64 1207.3 1324.93 1209.12 1337.08C1210.94 1349.23 1208.44 1357.17 1206.44 1359.28C1198.83 1367.3 1173.18 1375.01 1133.84 1377.94C1095.73 1380.78 1044.97 1380.68 985.85 1381.09C985.205 1348.33 993.476 1311.12 1012.04 1282.89C1026.14 1261.46 1045.01 1245.11 1070.49 1238.3C1071.09 1238.19 1071.67 1238.04 1072.24 1237.85C1079.08 1236.16 1086.36 1235.11 1094.16 1234.86H1094.18Z" fill="white"/>
<path d="M950.824 1197.96C952.386 1201.08 954.043 1204.14 955.791 1207.14C954.73 1207.36 953.668 1207.59 952.606 1207.82C952.059 1204.69 951.492 1201.4 950.824 1197.96Z" fill="white"/>
<path d="M646.947 1194.71C649.274 1194.79 652.411 1195.47 655.619 1197.07C661.55 1200.03 667.428 1205.5 670.593 1213.66C659.028 1214.5 647.785 1216.54 636.934 1219.69C637.244 1212.62 638.449 1204.18 641.838 1196.77C642.477 1195.37 642.643 1195.2 644.919 1194.84C645.487 1194.75 646.172 1194.71 646.947 1194.74V1194.71Z" fill="white"/>
<path d="M902.358 1179.6C906.193 1179.43 912.239 1180.75 916.98 1183.12C920.545 1184.9 922.665 1188.61 924.662 1196.78C925.902 1201.86 926.719 1208 927.946 1214.55C921.073 1216.83 914.227 1219.48 907.442 1222.49C905.933 1220.16 904.281 1217.47 902.655 1214.46C897.624 1205.16 894.059 1193.63 895.059 1187.42C896.261 1179.95 897.28 1180.43 900.861 1179.76C901.309 1179.67 901.81 1179.62 902.358 1179.6Z" fill="white"/>
<path d="M936.92 1166.65C937.608 1166.99 938.326 1167.28 939.066 1167.49C939.278 1168.25 939.494 1169 939.716 1169.75C938.854 1168.67 937.921 1167.64 936.92 1166.65Z" fill="white"/>
<path d="M630.656 1149.57C676.238 1149.51 722.178 1151.22 732.402 1152.13C735.38 1152.42 738.836 1156.29 739.595 1159.38C739.69 1159.77 739.67 1159.44 739.686 1159.69C719.536 1160.22 686.537 1159.69 686.537 1159.69C683.179 1159.63 679.935 1160.91 677.519 1163.24C675.103 1165.58 673.712 1168.77 673.654 1172.13C673.624 1173.8 673.925 1175.45 674.535 1177C675.145 1178.54 676.053 1179.96 677.21 1181.15C678.366 1182.35 679.748 1183.31 681.274 1183.97C682.8 1184.63 684.441 1184.98 686.104 1185.01C686.104 1185.01 701.042 1185.25 717.197 1185.25C720.077 1193.43 724.555 1206.47 728.423 1219.06C717.754 1216.35 707.248 1214.62 696.934 1213.79C693.967 1199.95 686.472 1188.8 677.21 1181.15C673.952 1178.46 670.488 1176.18 666.912 1174.4C658.676 1170.3 649.761 1168.38 640.897 1169.8V1169.83C632.036 1171.26 622.984 1177.07 618.791 1186.26C611.386 1202.45 610.828 1219.21 611.443 1229.49C610.623 1229.89 609.79 1230.25 608.975 1230.66C582.441 1243.98 559.242 1264.53 539.337 1290.02C541.587 1252.57 551.535 1217.53 559.339 1195.52C577.168 1195.63 598.986 1195.24 598.986 1195.24C602.345 1195.18 605.545 1193.8 607.881 1191.38C610.217 1188.97 611.498 1185.73 611.443 1182.37C611.417 1180.71 611.064 1179.07 610.403 1177.54C609.741 1176.01 608.785 1174.63 607.59 1173.48C606.395 1172.32 604.984 1171.41 603.437 1170.8C601.889 1170.19 600.236 1169.88 598.572 1169.91C598.572 1169.91 559.248 1170.51 545.151 1169.91C539.341 1169.68 533.732 1163.28 533.56 1161.45C533.474 1160.53 532.969 1160.38 535.619 1158.32C538.269 1156.27 544.9 1153.29 556.785 1152.14C576.085 1150.28 603.305 1149.61 630.654 1149.57L630.656 1149.57Z" fill="#64BBA9"/>
<path d="M907.831 1130.33C915.924 1130.44 922.891 1130.96 928.125 1131.94C938.387 1133.87 944.838 1138.27 948.375 1141.07C946.431 1141.64 944.236 1142.27 940.805 1142.59C939.148 1142.75 937.54 1143.23 936.07 1144.01C934.6 1144.79 933.297 1145.85 932.237 1147.13C931.176 1148.41 930.378 1149.89 929.889 1151.48C929.4 1153.07 929.23 1154.74 929.387 1156.39C929.645 1158.61 930.485 1160.73 931.824 1162.52C930.711 1161.78 929.549 1161.08 928.298 1160.46C921.438 1157.03 913.486 1154.33 904.918 1154.14C902.061 1154.08 899.136 1154.3 896.16 1154.86C884.255 1157.11 872.518 1168.03 870.046 1183.39C867.373 1200 874.142 1214.99 880.369 1226.5C881.848 1229.23 883.35 1231.77 884.792 1234.08C878.015 1238.06 871.352 1242.46 864.851 1247.3C863.517 1248.29 862.391 1249.54 861.539 1250.97C860.686 1252.4 860.123 1253.98 859.883 1255.62C859.642 1257.27 859.729 1258.95 860.136 1260.56C860.544 1262.17 861.265 1263.69 862.259 1265.02C863.253 1266.36 864.5 1267.48 865.929 1268.33C867.357 1269.19 868.94 1269.75 870.586 1269.99C872.232 1270.23 873.909 1270.14 875.522 1269.74C877.135 1269.33 878.652 1268.61 879.986 1267.61C910.634 1244.79 945.489 1232.93 978.676 1229.14C996.635 1227.09 1014.1 1227.44 1029.98 1229.64C1014.17 1239.94 1001.03 1253.53 990.88 1268.97C969.085 1302.11 959.961 1342.9 960.548 1380.19C913.635 1377.96 883.934 1367.69 866.979 1357.53C857.294 1351.72 851.354 1346.1 847.904 1342.15C846.236 1340.24 845.308 1338.99 844.737 1338.15C840.158 1318.34 829.4 1298.39 815.493 1280.23C808.683 1271.34 800.999 1262.95 792.738 1255.26C789.979 1242.54 789.672 1220.38 790.734 1201.73C791.23 1193.02 791.924 1185.11 792.559 1178.79C799.296 1179.5 806.336 1179.32 813.384 1178.31C815.031 1178.07 816.615 1177.52 818.046 1176.67C819.477 1175.82 820.729 1174.7 821.726 1173.37C822.724 1172.04 823.448 1170.52 823.86 1168.91C824.272 1167.3 824.364 1165.62 824.128 1163.98C823.652 1160.65 821.875 1157.65 819.187 1155.64C816.5 1153.62 813.122 1152.76 809.797 1153.24C801.18 1154.47 791.772 1152.4 785.613 1150.31C786.753 1149.67 787.127 1149.22 788.761 1148.55C816.566 1137.11 872.763 1129.85 907.831 1130.32V1130.33Z" fill="#64BBA9"/>
<path d="M206.49 1098.18C212.426 1102.67 220.277 1108.65 228.596 1115.16C245.674 1128.52 265.214 1145.03 269.894 1150.51C284.939 1168.14 301.861 1180.59 301.253 1213.57C301.069 1224.03 297.999 1233.68 293.979 1241.93C287.205 1231.71 279.844 1219.44 273.556 1207.95C261.629 1186.18 252.483 1166.96 252.483 1166.96C251.041 1163.92 248.454 1161.59 245.29 1160.46C242.127 1159.34 238.648 1159.52 235.616 1160.96C232.582 1162.4 230.245 1164.99 229.12 1168.15C227.995 1171.32 228.174 1174.8 229.617 1177.83C229.617 1177.83 239.029 1197.62 251.351 1220.12C263.674 1242.62 277.754 1267.28 292.334 1280.78C299.941 1287.81 302.325 1298.76 300.165 1310.05C298.004 1321.34 290.899 1331.43 283.496 1335.04C273.957 1339.7 256.825 1343.57 240.503 1342.17C224.178 1340.77 209.128 1334.81 199.056 1321.4C198.056 1320.07 196.805 1318.95 195.373 1318.11C193.94 1317.26 192.355 1316.71 190.707 1316.47C189.06 1316.24 187.383 1316.33 185.772 1316.75C184.16 1317.16 182.647 1317.89 181.317 1318.89C178.632 1320.9 176.858 1323.91 176.386 1327.23C175.914 1330.55 176.782 1333.93 178.799 1336.62C183.093 1342.33 188.004 1347.09 193.304 1351.07C168.855 1359.45 148.038 1352.49 128.588 1338.56C103.834 1320.83 83.7854 1290.11 74.3816 1267.38C66.7692 1248.96 60.5928 1207.02 57.3167 1171.22C55.2089 1148.2 54.2413 1130.97 53.6675 1119.07C63.2999 1118.82 86.9245 1119.56 112.402 1118.94C138.737 1118.29 167.013 1116.48 188.244 1108.99C195.531 1106.41 201.708 1102.73 206.497 1098.18H206.49Z" fill="white"/>
<path d="M556.02 1076.29C594.956 1094.99 636.629 1110.01 680.62 1118.92C694.788 1121.79 708.308 1124.15 721.312 1126.06C706.241 1125.28 683.003 1124.48 657.283 1124.17L657.252 1124.21C622.978 1123.8 584.816 1124.26 557.144 1126.72L556.02 1076.29Z" fill="#070922"/>
<path d="M172.638 1059.21C174.048 1059.21 175.392 1059.31 176.665 1059.52C184.306 1060.75 189.446 1065.49 191.268 1069.7C192.483 1072.51 192.468 1074.61 191.319 1076.91C190.168 1079.2 187.305 1082.44 179.778 1085.11C164.494 1090.5 137.126 1093 111.753 1093.62C86.3752 1094.25 63.2818 1093.33 51.4852 1093.76C36.1566 1094.33 27.8633 1085.8 25.8353 1079.69C24.8213 1076.64 25.1981 1074.8 26.126 1073.41C26.6257 1072.66 27.5168 1071.7 29.2804 1070.85C29.3717 1070.81 29.4623 1070.77 29.5526 1070.72C31.0461 1070.05 33.1056 1069.44 36.0903 1069.1C42.7171 1068.32 71.8928 1066.62 100.379 1064.91C128.858 1063.2 156.258 1061.63 168.205 1059.61C169.742 1059.35 171.218 1059.22 172.628 1059.22L172.638 1059.21Z" fill="white"/>
<path d="M998.376 1026.22C968.931 1051.31 940.636 1071.67 908.747 1085.49C908.178 1085.74 907.587 1085.95 907.015 1086.19C920.276 1070.05 931.965 1052.79 941.701 1034.23C961.634 1033.13 980.603 1030.49 998.376 1026.22Z" fill="#FFB900"/>
<path d="M808.232 1021.27C844.515 1029.57 879.522 1034.14 912.378 1034.78C898.001 1058.95 879.782 1080.85 858.517 1101.13C829.455 1106.99 796.342 1108.6 756.475 1104.89C773.954 1082.19 791.13 1054.22 808.232 1021.27Z" fill="#FFB900"/>
<path d="M644.035 961.229C690.898 984.681 737.723 1002.59 782.953 1014.92C763.999 1050.78 745.161 1079.82 726.823 1101.28C713.769 1099.38 700.118 1097.03 685.655 1094.1C648.846 1086.65 613.567 1074.49 580.136 1059.33L644.035 961.229Z" fill="#FFB900"/>
<path d="M506.835 876.051C515.52 882.58 524.379 889.01 533.425 895.319C562.39 915.519 591.862 933.588 621.434 949.505L557.09 1048.3C512.497 1025.67 471.679 997.955 435.502 969.212L506.835 876.051Z" fill="#FFB900"/>
<path d="M386.354 766.329C415.813 798.994 449.447 830.684 486.851 860.48L415.876 953.184C373.852 917.775 339.149 882.003 313.555 853.147L386.354 766.329Z" fill="#FFB900"/>
<path d="M473.596 589.856C507.159 630.423 542.551 665.372 582.48 687.044C622.53 708.782 667.654 716.499 716.537 702.305L808.034 793.791C798.044 790.924 786.622 785.455 776.063 779.296C754.336 766.624 736.49 751.538 736.49 751.538C734.525 749.873 732.098 748.845 729.535 748.593C726.971 748.341 724.392 748.877 722.14 750.128L676.383 775.549C674.717 776.475 673.281 777.765 672.183 779.323C671.085 780.88 670.352 782.665 670.04 784.545C669.728 786.425 669.844 788.351 670.38 790.18C670.916 792.009 671.858 793.693 673.135 795.108C728.706 856.597 786.868 879.128 831.012 885.61C862.29 890.203 886.831 886.77 898.634 884.368L927.741 913.467C839.824 935.744 708.641 902.725 587.279 818.086C507.074 762.15 446.357 694.032 411.812 628.355C430.509 611.657 450.374 597.991 473.596 589.856Z" fill="#FFB900"/>
<path d="M237.441 545.1C245.4 551.976 253.884 557.734 262.744 562.092C281.536 622.355 318.082 685.982 369.481 747.03L296.781 833.73C275.532 808.475 263.857 791.979 263.857 791.979C262.838 790.518 261.52 789.289 259.993 788.371C258.466 787.454 256.763 786.869 254.994 786.655C253.224 786.441 251.429 786.603 249.726 787.13C248.023 787.657 246.449 788.539 245.11 789.716C202.034 827.559 180.254 870.55 171.34 914.914C163.467 954.092 165.403 994.175 169.756 1034.02C167.865 1034.13 165.957 1034.31 164.023 1034.63C157.282 1035.78 127.305 1037.93 98.8993 1039.64C73.0246 1041.19 48.7898 1042.5 36.9302 1043.61C39.3651 975.033 37.8551 912.106 53.426 853.518C70.2449 790.23 106.214 731.03 191.293 671.399C193.34 669.965 194.917 667.957 195.825 665.628C196.733 663.3 196.931 660.756 196.396 658.315C191.883 637.787 189.55 619.792 188.516 603.652L237.441 545.1Z" fill="#FFB900"/>
<path d="M558.747 544.537L625.157 610.942C607.751 606.87 590.935 596.954 578.459 583.543C568.84 573.203 562.054 561.412 559.378 551.277C558.704 548.723 558.951 546.777 558.747 544.537Z" fill="#FFB900"/>
<path d="M630.205 517.793C640.261 524.616 649.108 533.074 655.576 543.17L630.205 517.793Z" fill="#FFB900"/>
<path d="M472.496 517.329C471.167 517.28 469.84 517.441 468.562 517.805C425.328 530.15 387.482 554.319 353.87 585.144C351.396 587.414 349.924 590.574 349.779 593.929C349.634 597.283 350.828 600.558 353.097 603.033C354.222 604.259 355.577 605.252 357.085 605.954C358.593 606.657 360.224 607.055 361.886 607.127C363.549 607.199 365.21 606.942 366.773 606.372C368.336 605.803 369.771 604.931 370.997 603.806C402.494 574.921 436.918 553.182 475.514 542.162C477.114 541.706 478.608 540.938 479.912 539.904C481.215 538.871 482.301 537.59 483.109 536.136C483.917 534.682 484.432 533.083 484.622 531.431C484.812 529.778 484.673 528.105 484.216 526.505C483.482 523.935 481.952 521.663 479.847 520.014C477.741 518.366 475.168 517.426 472.496 517.329Z" fill="#070922"/>
<path d="M205.253 506.607C209.715 513.846 214.553 520.597 219.695 526.833L188.85 563.737C190.316 548.711 193.14 536.413 196.421 526.617C199.242 518.179 202.364 511.684 205.253 506.607Z" fill="#FFB900"/>
<path d="M471.493 499.761C472.532 499.806 473.568 499.897 474.586 500.04C486.804 501.76 497.3 510.581 500.669 523.352C505.157 540.367 495.145 557.546 478.099 562.011C476.855 562.339 475.639 562.71 474.413 563.063C474.346 563.094 474.276 563.104 474.21 563.123C441.257 572.651 414.674 591.328 391.286 612.826C386.303 616.222 386.898 616.322 383.956 619.158C371.24 628.205 353.765 626.752 342.707 615.084C330.592 602.264 331.158 582.433 343.951 570.327C378.091 538.041 415.753 512.97 462 500.811C465.192 499.97 468.384 499.638 471.501 499.766L471.493 499.761Z" fill="#EFAFFA"/>
<path d="M390.777 497.499C393.243 498.13 395.73 498.621 398.23 499.032C394.725 500.917 391.27 502.867 387.864 504.888C388.886 502.47 389.857 500.005 390.777 497.499Z" fill="#FFB900"/>
<path d="M512.322 424.452C608.032 424.094 668.689 468.631 714.483 524.329L679.172 533.604C658.579 497.485 618.723 477.7 582.208 473.766C579.602 473.485 576.974 474.02 574.685 475.296C572.396 476.572 570.559 478.526 569.428 480.889C568.296 483.252 567.924 485.908 568.365 488.491C568.807 491.074 570.039 493.456 571.891 495.309L704.074 627.489C704.385 627.686 704.705 627.87 705.033 628.04C706.177 629.006 707.484 629.762 708.892 630.272C709.449 630.476 710.019 630.642 710.599 630.766C712.202 631.079 713.851 631.079 715.455 630.766C715.809 630.742 716.161 630.703 716.512 630.649C716.626 630.638 716.739 630.625 716.852 630.611C788.285 607.997 858.168 642.936 902.815 694.024C925.139 719.567 940.693 748.973 946.538 775.634C952.384 802.296 948.832 825.263 934.836 841.743C933.702 843.114 932.869 844.709 932.393 846.424C932.329 846.815 932.284 847.209 932.257 847.605C931.96 849.166 931.96 850.768 932.257 852.329C932.381 852.926 932.549 853.513 932.758 854.085C933.266 855.486 934.018 856.786 934.978 857.925C935.149 858.255 935.335 858.577 935.535 858.89L971.879 895.225C966.376 898.602 960.54 901.621 954.406 904.308L561.129 511.101C559.853 509.826 558.319 508.839 556.631 508.204C554.942 507.57 553.138 507.303 551.338 507.422C549.537 507.541 547.782 508.044 546.192 508.896C544.601 509.748 543.212 510.93 542.115 512.363C532.056 525.502 530.821 542.373 534.879 557.744C538.937 573.114 547.916 587.899 559.91 600.794C582.334 624.899 616.368 642.86 651.883 637.66L695.65 681.422C658.763 688.916 626.156 681.934 594.566 664.788C561.257 646.709 529.53 616.746 498.782 580.524C520.249 567.913 531.785 542.043 525.15 516.889C518.496 491.668 495.612 474.797 470.646 474.476C481.238 463.907 490.029 450.622 496.661 435.557C498.187 432.089 499.579 428.502 500.891 424.847C504.717 424.695 508.603 424.466 512.322 424.452Z" fill="#FFB900"/>
<path d="M255.446 392.984C261.285 430.579 273.518 457.948 291.753 475.751C298.245 465.24 303.406 453.241 307.079 439.565C311.449 457.452 311.703 473.723 308.916 488.761C323.863 497.319 341.62 501.398 362.028 501.246C349.805 525.619 331.887 541.122 310.599 544.71C288.834 548.378 266.326 539.147 246.471 519.271C245.871 518.446 245.173 517.696 244.393 517.039C244.317 516.988 244.241 516.939 244.164 516.89C243.854 516.564 243.538 516.263 243.23 515.931C234.171 506.184 225.884 494.209 218.873 480.506C218.439 478.755 217.635 477.117 216.516 475.702C208.721 459.328 202.715 440.712 199.322 420.587C198.737 417.118 198.247 413.669 197.831 410.236C216.113 407.633 235.252 402.028 255.446 392.984Z" fill="white"/>
<path d="M539.666 380.35C621.843 380.524 725.035 415.256 821.449 482.497C990.178 600.171 1071.81 770.108 1007.76 861.896C1003.21 868.418 997.965 874.324 992.215 879.742L961.092 848.626C975.168 826.12 977.39 798.056 971.285 770.212C964.286 738.292 946.669 705.713 921.89 677.36C884.722 634.83 830.4 601.42 770.515 598.47C752.951 597.604 734.913 599.369 716.685 604.282L670.235 557.831C671.885 559.241 673.87 560.204 675.999 560.626L739.873 543.844C741.884 543.315 743.732 542.3 745.258 540.888C746.783 539.476 747.938 537.711 748.619 535.748C749.301 533.785 749.487 531.684 749.165 529.631C748.843 527.578 748.02 525.636 746.77 523.976C697.338 458.378 625.651 399.588 513.954 399.148C511.993 399.148 509.984 399.202 507.998 399.227C509.14 393.596 510.057 387.825 510.738 381.932C520.062 380.926 529.67 380.329 539.666 380.35Z" fill="#FFB900"/>
<path d="M404.094 334.153C406.37 364.463 413.671 390.057 428.97 408.09C438.661 395.237 446.388 379.788 451.676 361.077C455.318 383.903 452.847 404.198 445.12 422.275C452.288 426.912 460.572 430.499 470.058 432.942C457.898 455.481 440.633 469.798 420.286 473.228C412.838 474.483 405.38 474.193 397.952 472.529C403.509 446.393 404.164 417.116 399.071 386.918C396.29 370.425 391.955 354.768 386.379 340.188C392.444 338.498 398.346 336.481 404.094 334.153Z" fill="white"/>
<path d="M507.979 311.392C594.07 316.682 694.854 349.096 793.548 407.262C794.288 409.014 795.414 410.577 796.842 411.835C798.269 413.093 799.961 414.013 801.793 414.527C803.918 415.077 806.012 415.514 808.12 416.005C821.865 424.48 835.559 433.388 849.14 442.861C888.693 470.445 924.511 500.287 956.249 531.341C956.739 533.794 957.945 536.046 959.714 537.815C961.483 539.583 963.735 540.788 966.188 541.278C1102.46 679.54 1157.15 839.734 1090.47 935.308C1058.77 980.74 1003.83 1005.43 935.961 1010.29C933.8 1009.84 931.559 1009.96 929.461 1010.65C892.548 1012.58 852.034 1008.85 809.394 999.425C808.48 998.531 807.435 997.78 806.296 997.199C803.33 995.698 799.894 995.423 796.727 996.432C749.282 984.824 699.534 966.457 649.558 941.38C648.553 939.339 647.016 937.607 645.111 936.365C642.511 934.705 639.394 934.049 636.346 934.522C605.7 918.434 575.049 899.948 544.88 878.907C534.663 871.782 524.771 864.456 515.049 857.042C514.317 854.387 512.738 852.042 510.552 850.364C508.444 848.794 505.9 847.919 503.272 847.86C463.131 816.13 427.533 782.168 397.098 747.241C396.71 744.058 395.13 741.141 392.676 739.078C391.334 738.003 389.787 737.212 388.13 736.753C341.996 681.671 308.718 624.675 290.732 570.873C298.207 571.911 305.792 571.894 313.401 570.768C304.729 591.041 308.227 615.508 324.268 632.48C342.683 651.932 371.874 655.428 394.191 642.572C432.418 710.019 495.058 778.156 575.837 834.492C755.49 959.784 960.612 981.373 1032.12 878.89C1103.65 776.388 1012.55 591.385 832.898 466.093C723.279 389.643 604.755 351.892 512.21 357.237C512.27 343.661 511.162 329.651 508.765 315.436C508.534 314.071 508.231 312.746 507.979 311.392Z" fill="#FFB900"/>
<path d="M1103.46 288.067C1125.19 310.581 1157.8 334.567 1181.79 348.549C1163.04 403.836 1136.76 445.149 1103.17 472.863C1067.87 501.992 1024.24 516.713 969.93 516.389C937.262 484.749 900.713 454.428 860.595 426.449C858.611 425.065 856.603 423.782 854.614 422.418C899.232 424.196 939.708 413.029 976.4 393.41C1023.26 368.358 1064.33 330.101 1103.46 288.067Z" fill="#FFB900"/>
<path d="M312.281 279.354C322.052 286.047 331.423 295.22 339.892 306.414C285.649 353.137 240.644 376.237 202.482 383.764C206.168 380.82 209.819 377.764 213.43 374.625C242.887 349.014 270.164 317.593 284.547 304.386C290.367 299.041 300.551 289.835 312.281 279.354Z" fill="#EFAFFA"/>
<path d="M359.838 204.886C339.799 221.629 320.443 238.401 304.234 252.697C303.455 253.239 302.739 253.876 302.1 254.595C286.871 268.054 274.428 279.301 267.414 285.742C250.318 301.44 224.317 331.596 196.804 355.518C190.051 361.388 183.24 366.824 176.597 371.533C176.215 371.763 175.845 372.014 175.49 372.287C168.991 376.826 162.663 380.677 156.761 383.443C144.509 389.184 135.106 390.198 128.056 387.258C120.582 384.142 119.164 381.17 118.914 374.136C118.664 367.102 121.952 356.098 128.965 344.634C142.989 321.709 170.934 297.539 199.519 289.143C228.636 280.603 272.564 256.604 310.852 234.486C337.644 219.009 348.098 212.216 359.838 204.886Z" fill="#6D3AEF"/>
<path d="M406.357 199.419C424.227 206.667 441.722 222.02 455.938 243.705C456.003 243.999 456.079 244.289 456.165 244.577C456.49 244.947 456.837 245.299 457.204 245.628C459.946 249.963 462.522 254.574 464.972 259.35C438.266 287.707 409.634 308.393 375.838 316.783C373.468 312.264 370.983 307.877 368.354 303.674C367.82 302.39 367.078 301.204 366.158 300.161C366.085 300.096 366.012 300.032 365.937 299.968C356.017 284.905 344.485 272.064 331.733 262.149C347.902 247.966 365.993 232.353 384.814 216.83C391.994 210.909 399.195 205.113 406.357 199.419Z" fill="#EFAFFA"/>
<path d="M506.403 139.852C519.073 139.71 528.849 145.159 532.467 151.582C534.879 155.865 535.694 160.846 532.694 168.519C529.696 176.192 522.248 186.322 507.83 197.236C495.191 206.79 480.307 215.812 470.725 221.481C458.613 204.826 444.412 191.279 428.796 182.012C435.3 177.107 441.691 172.376 447.753 168.105C467.058 154.505 484.293 144.669 492.886 142.029C497.633 140.57 502.179 139.899 506.403 139.852Z" fill="#6D3AEF"/>
<path d="M298.984 36.3767C315.718 35.4706 333.044 41.1331 351.421 50.5618C395.632 73.2322 414.901 135.948 420.244 156.802C413.372 161.916 406.261 167.468 399.127 173.077C398.793 173.173 398.463 173.284 398.138 173.411V173.442C396.746 174.261 395.525 175.369 394.544 176.701C391.837 178.847 389.178 180.879 386.46 183.058C386.873 180.162 386.269 177.212 384.753 174.71C382.949 171.877 380.094 169.877 376.814 169.149C373.535 168.421 370.102 169.024 367.268 170.827C367.268 170.827 335.946 190.756 298.192 212.566C260.437 234.376 215.314 258.122 192.401 264.842C190.831 265.303 189.287 265.835 187.737 266.357C180.949 220.667 182.977 149.712 230.409 83.7621C252.754 52.6753 272.917 40.4283 291.858 37.1813C294.226 36.7754 296.605 36.5123 298.996 36.3828L298.984 36.3767Z" fill="#6D3AEF"/>
<path d="M727.095 776.353C733.985 781.857 745.927 791.042 763.296 801.174C775.325 808.189 788.631 814.755 802.207 818.475C812.674 821.343 823.747 822.676 834.234 819.978L876.355 862.094C865.611 862.957 851.45 863.014 834.698 860.554C798.459 855.233 751.186 837.758 703.214 789.617L727.095 776.353Z" fill="#FFB900"/>
<path d="M1114.43 247.434C1118.92 247.51 1125.54 249.362 1132.95 255.825C1143.44 264.956 1161.71 277.454 1179.09 290.039C1187.78 296.331 1196.15 302.553 1202.78 307.94C1209.41 313.328 1214.45 318.454 1215.34 319.739C1219.13 325.207 1218.04 330.533 1216.82 331.877C1216.22 332.549 1215.58 333.228 1212.51 333.237C1209.43 333.237 1203.92 332.048 1196.36 327.722C1170.32 312.854 1124.87 276.974 1110.69 257.705C1107.6 253.503 1107.57 251.106 1107.71 250.254C1107.84 249.401 1107.9 249.122 1109.34 248.362C1110.05 247.981 1111.18 247.643 1112.65 247.502C1113.2 247.448 1113.79 247.421 1114.43 247.434Z" fill="white"/>
<path d="M1222.82 198.59C1213.34 198.701 1203.62 200.126 1193.82 202.82C1190.58 203.71 1187.82 205.85 1186.16 208.769C1184.5 211.687 1184.07 215.146 1184.96 218.384C1185.4 219.988 1186.15 221.489 1187.17 222.802C1188.19 224.115 1189.46 225.216 1190.91 226.038C1192.35 226.861 1193.95 227.391 1195.6 227.598C1197.25 227.805 1198.92 227.685 1200.53 227.245C1232.99 218.328 1256.44 224.022 1277.76 250.409C1279.87 253.021 1282.93 254.688 1286.27 255.043C1289.61 255.398 1292.96 254.411 1295.57 252.301C1298.19 250.19 1299.85 247.128 1300.21 243.788C1300.56 240.449 1299.58 237.105 1297.47 234.492C1277.5 209.784 1251.25 198.261 1222.82 198.59Z" fill="#070922"/>
<path d="M1299.5 70.9555C1301.1 70.9555 1302.43 71.4919 1304 72.4705C1306.68 74.1719 1309.11 77.938 1310.24 85.5735C1311.36 93.2142 1310.72 103.773 1308.46 114.877C1303.92 137.086 1292.57 161.765 1282.91 173.09C1281.07 175.248 1280.01 177.961 1279.9 180.793C1279.79 183.626 1280.63 186.415 1282.28 188.714C1283.94 191.012 1286.33 192.688 1289.05 193.472C1291.78 194.256 1294.69 194.103 1297.32 193.038C1297.32 193.038 1324.36 182.049 1355.25 170.27C1386.14 158.491 1422.05 145.791 1434.86 143.149C1449.25 140.168 1463.96 137.985 1473.18 139.785C1477.79 140.685 1480.81 142.203 1483.22 144.682C1483.35 144.822 1483.48 145.022 1483.61 145.171C1473.68 146.814 1464.78 149.444 1458.56 150.798C1446.21 153.481 1415.73 162.692 1386.82 171.531C1357.91 180.37 1331.63 188.641 1331.63 188.641C1328.43 189.649 1325.75 191.889 1324.2 194.867C1322.65 197.844 1322.34 201.317 1323.35 204.521C1324.36 207.724 1326.6 210.396 1329.58 211.949C1332.56 213.501 1336.03 213.808 1339.23 212.8C1339.23 212.8 1365.44 204.555 1394.23 195.752C1423.02 186.949 1455.45 177.388 1463.94 175.544C1475.34 173.063 1489.26 169.055 1499.47 169.058C1504.57 169.059 1508.3 170.009 1510.57 171.414C1512.85 172.818 1514.56 174.512 1515.96 179.916C1517.93 187.627 1516.64 190.765 1514.16 194.169C1513.93 194.483 1513.67 194.792 1513.4 195.103C1512.07 193.332 1510.55 191.722 1508.86 190.36C1501.79 184.682 1493.3 181.978 1483.77 181.456V181.424C1474.25 180.902 1463.69 182.562 1452.48 185.604C1428.74 192.053 1353.53 215.861 1353.53 215.861C1350.32 216.873 1347.65 219.117 1346.11 222.097C1344.56 225.078 1344.26 228.55 1345.27 231.752C1346.28 234.954 1348.53 237.623 1351.51 239.171C1354.49 240.719 1357.96 241.02 1361.17 240.007C1361.17 240.007 1437.65 215.883 1459.13 210.048C1477.29 205.116 1490.46 208.039 1492.98 210.08C1494.24 211.093 1494.29 210.768 1494.09 213.209C1493.89 215.649 1492.13 220.948 1486.82 227.987C1470.35 249.81 1424.08 268.606 1372.51 280.919C1324.7 292.333 1273.54 299.359 1236.28 305.486C1236.25 305.435 1236.22 305.381 1236.18 305.331C1231.9 299.131 1226.08 294.229 1218.77 288.289C1211.46 282.346 1202.8 275.931 1193.96 269.528C1176.27 256.722 1157.48 243.582 1149.6 236.724C1147.68 235.048 1145.72 233.529 1143.73 232.136C1151.79 224.413 1162.71 213.853 1174.28 202.331C1179.8 196.842 1185.43 191.176 1190.98 185.512C1193.58 184.905 1197.51 184.081 1202.36 183.434C1210.74 182.315 1221.06 182.29 1226.82 184.164C1230.01 185.202 1233.49 184.93 1236.48 183.406C1239.48 181.882 1241.74 179.232 1242.78 176.038C1243.82 172.844 1243.55 169.369 1242.03 166.376C1240.5 163.383 1237.85 161.118 1234.66 160.079C1228.93 158.218 1223.15 157.411 1217.57 157.209C1224.56 149.298 1230.59 141.94 1234.84 135.728C1244.99 120.838 1259.58 100.359 1273.86 86.5682C1281 79.673 1288.09 74.605 1293.38 72.4882C1296.02 71.4302 1297.9 70.9303 1299.5 70.9424L1299.5 70.9555Z" fill="white"/>
<path d="M93.872 1193.67C90.5233 1193.41 87.2102 1194.5 84.6608 1196.68C82.1114 1198.87 80.5346 1201.98 80.2771 1205.33C78.7864 1224.78 82.7768 1241.08 91.1568 1253.63C93.0213 1256.43 95.9188 1258.36 99.2129 1259.02C102.507 1259.68 105.928 1259 108.723 1257.14C111.516 1255.27 113.453 1252.38 114.11 1249.08C114.766 1245.79 114.088 1242.37 112.223 1239.58C107.237 1232.11 104.374 1222.45 105.537 1207.27C105.665 1205.61 105.464 1203.94 104.947 1202.36C104.429 1200.78 103.605 1199.31 102.522 1198.05C101.439 1196.79 100.117 1195.75 98.6331 1195C97.1488 1194.25 95.5312 1193.8 93.872 1193.67Z" fill="#070922"/>
<path d="M131.958 1183.28C128.609 1183.03 125.295 1184.11 122.746 1186.3C120.196 1188.48 118.619 1191.59 118.363 1194.94C116.873 1214.4 120.857 1230.7 129.237 1243.25C130.16 1244.63 131.347 1245.82 132.73 1246.75C134.113 1247.67 135.664 1248.32 137.296 1248.64C138.928 1248.97 140.607 1248.97 142.24 1248.65C143.872 1248.32 145.425 1247.68 146.809 1246.76C148.193 1245.83 149.382 1244.65 150.307 1243.26C151.231 1241.88 151.874 1240.33 152.199 1238.7C152.524 1237.07 152.525 1235.39 152.201 1233.75C151.876 1232.12 151.234 1230.57 150.31 1229.19C145.323 1221.72 142.46 1212.06 143.623 1196.88C143.751 1195.22 143.55 1193.55 143.033 1191.97C142.516 1190.39 141.692 1188.93 140.608 1187.66C139.525 1186.4 138.204 1185.36 136.719 1184.61C135.235 1183.86 133.617 1183.41 131.958 1183.28Z" fill="#070922"/>
<path d="M170.042 1169.97C166.693 1169.71 163.379 1170.8 160.83 1172.98C158.28 1175.17 156.703 1178.28 156.447 1181.63C154.957 1201.09 158.947 1217.38 167.327 1229.93C169.192 1232.72 172.089 1234.66 175.383 1235.32C178.677 1235.98 182.098 1235.3 184.893 1233.44C187.686 1231.57 189.624 1228.67 190.28 1225.38C190.937 1222.09 190.258 1218.67 188.394 1215.87C183.407 1208.41 180.544 1198.75 181.708 1183.57C181.835 1181.91 181.634 1180.24 181.117 1178.66C180.6 1177.08 179.776 1175.61 178.692 1174.35C177.609 1173.09 176.288 1172.05 174.803 1171.3C173.319 1170.55 171.702 1170.09 170.042 1169.97Z" fill="#070922"/>
<path d="M788.297 670.211C784.53 670.18 780.691 670.319 776.787 670.62C775.457 670.723 774.153 671.036 772.921 671.547C772.888 671.566 772.855 671.585 772.822 671.604C771.463 672.201 770.219 673.032 769.148 674.059C769.031 674.135 768.916 674.213 768.802 674.293C768.694 674.468 768.591 674.645 768.492 674.825C767.204 676.217 766.244 677.88 765.684 679.692C765.628 679.821 765.574 679.95 765.522 680.081C765.162 681.431 765.029 682.831 765.126 684.224C765.221 684.785 765.353 685.339 765.522 685.881C765.594 686.256 765.682 686.628 765.788 686.994C766.349 688.819 767.315 690.493 768.615 691.892C768.675 691.998 768.738 692.104 768.802 692.209L871.215 794.596C871.354 794.678 871.494 794.759 871.636 794.837C872.807 795.972 874.187 796.87 875.7 797.482C875.968 797.547 876.238 797.604 876.51 797.651C876.863 797.74 877.22 797.814 877.58 797.872C879.46 798.307 881.415 798.307 883.295 797.872C883.361 797.862 883.426 797.851 883.491 797.84C885.375 797.276 887.1 796.281 888.532 794.934C888.736 794.824 888.935 794.709 889.132 794.588C889.335 794.352 889.529 794.108 889.714 793.858C889.919 793.62 890.115 793.375 890.301 793.122C890.921 792.292 891.436 791.388 891.835 790.432C891.899 790.324 891.962 790.215 892.022 790.105C892.054 790.038 892.067 789.972 892.092 789.908C892.117 789.837 892.141 789.765 892.165 789.694C911.624 737.219 866.235 672.876 792.039 670.288C790.799 670.244 789.553 670.218 788.297 670.211Z" fill="#070922"/>
<path d="M810.366 697.933C846.495 705.952 867.776 732.828 870.826 758.377L810.366 697.933Z" fill="#FFB900"/>
</g>
<defs>
<clipPath id="clip0_101_519">
<rect width="1542" height="1487" fill="white"/>
</clipPath>
</defs>
</svg>
