<?xml version="1.0" encoding="UTF-8" standalone="no"?>
<svg
   width="4975.8174"
   height="4290.3462"
   viewBox="0 0 4975.8174 4290.3462"
   version="1.1"
   xml:space="preserve"
   style="clip-rule:evenodd;fill-rule:evenodd;stroke-linecap:round;stroke-linejoin:round;stroke-miterlimit:1.5"
   id="svg2157"
   xmlns="http://www.w3.org/2000/svg"
   xmlns:svg="http://www.w3.org/2000/svg"><defs
   id="defs2161" />
    
    
<g
   id="fullcolor-retro-dudes-mini-pc"
   transform="matrix(9.9999994,0,0,9.9999994,34331.277,-14734.907)"><path
     id="path17312"
     style="color:#000000;clip-rule:nonzero;fill:#000000;fill-rule:nonzero;stroke-linecap:butt;stroke-linejoin:miter;-inkscape-stroke:none"
     d="m -3194.2598,1473.5083 h 0.01 c -1.4563,-0.03 -2.9136,-0.021 -4.3691,0.024 -5.8226,0.1783 -11.6255,0.9527 -17.3164,2.3164 -1.9467,0.4677 -3.8271,0.9799 -5.7598,1.457 a 4,4 0 0 0 -0.455,0.1153 c -54.6837,13.5284 -103.6333,30.8995 -138.1407,58.3457 -4.2974,3.401 -7.6827,7.7065 -10.0215,12.5273 a 4,4 0 0 0 -0.1543,0.3496 c -2.0373,4.3155 -3.2575,9.0254 -3.4511,13.9063 -0.7649,19.8774 -0.9822,39.5197 -0.586,58.9004 -0.192,0.074 -0.3888,0.1349 -0.58,0.2109 -19.1172,7.5943 -33.0444,25.7966 -43.502,50.7969 -2.7752,2.2483 -4.5218,4.8691 -4.9023,7.7109 -0.3339,2.4932 0.4223,4.7125 1.4785,6.4707 -2.2605,2.9321 -4.6405,6.6898 -6.0996,11.0762 -1.9509,5.853 -7.0676,22.2363 -4.1289,37.041 1.1937,6.0132 3.7056,10.4632 7.4218,13.082 2.8544,2.0115 6.1393,2.7776 9.4317,2.8477 1.8392,3.1118 4.771,5.5196 8.2832,6.8281 2.2662,0.8443 4.8537,1.1665 7.4375,0.7656 0.1422,0.831 0.2858,1.6745 0.4101,2.3848 0.8283,4.7294 2.946,8.7979 5.5899,11.7695 2.6438,2.9716 5.9909,5.5042 10.3203,4.4219 3.2273,-0.8069 5.8515,-3.447 6.875,-6.5156 1.0235,-3.0685 0.8953,-6.4742 0.059,-10.2344 -0.8634,-3.8853 -1.3049,-7.4557 -1.6465,-10.9648 4.266,-0.9522 7.9796,-3.2713 10.877,-5.9317 3.8584,-3.5429 6.6348,-7.4364 6.8593,-12.0332 0.1287,-2.6744 0.5975,-7.0485 0.8028,-11.3887 0.1283,-2.7126 0.2474,-5.3554 -0.037,-7.8711 1.4046,2.0856 2.9289,4.0879 4.5488,6.0157 -0.8322,10.3149 -1.6044,23.2016 -1.6016,34.8047 -0.034,0.01 -0.068,0.013 -0.1015,0.023 -1.8822,0.5606 -3.1851,2.0629 -3.8438,3.3906 -1.3173,2.6554 -1.3193,5.2727 -1.2324,8.2246 0.1738,5.9039 1.5387,12.9289 2.5625,17.6231 0.7909,3.6264 2.4488,6.5058 4.4082,8.8769 -0.8145,2.5396 -1.0483,5.5518 -0.4199,8.8887 -2.7696,1.8049 -6.0998,4.2032 -9.293,7.1504 -3.6302,3.3505 -7.1216,7.3941 -9.2344,12.2402 -2.1128,4.8462 -2.6766,10.6882 -0.2285,16.3985 4.66,10.8732 12.0527,23.6354 21.4668,34.289 9.4141,10.6537 20.9219,19.3629 34.1074,21.0996 12.5911,1.6578 22.7852,-1.1842 29.4375,-6.9375 5.6529,-4.8887 8.5306,-11.8971 8.0977,-19.0879 a 4,4 0 0 0 -0.02,-0.4003 c -0.088,-1.1389 -0.2545,-2.2814 -0.5118,-3.42 -1.608,-7.1162 -3.1046,-14.3246 -7.1289,-20.5175 -0.5283,-0.8129 -1.1071,-1.5987 -1.7324,-2.3575 32.6192,18.5521 63.035,32.6086 82.4609,40.4649 24.1852,9.7919 64.9516,4.7544 98.1309,-10.0547 5.9418,-2.6535 12.3053,-5.6849 18.7324,-8.918 l 3.3887,2.2559 c -0.416,1.839 0,3.5676 0.5156,5.289 0.696,2.3188 1.8968,4.7828 3.5469,7.4415 3.3001,5.3172 8.4382,11.3566 15.2188,16.9492 4.3925,3.6255 9.4697,7.0526 15.1796,9.9023 4.2039,2.0998 8.3795,0.481 12.6504,-1.7949 4.2722,-2.2765 8.8976,-5.7955 13.5801,-10.1953 9.3651,-8.7996 18.887,-21.0914 24.252,-34.0586 0.9444,-2.2822 1.7863,-4.4267 2.58,-6.5098 a 4,4 0 0 0 0.2325,-0.623 c 2.9546,-7.8306 4.8706,-14.331 5.8398,-19.8614 a 4,4 0 0 0 0.066,-0.455 c 0.3485,-2.0816 0.585,-4.05 0.6758,-5.8887 0.4057,-8.2165 -2.07,-14.395 -6.125,-18.8731 -2.1615,-2.3927 -5.1083,-4.0001 -8.5137,-5.1621 a 4.0004,4.0004 0 0 0 -0.01,0 c -0.047,-0.016 -0.099,-0.027 -0.1465,-0.043 a 4,4 0 0 0 -0.027,-0.014 4,4 0 0 0 -0.027,0 c -3.4169,-1.1311 -7.3363,-1.7882 -11.5098,-1.8203 -2.5045,-0.019 -5.1029,0.2147 -7.7305,0.6719 0.5736,-9.4061 0.872,-20.5672 -0.033,-27.4649 -0.3482,-2.6412 -1.6033,-4.2344 -3.1835,-6.291 -1.5803,-2.0566 -3.6542,-4.3286 -6.1485,-6.8379 -4.9888,-5.0187 -11.6543,-10.9551 -19.0293,-17.1758 -3.9367,-3.3204 -8.0722,-6.7087 -12.2519,-10.0742 l -0.5079,-0.9648 a 4.0004,4.0004 0 0 0 -0.01,-0.01 4,4 0 0 0 -0.019,-0.041 4,4 0 0 0 -0.7403,-0.9453 4.0004,4.0004 0 0 0 -0.068,-0.088 l -12,-11 a 4.0004,4.0004 0 0 0 -4.2071,-0.7031 c -3.6877,-2.8237 -7.1274,-5.4204 -10.3847,-7.836 2.5447,-2.2037 4.7566,-4.7181 6.7363,-7.4043 15.9522,12.0311 31.859,17.2685 47.3105,15.1602 15.8905,-2.1684 30.7518,-11.9567 44.6211,-28.3301 1.781,0.3775 3.4777,0.4584 5.0899,0.207 3.9178,-0.6108 6.7779,-3.1651 8.4394,-5.7617 1.8386,-2.8731 2.6019,-5.7194 2.9844,-7.9336 7.8496,-1.6951 12.8465,-6.6672 15.6426,-11.5937 0.5967,0.028 1.1933,0.056 1.793,0.068 7.0605,0.1431 14.1525,-0.823 19.6074,-3.2754 6.1116,-2.7475 8.714,-9.1886 8.0136,-15.0371 -0.6568,-5.4822 -3.5985,-10.8693 -8.2011,-14.9316 2.1254,-2.8099 4.3078,-5.9571 5.7695,-8.9043 1.9816,-3.983 2.6701,-8.6241 1.5703,-13.0449 -1.1,-4.4214 -4.3316,-8.6173 -9.4082,-10.4883 -3.0643,-1.1258 -6.4207,-1.1946 -10.0644,-1.0527 h -0.01 c -0.1527,0.01 -0.3075,0.016 -0.4609,0.023 2.5699,-2.9539 5.0556,-5.9134 7.2851,-8.7383 6.3326,-8.0212 9.7649,-15.619 10.9942,-21.8359 0.6146,-3.1085 0.7112,-5.8748 0.1191,-8.377 -0.5921,-2.5022 -2.1707,-5.1269 -4.9961,-6.0625 -1.1241,-0.3722 -2.2469,-0.5393 -3.3789,-0.5312 -3.3961,0.024 -6.8808,1.631 -10.7774,4.0449 -5.1954,3.2185 -11.0661,8.3699 -17.1777,15.7266 -7.3286,8.8245 -16.0406,20.9098 -21.8672,29.1621 -1.3177,-0.1623 -2.631,-0.1847 -3.9179,-0.072 -1.7135,0.1496 -3.3848,0.5373 -4.9727,1.1504 -6.3541,2.4533 -11.3723,7.8893 -14.7324,14.5039 -3.503,6.8926 -4.484,14.7117 -4.7012,20.8281 -2.86,0.8712 -4.8952,3.1072 -5.9336,5.3438 -2.124,4.5753 -1.6995,9.3189 -0.6211,12.8183 0.021,0.068 0.05,0.1506 0.072,0.2207 -8.215,7.6055 -15.8387,10.3581 -23.4727,9.5215 -7.8922,-0.8648 -16.3927,-5.8842 -25.3027,-15.3848 0.096,-37.7393 -2.2048,-77.1161 -8.8086,-119.3691 -1.9215,-12.2478 -8.3322,-23.0604 -17.5937,-30.6484 a 4,4 0 0 0 -0.039,-0.029 c -4.8784,-3.9886 -10.5311,-7.0997 -16.7656,-9.0215 -17.6405,-5.4622 -37.1076,-9.9651 -58.1485,-13.6582 -4.3242,-0.7632 -8.6896,-1.1896 -13.0586,-1.2793 z m -177.0293,205.9414 c 0.7213,7.0959 2.4875,13.9439 5.1875,20.3555 -0.2582,-0.2852 -0.4978,-0.5504 -0.7656,-0.8477 -1.9356,-2.1484 -4.0608,-4.3511 -6.0215,-6.3301 0.6291,-1.4337 0.8865,-2.943 0.8496,-4.2558 -0.069,-2.4582 -0.794,-4.5917 -1.5078,-6.1231 0.7488,-0.9857 1.5017,-1.9106 2.2578,-2.7988 z" /><path
     style="color:#000000;clip-rule:nonzero;fill:#005dc7;fill-rule:nonzero;stroke-linecap:butt;stroke-linejoin:miter;-inkscape-stroke:none"
     d="m -3339.8828,1768.6919 c 3.7925,2.0194 7.4608,3.9784 12.25,6.498 14.6199,7.6918 30.6708,15.9954 37.7754,18.9727 5.701,2.3847 6.9051,4.7263 7.5605,8.1855 0.6553,3.4592 -0.034,8.2729 -0.018,13.6465 0.011,3.488 -1.5513,5.4211 -4.0332,6.4746 -2.4819,1.0535 -6.0803,0.9614 -9.8027,-1.4316 -4.7572,-3.0531 -15.1546,-9.5265 -24.9316,-15.6895 -4.8885,-3.0815 -9.616,-6.081 -13.3711,-8.5136 -3.755,-2.4325 -6.7185,-4.4594 -7.3535,-4.9688 -0.645,-0.5175 -1.2463,-1.005 -1.8653,-1.5019 l 4.5781,-3.0528 a 4.0004,4.0004 0 0 0 1.7676,-3.6562 l -1,-12.1407 a 4.0004,4.0004 0 0 0 -1.5566,-2.8222 z"
     id="path17598" /><path
     style="color:#000000;clip-rule:nonzero;fill:#005dc7;fill-rule:nonzero;stroke-linecap:butt;stroke-linejoin:miter;-inkscape-stroke:none"
     d="m -3109.7246,1505.061 c 6.9086,6.2634 11.679,14.7588 13.1797,24.3242 8.1147,51.9207 9.7274,99.477 8.2832,145.084 -0.4337,13.7435 -8.3832,26.1123 -20.7071,32.211 -44.9712,22.2467 -87.5951,37.5266 -129.0292,49.082 -3.1117,0.8642 -6.3005,1.2837 -9.5,1.4453 -13.3421,-46.4357 -21.7211,-98.2637 -25.2208,-155.3594 -1.3014,-20.908 9.933,-40.5728 28.6094,-50.0644 44.8434,-22.8674 89.6334,-38.3985 134.3848,-46.7227 z"
     id="path17428" /><path
     style="color:#000000;clip-rule:nonzero;fill:#ff5312;fill-rule:nonzero;stroke-linecap:butt;stroke-linejoin:miter;-inkscape-stroke:none"
     d="m -3221.0176,1485.3891 49.8692,15.3321 c -30.2403,9.1224 -57.9487,20.0465 -84.1309,32 l -55.8769,-17.2344 c 26.3456,-12.2566 57.0964,-21.8824 90.1386,-30.0977 z"
     id="path17318" /><path
     style="color:#000000;clip-rule:nonzero;fill:#ffffff;fill-rule:nonzero;stroke-linecap:butt;stroke-linejoin:miter;-inkscape-stroke:none"
     d="m -3022.7773,1873.3403 c -3.083,3.8381 -6.3551,7.3697 -9.5743,10.3946 -4.3025,4.0426 -8.5291,7.1881 -11.8632,8.9648 -3.334,1.7766 -5.5196,1.5966 -5.3145,1.6992 -0.3021,-0.1508 -0.5844,-0.3201 -0.8828,-0.4746 1.1799,-5.47 2.4964,-10.8165 3.9922,-16.0059 7.9294,-1.1724 15.8141,-2.6692 23.6426,-4.5781 z"
     id="path17642" /><path
     style="color:#000000;clip-rule:nonzero;fill:#ffffff;fill-rule:nonzero;stroke-linecap:butt;stroke-linejoin:miter;-inkscape-stroke:none"
     d="m -3010.6973,1854.0161 c -1.3697,3.0721 -3.0495,6.1357 -4.9043,9.1406 -9.2768,2.6763 -18.669,4.7134 -28.166,6.2539 0.8933,-2.631 1.8394,-5.2168 2.8457,-7.7539 10.1644,-1.887 20.2488,-4.3817 30.2246,-7.6406 z"
     id="path17640" /><path
     style="color:#000000;clip-rule:nonzero;fill:#ffffff;fill-rule:nonzero;stroke-linecap:butt;stroke-linejoin:miter;-inkscape-stroke:none"
     d="m -3062.1895,1843.604 c 0.5696,4.2158 1.6898,7.9218 2.7247,11.1992 -3.4644,8.3624 -6.2628,17.1627 -8.5762,26.2832 -3.7451,-3.7057 -6.6896,-7.4245 -8.6602,-10.5996 -1.3787,-2.2213 -2.2798,-4.191 -2.6797,-5.5234 -0.2349,-0.7828 -0.186,-1.2793 -0.2011,-1.3926 0.6068,-0.9874 2.429,-3.6146 4.7207,-6.7031 2.3386,-3.1518 5.1287,-6.8016 7.7031,-10.1387 1.7208,-1.0281 3.3079,-2.0821 4.9687,-3.125 z"
     id="path17638" /><path
     style="color:#000000;clip-rule:nonzero;fill:#ffffff;fill-rule:nonzero;stroke-linecap:butt;stroke-linejoin:miter;-inkscape-stroke:none"
     d="m -3003.127,1832.7173 c -0.8824,3.361 -2.0936,7.1761 -3.6777,11.4961 -9.9386,3.6115 -20.0205,6.3996 -30.2324,8.5273 2.9505,-6.1674 6.3302,-11.9889 10.2187,-17.414 7.8886,-0.4588 15.7867,-1.3078 23.6914,-2.6094 z"
     id="path17636" /><path
     style="color:#000000;clip-rule:nonzero;fill:#ffffff;fill-rule:nonzero;stroke-linecap:butt;stroke-linejoin:miter;-inkscape-stroke:none"
     d="m -3366.8848,1823.522 c 7.1908,18.3223 20.6649,45.0638 43.0664,54.166 9.4734,3.8497 18.1863,3.4653 25.2793,0.9746 2.3982,-0.8421 4.5993,-1.9178 6.6348,-3.1152 -0.6644,0.8501 -1.4317,1.657 -2.3047,2.4121 -4.5751,3.9567 -12.2814,6.4908 -23.1601,5.0586 -10.2744,-1.3533 -20.4775,-8.6431 -29.1582,-18.4668 -8.6809,-9.8239 -15.7674,-22.0178 -20.1075,-32.1446 -1.3694,-3.1943 -1.2843,-5.9872 -0.25,-8.8847 z"
     id="path17634" /><path
     style="color:#000000;clip-rule:nonzero;fill:#ffffff;fill-rule:nonzero;stroke-linecap:butt;stroke-linejoin:miter;-inkscape-stroke:none"
     d="m -3002.9375,1811.9341 c 1.3069,2.4288 1.9429,5.3792 1.7227,9.8398 -0.039,0.7967 -0.1148,1.645 -0.2207,2.5352 -6.1727,1.1099 -12.3489,1.929 -18.5313,2.4883 4.9531,-5.5049 10.5884,-10.4856 17.0293,-14.8633 z"
     id="path17632" /><path
     style="color:#000000;clip-rule:nonzero;fill:#ffffff;fill-rule:nonzero;stroke-linecap:butt;stroke-linejoin:miter;-inkscape-stroke:none"
     d="m -3009.4141,1806.7017 c -8.858,6.3343 -16.252,13.7528 -22.4511,22.0292 a 4,4 0 0 0 -0.2598,0.3555 c -6.1604,8.2939 -11.1348,17.4379 -15.2051,27.1973 a 4,4 0 0 0 -0.1152,0.2773 c -4.3187,10.4111 -7.6069,21.5222 -10.2109,33.0449 -1.2456,-0.8463 -2.4411,-1.7184 -3.5958,-2.6093 2.5365,-10.7417 5.6781,-20.9612 9.711,-30.4375 8.8398,-20.7892 21.8112,-37.9595 42.1269,-49.8574 z"
     id="path17630" /><path
     style="color:#000000;clip-rule:nonzero;fill:#000000;fill-rule:nonzero;stroke-linecap:butt;stroke-linejoin:miter;-inkscape-stroke:none"
     d="m -3293.709,1795.8071 a 3.9127949,4.0856363 68.981791 0 0 -0.9531,0.1719 l -10.7559,3.248 a 3.9124036,4.0852278 68.981791 0 0 -0.248,0.1993 3.9124036,4.0852278 68.981791 0 0 -0.3164,0.017 3.9124036,4.0852278 68.981791 0 0 -0.8711,0.9239 3.9124036,4.0852278 68.981791 0 0 -1.041,1.1015 3.9124036,4.0852278 68.981791 0 0 -0.1778,1.4629 3.9124036,4.0852278 68.981791 0 0 -0.1484,1.2305 3.9124036,4.0852278 68.981791 0 0 0.1953,0.2363 3.9124036,4.0852278 68.981791 0 0 0.012,0.3047 l 4.9492,10.4785 a 3.9127949,4.0856363 68.981791 0 0 4.5098,2.1113 l 11.0508,-2.4785 a 3.9127949,4.0856363 68.981791 0 0 2.9062,-5.5371 l -5.2461,-11.248 a 3.9127949,4.0856363 68.981791 0 0 -3.8652,-2.2227 z"
     id="path17622" /><path
     style="color:#000000;clip-rule:nonzero;fill:#ffb900;fill-rule:nonzero;stroke-linecap:butt;stroke-linejoin:miter;-inkscape-stroke:none"
     d="m -3295.8359,1804.5102 1.75,3.7539 -2.9063,0.6504 -1.6758,-3.5488 z"
     id="path17628" /><path
     style="color:#000000;clip-rule:nonzero;fill:#ffffff;fill-rule:nonzero;stroke-linecap:butt;stroke-linejoin:miter;-inkscape-stroke:none"
     d="m -3020.5098,1804.3188 c -14.8162,10.3659 -25.6458,23.7664 -33.6347,39.0684 -0.3419,-2.1211 -0.5075,-4.3088 -0.3809,-6.5996 0.3151,-5.6481 2.3125,-12.0803 8.3926,-20.0508 4.3297,-5.6612 9.882,-9.0599 15.6699,-10.8672 3.337,-1.0413 6.7434,-1.5 9.9531,-1.5508 z"
     id="path17626" /><path
     style="color:#000000;clip-rule:nonzero;fill:#ffffff;fill-rule:nonzero;stroke-linecap:butt;stroke-linejoin:miter;-inkscape-stroke:none"
     d="m -3343.4023,1800.5298 c 0.7916,0.5309 1.8325,1.2055 2.8144,1.8457 6.6182,7.601 16.8091,15.852 33.9629,26.2636 -0.987,-0.231 -2.0017,-0.4399 -3.0625,-0.6074 -8.6571,-1.3665 -16.6471,3.1097 -22.5781,7.4063 -5.931,4.2965 -10.0235,8.875 -10.0235,8.875 a 4,4 0 0 0 0.3067,5.6484 4,4 0 0 0 5.6484,-0.3086 c 0,0 3.5977,-3.9954 8.7617,-7.7363 5.164,-3.7409 11.6739,-6.7659 16.6368,-5.9824 8.6672,1.3685 12.7668,4.5152 15.6875,9.0097 2.9206,4.4946 4.4231,10.7862 6.0351,17.92 0.045,0.1986 0.058,0.3922 0.096,0.5898 -3.2007,3.0269 -7.2976,5.9855 -12.0723,7.6621 -5.4868,1.9268 -11.8405,2.3224 -19.6171,-0.8379 -20.0946,-8.1647 -34.3516,-37.9469 -40.6661,-55.1094 0.755,-0.8162 1.5503,-1.6096 2.3731,-2.3691 2.2105,-2.0403 4.5499,-3.8098 6.6621,-5.2656 2.5579,5.0005 6.777,10.6511 13.2734,17.2539 a 4,4 0 0 0 5.6582,0.047 4,4 0 0 0 0.045,-5.6563 c -6.3789,-6.4832 -10.113,-11.7572 -12.1192,-15.8359 0,0 0.064,-0.035 0.064,-0.035 a 4,4 0 0 0 2.1133,-2.7773 z"
     id="path17624" /><path
     style="color:#000000;clip-rule:nonzero;fill:#b5b5b5;fill-rule:nonzero;stroke-linecap:butt;stroke-linejoin:miter;-inkscape-stroke:none"
     d="m -3165.1445,1793.1313 8.1484,5.2383 3.1465,20.7363 c -1.1389,0.187 -2.2775,0.4028 -3.418,0.5469 l -14.1836,-7.6035 3.3809,-10.1387 a 4.0004,4.0004 0 0 0 0.012,-0.025 z"
     id="path17620" /><path
     style="color:#000000;clip-rule:nonzero;fill:#b5b5b5;fill-rule:nonzero;stroke-linecap:butt;stroke-linejoin:miter;-inkscape-stroke:none"
     d="m -3132.959,1789.436 5.0625,9.5996 5.0781,9.6309 c -2.6768,1.1995 -5.5621,2.5318 -8.1113,3.6582 -1.5068,0.6658 -3.0094,1.2519 -4.5117,1.8301 -3.5408,1.3222 -7.0643,2.3805 -10.5723,3.2734 l -2.9238,-19.2754 z"
     id="path17618" /><path
     style="color:#000000;clip-rule:nonzero;fill:#000000;fill-rule:nonzero;stroke-linecap:butt;stroke-linejoin:miter;-inkscape-stroke:none"
     d="m -3327.4141,1779.9849 a 4.0004,4.0004 0 0 0 -0.9629,0.1425 4.0004,4.0004 0 0 0 -2.3066,1.7032 l -5,7.83 a 4.0004,4.0004 0 0 0 1.4004,5.6328 l 14.4199,8.17 a 4.0004,4.0004 0 0 0 5.7149,-2.0703 l 3.58,-9.5118 a 4.0004,4.0004 0 0 0 -1.957,-4.9863 l -13,-6.4902 a 4.0004,4.0004 0 0 0 -1.8887,-0.4199 z"
     id="path17610" /><path
     style="color:#000000;clip-rule:nonzero;fill:#00a07e;fill-rule:nonzero;stroke-linecap:butt;stroke-linejoin:miter;-inkscape-stroke:none"
     d="m -3325.8789,1789.1684 6.5527,3.2715 -0.6621,1.7578 -6.6836,-3.7871 z"
     id="path17616" /><path
     style="color:#000000;clip-rule:nonzero;fill:#005dc7;fill-rule:nonzero;stroke-linecap:butt;stroke-linejoin:miter;-inkscape-stroke:none"
     d="m -3262.623,1783.9321 c 16.942,4.6745 38.6923,7.8181 64.2109,5.4766 0.1262,0.1585 0.2555,0.3142 0.3887,0.4668 l -6.375,10.4355 -6.0313,-3.2168 a 4,4 0 0 0 -3.0469,-0.2988 4,4 0 0 0 -2.3652,1.9453 4,4 0 0 0 1.6465,5.4121 l 18.7109,9.9785 a 4,4 0 0 0 5.4121,-1.6464 4,4 0 0 0 -1.6465,-5.4122 l -5.6093,-2.9921 5.7832,-9.4649 14.8242,7.9395 -3.3867,10.1621 a 4.0004,4.0004 0 0 0 1.9062,4.791 l 5.2168,2.7969 c -15.5854,-0.7011 -30.586,-5.1814 -44.5937,-11.9258 -16.8139,-8.0942 -31.7582,-16.3496 -45.0449,-24.4473 z"
     id="path17614" /><path
     style="color:#000000;clip-rule:nonzero;fill:#b5b5b5;fill-rule:nonzero;stroke-linecap:butt;stroke-linejoin:miter;-inkscape-stroke:none"
     d="m -3126.7305,1780.1352 8.1446,5.2344 3.0195,19.8945 -11.9727,-22.7011 z"
     id="path17612" /><path
     style="color:#000000;clip-rule:nonzero;fill:#b5b5b5;fill-rule:nonzero;stroke-linecap:butt;stroke-linejoin:miter;-inkscape-stroke:none"
     d="m -3143.8438,1777.9243 5.7032,5.2266 -15.0039,8.1836 -6.5117,-4.1856 z"
     id="path17608" /><path
     style="color:#000000;clip-rule:nonzero;fill:#b5b5b5;fill-rule:nonzero;stroke-linecap:butt;stroke-linejoin:miter;-inkscape-stroke:none"
     d="m -3094.5469,1776.436 4.1153,7.7949 4.0644,7.7051 c -3.8458,1.8093 -7.8233,3.657 -11.8906,5.541 -3.2108,1.4855 -6.4512,2.9783 -9.7207,4.4747 l -2.5488,-16.7989 z"
     id="path17606" /><path
     style="color:#000000;clip-rule:nonzero;fill:#ff5345;fill-rule:nonzero;stroke-linecap:butt;stroke-linejoin:miter;-inkscape-stroke:none"
     d="m -3188.002,1775.8384 c 0.438,0 0.8591,0.055 1.2637,0.1504 a 4.0004,4.0004 0 0 0 0.018,0.01 c 1.8567,0.4573 3.3426,1.89 3.8477,3.7539 0.01,0.034 0.017,0.068 0.025,0.1015 0.027,0.1063 0.05,0.2134 0.07,0.3223 0.016,0.09 0.027,0.1816 0.039,0.2734 0.01,0.063 0.019,0.1255 0.025,0.1895 0.016,0.1697 0.025,0.3411 0.025,0.5156 0,0.3728 -0.036,0.7348 -0.1055,1.084 -2e-4,0 3e-4,0 0,0 -0.4885,2.4423 -2.6008,4.2266 -5.209,4.2266 -0.5549,0 -1.0868,-0.082 -1.5859,-0.2324 -0.1639,-0.052 -0.324,-0.1107 -0.4805,-0.1778 a 4.0004,4.0004 0 0 0 -0.045,-0.01 c -0.1557,-0.066 -0.3078,-0.1413 -0.4551,-0.2207 a 4,4 0 0 0 -0.207,-0.1368 4,4 0 0 0 -0.1191,-0.057 c -0.8579,-0.5472 -1.5385,-1.3357 -1.9571,-2.2774 a 4,4 0 0 0 -0.035,-0.074 c -0.2764,-0.649 -0.4297,-1.367 -0.4297,-2.1289 0,-2.9822 2.3322,-5.3144 5.3144,-5.3144 z"
     id="path17604" /><path
     style="color:#000000;clip-rule:nonzero;fill:#ff5345;fill-rule:nonzero;stroke-linecap:butt;stroke-linejoin:miter;-inkscape-stroke:none"
     d="m -3352.6133,1774.02 6.5664,1.2051 0.5547,6.7363 -4.0117,2.6758 c -0.8787,-1.2795 -1.5401,-2.691 -1.8984,-4.334 -0.3914,-1.7943 -0.8181,-4.0052 -1.211,-6.2832 z"
     id="path17602" /><path
     style="color:#000000;clip-rule:nonzero;fill:#b5b5b5;fill-rule:nonzero;stroke-linecap:butt;stroke-linejoin:miter;-inkscape-stroke:none"
     d="m -3180.5566,1769.1313 8.1484,5.2383 1.5215,10.0645 v 0 l 0.092,0.6113 a 4.0004,4.0004 0 0 0 -0.014,0.031 4.0004,4.0004 0 0 0 -0.1582,0.334 4.0004,4.0004 0 0 0 -0.1465,0.3105 l -0.8691,2.6114 -2.1738,6.5234 -5.8165,-3.1133 c 2.9808,-2.2735 4.9867,-5.7689 5.2481,-9.7109 0,-0.036 0.01,-0.072 0.01,-0.1074 0.01,-0.176 0.014,-0.3537 0.017,-0.5313 0,-0.08 0.01,-0.158 0.01,-0.2383 0,-0.083 -0.01,-0.1651 -0.01,-0.248 0,-0.1717 -0.01,-0.3435 -0.017,-0.5137 -0.01,-0.1046 -0.015,-0.2085 -0.023,-0.3125 -0.013,-0.1603 -0.028,-0.3198 -0.047,-0.4785 -0.013,-0.1111 -0.027,-0.2218 -0.043,-0.332 -0.022,-0.1548 -0.048,-0.308 -0.076,-0.461 -0.017,-0.096 -0.033,-0.1919 -0.053,-0.2871 -0.047,-0.2283 -0.098,-0.4556 -0.1563,-0.6797 -0.055,-0.212 -0.1166,-0.421 -0.1816,-0.6289 0,-0.01 0,-0.013 -0.01,-0.019 -0.055,-0.1762 -0.1153,-0.3504 -0.1777,-0.5235 -0.019,-0.052 -0.039,-0.1041 -0.059,-0.1562 -0.9806,-2.6128 -2.7591,-4.8431 -5.0449,-6.3867 -0.01,0 -0.014,-0.01 -0.021,-0.014 -0.077,-0.052 -0.1519,-0.1077 -0.2305,-0.1582 z"
     id="path17600" /><path
     style="color:#000000;clip-rule:nonzero;fill:#b5b5b5;fill-rule:nonzero;stroke-linecap:butt;stroke-linejoin:miter;-inkscape-stroke:none"
     d="m -3148.3672,1765.436 2.3652,4.4844 -17.4472,10.1777 -0.8985,-5.9453 z"
     id="path17596" /><path
     style="color:#000000;clip-rule:nonzero;fill:#b5b5b5;fill-rule:nonzero;stroke-linecap:butt;stroke-linejoin:miter;-inkscape-stroke:none"
     d="m -3105.4316,1764.9224 5.7031,5.2285 -15.0059,8.1836 -6.5117,-4.1856 z"
     id="path17594" /><path
     style="color:#000000;clip-rule:nonzero;fill:#b5b5b5;fill-rule:nonzero;stroke-linecap:butt;stroke-linejoin:miter;-inkscape-stroke:none"
     d="m -3085.3145,1764.1313 8.1465,5.2364 2.5703,16.9648 c -1.6244,0.7803 -2.7904,1.3679 -4.5214,2.1914 l -2.3594,-4.4687 -6.418,-12.168 z"
     id="path17592" /><path
     style="color:#000000;clip-rule:nonzero;fill:#005dc7;fill-rule:nonzero;stroke-linecap:butt;stroke-linejoin:miter;-inkscape-stroke:none"
     d="m -3353.5352,1761.397 c 0.8928,0.4815 6.0089,3.2248 12.5352,6.7031 a 4.0004,4.0004 0 0 0 -0.5898,-0.1914 l -12.1114,-2.2207 c -0.036,-0.5272 -0.068,-1.0503 -0.082,-1.5391 -0.044,-1.4886 0.1192,-1.9482 0.248,-2.7519 z"
     id="path17590" /><path
     style="color:#000000;clip-rule:nonzero;fill:#b5b5b5;fill-rule:nonzero;stroke-linecap:butt;stroke-linejoin:miter;-inkscape-stroke:none"
     d="m -3053.1289,1760.436 3.4043,6.4551 c 0.3013,0.997 0.5381,1.897 0.6601,2.6094 0.016,0.1018 0.024,0.1832 0.037,0.2793 0.048,0.3282 0.076,0.62 0.09,0.8847 0.01,0.1269 0.016,0.2575 0.018,0.3711 0,0.5581 -0.042,0.895 -0.1074,1.1621 -0.043,0.1783 -0.093,0.3144 -0.1426,0.4239 -0.073,0.1336 -0.1455,0.2686 -0.2383,0.3769 -0.028,0.033 -0.054,0.066 -0.086,0.1 -0.3198,0.3604 -1.0013,0.7966 -2.1192,1.6094 -0.027,0.02 -0.033,0.025 -0.061,0.045 0,0 -0.042,0.025 -0.049,0.029 -0.2844,0.1977 -3.7887,2.1581 -8.3886,4.4942 -0.9798,0.4882 -1.9295,0.9623 -3.0469,1.5097 -1.0927,0.5427 -2.6902,1.2977 -3.9004,1.8907 l -2.0488,-13.5235 z"
     id="path17588" /><path
     style="color:#000000;clip-rule:nonzero;fill:#b5b5b5;fill-rule:nonzero;stroke-linecap:butt;stroke-linejoin:miter;-inkscape-stroke:none"
     d="m -3159.252,1753.9224 5.7032,5.2285 -3.752,2.0468 -11.2539,6.1368 -6.5117,-4.1856 z"
     id="path17586" /><path
     style="color:#000000;clip-rule:nonzero;fill:#b5b5b5;fill-rule:nonzero;stroke-linecap:butt;stroke-linejoin:miter;-inkscape-stroke:none"
     d="m -3145.1465,1752.6313 8.1504,5.2383 1.3086,8.625 1.2422,8.1875 -8.7383,-16.5644 a 4.0004,4.0004 0 0 0 -0.041,-0.059 4.0004,4.0004 0 0 0 -0.5332,-0.752 4.0004,4.0004 0 0 0 -0.092,-0.096 4.0004,4.0004 0 0 0 -0.1699,-0.1777 v 0 l -0.074,-0.066 -1.9102,-1.7539 z"
     id="path17584" /><path
     style="color:#000000;clip-rule:nonzero;fill:#b5b5b5;fill-rule:nonzero;stroke-linecap:butt;stroke-linejoin:miter;-inkscape-stroke:none"
     d="m -3112.9609,1748.938 4.4843,8.498 -12.5507,7.3223 -6.2774,3.6621 -1.6328,-10.7676 z"
     id="path17582" /><path
     style="color:#000000;clip-rule:nonzero;fill:#b5b5b5;fill-rule:nonzero;stroke-linecap:butt;stroke-linejoin:miter;-inkscape-stroke:none"
     d="m -3064.0117,1748.9224 5.7012,5.2265 -15.004,8.1856 -6.5117,-4.1856 z"
     id="path17580" /><path
     style="color:#000000;clip-rule:nonzero;fill:#b5b5b5;fill-rule:nonzero;stroke-linecap:butt;stroke-linejoin:miter;-inkscape-stroke:none"
     d="m -3105.8379,1739.1313 8.1484,5.2383 2.9473,19.4961 -2.5039,-2.2969 -9.8477,-18.666 z"
     id="path17578" /><path
     style="color:#000000;clip-rule:nonzero;fill:#b5b5b5;fill-rule:nonzero;stroke-linecap:butt;stroke-linejoin:miter;-inkscape-stroke:none"
     d="m -3123.8438,1737.4224 5.7032,5.2285 -15.0059,8.1836 -6.5117,-4.1856 z"
     id="path17576" /><path
     style="color:#000000;clip-rule:nonzero;fill:#b5b5b5;fill-rule:nonzero;stroke-linecap:butt;stroke-linejoin:miter;-inkscape-stroke:none"
     d="m -3073.6523,1735.438 3.9707,7.5312 -7.4239,4.3301 -11.0742,6.457 -1.4531,-9.6015 z"
     id="path17574" /><path
     style="color:#000000;clip-rule:nonzero;fill:#005dc7;fill-rule:nonzero;stroke-linecap:butt;stroke-linejoin:miter;-inkscape-stroke:none"
     d="m -3347.627,1726.4946 c 7.481,8.2127 21.736,22.4755 44.3399,39.502 a 4,4 0 0 0 0.2051,0.2226 c 0,0 0.6698,0.4424 1.0761,0.7168 20.3594,15.2182 47.0308,32.3173 80.959,48.6504 19.2254,9.2567 40.8032,14.6264 63.2403,12.1895 a 4.0004,4.0004 0 0 0 0.291,0.012 c 2.9815,-0.3417 5.99,-0.8108 9.0195,-1.4473 2.8055,-0.5772 5.6216,-1.2926 8.4434,-2.1367 0.01,0 0.013,0 0.02,-0.01 1.9712,-0.5901 3.9443,-1.2502 5.9199,-1.9746 0.1407,-0.052 0.2812,-0.1021 0.4219,-0.1543 1.9976,-0.7422 3.9972,-1.5446 5.9961,-2.4277 3.8813,-1.715 7.9279,-3.5275 12.0605,-5.3887 0,-8e-4 0,0 0.01,0 a 4.0004,4.0004 0 0 0 0.01,0 c 2.0342,-0.9119 4.0842,-1.844 6.1425,-2.7832 0,-9e-4 0,0 0.01,0 a 4.0004,4.0004 0 0 0 0.016,-0.01 c 1.5637,-0.7114 3.1236,-1.4361 4.6934,-2.1543 1.8327,-0.8383 3.4974,-1.604 5.3242,-2.4453 6.9897,-3.2185 13.9087,-6.4299 20.2852,-9.4453 a 4.0004,4.0004 0 0 0 0.029,-0.016 4,4 0 0 0 0.051,-0.022 c 0.072,-0.036 0.1918,-0.094 0.3418,-0.1641 a 4,4 0 0 0 0.014,-0.01 c 0.3109,-0.1465 0.6001,-0.2843 0.9082,-0.4297 0.1417,-0.067 0.314,-0.146 0.4551,-0.2129 0.1291,-0.061 0.2034,-0.099 0.332,-0.1602 2.9912,-1.4151 5.8784,-2.7951 8.5645,-4.0918 3.8539,-1.8571 7.1613,-3.4885 10.1621,-4.9883 0.2311,-0.1153 0.6263,-0.2992 0.8515,-0.4121 0.9126,-0.4573 1.4482,-0.7396 2.2422,-1.1386 0.2215,-0.1128 0.5206,-0.2597 0.7344,-0.3692 0.3131,-0.1603 0.5605,-0.2873 0.8535,-0.4375 2.0381,-1.0362 3.9332,-2.0235 5.1934,-2.793 0.5402,-0.3254 1.0301,-0.639 1.459,-0.9511 v 0 a 4.0004,4.0004 0 0 0 0.01,0 c 0.7805,-0.5704 3.2491,-1.8175 4.7989,-4.7246 0.8265,-1.5506 1.2441,-3.3886 1.2304,-5.5332 -2e-4,-0.059 0.013,-0.1124 0.012,-0.1719 0,-0.057 -0.012,-0.1221 -0.014,-0.1797 -0.017,-0.5909 -0.069,-1.2065 -0.1504,-1.8438 -0.044,-0.3632 -0.1108,-0.7455 -0.1758,-1.125 -0.047,-0.2588 -0.098,-0.521 -0.1543,-0.7871 -0.3394,-1.6653 -0.8887,-3.5071 -1.668,-5.5605 0.2111,0.2095 0.5166,0.4743 0.7207,0.6797 2.3489,2.363 4.2377,4.4554 5.4786,6.0703 1.2408,1.6149 1.6663,3.001 1.5957,2.4648 0.7869,5.9982 0.4421,18.9896 -0.2051,28.6524 -6.2336,2.4211 -12.2653,6.5212 -17.0078,12.7246 -6.203,8.13 -9.0332,15.614 -9.8203,22.3516 -3.0867,2.027 -6.2664,4.0587 -9.6231,6.0507 -13.2312,7.8539 -28.1232,15.292 -41.0098,21.0469 -31.4803,14.0503 -71.6929,18.1133 -91.8671,9.9453 -19.1787,-7.7562 -49.648,-21.8315 -82.1856,-40.3789 1.3074,-0.2038 2.5757,-0.5552 3.7754,-1.0644 5.1806,-2.199 8.9276,-7.4913 8.9082,-13.8633 -0.014,-4.4864 0.9091,-9.6631 -0.123,-15.1113 -1.0321,-5.4479 -4.8122,-10.9308 -12.3301,-14.0762 -6.1161,-2.5632 -22.5643,-11.0061 -37.1387,-18.6738 -12.1124,-6.3727 -21.3416,-11.3341 -24.7051,-13.1446 -0.09,-8.973 0.3559,-19.2279 0.9824,-28.4707 z"
     id="path17572" /><path
     style="color:#000000;clip-rule:nonzero;fill:#b5b5b5;fill-rule:nonzero;stroke-linecap:butt;stroke-linejoin:miter;-inkscape-stroke:none"
     d="m -3086.1953,1724.8891 c 2.068,1.6023 4.1156,3.2147 6.2265,4.879 l -13.8691,7.5664 -6.5137,-4.1856 z"
     id="path17570" /><path
     style="color:#000000;clip-rule:nonzero;fill:#005dc7;fill-rule:nonzero;stroke-linecap:butt;stroke-linejoin:miter;-inkscape-stroke:none"
     d="m -3102.7109,1712.3911 c 2.9972,2.2064 6.2025,4.6066 9.6621,7.2363 l -16.9727,9.9004 a 4.0004,4.0004 0 0 0 -0.164,0.1406 4,4 0 0 0 -0.7657,0.6563 4.0004,4.0004 0 0 0 -0.2422,0.2852 4,4 0 0 0 -0.1777,0.2109 4,4 0 0 0 -0.3828,0.8144 4.0004,4.0004 0 0 0 -0.047,0.084 l -1.5019,4.5117 -7.3067,-6.6972 a 4.0004,4.0004 0 0 0 -4.7187,-0.5059 l -24,14 a 4.0004,4.0004 0 0 0 -0.072,0.062 4,4 0 0 0 -0.9414,0.8086 4.0004,4.0004 0 0 0 -0.127,0.1582 4,4 0 0 0 -0.2089,0.2637 4,4 0 0 0 -0.4102,0.8613 4.0004,4.0004 0 0 0 -0.019,0.035 l -1.3574,4.0742 -3.5547,-3.2578 a 4.0004,4.0004 0 0 0 -4.7188,-0.5059 l -24,14 a 4.0004,4.0004 0 0 0 -0.1855,0.1485 4.0004,4.0004 0 0 0 -0.4395,0.3515 4.0004,4.0004 0 0 0 -0.4277,0.4336 4.0004,4.0004 0 0 0 -0.3262,0.4727 4.0004,4.0004 0 0 0 -0.2773,0.539 4.0004,4.0004 0 0 0 -0.125,0.2461 l -2.043,6.1328 c -7.05,0.2979 -12.7539,6.1829 -12.7539,13.3008 0,0.1616 0.01,0.3222 0.012,0.4824 -60.3951,4.8522 -97.0781,-21.8886 -97.0781,-21.8886 a 4,4 0 0 0 -0.078,-0.037 c -8.5901,-6.4581 -15.8825,-12.4822 -22.1114,-17.9668 19.4252,9.3836 38.4203,16.5204 57.0293,21.7382 a 4.0004,4.0004 0 0 0 0.014,0 c 9.0569,2.5025 18.625,2.5033 27.6758,-0.012 41.8252,-11.6645 84.9617,-27.1245 130.4297,-49.6172 0.9248,-0.4576 1.8294,-0.9462 2.7129,-1.4609 z"
     id="path17568" /><path
     style="color:#000000;clip-rule:nonzero;fill:#ffffff;fill-rule:nonzero;stroke-linecap:butt;stroke-linejoin:miter;-inkscape-stroke:none"
     d="m -3415.0391,1680.145 c 11.0824,8.0429 23.0084,10.768 34.5528,6.9199 0.1779,0.5371 0.4373,1.1047 0.4492,1.5293 0.022,0.7681 0.039,0.8318 -0.4551,1.2246 -0.4946,0.3929 -2.1558,1.1641 -5.8203,1.1641 a 4,4 0 0 0 -4,4 4,4 0 0 0 4,4 c 2.9071,0 5.3617,-0.3277 7.4219,-1.0605 1.9894,2.0023 4.173,4.2638 6.082,6.3828 2.5914,2.8763 4.7455,6.067 4.7656,6.1191 a 4.0004,4.0004 0 0 0 0,0.01 c 0.4044,1.0414 0.7249,4.9692 0.5352,8.9765 -0.1895,4.0059 -0.6493,8.2356 -0.8008,11.3809 -0.026,0.5232 -1.5346,4.0092 -4.2812,6.5312 -1.8004,1.6532 -3.9762,2.9979 -6.2188,3.7168 -0.1529,-1.5136 -0.3212,-3.0431 -0.5449,-4.6211 -0.3748,-2.6443 0.5702,-6.3589 1.8105,-9.291 1.2403,-2.932 2.5664,-4.9453 2.5664,-4.9453 a 4,4 0 0 0 -1.1328,-5.541 4,4 0 0 0 -3.0058,-0.5801 v 0 a 4,4 0 0 0 -2.5371,1.7149 c 0,0 -1.7231,2.6064 -3.2578,6.2343 -1.5347,3.6279 -3.0885,8.4137 -2.3633,13.5293 1.0468,7.3844 0.95,14.8357 3.0547,24.3067 0.6325,2.8398 0.5061,4.9333 0.1621,5.9648 -0.344,1.0314 -0.4539,1.0921 -1.2265,1.2852 0.6494,-0.1623 -0.8132,-0.1901 -2.4043,-1.9785 -1.5912,-1.7884 -3.1339,-4.6796 -3.6856,-7.8301 -0.6876,-3.9261 -1.6907,-9.7839 -2.3203,-15.4785 -0.6296,-5.6945 -0.763,-11.3973 -0.2012,-13.9824 a 4,4 0 0 0 -3.0605,-4.7579 4,4 0 0 0 -4.7578,3.0586 c -1.0182,4.6848 -0.5968,10.5427 0.068,16.5606 0.2154,1.9475 0.4739,3.8643 0.7422,5.7402 -1.1258,0.1879 -2.2546,0.021 -3.4062,-0.4082 -1.9257,-0.7174 -3.677,-2.3286 -4.4278,-3.8301 0,0 -0.083,-0.1947 -0.1465,-0.4746 a 4.0004,4.0004 0 0 0 -0.01,-0.035 c -0.3703,-1.5685 -0.3903,-5.6874 -0.1309,-9.0371 0.2593,-3.3498 0.6641,-6.0743 0.6641,-6.0743 a 4,4 0 0 0 -3.3653,-4.5468 v 0 a 4,4 0 0 0 -4.543,3.3672 c 0,0 -0.4453,2.9789 -0.7285,6.6367 -0.1591,2.0552 -0.3016,4.2783 -0.25,6.4785 -1.1515,-0.2186 -2.1272,-0.617 -2.959,-1.2031 -1.6763,-1.1812 -3.2491,-3.3848 -4.1855,-8.1016 -2.3409,-11.7932 2.0814,-27.5859 3.8711,-32.9551 0.941,-2.8287 2.5828,-5.5884 4.2695,-7.914 1.2513,0.8126 2.1602,1.2324 2.1602,1.2324 a 4,4 0 0 0 5.3613,-1.8067 4,4 0 0 0 -1.8067,-5.3613 c 0,0 -2.9444,-1.6521 -4.2773,-3.3672 -0.6665,-0.8575 -0.7995,-1.3818 -0.7441,-1.7949 0.028,-0.2101 0.1396,-0.5774 0.5175,-1.0918 z"
     id="path17562" /><path
     style="color:#000000;clip-rule:nonzero;fill:#005dc7;fill-rule:nonzero;stroke-linecap:butt;stroke-linejoin:miter;-inkscape-stroke:none"
     d="m -3027.7207,1661.0806 c 3.4826,6.2957 9.968,14.5768 22.2852,22.2929 0.1585,0.099 0.3113,0.1799 0.4687,0.2754 -12.5106,14.1929 -25.1628,21.9292 -37.9629,23.6758 -10.0113,1.366 -20.4226,-0.8523 -31.4277,-7.041 2.7717,-11.9175 6.1629,-22.4091 10.082,-31.6524 2.9158,1.1392 5.8685,1.9004 8.8633,2.2286 9.4564,1.0362 18.8505,-2.362 27.6914,-9.7793 z"
     id="path17556" /><path
     style="color:#000000;clip-rule:nonzero;fill:#ffffff;fill-rule:nonzero;stroke-linecap:butt;stroke-linejoin:miter;-inkscape-stroke:none"
     d="m -2961.332,1631.7602 c 4.6928,-0.058 9.3031,0.5647 11.5117,2.3399 3.5561,2.8612 5.8143,7.0688 6.2187,10.4453 0.4045,3.3765 -0.3412,5.4366 -3.3496,6.7891 -3.6651,1.6476 -10.0292,2.6966 -16.166,2.5722 -6.1368,-0.1244 -12.1465,-1.4951 -15.082,-3.3203 -3.1384,-1.949 -4.4605,-4.8653 -4.5801,-8.4902 0.2894,0.04 0.5787,0.083 0.8672,0.1055 3.4038,0.2611 6.5633,-0.5271 9.1719,-1.8399 2.6086,-1.3128 4.756,-3.0594 6.0136,-5.6113 0.4366,-0.886 0.6907,-1.8018 0.8184,-2.7246 1.4804,-0.1506 3.0308,-0.2464 4.5762,-0.2657 z"
     id="path17552" /><path
     style="color:#000000;clip-rule:nonzero;fill:#ffffff;fill-rule:nonzero;stroke-linecap:butt;stroke-linejoin:miter;-inkscape-stroke:none"
     d="m -2997.9004,1606.3091 c 0.7018,0.023 1.4137,0.1302 2.1387,0.3242 a 4,4 0 0 0 0.6699,0.207 c 1.6207,0.5538 3.3172,1.5614 5.1484,3.1582 5.3788,4.6901 10.135,9.6569 13.0352,13.8145 1.4502,2.0788 2.4185,3.9595 2.832,5.3008 0.4135,1.3412 0.2637,1.9194 0.1739,2.1015 -0.1124,0.2281 -1.0291,1.2951 -2.4336,2.002 -1.4045,0.7068 -3.2062,1.1428 -4.9649,1.0078 -0.8814,-0.068 -1.7913,-0.2408 -2.7031,-0.6055 a 4,4 0 0 0 -1.1543,-0.5801 c -2.3314,-1.3937 -4.5946,-4.2891 -6.3164,-10.1796 a 4,4 0 0 0 -4.9609,-2.7168 4,4 0 0 0 -2.7168,4.9628 c 1.8604,6.3649 4.9611,10.8332 8.5371,13.6094 -0.5851,6.9577 1.4172,14.4586 8.1953,18.668 2.5106,1.5606 5.4447,2.6376 8.6074,3.3516 -2.16,2.684 -5.4247,4.7887 -10.8477,5.2636 a 4.0004,4.0004 0 0 0 -3.6464,3.7949 c 0,0 -0.4496,4.6354 -2.1289,7.2598 -0.8397,1.3122 -1.6024,1.9624 -2.9336,2.1699 -1.3313,0.2076 -3.8149,-0.1228 -7.8184,-2.6308 -14.5446,-9.1117 -19.4448,-18.0439 -21.4492,-23.3008 a 4,4 0 0 0 -0.076,-0.2012 c -0.3251,-0.869 -0.58,-1.6446 -0.7773,-2.2851 -0.4316,-1.4006 -0.5161,-5.4816 0.2324,-7.0938 0.3742,-0.8061 0.5564,-0.9438 1.0176,-1.0723 0.4612,-0.1285 1.7552,-0.1987 4.2265,0.9629 a 4,4 0 0 0 5.3223,-1.9179 4,4 0 0 0 -1.918,-5.3203 c -0.6669,-0.3135 -1.3247,-0.589 -1.9726,-0.8243 0.222,-5.5168 1.1765,-12.5151 3.834,-17.7441 2.6798,-5.2754 6.617,-9.1743 10.4804,-10.666 1.4488,-0.5594 2.8878,-0.868 4.3672,-0.8203 z"
     id="path17550" /><path
     style="color:#000000;clip-rule:nonzero;fill:#ffffff;fill-rule:nonzero;stroke-linecap:butt;stroke-linejoin:miter;-inkscape-stroke:none"
     d="m -2954.5195,1603.1431 c 2.6646,-0.019 4.9076,0.2579 5.8242,0.5937 2.6834,0.989 3.8446,2.6291 4.4121,4.9102 0.5675,2.2811 0.1971,5.208 -0.9707,7.5547 -1.1282,2.2756 -3.4224,5.5567 -5.6211,8.4492 -2.3184,-0.7463 -4.7465,-1.1029 -7.1543,-1.2032 v 0 c -3.3082,-0.1378 -6.5678,0.1996 -9.4512,0.6328 -0.7599,-1.6158 -1.7312,-3.2181 -2.8653,-4.8437 -1.1193,-1.6047 -2.4158,-3.2322 -3.8281,-4.8653 2.8618,-2.9553 6.1434,-6.3857 9.7832,-10.332 2.9105,-0.4188 5.9725,-0.7607 8.7071,-0.8672 0.3951,-0.015 0.7853,-0.025 1.166,-0.027 z"
     id="path17548" /><path
     style="color:#000000;clip-rule:nonzero;fill:#000000;fill-rule:nonzero;stroke-linecap:butt;stroke-linejoin:miter;-inkscape-stroke:none"
     d="m -3127.9492,1523.8091 c -0.5648,0.01 -1.1294,0.041 -1.6934,0.098 v 0 c -1.5029,0.1518 -2.997,0.4769 -4.4532,0.9766 -27.32,9.36 -76.731,26.2904 -104.0507,35.6504 -13.1684,4.5194 -21.7187,17.341 -20.8125,31.2441 2.0001,30.7809 5.7787,88.8601 7.9687,122.5293 0.4726,7.3108 4.4246,13.9641 10.6211,17.877 6.1862,3.9217 13.8864,4.6498 20.7012,1.9511 27.9592,-11.0696 73.5,-29.0893 99.6504,-39.4394 13.6129,-5.3885 22.1748,-19.0464 21.0859,-33.6563 -2.3299,-31.1582 -6.5793,-88.2675 -8.8594,-118.8086 -0.4626,-6.139 -3.7401,-11.7361 -8.8847,-15.1289 -3.3808,-2.2315 -7.3177,-3.3495 -11.2715,-3.289 z"
     id="path17526" /><path
     style="color:#000000;clip-rule:nonzero;fill:#ffb900;fill-rule:nonzero;stroke-linecap:butt;stroke-linejoin:miter;-inkscape-stroke:none"
     d="m -3126.8125,1531.8286 c 2.0161,0.1409 3.9896,0.7966 5.7266,1.9434 3.0746,2.0273 5.0352,5.3703 5.3125,9.0507 2.28,30.5392 6.5313,87.6475 8.8613,118.8086 0.8302,11.1494 -5.6683,21.5118 -16.0547,25.6231 -26.1497,10.3498 -71.6897,28.3691 -99.6504,39.4394 -4.4442,1.7604 -9.4417,1.2876 -13.4746,-1.2695 a 4.0004,4.0004 0 0 0 -0.01,0 c -4.0381,-2.5475 -6.6044,-6.8696 -6.9121,-11.6348 -2.19,-33.6701 -5.9707,-91.7499 -7.9707,-122.5293 -0.6737,-10.3361 5.6352,-19.7952 15.4258,-23.1562 27.3201,-9.3601 76.7291,-26.2885 104.0488,-35.6484 0.8727,-0.2997 1.769,-0.4948 2.668,-0.586 l 0.01,-0.01 c 0.6742,-0.068 1.3514,-0.078 2.0234,-0.031 z"
     id="path17536" /><path
     style="color:#000000;clip-rule:nonzero;fill:#000000;fill-rule:nonzero;stroke-linecap:butt;stroke-linejoin:miter;-inkscape-stroke:none"
     d="m -3163.1328,1556.479 c -1.1739,0.011 -2.3561,0.1089 -3.543,0.3027 -8.7705,1.4321 -15.6238,7.6357 -19.9746,16.0215 -5.3584,-3.0473 -11.2891,-4.4342 -17.334,-3.4473 -9.7908,1.5987 -17.326,8.9956 -21.6953,18.7325 -4.3691,9.7368 -5.8631,22.0583 -3.7519,34.9883 2.1113,12.9299 7.4462,24.1352 14.6855,31.9765 7.2395,7.8413 16.7366,12.456 26.5273,10.8574 9.7908,-1.5987 17.3242,-8.9936 21.6934,-18.7304 1.3273,-2.9578 2.386,-6.1579 3.1621,-9.5371 3.8205,-3.3142 7.8776,-6.2798 9.543,-6.9493 a 4.0004,4.0004 0 0 0 0.01,0 c 3.0635,-1.2379 4.4461,-1.033 5.3125,-0.666 0.8664,0.3669 1.7463,1.269 2.7285,2.9629 0.1214,0.2093 0.7953,1.9144 1.0429,3.877 0.1183,0.9373 0.1659,1.9602 0.1153,3.0078 a 3.9336144,4.0619109 80.726542 0 0 -0.035,0.5019 c -0.078,0.9851 -0.2416,1.9834 -0.5254,2.9473 -1.2715,4.3191 -4.2235,8.4224 -14.375,9.6914 a 4,4 0 0 0 -3.4726,4.4648 4,4 0 0 0 4.4648,3.4727 c 12.4084,-1.5511 19.0082,-8.4127 21.0567,-15.3711 0.3775,-1.2825 0.6196,-2.5506 0.7597,-3.7851 9.0119,-9.882 12.7929,-26.2137 9.9531,-43.6055 -2.0379,-12.4808 -7.1936,-23.3064 -14.1953,-30.8906 -6.1266,-6.6363 -13.935,-10.899 -22.1523,-10.8223 z"
     id="path17540" /><path
     style="color:#000000;clip-rule:nonzero;fill:#ffffff;fill-rule:nonzero;stroke-linecap:butt;stroke-linejoin:miter;-inkscape-stroke:none"
     d="m -3163.1035,1564.3501 c 4.851,-0.042 9.8562,2.2355 14.4726,6.6406 -0.4786,0.013 -0.9584,0.055 -1.4375,0.1328 -8.6976,1.4202 -14.0139,13.2682 -11.8632,26.4395 2.1506,13.1713 10.9587,22.7072 19.6562,21.2871 3.2322,-0.5278 5.9902,-2.4998 8.0781,-5.4375 -0.4796,6.2297 -1.9757,11.8698 -4.1836,16.4648 -0.1469,-0.3085 -0.3015,-0.6101 -0.4687,-0.8984 -1.3778,-2.3761 -3.3231,-4.9583 -6.5293,-6.3164 -1.603,-0.679 -3.3876,-0.9585 -5.3086,-0.8516 v 0 c -1.9209,0.1069 -3.9778,0.5988 -6.121,1.4648 -1.6869,0.6787 -3.3752,1.6702 -5.0645,2.8496 0.1634,-4.4959 -0.1213,-9.172 -0.8984,-13.9316 -2.1112,-12.93 -7.4462,-24.1372 -14.6856,-31.9785 -0.8408,-0.9108 -1.7146,-1.7728 -2.6133,-2.5918 3.448,-7.4703 8.6675,-12.0951 14.6641,-13.0742 0.7626,-0.1246 1.5319,-0.1906 2.3047,-0.1973 z"
     id="path17544" /><path
     style="color:#000000;clip-rule:nonzero;fill:#ffffff;fill-rule:nonzero;stroke-linecap:butt;stroke-linejoin:miter;-inkscape-stroke:none"
     d="m -2945.9102,1557.8384 c 0.027,0.087 0.019,0.051 0.066,0.2519 0.2105,0.8894 0.2738,2.6796 -0.1816,4.9824 -0.9107,4.6057 -3.7584,11.253 -9.4258,18.4317 -7.1995,9.1217 -17.3553,19.9368 -24.2383,27.0586 -1.5948,-1.5475 -3.2633,-3.0849 -4.996,-4.5957 -1.1916,-1.039 -2.4262,-1.924 -3.6875,-2.6621 5.7483,-8.0954 13.6376,-18.9393 20.1386,-26.7676 5.6681,-6.8226 11.0171,-11.4233 15.2364,-14.0371 3.885,-2.4068 6.5911,-2.6465 7.0878,-2.6621 z"
     id="path17542" /><path
     style="color:#000000;clip-rule:nonzero;fill:#005dc7;fill-rule:nonzero;stroke-linecap:butt;stroke-linejoin:miter;-inkscape-stroke:none"
     d="m -3364.3496,1554.7544 c 31.8079,4.3902 60.7376,12.7492 86.248,25.916 -2.1374,6.8862 -3.0679,14.2121 -2.6035,21.6719 3.4669,56.5574 11.7064,108.1005 24.8242,154.5566 -1.8498,-0.2631 -3.6905,-0.6246 -5.5039,-1.125 h -0.014 c -22.2579,-6.2419 -45.0863,-15.2403 -68.6563,-27.7773 a 4.0004,4.0004 0 0 0 -0.012,-0.01 c -18.857,-9.9505 -31.4064,-28.7603 -33.3438,-49.9961 -0.174,-1.8784 -0.3329,-3.76 -0.4921,-5.6406 4.1968,-3.1864 8.5097,-5.113 12.957,-5.9512 8.4802,-1.5983 17.9306,0.6801 28.5801,7.0469 a 4,4 0 0 0 5.4863,-1.3809 4,4 0 0 0 -1.3809,-5.4843 c -8.7979,-5.2599 -17.4803,-8.3116 -25.875,-8.6407 -2.7982,-0.1096 -5.5629,0.083 -8.291,0.5977 -10.6273,2.003 -20.2108,8.8637 -28.4863,20.2265 -9.8832,4.2638 -19.1972,2.6103 -29.5098,-5.0429 9.8913,-22.9081 22.4531,-38.3267 38.293,-44.6192 16.4783,-6.546 37.383,-3.7916 64.7891,12.3282 a 4,4 0 0 0 5.4765,-1.42 4,4 0 0 0 -1.4199,-5.4746 c -17.8837,-10.5188 -33.8927,-15.9228 -48.1133,-16.6172 -5.2936,-0.2584 -10.3379,0.1385 -15.1406,1.1641 -0.3318,-18.4902 -0.117,-37.2326 0.6133,-56.2148 0.1114,-2.801 0.6683,-5.5251 1.5742,-8.1133 z"
     id="path17538" /><path
     style="color:#000000;clip-rule:nonzero;fill:#000000;fill-rule:nonzero;stroke-linecap:butt;stroke-linejoin:miter;-inkscape-stroke:none"
     d="m -3255.5059,1526.7778 a 1.0226212,2.2573632 69.403323 0 0 -2.9277,1.2442 1.0226212,2.2573632 69.403323 0 0 0.7832,1.2421 1.0226212,2.2573632 69.403323 0 0 2.9277,-1.2421 1.0226212,2.2573632 69.403323 0 0 -0.7832,-1.2442 z"
     id="path17534" /><path
     style="color:#000000;clip-rule:nonzero;fill:#000000;fill-rule:nonzero;stroke-linecap:butt;stroke-linejoin:miter;-inkscape-stroke:none"
     d="m -3249.4785,1524.7349 a 1.0226212,2.2573632 69.403323 0 0 -2.9277,1.2441 1.0226212,2.2573632 69.403323 0 0 0.7832,1.2441 1.0226212,2.2573632 69.403323 0 0 2.9296,-1.2441 1.0226212,2.2573632 69.403323 0 0 -0.7851,-1.2441 z"
     id="path17532" /><path
     style="color:#000000;clip-rule:nonzero;fill:#000000;fill-rule:nonzero;stroke-linecap:butt;stroke-linejoin:miter;-inkscape-stroke:none"
     d="m -3261.0469,1524.3462 a 1.0226212,2.2573632 69.403323 0 0 -2.9297,1.2441 1.0226212,2.2573632 69.403323 0 0 0.7852,1.2442 1.0226212,2.2573632 69.403323 0 0 2.9277,-1.2442 1.0226212,2.2573632 69.403323 0 0 -0.7832,-1.2441 z"
     id="path17530" /><path
     style="color:#000000;clip-rule:nonzero;fill:#000000;fill-rule:nonzero;stroke-linecap:butt;stroke-linejoin:miter;-inkscape-stroke:none"
     d="m -3267.8555,1524.0669 a 1.0226212,2.2573632 69.403323 0 0 -2.9277,1.2441 1.0226212,2.2573632 69.403323 0 0 0.7832,1.2442 1.0226212,2.2573632 69.403323 0 0 2.9297,-1.2442 1.0226212,2.2573632 69.403323 0 0 -0.7852,-1.2441 z"
     id="path17528" /><path
     style="color:#000000;clip-rule:nonzero;fill:#000000;fill-rule:nonzero;stroke-linecap:butt;stroke-linejoin:miter;-inkscape-stroke:none"
     d="m -3238.3926,1522.0141 a 1.0226212,2.2573632 69.403323 0 0 -2.9277,1.2422 1.0226212,2.2573632 69.403323 0 0 0.7832,1.2442 1.0226212,2.2573632 69.403323 0 0 2.9277,-1.2442 1.0226212,2.2573632 69.403323 0 0 -0.7832,-1.2422 z"
     id="path17524" /><path
     style="color:#000000;clip-rule:nonzero;fill:#000000;fill-rule:nonzero;stroke-linecap:butt;stroke-linejoin:miter;-inkscape-stroke:none"
     d="m -3245.2969,1521.7212 a 1.0226212,2.2573632 69.403323 0 0 -2.9277,1.2441 1.0226212,2.2573632 69.403323 0 0 0.7832,1.2442 1.0226212,2.2573632 69.403323 0 0 2.9277,-1.2442 1.0226212,2.2573632 69.403323 0 0 -0.7832,-1.2441 z"
     id="path17522" /><path
     style="color:#000000;clip-rule:nonzero;fill:#000000;fill-rule:nonzero;stroke-linecap:butt;stroke-linejoin:miter;-inkscape-stroke:none"
     d="m -3253.8535,1521.4302 a 1.0226212,2.2573632 69.403323 0 0 -2.9277,1.2422 1.0226212,2.2573632 69.403323 0 0 0.7832,1.2441 1.0226212,2.2573632 69.403323 0 0 2.9296,-1.2441 1.0226212,2.2573632 69.403323 0 0 -0.7851,-1.2422 z"
     id="path17520" /><path
     style="color:#000000;clip-rule:nonzero;fill:#000000;fill-rule:nonzero;stroke-linecap:butt;stroke-linejoin:miter;-inkscape-stroke:none"
     d="m -3274.3691,1520.7622 a 1.0226212,2.2573632 69.403323 0 0 -2.9278,1.2422 1.0226212,2.2573632 69.403323 0 0 0.7832,1.2441 1.0226212,2.2573632 69.403323 0 0 2.9297,-1.2441 1.0226212,2.2573632 69.403323 0 0 -0.7851,-1.2422 z"
     id="path17518" /><path
     style="color:#000000;clip-rule:nonzero;fill:#000000;fill-rule:nonzero;stroke-linecap:butt;stroke-linejoin:miter;-inkscape-stroke:none"
     d="m -3259.3945,1520.0688 a 1.0226212,2.2573632 69.403323 0 0 -2.9278,1.2442 1.0226212,2.2573632 69.403323 0 0 0.7832,1.2422 1.0226212,2.2573632 69.403323 0 0 2.9278,-1.2422 1.0226212,2.2573632 69.403323 0 0 -0.7832,-1.2442 z"
     id="path17516" /><path
     style="color:#000000;clip-rule:nonzero;fill:#000000;fill-rule:nonzero;stroke-linecap:butt;stroke-linejoin:miter;-inkscape-stroke:none"
     d="m -3264.6465,1519.6919 a 1.0226212,2.2573632 69.403323 0 0 -2.9277,1.2441 1.0226212,2.2573632 69.403323 0 0 0.7832,1.2442 1.0226212,2.2573632 69.403323 0 0 2.9297,-1.2442 1.0226212,2.2573632 69.403323 0 0 -0.7852,-1.2441 z"
     id="path17514" /><path
     style="color:#000000;clip-rule:nonzero;fill:#000000;fill-rule:nonzero;stroke-linecap:butt;stroke-linejoin:miter;-inkscape-stroke:none"
     d="m -3240.9199,1518.8052 a 1.0226212,2.2573632 69.403323 0 0 -2.9297,1.2422 1.0226212,2.2573632 69.403323 0 0 0.7851,1.2441 1.0226212,2.2573632 69.403323 0 0 2.9278,-1.2441 1.0226212,2.2573632 69.403323 0 0 -0.7832,-1.2422 z"
     id="path17512" /><path
     style="color:#000000;clip-rule:nonzero;fill:#000000;fill-rule:nonzero;stroke-linecap:butt;stroke-linejoin:miter;-inkscape-stroke:none"
     d="m -3248.7969,1518.7075 a 1.0226212,2.2573632 69.403323 0 0 -2.9277,1.2442 1.0226212,2.2573632 69.403323 0 0 0.7832,1.2441 1.0226212,2.2573632 69.403323 0 0 2.9277,-1.2441 1.0226212,2.2573632 69.403323 0 0 -0.7832,-1.2442 z"
     id="path17510" /><path
     style="color:#000000;clip-rule:nonzero;fill:#000000;fill-rule:nonzero;stroke-linecap:butt;stroke-linejoin:miter;-inkscape-stroke:none"
     d="m -3234.0176,1517.8325 a 1.0226212,2.2573632 69.403323 0 0 -2.9277,1.2442 1.0226212,2.2573632 69.403323 0 0 0.7832,1.2441 1.0226212,2.2573632 69.403323 0 0 2.9277,-1.2441 1.0226212,2.2573632 69.403323 0 0 -0.7832,-1.2442 z"
     id="path17508" /><path
     style="color:#000000;clip-rule:nonzero;fill:#000000;fill-rule:nonzero;stroke-linecap:butt;stroke-linejoin:miter;-inkscape-stroke:none"
     d="m -3268.7305,1517.4556 a 1.0226212,2.2573632 69.403323 0 0 -2.9277,1.2441 1.0226212,2.2573632 69.403323 0 0 0.7832,1.2441 1.0226212,2.2573632 69.403323 0 0 2.9297,-1.2441 1.0226212,2.2573632 69.403323 0 0 -0.7852,-1.2441 z"
     id="path17506" /><path
     style="color:#000000;clip-rule:nonzero;fill:#000000;fill-rule:nonzero;stroke-linecap:butt;stroke-linejoin:miter;-inkscape-stroke:none"
     d="m -3282.0508,1517.0669 a 1.0226212,2.2573632 69.403323 0 0 -2.9277,1.2441 1.0226212,2.2573632 69.403323 0 0 0.7832,1.2422 1.0226212,2.2573632 69.403323 0 0 2.9277,-1.2422 1.0226212,2.2573632 69.403323 0 0 -0.7832,-1.2441 z"
     id="path17504" /><path
     style="color:#000000;clip-rule:nonzero;fill:#000000;fill-rule:nonzero;stroke-linecap:butt;stroke-linejoin:miter;-inkscape-stroke:none"
     d="m -3275.9238,1516.1919 a 1.0226212,2.2573632 69.403323 0 0 -2.9297,1.2441 1.0226212,2.2573632 69.403323 0 0 0.7851,1.2422 1.0226212,2.2573632 69.403323 0 0 2.9278,-1.2422 1.0226212,2.2573632 69.403323 0 0 -0.7832,-1.2441 z"
     id="path17502" /><path
     style="color:#000000;clip-rule:nonzero;fill:#000000;fill-rule:nonzero;stroke-linecap:butt;stroke-linejoin:miter;-inkscape-stroke:none"
     d="m -3224.3906,1515.9849 a 1.0226212,2.2573632 69.403323 0 0 -2.9297,1.2441 1.0226212,2.2573632 69.403323 0 0 0.7851,1.2422 1.0226212,2.2573632 69.403323 0 0 2.9278,-1.2422 1.0226212,2.2573632 69.403323 0 0 -0.7832,-1.2441 z"
     id="path17500" /><path
     style="color:#000000;clip-rule:nonzero;fill:#000000;fill-rule:nonzero;stroke-linecap:butt;stroke-linejoin:miter;-inkscape-stroke:none"
     d="m -3256.7695,1515.9849 a 1.0226212,2.2573632 69.403323 0 0 -2.9278,1.2441 1.0226212,2.2573632 69.403323 0 0 0.7832,1.2422 1.0226212,2.2573632 69.403323 0 0 2.9278,-1.2422 1.0226212,2.2573632 69.403323 0 0 -0.7832,-1.2441 z"
     id="path17498" /><path
     style="color:#000000;clip-rule:nonzero;fill:#000000;fill-rule:nonzero;stroke-linecap:butt;stroke-linejoin:miter;-inkscape-stroke:none"
     d="m -3250.4492,1515.6919 a 1.0226212,2.2573632 69.403323 0 0 -2.9278,1.2441 1.0226212,2.2573632 69.403323 0 0 0.7832,1.2442 1.0226212,2.2573632 69.403323 0 0 2.9278,-1.2442 1.0226212,2.2573632 69.403323 0 0 -0.7832,-1.2441 z"
     id="path17496" /><path
     style="color:#000000;clip-rule:nonzero;fill:#000000;fill-rule:nonzero;stroke-linecap:butt;stroke-linejoin:miter;-inkscape-stroke:none"
     d="m -3242.7695,1515.1099 a 1.0226212,2.2573632 69.403323 0 0 -2.9278,1.2441 1.0226212,2.2573632 69.403323 0 0 0.7832,1.2422 1.0226212,2.2573632 69.403323 0 0 2.9297,-1.2422 1.0226212,2.2573632 69.403323 0 0 -0.7851,-1.2441 z"
     id="path17494" /><path
     style="color:#000000;clip-rule:nonzero;fill:#000000;fill-rule:nonzero;stroke-linecap:butt;stroke-linejoin:miter;-inkscape-stroke:none"
     d="m -3262.7988,1514.9282 a 1.0226212,2.2573632 69.403323 0 0 -2.9278,1.2422 1.0226212,2.2573632 69.403323 0 0 0.7832,1.2441 1.0226212,2.2573632 69.403323 0 0 2.9278,-1.2441 1.0226212,2.2573632 69.403323 0 0 -0.7832,-1.2422 z"
     id="path17492" /><path
     style="color:#000000;clip-rule:nonzero;fill:#000000;fill-rule:nonzero;stroke-linecap:butt;stroke-linejoin:miter;-inkscape-stroke:none"
     d="m -3290.2168,1514.8306 a 1.0226212,2.2573632 69.403323 0 0 -2.9297,1.2441 1.0226212,2.2573632 69.403323 0 0 0.7852,1.2441 1.0226212,2.2573632 69.403323 0 0 2.9277,-1.2441 1.0226212,2.2573632 69.403323 0 0 -0.7832,-1.2441 z"
     id="path17490" /><path
     style="color:#000000;clip-rule:nonzero;fill:#000000;fill-rule:nonzero;stroke-linecap:butt;stroke-linejoin:miter;-inkscape-stroke:none"
     d="m -3235.6699,1514.7212 a 1.0226212,2.2573632 69.403323 0 0 -2.9297,1.2422 1.0226212,2.2573632 69.403323 0 0 0.7851,1.2441 1.0226212,2.2573632 69.403323 0 0 2.9278,-1.2441 1.0226212,2.2573632 69.403323 0 0 -0.7832,-1.2422 z"
     id="path17488" /><path
     style="color:#000000;clip-rule:nonzero;fill:#000000;fill-rule:nonzero;stroke-linecap:butt;stroke-linejoin:miter;-inkscape-stroke:none"
     d="m -3229.9336,1514.6235 a 1.0226212,2.2573632 69.403323 0 0 -2.9277,1.2442 1.0226212,2.2573632 69.403323 0 0 0.7832,1.2441 1.0226212,2.2573632 69.403323 0 0 2.9277,-1.2441 1.0226212,2.2573632 69.403323 0 0 -0.7832,-1.2442 z"
     id="path17486" /><path
     style="color:#000000;clip-rule:nonzero;fill:#000000;fill-rule:nonzero;stroke-linecap:butt;stroke-linejoin:miter;-inkscape-stroke:none"
     d="m -3268.8262,1513.6626 a 1.0226212,2.2573632 69.403323 0 0 -2.9277,1.2441 1.0226212,2.2573632 69.403323 0 0 0.7832,1.2442 1.0226212,2.2573632 69.403323 0 0 2.9277,-1.2442 1.0226212,2.2573632 69.403323 0 0 -0.7832,-1.2441 z"
     id="path17484" /><path
     style="color:#000000;clip-rule:nonzero;fill:#000000;fill-rule:nonzero;stroke-linecap:butt;stroke-linejoin:miter;-inkscape-stroke:none"
     d="m -3297.5098,1512.9829 a 1.0226212,2.2573632 69.403323 0 0 -2.9277,1.2441 1.0226212,2.2573632 69.403323 0 0 0.7832,1.2442 1.0226212,2.2573632 69.403323 0 0 2.9277,-1.2442 1.0226212,2.2573632 69.403323 0 0 -0.7832,-1.2441 z"
     id="path17482" /><path
     style="color:#000000;clip-rule:nonzero;fill:#000000;fill-rule:nonzero;stroke-linecap:butt;stroke-linejoin:miter;-inkscape-stroke:none"
     d="m -3247.9219,1512.6782 a 1.0226212,2.2573632 69.403323 0 0 -2.9277,1.2442 1.0226212,2.2573632 69.403323 0 0 0.7832,1.2441 1.0226212,2.2573632 69.403323 0 0 2.9277,-1.2441 1.0226212,2.2573632 69.403323 0 0 -0.7832,-1.2442 z"
     id="path17480" /><path
     style="color:#000000;clip-rule:nonzero;fill:#000000;fill-rule:nonzero;stroke-linecap:butt;stroke-linejoin:miter;-inkscape-stroke:none"
     d="m -3214.377,1511.8032 a 1.0226212,2.2573632 69.403323 0 0 -2.9277,1.2442 1.0226212,2.2573632 69.403323 0 0 0.7832,1.2441 1.0226212,2.2573632 69.403323 0 0 2.9277,-1.2441 1.0226212,2.2573632 69.403323 0 0 -0.7832,-1.2442 z"
     id="path17478" /><path
     style="color:#000000;clip-rule:nonzero;fill:#000000;fill-rule:nonzero;stroke-linecap:butt;stroke-linejoin:miter;-inkscape-stroke:none"
     d="m -3283.4121,1511.6216 a 1.0226212,2.2573632 69.403323 0 0 -2.9277,1.2441 1.0226212,2.2573632 69.403323 0 0 0.7832,1.2442 1.0226212,2.2573632 69.403323 0 0 2.9296,-1.2442 1.0226212,2.2573632 69.403323 0 0 -0.7851,-1.2441 z"
     id="path17476" /><path
     style="color:#000000;clip-rule:nonzero;fill:#000000;fill-rule:nonzero;stroke-linecap:butt;stroke-linejoin:miter;-inkscape-stroke:none"
     d="m -3275.4395,1511.2329 a 1.0226212,2.2573632 69.403323 0 0 -2.9277,1.2441 1.0226212,2.2573632 69.403323 0 0 0.7832,1.2442 1.0226212,2.2573632 69.403323 0 0 2.9297,-1.2442 1.0226212,2.2573632 69.403323 0 0 -0.7852,-1.2441 z"
     id="path17474" /><path
     style="color:#000000;clip-rule:nonzero;fill:#000000;fill-rule:nonzero;stroke-linecap:butt;stroke-linejoin:miter;-inkscape-stroke:none"
     d="m -3227.2109,1511.2212 a 1.0226212,2.2573632 69.403323 0 0 -2.9278,1.2422 1.0226212,2.2573632 69.403323 0 0 0.7832,1.2441 1.0226212,2.2573632 69.403323 0 0 2.9278,-1.2441 1.0226212,2.2573632 69.403323 0 0 -0.7832,-1.2422 z"
     id="path17472" /><path
     style="color:#000000;clip-rule:nonzero;fill:#000000;fill-rule:nonzero;stroke-linecap:butt;stroke-linejoin:miter;-inkscape-stroke:none"
     d="m -3235.6699,1510.9282 a 1.0226212,2.2573632 69.403323 0 0 -2.9297,1.2442 1.0226212,2.2573632 69.403323 0 0 0.7851,1.2441 1.0226212,2.2573632 69.403323 0 0 2.9278,-1.2441 1.0226212,2.2573632 69.403323 0 0 -0.7832,-1.2442 z"
     id="path17470" /><path
     style="color:#000000;clip-rule:nonzero;fill:#000000;fill-rule:nonzero;stroke-linecap:butt;stroke-linejoin:miter;-inkscape-stroke:none"
     d="m -3257.0625,1510.9282 a 1.0226212,2.2573632 69.403323 0 0 -2.9277,1.2442 1.0226212,2.2573632 69.403323 0 0 0.7832,1.2441 1.0226212,2.2573632 69.403323 0 0 2.9297,-1.2441 1.0226212,2.2573632 69.403323 0 0 -0.7852,-1.2442 z"
     id="path17468" /><path
     style="color:#000000;clip-rule:nonzero;fill:#000000;fill-rule:nonzero;stroke-linecap:butt;stroke-linejoin:miter;-inkscape-stroke:none"
     d="m -3220.0156,1510.6372 a 1.0226212,2.2573632 69.403323 0 0 -2.9278,1.2422 1.0226212,2.2573632 69.403323 0 0 0.7832,1.2441 1.0226212,2.2573632 69.403323 0 0 2.9278,-1.2441 1.0226212,2.2573632 69.403323 0 0 -0.7832,-1.2422 z"
     id="path17466" /><path
     style="color:#000000;clip-rule:nonzero;fill:#000000;fill-rule:nonzero;stroke-linecap:butt;stroke-linejoin:miter;-inkscape-stroke:none"
     d="m -3251.8105,1510.5395 a 1.0226212,2.2573632 69.403323 0 0 -2.9278,1.2442 1.0226212,2.2573632 69.403323 0 0 0.7832,1.2441 1.0226212,2.2573632 69.403323 0 0 2.9278,-1.2441 1.0226212,2.2573632 69.403323 0 0 -0.7832,-1.2442 z"
     id="path17464" /><path
     style="color:#000000;clip-rule:nonzero;fill:#000000;fill-rule:nonzero;stroke-linecap:butt;stroke-linejoin:miter;-inkscape-stroke:none"
     d="m -3241.8945,1510.3462 a 1.0226212,2.2573632 69.403323 0 0 -2.9278,1.2422 1.0226212,2.2573632 69.403323 0 0 0.7832,1.2441 1.0226212,2.2573632 69.403323 0 0 2.9297,-1.2441 1.0226212,2.2573632 69.403323 0 0 -0.7851,-1.2422 z"
     id="path17462" /><path
     style="color:#000000;clip-rule:nonzero;fill:#000000;fill-rule:nonzero;stroke-linecap:butt;stroke-linejoin:miter;-inkscape-stroke:none"
     d="m -3262.1172,1510.2602 a 1.0226212,2.2573632 69.403323 0 0 -2.9277,1.2442 1.0226212,2.2573632 69.403323 0 0 0.7832,1.2441 1.0226212,2.2573632 69.403323 0 0 2.9277,-1.2441 1.0226212,2.2573632 69.403323 0 0 -0.7832,-1.2442 z"
     id="path17460" /><path
     style="color:#000000;clip-rule:nonzero;fill:#000000;fill-rule:nonzero;stroke-linecap:butt;stroke-linejoin:miter;-inkscape-stroke:none"
     d="m -3290.1211,1510.0669 a 1.0226212,2.2573632 69.403323 0 0 -2.9277,1.2441 1.0226212,2.2573632 69.403323 0 0 0.7832,1.2422 1.0226212,2.2573632 69.403323 0 0 2.9297,-1.2422 1.0226212,2.2573632 69.403323 0 0 -0.7852,-1.2441 z"
     id="path17458" /><path
     style="color:#000000;clip-rule:nonzero;fill:#000000;fill-rule:nonzero;stroke-linecap:butt;stroke-linejoin:miter;-inkscape-stroke:none"
     d="m -3268.3398,1509.3852 a 1.0226212,2.2573632 69.403323 0 0 -2.9297,1.2442 1.0226212,2.2573632 69.403323 0 0 0.7851,1.2441 1.0226212,2.2573632 69.403323 0 0 2.9278,-1.2441 1.0226212,2.2573632 69.403323 0 0 -0.7832,-1.2442 z"
     id="path17456" /><path
     style="color:#000000;clip-rule:nonzero;fill:#000000;fill-rule:nonzero;stroke-linecap:butt;stroke-linejoin:miter;-inkscape-stroke:none"
     d="m -3207.8613,1509.3716 a 1.0226212,2.2573632 69.403323 0 0 -2.9278,1.2441 1.0226212,2.2573632 69.403323 0 0 0.7832,1.2442 1.0226212,2.2573632 69.403323 0 0 2.9278,-1.2442 1.0226212,2.2573632 69.403323 0 0 -0.7832,-1.2441 z"
     id="path17454" /><path
     style="color:#000000;clip-rule:nonzero;fill:#000000;fill-rule:nonzero;stroke-linecap:butt;stroke-linejoin:miter;-inkscape-stroke:none"
     d="m -3231.6836,1507.8169 a 1.0226212,2.2573632 69.403323 0 0 -2.9277,1.2441 1.0226212,2.2573632 69.403323 0 0 0.7832,1.2442 1.0226212,2.2573632 69.403323 0 0 2.9277,-1.2442 1.0226212,2.2573632 69.403323 0 0 -0.7832,-1.2441 z"
     id="path17452" /><path
     style="color:#000000;clip-rule:nonzero;fill:#000000;fill-rule:nonzero;stroke-linecap:butt;stroke-linejoin:miter;-inkscape-stroke:none"
     d="m -3238.0039,1507.7192 a 1.0226212,2.2573632 69.403323 0 0 -2.9277,1.2442 1.0226212,2.2573632 69.403323 0 0 0.7832,1.2441 1.0226212,2.2573632 69.403323 0 0 2.9277,-1.2441 1.0226212,2.2573632 69.403323 0 0 -0.7832,-1.2442 z"
     id="path17450" /><path
     style="color:#000000;clip-rule:nonzero;fill:#000000;fill-rule:nonzero;stroke-linecap:butt;stroke-linejoin:miter;-inkscape-stroke:none"
     d="m -3224.1973,1507.3306 a 1.0226212,2.2573632 69.403323 0 0 -2.9277,1.2441 1.0226212,2.2573632 69.403323 0 0 0.7832,1.2441 1.0226212,2.2573632 69.403323 0 0 2.9297,-1.2441 1.0226212,2.2573632 69.403323 0 0 -0.7852,-1.2441 z"
     id="path17448" /><path
     style="color:#000000;clip-rule:nonzero;fill:#000000;fill-rule:nonzero;stroke-linecap:butt;stroke-linejoin:miter;-inkscape-stroke:none"
     d="m -3215.9316,1507.0395 a 1.0226212,2.2573632 69.403323 0 0 -2.9297,1.2442 1.0226212,2.2573632 69.403323 0 0 0.7851,1.2441 1.0226212,2.2573632 69.403323 0 0 2.9278,-1.2441 1.0226212,2.2573632 69.403323 0 0 -0.7832,-1.2442 z"
     id="path17446" /><path
     style="color:#000000;clip-rule:nonzero;fill:#000000;fill-rule:nonzero;stroke-linecap:butt;stroke-linejoin:miter;-inkscape-stroke:none"
     d="m -3247.1445,1506.8442 a 1.0226212,2.2573632 69.403323 0 0 -2.9278,1.2442 1.0226212,2.2573632 69.403323 0 0 0.7832,1.2441 1.0226212,2.2573632 69.403323 0 0 2.9297,-1.2441 1.0226212,2.2573632 69.403323 0 0 -0.7851,-1.2442 z"
     id="path17444" /><path
     style="color:#000000;clip-rule:nonzero;fill:#000000;fill-rule:nonzero;stroke-linecap:butt;stroke-linejoin:miter;-inkscape-stroke:none"
     d="m -3278.2578,1506.6626 a 1.0226212,2.2573632 69.403323 0 0 -2.9277,1.2441 1.0226212,2.2573632 69.403323 0 0 0.7832,1.2442 1.0226212,2.2573632 69.403323 0 0 2.9277,-1.2442 1.0226212,2.2573632 69.403323 0 0 -0.7832,-1.2441 z"
     id="path17442" /><path
     style="color:#000000;clip-rule:nonzero;fill:#000000;fill-rule:nonzero;stroke-linecap:butt;stroke-linejoin:miter;-inkscape-stroke:none"
     d="m -3201.25,1505.9692 a 1.0226212,2.2573632 69.403323 0 0 -2.9277,1.2442 1.0226212,2.2573632 69.403323 0 0 0.7832,1.2441 1.0226212,2.2573632 69.403323 0 0 2.9297,-1.2441 1.0226212,2.2573632 69.403323 0 0 -0.7852,-1.2442 z"
     id="path17440" /><path
     style="color:#000000;clip-rule:nonzero;fill:#000000;fill-rule:nonzero;stroke-linecap:butt;stroke-linejoin:miter;-inkscape-stroke:none"
     d="m -3254.3379,1505.9692 a 1.0226212,2.2573632 69.403323 0 0 -2.9297,1.2442 1.0226212,2.2573632 69.403323 0 0 0.7852,1.2441 1.0226212,2.2573632 69.403323 0 0 2.9277,-1.2441 1.0226212,2.2573632 69.403323 0 0 -0.7832,-1.2442 z"
     id="path17438" /><path
     style="color:#000000;clip-rule:nonzero;fill:#000000;fill-rule:nonzero;stroke-linecap:butt;stroke-linejoin:miter;-inkscape-stroke:none"
     d="m -3263.1875,1505.6899 a 1.0226212,2.2573632 69.403323 0 0 -2.9277,1.2442 1.0226212,2.2573632 69.403323 0 0 0.7832,1.2441 1.0226212,2.2573632 69.403323 0 0 2.9297,-1.2441 1.0226212,2.2573632 69.403323 0 0 -0.7852,-1.2442 z"
     id="path17436" /><path
     style="color:#000000;clip-rule:nonzero;fill:#000000;fill-rule:nonzero;stroke-linecap:butt;stroke-linejoin:miter;-inkscape-stroke:none"
     d="m -3273.2988,1505.6899 a 1.0226212,2.2573632 69.403323 0 0 -2.9297,1.2442 1.0226212,2.2573632 69.403323 0 0 0.7851,1.2441 1.0226212,2.2573632 69.403323 0 0 2.9278,-1.2441 1.0226212,2.2573632 69.403323 0 0 -0.7832,-1.2442 z"
     id="path17434" /><path
     style="color:#000000;clip-rule:nonzero;fill:#000000;fill-rule:nonzero;stroke-linecap:butt;stroke-linejoin:miter;-inkscape-stroke:none"
     d="m -3242.1855,1505.3872 a 1.0226212,2.2573632 69.403323 0 0 -2.9278,1.2422 1.0226212,2.2573632 69.403323 0 0 0.7852,1.2441 1.0226212,2.2573632 69.403323 0 0 2.9277,-1.2441 1.0226212,2.2573632 69.403323 0 0 -0.7851,-1.2422 z"
     id="path17432" /><path
     style="color:#000000;clip-rule:nonzero;fill:#000000;fill-rule:nonzero;stroke-linecap:butt;stroke-linejoin:miter;-inkscape-stroke:none"
     d="m -3206.793,1505.2895 a 1.0226212,2.2573632 69.403323 0 0 -2.9277,1.2442 1.0226212,2.2573632 69.403323 0 0 0.7832,1.2441 1.0226212,2.2573632 69.403323 0 0 2.9277,-1.2441 1.0226212,2.2573632 69.403323 0 0 -0.7832,-1.2442 z"
     id="path17430" /><path
     style="color:#000000;clip-rule:nonzero;fill:#000000;fill-rule:nonzero;stroke-linecap:butt;stroke-linejoin:miter;-inkscape-stroke:none"
     d="m -3193.8613,1504.7056 a 1.0226212,2.2573632 69.403323 0 0 -2.9278,1.2441 1.0226212,2.2573632 69.403323 0 0 0.7832,1.2441 1.0226212,2.2573632 69.403323 0 0 2.9297,-1.2441 1.0226212,2.2573632 69.403323 0 0 -0.7851,-1.2441 z"
     id="path17426" /><path
     style="color:#000000;clip-rule:nonzero;fill:#000000;fill-rule:nonzero;stroke-linecap:butt;stroke-linejoin:miter;-inkscape-stroke:none"
     d="m -3230.9062,1504.6079 a 1.0226212,2.2573632 69.403323 0 0 -2.9278,1.2441 1.0226212,2.2573632 69.403323 0 0 0.7832,1.2442 1.0226212,2.2573632 69.403323 0 0 2.9297,-1.2442 1.0226212,2.2573632 69.403323 0 0 -0.7851,-1.2441 z"
     id="path17424" /><path
     style="color:#000000;clip-rule:nonzero;fill:#000000;fill-rule:nonzero;stroke-linecap:butt;stroke-linejoin:miter;-inkscape-stroke:none"
     d="m -3210.7793,1504.4145 a 1.0226212,2.2573632 69.403323 0 0 -2.9277,1.2442 1.0226212,2.2573632 69.403323 0 0 0.7832,1.2441 1.0226212,2.2573632 69.403323 0 0 2.9297,-1.2441 1.0226212,2.2573632 69.403323 0 0 -0.7852,-1.2442 z"
     id="path17422" /><path
     style="color:#000000;clip-rule:nonzero;fill:#000000;fill-rule:nonzero;stroke-linecap:butt;stroke-linejoin:miter;-inkscape-stroke:none"
     d="m -3236.7402,1504.0259 a 1.0226212,2.2573632 69.403323 0 0 -2.9278,1.2441 1.0226212,2.2573632 69.403323 0 0 0.7832,1.2422 1.0226212,2.2573632 69.403323 0 0 2.9297,-1.2422 1.0226212,2.2573632 69.403323 0 0 -0.7851,-1.2441 z"
     id="path17420" /><path
     style="color:#000000;clip-rule:nonzero;fill:#000000;fill-rule:nonzero;stroke-linecap:butt;stroke-linejoin:miter;-inkscape-stroke:none"
     d="m -3257.3535,1503.4536 a 1.0226212,2.2573632 69.403323 0 0 -2.9277,1.2441 1.0226212,2.2573632 69.403323 0 0 0.7832,1.2442 1.0226212,2.2573632 69.403323 0 0 2.9277,-1.2442 1.0226212,2.2573632 69.403323 0 0 -0.7832,-1.2441 z"
     id="path17418" /><path
     style="color:#000000;clip-rule:nonzero;fill:#000000;fill-rule:nonzero;stroke-linecap:butt;stroke-linejoin:miter;-inkscape-stroke:none"
     d="m -3225.1699,1503.2466 a 1.0226212,2.2573632 69.403323 0 0 -2.9278,1.2441 1.0226212,2.2573632 69.403323 0 0 0.7832,1.2442 1.0226212,2.2573632 69.403323 0 0 2.9278,-1.2442 1.0226212,2.2573632 69.403323 0 0 -0.7832,-1.2441 z"
     id="path17416" /><path
     style="color:#000000;clip-rule:nonzero;fill:#000000;fill-rule:nonzero;stroke-linecap:butt;stroke-linejoin:miter;-inkscape-stroke:none"
     d="m -3219.7246,1502.8579 a 1.0226212,2.2573632 69.403323 0 0 -2.9277,1.2441 1.0226212,2.2573632 69.403323 0 0 0.7832,1.2442 1.0226212,2.2573632 69.403323 0 0 2.9277,-1.2442 1.0226212,2.2573632 69.403323 0 0 -0.7832,-1.2441 z"
     id="path17414" /><path
     style="color:#000000;clip-rule:nonzero;fill:#000000;fill-rule:nonzero;stroke-linecap:butt;stroke-linejoin:miter;-inkscape-stroke:none"
     d="m -3265.4238,1502.4829 a 1.0226212,2.2573632 69.403323 0 0 -2.9278,1.2441 1.0226212,2.2573632 69.403323 0 0 0.7832,1.2422 1.0226212,2.2573632 69.403323 0 0 2.9278,-1.2422 1.0226212,2.2573632 69.403323 0 0 -0.7832,-1.2441 z"
     id="path17412" /><path
     style="color:#000000;clip-rule:nonzero;fill:#000000;fill-rule:nonzero;stroke-linecap:butt;stroke-linejoin:miter;-inkscape-stroke:none"
     d="m -3201.541,1502.4692 a 1.0226212,2.2573632 69.403323 0 0 -2.9297,1.2442 1.0226212,2.2573632 69.403323 0 0 0.7852,1.2441 1.0226212,2.2573632 69.403323 0 0 2.9277,-1.2441 1.0226212,2.2573632 69.403323 0 0 -0.7832,-1.2442 z"
     id="path17410" /><path
     style="color:#000000;clip-rule:nonzero;fill:#000000;fill-rule:nonzero;stroke-linecap:butt;stroke-linejoin:miter;-inkscape-stroke:none"
     d="m -3195.9023,1502.3716 a 1.0226212,2.2573632 69.403323 0 0 -2.9278,1.2441 1.0226212,2.2573632 69.403323 0 0 0.7832,1.2442 1.0226212,2.2573632 69.403323 0 0 2.9278,-1.2442 1.0226212,2.2573632 69.403323 0 0 -0.7832,-1.2441 z"
     id="path17408" /><path
     style="color:#000000;clip-rule:nonzero;fill:#000000;fill-rule:nonzero;stroke-linecap:butt;stroke-linejoin:miter;-inkscape-stroke:none"
     d="m -3187.7344,1502.0806 a 1.0226212,2.2573632 69.403323 0 0 -2.9277,1.2441 1.0226212,2.2573632 69.403323 0 0 0.7832,1.2441 1.0226212,2.2573632 69.403323 0 0 2.9277,-1.2441 1.0226212,2.2573632 69.403323 0 0 -0.7832,-1.2441 z"
     id="path17406" /><path
     style="color:#000000;clip-rule:nonzero;fill:#000000;fill-rule:nonzero;stroke-linecap:butt;stroke-linejoin:miter;-inkscape-stroke:none"
     d="m -3250.7422,1501.9829 a 1.0226212,2.2573632 69.403323 0 0 -2.9277,1.2441 1.0226212,2.2573632 69.403323 0 0 0.7832,1.2442 1.0226212,2.2573632 69.403323 0 0 2.9297,-1.2442 1.0226212,2.2573632 69.403323 0 0 -0.7852,-1.2441 z"
     id="path17404" /><path
     style="color:#000000;clip-rule:nonzero;fill:#000000;fill-rule:nonzero;stroke-linecap:butt;stroke-linejoin:miter;-inkscape-stroke:none"
     d="m -3244.6152,1501.7876 a 1.0226212,2.2573632 69.403323 0 0 -2.9278,1.2441 1.0226212,2.2573632 69.403323 0 0 0.7832,1.2442 1.0226212,2.2573632 69.403323 0 0 2.9278,-1.2442 1.0226212,2.2573632 69.403323 0 0 -0.7832,-1.2441 z"
     id="path17402" /><path
     style="color:#000000;clip-rule:nonzero;fill:#000000;fill-rule:nonzero;stroke-linecap:butt;stroke-linejoin:miter;-inkscape-stroke:none"
     d="m -3213.8906,1501.6919 a 1.0226212,2.2573632 69.403323 0 0 -2.9278,1.2441 1.0226212,2.2573632 69.403323 0 0 0.7832,1.2422 1.0226212,2.2573632 69.403323 0 0 2.9278,-1.2422 1.0226212,2.2573632 69.403323 0 0 -0.7832,-1.2441 z"
     id="path17400" /><path
     style="color:#000000;clip-rule:nonzero;fill:#000000;fill-rule:nonzero;stroke-linecap:butt;stroke-linejoin:miter;-inkscape-stroke:none"
     d="m -3271.4512,1501.6079 a 1.0226212,2.2573632 69.403323 0 0 -2.9277,1.2441 1.0226212,2.2573632 69.403323 0 0 0.7832,1.2422 1.0226212,2.2573632 69.403323 0 0 2.9277,-1.2422 1.0226212,2.2573632 69.403323 0 0 -0.7832,-1.2441 z"
     id="path17398" /><path
     style="color:#000000;clip-rule:nonzero;fill:#000000;fill-rule:nonzero;stroke-linecap:butt;stroke-linejoin:miter;-inkscape-stroke:none"
     d="m -3239.6562,1501.4966 a 1.0226212,2.2573632 69.403323 0 0 -2.9278,1.2441 1.0226212,2.2573632 69.403323 0 0 0.7832,1.2442 1.0226212,2.2573632 69.403323 0 0 2.9278,-1.2442 1.0226212,2.2573632 69.403323 0 0 -0.7832,-1.2441 z"
     id="path17396" /><path
     style="color:#000000;clip-rule:nonzero;fill:#000000;fill-rule:nonzero;stroke-linecap:butt;stroke-linejoin:miter;-inkscape-stroke:none"
     d="m -3232.5586,1501.1079 a 1.0226212,2.2573632 69.403323 0 0 -2.9277,1.2441 1.0226212,2.2573632 69.403323 0 0 0.7832,1.2442 1.0226212,2.2573632 69.403323 0 0 2.9277,-1.2442 1.0226212,2.2573632 69.403323 0 0 -0.7832,-1.2441 z"
     id="path17394" /><path
     style="color:#000000;clip-rule:nonzero;fill:#000000;fill-rule:nonzero;stroke-linecap:butt;stroke-linejoin:miter;-inkscape-stroke:none"
     d="m -3206.209,1501.0102 a 1.0226212,2.2573632 69.403323 0 0 -2.9277,1.2442 1.0226212,2.2573632 69.403323 0 0 0.7832,1.2441 1.0226212,2.2573632 69.403323 0 0 2.9297,-1.2441 1.0226212,2.2573632 69.403323 0 0 -0.7852,-1.2442 z"
     id="path17392" /><path
     style="color:#000000;clip-rule:nonzero;fill:#000000;fill-rule:nonzero;stroke-linecap:butt;stroke-linejoin:miter;-inkscape-stroke:none"
     d="m -3191.5273,1500.8169 a 1.0226212,2.2573632 69.403323 0 0 -2.9278,1.2441 1.0226212,2.2573632 69.403323 0 0 0.7832,1.2422 1.0226212,2.2573632 69.403323 0 0 2.9297,-1.2422 1.0226212,2.2573632 69.403323 0 0 -0.7851,-1.2441 z"
     id="path17390" /><path
     style="color:#000000;clip-rule:nonzero;fill:#000000;fill-rule:nonzero;stroke-linecap:butt;stroke-linejoin:miter;-inkscape-stroke:none"
     d="m -3180.0527,1500.2329 a 1.0226212,2.2573632 69.403323 0 0 -2.9297,1.2441 1.0226212,2.2573632 69.403323 0 0 0.7851,1.2442 1.0226212,2.2573632 69.403323 0 0 2.9278,-1.2442 1.0226212,2.2573632 69.403323 0 0 -0.7832,-1.2441 z"
     id="path17388" /><path
     style="color:#000000;clip-rule:nonzero;fill:#000000;fill-rule:nonzero;stroke-linecap:butt;stroke-linejoin:miter;-inkscape-stroke:none"
     d="m -3226.1406,1500.0376 a 1.0226212,2.2573632 69.403323 0 0 -2.9297,1.2441 1.0226212,2.2573632 69.403323 0 0 0.7851,1.2442 1.0226212,2.2573632 69.403323 0 0 2.9278,-1.2442 1.0226212,2.2573632 69.403323 0 0 -0.7832,-1.2441 z"
     id="path17386" /><path
     style="color:#000000;clip-rule:nonzero;fill:#000000;fill-rule:nonzero;stroke-linecap:butt;stroke-linejoin:miter;-inkscape-stroke:none"
     d="m -3257.6445,1499.8559 a 1.0226212,2.2573632 69.403323 0 0 -2.9278,1.2442 1.0226212,2.2573632 69.403323 0 0 0.7832,1.2441 1.0226212,2.2573632 69.403323 0 0 2.9278,-1.2441 1.0226212,2.2573632 69.403323 0 0 -0.7832,-1.2442 z"
     id="path17384" /><path
     style="color:#000000;clip-rule:nonzero;fill:#000000;fill-rule:nonzero;stroke-linecap:butt;stroke-linejoin:miter;-inkscape-stroke:none"
     d="m -3264.1602,1499.3696 a 1.0226212,2.2573632 69.403323 0 0 -2.9277,1.2442 1.0226212,2.2573632 69.403323 0 0 0.7832,1.2441 1.0226212,2.2573632 69.403323 0 0 2.9297,-1.2441 1.0226212,2.2573632 69.403323 0 0 -0.7852,-1.2442 z"
     id="path17382" /><path
     style="color:#000000;clip-rule:nonzero;fill:#000000;fill-rule:nonzero;stroke-linecap:butt;stroke-linejoin:miter;-inkscape-stroke:none"
     d="m -3197.5547,1498.9692 a 1.0226212,2.2573632 69.403323 0 0 -2.9297,1.2422 1.0226212,2.2573632 69.403323 0 0 0.7852,1.2442 1.0226212,2.2573632 69.403323 0 0 2.9277,-1.2442 1.0226212,2.2573632 69.403323 0 0 -0.7832,-1.2422 z"
     id="path17380" /><path
     style="color:#000000;clip-rule:nonzero;fill:#000000;fill-rule:nonzero;stroke-linecap:butt;stroke-linejoin:miter;-inkscape-stroke:none"
     d="m -3250.7422,1498.8852 a 1.0226212,2.2573632 69.403323 0 0 -2.9277,1.2422 1.0226212,2.2573632 69.403323 0 0 0.7832,1.2442 1.0226212,2.2573632 69.403323 0 0 2.9297,-1.2442 1.0226212,2.2573632 69.403323 0 0 -0.7852,-1.2422 z"
     id="path17378" /><path
     style="color:#000000;clip-rule:nonzero;fill:#000000;fill-rule:nonzero;stroke-linecap:butt;stroke-linejoin:miter;-inkscape-stroke:none"
     d="m -3217.7793,1498.8716 a 1.0226212,2.2573632 69.403323 0 0 -2.9277,1.2441 1.0226212,2.2573632 69.403323 0 0 0.7832,1.2442 1.0226212,2.2573632 69.403323 0 0 2.9277,-1.2442 1.0226212,2.2573632 69.403323 0 0 -0.7832,-1.2441 z"
     id="path17376" /><path
     style="color:#000000;clip-rule:nonzero;fill:#000000;fill-rule:nonzero;stroke-linecap:butt;stroke-linejoin:miter;-inkscape-stroke:none"
     d="m -3184.2344,1498.3852 a 1.0226212,2.2573632 69.403323 0 0 -2.9277,1.2442 1.0226212,2.2573632 69.403323 0 0 0.7832,1.2441 1.0226212,2.2573632 69.403323 0 0 2.9277,-1.2441 1.0226212,2.2573632 69.403323 0 0 -0.7832,-1.2442 z"
     id="path17374" /><path
     style="color:#000000;clip-rule:nonzero;fill:#000000;fill-rule:nonzero;stroke-linecap:butt;stroke-linejoin:miter;-inkscape-stroke:none"
     d="m -3209.5137,1498.1919 a 1.0226212,2.2573632 69.403323 0 0 -2.9297,1.2441 1.0226212,2.2573632 69.403323 0 0 0.7852,1.2422 1.0226212,2.2573632 69.403323 0 0 2.9277,-1.2422 1.0226212,2.2573632 69.403323 0 0 -0.7832,-1.2441 z"
     id="path17372" /><path
     style="color:#000000;clip-rule:nonzero;fill:#000000;fill-rule:nonzero;stroke-linecap:butt;stroke-linejoin:miter;-inkscape-stroke:none"
     d="m -3246.2695,1498.1059 a 1.0226212,2.2573632 69.403323 0 0 -2.9278,1.2442 1.0226212,2.2573632 69.403323 0 0 0.7832,1.2441 1.0226212,2.2573632 69.403323 0 0 2.9297,-1.2441 1.0226212,2.2573632 69.403323 0 0 -0.7851,-1.2442 z"
     id="path17370" /><path
     style="color:#000000;clip-rule:nonzero;fill:#000000;fill-rule:nonzero;stroke-linecap:butt;stroke-linejoin:miter;-inkscape-stroke:none"
     d="m -3192.1113,1497.9966 a 1.0226212,2.2573632 69.403323 0 0 -2.9278,1.2441 1.0226212,2.2573632 69.403323 0 0 0.7832,1.2442 1.0226212,2.2573632 69.403323 0 0 2.9297,-1.2442 1.0226212,2.2573632 69.403323 0 0 -0.7851,-1.2441 z"
     id="path17368" /><path
     style="color:#000000;clip-rule:nonzero;fill:#000000;fill-rule:nonzero;stroke-linecap:butt;stroke-linejoin:miter;-inkscape-stroke:none"
     d="m -3234.6016,1497.6079 a 1.0226212,2.2573632 69.403323 0 0 -2.9277,1.2441 1.0226212,2.2573632 69.403323 0 0 0.7852,1.2422 1.0226212,2.2573632 69.403323 0 0 2.9277,-1.2422 1.0226212,2.2573632 69.403323 0 0 -0.7852,-1.2441 z"
     id="path17366" /><path
     style="color:#000000;clip-rule:nonzero;fill:#000000;fill-rule:nonzero;stroke-linecap:butt;stroke-linejoin:miter;-inkscape-stroke:none"
     d="m -3239.8516,1497.0239 a 1.0226212,2.2573632 69.403323 0 0 -2.9277,1.2442 1.0226212,2.2573632 69.403323 0 0 0.7832,1.2441 1.0226212,2.2573632 69.403323 0 0 2.9277,-1.2441 1.0226212,2.2573632 69.403323 0 0 -0.7832,-1.2442 z"
     id="path17364" /><path
     style="color:#000000;clip-rule:nonzero;fill:#000000;fill-rule:nonzero;stroke-linecap:butt;stroke-linejoin:miter;-inkscape-stroke:none"
     d="m -3221.2793,1496.8286 a 1.0226212,2.2573632 69.403323 0 0 -2.9277,1.2441 1.0226212,2.2573632 69.403323 0 0 0.7832,1.2442 1.0226212,2.2573632 69.403323 0 0 2.9277,-1.2442 1.0226212,2.2573632 69.403323 0 0 -0.7832,-1.2441 z"
     id="path17362" /><path
     style="color:#000000;clip-rule:nonzero;fill:#000000;fill-rule:nonzero;stroke-linecap:butt;stroke-linejoin:miter;-inkscape-stroke:none"
     d="m -3228.0859,1496.7329 a 1.0226212,2.2573632 69.403323 0 0 -2.9297,1.2441 1.0226212,2.2573632 69.403323 0 0 0.7851,1.2422 1.0226212,2.2573632 69.403323 0 0 2.9278,-1.2422 1.0226212,2.2573632 69.403323 0 0 -0.7832,-1.2441 z"
     id="path17360" /><path
     style="color:#000000;clip-rule:nonzero;fill:#000000;fill-rule:nonzero;stroke-linecap:butt;stroke-linejoin:miter;-inkscape-stroke:none"
     d="m -3252.7832,1496.5513 a 1.0226212,2.2573632 69.403323 0 0 -2.9277,1.2421 1.0226212,2.2573632 69.403323 0 0 0.7832,1.2442 1.0226212,2.2573632 69.403323 0 0 2.9277,-1.2442 1.0226212,2.2573632 69.403323 0 0 -0.7832,-1.2421 z"
     id="path17358" /><path
     style="color:#000000;clip-rule:nonzero;fill:#000000;fill-rule:nonzero;stroke-linecap:butt;stroke-linejoin:miter;-inkscape-stroke:none"
     d="m -3257.2559,1496.5513 a 1.0226212,2.2573632 69.403323 0 0 -2.9277,1.2421 1.0226212,2.2573632 69.403323 0 0 0.7832,1.2442 1.0226212,2.2573632 69.403323 0 0 2.9277,-1.2442 1.0226212,2.2573632 69.403323 0 0 -0.7832,-1.2421 z"
     id="path17356" /><path
     style="color:#000000;clip-rule:nonzero;fill:#000000;fill-rule:nonzero;stroke-linecap:butt;stroke-linejoin:miter;-inkscape-stroke:none"
     d="m -3204.166,1496.3442 a 1.0226212,2.2573632 69.403323 0 0 -2.9297,1.2422 1.0226212,2.2573632 69.403323 0 0 0.7852,1.2442 1.0226212,2.2573632 69.403323 0 0 2.9277,-1.2442 1.0226212,2.2573632 69.403323 0 0 -0.7832,-1.2422 z"
     id="path17354" /><path
     style="color:#000000;clip-rule:nonzero;fill:#000000;fill-rule:nonzero;stroke-linecap:butt;stroke-linejoin:miter;-inkscape-stroke:none"
     d="m -3211.752,1495.7602 a 1.0226212,2.2573632 69.403323 0 0 -2.9277,1.2442 1.0226212,2.2573632 69.403323 0 0 0.7832,1.2441 1.0226212,2.2573632 69.403323 0 0 2.9277,-1.2441 1.0226212,2.2573632 69.403323 0 0 -0.7832,-1.2442 z"
     id="path17352" /><path
     style="color:#000000;clip-rule:nonzero;fill:#000000;fill-rule:nonzero;stroke-linecap:butt;stroke-linejoin:miter;-inkscape-stroke:none"
     d="m -3193.375,1495.1763 a 1.0226212,2.2573632 69.403323 0 0 -2.9277,1.2441 1.0226212,2.2573632 69.403323 0 0 0.7832,1.2441 1.0226212,2.2573632 69.403323 0 0 2.9297,-1.2441 1.0226212,2.2573632 69.403323 0 0 -0.7852,-1.2441 z"
     id="path17350" /><path
     style="color:#000000;clip-rule:nonzero;fill:#000000;fill-rule:nonzero;stroke-linecap:butt;stroke-linejoin:miter;-inkscape-stroke:none"
     d="m -3246.3652,1494.9946 a 1.0226212,2.2573632 69.403323 0 0 -2.9278,1.2442 1.0226212,2.2573632 69.403323 0 0 0.7832,1.2441 1.0226212,2.2573632 69.403323 0 0 2.9278,-1.2441 1.0226212,2.2573632 69.403323 0 0 -0.7832,-1.2442 z"
     id="path17348" /><path
     style="color:#000000;clip-rule:nonzero;fill:#000000;fill-rule:nonzero;stroke-linecap:butt;stroke-linejoin:miter;-inkscape-stroke:none"
     d="m -3198.916,1494.3989 a 1.0226212,2.2573632 69.403323 0 0 -2.9297,1.2442 1.0226212,2.2573632 69.403323 0 0 0.7852,1.2441 1.0226212,2.2573632 69.403323 0 0 2.9277,-1.2441 1.0226212,2.2573632 69.403323 0 0 -0.7832,-1.2442 z"
     id="path17346" /><path
     style="color:#000000;clip-rule:nonzero;fill:#000000;fill-rule:nonzero;stroke-linecap:butt;stroke-linejoin:miter;-inkscape-stroke:none"
     d="m -3224.002,1494.2036 a 1.0226212,2.2573632 69.403323 0 0 -2.9296,1.2441 1.0226212,2.2573632 69.403323 0 0 0.7851,1.2442 1.0226212,2.2573632 69.403323 0 0 2.9277,-1.2442 1.0226212,2.2573632 69.403323 0 0 -0.7832,-1.2441 z"
     id="path17344" /><path
     style="color:#000000;clip-rule:nonzero;fill:#000000;fill-rule:nonzero;stroke-linecap:butt;stroke-linejoin:miter;-inkscape-stroke:none"
     d="m -3234.6016,1493.7192 a 1.0226212,2.2573632 69.403323 0 0 -2.9277,1.2422 1.0226212,2.2573632 69.403323 0 0 0.7852,1.2442 1.0226212,2.2573632 69.403323 0 0 2.9277,-1.2442 1.0226212,2.2573632 69.403323 0 0 -0.7852,-1.2422 z"
     id="path17342" /><path
     style="color:#000000;clip-rule:nonzero;fill:#000000;fill-rule:nonzero;stroke-linecap:butt;stroke-linejoin:miter;-inkscape-stroke:none"
     d="m -3207.959,1493.2329 a 1.0226212,2.2573632 69.403323 0 0 -2.9277,1.2441 1.0226212,2.2573632 69.403323 0 0 0.7832,1.2422 1.0226212,2.2573632 69.403323 0 0 2.9297,-1.2422 1.0226212,2.2573632 69.403323 0 0 -0.7852,-1.2441 z"
     id="path17340" /><path
     style="color:#000000;clip-rule:nonzero;fill:#000000;fill-rule:nonzero;stroke-linecap:butt;stroke-linejoin:miter;-inkscape-stroke:none"
     d="m -3240.6289,1493.0376 a 1.0226212,2.2573632 69.403323 0 0 -2.9297,1.2441 1.0226212,2.2573632 69.403323 0 0 0.7852,1.2442 1.0226212,2.2573632 69.403323 0 0 2.9277,-1.2442 1.0226212,2.2573632 69.403323 0 0 -0.7832,-1.2441 z"
     id="path17338" /><path
     style="color:#000000;clip-rule:nonzero;fill:#000000;fill-rule:nonzero;stroke-linecap:butt;stroke-linejoin:miter;-inkscape-stroke:none"
     d="m -3229.0586,1492.8442 a 1.0226212,2.2573632 69.403323 0 0 -2.9277,1.2422 1.0226212,2.2573632 69.403323 0 0 0.7832,1.2442 1.0226212,2.2573632 69.403323 0 0 2.9277,-1.2442 1.0226212,2.2573632 69.403323 0 0 -0.7832,-1.2422 z"
     id="path17336" /><path
     style="color:#000000;clip-rule:nonzero;fill:#000000;fill-rule:nonzero;stroke-linecap:butt;stroke-linejoin:miter;-inkscape-stroke:none"
     d="m -3214.959,1492.6489 a 1.0226212,2.2573632 69.403323 0 0 -2.9297,1.2442 1.0226212,2.2573632 69.403323 0 0 0.7852,1.2421 1.0226212,2.2573632 69.403323 0 0 2.9277,-1.2421 1.0226212,2.2573632 69.403323 0 0 -0.7832,-1.2442 z"
     id="path17334" /><path
     style="color:#000000;clip-rule:nonzero;fill:#000000;fill-rule:nonzero;stroke-linecap:butt;stroke-linejoin:miter;-inkscape-stroke:none"
     d="m -3218.168,1491.5786 a 1.0226212,2.2573632 69.403323 0 0 -2.9297,1.2441 1.0226212,2.2573632 69.403323 0 0 0.7852,1.2442 1.0226212,2.2573632 69.403323 0 0 2.9277,-1.2442 1.0226212,2.2573632 69.403323 0 0 -0.7832,-1.2441 z"
     id="path17332" /><path
     style="color:#000000;clip-rule:nonzero;fill:#000000;fill-rule:nonzero;stroke-linecap:butt;stroke-linejoin:miter;-inkscape-stroke:none"
     d="m -3235.6699,1491.3852 a 1.0226212,2.2573632 69.403323 0 0 -2.9297,1.2422 1.0226212,2.2573632 69.403323 0 0 0.7851,1.2442 1.0226212,2.2573632 69.403323 0 0 2.9278,-1.2442 1.0226212,2.2573632 69.403323 0 0 -0.7832,-1.2422 z"
     id="path17330" /><path
     style="color:#000000;clip-rule:nonzero;fill:#000000;fill-rule:nonzero;stroke-linecap:butt;stroke-linejoin:miter;-inkscape-stroke:none"
     d="m -3209.6113,1490.6079 a 1.0226212,2.2573632 69.403323 0 0 -2.9278,1.2441 1.0226212,2.2573632 69.403323 0 0 0.7832,1.2422 1.0226212,2.2573632 69.403323 0 0 2.9278,-1.2422 1.0226212,2.2573632 69.403323 0 0 -0.7832,-1.2441 z"
     id="path17328" /><path
     style="color:#000000;clip-rule:nonzero;fill:#000000;fill-rule:nonzero;stroke-linecap:butt;stroke-linejoin:miter;-inkscape-stroke:none"
     d="m -3224.1973,1489.8286 a 1.0226212,2.2573632 69.403323 0 0 -2.9277,1.2441 1.0226212,2.2573632 69.403323 0 0 0.7832,1.2442 1.0226212,2.2573632 69.403323 0 0 2.9297,-1.2442 1.0226212,2.2573632 69.403323 0 0 -0.7852,-1.2441 z"
     id="path17326" /><path
     style="color:#000000;clip-rule:nonzero;fill:#000000;fill-rule:nonzero;stroke-linecap:butt;stroke-linejoin:miter;-inkscape-stroke:none"
     d="m -3229.252,1489.2446 a 1.0226212,2.2573632 69.403323 0 0 -2.9296,1.2442 1.0226212,2.2573632 69.403323 0 0 0.7851,1.2441 1.0226212,2.2573632 69.403323 0 0 2.9277,-1.2441 1.0226212,2.2573632 69.403323 0 0 -0.7832,-1.2442 z"
     id="path17324" /><path
     style="color:#000000;clip-rule:nonzero;fill:#000000;fill-rule:nonzero;stroke-linecap:butt;stroke-linejoin:miter;-inkscape-stroke:none"
     d="m -3216.2227,1488.7602 a 1.0226212,2.2573632 69.403323 0 0 -2.9296,1.2422 1.0226212,2.2573632 69.403323 0 0 0.7851,1.2442 1.0226212,2.2573632 69.403323 0 0 2.9277,-1.2442 1.0226212,2.2573632 69.403323 0 0 -0.7832,-1.2422 z"
     id="path17322" /><path
     style="color:#000000;clip-rule:nonzero;fill:#000000;fill-rule:nonzero;stroke-linecap:butt;stroke-linejoin:miter;-inkscape-stroke:none"
     d="m -3220.502,1486.4263 a 1.0226212,2.2573632 69.403323 0 0 -2.9277,1.2441 1.0226212,2.2573632 69.403323 0 0 0.7832,1.2441 1.0226212,2.2573632 69.403323 0 0 2.9277,-1.2441 1.0226212,2.2573632 69.403323 0 0 -0.7832,-1.2441 z"
     id="path17320" /><path
     style="color:#000000;clip-rule:nonzero;fill:#005dc7;fill-rule:nonzero;stroke-linecap:butt;stroke-linejoin:miter;-inkscape-stroke:none"
     d="m -3198.3672,1481.5278 c 5.2774,-0.1617 10.5712,0.2165 15.7949,1.1387 20.7783,3.6468 39.9311,8.0842 57.17,13.4219 2.2298,0.687 4.3422,1.5991 6.3847,2.623 -42.9524,8.784 -85.8693,24.086 -128.7207,45.9375 -12.3501,6.2776 -21.8611,16.4475 -27.4551,28.5195 -25.4857,-13.0288 -54.058,-21.3861 -85.1347,-25.9335 1.4359,-1.9159 3.0932,-3.6794 5.0097,-5.1954 a 4.0004,4.0004 0 0 0 0.01,-0.01 c 9.9339,-7.9012 21.2722,-14.9721 33.7031,-21.3926 l 65.3946,20.168 a 4.0004,4.0004 0 0 0 2.8457,-0.1856 c 29.9743,-13.7478 61.6105,-26.2315 96.998,-36.0117 a 4.0004,4.0004 0 0 0 0.1113,-7.6777 l -48.416,-14.8868 c 2.0972,-0.2364 4.1969,-0.451 6.3047,-0.5156 z"
     id="path17316" /><path
     style="color:#000000;clip-rule:nonzero;fill:#000000;fill-rule:nonzero;stroke-linecap:butt;stroke-linejoin:miter;-inkscape-stroke:none"
     d="m -3397.7344,1703.4829 a 4,4 0 0 0 -2.8476,1.125 c -4.4254,4.2804 -5.1168,10.4363 -3.5762,15.8164 a 4,4 0 0 0 4.9473,2.7441 4,4 0 0 0 2.7441,-4.9472 c -1.0594,-3.6999 -0.8494,-5.6438 1.4453,-7.8633 a 4,4 0 0 0 0.094,-5.6562 4,4 0 0 0 -2.8067,-1.2188 z"
     id="path17566" /><path
     style="color:#000000;clip-rule:nonzero;fill:#000000;fill-rule:nonzero;stroke-linecap:butt;stroke-linejoin:miter;-inkscape-stroke:none"
     d="m -3411.5703,1700.9829 a 4,4 0 0 0 -2.8477,1.125 c -4.4253,4.2804 -5.1148,10.4363 -3.5742,15.8164 a 4,4 0 0 0 4.9473,2.7441 4,4 0 0 0 2.7441,-4.9472 c -1.0594,-3.6999 -0.8494,-5.6438 1.4453,-7.8633 a 4,4 0 0 0 0.094,-5.6562 4,4 0 0 0 -2.8086,-1.2188 z"
     id="path17564" /><path
     style="color:#000000;clip-rule:nonzero;fill:#000000;fill-rule:nonzero;stroke-linecap:butt;stroke-linejoin:miter;-inkscape-stroke:none"
     d="m -3202.998,1667.979 c -3.7373,0.058 -7.1491,1.2846 -9.7637,3.4258 -0.1726,0.1415 -0.3423,0.2861 -0.5078,0.4355 -2.8513,2.5734 -4.6418,6.0525 -5.8575,9.9473 a 4,4 0 0 0 2.627,5.0098 4,4 0 0 0 5.0098,-2.627 c 0.4494,-1.4398 0.9708,-2.6717 1.541,-3.7051 11.0749,10.3286 25.9313,12.0973 42.0039,6.2754 a 4,4 0 0 0 2.3984,-5.123 4,4 0 0 0 -5.123,-2.4004 c -13.5376,4.9036 -23.7912,4.0944 -32.3711,-3.2422 0.1994,0 0.4033,0 0.6172,0 a 4,4 0 0 0 4.1132,-3.8828 4,4 0 0 0 -3.8808,-4.1132 c -0.2689,-0.01 -0.537,-0.01 -0.8027,-0.01 z"
     id="path17558" /><path
     style="color:#000000;clip-rule:nonzero;fill:#000000;fill-rule:nonzero;stroke-linecap:butt;stroke-linejoin:miter;-inkscape-stroke:none"
     d="m -3226.3379,1652.9829 a 4,4 0 0 0 -1.0351,0.1426 c -5.9947,1.6491 -10.7424,5.2729 -12.7442,10.5449 -2.0018,5.272 -1.3907,11.4839 1.0176,18.5957 a 4,4 0 0 0 5.0703,2.5059 4,4 0 0 0 2.5059,-5.0723 c -2.0718,-6.1181 -2.1415,-10.4815 -1.1133,-13.1895 1.0282,-2.7079 3.0213,-4.469 7.3867,-5.6699 a 4,4 0 0 0 2.7949,-4.9179 4,4 0 0 0 -3.8828,-2.9395 z"
     id="path17554" /><path
     style="color:#000000;clip-rule:nonzero;fill:#ffffff;fill-rule:nonzero;stroke-linecap:butt;stroke-linejoin:miter;-inkscape-stroke:none"
     d="m -3200.3008,1576.9204 c 5.6683,-0.051 11.5185,2.9026 16.7637,8.584 2.1675,2.3477 4.182,5.1481 5.9648,8.3086 a 24.181585,15.969425 80.726482 0 0 -8.875,-2.2539 24.181585,15.969425 80.726482 0 0 -11.8632,26.4375 24.181585,15.969425 80.726482 0 0 19.6562,21.2929 24.181585,15.969425 80.726482 0 0 7.6836,-4.8964 c -0.6849,3.5362 -1.6985,6.8089 -2.9981,9.705 -3.6178,8.0625 -9.1192,12.996 -15.5195,14.041 -6.4004,1.045 -13.1852,-1.882 -19.1797,-8.375 -5.9945,-6.4928 -10.8463,-16.4109 -12.7382,-27.998 -1.8919,-11.5871 -0.448,-22.5352 3.1699,-30.5977 3.6178,-8.0624 9.1191,-12.9959 15.5195,-14.041 0.8,-0.1306 1.6063,-0.1997 2.416,-0.207 z"
     id="path17546" /></g></svg>
