<?xml version="1.0" encoding="UTF-8" standalone="no"?>
<svg
   width="3649.3167"
   height="5327.9189"
   viewBox="0 0 3649.3167 5327.919"
   version="1.1"
   xml:space="preserve"
   style="clip-rule:evenodd;fill-rule:evenodd;stroke-linecap:round;stroke-linejoin:round;stroke-miterlimit:1.5"
   id="svg2157"
   xmlns="http://www.w3.org/2000/svg"
   xmlns:svg="http://www.w3.org/2000/svg"><defs
   id="defs2161" />
    
    
<g
   id="fullcolor-retro-dudes-smartphone"
   transform="matrix(9.9999994,0,0,9.9999994,27796.75,-26105.019)"><path
     id="path2866"
     style="color:#000000;fill:#000000;-inkscape-stroke:none"
     d="m -2564.9892,2610.5039 v 0.01 l -159.2598,1.7793 h 0.1328 c 0,0 -7.1425,-0.1678 -13.9453,4.5703 -7.5262,5.2469 -14.3067,16.6353 -12.1211,37.8359 1.1583,11.2208 4.7192,47.8898 9.0508,92.7461 -15.4578,12.1306 -29.344,29.7925 -35.918,52.7461 -5.141,17.9499 -2.3248,34.9057 4.9121,49.7598 7.2371,14.854 18.7917,27.7325 31.3438,38.3906 5.1858,4.4024 9.9028,7.7098 14.1953,10.2773 4.2271,44.0331 7.948,82.8983 9.9004,103.3301 1.0553,10.9325 10.3382,19.3206 21.3223,19.2617 l 31.3281,-0.1699 c 1.1902,24.0817 3.1594,46.7555 5.8066,68.1856 -0.2361,1.4885 -1.7132,11.1157 -2.0605,22.0566 -0.1882,5.9306 -0.047,12.1454 0.9199,17.6465 0.967,5.5011 2.5679,10.6048 6.875,13.6348 a 4.0004,4.0004 0 0 0 2.3848,0.7285 c 0,0 70.8145,-1.4762 90.8007,-1.9024 2.4884,-0.052 4.8531,-1.1356 6.5137,-2.9941 0.7344,-0.8172 1.2921,-1.7582 1.6797,-2.7617 10.7388,0.1915 23.4296,0.4173 30.4375,0.5312 2.5724,0.047 5.0501,-1.0125 6.7871,-2.916 1.7265,-1.892 2.576,-4.4396 2.3047,-7.0039 a 4.0004,4.0004 0 0 0 -0.018,-0.1367 c -0.8952,-6.3559 -3.1553,-15.2821 -7.3984,-23.5742 -4.2431,-8.2923 -10.5897,-16.1739 -20.0195,-19.0664 -3.7607,-1.1538 -7.2129,-1.7409 -10.3438,-1.9239 -2.4995,-0.1458 -4.7877,-0.03 -6.8711,0.2559 0.2869,-1.9151 0.5673,-3.576 0.752,-4.5762 14.9168,-15.3139 21.4189,-34.4812 14.9785,-56.8496 l 14.3359,-0.078 -0.3535,-0.014 c 0,0 4.8786,0.4736 10.0371,-1.5059 5.0077,-1.9216 10.5063,-7.0813 10.9883,-15.7617 1.4382,-2.8042 2.2136,-5.925 1.8945,-9.1191 v -0.01 l -16.0097,-161.7558 c 3.6917,0.9756 7.5546,1.4669 11.58,1.3496 12.3852,-0.3611 25.9218,-5.8698 40.295,-17.0254 19.1879,-14.8891 22.1983,-39.6821 22.0371,-55.7969 3.7115,-0.2056 6.6541,-0.5672 9.1836,-1.7305 2.6878,-1.236 4.5766,-4.4196 4.4316,-6.9922 -0.1449,-2.5725 -1.2656,-4.4132 -2.3789,-6.0293 -0.4843,-0.7028 -0.9993,-1.3575 -1.5098,-1.9667 4.2221,-3.2152 7.2934,-7.0166 9.4375,-11.8165 2.8009,-6.2697 4.2801,-13.989 6.2813,-25.1269 3.5207,-19.6149 5.3577,-34.6763 5.5137,-45.3086 0.078,-5.3162 -0.2275,-9.5057 -1.1465,-12.8789 -0.4595,-1.6866 -1.0686,-3.2006 -2.084,-4.5488 -1.0153,-1.3483 -2.6062,-2.5267 -4.4356,-2.8926 -2.0244,-0.4049 -4.2275,-0.096 -5.9511,0.8418 -1.7236,0.938 -2.9352,2.3076 -3.9082,3.7422 -1.9459,2.869 -3.1673,6.2473 -4.6289,9.8261 -0.9359,2.2917 -1.6891,5.5251 -2.5118,9.4278 -0.3562,-5.3006 -0.5022,-8.7791 -0.7988,-12.2559 -0.5791,-6.7867 -1.8457,-11.937 -3.8183,-15.7734 -1.9726,-3.8365 -5.0875,-6.7526 -9.0333,-6.8848 -3.6638,-0.1227 -6.9718,2.1979 -8.9218,5.3828 -1.9499,3.185 -2.9938,7.332 -3.209,12.4473 v 0.2324 c -0.4863,-1.5278 -0.9684,-3.0775 -1.4844,-4.3379 -0.713,-1.7416 -1.441,-3.2212 -2.373,-4.5195 -0.9321,-1.2983 -2.1202,-2.6842 -4.3633,-3.1328 -0.4388,-0.088 -2.0607,-0.4989 -4.0371,-0.2442 -1.9764,0.2548 -4.4561,1.3846 -6.1778,3.6133 -3.4433,4.4575 -4.4709,11.7468 -2.5332,26.0879 1.3958,10.337 2.1624,20.1792 2.5762,28.4375 -1.9969,-2.4892 -4.2616,-5.0682 -6.6973,-7.3555 -2.6593,-2.4973 -5.4838,-4.686 -8.7246,-5.9296 -1.6204,-0.6219 -3.4742,-0.9396 -5.3183,-0.8028 -1.8442,0.1369 -3.6789,0.7284 -5.2676,1.9199 -3.5929,2.6958 -5.6968,6.4188 -5.918,10.1758 -0.2213,3.7571 1.1114,7.2015 2.8946,10.4219 3.5665,6.4407 9.2991,12.5193 13.1718,17.9297 8.2882,11.5793 8.8889,10.5026 10.2735,24.0781 0.3932,3.8561 2.6845,6.8175 5.666,9.0059 -2.2666,7.67 -5.6503,17.3002 -10.1797,25.2832 -5.0831,8.9588 -11.2404,15.0424 -17.6758,15.3105 -3.8477,0.1603 -8.255,-1.6699 -12.4804,-4.959 l -15.4297,-155.8047 c -1.3007,-13.1422 -12.4976,-23.1751 -25.7051,-23.0273 z m -170.461,195.9551 c 1.1496,11.9432 2.3006,23.9155 3.461,35.9746 -1.3945,-2.5588 -2.5479,-5.291 -3.3653,-8.2188 -2.6814,-9.6211 -2.3615,-19.1213 -0.096,-27.7558 z m 150.8047,214.1504 c 0.2039,2.4305 0.2909,4.8156 0.2422,7.1504 -0.2128,10.2233 -2.7911,19.5731 -7.2265,28.4257 -0.4424,0.6035 -8.082,10.9632 -18.6973,21.4415 -3.1723,-20.8237 -5.238,-40.0264 -5.7168,-56.8477 z" /><path
     style="color:#000000;fill:#ffffff;-inkscape-stroke:none"
     d="m -2558.9326,3129.0938 c 0.1701,1.1583 0.3146,2.2629 0.4121,3.2304 0.024,0.2722 -0.057,0.522 -0.2382,0.7227 a 4.0004,4.0004 0 0 0 -0.014,0.016 c -0.1791,0.2009 -0.4305,0.3202 -0.7188,0.3262 -19.5663,0.4172 -86.1462,1.8032 -88.9375,1.8613 -0.7484,-0.838 -1.5834,-2.3024 -2.2617,-4.4102 z"
     id="path27382" /><path
     style="color:#000000;fill:#ffffff;-inkscape-stroke:none"
     d="m -2551.7548,3123.5547 31.6543,0.4785 c 0.2139,1.0856 0.4024,2.1313 0.5371,3.0742 0.021,0.2642 -0.061,0.5405 -0.2481,0.7461 -0.183,0.2006 -0.4448,0.3158 -0.7324,0.3106 a 4.0004,4.0004 0 0 0 -0.01,0 c -7.0079,-0.114 -19.7388,-0.3394 -30.4941,-0.5313 -0.1893,-1.2876 -0.4173,-2.6403 -0.707,-4.0781 z"
     id="path27380" /><path
     style="color:#000000;fill:#ffffff;-inkscape-stroke:none"
     d="m -2650.7587,3093.6582 c 5.5235,0.6428 12.8929,1.0258 20.5312,1.2598 7.4243,0.2273 11.403,0.2565 14.0312,0.289 v 2.2129 4.8692 a 4,4 0 0 0 4,4 4,4 0 0 0 4,-4 v -2.0567 c 6.2296,-2.282 14.4005,-3.4839 26.4942,-1.9746 8.9206,1.1135 14.0894,6.5554 17.6484,13.5469 1.5153,2.9767 2.6319,6.1941 3.4746,9.3164 l -91.4863,1.7441 c -0.2998,-3.5759 -0.3622,-7.4877 -0.2402,-11.332 0.2555,-8.0494 1.0344,-14.2143 1.5469,-17.875 z"
     id="path27378" /><path
     style="color:#000000;fill:#ffffff;-inkscape-stroke:none"
     d="m -2588.8564,3065.5332 c 5.706,9.3447 12.7004,13.4711 18.6797,14.6094 2.3029,0.4384 4.3306,0.3987 6.1758,0.2304 -0.2579,1.539 -0.4477,2.4092 -0.6407,3.8008 -1.5947,0.724 -2.8996,1.4998 -3.8984,2.2032 a 4,4 0 0 0 -0.9668,5.5722 4,4 0 0 0 5.5723,0.9688 c 0.8701,-0.6128 2.1417,-1.3958 3.8593,-2.0684 a 4,4 0 0 0 0.1,-0.039 c 3.8281,-1.4745 9.8437,-2.3825 18.5957,0.3028 6.4198,1.9693 11.5522,7.8474 15.2441,15.0625 1.625,3.1757 2.9278,6.5569 3.9629,9.8242 l -31.7188,-0.4785 c -0.8153,-2.4437 -1.7953,-4.9217 -3.0293,-7.3457 -4.3035,-8.454 -11.9196,-16.374 -23.789,-17.8555 -11.4844,-1.4333 -20.3507,-0.6279 -27.4844,1.4551 v -0.4863 a 4.0004,4.0004 0 0 0 -0.01,-0.045 4,4 0 0 0 -0.049,-0.6191 c -0.1925,-1.1433 -0.3642,-2.2559 -0.5508,-3.3906 9.7122,-8.8828 16.25,-16.9452 19.9473,-21.7012 z"
     id="path27376" /><path
     style="color:#000000;fill:#0b0000;-inkscape-stroke:none"
     d="m -2623.3837,3034.2734 c 1.0852,15.8785 3.2983,33.2961 6.291,51.8145 a 4,4 0 0 0 0.025,0.166 c 0.052,0.3226 0.1055,0.6455 0.1582,0.9688 -3.3397,-0.053 -7.8115,-0.1399 -13.0704,-0.3008 -7.534,-0.2308 -15.9301,-0.6778 -20.621,-1.1739 -1.522,-12.6257 -2.8116,-25.6821 -3.8418,-39.2187 9.0673,-6.1768 19.3597,-10.3581 31.0586,-12.2559 z"
     id="path27374" /><path
     style="color:#000000;fill:#0b0000;-inkscape-stroke:none"
     d="m -2549.6923,3028.1699 c 0.9717,0.01 1.9411,0.04 2.9082,0.092 3.3924,17.3198 -2.3039,31.0726 -14.6817,43.6192 -1.1222,0.3803 -3.7863,1.055 -7.2148,0.4023 -4.3503,-0.8281 -9.974,-3.6525 -15.086,-13.9805 1.2979,-2.7249 2.4479,-5.5095 3.4219,-8.3613 1.8405,-5.3883 3.075,-11.0034 3.6211,-16.8476 9.1782,-3.2198 18.2023,-4.9915 27.0313,-4.9239 z"
     id="path27372" /><path
     style="color:#000000;fill:#ffffff;-inkscape-stroke:none"
     d="m -2676.1396,2933.4473 c 6.8242,1.8735 12.655,3.2152 16.7773,4.8105 0.8402,0.3252 1.5739,0.6488 2.2559,0.9766 -4.6584,-0.1197 -10.9739,-0.237 -15.127,-1.459 -2.3825,-0.701 -3.5906,-1.675 -3.8828,-2.2442 -0.1812,-0.3531 -0.3582,-0.9294 -0.023,-2.0839 z"
     id="path27358" /><path
     style="color:#000000;fill:#ff5312;-inkscape-stroke:none"
     d="m -2601.9072,2905.2891 h 12.5606 c 0.5884,0 0.985,0.3879 1,0.9668 a 4.0004,4.0004 0 0 0 0,0.01 l 0.7304,27.002 a 4.0004,4.0004 0 0 0 0,0.016 c 0.01,0.2658 -0.083,0.5045 -0.2636,0.6934 a 4.0004,4.0004 0 0 0 -0.016,0.016 c -0.1757,0.1859 -0.4205,0.2977 -0.6933,0.3047 l -29.1192,0.748 c -0.588,0.015 -1.0005,-0.367 -1.0332,-0.957 l -0.7519,-14.3418 c 0.9614,0.7732 1.9277,1.5286 2.8965,2.2324 0.2183,0.1586 0.4362,0.2985 0.6543,0.4531 1.2312,6.175 6.7258,10.8653 13.2343,10.8653 7.4064,0 13.5,-6.0903 13.5,-13.5 0,-6.8274 -5.1742,-12.53 -11.7812,-13.3848 -0.2301,-0.2831 -0.4358,-0.5588 -0.6758,-0.8457 -0.076,-0.091 -0.1651,-0.186 -0.2422,-0.2773 z"
     id="path27352" /><path
     style="color:#000000;fill:#ffb900;-inkscape-stroke:none"
     d="m -2718.1455,2902.9727 c 2.2763,0.9702 4.3567,1.6972 6.25,2.2246 l 8.7481,89.33 c 0.7111,7.2893 6.1511,13.1368 13.1054,14.5899 -4.0127,1.2547 -7.9225,2.0705 -11.6835,2.5 -3.8222,-2.0281 -6.5657,-5.8296 -7.0118,-10.4375 -1.8558,-19.4211 -5.4461,-56.925 -9.4082,-98.207 z"
     id="path27350" /><path
     style="color:#000000;fill:#ffffff;-inkscape-stroke:none"
     d="m -2663.6494,2869.2227 c 1.0177,-0.012 2.0995,0.01 3.25,0.062 9.7877,0.4694 18.3023,1 24.6211,1.707 3.1594,0.3535 5.7767,0.7564 7.6426,1.1797 0.9872,0.2239 0.9574,0.2562 1.4375,0.4472 -0.1254,0.33 -0.1174,0.4788 -0.3652,0.9082 -0.8185,1.4181 -2.306,3.1497 -4.3516,4.6211 -10.098,-6.2553 -20.1621,-7.1937 -26.8828,-6.8613 v 0 c -4.9524,0.2449 -8.0898,1.1777 -8.0898,1.1777 a 4,4 0 0 0 -2.6387,5.0039 4,4 0 0 0 5.0039,2.6406 c 0,0 17.5463,-5.6954 34.1504,9.1582 9.0178,8.0626 17.1604,15.5618 22.0723,21.4336 2.4559,2.9359 4.0594,5.504 4.6152,7.0762 0.5558,1.5721 0.4548,1.3724 0.1387,1.6914 -0.2216,0.224 -0.2938,0.3858 -1.9707,-0.1211 -1.6768,-0.507 -4.2109,-1.9081 -6.875,-3.8437 -5.3282,-3.8712 -11.2945,-9.7352 -15.4414,-14.0079 a 4,4 0 0 0 -5.6563,-0.086 4,4 0 0 0 -0.084,5.6563 c 1.6761,1.7269 3.6473,3.7201 5.7872,5.7714 -0.5122,1.9309 -1.237,3.8091 -2.1875,5.3106 -0.5598,0.8841 -1.1612,1.6355 -1.8536,2.2519 -0.2425,-0.5389 -0.4892,-1.0685 -0.7363,-1.5703 -2.2424,-4.5537 -5.0137,-8.0234 -5.0137,-8.0234 a 4,4 0 0 0 -2.6738,-1.4883 h 0.01 a 4,4 0 0 0 -2.9453,0.8379 4,4 0 0 0 -0.6485,5.6191 c 0,0 2.3079,2.9394 4.1055,6.5899 1.7976,3.6505 2.4215,7.4453 1.5664,8.9219 -2.0861,3.5931 -4.6645,5.7607 -8.3887,6.9531 -2.447,-3.528 -6.2498,-5.8284 -10.4179,-7.4414 -5.3065,-2.0536 -11.5724,-3.3845 -18.6543,-5.3633 a 4.0004,4.0004 0 0 0 -0.01,0 c -0.5838,-0.1621 -1.1454,-0.3511 -1.7149,-0.5703 -6.4977,-2.5213 -11.0922,-8.7445 -13.9062,-14.2539 1.5159,-1.5694 2.7465,-3.4196 3.8437,-5.4024 3.1211,-5.6399 5.1561,-12.5456 6.5762,-17.8925 a 4,4 0 0 0 -2.8398,-4.8926 4,4 0 0 0 -4.8926,2.8379 c -1.3599,5.12 -3.3803,11.6241 -5.8418,16.0722 -1.2307,2.224 -2.5866,3.8742 -3.625,4.627 -1.0384,0.7529 -1.4084,0.8487 -2.459,0.5156 -1.446,-0.4586 -1.8506,-0.9356 -2.1621,-1.5019 -0.3115,-0.5663 -0.4993,-1.486 -0.3691,-2.7872 0.2602,-2.6023 1.9618,-6.3106 3.5781,-8.5722 3.2436,-4.541 3.7193,-9.6233 4.0996,-13.4258 0.1901,-1.9013 0.3607,-3.5248 0.6094,-4.541 0.2483,-1.0148 0.48,-1.1896 0.4355,-1.1563 1.1517,-0.8617 2.7025,-0.7183 4.6543,0.035 1.9527,0.7541 3.4863,1.918 3.4863,1.918 a 4,4 0 0 0 0.502,0.2773 4,4 0 0 0 0.5508,0.3125 4,4 0 0 0 0.023,0 4,4 0 0 0 0.6133,0.127 4,4 0 0 0 0.6113,0.1191 4,4 0 0 0 0.6524,-0.074 4,4 0 0 0 0.5898,-0.074 4,4 0 0 0 0.5918,-0.2676 4,4 0 0 0 0.543,-0.2539 4,4 0 0 0 0.4824,-0.4395 4,4 0 0 0 0.4395,-0.4101 4,4 0 0 0 0.016,-0.016 4,4 0 0 0 0.5703,-1.0195 4,4 0 0 0 0.02,-0.033 c 0,0 -0.079,0.096 0.2793,-0.3789 0.3585,-0.4747 1.0344,-1.2193 2.2735,-2.0156 1.5422,-0.9913 3.9964,-2.0877 7.8476,-2.668 a 4,4 0 0 0 0.2324,-0.031 c 1.5089,-0.2163 3.2225,-0.3562 5.1797,-0.3789 z"
     id="path27346" /><path
     style="color:#000000;fill:#ffb900;-inkscape-stroke:none"
     d="m -2658.4404,2858.668 0.1406,2.7129 c -0.5821,-0.029 -1.1236,-0.06 -1.7148,-0.088 -2.0933,-0.1004 -4.0279,-0.091 -5.8281,0 l -0.1895,-2.4278 z"
     id="path27342" /><path
     style="color:#000000;fill:#01b89e;-inkscape-stroke:none"
     d="m -2622.9384,2847.418 h 29.8593 c 0.5885,0 0.9871,0.3879 1.002,0.9668 a 4.0004,4.0004 0 0 0 0,0.01 l 0.1973,7.3125 c -12.466,-0.5101 -22.9922,-4.1875 -22.9922,-4.1875 a 4.0004,4.0004 0 0 0 -5.3008,4.2989 l 2,15 a 4,4 0 0 0 4.4941,3.4355 4,4 0 0 0 3.4356,-4.4941 l -1.2032,-9.0254 c 4.647,1.2669 11.2388,2.762 19.7833,3 l 0.3164,11.6621 a 4.0004,4.0004 0 0 0 0,0.016 c 0.01,0.2658 -0.085,0.5045 -0.2657,0.6934 a 4.0004,4.0004 0 0 0 -0.014,0.016 c -0.1757,0.1859 -0.4226,0.2977 -0.6954,0.3047 l -27.6074,0.709 c 0.814,-1.4838 1.3863,-2.9583 1.586,-4.5528 0.217,-1.7336 -0.01,-4.1231 -2.0157,-5.7597 -0.884,-0.7222 -1.7594,-1.1886 -2.6875,-1.5411 l -0.8886,-16.8046 c -0.014,-0.2829 0.089,-0.546 0.2715,-0.7442 0.2005,-0.2041 0.4555,-0.3144 0.7246,-0.3144 z"
     id="path27338" /><path
     style="color:#000000;fill:#ffb900;-inkscape-stroke:none"
     d="m -2648.9853,2847.416 c 0.6014,-0.016 1.0007,0.3592 1.0312,0.9492 l 0.6993,13.6387 c -0.9743,-0.064 -1.9999,-0.123 -3.0137,-0.1836 l -0.3848,-7.459 a 4.0004,4.0004 0 0 0 -4.0996,-3.7929 l -15.6992,0.414 a 4.0004,4.0004 0 0 0 -3.8828,4.3086 l 0.5566,7.1582 c -1.0536,0.2694 -2.0358,0.5721 -2.9414,0.9063 l -1.0898,-14.1289 c -0.022,-0.2664 0.065,-0.5274 0.25,-0.7324 0.1936,-0.2142 0.4397,-0.3247 0.7168,-0.332 z"
     id="path27336" /><path
     style="color:#000000;fill:#ffb900;-inkscape-stroke:none"
     d="m -2532.2627,2826.4395 c 1.3841,0.915 2.8193,1.7247 4.2813,2.4746 l 16.4043,165.7597 a 4.0004,4.0004 0 0 0 0,0.01 c 0.1908,1.8963 -0.259,3.7776 -1.252,5.3672 -0.2816,0.4478 -0.6007,0.8661 -0.9589,1.2558 -1.6623,1.8018 -3.9931,2.8039 -6.4356,2.7657 l -166.5801,-2.6055 c -4.3908,-0.069 -7.9571,-3.3555 -8.3828,-7.7188 l -7.8203,-79.8632 c 0.1961,0.072 0.3884,0.1509 0.5898,0.2148 1.3498,0.428 2.7364,0.5408 4.0782,0.4102 0.3847,3.2879 6.7476,57.6633 8.6504,73.9062 0.5203,4.4501 4.309,7.8707 8.7812,7.9512 23.01,0.416 130.1297,2.3513 156,2.8183 2.5696,0.047 5.0417,-1.0129 6.7813,-2.8984 1.7464,-1.8935 2.5965,-4.456 2.3261,-7.0195 -2.8831,-28.5668 -15.0325,-148.6864 -16.4629,-162.8281 z"
     id="path27332" /><path
     style="color:#000000;fill:#ffb900;-inkscape-stroke:none"
     d="m -2723.7587,2784.0039 7.4003,75.6231 c -2.2236,-1.644 -4.4006,-3.4445 -6.4589,-5.418 -2.0279,-21.0726 -4.0892,-42.4895 -6.0801,-63.168 1.5663,-2.5603 3.3058,-4.9 5.1387,-7.0371 z"
     id="path27328" /><path
     style="color:#000000;fill:#ffb900;-inkscape-stroke:none"
     d="m -2712.6591,2774.4297 8.4199,92.6484 c -1.1525,-0.5893 -2.3396,-1.2341 -3.5371,-1.9101 l -8.6289,-88.1641 c 1.2462,-0.9508 2.4979,-1.8344 3.7461,-2.5742 z"
     id="path27326" /><path
     style="color:#000000;fill:#ffffff;-inkscape-stroke:none"
     d="m -2453.3427,2638.2832 c 0.1142,0 0.9481,0.1404 2.1855,2.5469 1.2373,2.4065 2.4419,6.6896 2.9629,12.7949 1.0838,12.7027 2.9922,45.8887 2.9922,45.8887 a 4.0004,4.0004 0 0 0 7.9512,0.3457 c 0,0 1.2548,-8.6491 2.875,-18.1856 0.8101,-4.7682 1.7117,-9.7577 2.5839,-13.955 0.8722,-4.1975 1.8179,-7.7779 2.2852,-8.9219 1.4984,-3.6691 2.7797,-6.7904 3.8438,-8.3594 0.5321,-0.7845 0.9517,-1.1193 1.1093,-1.2051 0.066,-0.036 0.1938,3e-4 0.2364,-0.01 0.1518,0.2295 0.4328,0.7276 0.6933,1.6835 0.5685,2.0867 0.9372,5.7564 0.8653,10.6602 -0.1439,9.8077 -1.9075,24.6267 -5.3868,44.0117 -1.9887,11.0681 -3.5113,18.3489 -5.7129,23.2774 -2.2016,4.9285 -4.8394,7.7512 -10.3652,10.9746 a 4,4 0 0 0 -0.25,0.2519 4,4 0 0 0 -0.7637,0.5977 4,4 0 0 0 -0.2285,0.4043 4,4 0 0 0 -0.2969,0.5254 4,4 0 0 0 -0.3535,1.3379 4,4 0 0 0 -0.059,0.4824 4,4 0 0 0 0.4825,1.7695 4,4 0 0 0 0.027,0.1016 4,4 0 0 0 0.2324,0.2285 4,4 0 0 0 0.6172,0.791 c 0,0 2.3526,2.0982 3.7461,4.1211 0.474,0.688 0.534,0.9757 0.666,1.3203 -0.814,0.2117 -3.9147,0.8527 -7.8457,1.0137 -4.3691,0.179 -9.7255,0.011 -14.8437,-0.6524 -5.1182,-0.663 -10.0185,-1.8618 -13.3477,-3.4668 -3.3293,-1.605 -4.6219,-3.1737 -4.7851,-4.7734 -1.4353,-14.0724 -3.5948,-16.5612 -11.7266,-27.9219 -4.3373,-6.0596 -9.8992,-12.1326 -12.6777,-17.1504 -1.3893,-2.5088 -1.9938,-4.6207 -1.9082,-6.0742 0.086,-1.4535 0.5322,-2.5958 2.7343,-4.248 0.8216,-0.6158 1.296,-0.6693 2.918,-0.047 1.6233,0.6229 3.8833,2.1971 6.1152,4.293 4.4637,4.1918 8.8951,10.2861 11.2442,13.7851 3.1357,4.6708 8.4468,8.6757 12.7402,13.2383 4.2933,4.5626 7.0641,9.0153 6.6055,13.084 a 4,4 0 0 0 3.5273,4.4219 4,4 0 0 0 4.4238,-3.5274 c 0.8914,-7.9093 -3.9037,-14.3296 -8.7304,-19.459 -3.3088,-3.5162 -6.7926,-6.6873 -9.2637,-9.1992 -0.1938,-9.7962 -0.8653,-24.3596 -3.0215,-40.3281 -1.8223,-13.4869 0.01,-18.9275 0.9356,-20.127 0.4633,-0.5998 0.5463,-0.5284 0.8711,-0.5703 0.194,-0.025 0.562,0.05 0.8632,0.092 0.011,0.014 -3e-4,-4e-4 0.014,0.016 0.3445,0.4798 0.9006,1.4985 1.4688,2.8867 1.1366,2.7763 2.3888,7.0281 3.5859,12.2109 2.394,10.3656 4.6349,24.5191 6.3223,39.4766 a 4.0004,4.0004 0 0 0 7.9726,-0.584 c 0,0 -0.3436,-10.1714 -0.6406,-21.4942 -0.2971,-11.3228 -0.5315,-24.0089 -0.3594,-28.207 0.1753,-4.1532 1.0999,-7.0728 2.0371,-8.6035 0.9375,-1.5313 1.4361,-1.5758 1.8321,-1.5625 z"
     id="path27314" /><path
     style="color:#000000;fill:#005dc7;-inkscape-stroke:none"
     d="m -2559.8369,2636.3633 c 0.5716,-0.01 0.9662,0.3516 1.0117,0.9219 1.6001,20.1435 7.8896,99.4009 9.6329,120.3378 0.9031,10.839 5.7869,21.8238 12.6152,30.3028 6.8283,8.4791 15.7861,14.7675 25.5371,14.3613 10.8746,-0.453 18.647,-9.3944 24.2988,-19.3555 3.5444,-6.2467 6.2893,-13.0828 8.4707,-19.416 6.409,2.1636 14.3923,3.8278 24.3242,4.4864 -0.9366,14.1475 -5.171,31.619 -18.7128,42.1269 -13.4568,10.4444 -25.4508,15.051 -35.6231,15.3477 -10.1723,0.2966 -18.7416,-3.5277 -26.0703,-10.9903 a 4.0004,4.0004 0 0 0 -6.834,3.2051 c 0,0 9.5386,94.3224 14.6055,144.457 l -158.6641,-4.5898 c -1.6425,-14.0377 -2.6862,-22.9645 -3.623,-30.9727 1.594,1.4565 3.3587,2.7967 5.3359,3.9297 -1.0189,3.1305 -1.0031,6.1312 0.2988,8.668 1.8394,3.5841 5.3266,5.2612 8.7403,6.2656 6.8274,2.0089 15.0695,1.6926 19.1426,1.8379 2.7973,0.099 5.4474,-0.055 7.9453,-0.5019 7.1497,-1.2826 13.0398,-5.2594 16.6543,-11.4883 1.2921,-2.231 1.7086,-4.5381 1.6113,-6.793 0.7177,-0.3848 1.394,-0.8163 2.0273,-1.2891 l 0.3828,7.3028 a 4.0004,4.0004 0 0 0 0,0.014 c 0.2673,4.818 4.3946,8.6346 9.2266,8.5098 l 29.1192,-0.7461 c 2.3842,-0.061 4.653,-1.0686 6.2968,-2.8047 1.6506,-1.7327 2.5369,-4.0565 2.4688,-6.4355 v -0.01 l -0.7305,-26.9941 c -0.1271,-4.8353 -4.1678,-8.7559 -8.998,-8.7559 l -20.0743,-0.01 c -3.9109,-3.8542 -8.3989,-7.9458 -13.1191,-12.1817 0.4273,0.051 0.8639,0.074 1.3047,0.062 l 29.1191,-0.7461 c 2.3829,-0.061 4.6514,-1.0664 6.2949,-2.8008 1.6547,-1.7359 2.5422,-4.0669 2.4708,-6.4511 l -0.418,-15.4668 a 4,4 0 0 0 0,-0.025 4,4 0 0 0 0,-0.012 l -0.3105,-11.4844 c -0.1271,-4.8353 -4.1679,-8.7559 -8.9981,-8.7559 l -29.8574,-0.012 c -2.4658,0 -4.8255,1.0166 -6.5234,2.7949 a 4.0004,4.0004 0 0 0 -0.016,0.018 c -1.6921,1.7928 -2.5726,4.2016 -2.4473,6.6543 a 4.0004,4.0004 0 0 0 0,0.01 l 0.7715,14.625 c -1.1743,-0.1687 -2.405,-0.3276 -3.7364,-0.4766 -1.3461,-0.1506 -2.8249,-0.2875 -4.3242,-0.4219 l -0.7519,-14.664 c -0.2495,-4.828 -4.3919,-8.6615 -9.2305,-8.5352 v 0 l -27.8594,0.7343 c -2.463,0.065 -4.797,1.1451 -6.4434,2.9668 -1.6548,1.8311 -2.4876,4.2709 -2.289,6.7364 l 1.3906,18.0429 c -0.581,-0.2895 -1.2031,-0.5757 -1.877,-0.8359 -1.6086,-0.6212 -3.6501,-1.1462 -5.8105,-1.125 -1.3637,0.013 -2.7763,0.2452 -4.1563,0.8066 l -8.9863,-98.8925 a 4.0004,4.0004 0 0 0 -5.3242,-3.4063 v 0 c -10.6677,3.7949 -20.7832,13.5448 -27.4238,26.4004 -6.6406,12.8554 -9.687,29.0162 -5.0879,45.5156 6.285,22.5183 27.381,34.7676 40.5039,40.5605 -0.097,0.8269 -0.1744,1.6503 -0.2559,2.4649 -0.3697,3.6975 -0.8939,7.1152 -2.6504,9.5742 -1.6668,2.3326 -3.2984,5.2737 -4.2578,8.5469 -5.7767,-1.5945 -14.4382,-5.5404 -25.8984,-15.2696 -11.9678,-10.1618 -22.7697,-22.3318 -29.3301,-35.7968 -6.5604,-13.4652 -8.9831,-28.0998 -4.4141,-44.0528 9.3056,-32.4906 35.0122,-53.9302 56.6114,-62.3769 a 4.0004,4.0004 0 0 0 2.5351,-3.9961 c 0,0 -5.1997,-76.5203 -6.6406,-97.6504 -0.018,-0.2911 0.079,-0.5531 0.2656,-0.752 a 4.0004,4.0004 0 0 0 0.016,-0.016 c 0.1729,-0.1862 0.4499,-0.3086 0.7207,-0.3086 h 56.3399 c 0.3546,0 0.6459,0.1642 0.8242,0.4336 a 4.0004,4.0004 0 0 0 0.019,0.029 c 2.9165,4.3183 9.6832,13.313 20.3829,13.5371 5.3936,0.1128 9.8738,-2.386 13.1679,-5.2207 3.2945,-2.8351 5.5892,-6.0884 6.9805,-8.3223 a 4.0004,4.0004 0 0 0 0.018,-0.027 c 0.173,-0.2831 0.4806,-0.4616 0.8281,-0.4668 10.1639,-0.1629 44.786,-0.6956 57.457,-0.8906 z"
     id="path27312" /><path
     style="color:#000000;fill:#ffb900;-inkscape-stroke:none"
     d="m -2564.9013,2618.5059 c 9.1325,-0.1022 16.7568,6.727 17.6562,15.8144 l 14.3711,145.1074 c -4.5239,-6.7563 -7.7224,-14.9642 -8.3476,-22.4687 -1.7368,-20.8586 -8.0289,-100.1646 -9.6289,-120.3086 -0.3745,-4.6877 -4.399,-8.3565 -9.1075,-8.2852 v 0 c -12.67,0.195 -47.2871,0.7276 -57.4629,0.8907 -3.0709,0.048 -5.9229,1.667 -7.5293,4.2949 l 0.018,-0.029 c -1.1186,1.7961 -3.0502,4.4571 -5.4082,6.4863 -2.358,2.0292 -4.9559,3.3446 -7.7812,3.2852 -5.8202,-0.1219 -11.5544,-6.5141 -13.918,-10.0137 l 0.019,0.031 c -1.6617,-2.5106 -4.4887,-4.0175 -7.4941,-4.0175 h -56.3399 c -2.485,0 -4.8657,1.0234 -6.5722,2.8554 -1.7083,1.8239 -2.571,4.2754 -2.4102,6.7442 a 4.0004,4.0004 0 0 0 0,0.012 c 1.3992,20.5187 6.1729,90.8083 6.4512,94.9043 -0.7121,0.3059 -1.4321,0.6608 -2.1484,0.9902 l -11.0039,-112.4375 c 3.8717,-2.0081 7.2441,-2.0722 7.2441,-2.0722 a 4.0004,4.0004 0 0 0 0.1328,0 z"
     id="path27304" /><path
     style="color:#000000;fill:#000000;-inkscape-stroke:none"
     d="m -2564.2412,2685.2891 -53.5371,0.4257 -72.4609,0.5743 a 4.0004,4.0004 0 0 0 -3.961,3.7617 c 0,0 -0.9361,14.7688 3.3731,29.8379 2.1546,7.5345 5.6308,15.2709 11.5117,21.289 5.8809,6.0182 14.293,10.1114 25.1074,10.1114 13.7349,0 23.9257,-7.7646 30.3516,-17.9922 6.0541,-0.7585 12.2189,-1.2592 15.3418,-1.0196 3.2954,0.2536 7.7206,2.231 10.8164,4.8321 3.0948,2.6003 4.3917,5.5427 4.1914,6.789 -0.096,0.5804 -0.3111,1.1246 -1.3848,1.9571 -1.0782,0.836 -3.0776,1.8114 -6.2148,2.5351 -12.4161,2.8653 -20.6582,1.9239 -20.6582,1.9239 a 4,4 0 0 0 -4.418,3.5332 4,4 0 0 0 3.5332,4.416 c 0,0 9.7579,1.0585 23.3418,-2.0762 3.9028,-0.9003 6.9641,-2.1843 9.3184,-4.0098 1.4164,-1.0983 2.5501,-2.4503 3.3281,-3.9277 8.792,-1.0205 15.303,-5.7213 19.4102,-11.7793 4.1229,-6.0812 6.1118,-13.4006 7.1054,-20.4277 1.9871,-14.0544 -0.1093,-27.3633 -0.1093,-27.3633 a 4.0004,4.0004 0 0 0 -3.9844,-3.3906 z"
     id="path27318" /><path
     style="color:#000000;fill:#ffffff;-inkscape-stroke:none"
     d="m -2621.7587,2693.7461 c 0.073,10.8492 -2.3351,23.976 -7.9883,33.8398 -5.401,9.4357 -13.0228,15.7012 -24.459,15.7012 -8.8855,0 -14.822,-3.0318 -19.3848,-7.7012 -4.5629,-4.6694 -7.6226,-11.183 -9.5429,-17.8984 -3.0024,-10.4991 -3.0956,-19.2681 -3.0352,-23.4316 l 32.0566,-0.2539 c -0.093,1.5596 -0.1159,3.1582 -0.061,4.789 0.035,1.0204 0.1003,2.0283 0.1953,3.0176 5.0817,-1.2481 10.7186,-1.3304 16.7793,-0.5195 -5.7719,3.1335 -10.5119,7.117 -14.2969,11.8711 2.9375,8.0209 7.9711,13.2834 13.502,13.0957 8.3996,-0.285 14.7956,-13.054 14.2715,-28.4981 -0.046,-1.3581 -0.144,-2.6908 -0.2891,-3.9941 z"
     id="path27322" /><path
     style="color:#000000;fill:#ffffff;-inkscape-stroke:none"
     d="m -2567.8466,2693.3184 c 0.4339,3.8003 1.1692,11.7869 -0.2188,21.6035 -0.8889,6.2872 -2.7164,12.5005 -5.8066,17.0586 -2.8124,4.148 -6.4568,7.0091 -12.0801,8.0566 -1.0496,-3.5286 -3.6598,-6.581 -6.6016,-9.0527 -4.2892,-3.6039 -9.753,-6.2532 -15.3476,-6.6836 -3.2096,-0.2466 -7.2691,-0.016 -11.5625,0.4219 4.1553,-10.0364 5.8041,-21.1994 5.7031,-31.0391 l 11.6777,-0.094 c -0.115,1.6897 -0.1501,3.4283 -0.09,5.2032 0.076,2.2527 0.2946,4.4379 0.6445,6.5273 4.498,-0.7933 9.3866,-0.7547 14.586,-0.059 -4.6764,2.538 -8.6724,5.6322 -12.0313,9.2422 2.9943,7.2597 7.7591,11.9292 12.9805,11.752 8.3996,-0.285 14.7956,-13.054 14.2715,-28.4981 -0.051,-1.5022 -0.1688,-2.9721 -0.3418,-4.4062 z"
     id="path27320" /><path
     style="color:#000000;fill:#000000;-inkscape-stroke:none"
     d="m -2561.2646,2673.2891 -141,1.9863 a 4.0150015,3.9867247 89.193132 0 0 -3.9277,4.0703 4.0150015,3.9867247 89.193132 0 0 4.041,3.957 l 141,-1.9863 a 4.0150015,3.9867247 89.193132 0 0 3.9297,-4.0703 4.0150015,3.9867247 89.193132 0 0 -4.043,-3.957 z"
     id="path27316" /><path
     style="color:#000000;fill:#ffb900;-inkscape-stroke:none"
     d="m -2738.8955,2629.3262 10.7071,109.4004 c -1.815,1.0351 -3.6254,2.1543 -5.4317,3.3359 -4.0312,-41.7247 -7.4948,-77.4286 -8.6054,-88.1875 -1.2663,-12.2831 0.5365,-19.7796 3.33,-24.5488 z"
     id="path27310" /><path
     style="color:#000000;fill:#0b0000;-inkscape-stroke:none"
     d="m -2638.208,2621.4824 c -5.8034,0 -10.1875,4.6224 -10.1875,9.8067 0,5.1842 4.3841,9.8086 10.1875,9.8086 5.8034,0 10.1895,-4.6244 10.1895,-9.8086 0,-5.1843 -4.3861,-9.8067 -10.1895,-9.8067 z"
     id="path27306" /><path
     style="color:#000000;fill:#000000;-inkscape-stroke:none"
     d="m -2668.8759,2760.3027 a 4,4 0 0 0 -0.8946,0.025 c -4.9824,0.7092 -9.1871,2.3784 -12.2715,5.2793 -3.0843,2.901 -4.7827,6.9432 -5.1503,11.3496 a 4,4 0 0 0 3.6523,4.3184 4,4 0 0 0 4.3184,-3.6543 c 0.03,-0.3547 0.069,-0.6937 0.1171,-1.0176 7.5543,10.5194 18.1905,17.8298 31.1563,22.0606 15.324,5.0001 33.8695,5.9067 55.1719,3.6015 a 4,4 0 0 0 3.5468,-4.4062 4,4 0 0 0 -4.4082,-3.5469 c -20.5774,2.2268 -38.0571,1.2395 -51.8281,-3.2539 -12.5619,-4.0989 -22.0418,-10.9683 -28.6152,-21.2813 1.4034,-0.6741 3.1854,-1.2068 5.4375,-1.5273 a 4,4 0 0 0 3.3965,-4.5254 4,4 0 0 0 -3.6289,-3.4219 z"
     id="path27324" /><path
     style="color:#000000;fill:#ffffff;-inkscape-stroke:none"
     d="m -2638.208,2629.0977 c 0.824,0 1.8125,0.7482 1.8125,2.1914 0,1.4431 -0.9885,2.1933 -1.8125,2.1933 -0.824,0 -1.8105,-0.7502 -1.8105,-2.1933 0,-1.4432 0.9865,-2.1914 1.8105,-2.1914 z"
     id="path27308" /><path
     style="color:#000000;fill:#005dc7;fill-opacity:1;-inkscape-stroke:none"
     d="m -2684.3056,2965.5898 158.5351,4.586 c 0.6149,6.0851 1.6615,16.4203 2.0137,19.9101 a 4.0004,4.0004 0 0 0 0,0.02 c 0.03,0.2796 -0.06,0.5474 -0.2519,0.7558 -0.2003,0.2172 -0.4664,0.3295 -0.7559,0.3242 -25.8697,-0.467 -132.9901,-2.4023 -156,-2.8183 -0.5272,-0.01 -0.918,-0.3638 -0.9785,-0.8828 -0.5636,-4.8113 -1.4576,-12.4526 -2.5625,-21.8946 z"
     id="path27360" /><path
     style="color:#000000;fill:#000000;-inkscape-stroke:none"
     d="m -2605.4795,2969.4824 c -5.8033,0 -10.1875,4.6224 -10.1875,9.8067 0,5.1842 4.3842,9.8086 10.1875,9.8086 5.8034,0 10.1895,-4.6244 10.1895,-9.8086 0,-5.1843 -4.3861,-9.8067 -10.1895,-9.8067 z"
     id="path27364" /><path
     style="color:#000000;fill:#005dc7;fill-opacity:1;-inkscape-stroke:none"
     d="m -2605.4795,2977.0977 c 0.824,0 1.8125,0.7482 1.8125,2.1914 0,1.4431 -0.9885,2.1933 -1.8125,2.1933 -0.824,0 -1.8105,-0.7502 -1.8105,-2.1933 0,-1.4432 0.9865,-2.1914 1.8105,-2.1914 z"
     id="path27368" /><path
     style="color:#000000;fill:#000000;-inkscape-stroke:none"
     d="m -2542.2295,2969.9707 a 3.6438899,4.3246157 0 0 0 -0.7128,0.037 v 0 a 3.6438899,4.3246157 0 0 0 -2.4004,1.6875 3.6438899,4.3246157 0 0 0 0.7305,6.0527 l 2.4062,2.1426 -3.2363,2.9864 a 3.6438899,4.3246157 0 0 0 -0.6387,6.0683 3.6438899,4.3246157 0 0 0 5.1133,0.7559 l 7,-6.461 a 3.6442542,4.3250481 0 0 0 -0.051,-6.873 l -6.2207,-5.5371 a 3.6438899,4.3246157 0 0 0 -1.9883,-0.8594 z"
     id="path27366" /><path
     style="color:#000000;fill:#000000;-inkscape-stroke:none"
     d="m -2663.9755,2967.2402 a 3.9433346,4.0560002 0 0 0 -2.8516,1.0176 l -7,6.4004 a 3.9437289,4.0564058 0 0 0 0.023,6.084 l 6.2227,5.5996 a 3.9433346,4.0560002 0 0 0 5.5644,-0.3828 3.9433346,4.0560002 0 0 0 -0.373,-5.7227 l -2.8555,-2.5703 3.6582,-3.3457 a 3.9433346,4.0560002 0 0 0 0.3262,-5.7265 3.9433346,4.0560002 0 0 0 -2.7148,-1.3536 z"
     id="path27362" /><path
     style="color:#000000;fill:#0b0000;-inkscape-stroke:none"
     d="m -2564.9463,2900.2891 c -2.4618,0 -4.8196,1.0138 -6.5156,2.8007 -1.7091,1.7919 -2.5959,4.2108 -2.4707,6.6602 0.25,4.8911 0.6103,11.8839 0.9551,18.584 0.193,3.7494 0.3987,7.7679 0.5352,10.4004 0.2325,4.7553 4.2331,8.5489 8.9843,8.5489 h 20.8516 c 2.5046,0 4.8968,-1.0471 6.5996,-2.8789 1.7157,-1.8458 2.557,-4.3189 2.3789,-6.7911 -0.5997,-7.7004 -1.6789,-21.742 -2.2285,-28.9922 -0.3578,-4.6603 -4.3128,-8.3105 -8.9785,-8.3105 z"
     id="path27348" /><path
     style="color:#000000;fill:#0b0000;-inkscape-stroke:none"
     d="m -2559.206,2841.5137 c -11.1034,0 -20,9.4497 -20,20.7773 0,11.3277 8.8966,20.7774 20,20.7774 11.1033,0 20,-9.4497 20,-20.7774 0,-11.3276 -8.8967,-20.7773 -20,-20.7773 z"
     id="path27334" /><path
     style="color:#000000;fill:#00b1cd;-inkscape-stroke:none"
     d="m -2542.8603,2921.8926 c 0.4609,6.0008 0.9161,11.9627 1.2539,16.3008 0.022,0.3038 -0.075,0.5713 -0.2598,0.7695 -0.1972,0.2121 -0.4648,0.3262 -0.7402,0.3262 h -20.8516 c -0.5687,0 -0.9667,-0.3788 -0.9941,-0.9395 -0.1089,-2.101 -0.2787,-5.4167 -0.4277,-8.3106 5.3414,-4.4599 13.1835,-6.5072 22.0195,-8.1347 z"
     id="path27356" /><path
     style="color:#000000;fill:#00b1cd;-inkscape-stroke:none"
     d="m -2564.9463,2908.2891 h 20.1094 c 0.5543,0 0.9598,0.3741 1.002,0.9238 0.088,1.164 0.2462,3.1908 0.3574,4.6484 -7.6123,1.3269 -15.3174,2.9543 -21.8848,6.7637 -0.2122,-4.1364 -0.4283,-8.3138 -0.58,-11.2832 -0.015,-0.2856 0.081,-0.537 0.2675,-0.7324 a 4.0004,4.0004 0 0 0 0.012,-0.014 c 0.1834,-0.1938 0.4427,-0.3066 0.7167,-0.3066 z"
     id="path27354" /><path
     style="color:#000000;fill:#cf7df4;-inkscape-stroke:none"
     d="m -2569.3115,2869.2188 h 20.211 c -2.1432,3.5509 -5.8879,5.8496 -10.1055,5.8496 -4.2175,0 -7.9623,-2.299 -10.1055,-5.8496 z"
     id="path27344" /><path
     style="color:#000000;fill:#cf7df4;-inkscape-stroke:none"
     d="m -2559.206,2849.5137 c 6.2392,0 11.4466,5.0283 11.9551,11.7051 h -23.9102 c 0.5085,-6.6768 5.7158,-11.7051 11.9551,-11.7051 z"
     id="path27340" /></g></svg>
