<?xml version="1.0" encoding="utf-8"?>
<!-- Generator: Adobe Illustrator 27.9.0, SVG Export Plug-In . SVG Version: 6.00 Build 0)  -->
<svg version="1.1" id="Layer_1" xmlns="http://www.w3.org/2000/svg" xmlns:xlink="http://www.w3.org/1999/xlink" x="0px" y="0px"
	 viewBox="0 0 52 13.6" style="enable-background:new 0 0 52 13.6;" xml:space="preserve">
<style type="text/css">
	.st0{fill:#FFFFFF;}
</style>
<path class="st0" d="M5,1.3h1.1c0.7-0.1,1.4,0,2,0.3C9,2,9.6,2.8,9.8,3.7C10,4.2,10,4.2,10.4,4h0.3V0.2H0v0.7h0.4
	c0.4,0,0.8,0.2,1,0.5C1.9,2,1.9,2.8,1.9,6.6c0,4.1-0.1,5.1-0.5,5.6c-0.2,0.3-0.5,0.4-0.8,0.4C0,12.8,0,12.8,0,13c0,0.1,0,0.2,0,0.3
	h6.8c0.1-0.2,0.1-0.4,0-0.6c-0.2,0-0.3-0.1-0.5-0.1c-0.2,0-0.4-0.1-0.5-0.1c-0.5-0.4-0.8-1-0.7-1.6C4.9,10.2,4.9,9,4.9,8V7.2h0.4
	c0.5,0,1,0,1.5,0.2c0.5,0.3,0.8,0.8,0.9,1.3L7.7,9h0.6V4.6H7.7L7.7,5c-0.1,0.6-0.4,1-0.9,1.3C6.5,6.4,6.3,6.4,6,6.4H4.9V5.3
	c0-1.1,0.1-3.5,0.1-3.9L5,1.3z M51.8,9.2c-0.5-0.8-1.2-1.3-2.1-1.6c-0.7-0.2-1.3-0.5-1.8-1c-0.2-0.2-0.3-0.6-0.3-0.9
	c0-0.3,0.1-0.6,0.4-0.8c0.3-0.3,0.8-0.4,1.2-0.3c0.9,0.3,1.6,1,1.8,1.9c0.2,0.4,0.2,0.4,0.5,0.3l0.2-0.1V4.2l-0.1-0.1
	c-1-0.3-2-0.5-3.1-0.4c-0.9,0-1.8,0.4-2.4,1c-0.6,0.6-0.9,1.3-0.9,2.2c0,0.6,0.2,1.2,0.7,1.6c0.5,0.5,1.1,0.8,1.7,1
	c1.5,0.6,2,1,2,1.7c0,0.6-0.4,1.2-1,1.3c-0.3,0.1-0.7,0.1-1.1,0c-0.9-0.4-1.6-1.1-1.9-2.1l-0.1-0.3h-0.2c-0.1,0-0.2,0-0.2,0.1H45V13
	h0.2c0.7,0.2,1.4,0.4,2.1,0.5h1c0.4,0,0.9,0,1.3-0.1c1.1-0.2,2-1,2.4-2c0.1-0.3,0.2-0.6,0.2-0.9C52.1,10,52,9.6,51.8,9.2z M42.4,4
	c-1.2-0.5-2.6-0.5-3.8,0.1c-1.1,0.5-1.9,1.5-2.3,2.7c-0.2,0.6-0.3,1.3-0.3,2c0,0.4,0,0.7,0.1,1.1c0.3,1.8,1.8,3.3,3.6,3.6
	c0.6,0.1,1.2,0.1,1.8,0c0.6-0.1,1.2-0.3,1.7-0.6c0.4-0.2,0.8-0.6,1.1-1c0-0.1-0.1-0.2-0.2-0.3c-0.1,0-0.2,0.1-0.3,0.2
	c-0.5,0.3-1.1,0.5-1.7,0.5c-0.8,0.1-1.6-0.3-2.1-0.8c-0.2-0.2-0.4-0.4-0.5-0.7c-0.3-0.6-0.5-1.3-0.5-2V8.3h5.5V8.1
	c0-0.2,0-0.4,0-0.6C44.4,6.1,43.6,4.7,42.4,4z M39.6,7.5h-0.7V6.9c0.2-1.5,0.8-2.4,1.5-2.4s1,0.9,1.1,2.5v0.5h-0.6L39.6,7.5z
	 M25.2,3.7c-0.3,0-0.7,0.1-1,0.2c-0.7,0.3-1.2,0.9-1.5,1.6l-0.1,0.2v-2h-0.1c-0.1,0-3.8,0.7-3.9,0.8s-0.1,0.1-0.1,0.2s0,0.2,0.1,0.2
	L18.9,5c0.2,0,0.4,0.1,0.6,0.3c0.2,0.3,0.3,0.9,0.3,3.4c0,1.1,0,2.2-0.1,3.3c-0.1,0.3-0.3,0.6-0.7,0.6l-0.3,0.1h-0.1V13
	c0,0.1,0,0.2,0,0.3h5.6V13c0-0.1,0-0.2,0-0.3c-0.3,0-0.7-0.1-1-0.1c-0.4-0.2-0.6-0.6-0.5-1C22.5,11,22.4,9.3,22.5,8s0-1.4,0.1-1.5
	c0.3-0.3,0.7-0.4,1.2-0.4c0.4,0,0.8,0.1,1.1,0.3c0.1,0.1,0.3,0.1,0.4,0.2c0,0,1-2.4,1-2.5C26,3.8,25.6,3.6,25.2,3.7z M18.5,7.9
	c-0.1-1.4-0.8-2.8-2.1-3.6c-1.5-0.8-3.2-0.8-4.7-0.1c-1,0.5-1.8,1.5-2.2,2.6c-0.4,1.3-0.4,2.6,0,3.8c0.2,0.7,0.6,1.3,1.1,1.8
	c0.6,0.6,1.4,1,2.3,1.1c0.6,0,1.1,0,1.7,0c0.2,0,0.4-0.1,0.6-0.1c1.7-0.5,2.9-1.8,3.2-3.6C18.5,9.2,18.5,8.6,18.5,7.9z M14.3,12.9
	c-1,0.3-1.8-0.7-2-2.7c-0.1-1.1-0.1-2.1,0-3.2c0.2-1.6,0.7-2.5,1.5-2.5c0.3,0,0.6,0.1,0.8,0.4c0.7,0.7,1,2,1,4
	c0.1,1.1-0.1,2.3-0.5,3.3C15,12.5,14.7,12.7,14.3,12.9C14.3,12.8,14.3,12.9,14.3,12.9z M32.3,3.9c-0.3,0-0.6,0-0.8,0
	c-0.5,0-1.1,0.1-1.6,0.3l-0.3,0.1V2.2c0.1-0.7,0.1-1.5,0-2.2c-0.1,0-3.9,0.7-4,0.8c0,0.1,0,0.2,0,0.2c0,0.2,0,0.2,0.5,0.3
	c0.1,0,0.2,0.1,0.4,0.1c0.2,0.2,0.3,0.4,0.4,0.7c0.1,0.8,0.2,1.5,0.1,2.3v8.8l0.3,0.1c0.4,0.1,1.5,0.3,1.9,0.3
	c0.7,0.1,1.5,0.1,2.2,0c1.7-0.2,3.1-1.3,3.7-2.8c0.2-0.5,0.3-1,0.4-1.5c0.1-0.7,0-1.4-0.1-2.1C35.1,5.5,33.9,4.2,32.3,3.9
	C32.3,3.9,32.3,3.9,32.3,3.9z M29.7,12.7c0-0.1-0.1-4.5-0.1-6.3V5.1L29.9,5c0.2,0,0.4,0,0.6,0c0.2,0,0.4,0,0.6,0.1
	c0.8,0.5,1.2,1.4,1.3,2.3c0.1,0.7,0.1,1.5,0,2.2c-0.1,1.1-0.5,2.1-1.2,2.9c-0.2,0.2-0.4,0.3-0.7,0.4c-0.2,0-0.4,0-0.6,0
	C29.7,12.9,29.7,12.8,29.7,12.7L29.7,12.7L29.7,12.7z"/>
</svg>
