<?xml version="1.0" encoding="utf-8"?>
<!-- Generator: Adobe Illustrator 27.9.0, SVG Export Plug-In . SVG Version: 6.00 Build 0)  -->
<svg version="1.1" id="Layer_1" xmlns="http://www.w3.org/2000/svg" xmlns:xlink="http://www.w3.org/1999/xlink" x="0px" y="0px"
	 viewBox="0 0 737.2 633.2" style="enable-background:new 0 0 737.2 633.2;" xml:space="preserve">
<style type="text/css">
	.st0{fill:#FFFFFF;}
</style>
<g>
	<path class="st0" d="M94.7,38.6v92.1c0.6,21.6,18.6,38.6,40.2,38c20.8-0.6,37.5-17.3,38-38V38.6c0-21.3-17.3-38.6-38.6-38.6l0,0
		h-0.1c-21.4-0.4-39.1,16.7-39.5,38.1V38.6 M122.7,130.7V38.6c-0.1-5.8,4.6-10.7,10.4-10.7l0,0c0.4,0,0.7,0,1.1,0l0,0
		c5.7-0.1,10.5,4.4,10.6,10.2c0,0.2,0,0.4,0,0.5v92.1c-0.1,5.9-4.8,10.6-10.7,10.7c-6.1,0.3-11.3-4.5-11.6-10.6l0,0"/>
	<polygon class="st0" points="398.6,1.6 319.5,1.6 319.5,29.6 345.1,29.6 345.1,166.9 373.1,166.9 373.1,29.6 398.6,29.6 	"/>
	<path class="st0" d="M481,1.6v129.1c0.2,6-4.5,10.9-10.5,11.1s-10.9-4.5-11.1-10.5c0-0.2,0-0.4,0-0.7V1.6h-28.8v129.1
		c1,21.8,19.5,38.7,41.3,37.7c20.4-0.9,36.8-17.3,37.7-37.7V1.6H481z"/>
	<polygon class="st0" points="737.1,29.6 737.1,1.6 667.9,1.6 667.9,166.9 737.1,166.9 737.1,139 695.9,139 695.9,96.2 722.2,96.2 
		722.2,68.2 695.9,68.2 695.9,29.6 	"/>
	<path class="st0" d="M293.2,166.9h-29.6L243,88.8c0,0,18.1-3.3,18.1-22.2V41.1c0.2-6.2-4.8-11.4-11-11.5l0,0h-11.2v137.3h-28V1.6
		h38.8c21.2-0.2,38.7,16.6,39.5,37.8l0,0v26.3l0,0c0,16.4-5.8,27.9-15.6,36.2L293.2,166.9z"/>
	<polygon class="st0" points="605.3,1.6 605.3,92.1 576.5,1.6 547.7,1.6 547.7,166.9 576.5,166.9 576.5,86.3 602.8,166.9 
		634.1,166.9 634.1,1.6 	"/>
	<polygon class="st0" points="29.6,4.1 2.5,4.1 0,4.1 0,169.4 29.6,169.4 29.6,98.6 56.8,98.6 56.8,70.7 29.6,70.7 29.6,32.1 
		72.5,32.1 72.5,4.1 	"/>
	<path class="st0" d="M662,547.1c-0.2,8.4-7,15-15.4,14.9h-46.1c-8.4,0.1-15.2-6.5-15.4-14.9v-250c0.4-8.4,7.3-15,15.7-14.9H647
		c8.2-0.1,14.9,6.4,15,14.6l0,0c0,0.1,0,0.2,0,0.3V547.1z M657.7,208.4h-67.8c-43.8,0-79.3,34.3-79.3,76.7v271.4
		c0,42.3,35.5,76.7,79.4,76.7h67.8c43.8,0,79.4-34.3,79.4-76.7V285.1C737.1,242.7,701.5,208.4,657.7,208.4L657.7,208.4z
		 M407.2,547.1c-0.2,8.4-7.1,15-15.4,14.9h-46c-8.4,0.1-15.2-6.5-15.4-14.9v-250c0.4-8.4,7.4-15.1,15.8-14.9h46
		c8.2-0.1,14.9,6.5,15,14.7l0,0v0.2L407.2,547.1z M402.8,208.4H335c-43.8,0-79.2,34.3-79.2,76.7v271.4c0,42.3,35.6,76.7,79.4,76.7
		H403c43.8,0,79.4-34.3,79.4-76.7V285.1c0-42.3-35.5-76.7-79.4-76.7L402.8,208.4z M227.4,438.8c0-42.4-36.2-76.6-80.9-76.6H78.1V282
		h148.8v-73.6H0.8V439h134.3c8.5-0.3,15.6,6.4,15.9,14.9l0,0l0,0v93.2c-0.3,8.4-7.3,15.1-15.8,14.9H93.8
		c-8.4,0.2-15.5-6.5-15.7-14.9v-58.5h-76v67.8c0,42.3,36.3,76.7,80.9,76.7h63.6c44.6,0,80.9-34.3,80.9-76.7L227.4,438.8z"/>
</g>
</svg>
