<?xml version="1.0" encoding="utf-8"?>
<!-- Generator: Adobe Illustrator 27.9.0, SVG Export Plug-In . SVG Version: 6.00 Build 0)  -->
<svg version="1.1" id="Layer_1" xmlns="http://www.w3.org/2000/svg" xmlns:xlink="http://www.w3.org/1999/xlink" x="0px" y="0px"
	 viewBox="0 0 1878.8 342.9" style="enable-background:new 0 0 1878.8 342.9;" xml:space="preserve">
<style type="text/css">
	.st0{fill:#FFFFFF;}
</style>
<g>
	<g>
		<path class="st0" d="M0.5,0c98.3,0,195.9,0,294.1,0c0.1,1.7,0.3,3.2,0.3,4.8c0,110.8,0,221.6,0.2,332.4c0,4.4-1.2,5.7-5.6,5.7
			c-94.6-0.1-189.3-0.1-283.9,0c-4.4,0-5.6-1.3-5.6-5.7C0.1,226.4,0.2,115.6,0.2,4.8C0.2,3.2,0.4,1.7,0.5,0z M149.2,70.6
			c0.1-11.1,0.1-22.3,0.3-33.4c0.1-3.1-1.3-3.9-4.2-3.9c-34.6,0.1-69.3,0.1-103.9,0c-3,0-4.1,1.1-4.1,4.1c0.1,9.8,0.1,19.6,0,29.5
			c-0.1,3.6,1.6,4.4,4.8,4.4c8.7-0.2,17.3-0.1,26,0c6.6,0,6.6,0,6.6,6.5c0,21.1,0.1,42.3-0.1,63.4c0,3.9,1,5.3,5,5.1
			c6.1-0.3,12.3-0.1,18.5-0.1c4.6,0,9.2,0,14.4,0c0-25.4,0-49.9,0-75.2c12.6,0,24.5,0,36.5,0c0,24.9,0,49.8,0,74.5
			c1.1,0.4,1.4,0.6,1.7,0.6c35.7,0.1,71.3,0.1,107,0.2c3.1,0,3.5-1.6,3.5-4.1c-0.1-9.3-0.3-18.7,0.1-28c0.2-4.8-1.5-5.9-6-5.8
			c-20.7,0.2-41.3,0.1-62,0.1c-6.5,0-6.5,0-6.5-6.7c0-8.2,0.3-16.3-0.1-24.5c-0.2-5,1.6-6.1,6.3-6.1c21,0.2,42,0,63,0.2
			c3.7,0,5.4-0.8,5.3-5c-0.3-9.5-0.1-19-0.1-28.5c0-2.6-0.3-4.5-3.7-4.5c-22.7,0.1-45.3,0.1-68,0c-3,0-3.6,1.6-3.5,4.1
			c0.1,6.2,0,12.3,0,18.5c0,4.8,0,9.5,0,14.8C173.1,70.6,161.1,70.6,149.2,70.6z"/>
		<path class="st0" d="M354.2,293.7c0-82.7,0-165,0-248.2c1.9,0,3.8,0,5.7,0c40.3,0,80.7,0,121,0c56.3,0,94.1,30.1,106.4,84.9
			c6.1,27.4,6,54.9-0.9,82.2c-10.1,39.7-35.4,65-74.7,75.5c-12.8,3.4-26.2,5.3-39.4,5.5c-38,0.7-76,0.3-114,0.2
			C357.1,293.9,356,293.8,354.2,293.7z M431,229c13.7,0,26.9,1,39.9-0.2c19.6-1.8,32.6-13.3,39.2-31.7c5.1-14.2,5.7-29,3.1-43.8
			c-2.6-14.7-9.8-26.3-22.4-34.6c-18.6-12.2-39.3-8.1-59.8-9C431,149.9,431,189.5,431,229z"/>
		<path class="st0" d="M941,45.5c2,0,3.6,0,5.3,0c47.8,0,95.7-0.3,143.5,0.1c24.3,0.2,46.1,7.5,62.4,26.5
			c23.1,27,19.7,75.1-6.6,97.6c-4,3.4-8.7,6-13.5,9.2c15.2,7.1,24.4,19.5,29,34.9c3.1,10.4,4.5,21.4,6,32.3
			c1.7,11.9,2.4,23.8,3.9,35.7c0.5,3.9,2.1,7.6,3.2,11.7c-1.2,0.1-2.3,0.3-3.4,0.3c-22.8,0-45.7-0.1-68.5,0.1c-3.3,0-4.9-1-5.4-4.2
			c-2-14.5-3.8-29-6.1-43.5c-1.2-7.4-2.4-14.8-5-21.8c-3.6-9.8-11.3-16-21.9-16.4c-15.3-0.6-30.6-0.2-46.5-0.2c0,28.4,0,56.8,0,85.6
			c-25.8,0-51,0-76.6,0C941,211.1,941,128.7,941,45.5z M1017.5,153.7c10.9,0,21.4,0.1,31.8,0c7.1-0.1,14.4-0.2,21.4-1.2
			c12.1-1.7,19.4-10.3,19.7-22.1c0.3-12.9-5.7-20.8-18.2-23.7c-2.1-0.5-4.3-1-6.4-1c-15.6-0.3-31.3-0.6-46.9-0.8
			c-0.4,0-0.9,0.4-1.4,0.6C1017.5,121.3,1017.5,137.1,1017.5,153.7z"/>
		<path class="st0" d="M1186.1,45.8c25.7,0,51,0,76.9,0c0,2.3,0,4.5,0,6.6c0,47-0.1,94,0.3,141c0.1,8.2,1.7,16.6,4.2,24.4
			c3.2,9.8,10.7,16.3,21,17.9c7,1.1,14.4,1.4,21.3,0.2c14.6-2.5,21.7-13.2,24-26.7c1.6-9.6,1.9-19.6,1.9-29.4
			c0.2-42.5,0.1-85,0.1-127.5c0-2,0-4,0-6.4c25.5,0,50.7,0,76.5,0c0.1,1.8,0.3,3.5,0.3,5.3c0,49.7,0.3,99.3-0.2,149
			c-0.1,11.2-1.6,22.6-4.1,33.6c-6.6,28.5-24.1,48.2-51.8,57.3c-37.8,12.3-76.2,12.4-114-0.1c-31.9-10.5-48.9-34.3-54.3-66.9
			c-1.3-8.2-2.1-16.6-2.1-24.9c-0.2-49.8-0.1-99.7-0.1-149.5C1185.9,48.6,1186,47.5,1186.1,45.8z"/>
		<path class="st0" d="M704,210.7c25.3,0,50.4,0,75.5,0c1.1,5.1,2,10.1,3.4,15c2.5,8.3,8.4,13.4,16.7,15.7
			c11.1,3.1,22.3,4.2,33.5,1.1c8.4-2.3,15.3-6.7,17.2-16.2c1.5-7.8-0.5-13.2-7.7-16.7c-7.3-3.6-15-6.4-22.7-8.9
			c-18.7-5.9-37.7-11.1-56.4-17.1c-6.9-2.2-13.6-5.5-19.9-9.1c-23.3-13.6-32.9-34.2-30.2-60.9c3.3-32.6,21.4-54.4,51.2-65.3
			c36.1-13.2,72.8-12.3,108.2,2.8c28,11.9,44.2,37.9,44,69.5c-23.9,0-47.7,0-71.6,0c0.1-13.2-8-22.5-25.9-25
			c-8.4-1.2-16.7-0.4-24.5,3c-4.8,2.1-8.3,5.6-8.9,11.2c-0.6,5.8,2,10.6,7,12.8c10.3,4.5,20.8,8.9,31.6,11.9
			c20.4,5.6,41.2,9.4,60.7,18.2c19,8.5,34.6,20.9,39.8,42c8,32.8-1.1,65.5-32.2,85.5c-17.1,11-36.2,15.9-56,18.2
			c-31.6,3.7-62.4,0.9-90.8-14.4c-28.3-15.3-42-39.7-42.6-71.7C703.5,211.8,703.7,211.5,704,210.7z"/>
		<path class="st0" d="M1517.5,218.8c0,25.3,0,49.9,0,74.8c-25.7,0-51,0-76.6,0c0-82.6,0-165,0-247.8c1.5-0.1,2.9-0.3,4.3-0.3
			c43.2,0,86.3-0.2,129.5,0c35.4,0.2,66.8,19.9,78.4,51.2c12.7,34.2,10.1,67.1-15.3,95.3c-15,16.6-35.3,23.8-57.1,25.5
			c-18.6,1.5-37.3,0.9-55.9,1.2C1522.7,218.8,1520.5,218.8,1517.5,218.8z M1517.9,159.1c13.4,0,26.2,0.3,39-0.1
			c5.7-0.2,11.7-1.2,17-3.2c10.4-3.9,14.8-13.7,13.2-27.3c-1.1-9.5-7.3-16.6-17.7-17.4c-17-1.3-34.1-1.3-51.5-1.9
			C1517.9,126.4,1517.9,142.6,1517.9,159.1z"/>
		<path class="st0" d="M1733.2,109.6c-23.5,0-46.1,0-69.2,0c0-21.4,0-42.4,0-63.8c71.6,0,143,0,214.7,0c0,21,0,42.1,0,63.7
			c-22.7,0-45.5,0-68.7,0c0,61.6,0,122.7,0,184c-25.8,0-51,0-76.9,0C1733.2,232.4,1733.2,171.4,1733.2,109.6z"/>
		<path class="st0" d="M690.6,293.7c-25.5,0-50.6,0-76.1,0c0-82.6,0-165,0-247.8c25.4,0,50.6,0,76.1,0
			C690.6,128.4,690.6,210.7,690.6,293.7z"/>
	</g>
</g>
</svg>
