<?xml version="1.0" encoding="utf-8"?>
<!-- Generator: Adobe Illustrator 22.0.0, SVG Export Plug-In . SVG Version: 6.00 Build 0)  -->
<svg version="1.1" id="Layer_1" xmlns="http://www.w3.org/2000/svg" xmlns:xlink="http://www.w3.org/1999/xlink" x="0px" y="0px"
	 viewBox="0 0 1448.8 366.3" style="enable-background:new 0 0 1448.8 366.3;" xml:space="preserve">
<style type="text/css">
	.st0{fill:#1E8DF0;}
	.st1{fill:#FFFFFF;}
</style>
<g>
	<g>
		<path class="st0" d="M353.5,98c0.9-2.1,1.8-4.2,2.7-6.3c4.8-15.1-5.8-40.4-27.2-61.8C307.6,8.4,282.2-2.2,267.2,2.6
			c-2.1,1-4.2,1.9-6.3,2.7C208.9,27.1,150,27.1,98,5.4c-2-0.9-4-1.7-6-2.7l0,0C77-2.2,51.5,8.4,30,29.9s-32.1,47-27.2,62l0,0
			c0.9,2,1.8,4,2.6,6.1c40.9,18.8,84.2,30.6,128.1,35.5c2.9,0.3,5.7,0.6,8.6,0.9c2.9,0.3,5.7,0.5,8.6,0.7l0,0c1.7,0.1,3.3,0.2,5,0.3
			c5,0.3,10.1,0.5,15.1,0.6l0,0c12.5,0.3,24.9,0,37.4-0.9l0,0c5.7-0.4,11.5-0.9,17.2-1.5c-2.6,23.3-3.2,46.9-1.8,70.3l4.2,0.5
			c40.2,4.4,79.3,14.3,116.5,29.4C332.4,188.9,335.5,141.1,353.5,98z"/>
		<path class="st0" d="M267,356.1c15,4.9,40.5-5.7,62-27.2s32.1-46.9,27.2-62l0,0c-0.9-2-1.8-4-2.6-6.1
			c-40.9-18.8-84.2-30.6-128.1-35.5c-2.9-0.3-5.7-0.6-8.6-0.9c-2.9-0.3-5.7-0.5-8.6-0.7l0,0c-1.7-0.1-3.3-0.2-5-0.3
			c-5-0.3-10.1-0.5-15.1-0.6l0,0c-12.5-0.3-24.9,0-37.4,0.9l0,0c-5.7,0.4-11.5,0.9-17.2,1.5c2.6-23.3,3.2-46.9,1.8-70.3l-4.2-0.5
			C91,150,51.9,140.1,14.7,125c11.8,44.7,8.8,92.5-9.2,135.6c-0.9,2.1-1.8,4.2-2.7,6.3C-2,282,8.6,307.3,30,328.7
			s46.8,32.1,61.8,27.2c2.1-1,4.2-1.9,6.3-2.7c52-21.7,110.9-21.7,162.9,0C262.9,354.3,265,355.2,267,356.1L267,356.1"/>
	</g>
	<g>
		<g>
			<path class="st1" d="M526.7,150.6c0-29.8,0-59.6,0-89.4c6.1,0,12.2,0,18.4,0c0,11.4,0,22.8,0,34.2c0.2-0.1,0.3-0.1,0.3-0.1
				c3.7-3.6,8.2-5.3,13.2-5.7c5-0.4,9.9,0.1,14.5,2.1c6.4,2.9,10.1,8,11.6,14.7c0.6,2.7,0.8,5.5,0.8,8.2c0.1,11.7,0,23.4,0,35
				c0,0.3,0,0.6,0,1c-6.1,0-12.1,0-18.3,0c0-0.4,0-0.7,0-1c0-10.3,0-20.5,0-30.8c0-1.7-0.1-3.4-0.4-5c-0.7-4.6-3.9-6.9-8.6-7.6
				c-3.5-0.5-6.7,0.5-9.6,2.4c-2.2,1.4-3,3.6-3.3,6.1c-0.2,1.4-0.3,2.8-0.3,4.2c0,10.2,0,20.4,0,30.5c0,0.4,0,0.8,0,1.2
				C538.9,150.6,532.8,150.6,526.7,150.6z"/>
			<path class="st1" d="M653.5,127.1c-14.4,0-28.8,0-43.2,0c0.4,3.1,1.8,5.5,4.3,7.1c2.2,1.4,4.6,2.2,7.1,2.4
				c6.6,0.5,10.3-1.3,14.3-7c5,1.9,10,3.9,15.1,5.9c-0.2,0.4-0.3,0.8-0.5,1.2c-2.6,5.7-6.9,9.8-12.5,12.4
				c-8.3,3.8-16.8,4.3-25.5,1.4c-8.3-2.7-14.1-8.4-17.2-16.5c-3.4-9-3.4-18.2,0.3-27.1c4.2-9.8,11.8-15.4,22.4-17
				c5.7-0.9,11.4-0.6,16.9,1.5c9.6,3.6,15.1,10.8,17.4,20.6c0.6,2.4,0.8,5,0.9,7.5C653.6,121.9,653.5,124.4,653.5,127.1z
				 M634.8,114.5c0.1-4-2.4-7.7-6.1-9.1c-1.2-0.4-2.5-0.7-3.8-0.8c-3.4-0.3-6.7,0.2-9.6,2.3c-2.5,1.9-3.8,4.5-4.5,7.6
				C618.9,114.5,626.8,114.5,634.8,114.5z"/>
			<path class="st1" d="M474,81.1c-8.1,0-16,0-24,0c0-0.4,0-0.7,0-1c0-5.4,0-10.9,0-16.3c0-0.8,0.2-1,1-1c21.7,0,43.5,0,65.2,0
				c0.5,0,1,0,1,0.7c0,5.7,0,11.4,0,17c0,0.1,0,0.2-0.1,0.5c-7.9,0-15.8,0-23.8,0c0,23.3,0,46.4,0,69.6c-6.5,0-12.8,0-19.2,0
				C474,127.5,474,104.3,474,81.1z"/>
		</g>
		<g>
			<g>
				<g>
					<path class="st1" d="M912.9,255.6c-0.5,0-1,0-1.6,0c-9.5,0-19,0-28.5,0c-1.2,0-1.6-0.3-1.5-1.5c0.1-6.7,0.1-13.3,0-20
						c0-1.1,0.3-1.4,1.4-1.4c17.8,0,35.7,0,53.5,0c0.4,0,0.8,0,1.2,0.1c0,23.5,0,47,0,70.5c-0.4,0-0.8,0.1-1.2,0.1
						c-6.7,0-13.3,0-20,0c-0.9,0-1.2-0.2-1.4-1.2c-0.4-3-0.8-6.1-1.2-9.3c-0.2,0.1-0.4,0.2-0.5,0.3c-4.2,4.8-9.6,7.7-15.6,9.4
						c-14.4,4.1-28.7,3.6-42.3-3c-12.9-6.2-21.4-16.5-26.4-29.7c-4.1-10.7-5.1-21.8-4.2-33.1c0.9-10.4,3.8-20.1,9.3-28.9
						c9-14.2,21.9-22.5,38.4-25.2c12-1.9,23.9-1.2,35.3,3.3c13.1,5.2,23.1,13.7,28.6,27c0.3,0.7,0.5,1.3,0.8,2.2
						c-7.9,3.2-15.7,6.3-23.5,9.5c-0.2-0.3-0.3-0.5-0.4-0.7c-3.6-9-10.5-14.3-19.7-16.5c-7.8-1.9-15.6-1.7-23.2,1.5
						c-8,3.4-13.4,9.5-16.4,17.5c-4.5,11.9-4.7,24.1-0.1,36c4.1,10.6,12.5,16.4,23.7,18c8.3,1.2,16.4,0,23.7-4.3
						c7.4-4.3,10.9-11,11.7-19.4c0-0.2,0-0.5,0-0.7C913.1,255.9,913,255.9,912.9,255.6z"/>
					<path class="st1" d="M1238.7,295.9c0,0.7,0,1.2,0,1.6c0,14.3,0,28.6,0,42.9c0,1.5,0,1.6-1.6,1.6c-7.1,0-14.1,0-21.2,0
						c-1.1,0-1.4-0.2-1.4-1.4c0-38.9,0-77.8,0-116.7c0-0.4,0-0.8,0-1.3c0.5,0,0.9-0.1,1.3-0.1c6.6,0,13.3,0,19.9,0
						c0.9,0,1.3,0.2,1.4,1.2c0.2,1.9,0.5,3.8,0.8,5.8c0.2-0.1,0.3-0.1,0.4-0.2c5.2-5.1,11.5-8,18.7-8.9c8.3-1.1,16.5-0.4,24.4,2.9
						c11.7,4.9,18.6,13.8,21.5,26c2.4,10.4,2.4,20.8-1.2,31c-4.8,13.5-14.7,21.4-28.6,24.2c-9.6,1.9-19,1-27.8-3.8
						c-2-1.1-3.7-2.7-5.6-4.1C1239.4,296.6,1239.2,296.3,1238.7,295.9z M1239.1,262.7c0.2,1.6,0.3,3.3,0.6,4.9
						c0.2,1.2,0.6,2.5,1.1,3.7c3.2,7.2,9,10.8,16.6,11.5c12.3,1.2,21.7-6.6,22.3-18.6c0.6-11.8-6-20.1-17.4-21.5
						C1250,241.3,1239,248.8,1239.1,262.7z"/>
					<path class="st1" d="M1059.9,305.5c-6.9-0.2-13.6-1.4-20-4.3c-10.1-4.6-17-12.2-20.5-22.7c-3.5-10.3-3.5-20.7-0.1-31
						c4.7-14.2,14.8-22.8,29.2-26.1c9.7-2.2,19.4-1.8,28.7,1.8c14.5,5.7,22.5,16.6,24.9,31.8c1.4,8.6,0.7,17.2-2.6,25.3
						c-5.4,13.4-15.6,21.1-29.6,23.9C1066.7,305,1063.3,305.1,1059.9,305.5z M1041.8,262.8c0.4,2.4,0.5,4.8,1.1,7.1
						c2.1,8,8.2,12.9,16.3,13.1c8.2,0.3,14.6-4,17.1-11.7c1.9-5.6,1.9-11.3,0-17c-2.3-7-8.1-11.4-15.1-11.7
						c-8.1-0.4-14.2,3.2-17.4,10.2C1042.5,256,1042,259.3,1041.8,262.8z"/>
					<path class="st1" d="M1170.9,222.7c0.6,0,1.1,0,1.5,0c7.3,0,14.6,0,21.9,0c1.6,0,1.6,0,1.6,1.5c0,20.9,0,41.7,0,62.6
						c0,5.3,0.4,10.6,1.6,15.8c0,0.2,0,0.3,0.1,0.6c-0.4,0-0.9,0.1-1.3,0.1c-7.4,0-14.7,0-22.1,0c-1,0-1.5-0.3-1.6-1.3
						c-0.3-1.7-0.7-3.3-1.1-5c-0.2,0.1-0.3,0.1-0.4,0.2c-4,4.7-9.2,6.9-15.1,7.7c-8.4,1.1-16.5,0.2-24.2-3.3
						c-9.5-4.4-14.5-11.9-15.7-22c-0.3-2.8-0.5-5.7-0.5-8.5c0-15.6,0-31.3,0-46.9c0-0.5,0-0.9,0-1.5c8.4,0,16.6,0,25,0
						c0,0.6,0,1.1,0,1.6c0,13.8,0,27.7,0,41.5c0,1.9,0.1,3.8,0.4,5.7c0.9,6.5,4,10.1,11.7,11.5c5,0.9,9.6-0.6,13.7-3.5
						c2.6-1.9,3.7-4.7,4.1-7.7c0.3-1.9,0.4-3.8,0.4-5.7c0-13.9,0-27.8,0-41.7C1170.9,223.9,1170.9,223.4,1170.9,222.7z"/>
					<path class="st1" d="M979.1,231.4c0.7-1,1.2-1.8,1.8-2.5c3-3.7,7.1-5.4,11.6-6.5c5.6-1.3,11.2-1.1,16.8,0
						c0.7,0.1,1.2,0.3,1.2,1.2c0,7.1,0,14.2,0,21.3c0,0.2,0,0.3-0.1,0.6c-2-0.3-3.9-0.7-5.9-0.9c-3.5-0.4-7-0.3-10.3,0.7
						c-7.3,2.2-11.5,7.4-13.2,14.6c-0.7,2.9-0.9,6-1,9c-0.1,10.9,0,21.8,0,32.7c0,0.5,0,1,0,1.6c-8.5,0-16.9,0-25.4,0
						c0-0.5,0-0.9,0-1.4c0-25.9,0-51.7,0-77.6c0-1.1,0.3-1.5,1.4-1.5c6.9,0.1,13.7,0,20.6,0c1,0,1.3,0.3,1.4,1.3
						C978.4,226.4,978.7,228.7,979.1,231.4z"/>
				</g>
			</g>
			<path class="st1" d="M487.3,303.7c-8.8,0-17.4,0-26.1,0c0-0.5,0-0.9,0-1.4c0-38.8,0-77.6,0-116.4c0-1.1,0.3-1.5,1.5-1.5
				c15.6,0,31.2,0,46.8,0c6.7,0,13.2,0.8,19.3,3.5c11.3,5,18,13.7,20.5,25.7c1.8,8.6,1.6,17.3-1.3,25.7
				c-4.5,13.1-13.9,20.8-27.3,23.7c-3.4,0.7-6.9,1-10.3,1.1c-7.1,0.2-14.2,0.1-21.3,0.1c-1.6,0-1.6,0-1.6,1.6c0,12.1,0,24.1,0,36.2
				C487.3,302.6,487.3,303.1,487.3,303.7z M487.4,207.8c0,11.2,0,22.5,0,33.8c0.2,0.1,0.3,0.1,0.3,0.1c6.7,0,13.4,0.1,20.1-0.2
				c6.9-0.4,11.8-4.5,13.8-11.1c0.7-2.4,1-5,0.9-7.4c-0.3-8.3-6-14.6-14.3-15.1C501.4,207.4,494.5,207.8,487.4,207.8z"/>
			<path class="st1" d="M690.5,341.1c2.3-7.5,4.5-14.9,6.8-22.5c0.5,0.2,0.9,0.4,1.3,0.6c3.3,1.7,6.7,2.9,10.5,2.8
				c4.7-0.1,8-2.5,9.9-6.7c0.9-2.1,1.7-4.2,2.4-6.4c0.2-0.5,0-1.2-0.3-1.8c-6.7-16.6-13.4-33.1-20.1-49.6c-4.5-11-8.9-22-13.4-33
				c-0.1-0.4-0.3-0.7-0.5-1.2c0.5,0,0.9-0.1,1.3-0.1c7.9,0,15.8,0,23.7,0c1,0,1.4,0.3,1.7,1.2c6.3,16.7,12.5,33.4,18.8,50.1
				c0.2,0.5,0.4,1,0.7,1.8c0.3-0.6,0.4-1,0.6-1.3c6.2-16.8,12.5-33.6,18.6-50.5c0.4-1,0.8-1.3,1.8-1.3c7.8,0.1,15.5,0,23.3,0
				c0.4,0,0.8,0,1.4,0c-0.2,0.5-0.3,0.9-0.4,1.3c-13.1,33.2-26.2,66.3-39.4,99.5c-1.9,4.9-4.6,9.3-8.3,13.1c-5,5-11.2,7.5-18.3,7.9
				c-6.6,0.4-12.8-1.2-19.1-2.9C692.7,341.7,691.6,341.4,690.5,341.1z"/>
			<path class="st1" d="M597.6,306c-6.9-0.2-13.6-1.4-19.9-4.3c-10.1-4.7-17.1-12.3-20.6-22.8s-3.5-21.1,0.1-31.6
				c5-14.4,15.5-22.7,30.3-25.6c8.8-1.7,17.5-1.4,26,1.6c14.7,5.2,23.2,15.9,26,31.1c1.5,8,1.2,16-1.4,23.7
				c-4.9,14.9-15.4,23.6-30.6,26.7C604.3,305.5,600.9,305.6,597.6,306z M615.6,264.2c-0.4-2.8-0.5-5.1-1-7.4
				c-1.9-8.1-8-13.3-15.6-13.7c-8.7-0.4-15.3,3.8-18,11.8c-1.9,5.8-1.9,11.6,0.2,17.3c2.6,7.2,8.6,11.3,16.3,11.3
				c7.7,0.1,13.7-3.9,16.3-11.2C614.7,269.6,615,266.7,615.6,264.2z"/>
			<path class="st1" d="M653.2,303.7c0-0.6,0-1.1,0-1.6c0-39.4,0-78.9,0-118.3c0-1.7,0-1.7,1.7-1.7c7.4,0,14.7,0,22.1,0
				c1,0,1.3,0.2,1.3,1.3c0,39.7,0,79.4,0,119.2c0,0.4,0,0.7-0.1,1.1C669.8,303.7,661.6,303.7,653.2,303.7z"/>
		</g>
	</g>
</g>
</svg>
