<?xml version="1.0" encoding="utf-8"?>
<!-- Generator: Adobe Illustrator 27.8.1, SVG Export Plug-In . SVG Version: 6.00 Build 0)  -->
<svg version="1.1" id="Layer_1" xmlns="http://www.w3.org/2000/svg" xmlns:xlink="http://www.w3.org/1999/xlink" x="0px" y="0px"
	 viewBox="0 0 3302.7 3273.5" style="enable-background:new 0 0 3302.7 3273.5;" xml:space="preserve">
<style type="text/css">
	.st0{fill:#FFFFFF;}
	.st1{fill:#7537F8;}
</style>
<g>
	<g>
		<path class="st0" d="M67.3,1959.7l19.6,77.8l229.2-57.7l10.4,41.3l-229.2,57.7l19.6,77.8l-38.7,9.7l-49.5-196.8L67.3,1959.7z"/>
		<path class="st0" d="M14.2,1880.8l-2.8-42.5l117.2-7.8l-8.1-127.8l-117.5,7.8L0,1668.1l275.7-18.4l2.8,42.5l-120.6,8L166,1828
			l121-8.1l2.8,42.5L14.2,1880.8z"/>
		<path class="st0" d="M260,1410l39.6,4.7l-19.9,168.7L5.4,1551l19.9-168.7l40,4.7l-14.9,126.8l77.7,9.2l13.4-114l37,4.4l-13.4,114
			l80,9.4L260,1410z"/>
		<path class="st0" d="M296.4,881.2c50.7,24.3,63.7,71.9,37.2,127l-21.2,44.2l89.1,42.8l-28.1,58.6L125,1034.5l49.4-102.8
			C202.5,873.2,248.8,858.3,296.4,881.2z M281.6,997.2c11.7-24.3,4.4-41.7-14.1-50.6c-21.2-10.2-37.6-0.8-47.8,20.5l-16,33.2
			l62,29.8L281.6,997.2z"/>
		<path class="st0" d="M352.4,877.2c-69.5-51-80.9-130.6-29.9-200.1c51-69.5,130.3-82.5,199.9-31.5c69.9,51.3,81.3,130.8,30.2,200.3
			C501.5,915.5,422.2,928.5,352.4,877.2z M480.3,702.9c-41.1-30.1-83.7-24.7-109.1,10c-25.2,34.3-17.6,76.6,23.5,106.8
			c42,30.8,83.9,24.4,108.9-9.7C528.7,775.7,522.2,733.7,480.3,702.9z"/>
		<path class="st0" d="M649,717.5L460.1,517l47.3-44.6l149.3,158.4l94-88.6l39.6,42L649,717.5z"/>
		<path class="st0" d="M594,387.6l58.8-41.9l107.9,53.7L745,279.9l59.7-42.6l18.8,195.2l61.4,86L832,556.3l-61.4-86L594,387.6z"/>
		<path class="st0" d="M974.6,459.5L854,211.8l172.8-84.4l24.9,51.7L937.2,235l26.9,55l102.4-50.1l23.5,48.1l-102.4,50.1L1033,431
			L974.6,459.5z"/>
		<path class="st0" d="M1163,369.3l-81.8-263.1l190.5-59.3l16.9,54.4l-128.5,40l15.4,49.3l116.5-36.2l15.8,50.8l-116.5,36.2
			l16.7,53.7l131.7-41l17,54.8L1163,369.3z"/>
		<path class="st0" d="M1377.8,302.9l-33.2-273.5l72.8-8.8l126.8,158.8L1523.4,7.7l63.8-7.7l33.2,273.5l-72.8,8.8l-126.2-153.9
			l20.2,166.7L1377.8,302.9z"/>
		<path class="st0" d="M2095,178.6l-31.3,153l-36.1-7.4l4.8-33.1c-22.5,21-59.3,26.3-93.5,19.3c-75.6-15.5-114.5-83.1-97.9-164.3
			c16.8-82.3,80.6-130.5,161-114.1c57,11.6,93.4,49.7,100,96.9l-40.4,7.7c-5.9-37.7-33.4-58.4-67.3-65.3
			c-55.8-11.4-98.9,22.8-111.5,84.3c-12.9,63.3,16.6,106.6,67.2,116.9c30.5,6.2,78.8,3.3,95.1-48l3.5-17.1l-86.7-17.7l7.5-36.5
			L2095,178.6z"/>
		<path class="st0" d="M2307.2,431.7l-43.7-18.5l-2.4-117l-60.9-25.8l-41.7,98.3l-39.2-16.6l107.8-254.4l97.6,41.4
			c57.9,25,77.4,66.6,56.7,115.6c-15.1,35.7-43.9,54-78.1,51.9L2307.2,431.7z M2339.9,237.5c11-25.9,2.5-49.7-30-63.5l-58.4-24.8
			l-36.6,86.4l58.8,24.9C2306.1,274.4,2329.1,263.1,2339.9,237.5z"/>
		<path class="st0" d="M2635.1,481.2c-46.9,68.8-124.8,87.8-190.7,42.9c-65.6-44.8-76.3-124.2-29.6-192.7
			c46.7-68.4,124.8-87.8,190.4-43.1C2671.1,333.2,2681.7,412.7,2635.1,481.2z M2598.6,456.3c34.7-50.9,28-103.7-16.3-133.9
			c-44.6-30.4-95.9-17.1-130.6,33.7C2417,407,2423.4,459.6,2468,490C2512.3,520.2,2564,507.2,2598.6,456.3z"/>
		<path class="st0" d="M2790.1,435.8l29.2,30.5l-127.6,122.3c-33.2,32.4-23.5,67.8,0.2,92.5c24.5,25.5,61.6,33.6,92.4,4.1
			l127.6-122.3l29.2,30.5l-128.7,123.3c-49.7,47.6-110.1,33.9-149.8-7.5c-38.6-40.3-51.9-101.4-1.1-150L2790.1,435.8z"/>
		<path class="st0" d="M3044.3,900.8c-44,28.5-94,20.5-124.7-27l-35.5-54.9l-81.4,52.6l-23.1-35.7l232-150l23.1,35.7l35.7,55.2
			C3101,823.9,3090,871.3,3044.3,900.8z M3020.8,863.1c23.3-15.1,32.8-41.6,13.6-71.3l-32-49.5l-87.1,56.3l31.4,48.5
			C2966.6,877.8,2995.9,879.2,3020.8,863.1z"/>
	</g>
	<g>
		<path class="st0" d="M3227,1270.8l-21.8-77.2l-227.5,64.3l-11.6-41l227.5-64.3l-21.8-77.2l38.4-10.9l55.2,195.3L3227,1270.8z"/>
		<path class="st0" d="M3282.4,1348.1l4.1,42.4l-116.9,11.2l11.8,127.5l117.3-11.2l4.1,42.4l-275,26.3l-4.1-42.4l120.3-11.5
			l-11.8-127.5l-120.7,11.5l-4.1-42.4L3282.4,1348.1z"/>
		<path class="st0" d="M3050.2,1825.8l-39.7-3.5l15-169.2l275.2,24.4l-15,169.2l-40.1-3.6l11.3-127.2l-78-6.9l-10.1,114.3l-37.1-3.3
			l10.1-114.3l-80.2-7.1L3050.2,1825.8z"/>
		<path class="st0" d="M3029.1,2355.5c-51.4-22.9-65.7-70-40.8-125.9l19.9-44.8l-90.3-40.2l26.4-59.4l251.7,112.1l-46.4,104.1
			C3123.2,2360.8,3077.3,2376.9,3029.1,2355.5z M3040.6,2239.1c-11,24.6-3.2,41.8,15.5,50.2c21.5,9.6,37.6-0.3,47.2-21.8l15-33.7
			l-62.8-28L3040.6,2239.1z"/>
		<path class="st0" d="M2973.3,2361c71,49,84.7,128.2,35.7,199.2c-49,71-127.9,86.3-198.9,37.3c-71.3-49.2-85-128.4-36-199.4
			C2823.1,2327.1,2902,2311.8,2973.3,2361z M2850.5,2539c41.9,28.9,84.4,22.2,108.8-13.1c24.2-35,15.4-77.1-26.5-106
			c-42.8-29.6-84.6-21.9-108.6,12.8C2800,2467.6,2807.6,2509.4,2850.5,2539z"/>
		<path class="st0" d="M2681.4,2529.2l194.7,194.9l-46,45.9L2676.2,2616l-91.4,91.3l-40.8-40.9L2681.4,2529.2z"/>
		<path class="st0" d="M2745.9,2857.4l-57.5,43.6l-109.4-50.6l19.1,119l-58.5,44.3l-24.5-194.6l-63.8-84.2l51.8-39.2l63.8,84.2
			L2745.9,2857.4z"/>
		<path class="st0" d="M2363.4,2796.5l127.7,244.1l-170.2,89.4l-26.3-51l112.7-59.2l-28.4-54.2l-100.9,53l-24.9-47.4l100.9-53
			l-48-91.5L2363.4,2796.5z"/>
		<path class="st0" d="M2177.7,2892.1l89.4,260.6l-188.7,64.7l-18.5-53.9l127.2-43.6l-16.8-48.9l-115.4,39.6l-17.3-50.3l115.4-39.6
			l-18.2-53.2l-130.5,44.8l-18.6-54.3L2177.7,2892.1z"/>
		<path class="st0" d="M1964.8,2964.6l41.1,272.4l-72.5,10.9L1802,3093l25.8,171l-63.5,9.6l-41.1-272.4l72.5-10.9l130.6,150.2
			l-25-166.1L1964.8,2964.6z"/>
		<path class="st0" d="M1247.9,3108.7l27.2-153.8l36.3,6.4l-4,33.3c22-21.6,58.6-27.8,93-21.7c76,13.5,116.6,80.1,102.2,161.7
			c-14.6,82.7-77.1,132.6-157.9,118.3c-57.2-10.1-94.7-47.3-102.6-94.2l40.1-8.7c6.9,37.5,35,57.5,69,63.5
			c56.1,9.9,98.3-25.4,109.2-87.2c11.3-63.6-19.4-106.1-70.3-115.1c-30.7-5.4-78.9-1.2-93.8,50.5l-3,17.2l87.2,15.4l-6.5,36.7
			L1247.9,3108.7z"/>
		<path class="st0" d="M1029.1,2861.2l44.2,17.4l5.5,116.9l61.5,24.2l39.1-99.4l39.6,15.6L1118,3193l-98.7-38.8
			c-58.6-23.4-79.1-64.6-59.7-114.1c14.2-36.1,42.5-55.2,76.7-54L1029.1,2861.2z M1001.5,3056.2c-10.3,26.2-1.2,49.8,31.7,62.7
			l59.1,23.2l34.3-87.4l-59.4-23.4C1034.3,3018.4,1011.6,3030.4,1001.5,3056.2z"/>
		<path class="st0" d="M700,2820.4c45.1-70,122.4-91.1,189.5-47.9c66.8,43,79.5,122.2,34.6,191.8c-44.9,69.6-122.4,91.1-189.2,48.1
			C667.9,2969.2,655.1,2890.1,700,2820.4z M737,2844.3c-33.3,51.8-25.2,104.4,19.8,133.4c45.4,29.2,96.4,14.6,129.7-37.1
			c33.3-51.8,25.6-104.2-19.8-133.4C821.7,2778.1,770.4,2792.5,737,2844.3z"/>
		<path class="st0" d="M546.2,2869.8l-30-29.7l124.3-125.6c32.3-33.2,21.7-68.4-2.6-92.4c-25.1-24.9-62.5-31.9-92.4-1.7L421.2,2746
			l-30-29.7l125.4-126.7c48.4-48.9,109.2-36.8,150,3.5c39.7,39.3,54.5,100,5.1,149.9L546.2,2869.8z"/>
		<path class="st0" d="M279.8,2411.7c43.3-29.6,93.4-23,125.4,23.7l36.9,53.9l79.9-54.8l24,35.1l-227.9,156.1l-24-35.1l-37.1-54.2
			C225.2,2490.1,235,2442.4,279.8,2411.7z M304.3,2448.8c-22.9,15.7-31.7,42.5-11.8,71.6l33.3,48.6l85.6-58.6l-32.6-47.7
			C358.2,2432.7,328.7,2432.1,304.3,2448.8z"/>
	</g>
	<g id="Octogon">
		<path class="st1" d="M2535.6,1361.4c-10-3.7-20-7.7-29.9-11.7c-244.1-100.2-439.2-295.3-539.4-539.4c-3.9-9.5-7.7-19.1-11.3-28.8
			h-0.1c-33.5-66.2-153-115.2-295.3-115.2s-261.8,49-295.3,115.2h-0.2c-3.6,9.7-7.4,19.3-11.3,28.8
			c73.2,197.6,177.4,380.1,306.8,541.6c8.4,10.5,17,21,25.6,31.3c8.6,10.3,17.4,20.6,26.2,30.8c0,0,0.1,0.1,0.1,0.1
			c5.2,5.9,10.4,11.8,15.6,17.7c15.7,17.6,31.7,34.9,48,51.9c0,0,0,0,0,0c40.5,42.2,82.8,82.5,126.8,120.9c0,0,0,0,0,0
			c20.3,17.7,41.1,35,62.1,51.9c-69.4,55.6-135,115.9-196.1,180.3c-22.5,18.8-48.7,35.4-56.5,29.7l13.8,16.7l0,0l12.3,15.3
			c118.4,147.7,215.1,310,288.3,483.2c108.9-187.3,277.5-335.5,479.8-418.5c9.9-4.1,19.8-8,29.9-11.7
			c65.9-33.8,114.7-153.1,114.7-295C2650.2,1514.5,2601.5,1395.3,2535.6,1361.4z"/>
		<path class="st1" d="M1633.9,1929.7c-8.6-10.3-17.4-20.6-26.2-30.8c0,0-0.1-0.1-0.1-0.1c-5.2-5.9-10.4-11.8-15.6-17.7
			c-15.7-17.6-31.7-34.9-48-51.9c0,0,0,0,0,0c-40.5-42.2-82.8-82.5-126.8-120.9c0,0,0,0,0,0c-20.3-17.7-41.1-35-62.1-51.9
			c68.6-55,133.5-114.5,194-178.1c22.6-19.5,49.8-36.9,57.9-31l-13.1-17.7h0l-12.3-15.3c-118.4-147.7-215.1-310-288.3-483.2
			c-108.9,187.3-277.5,335.5-479.8,418.5c-9.9,4.1-19.8,8-29.9,11.7c-65.9,33.8-114.7,153.1-114.7,295c0,141.9,48.7,261.2,114.7,295
			c10,3.7,20,7.7,29.9,11.7c244.1,100.2,439.2,295.3,539.4,539.4c3.9,9.5,7.7,19.1,11.3,28.8h0.1c33.5,66.2,153,115.2,295.3,115.2
			s261.8-49,295.3-115.2h0.2c3.6-9.7,7.4-19.3,11.3-28.8c-73.2-197.6-177.4-380.1-306.8-541.6
			C1651.1,1950.5,1642.6,1940.1,1633.9,1929.7z"/>
	</g>
</g>
</svg>
