<?xml version="1.0" encoding="utf-8"?>
<!-- Generator: Adobe Illustrator 27.0.0, SVG Export Plug-In . SVG Version: 6.00 Build 0)  -->
<svg version="1.1" id="Layer_1" xmlns="http://www.w3.org/2000/svg" xmlns:xlink="http://www.w3.org/1999/xlink" x="0px" y="0px"
	 viewBox="0 0 512 512" style="enable-background:new 0 0 512 512;" xml:space="preserve">
<style type="text/css">
	.st0{opacity:0.6;fill:#FFFFFF;}
</style>
<path class="st0" d="M96,191.1H32c-17.7,0-32,14.3-32,31.1v223.1c0,17.7,14.3,31.1,32,31.1h64c17.7,0,32-14.3,32-31.1V223.1
	C128,206.3,113.7,191.1,96,191.1z M512,227c0-36.9-30-66.9-67-66.9h-99.9c9.5-25,14.8-46.6,14.8-59.3C360,67,333.8,32,289.9,32
	c-46.6,0-59.4,32.4-69.6,58.5C188.7,171,160,156.9,160,184c0,12.8,10.4,24,24,24c5.3,0,10.6-1.7,15-5.3C275.8,141.4,257,80,289.9,80
	C306,80,312,92.8,312,100.8c0,7.4-7.6,39.5-25.5,71.6c-2,3.6-3.1,7.7-3.1,11.7c0,13.9,11.4,23.1,24,23.1H445
	c10.5,0.9,19,9.4,19,19.8c0,9.8-7.8,18-17.7,18.7c-12.7,0.9-22.4,11.4-22.4,23.9c0,15.5,11.4,16,11.4,28.9c0,25.4-35,12.3-35,42.1
	c0,11.2,6.4,13,6.4,22.2c0,22.7-29.8,13.8-29.8,40.6c0,4.5,1.1,6,1.1,9.5c0,10.5-8.5,19-19,19h-52.5c-25.6,0-51-8.5-71.5-23.8
	l-36.7-27.5c-4.3-3.2-9.4-4.8-14.4-4.8c-13.9,0-24,11.4-24,24c0,7.3,3.3,14.4,9.6,19.1l36.7,27.5C235,468.1,270.6,480,306.6,480
	h52.5c35.3,0,64.4-27.5,66.8-62.2c17.8-12.2,28.8-32.5,28.8-54.8c0-3-0.2-6.1-0.6-9.1c17.8-12.1,29.3-32.6,29.3-55.3
	c0-5.3-0.6-10.5-1.9-15.6C499.9,270.1,512,250.2,512,227z"/>
</svg>
