<?xml version="1.0" encoding="utf-8"?>
<!-- Generator: Adobe Illustrator 27.0.0, SVG Export Plug-In . SVG Version: 6.00 Build 0)  -->
<svg version="1.1" id="Layer_1" xmlns="http://www.w3.org/2000/svg" xmlns:xlink="http://www.w3.org/1999/xlink" x="0px" y="0px"
	 viewBox="0 0 512 512" style="enable-background:new 0 0 512 512;" xml:space="preserve">
<style type="text/css">
	.st0{fill:#FFFFFF;}
</style>
<path class="st0" d="M313.4,32.9c26,5.2,42.9,30.5,37.7,56.5l-2.3,11.4c-5.3,26.7-15.1,52.1-28.8,75.2h144c26.5,0,48,21.5,48,48
	c0,25.3-19.5,46-44.3,47.9c7.7,8.5,12.3,19.8,12.3,32.1c0,23.4-16.8,42.9-38.9,47.1c4.4,7.2,6.9,15.8,6.9,24.9
	c0,21.3-13.9,39.4-33.1,45.6c0.7,3.3,1.1,6.8,1.1,10.4c0,26.5-21.5,48-48,48h-73.5c-19,0-37.5-5.6-53.3-16.1l-38.5-25.7
	C176,420.4,160,390.4,160,358.3V320v-48v-24.9c0-29.2,13.3-56.7,36-75l7.4-5.9c26.5-21.2,44.6-51,51.2-84.2l2.3-11.4
	C262.1,44.6,287.4,27.7,313.4,32.9L313.4,32.9z M32,192h64c17.7,0,32,14.3,32,32v224c0,17.7-14.3,32-32,32H32c-17.7,0-32-14.3-32-32
	V224C0,206.3,14.3,192,32,192z"/>
</svg>
