<?xml version="1.0" encoding="utf-8"?>
<!-- Generator: Adobe Illustrator 27.9.0, SVG Export Plug-In . SVG Version: 6.00 Build 0)  -->
<svg version="1.1" id="Layer_1" xmlns="http://www.w3.org/2000/svg" xmlns:xlink="http://www.w3.org/1999/xlink" x="0px" y="0px"
	 viewBox="0 0 106.9 25.2" style="enable-background:new 0 0 106.9 25.2;" xml:space="preserve">
<style type="text/css">
	.st0{fill:#FFFFFF;}
</style>
<g>
	<path class="st0" d="M0,0v25.2h25.2V0H0z M13.4,14.3v5.2h-1.7l0-5.3L7.4,6.1h2l2.5,5.1c0,0.1,0.1,0.2,0.2,0.3
		c0.1,0.1,0.1,0.2,0.2,0.3l0.1,0.1V12c0.1,0.2,0.1,0.3,0.2,0.4c0.1,0.1,0.1,0.3,0.2,0.3c0.1-0.3,0.3-0.4,0.3-0.8
		c0.1-0.3,0.3-0.5,0.4-0.8l2.5-5.1h1.8L13.4,14.3z"/>
	<path class="st0" d="M35.2,8.8c1.1,0,2,0.3,2.7,0.9l-0.7,0.9c-0.6-0.4-1.3-0.7-2-0.7c-1.2,0-2.1,0.6-2.6,1.8
		c-0.3,0.7-0.4,1.6-0.4,2.8c0,0.9,0.1,1.7,0.4,2.3c0.6,1.3,1.5,2,2.9,2c0.8,0,1.5-0.2,2.1-0.7l0.7,0.9c-0.9,0.6-1.9,0.8-3,0.8
		c-1.3,0-2.3-0.5-3.2-1.6c-0.8-1-1.2-2.3-1.2-4s0.4-2.9,1.3-4C32.9,9.4,34,8.9,35.2,8.8L35.2,8.8z M39.3,15.8c0-1.3,0.3-2.3,0.9-3
		s1.4-1.1,2.4-1.1c1.1,0,2,0.4,2.7,1.3c0.5,0.7,0.7,1.7,0.7,2.9c0,1.4-0.4,2.5-1.2,3.3c-0.6,0.5-1.3,0.8-2.1,0.8
		c-1.1,0-1.8-0.4-2.5-1.1C39.5,18.2,39.3,17.1,39.3,15.8L39.3,15.8z M44.2,13.8c-0.4-0.6-0.8-1-1.6-1s-1.3,0.3-1.6,0.9
		c-0.3,0.4-0.4,1.1-0.4,2.1c0,1.2,0.1,2,0.5,2.5S42,19,42.7,19c0.8,0,1.4-0.4,1.7-1.2c0.1-0.4,0.2-1,0.2-1.7
		C44.6,15.1,44.5,14.3,44.2,13.8L44.2,13.8z M48.2,13.9c0-0.8-0.1-1.4-0.3-1.9l1.2-0.3c0.2,0.4,0.3,0.8,0.3,1.1V13
		c0.3-0.3,0.6-0.6,1-0.8c0.5-0.3,0.9-0.4,1.3-0.4c0.6,0,1.2,0.3,1.6,0.8c0.1,0.1,0.2,0.4,0.3,0.5c0.8-0.9,1.6-1.3,2.5-1.3
		c0.6,0,1.1,0.2,1.4,0.6c0.4,0.4,0.6,0.9,0.6,1.5v5.9h-1.3v-5.8c0-0.8-0.4-1.1-1-1.1c-0.4,0-0.8,0.1-1.1,0.4
		c-0.1,0.1-0.4,0.4-0.8,0.6l-0.1,0.1v5.7h-1.3v-5.5c0-0.5-0.1-0.9-0.2-1c-0.2-0.2-0.4-0.3-0.8-0.3c-0.6,0-1.2,0.4-2,1.1v5.8h-1.2
		L48.2,13.9z M60.3,8.6l1.3-0.3c0.1,0.6,0.2,1.2,0.2,2v2.6c0.7-0.7,1.5-1.1,2.3-1.1c0.9,0,1.7,0.4,2.2,1.1c0.6,0.7,0.8,1.7,0.8,2.9
		c0,1.3-0.3,2.3-0.8,3S64.9,20,64,20c-0.4,0-0.8-0.1-1.2-0.3c-0.4-0.2-0.7-0.4-0.9-0.7l-0.2,0.8h-1.2c0.1-0.4,0.2-1,0.2-2v-7.4
		C60.6,9.6,60.5,8.9,60.3,8.6L60.3,8.6z M62.3,13.4c-0.2,0.1-0.4,0.4-0.6,0.6V18c0.5,0.6,1.1,0.9,1.9,0.9c0.6,0,1.1-0.2,1.4-0.7
		c0.4-0.6,0.6-1.3,0.6-2.5c0-1-0.1-1.7-0.5-2.1c-0.3-0.4-0.8-0.6-1.5-0.6C63.2,12.9,62.7,13,62.3,13.4L62.3,13.4z M68.9,9.6
		c0-0.3,0.1-0.5,0.3-0.7s0.4-0.3,0.7-0.3s0.5,0.1,0.7,0.3s0.3,0.4,0.3,0.7s-0.1,0.5-0.3,0.7s-0.4,0.3-0.7,0.3s-0.5-0.1-0.7-0.3
		S68.9,9.8,68.9,9.6z M69.2,19.7V12l1.3-0.2v8L69.2,19.7z M73.2,13.9c0-0.6,0-0.9-0.1-1.1c0-0.2-0.1-0.4-0.3-0.8l1.2-0.4
		c0.2,0.4,0.3,0.8,0.3,1.2c0.8-0.8,1.6-1.2,2.5-1.2c0.4,0,0.8,0.1,1.1,0.3s0.6,0.5,0.8,0.9c0.1,0.3,0.2,0.6,0.2,0.9v5.9h-1.2v-5.3
		c0-0.6-0.1-1.1-0.3-1.3c-0.2-0.2-0.5-0.4-0.8-0.4c-0.3,0-0.7,0.1-1.1,0.4c-0.4,0.2-0.8,0.5-1.1,0.8v5.8h-1.2L73.2,13.9z M81.8,13.7
		l-0.6-0.9c1.1-0.7,2.1-1.1,3.3-1.1s1.8,0.4,2.2,1.2c0.1,0.3,0.1,0.7,0.1,1.3v0.4l-0.1,2.5v0.4c0,0.4,0,0.7,0.1,0.9
		c0.1,0.3,0.3,0.5,0.6,0.6L86.7,20c-0.6-0.2-0.9-0.6-1.1-1.1c-0.7,0.7-1.5,1.1-2.3,1.1s-1.4-0.2-1.9-0.6c-0.4-0.4-0.6-0.9-0.6-1.6
		c0-0.8,0.4-1.6,1.1-2.1c0.7-0.5,1.8-0.7,3-0.7h0.6v-0.6c0-0.6-0.1-1.1-0.3-1.2c-0.3-0.3-0.7-0.4-1.1-0.4c-0.4,0-0.9,0.1-1.5,0.4
		L81.8,13.7L81.8,13.7z M85.5,17.8l0.1-2H85c-1.1,0-1.8,0.2-2.3,0.6c-0.3,0.3-0.4,0.7-0.4,1.3c0,0.9,0.4,1.4,1.3,1.4
		C84.4,19.1,85.2,18.6,85.5,17.8L85.5,17.8z M90.8,12h2l-0.4,1h-1.6v5c0,0.4,0.1,0.7,0.2,0.9c0.1,0.1,0.4,0.3,0.8,0.3
		c0.3,0,0.6-0.1,0.8-0.1l0.1,0.8c-0.4,0.2-0.8,0.3-1.3,0.3c-1.2,0-1.8-0.6-1.8-1.8V13h-1.1v-1h1v-0.1c0-0.1,0.1-0.7,0.1-1.6V10
		l1.3-0.3C90.8,10.5,90.8,11.3,90.8,12L90.8,12z M94,15.8c0-1.3,0.3-2.3,0.9-3c0.6-0.7,1.4-1.1,2.4-1.1c1.1,0,2.1,0.4,2.7,1.3
		c0.5,0.7,0.7,1.7,0.7,2.9c0,1.4-0.4,2.5-1.2,3.3c-0.6,0.5-1.3,0.8-2.1,0.8c-1.1,0-1.8-0.4-2.5-1.1C94.4,18.2,94,17.1,94,15.8
		L94,15.8z M99,13.8c-0.4-0.6-0.8-1-1.6-1s-1.3,0.3-1.6,0.9c-0.3,0.4-0.4,1.1-0.4,2.1c0,1.2,0.1,2,0.5,2.5s0.8,0.8,1.6,0.8
		c0.8,0,1.4-0.4,1.7-1.2c0.1-0.4,0.2-1,0.2-1.7C99.4,15.1,99.3,14.3,99,13.8L99,13.8z M103.1,13.8c0-0.7-0.1-1.3-0.3-1.7l1.2-0.4
		c0.2,0.4,0.3,0.8,0.3,1.2v0.1c0.6-0.9,1.3-1.3,2.2-1.3c0.1,0,0.3,0,0.4,0.1l-0.5,1.3c-0.1-0.1-0.3-0.1-0.4-0.1
		c-0.3,0-0.6,0.1-0.9,0.3s-0.6,0.4-0.7,0.7c-0.1,0.3-0.1,0.6-0.1,0.8v4.9h-1.2L103.1,13.8z"/>
</g>
</svg>
