<?xml version="1.0" standalone="no"?>
<!DOCTYPE svg PUBLIC "-//W3C//DTD SVG 20010904//EN"
 "http://www.w3.org/TR/2001/REC-SVG-20010904/DTD/svg10.dtd">
<svg version="1.0" xmlns="http://www.w3.org/2000/svg"
 width="700.000000pt" height="700.000000pt" viewBox="0 0 700.000000 700.000000"
 preserveAspectRatio="xMidYMid meet">
<metadata>
Created by potrace 1.11, written by Peter Selinger 2001-2013
</metadata>
<g transform="translate(0.000000,700.000000) scale(0.100000,-0.100000)"
fill="#000000" stroke="none">
<path d="M3358 6995 c-2 -1 -34 -5 -73 -9 -38 -3 -83 -8 -100 -11 -420 -74
-682 -229 -752 -444 l-15 -47 57 -145 c158 -398 385 -840 604 -1174 36 -55 70
-108 76 -117 23 -39 124 -180 216 -303 306 -409 682 -806 1079 -1139 58 -49
109 -92 113 -96 10 -9 -7 -28 -78 -85 -28 -21 -52 -42 -55 -45 -3 -3 -36 -32
-75 -65 -87 -74 -158 -140 -348 -325 -82 -80 -154 -150 -160 -155 -30 -26
-118 -76 -136 -78 -27 -2 -26 -6 7 -42 27 -29 157 -194 197 -250 11 -15 29
-39 41 -54 47 -60 187 -265 264 -386 45 -71 90 -141 99 -155 18 -29 14 -22
126 -220 86 -153 251 -483 315 -633 l34 -77 39 62 c81 130 113 176 201 293 49
66 92 122 96 125 4 3 38 41 77 85 306 349 726 661 1148 852 132 60 160 72 207
89 49 17 98 52 151 107 144 150 241 414 277 747 8 79 6 432 -3 447 -3 4 -8 35
-11 67 -4 32 -8 62 -10 65 -2 3 -7 22 -10 41 -8 53 -54 207 -77 259 -97 218
-190 325 -330 381 -114 45 -354 160 -453 216 -80 46 -296 183 -306 194 -3 3
-30 23 -60 45 -155 112 -446 383 -560 522 -25 30 -52 62 -60 71 -9 9 -38 46
-65 82 -181 236 -350 530 -461 802 -54 131 -85 180 -149 234 -155 131 -356
207 -690 259 -39 7 -381 15 -387 10z"/>
<path d="M2169 6003 c-185 -325 -531 -709 -874 -969 -74 -57 -273 -194 -280
-194 -2 0 -39 -21 -82 -46 -79 -47 -310 -163 -393 -198 -25 -10 -61 -25 -80
-33 -137 -57 -216 -136 -299 -301 -108 -214 -156 -447 -155 -757 0 -253 24
-417 86 -600 57 -168 124 -283 218 -375 48 -48 74 -63 176 -104 585 -238 1090
-621 1468 -1116 191 -250 347 -521 462 -802 63 -154 112 -216 231 -294 85 -54
224 -117 313 -140 192 -49 318 -66 515 -69 148 -2 192 1 330 20 82 11 215 43
290 68 259 89 413 211 470 373 l18 49 -58 145 c-101 255 -251 573 -385 815
-49 89 -196 330 -249 408 -25 38 -50 76 -56 85 -45 77 -259 364 -377 507 -77
94 -138 167 -150 178 -7 8 -40 45 -73 83 -78 89 -376 388 -485 486 -120 108
-135 121 -232 201 -49 39 -88 74 -88 78 0 4 17 19 38 35 36 28 227 192 306
264 22 19 114 108 205 198 168 166 246 227 300 238 l31 6 -22 32 c-12 17 -25
33 -28 36 -4 3 -57 72 -120 154 -355 465 -637 934 -860 1431 -40 88 -74 161
-75 163 -2 2 -18 -23 -36 -55z"/>
</g>
</svg>
