<?xml version="1.0" standalone="no"?>
<!DOCTYPE svg PUBLIC "-//W3C//DTD SVG 20010904//EN"
 "http://www.w3.org/TR/2001/REC-SVG-20010904/DTD/svg10.dtd">
<svg version="1.0" xmlns="http://www.w3.org/2000/svg"
 width="700.000000pt" height="700.000000pt" viewBox="0 0 700.000000 700.000000"
 preserveAspectRatio="xMidYMid meet">
<metadata>
Created by potrace 1.11, written by Peter Selinger 2001-2013
</metadata>
<g transform="translate(0.000000,700.000000) scale(0.100000,-0.100000)"
fill="#000000" stroke="none">
<path d="M3477 6995 c-1 -1 -54 -5 -117 -9 -63 -3 -124 -8 -135 -11 -11 -2
-36 -6 -55 -9 -64 -8 -168 -34 -252 -61 -264 -87 -421 -209 -482 -375 l-17
-46 47 -119 c148 -380 332 -748 543 -1088 47 -77 91 -146 96 -155 86 -141 329
-469 498 -672 212 -254 533 -579 782 -791 22 -19 45 -39 51 -44 6 -6 39 -33
73 -60 33 -28 61 -52 60 -55 0 -3 -25 -25 -55 -50 -31 -25 -68 -56 -84 -70
-15 -14 -40 -34 -54 -46 -59 -47 -200 -178 -354 -329 -165 -162 -269 -244
-309 -245 -26 0 -28 -6 -10 -24 6 -7 24 -28 38 -47 15 -19 53 -68 86 -109 344
-439 664 -969 897 -1487 l69 -152 49 82 c46 75 116 179 145 217 7 8 39 51 72
94 156 205 432 479 626 621 22 17 42 32 45 36 13 15 207 143 300 199 118 70
382 200 508 250 135 53 226 151 311 332 21 46 42 94 45 108 4 14 11 34 16 45
14 33 58 225 64 285 4 30 9 69 11 85 6 38 7 373 1 400 -2 11 -7 49 -11 85 -21
202 -105 442 -206 591 -68 101 -131 148 -275 208 -305 127 -560 275 -814 470
-47 36 -90 70 -96 76 -7 5 -36 30 -65 55 -70 59 -279 269 -349 350 -30 35 -88
107 -127 159 -40 53 -76 101 -81 106 -10 13 -100 151 -128 195 -85 136 -178
320 -254 502 -62 149 -109 210 -221 283 -135 89 -355 169 -524 191 -22 2 -50
7 -61 9 -12 3 -66 7 -120 11 -55 3 -116 7 -137 8 -20 1 -38 2 -40 1z"/>
<path d="M2181 6017 c-111 -196 -329 -474 -525 -671 -331 -331 -715 -587
-1151 -767 -121 -50 -135 -58 -200 -124 -154 -154 -244 -387 -291 -749 -8 -64
-8 -337 0 -401 4 -27 9 -70 12 -95 20 -170 95 -402 172 -529 91 -150 137 -188
330 -270 515 -220 915 -507 1283 -921 112 -126 275 -344 344 -462 5 -10 29
-50 53 -90 63 -107 151 -285 213 -432 41 -100 65 -142 102 -182 55 -60 160
-133 253 -174 70 -32 234 -86 286 -95 18 -3 40 -8 48 -10 21 -6 67 -13 125
-20 28 -3 66 -7 85 -10 45 -6 314 -6 360 0 19 3 58 7 85 10 91 10 246 45 329
74 251 88 404 204 462 351 l25 66 -44 114 c-89 231 -259 595 -378 810 -57 103
-212 361 -268 443 -25 38 -50 76 -56 85 -66 106 -293 407 -430 573 -171 206
-476 522 -669 694 -44 39 -84 75 -90 80 -6 6 -51 44 -101 85 -106 88 -119 100
-114 104 2 2 38 32 79 66 174 145 262 225 475 433 168 163 215 201 280 226
l44 17 -84 109 c-47 61 -97 126 -113 145 -285 363 -630 941 -836 1405 -32 72
-61 135 -65 142 -4 7 -15 -4 -30 -30z"/>
</g>
</svg>
