<?xml version="1.0" standalone="no"?>
<!DOCTYPE svg PUBLIC "-//W3C//DTD SVG 20010904//EN"
 "http://www.w3.org/TR/2001/REC-SVG-20010904/DTD/svg10.dtd">
<svg version="1.0" xmlns="http://www.w3.org/2000/svg"
 width="700.000000pt" height="700.000000pt" viewBox="0 0 700.000000 700.000000"
 preserveAspectRatio="xMidYMid meet">
<metadata>
Created by potrace 1.11, written by Peter Selinger 2001-2013
</metadata>
<g transform="translate(0.000000,700.000000) scale(0.100000,-0.100000)"
fill="#000000" stroke="none">
<path d="M3488 6995 c-2 -1 -55 -5 -118 -9 -173 -9 -284 -29 -440 -78 -271
-86 -432 -209 -494 -379 l-17 -46 36 -94 c158 -404 403 -889 606 -1198 27 -41
49 -75 49 -77 0 -12 220 -319 329 -459 285 -367 647 -746 976 -1021 39 -33 81
-68 93 -79 13 -11 33 -28 45 -38 24 -20 25 -18 -68 -91 -28 -22 -54 -44 -60
-50 -5 -6 -26 -24 -45 -40 -64 -51 -223 -199 -373 -346 -82 -80 -154 -150
-160 -155 -26 -23 -121 -77 -138 -78 -21 -1 -25 -12 -9 -22 8 -5 51 -59 223
-280 205 -264 479 -707 661 -1070 94 -186 116 -232 184 -387 l25 -58 61 100
c86 141 199 293 321 434 226 263 581 558 875 729 67 39 356 184 382 193 31 9
101 39 164 70 145 71 278 292 344 572 27 115 28 118 35 185 4 32 9 68 11 80 6
28 7 394 1 404 -3 5 -8 37 -12 73 -15 143 -75 350 -138 475 -83 166 -169 253
-308 309 -297 121 -661 329 -854 487 -244 200 -418 371 -566 555 -112 139
-177 229 -275 384 -79 125 -199 366 -269 537 -59 144 -164 243 -343 325 -107
48 -284 100 -387 114 -22 3 -53 7 -70 9 -16 3 -70 8 -120 11 -49 3 -105 7
-122 8 -18 2 -34 2 -35 1z"/>
<path d="M2181 6017 c-109 -194 -328 -474 -525 -671 -344 -344 -749 -609
-1213 -793 -54 -21 -82 -41 -138 -97 -154 -156 -244 -387 -291 -751 -7 -56 -7
-354 0 -400 2 -16 8 -59 11 -95 4 -36 9 -68 11 -71 2 -3 10 -41 19 -83 31
-149 98 -313 175 -426 71 -104 136 -154 275 -209 93 -38 294 -135 386 -187 62
-35 114 -64 116 -64 2 0 9 -5 16 -10 7 -6 50 -35 97 -66 278 -185 543 -422
745 -668 22 -27 52 -63 66 -80 167 -203 357 -528 485 -830 46 -109 70 -151
107 -192 55 -60 160 -133 253 -174 58 -26 203 -78 235 -84 8 -1 41 -8 74 -15
80 -18 81 -18 155 -26 36 -4 76 -9 90 -11 27 -4 299 -5 340 0 122 13 168 19
185 23 11 2 31 6 45 9 331 66 584 222 655 403 l26 66 -36 95 c-94 243 -244
566 -376 810 -70 129 -217 372 -294 486 -22 32 -42 64 -45 70 -6 13 -171 245
-185 260 -5 6 -17 22 -25 34 -8 12 -20 28 -25 34 -6 6 -32 38 -57 72 -196 257
-529 613 -798 854 -58 52 -107 96 -110 100 -3 3 -43 37 -90 75 -110 90 -114
95 -104 104 5 5 52 44 104 87 52 43 100 83 106 89 6 5 46 42 89 80 43 39 146
136 229 217 83 80 167 160 186 178 36 32 99 69 136 79 20 6 17 12 -43 91 -35
47 -72 94 -81 105 -9 11 -30 38 -47 60 -16 22 -33 45 -38 50 -30 37 -146 202
-228 325 -228 343 -432 715 -593 1079 -26 58 -48 106 -49 107 -1 2 -13 -16
-26 -39z"/>
</g>
</svg>
