<?xml version="1.0" standalone="no"?>
<!DOCTYPE svg PUBLIC "-//W3C//DTD SVG 20010904//EN"
 "http://www.w3.org/TR/2001/REC-SVG-20010904/DTD/svg10.dtd">
<svg version="1.0" xmlns="http://www.w3.org/2000/svg"
 width="700.000000pt" height="700.000000pt" viewBox="0 0 700.000000 700.000000"
 preserveAspectRatio="xMidYMid meet">
<metadata>
Created by potrace 1.11, written by Peter Selinger 2001-2013
</metadata>
<g transform="translate(0.000000,700.000000) scale(0.100000,-0.100000)"
fill="#000000" stroke="none">
<path d="M3457 6995 c-1 -2 -49 -5 -107 -9 -58 -3 -118 -8 -135 -11 -16 -3
-46 -8 -65 -11 -19 -3 -48 -8 -64 -11 -65 -11 -236 -67 -314 -104 -169 -78
-282 -182 -328 -300 l-26 -66 47 -119 c297 -761 742 -1479 1299 -2099 191
-213 502 -511 731 -699 33 -27 64 -53 69 -57 5 -4 -6 -21 -25 -36 -167 -139
-343 -297 -496 -447 -160 -157 -273 -255 -295 -256 -4 0 -19 -5 -33 -10 -22
-8 -24 -12 -13 -24 7 -7 27 -30 43 -51 76 -97 152 -194 170 -219 11 -15 38
-52 60 -81 22 -29 75 -104 117 -166 43 -63 81 -118 86 -124 4 -5 11 -17 15
-25 3 -8 36 -60 72 -115 36 -55 73 -116 83 -135 11 -19 43 -75 72 -125 29 -49
92 -166 140 -260 78 -152 108 -214 204 -427 14 -32 28 -58 30 -58 2 0 31 44
64 98 56 91 226 324 304 416 40 47 278 287 333 336 136 121 317 255 470 349
55 34 107 66 115 71 59 37 312 159 411 200 136 55 185 89 253 174 90 113 183
334 212 506 3 14 9 49 14 78 15 85 24 227 23 357 -4 340 -95 668 -240 860 -46
60 -140 145 -162 145 -6 0 -19 4 -29 10 -9 5 -57 26 -107 47 -124 51 -325 153
-440 222 -47 29 -233 151 -255 168 -215 166 -280 222 -431 375 -112 113 -298
331 -346 405 -10 16 -26 37 -35 47 -10 11 -18 25 -18 32 0 7 -4 14 -9 16 -17
6 -166 257 -239 403 -22 44 -58 125 -81 180 -23 55 -53 124 -68 153 -30 60
-122 149 -206 200 -52 31 -204 101 -230 106 -7 1 -39 10 -72 20 -33 10 -69 20
-80 22 -11 2 -42 8 -70 14 -27 6 -66 12 -85 14 -63 8 -328 24 -333 21z"/>
<path d="M2174 6003 c-292 -497 -812 -991 -1331 -1263 -32 -17 -65 -35 -73
-40 -23 -15 -176 -84 -275 -125 -113 -46 -168 -83 -225 -152 -108 -130 -189
-325 -235 -563 -25 -131 -35 -387 -22 -545 24 -284 120 -570 243 -720 65 -81
89 -100 164 -136 36 -16 73 -34 82 -40 10 -5 22 -9 28 -9 17 0 272 -124 373
-181 626 -356 1115 -879 1427 -1524 42 -88 92 -197 110 -243 39 -99 98 -169
200 -237 97 -64 260 -134 374 -160 23 -5 97 -21 136 -30 14 -3 52 -8 85 -11
33 -3 68 -8 78 -10 22 -7 342 -6 377 0 14 3 48 7 75 11 397 48 708 215 791
425 l25 66 -46 119 c-91 238 -282 644 -395 840 -34 60 -112 193 -135 229 -11
18 -33 54 -50 82 -150 249 -459 659 -702 931 -202 226 -528 540 -738 709 -83
67 -89 74 -79 83 5 5 52 44 104 87 159 131 246 211 435 398 77 76 158 153 180
171 52 43 135 86 148 78 10 -6 -30 56 -43 67 -3 3 -28 34 -55 70 -28 36 -52
67 -55 70 -10 10 -76 96 -93 120 -9 14 -30 43 -46 65 -84 112 -291 431 -382
585 -114 195 -290 537 -363 705 -26 61 -51 114 -56 118 -4 5 -21 -13 -36 -40z"/>
</g>
</svg>
