<?xml version="1.0" encoding="utf-8"?>
<!-- Generator: Adobe Illustrator 27.8.1, SVG Export Plug-In . SVG Version: 6.00 Build 0)  -->
<svg version="1.1" id="Layer_1" xmlns="http://www.w3.org/2000/svg" xmlns:xlink="http://www.w3.org/1999/xlink" x="0px" y="0px"
	 viewBox="0 0 256 256" style="enable-background:new 0 0 256 256;" xml:space="preserve">
<style type="text/css">
	.st0{fill:none;}
	.st1{fill:#7537F8;}
</style>
<rect class="st0" width="256" height="256"/>
<path class="st1" d="M232,88.9V56c0-8.8-7.2-16-16-16H40c-8.8,0-16,7.2-16,16v128c0,8.8,7.2,16,16,16h112v24c0,4.4,3.6,8,8,8
	c1.2,0,2.5-0.3,3.6-0.8l28.4-14.2l28.4,14.2c4,2,8.8,0.4,10.7-3.6c0.6-1.1,0.8-2.3,0.8-3.6v-56.9C253.3,145.4,253.3,110.6,232,88.9z
	 M128,144H72c-4.4,0-8-3.6-8-8s3.6-8,8-8h56c4.4,0,8,3.6,8,8S132.4,144,128,144z M128,112H72c-4.4,0-8-3.6-8-8s3.6-8,8-8h56
	c4.4,0,8,3.6,8,8S132.4,112,128,112z M216,211.1l-20.4-10.2c-2.3-1.1-4.9-1.1-7.2,0L168,211.1v-32.5c15.2,7.2,32.8,7.2,48,0V211.1z
	 M192,168c-22.1,0-40-17.9-40-40s17.9-40,40-40s40,17.9,40,40S214.1,168,192,168z"/>
</svg>
