<?xml version="1.0" encoding="utf-8"?>
<!-- Generator: Adobe Illustrator 27.8.1, SVG Export Plug-In . SVG Version: 6.00 Build 0)  -->
<svg version="1.1" id="Layer_1" xmlns="http://www.w3.org/2000/svg" xmlns:xlink="http://www.w3.org/1999/xlink" x="0px" y="0px"
	 viewBox="0 0 256 256" style="enable-background:new 0 0 256 256;" xml:space="preserve">
<style type="text/css">
	.st0{fill:none;}
	.st1{fill:#7537F8;}
</style>
<rect class="st0" width="256" height="256"/>
<path class="st1" d="M24.8,115.5C27.1,95.7,35.2,77,48.1,61.8c5.6-6.8,15.7-7.7,22.5-2.1c0.4,0.3,0.7,0.7,1.1,1l27.7,28.3
	c5.5,5.5,6.2,14.2,1.7,20.5l0,0c-1.7,2.4-2.9,5-3.7,7.8c-0.5,1.7-2.1,2.8-3.8,2.8H28.7c-2.2,0-4-1.8-4-4
	C24.7,115.9,24.7,115.7,24.8,115.5z M137.4,24.1c-8.8-0.8-16.6,5.7-17.3,14.5c0,0.5-0.1,0.9-0.1,1.4v40.7
	c-0.1,7.8,5.6,14.5,13.2,15.8c17.4,2.9,29.2,19.3,26.4,36.8c-1.9,11.5-9.9,21.1-21,25c-1.6,0.6-2.7,2.1-2.7,3.8v65.2
	c0,2.2,1.8,4,4,4c0.2,0,0.3,0,0.5,0c51.6-6.4,90.6-49.8,91.5-101.8C232.8,75.2,191.2,28.9,137.4,24.1z M117.2,158.2
	c-9.1-3.2-16.2-10.4-19.4-19.4c-0.6-1.6-2.1-2.7-3.8-2.7H28.7c-2.2,0-4,1.8-4,4c0,0.2,0,0.3,0,0.5c5.8,47.6,43.3,85.1,90.8,90.8
	c2.2,0.2,4.2-1.3,4.4-3.5c0-0.2,0-0.3,0-0.5V162C120,160.3,118.9,158.7,117.2,158.2z"/>
</svg>
