<svg width="32" height="32" viewBox="0 0 32 32" fill="none" xmlns="http://www.w3.org/2000/svg">
<path d="M30.9212 11.1438L26.2962 25.31C26.2497 25.4528 26.1717 25.5833 26.0678 25.6918C25.964 25.8003 25.8371 25.884 25.6964 25.9367C25.5558 25.9894 25.4051 26.0098 25.2556 25.9963C25.106 25.9828 24.9614 25.9358 24.8325 25.8588C24.8037 25.8413 21.6075 24 15.9975 24C10.3875 24 7.19125 25.8413 7.16 25.86C7.03113 25.9363 6.88677 25.9827 6.73758 25.9957C6.58839 26.0087 6.43818 25.9881 6.29804 25.9353C6.15789 25.8825 6.0314 25.7989 5.92789 25.6907C5.82438 25.5825 5.7465 25.4524 5.7 25.31L1.0775 11.14C0.984358 10.8563 0.977181 10.5515 1.05687 10.2638C1.13655 9.97603 1.29954 9.71829 1.52533 9.52296C1.75113 9.32763 2.02964 9.20343 2.32584 9.16598C2.62204 9.12854 2.92269 9.17951 3.19 9.3125L9.46375 12.4375L14.7037 3.73C14.8384 3.50666 15.0286 3.32191 15.2557 3.19367C15.4828 3.06542 15.7392 2.99803 16 2.99803C16.2608 2.99803 16.5172 3.06542 16.7443 3.19367C16.9714 3.32191 17.1615 3.50666 17.2962 3.73L22.5362 12.4375L28.8125 9.3125C29.0801 9.17932 29.3812 9.12841 29.6777 9.16622C29.9742 9.20402 30.2529 9.32884 30.4785 9.52491C30.7041 9.72098 30.8666 9.97951 30.9454 10.2679C31.0242 10.5562 31.0158 10.8614 30.9212 11.145V11.1438Z" fill="#7537F8"/>
</svg>
