<?xml version="1.0" encoding="utf-8"?>
<!-- Generator: Adobe Illustrator 27.8.1, SVG Export Plug-In . SVG Version: 6.00 Build 0)  -->
<svg version="1.1" id="Layer_1" xmlns="http://www.w3.org/2000/svg" xmlns:xlink="http://www.w3.org/1999/xlink" x="0px" y="0px"
	 viewBox="0 0 256 256" style="enable-background:new 0 0 256 256;" xml:space="preserve">
<style type="text/css">
	.st0{fill:none;}
	.st1{fill:#7537F8;}
</style>
<rect class="st0" width="256" height="256"/>
<path class="st1" d="M246,98.7l-56-64c-1.5-1.7-3.7-2.7-6-2.7H72c-2.3,0-4.5,1-6,2.7l-56,64c-2.7,3.1-2.6,7.7,0.2,10.7l112,120
	c3,3.2,8.1,3.4,11.3,0.4c0.1-0.1,0.3-0.3,0.4-0.4l112-120C248.7,106.4,248.7,101.8,246,98.7z M222.4,96H180l-36-48h36.4L222.4,96z
	 M74.6,112l30.1,75.3L34.4,112H74.6z M181.4,112h40.2l-70.3,75.3L181.4,112z M75.6,48H112L76,96H33.6L75.6,48z"/>
</svg>
