<?xml version="1.0" encoding="utf-8"?>
<!-- Generator: Adobe Illustrator 27.8.1, SVG Export Plug-In . SVG Version: 6.00 Build 0)  -->
<svg version="1.1" id="Layer_1" xmlns="http://www.w3.org/2000/svg" xmlns:xlink="http://www.w3.org/1999/xlink" x="0px" y="0px"
	 viewBox="0 0 256 256" style="enable-background:new 0 0 256 256;" xml:space="preserve">
<style type="text/css">
	.st0{fill:none;}
	.st1{fill:#7537F8;}
</style>
<rect class="st0" width="256" height="256"/>
<path class="st1" d="M200,204.5V232c0,4.4-3.6,8-8,8s-8-3.6-8-8v-27.5c0.1-24.3-13.6-46.5-35.4-57.2l-48.4-24.2
	C73,109.6,55.9,81.8,56,51.5V24c0-4.4,3.6-8,8-8s8,3.6,8,8v27.5c-0.1,24.3,13.6,46.5,35.4,57.2l48.4,24.2
	C183,146.4,200.1,174.2,200,204.5z M163.2,192H83c-4.4,0-8-3.6-8-8c0-0.2,0-0.4,0-0.5c0.4-4.3,4-7.5,8.2-7.5h66.4c2.2,0,4-1.8,4-4
	c0-1.1-0.5-2.1-1.2-2.9c-3.3-3-7-5.5-11-7.5L97,139.3c-2.7-1.3-5.9-1.1-8.3,0.7l0,0c-20.5,15.1-32.6,39-32.7,64.5v27.2
	c-0.1,4.3,3.2,7.9,7.5,8.3c4.4,0.3,8.2-3,8.5-7.5c0-0.2,0-0.4,0-0.5v-16h88c4.4,0,8-3.6,8-8v-3.5c0-3.1-0.3-6.2-0.9-9.3
	C166.7,193.3,165.1,192,163.2,192z M191.5,16c-4.3,0.4-7.5,4-7.5,8.3V40H96c-4.4,0-8,3.6-8,8v3.5c0,3.1,0.3,6.2,0.9,9.3
	c0.4,1.9,2,3.2,3.9,3.2h79.9c4.3,0,7.9,3.2,8.2,7.5c0.3,4.4-3,8.2-7.5,8.5c-0.2,0-0.4,0-0.5,0h-66.7c-2.2,0-4,1.8-4,4
	c0,1.1,0.5,2.1,1.2,2.9c3.3,3,7,5.5,11,7.5l44.4,22.3c2.7,1.4,5.9,1.1,8.3-0.7l0,0c20.5-15.1,32.6-39,32.7-64.5V24c0-4.4-3.6-8-8-8
	C191.8,16,191.7,16,191.5,16z"/>
</svg>
