<svg width="32" height="32" viewBox="0 0 32 32" fill="none" xmlns="http://www.w3.org/2000/svg">
<path d="M27.415 5.09375C27.2404 5.01449 27.0468 4.98707 26.8571 5.01477C26.6674 5.04248 26.4896 5.12413 26.345 5.25C22.845 8.2775 19.88 6.81 16.4438 5.10875C12.8838 3.345 8.8475 1.34875 4.345 5.25C4.23742 5.34325 4.15099 5.4584 4.09149 5.58774C4.032 5.71708 4.0008 5.85763 4 6V27C4 27.2652 4.10536 27.5196 4.29289 27.7071C4.48043 27.8946 4.73478 28 5 28C5.26522 28 5.51957 27.8946 5.70711 27.7071C5.89464 27.5196 6 27.2652 6 27V21.4713C9.34875 18.8263 12.2337 20.2525 15.5562 21.8975C17.6062 22.9113 19.8137 24.0038 22.1812 24.0038C23.9225 24.0038 25.7488 23.41 27.6588 21.7538C27.7663 21.6605 27.8528 21.5454 27.9123 21.416C27.9718 21.2867 28.0029 21.1461 28.0037 21.0038V6C28.0027 5.80842 27.9467 5.62116 27.8423 5.4605C27.738 5.29983 27.5896 5.17254 27.415 5.09375ZM6 19.055V13.235C8.10625 11.825 10.08 11.7863 12 12.3175V18.285C10.1087 17.8088 8.10875 17.8388 6 19.055ZM26 20.5313C23.8912 22.1963 21.9662 22.2463 20 21.645V15.6863C17.2975 14.9363 14.7025 13.0613 12 12.3175V5.35875C13.1562 5.7125 14.3262 6.29 15.5562 6.89875C16.9637 7.595 18.445 8.3275 20 8.71875V15.6863C21.9188 16.2175 23.8925 16.1788 26 14.7675V20.5313Z" fill="#7537F8"/>
</svg>
