<?xml version="1.0" encoding="utf-8"?>
<!-- Generator: Adobe Illustrator 27.8.1, SVG Export Plug-In . SVG Version: 6.00 Build 0)  -->
<svg version="1.1" id="Layer_1" xmlns="http://www.w3.org/2000/svg" xmlns:xlink="http://www.w3.org/1999/xlink" x="0px" y="0px"
	 viewBox="0 0 256 256" style="enable-background:new 0 0 256 256;" xml:space="preserve">
<style type="text/css">
	.st0{fill:none;}
	.st1{fill:#7537F8;}
</style>
<rect class="st0" width="256" height="256"/>
<path class="st1" d="M221.7,199.8L160,96.9V40h8c4.4,0,8-3.6,8-8s-3.6-8-8-8H88c-4.4,0-8,3.6-8,8s3.6,8,8,8h8v56.9L34.3,199.8
	c-4.5,7.6-2.1,17.4,5.5,22c2.5,1.5,5.3,2.3,8.2,2.3h160c8.8,0,16-7.2,16-16C224,205.1,223.2,202.3,221.7,199.8L221.7,199.8z
	 M131.6,156.9c-15.9-8.1-31.1-12.3-45.2-12.8l24.5-40.8c0.7-1.2,1.1-2.7,1.1-4.1V40h32v59.1c0,1.4,0.4,2.9,1.1,4.1l38.2,63.8
	C171.4,169.3,154.3,168.3,131.6,156.9z"/>
</svg>
