<?xml version="1.0" encoding="utf-8"?>
<!-- Generator: Adobe Illustrator 27.8.1, SVG Export Plug-In . SVG Version: 6.00 Build 0)  -->
<svg version="1.1" id="Layer_1" xmlns="http://www.w3.org/2000/svg" xmlns:xlink="http://www.w3.org/1999/xlink" x="0px" y="0px"
	 viewBox="0 0 256 256" style="enable-background:new 0 0 256 256;" xml:space="preserve">
<style type="text/css">
	.st0{fill:none;}
	.st1{fill:#7537F8;}
</style>
<rect class="st0" width="256" height="256"/>
<path class="st1" d="M245,110.6c-3-4.2-7.9-6.6-13-6.6h-16V88c0-8.8-7.2-16-16-16h-69.3l-27.7-20.8c-2.8-2.1-6.1-3.2-9.6-3.2H40
	c-8.8,0-16,7.2-16,16v144l0,0c0,4.4,3.6,8,8,8h179.1c3.4,0,6.5-2.2,7.6-5.5l28.5-85.5C248.8,120.2,248,114.8,245,110.6z M93.3,64
	l27.7,20.8c2.8,2.1,6.1,3.2,9.6,3.2H200v16h-53.6c-3.2,0-6.3,0.9-8.9,2.7l-20,13.3H69.4c-6.5,0-12.4,4-14.9,10.1L40,166.5V64H93.3z"
	/>
</svg>
