<?xml version="1.0" encoding="utf-8"?>
<!-- Generator: Adobe Illustrator 27.8.1, SVG Export Plug-In . SVG Version: 6.00 Build 0)  -->
<svg version="1.1" id="Layer_1" xmlns="http://www.w3.org/2000/svg" xmlns:xlink="http://www.w3.org/1999/xlink" x="0px" y="0px"
	 viewBox="0 0 19 19" style="enable-background:new 0 0 19 19;" xml:space="preserve">
<style type="text/css">
	.st0{fill:none;stroke:#ffffff;stroke-linecap:round;stroke-linejoin:round;stroke-miterlimit:10;}
</style>
<g id="XMLID_00000106860369563249036800000012790158231773587586_">
	<g id="XMLID_00000002375973594065536400000004145844544503818631_">
		<path id="XMLID_00000170968355741321201760000014809724486704170895_" class="st0" d="M10.2,0.5c-0.2,0-0.4,0-0.7,0c-5,0-9,4-9,9
			c0,5,4,9,9,9c5,0,9-4,9-9c0-3.3-1.7-6.1-4.3-7.7C12.9,1,11.5,0.6,10.2,0.5z"/>
		<line id="XMLID_00000110468324968270970590000000102582946787675043_" class="st0" x1="9.5" y1="0.5" x2="9.5" y2="18.5"/>
		<line id="XMLID_00000121975879828069476010000014479038416833947310_" class="st0" x1="2.5" y1="4.5" x2="16.5" y2="4.5"/>
		<line id="XMLID_00000162318487354421652060000000276535535599284109_" class="st0" x1="0.5" y1="9.5" x2="18.5" y2="9.5"/>
		<line id="XMLID_00000168805207918990678930000002064041353714059927_" class="st0" x1="16.5" y1="14.5" x2="2.5" y2="14.5"/>
		<ellipse id="XMLID_00000122682390732359550720000004399541699369340299_" class="st0" cx="9.5" cy="9.5" rx="5" ry="9"/>
	</g>
</g>
</svg>
