<?xml version="1.0" encoding="utf-8"?>
<!-- Generator: Adobe Illustrator 27.8.1, SVG Export Plug-In . SVG Version: 6.00 Build 0)  -->
<svg version="1.1" id="Layer_1" xmlns="http://www.w3.org/2000/svg" xmlns:xlink="http://www.w3.org/1999/xlink" x="0px" y="0px"
	 viewBox="0 0 256 256" style="enable-background:new 0 0 256 256;" xml:space="preserve">
<style type="text/css">
	.st0{fill:none;}
	.st1{fill:#7537F8;}
</style>
<rect class="st0" width="256" height="256"/>
<path class="st1" d="M128,24C70.6,24,24,70.6,24,128s46.6,104,104,104s104-46.6,104-104C231.9,70.6,185.4,24.1,128,24z M216,128
	c0,11.3-2.2,22.5-6.4,32.9l-44.7-27.5c-1.9-1.2-4-1.9-6.2-2.2l-22.8-3.1c-6.4-0.8-12.7,2.3-16,7.9h-8.7l-3.8-7.9
	c-2.1-4.4-6.2-7.6-11-8.7l-8-1.7l7.8-13.7h16.7c2.7,0,5.4-0.7,7.7-2l12.2-6.8c1.1-0.6,2.1-1.3,3-2.1l26.9-24.3
	c5.6-5,6.9-13.2,3.3-19.7l-0.4-0.7C196.4,63,216,94,216,128z M40,128c0-13.1,2.9-26,8.5-37.8l11.3,30.3c1.9,5.1,6.3,8.9,11.6,10
	l21.4,4.6l3.8,7.9c2.7,5.5,8.3,9,14.4,9h1.5l-7.2,16.2c-2.6,5.8-1.5,12.7,2.9,17.4l0.1,0.1l19.6,20.2l-1.9,10
	C78.3,214.8,40.1,175.8,40,128z"/>
</svg>
