<?xml version="1.0" encoding="utf-8"?>
<!-- Generator: Adobe Illustrator 27.8.1, SVG Export Plug-In . SVG Version: 6.00 Build 0)  -->
<svg version="1.1" id="Layer_1" xmlns="http://www.w3.org/2000/svg" xmlns:xlink="http://www.w3.org/1999/xlink" x="0px" y="0px"
	 viewBox="0 0 256 256" style="enable-background:new 0 0 256 256;" xml:space="preserve">
<style type="text/css">
	.st0{fill:none;}
	.st1{fill:#7537F8;}
</style>
<rect class="st0" width="256" height="256"/>
<path class="st1" d="M128.1,57.4c1.4-19.8,18.7-34.7,38.5-33.3c5.9,0.4,11.7,2.3,16.7,5.5c1.8,1.2,2.4,3.7,1.2,5.5
	c-0.4,0.6-1,1.2-1.7,1.5C164,45,152,63.5,152,84c0,1.2,0,2.3,0.1,3.5c0.2,2.2-1.5,4.1-3.7,4.3c-0.8,0.1-1.6-0.1-2.3-0.5
	C134.1,84.4,127.1,71.2,128.1,57.4z M240,160.6c0,9.3-5.2,17.9-13.6,22l-0.4,0.2l-38.8,16.5c-0.4,0.2-0.8,0.3-1.2,0.4l-64,16
	c-0.6,0.2-1.3,0.2-1.9,0.2H16c-8.8,0-16-7.2-16-16v-40c0-8.8,7.2-16,16-16h28.7l22.6-22.6c6-6,14.1-9.4,22.6-9.4H140
	c15.5,0,28,12.5,28,28c0,2.2-0.3,4.3-0.8,6.5l41.8-9.6c13.1-3.5,26.6,4.4,30.1,17.5C239.7,156.4,240,158.5,240,160.6z M224,160.6
	c0-4.8-3.9-8.6-8.6-8.6c-0.8,0-1.5,0.1-2.3,0.3l-0.3,0.1l-67,15.4c-0.6,0.1-1.2,0.2-1.8,0.2h-32c-4.4,0-8-3.6-8-8s3.6-8,8-8h28
	c6.6,0,12-5.4,12-12s-5.4-12-12-12H89.9c-4.2,0-8.3,1.7-11.3,4.7L56,155.3V200h63l62.4-15.6l38-16.2
	C222.2,166.7,224,163.8,224,160.6z M168,84c0,19.9,16.1,36,36,36s36-16.1,36-36s-16.1-36-36-36S168,64.1,168,84z"/>
</svg>
