<?xml version="1.0" encoding="utf-8"?>
<!-- Generator: Adobe Illustrator 27.5.0, SVG Export Plug-In . SVG Version: 6.00 Build 0)  -->
<svg version="1.1" id="Layer_1" xmlns="http://www.w3.org/2000/svg" xmlns:xlink="http://www.w3.org/1999/xlink" x="0px" y="0px"
	 viewBox="0 0 42 42" style="enable-background:new 0 0 42 42;" xml:space="preserve">
<style type="text/css">
	.st0{fill:#070924;}
</style>
<path class="st0" d="M39,0H22.86c-1.33,0-2.6,0.53-3.54,1.46L1.46,19.32c-1.95,1.95-1.95,5.12,0,7.07l14.15,14.15
	c1.95,1.95,5.12,1.95,7.07,0l17.86-17.86c0.93-0.94,1.46-2.21,1.46-3.54V3C42,1.34,40.66,0,39,0z M31,15c-2.21,0-4-1.79-4-4
	s1.79-4,4-4s4,1.79,4,4S33.21,15,31,15z"/>
</svg>
