<?xml version="1.0" encoding="utf-8"?>
<svg xmlns="http://www.w3.org/2000/svg" x="0px" y="0px" viewBox="0 0 256 256" style="enable-background:new 0 0 256 256;" xml:space="preserve">
<style type="text/css">
	.st0{fill:none;}
	.st1{fill:#7537F8;}
</style>
  <rect class="st0" width="256" height="256"/>
  <path class="st1" d="M231.4,44.34s0,.1,0,.15l-58.2,191.94a15.88,15.88,0,0,1-14,11.51q-.69.06-1.38.06a15.86,15.86,0,0,1-14.42-9.15l-35.71-75.39a4,4,0,0,1,.79-4.54l57.26-57.27a8,8,0,0,0-11.31-11.31L97.08,147.6a4,4,0,0,1-4.54.79l-75-35.53A16.37,16.37,0,0,1,8,97.36,15.89,15.89,0,0,1,19.57,82.84l191.94-58.2.15,0A16,16,0,0,1,231.4,44.34Z"/>
</svg>
