<?xml version="1.0" encoding="utf-8"?>
<!-- Generator: Adobe Illustrator 27.8.1, SVG Export Plug-In . SVG Version: 6.00 Build 0)  -->
<svg version="1.1" id="Layer_1" xmlns="http://www.w3.org/2000/svg" xmlns:xlink="http://www.w3.org/1999/xlink" x="0px" y="0px"
	 viewBox="0 0 256 256" style="enable-background:new 0 0 256 256;" xml:space="preserve">
<style type="text/css">
	.st0{fill:none;}
	.st1{fill:#7537F8;}
</style>
<rect class="st0" width="256" height="256"/>
<path class="st1" d="M100,36c0-15.5,12.5-28,28-28s28,12.5,28,28s-12.5,28-28,28S100,51.5,100,36z M227.6,92.6
	c-1.5-7.4-8.1-12.7-15.6-12.6H44c-8.8,0-16,7.2-16,16c0,6.2,3.6,11.9,9.3,14.5h0.1l53.9,23.7l-21.9,83.3c-3.5,8,0,17.2,7.9,20.9
	c2.1,1,4.4,1.5,6.8,1.5c6.2,0,11.8-3.5,14.4-9.1L128,180l29.6,51c3.9,7.9,13.5,11.2,21.4,7.3c7.6-3.8,11-12.8,7.7-20.7l-21.9-83.3
	l54-23.8C225.6,107.5,229.4,99.9,227.6,92.6z"/>
</svg>
