<?xml version="1.0" encoding="utf-8"?>
<!-- Generator: Adobe Illustrator 27.8.1, SVG Export Plug-In . SVG Version: 6.00 Build 0)  -->
<svg version="1.1" id="Layer_1" xmlns="http://www.w3.org/2000/svg" xmlns:xlink="http://www.w3.org/1999/xlink" x="0px" y="0px"
	 viewBox="0 0 256 256" style="enable-background:new 0 0 256 256;" xml:space="preserve">
<style type="text/css">
	.st0{fill:none;}
	.st1{fill:#FFFFFF;}
</style>
<rect class="st0" width="256" height="256"/>
<path class="st1" d="M152.3,37.9c1.1-4.3,5.5-6.8,9.8-5.7l0,0c30.2,7.9,53.8,31.5,61.7,61.7c1.1,4.3-1.4,8.7-5.7,9.8l0,0
	c-0.7,0.2-1.4,0.3-2.1,0.3c-3.6,0-6.8-2.4-7.7-5.9c-6.4-24.7-25.7-43.9-50.3-50.3C153.7,46.6,151.1,42.2,152.3,37.9L152.3,37.9z
	 M149.9,79.7c13.8,3.7,22.6,12.6,26.3,26.3c0.9,3.5,4.1,5.9,7.7,5.9c0.7,0,1.4-0.1,2.1-0.3c4.3-1.1,6.8-5.5,5.7-9.8l0,0
	c-5.1-19.2-18.5-32.5-37.7-37.7c-4.3-1.1-8.7,1.4-9.8,5.7C143.1,74.2,145.7,78.6,149.9,79.7z M222.4,158.5l-47.1-21.1l-0.1-0.1
	c-5-2.1-10.7-1.6-15.2,1.4c-0.3,0.2-0.5,0.4-0.8,0.6L134.9,160c-15.4-7.5-31.3-23.3-38.8-38.5l20.8-24.7c0.2-0.2,0.4-0.5,0.6-0.8
	c2.9-4.5,3.4-10.1,1.3-15.1v-0.1L97.5,33.6c-2.8-6.5-9.6-10.4-16.6-9.5c-28,3.7-49,27.6-48.9,55.9c0,79.4,64.6,144,144,144
	c28.3,0.1,52.2-20.9,55.9-48.9C232.7,168,228.9,161.3,222.4,158.5L222.4,158.5z"/>
</svg>
