<svg width="32" height="32" viewBox="0 0 32 32" fill="none" xmlns="http://www.w3.org/2000/svg">
<path d="M12.9712 23.2425C12.9225 23.4363 11.7037 28 4.99999 28C4.73477 28 4.48042 27.8946 4.29288 27.7071C4.10534 27.5196 3.99999 27.2652 3.99999 27C3.99999 20.2963 8.56374 19.0775 8.75749 19.0288C9.01491 18.9644 9.28734 19.005 9.51485 19.1416C9.74235 19.2781 9.9063 19.4995 9.97061 19.7569C10.0349 20.0143 9.99435 20.2867 9.8578 20.5142C9.72125 20.7417 9.49991 20.9057 9.24249 20.97C9.12999 21.0013 6.43999 21.7875 6.04749 25.9525C10.2125 25.56 11 22.875 11.0325 22.75C11.0988 22.4929 11.2645 22.2727 11.4932 22.1378C11.7219 22.0029 11.9948 21.9643 12.2519 22.0306C12.509 22.0969 12.7292 22.2627 12.8641 22.4913C12.999 22.72 13.0375 22.9929 12.9712 23.25V23.2425ZM24.5962 14.8175L24 15.4138V22.705C24.0015 22.9687 23.9505 23.23 23.8501 23.4737C23.7497 23.7175 23.6018 23.9389 23.415 24.125L19.125 28.4125C18.94 28.5988 18.7199 28.7467 18.4775 28.8475C18.2351 28.9483 17.9751 29.0002 17.7125 29C17.4958 28.9999 17.2805 28.9649 17.075 28.8963C16.7221 28.7795 16.4089 28.5664 16.1708 28.281C15.9327 27.9956 15.7791 27.6493 15.7275 27.2813L15.0562 22.47L9.52999 16.9438L4.72124 16.2725C4.35267 16.2208 4.00583 16.0673 3.71974 15.8292C3.43366 15.5912 3.21968 15.278 3.10187 14.925C2.98406 14.5719 2.96709 14.193 3.05288 13.8309C3.13868 13.4687 3.32382 13.1377 3.58749 12.875L7.87499 8.585C8.06108 8.39823 8.28246 8.25033 8.52624 8.1499C8.77002 8.04947 9.03134 7.99852 9.29499 8H16.5862L17.1825 7.40375C20.5175 4.07 24.535 3.92625 26.1087 4.02C26.5963 4.04963 27.0562 4.25669 27.4016 4.60211C27.747 4.94752 27.9541 5.40741 27.9837 5.895C28.075 7.46375 27.9312 11.4825 24.5975 14.8175H24.5962ZM14.5862 10H9.29499L4.99999 14.2925L9.64374 14.94L14.5862 10ZM22 17.4138L17.0587 22.355L17.7087 27L22 22.705V17.4138Z" fill="#7537F8"/>
</svg>
