<?xml version="1.0" encoding="utf-8"?>
<!-- Generator: Adobe Illustrator 27.8.1, SVG Export Plug-In . SVG Version: 6.00 Build 0)  -->
<svg version="1.1" id="Layer_1" xmlns="http://www.w3.org/2000/svg" xmlns:xlink="http://www.w3.org/1999/xlink" x="0px" y="0px"
	 viewBox="0 0 256 256" style="enable-background:new 0 0 256 256;" xml:space="preserve">
<style type="text/css">
	.st0{fill:none;}
	.st1{fill:#7537F8;}
</style>
<rect class="st0" width="256" height="256"/>
<path class="st1" d="M220.8,169.6c-1.4-1-3.1-1.6-4.8-1.6h-8V64c0-17.7-14.3-32-32-32H40C22.3,32,8,46.3,8,64
	c0,13.6,10,21.5,11.2,22.4l0,0c1.4,1,3.1,1.6,4.8,1.6c4.4,0,8-3.6,8-8c0-2.5-1.2-4.8-3.1-6.3l0,0c0,0-4.9-3.9-4.9-9.7
	c0-8.8,7.2-16,16-16s16,7.2,16,16v128c0,17.7,14.3,32,32,32h112c17.7,0,32-14.3,32-32C232,178.4,222,170.5,220.8,169.6z M104,96h64
	c4.4,0,8,3.6,8,8s-3.6,8-8,8h-64c-4.4,0-8-3.6-8-8S99.6,96,104,96z M96,136c0-4.4,3.6-8,8-8h64c4.4,0,8,3.6,8,8s-3.6,8-8,8h-64
	C99.6,144,96,140.4,96,136z M200,208h-92.3c2.8-4.9,4.3-10.4,4.3-16c0-2.7-0.4-5.4-1.2-8h102c2,2.2,3.1,5,3.2,8
	C216,200.8,208.9,208,200,208C200,208,200,208,200,208z"/>
</svg>
