<svg width="32" height="32" viewBox="0 0 32 32" fill="none" xmlns="http://www.w3.org/2000/svg">
<path d="M26 5H6C5.46957 5 4.96086 5.21071 4.58579 5.58579C4.21071 5.96086 4 6.46957 4 7V14.3462C4 25.5475 13.4775 29.2638 15.375 29.895C15.7803 30.0328 16.2197 30.0328 16.625 29.895C18.525 29.2638 28 25.5475 28 14.3462V7C28 6.46957 27.7893 5.96086 27.4142 5.58579C27.0391 5.21071 26.5304 5 26 5ZM26 14.3488C26 16.5538 25.58 18.4275 24.91 20.0163L16.5737 14.1812C16.4056 14.0635 16.2053 14.0003 16 14.0003C15.7947 14.0003 15.5944 14.0635 15.4263 14.1812L7.09 20.0163C6.42 18.4275 6 16.5538 6 14.3488V7H26V14.3488Z" fill="#7537F8"/>
</svg>
