<?xml version="1.0" encoding="utf-8"?>
<!-- Generator: Adobe Illustrator 27.8.1, SVG Export Plug-In . SVG Version: 6.00 Build 0)  -->
<svg version="1.1" id="Layer_1" xmlns="http://www.w3.org/2000/svg" xmlns:xlink="http://www.w3.org/1999/xlink" x="0px" y="0px"
	 viewBox="0 0 256 256" style="enable-background:new 0 0 256 256;" xml:space="preserve">
<style type="text/css">
	.st0{fill:none;}
	.st1{fill:#7537F8;}
</style>
<rect class="st0" width="256" height="256"/>
<path class="st1" d="M234.5,114.4l-45.1,39.4l13.5,58.6c2,8.6-3.3,17.2-11.9,19.2c-4.1,0.9-8.3,0.3-11.9-1.9l-51.1-31l-51,31
	c-7.6,4.6-17.4,2.1-22-5.4c-2.2-3.6-2.8-7.8-1.9-11.9l13.5-58.5l-45.1-39.4c-6.7-5.8-7.4-15.9-1.7-22.6c2.7-3.2,6.6-5.1,10.8-5.5
	l59.5-5.2l23.2-55.4c3.4-8.1,12.7-12,20.9-8.6c3.9,1.6,7,4.7,8.6,8.6l0,0L166,81.2l59.4,5.2c8.8,0.7,15.3,8.5,14.6,17.3
	C239.7,107.8,237.7,111.6,234.5,114.4L234.5,114.4z"/>
</svg>
