<?xml version="1.0" encoding="utf-8"?>
<!-- Generator: Adobe Illustrator 27.5.0, SVG Export Plug-In . SVG Version: 6.00 Build 0)  -->
<svg version="1.1" id="Layer_1" xmlns="http://www.w3.org/2000/svg" xmlns:xlink="http://www.w3.org/1999/xlink" x="0px" y="0px"
	 viewBox="0 0 40 48" style="enable-background:new 0 0 40 48;" xml:space="preserve">
<style type="text/css">
	.st0{fill:#070924;}
</style>
<g>
	<path class="st0" d="M22.5,8.17V5h3C26.88,5,28,3.88,28,2.5C28,1.12,26.88,0,25.5,0h-11C13.12,0,12,1.12,12,2.5
		C12,3.88,13.12,5,14.5,5h3v3.17C7.64,9.41,0,17.8,0,28c0,11.05,8.95,20,20,20s20-8.95,20-20C40,17.8,32.36,9.41,22.5,8.17z M20,43
		c-8.27,0-15-6.73-15-15s6.73-15,15-15s15,6.73,15,15S28.27,43,20,43z"/>
	<path class="st0" d="M28.77,28H22c-1.1,0-2-0.9-2-2v-6.77c0-1.29,1.21-2.24,2.47-1.95c4.1,0.94,7.32,4.16,8.26,8.26
		C31.01,26.79,30.07,28,28.77,28z"/>
</g>
</svg>
