<?xml version="1.0" encoding="UTF-8"?>
<svg width="877px" height="650px" viewBox="0 0 877 650" version="1.1" xmlns="http://www.w3.org/2000/svg" xmlns:xlink="http://www.w3.org/1999/xlink">
    <!-- Generator: Sketch 52.5 (67469) - http://www.bohemiancoding.com/sketch -->
    <title>Illustration</title>
    <desc>Created with Sketch.</desc>
    <defs>
        <linearGradient x1="39.1058375%" y1="-0.230996098%" x2="60.3381759%" y2="100.510607%" id="linearGradient-1">
            <stop stop-color="#005AFF" offset="0%"></stop>
            <stop stop-color="#0057FF" stop-opacity="0.9842" offset="1.576012%"></stop>
            <stop stop-color="#0037FF" stop-opacity="0.8122" offset="18.78%"></stop>
            <stop stop-color="#001FFF" stop-opacity="0.6326" offset="36.74%"></stop>
            <stop stop-color="#000EFF" stop-opacity="0.4444" offset="55.56%"></stop>
            <stop stop-color="#0003FF" stop-opacity="0.2419" offset="75.81%"></stop>
            <stop stop-color="#0000FF" stop-opacity="0" offset="100%"></stop>
        </linearGradient>
        <linearGradient x1="52.01%" y1="99.0458333%" x2="52.01%" y2="-1.98333333%" id="linearGradient-2">
            <stop stop-color="#808080" stop-opacity="0.25" offset="0%"></stop>
            <stop stop-color="#808080" stop-opacity="0.12" offset="54%"></stop>
            <stop stop-color="#808080" stop-opacity="0.1" offset="100%"></stop>
        </linearGradient>
        <linearGradient x1="97.7358057%" y1="7.16296296%" x2="2.96141691%" y2="96.8864122%" id="linearGradient-3">
            <stop stop-color="#1C1CA2" offset="0%"></stop>
            <stop stop-color="#4B27A4" stop-opacity="0.8617" offset="19.76%"></stop>
            <stop stop-color="#8736A5" stop-opacity="0.6683" offset="47.39%"></stop>
            <stop stop-color="#B240A7" stop-opacity="0.5033" offset="70.95%"></stop>
            <stop stop-color="#CD47A8" stop-opacity="0.3754" offset="89.23%"></stop>
            <stop stop-color="#D749A8" stop-opacity="0.3" offset="100%"></stop>
        </linearGradient>
        <linearGradient x1="16.3941207%" y1="91.9662142%" x2="83.6127565%" y2="8.01940275%" id="linearGradient-4">
            <stop stop-color="#808080" stop-opacity="0.25" offset="0%"></stop>
            <stop stop-color="#808080" stop-opacity="0.12" offset="54%"></stop>
            <stop stop-color="#808080" stop-opacity="0.1" offset="100%"></stop>
        </linearGradient>
        <linearGradient x1="25.6436813%" y1="95.8726831%" x2="74.428392%" y2="4.11686534%" id="linearGradient-5">
            <stop stop-color="#808080" stop-opacity="0.25" offset="0%"></stop>
            <stop stop-color="#808080" stop-opacity="0.12" offset="54%"></stop>
            <stop stop-color="#808080" stop-opacity="0.1" offset="100%"></stop>
        </linearGradient>
        <linearGradient x1="39.5996631%" y1="98.8051617%" x2="60.3825344%" y2="1.21832875%" id="linearGradient-6">
            <stop stop-color="#808080" stop-opacity="0.25" offset="0%"></stop>
            <stop stop-color="#808080" stop-opacity="0.12" offset="54%"></stop>
            <stop stop-color="#808080" stop-opacity="0.1" offset="100%"></stop>
        </linearGradient>
        <linearGradient x1="56.4791842%" y1="99.3091263%" x2="43.554086%" y2="0.687275394%" id="linearGradient-7">
            <stop stop-color="#808080" stop-opacity="0.25" offset="0%"></stop>
            <stop stop-color="#808080" stop-opacity="0.12" offset="54%"></stop>
            <stop stop-color="#808080" stop-opacity="0.1" offset="100%"></stop>
        </linearGradient>
        <linearGradient x1="10.5141727%" y1="-6.26236934%" x2="88.7962788%" y2="107.185125%" id="linearGradient-8">
            <stop stop-color="#1C1CA2" offset="0%"></stop>
            <stop stop-color="#4827A3" stop-opacity="0.8651" offset="15.88%"></stop>
            <stop stop-color="#7B33A5" stop-opacity="0.6902" offset="36.45%"></stop>
            <stop stop-color="#A33CA6" stop-opacity="0.5254" offset="55.83%"></stop>
            <stop stop-color="#BF43A7" stop-opacity="0.3755" offset="73.47%"></stop>
            <stop stop-color="#D148A8" stop-opacity="0.2455" offset="88.76%"></stop>
            <stop stop-color="#D749A8" stop-opacity="0.15" offset="100%"></stop>
        </linearGradient>
    </defs>
    <g id="rv2" stroke="none" stroke-width="1" fill="none" fill-rule="evenodd">
        <g id="Home-(1920px)-[XL-/-21.5&quot;-Monitor]" transform="translate(-930.000000, -2234.000000)">
            <g id="About" transform="translate(66.000000, 2234.000000)">
                <g id="Illustration" transform="translate(864.000000, 0.000000)">
                    <g id="Group" opacity="0.12" fill="url(#linearGradient-1)">
                        <path d="M438.408442,13.3094911 C525.293615,35.221458 598.930628,97.7111417 660.376082,160.200825 C716.375974,217.171939 769.856277,285.58597 744.416558,369.094911 C719.139394,452.035763 633.229545,515.255846 559.186147,552.993122 C481.566558,592.596974 397.607359,599.495186 314.298377,575.310867 C231.802165,551.370014 151.175325,522.722146 90.4613636,463.397524 C30.2350649,404.559835 -18.9375541,309.121045 8.20898268,219.687758 C56.9752165,59.3246217 286.339069,-36.6822558 438.408442,13.3094911 Z" id="Path"></path>
                    </g>
                    <g id="Group" transform="translate(547.000000, 7.000000)">
                        <path d="M52.4872095,171.433384 C52.4872095,171.433384 50.6213582,183.585418 46.0784158,185.379677 C41.5354734,187.173937 52.4872095,200.386215 52.4872095,200.386215 L73.660566,198.102612 L73.822814,193.616962 C73.822814,193.616962 69.3609955,184.890334 75.4452934,173.716988 C81.5295913,162.543642 52.4872095,171.433384 52.4872095,171.433384 Z" id="Path" fill="#FBCDDC"></path>
                        <path d="M103.189692,88.8974256 C98.9712451,105.616666 83.7199385,110.999446 83.7199385,110.999446 C83.7199385,110.999446 73.74169,119.318288 72.4437065,121.765006 C71.0645989,124.293281 58.8960032,135.303513 55.6510444,136.853101 C52.4060855,138.402689 49.9723664,140.76785 51.026978,143.785469 C52.0004657,146.558416 43.9691925,160.830939 42.7523329,162.951428 L42.590085,163.1961 L39.9941179,166.295276 L30.8271091,171.596499 L23.0392079,169.557567 L21.5789764,160.341595 L25.2295551,152.838326 C27.5010263,151.044066 29.3668776,148.760463 30.6648612,146.232187 C33.0985803,141.66498 34.7210598,138.565804 34.7210598,138.565804 C34.7210598,138.565804 37.2359029,131.470321 41.6165973,127.147786 C44.6181843,124.211724 47.8631431,121.601891 51.3514739,119.318288 L69.6043675,107.00314 C69.6043675,107.00314 73.660566,103.577734 76.581029,102.599047 C79.501492,101.62036 107.408138,72.0966278 103.189692,88.8974256 Z" id="Path" fill="#FBCDDC"></path>
                        <g transform="translate(0.000000, 152.512097)">
                            <g>
                                <path d="M105.704535,51.5441954 C105.704535,51.6257527 105.623411,51.70731 105.623411,51.7888672 C105.298915,53.0122263 100.674849,58.4765635 100.674849,58.4765635 C100.674849,58.4765635 87.2082693,68.8343369 82.7464508,70.7917114 C78.3657564,72.6675287 72.8493263,81.6388285 72.8493263,81.6388285 L67.5762682,94.1986483 C67.5762682,94.1986483 57.4357717,102.843719 56.4622841,105.045765 C55.8132923,106.513796 56.0566642,109.123629 56.2189122,110.59166 C56.2189122,111.244118 56.3811601,111.733462 56.3811601,111.733462 L53.4606972,115.158867 L51.108102,117.931814 L47.7820192,121.765006 L42.0222172,121.275662 L24.0938195,119.399845 L20.6054887,117.687142 L1.05461163,107.981827 C1.05461163,107.981827 1.05461163,107.329369 0.892363685,106.269124 C0.892363685,105.779781 0.811239714,105.290437 0.730115743,104.719536 C0.5678678,103.006834 0.405619857,100.804787 0.162247943,99.0105273 C-0.243371914,95.1773355 2.2714712,88.4896393 2.2714712,88.4896393 L6.89553757,75.0326895 C6.2465458,72.5859714 8.84251288,65.7351606 8.84251288,65.7351606 C8.27464508,64.7564733 10.8706122,54.9696008 11.6007279,54.0724708 C12.3308437,53.0937836 13.2232073,46.2429728 13.2232073,46.2429728 C14.6834388,43.7962546 16.3870422,31.888893 16.3870422,31.888893 C16.3870422,31.888893 18.2528936,16.7192406 18.5773895,12.9676061 C18.9830093,9.21597165 24.9861832,0.407786356 25.1484311,0.163114542 C21.0111086,8.97129983 25.391803,14.9249806 25.391803,14.9249806 L30.0158694,13.8647361 L42.427837,10.7655598 C41.8599692,11.1733462 42.508961,15.4143243 42.508961,15.4143243 C43.6446966,16.229897 44.4559363,17.453256 44.7804322,18.7581724 C45.0238041,20.6339896 47.4575233,23.4884941 47.8631431,23.9778377 L47.9442671,24.059395 C48.187639,22.1835778 49.1611267,20.5524323 50.7024821,19.5737451 L53.785193,23.3253796 L55.0020526,27.8925868 C55.0020526,27.8925868 54.7586807,28.5450449 53.1362013,29.9315185 C51.5137218,31.3179921 54.1096889,34.580283 54.1096889,34.580283 C55.0020526,35.8851993 55.4887964,40.9417501 55.4887964,40.9417501 C57.5168957,38.9843756 60.8429785,38.7397038 60.8429785,38.7397038 C62.1409621,37.2716729 63.1144497,35.6405275 63.8445655,33.8462676 C64.0068134,32.786023 65.0614251,32.0520076 66.1160367,32.2966794 C66.2782846,32.2966794 66.4405326,32.3782367 66.5216565,32.4597939 C67.4140202,31.562664 68.4686319,30.7470912 69.5232435,30.0946331 C71.0645989,29.1975031 72.9304503,30.7470912 72.9304503,30.7470912 L73.4171941,36.700772 C73.4171941,36.700772 73.5794421,36.9454439 73.822814,37.2716729 C74.3906818,37.9241311 75.3641694,38.9843756 75.8509133,38.7397038 C76.662153,38.4134747 83.1520707,38.7397038 83.1520707,38.7397038 C83.1520707,38.7397038 85.4235419,39.5552765 86.2347816,38.3319175 C86.9648973,37.0270011 91.5889637,33.6015957 91.5889637,33.6015957 C91.5889637,33.6015957 93.1303192,45.5905146 93.3736911,48.9343627 C93.535939,52.2782108 95.9696582,52.4413254 95.9696582,52.4413254 L105.704535,51.5441954 Z" id="Path" fill="#BBABF4"></path>
                                <ellipse id="Oval" fill="#5C5C8E" cx="52.7305814" cy="46.4876446" rx="1.1357356" ry="1.1418018"></ellipse>
                                <ellipse id="Oval" fill="#5C5C8E" cx="45.1860521" cy="63.8593434" rx="1.1357356" ry="1.1418018"></ellipse>
                                <ellipse id="Oval" fill="#5C5C8E" cx="30.5026132" cy="100.886344" rx="1.1357356" ry="1.1418018"></ellipse>
                                <ellipse id="Oval" fill="#5C5C8E" cx="37.3981508" cy="82.2097294" rx="1.1357356" ry="1.1418018"></ellipse>
                            </g>
                            <path d="M74.1473099,37.8425738 C68.4686319,39.8815056 55.2454245,44.7749419 55.1643006,44.7749419 L55.7321684,41.6757656 C57.7602676,39.7183911 61.0863505,39.4737193 61.0863505,39.4737193 C62.384334,38.0056884 63.3578217,36.374543 64.0879374,34.580283 C64.2501853,33.5200385 65.304797,32.786023 66.3594086,33.0306948 C66.5216565,33.0306948 66.6839045,33.1122521 66.7650285,33.1938094 C67.6573921,32.2966794 68.7120038,31.4811067 69.7666154,30.8286485 C71.3079709,29.9315185 73.1738222,31.4811067 73.1738222,31.4811067 L73.660566,37.4347875 C73.74169,37.2716729 73.9039379,37.5163448 74.1473099,37.8425738 Z" id="Path" fill="#000000" opacity="0.05"></path>
                            <path d="M53.947441,34.9065121 C54.8398047,36.2114284 55.3265485,41.2679792 55.3265485,41.2679792 L53.2173252,43.1437965 L48.268763,31.0733203 L47.7008952,24.7118532 L47.6197712,24.3856241 L47.7008952,24.4671814 C47.9442671,22.5913641 48.9177548,20.9602187 50.4591102,19.9815314 L53.5418211,23.7331659 L54.7586807,28.3003731 C54.7586807,28.3003731 54.5153088,28.9528313 52.8928294,30.3393049 C51.2703499,31.7257785 53.947441,34.9065121 53.947441,34.9065121 Z" id="Path" fill="#000000" opacity="0.05"></path>
                        </g>
                        <path d="M81.5295913,164.419459 C82.0163351,174.043217 74.7151777,182.280501 65.0614251,182.769845 C55.4887964,183.259188 47.2952753,175.919034 46.8085315,166.213719 C46.3217877,156.589961 53.6229451,148.352676 63.1955737,147.863333 C72.6870784,147.292432 80.8805995,154.551029 81.4484673,164.09323 C81.5295913,164.174787 81.5295913,164.337901 81.5295913,164.419459 Z" id="Path" fill="#000000" opacity="0.05"></path>
                        <path d="M81.5295913,163.603886 C82.0163351,173.227644 74.7151777,181.464928 65.142549,182.035829 C55.5699204,182.525173 47.3763993,175.185019 46.8085315,165.561261 C46.3217877,155.937503 53.6229451,147.700218 63.1955737,147.129317 C63.1955737,147.129317 63.1955737,147.129317 63.1955737,147.129317 C72.6870784,146.558416 80.8805995,153.898571 81.4484673,163.440772 C81.5295913,163.522329 81.5295913,163.522329 81.5295913,163.603886 Z" id="Path" fill="#FBCDDC"></path>
                        <polygon id="Rectangle" fill="#F6F7F9" transform="translate(195.769037, 97.106206) rotate(-75.073012) translate(-195.769037, -97.106206) " points="128.472163 -23.5033939 263.706036 -23.8692041 263.065911 217.715805 127.832038 218.081616"></polygon>
                        <g opacity="0.2" transform="translate(98.160005, 43.225354)" fill="#6C63FF" id="Oval">
                            <ellipse transform="translate(26.724289, 27.080585) rotate(-3.083521) translate(-26.724289, -27.080585) " cx="26.7242892" cy="27.0805851" rx="25.1500251" ry="25.2835771"></ellipse>
                        </g>
                        <g opacity="0.2" transform="translate(184.151415, 55.458944)" fill="#6C63FF" id="Rectangle">
                            <polygon transform="translate(54.490980, 17.831515) rotate(-75.073012) translate(-54.490980, -17.831515) " points="51.2986032 -37.0122702 57.9654557 -37.0308394 57.6833562 72.6752994 51.0165037 72.6938686"></polygon>
                        </g>
                        <g opacity="0.2" transform="translate(180.095217, 72.585971)" fill="#6C63FF" id="Rectangle">
                            <polygon transform="translate(28.064096, 10.803561) rotate(-75.073012) translate(-28.064096, -10.803561) " points="24.7402733 -17.1368009 31.5339841 -17.1554318 31.387918 38.7439237 24.5942072 38.7625546"></polygon>
                        </g>
                        <g opacity="0.2" transform="translate(175.227778, 89.712998)" fill="#6C63FF" id="Rectangle">
                            <polygon transform="translate(44.985944, 15.257967) rotate(-75.073012) translate(-44.985944, -15.257967) " points="41.7468815 -29.9281786 48.4587727 -29.9467706 48.2250057 60.4441121 41.5131144 60.462704"></polygon>
                        </g>
                        <g opacity="0.2" transform="translate(170.360340, 106.840025)" fill="#6C63FF" id="Rectangle">
                            <polygon transform="translate(54.642892, 17.731460) rotate(-75.073012) translate(-54.642892, -17.731460) " points="51.450516 -37.1123247 58.1173684 -37.1308939 57.8352689 72.5752449 51.1684165 72.5938141"></polygon>
                        </g>
                        <g opacity="0.5" transform="translate(239.315716, 151.696524)" fill="#6C63FF" id="Rectangle">
                            <polygon transform="translate(16.666125, 10.961615) rotate(-75.073012) translate(-16.666125, -10.961615) " points="10.0581251 -4.17978244 23.3543581 -4.21579437 23.2741247 26.1030131 9.97789176 26.139025"></polygon>
                        </g>
                        <path d="M120.955841,97.4609391 C109.922981,98.5211836 110.896469,128.044916 111.707709,129.268275 C112.437824,130.491634 110.004105,144.030141 110.004105,144.030141 C110.004105,144.030141 106.110155,164.419459 106.84027,168.171093 C107.65151,171.922728 104.487675,174.53256 104.487675,174.53256 C99.7013608,176.816164 93.8604349,183.585418 92.3190795,185.461235 L91.9134596,185.950578 L91.8323356,186.032136 C91.8323356,186.032136 91.9134596,186.032136 91.9134596,186.032136 C91.9134596,186.032136 93.4548151,198.021055 93.698187,201.364903 C93.8604349,204.708751 96.294154,204.871865 96.294154,204.871865 L105.785659,204.219407 C105.785659,204.300964 105.704535,204.382522 105.704535,204.464079 C105.704535,204.464079 105.704535,204.545636 105.704535,204.545636 L105.785659,204.545636 L118.116502,183.096074 C123.146189,178.447309 122.821693,169.068223 122.821693,169.068223 L123.065065,147.618661 L121.929329,134.977284 L122.172701,127.800244 C122.091577,127.474015 131.988701,96.4006946 120.955841,97.4609391 Z" id="Path" fill="#FBCDDC"></path>
                        <path d="M62.465458,156.671518 C62.7899539,157.487091 62.7899539,158.302663 63.1144497,159.036679 C63.6823175,160.178481 64.8991771,160.667824 66.1160367,160.994053 C67.3328963,161.157168 68.4686319,161.646512 69.5232435,162.29897 C71.1457229,163.603886 71.2268469,166.050604 71.1457229,168.171093 C71.0645989,169.231338 71.1457229,170.210025 71.4702188,171.27027 C71.7947147,172.248957 72.6870784,172.982972 73.74169,173.06453 C74.9585496,172.982972 75.7697893,171.922728 76.1754091,170.780926 C76.2565331,170.454697 76.4187811,170.210025 76.662153,169.965353 C77.2300208,169.557567 78.1223845,170.04691 78.5280043,170.699369 C78.8525002,171.351827 79.1769961,172.004285 79.6637399,172.575186 C80.2316077,173.06453 81.0428474,173.146087 81.7729632,172.982972 C82.5030789,172.7383 83.1520707,172.330514 83.7199385,171.84117 C85.2612939,170.617811 86.4781535,168.986666 87.2082693,167.192406 C87.938385,165.316589 87.6950131,163.277657 86.6404015,161.564954 C85.9914097,160.586267 85.017922,159.852252 84.5311782,158.71045 C83.8010625,156.834633 84.9367981,154.795701 85.5857898,152.838326 C86.2347816,151.044066 86.3970295,149.168249 85.9914097,147.292432 C85.5857898,145.416615 84.4500542,143.867026 82.9086988,142.806782 C79.7448639,140.930965 75.6886653,142.235881 72.1192106,141.501866 C70.821227,141.175636 69.6043675,140.686293 68.3875079,140.196949 C66.5216565,139.462934 64.6558052,138.97359 62.7088299,138.728918 C60.7618546,138.484247 58.4903834,138.484247 57.3546478,140.115392 C57.0301519,140.604736 56.78678,141.175636 56.5434081,141.746537 C55.8132923,143.051454 54.6775567,144.030141 53.2173252,144.519485 C52.1627136,144.845714 51.108102,144.845714 50.0534904,145.008828 C48.9988787,145.171943 48.0253911,145.742844 47.4575233,146.721531 C46.9707794,147.700218 47.2952753,148.84202 47.4575233,149.983822 C47.6197712,151.125624 47.6197712,152.348983 46.8085315,153.082998 C46.4029116,153.409227 45.8350438,153.572342 45.6727959,154.061685 C45.429424,154.632586 45.6727959,155.203487 46.1595397,155.529716 C46.6462836,155.855945 47.1330274,156.01906 47.7008952,156.100617 C49.7289945,156.589961 51.8382177,156.834633 53.866317,156.834633 C55.9755403,156.753075 58.0036395,155.937503 59.463871,154.387914 C59.3016231,154.551029 58.4903834,154.551029 58.3281354,154.551029 C59.8694909,154.469472 61.8164662,155.12193 62.465458,156.671518 Z" id="Path" fill="#7E646B"></path>
                        <g opacity="0.05" transform="translate(45.429424, 145.171943)" fill="#000000" id="Path">
                            <path d="M39.3451261,24.6302959 C38.7772583,25.1196395 38.1282666,25.5274259 37.3981508,25.7720977 C36.6680351,26.0167695 35.8567954,25.853655 35.2889276,25.3643113 C34.8021837,24.7934104 34.3965639,24.1409523 34.153192,23.4884941 C33.7475721,22.8360359 32.8552084,22.3466923 32.2873406,22.7544787 C32.0439687,22.9991505 31.8817208,23.2438223 31.8005968,23.5700514 C31.3949769,24.6302959 30.5026132,25.7720977 29.3668776,25.853655 C28.312266,25.7720977 27.4199023,25.1196395 27.0954064,24.059395 C26.7709106,23.0807078 26.6897866,22.0204632 26.7709106,20.9602187 C26.8520345,18.8397297 26.7709106,16.4745688 25.1484311,15.0880952 C24.0938195,14.435637 22.9580839,13.9462934 21.7412243,13.7831788 C20.5243648,13.4569498 19.3075052,12.8860489 18.7396374,11.8258043 C18.4151415,11.0102316 18.4151415,10.1946589 18.0906456,9.46064346 C17.5227778,8.23728439 16.1436703,7.58482622 14.8456868,7.34015441 C13.3854553,8.72662802 11.43848,9.46064346 9.49150465,9.54220073 C7.3822814,9.54220073 5.27305814,9.29752892 3.32608283,8.80818529 C2.75821503,8.72662802 2.19034723,8.56351348 1.78472737,8.23728439 C1.7036034,8.15572712 1.62247943,8.07416985 1.54135546,7.99261258 C1.21685957,8.15572712 0.892363685,8.40039894 0.648991771,8.72662802 C0.405619857,9.29752892 0.648991771,9.86842982 1.1357356,10.1946589 C1.62247943,10.520888 2.10922326,10.6840025 2.67709106,10.7655598 C4.70519034,11.2549034 6.8144136,11.4995752 8.84251288,11.4995752 C10.7894882,11.418018 12.7364635,10.6840025 14.196695,9.29752892 C15.4946785,9.54220073 16.8737861,10.1946589 17.4416539,11.418018 C17.7661497,12.2335907 17.7661497,13.0491634 18.0906456,13.7831788 C18.6585134,14.9249806 19.875373,15.4143243 21.0922326,15.7405533 C22.3090921,15.9036679 23.4448277,16.3930115 24.4994394,17.0454697 C26.1219188,18.350386 26.2030428,20.7971042 26.1219188,22.9175932 C26.0407948,23.9778377 26.1219188,24.956525 26.4464147,26.0167695 C26.7709106,26.9954568 27.6632742,27.7294722 28.7178859,27.8110295 C29.9347454,27.7294722 30.7459852,26.6692277 31.151605,25.5274259 C31.232729,25.2011968 31.3949769,24.956525 31.6383488,24.7118532 C32.2062166,24.3040668 33.0985803,24.7934104 33.5042002,25.4458686 C33.8286961,26.0983268 34.153192,26.750785 34.6399358,27.3216859 C35.2078036,27.8110295 36.0190433,27.8925868 36.749159,27.7294722 C37.4792748,27.4848004 38.1282666,27.077014 38.6961344,26.5876704 C40.2374898,25.3643113 41.4543494,23.7331659 42.1844651,21.938906 C42.3467131,21.6126769 42.427837,21.2048905 42.508961,20.8786614 C41.6165973,22.265135 40.6431097,23.5700514 39.3451261,24.6302959 Z"></path>
                            <path d="M40.0752419,8.72662802 C40.2374898,8.31884166 40.3997378,7.99261258 40.4808617,7.58482622 C40.6431097,7.17703987 40.6431097,7.01392532 40.7242336,6.68769624 C40.4808617,7.34015441 40.2374898,7.99261258 40.0752419,8.72662802 Z"></path>
                            <path d="M2.35259517,5.62745171 C3.08271091,4.89343627 3.08271091,3.6700772 2.92046297,2.60983268 C2.75821503,2.03893178 2.67709106,1.38647361 2.67709106,0.734015441 C2.51484311,0.897129983 2.35259517,1.1418018 2.2714712,1.30491634 C1.78472737,2.28360359 2.10922326,3.42540539 2.2714712,4.56720719 C2.2714712,4.97499354 2.35259517,5.30122263 2.35259517,5.62745171 Z"></path>
                        </g>
                        <path d="M30.5026132,165.642818 L42.9145809,162.462084 C42.7523329,162.625199 42.7523329,162.788313 42.7523329,163.032985 L42.590085,163.277657 L39.9941179,166.376833 L30.8271091,171.678056 L23.0392079,169.639124 L21.5789764,160.423152 L25.2295551,152.919884 C21.8223483,161.157168 25.8785469,166.703062 25.8785469,166.703062 L30.5026132,165.642818 Z" id="Path" fill="#000000" opacity="0.05"></path>
                        <path d="M106.110155,203.24072 C106.110155,203.322277 106.029031,203.403834 106.029031,203.485392 C105.947907,203.811621 105.785659,204.056293 105.623411,204.300964 L100.674849,207.073912 L92.9680712,208.297271 L88.4251288,198.75507 L90.5343521,187.907953 L91.9134596,185.869021 L92.3190795,185.379677 C92.5624514,187.337052 93.8604349,197.368596 94.0226829,200.386215 C94.1038068,203.730063 96.6186499,203.893178 96.6186499,203.893178 L106.110155,203.24072 Z" id="Path" fill="#000000" opacity="0.05"></path>
                    </g>
                    <path d="M653.6,136.833333 C653.7,136.583333 653.9,136.25 654,136 C653.6,136.666667 653.3,137.333333 653,138 C653.2,137.583333 653.4,137.25 653.6,136.833333 Z" id="Path" fill="url(#linearGradient-2)"></path>
                    <path d="M584.91359,439.564623 C584.581408,443.10932 575.612511,441.739778 575.612511,441.739778 C560.66435,443.753811 563.15571,429.57502 563.15571,429.57502 L563.15571,428.849968 L563.653982,415.637913 L563.820073,411.932092 C563.820073,411.932092 580.263051,404.681574 579.847824,406.212239 C579.681733,406.776168 580.013915,408.145711 580.512187,409.676376 C581.34264,412.173776 582.505275,414.993422 582.505275,414.993422 C582.505275,414.993422 582.58832,420.874398 582.090048,422.566186 C581.591776,424.257973 584.664454,428.930529 584.664454,428.930529 C584.664454,428.930529 584.664454,429.252775 584.747499,429.736142 C584.996635,432.878034 585.07968,436.181047 584.91359,439.564623 Z" id="Path" fill="#B77983"></path>
                    <path d="M611.422497,443.740359 C611.422497,443.740359 602.420153,445.106843 602.086732,441.57006 C601.920022,438.274421 602.003377,434.898401 602.253443,431.602762 C602.253443,431.120474 602.253443,430.798948 602.253443,430.798948 C602.253443,430.798948 605.337579,426.217206 604.837449,424.448815 C604.337319,422.760805 604.420674,416.89296 604.420674,416.89296 C604.420674,416.89296 604.754094,416.169527 605.170869,415.124569 C606.087775,412.873888 607.421455,409.256724 607.088035,408.211765 C606.754615,406.684518 623.175558,413.918847 623.175558,413.918847 L623.342268,418.0183 L623.842399,430.798948 L623.842399,431.522381 C623.842399,431.602762 626.34305,445.749895 611.422497,443.740359 Z" id="Path" fill="#B77983"></path>
                    <path d="M668.575,191.722222 L668.375,191.722222 C668.775,190.722222 668.575,191.722222 668.575,191.722222 Z" id="Path"></path>
                    <path d="M582,408.914783 C575.802956,416.633049 569.019704,416.545341 565,415.49285 L565.167488,411.458303 C565.167488,411.458303 581.748768,403.564622 581.330049,405.231066 C581.162562,405.757311 581.497537,407.24834 582,408.914783 Z" id="Path" fill="#000000" opacity="0.05"></path>
                    <path d="M623,418.390111 C612.59633,425.008342 606.40367,417.211522 605,415.035666 C605.908257,412.497166 607.229358,408.417435 606.899083,407.238846 C606.486239,405.516293 622.834862,413.675755 622.834862,413.675755 L623,418.390111 Z" id="Path" fill="#000000" opacity="0.05"></path>
                    <path d="M612,359 C612,359 623.285704,354.500788 625.73094,356.522173 C628.270223,358.608764 612,359 612,359 Z" id="Path" fill="#000000" opacity="0.05"></path>
                    <path d="M619.313823,361 C619.313823,361 617.929865,361.774284 620.974572,362.780853 C624.01928,363.787423 619.313823,361 619.313823,361 Z" id="Path" fill="#000000" opacity="0.05"></path>
                    <path d="M561.009798,346.120442 C560.659484,346.201483 569.767634,351.793288 578,347.173971 C578,347.173971 563.111678,345.553157 561.009798,346.120442 Z" id="Path" fill="#000000" opacity="0.05"></path>
                    <path d="M574,357 C574,357 571.984,361.323076 567.952,361.940658 C563.92,362.635438 574,357 574,357 Z" id="Path" fill="#000000" opacity="0.05"></path>
                    <path d="M607,365 C607,365 616.590282,383.265455 614.770228,387.538566 C612.950175,391.811677 607,365 607,365 Z" id="Path" fill="#000000" opacity="0.05"></path>
                    <path d="M585,436.901994 C585,438.059292 585,439.21659 584.916747,440.084563 C584.583735,444.327989 575.592414,442.688483 575.592414,442.688483 C567.35037,444.038664 564.353263,439.409473 563.437481,435.069606 C563.104469,433.622983 562.937963,432.176361 563.021216,430.729739 C563.021216,429.861765 563.104469,428.993792 563.187722,428.125818 L563.187722,427.257845 C564.936034,426.679196 566.850852,427.064962 568.349406,428.511584 C572.012537,431.983478 576.841209,429.283116 576.841209,429.283116 C576.841209,429.283116 580.421087,429.668882 581.753134,431.019063 C582.502411,431.790595 583.834458,429.958207 584.750241,428.125818 C584.833494,429.283116 584.916747,431.308388 584.916747,433.526542 C585,434.780281 585,435.841138 585,436.901994 Z" id="Path" fill="#000000" opacity="0.05"></path>
                    <path d="M569,436.345002 C569,436.345002 566.698752,438.410659 562.403089,435.20533 C562.096256,434.136886 561.94284,433.068443 562.019548,432 C564.244088,433.56705 568.309626,436.345002 569,436.345002 Z" id="Path" fill="#000000" opacity="0.05"></path>
                    <path d="M584,436.629183 C583.375,437.230139 582.5,437.0799 582.0625,436.328705 C582.0625,436.328705 582,436.253586 582,436.253586 C582.75,435.57751 583.375,434.826315 584,434 C584,434.976554 584,435.802868 584,436.629183 Z" id="Path" fill="#000000" opacity="0.05"></path>
                    <path d="M602,437.901994 C602,439.059292 602,440.21659 602.083132,441.084563 C602.415662,445.327989 611.393959,443.688483 611.393959,443.688483 C619.624065,445.038664 622.61683,440.409473 623.531286,436.069606 C624.030081,433.75501 624.113213,431.440414 623.863816,429.125818 L623.863816,428.257845 C622.118036,427.679196 620.205991,428.064962 618.709608,429.511584 C615.051784,432.983478 610.230106,430.283116 610.230106,430.283116 C610.230106,430.283116 606.655413,430.668882 605.325295,432.019063 C604.577104,432.790595 603.246986,430.958207 602.33253,429.125818 C602.249397,430.283116 602.166265,432.308388 602.083132,434.526542 C602.083132,435.68384 602,436.841138 602,437.901994 Z" id="Path" fill="#000000" opacity="0.05"></path>
                    <path d="M617,438.345002 C617,438.345002 619.282609,440.410659 623.543478,437.20533 C623.847826,436.136886 624,435.068443 624,434 C621.793478,435.56705 617.76087,438.345002 617,438.345002 Z" id="Path" fill="#000000" opacity="0.05"></path>
                    <path d="M602,439.629183 C602.625,440.230139 603.5,440.0799 603.9375,439.328705 C603.9375,439.328705 604,439.253586 604,439.253586 C603.25,438.57751 602.625,437.826315 602,437 C602.0625,437.901434 602,438.802868 602,439.629183 Z" id="Path" fill="#000000" opacity="0.05"></path>
                    <path d="M214.530554,580 C212.582949,577.65417 211.690297,574.661213 212.096048,571.587367 L247.55869,282.483981 L250.480097,258.459441 C251.129299,252.958873 255.836011,248.752556 261.435376,248.752556 L365.307645,248.02454 C371.475061,248.02454 376.344074,243.009316 376.344074,236.861622 C376.344074,236.780732 376.344074,236.699841 376.344074,236.61895 L376.344074,235.48648 C376.100623,229.338787 380.969636,224.242672 387.055902,224 C387.218202,224 387.299353,224 387.461653,224 L496.608686,224 C502.694952,224 507.726265,228.934333 507.726265,235.082027 C507.726265,235.567371 507.726265,236.052715 507.645115,236.53806 C506.833613,242.604863 511.134574,248.186321 517.22084,248.995228 C517.626591,249.076119 518.032342,249.076119 518.438093,249.076119 L623.203015,251.745512 C629.370431,251.907294 634.158294,257.003408 633.995993,263.070211 C633.995993,263.636446 633.914843,264.121791 633.833693,264.688025 L581.410657,569.72688 L580.436854,575.47012 C580.193403,576.926153 579.625352,578.382186 578.81385,579.595546 L214.530554,580 Z" id="Path" fill="#EDE0D1"></path>
                    <path d="M214.530554,580 C212.582949,577.65417 211.690297,574.661213 212.096048,571.587367 L247.55869,282.483981 L250.480097,258.459441 C251.129299,252.958873 255.836011,248.752556 261.435376,248.752556 L365.307645,248.02454 C371.475061,248.02454 376.344074,243.009316 376.344074,236.861622 C376.344074,236.780732 376.344074,236.699841 376.344074,236.61895 L376.344074,235.48648 C376.100623,229.338787 380.969636,224.242672 387.055902,224 C387.218202,224 387.299353,224 387.461653,224 L496.608686,224 C502.694952,224 507.726265,228.934333 507.726265,235.082027 C507.726265,235.567371 507.726265,236.052715 507.645115,236.53806 C506.833613,242.604863 511.134574,248.186321 517.22084,248.995228 C517.626591,249.076119 518.032342,249.076119 518.438093,249.076119 L623.203015,251.745512 C629.370431,251.907294 634.158294,257.003408 633.995993,263.070211 C633.995993,263.636446 633.914843,264.121791 633.833693,264.688025 L581.410657,569.72688 L580.436854,575.47012 C580.193403,576.926153 579.625352,578.382186 578.81385,579.595546 L214.530554,580 Z" id="Path" fill="url(#linearGradient-3)" opacity="0.2"></path>
                    <g id="Group" opacity="0.5" transform="translate(405.000000, 203.000000)" fill="url(#linearGradient-4)">
                        <polygon id="Path" points="0.402912621 177.822053 111.606796 0.16121673 165.919417 34.1779468 54.715534 211.838783"></polygon>
                    </g>
                    <polygon id="Rectangle" fill="#F9FAFB" transform="translate(485.893667, 312.016783) rotate(-59.570766) translate(-485.893667, -312.016783) " points="381.751491 281.188588 589.966741 281.423134 590.035843 342.844978 381.820593 342.610432"></polygon>
                    <polygon id="Rectangle" fill="#F4BAD9" transform="translate(524.102852, 244.272030) rotate(-59.408665) translate(-524.102852, -244.272030) " points="502.414411 222.556654 545.742332 222.605614 545.791292 265.987405 502.463371 265.938445"></polygon>
                    <polygon id="Rectangle" fill="#FFE0F5" transform="translate(499.583065, 289.056346) rotate(-59.570766) translate(-499.583065, -289.056346) " points="477.852621 267.298637 521.264608 267.347538 521.31351 310.814055 477.901522 310.765153"></polygon>
                    <polygon id="Rectangle" fill="#F7B643" opacity="0.3" transform="translate(485.104834, 313.309975) rotate(-59.570766) translate(-485.104834, -313.309975) " points="463.37439 291.552266 506.786377 291.601168 506.835279 335.067684 463.423292 335.018783"></polygon>
                    <g id="Group" opacity="0.5" transform="translate(399.000000, 181.000000)" fill="url(#linearGradient-5)">
                        <polygon id="Path" points="0.650666667 204.225368 59.78 0.245955882 121.837333 18.5286765 62.7893333 222.508088"></polygon>
                    </g>
                    <polygon id="Rectangle" fill="#F9FAFB" transform="translate(460.914452, 295.144004) rotate(-73.710690) translate(-460.914452, -295.144004) " points="357.199056 264.347203 564.587248 264.49129 564.629848 325.940805 357.241657 325.796718"></polygon>
                    <polygon id="Rectangle" fill="#EF9EBC" transform="translate(483.091450, 219.644983) rotate(-73.710690) translate(-483.091450, -219.644983) " points="461.380506 197.88686 504.772247 197.917007 504.802395 241.403106 461.410653 241.372959"></polygon>
                    <polygon id="Rectangle" fill="#FFE0F5" transform="translate(468.424680, 269.881490) rotate(-73.710690) translate(-468.424680, -269.881490) " points="446.713735 248.123367 490.105477 248.153514 490.135624 291.639613 446.743883 291.609466"></polygon>
                    <polygon id="Rectangle" fill="#F97878" opacity="0.3" transform="translate(453.669703, 310.456680) rotate(-73.710690) translate(-453.669703, -310.456680) " points="431.958759 288.698557 475.3505 288.728704 475.380648 332.214803 431.988906 332.184656"></polygon>
                    <g id="Group" opacity="0.5" transform="translate(400.000000, 187.000000)" fill="url(#linearGradient-6)">
                        <polygon id="Path" points="0 210.234586 16.974 0.487218045 82 5.68421053 64.944 215.431579"></polygon>
                    </g>
                    <polygon id="Rectangle" fill="#F9FAFB" transform="translate(445.133074, 293.530290) rotate(-85.400097) translate(-445.133074, -293.530290) " points="341.454378 262.779135 548.799122 262.821916 548.811771 324.281444 341.467027 324.238663"></polygon>
                    <polygon id="Rectangle" fill="#4833A2" opacity="0.75" transform="translate(451.469500, 215.150225) rotate(-85.400097) translate(-451.469500, -215.150225) " points="429.773699 193.399157 473.15635 193.408109 473.165301 236.901293 429.78265 236.892342"></polygon>
                    <polygon id="Rectangle" fill="#8D64FF" opacity="0.5" transform="translate(447.249953, 267.310628) rotate(-85.400097) translate(-447.249953, -267.310628) " points="425.554152 245.559561 468.936803 245.568512 468.945754 289.061696 425.563103 289.052745"></polygon>
                    <polygon id="Rectangle" fill="#73B53B" opacity="0.3" transform="translate(439.006455, 312.232929) rotate(-85.400097) translate(-439.006455, -312.232929) " points="417.310654 290.481861 460.693305 290.490812 460.702256 333.983997 417.319605 333.975046"></polygon>
                    <g id="Group" opacity="0.5" transform="translate(386.000000, 184.000000)" fill="url(#linearGradient-7)">
                        <polygon id="Path" points="0.413043478 3.46931818 66.0869565 0.564772727 75.8347826 209.45 10.1608696 212.354545"></polygon>
                    </g>
                    <polygon id="Rectangle" fill="#FFFFFF" transform="translate(426.655604, 291.069595) rotate(-2.609902) translate(-426.655604, -291.069595) " points="395.912823 187.393104 457.374041 187.400301 457.398385 394.746087 395.937168 394.738889"></polygon>
                    <polygon id="Rectangle" fill="#8233FF" opacity="0.75" transform="translate(423.118431, 212.492048) rotate(-2.609902) translate(-423.118431, -212.492048) " points="401.368694 190.798067 444.863074 190.803161 444.868168 234.186029 401.373787 234.180936"></polygon>
                    <polygon id="Path" fill="#8D64FF" opacity="0.5" points="404 242.209493 447.868093 240 450 287.87234 406.213904 290"></polygon>
                    <polygon id="Rectangle" fill="#6C63FF" opacity="0.3" transform="translate(427.832797, 317.018637) rotate(-2.609902) translate(-427.832797, -317.018637) " points="406.08306 295.324655 449.57744 295.329749 449.582534 338.712618 406.088153 338.707524"></polygon>
                    <path d="M417,463.014769 L362.138929,484.133769 L281.969923,515 C278.949298,509.395342 274.459181,501.760011 268.989401,492.662596 C249.967631,461.39023 218.618447,412.654076 190.616442,369.847487 C159.103982,321.598694 132,280.904005 132,280.904005 L151.59324,275.299347 L311.931252,229 L417,463.014769 Z" id="Path" fill="#F9FAFB"></path>
                    <path d="M416,462.355562 L361.619692,483.407764 C331.273538,489.723425 300.28,492.557375 269.286462,491.909615 C250.431385,460.736162 219.356923,412.154157 191.600308,369.482963 L153,275.152904 L311.932923,229 L416,462.355562 Z" id="Path" fill="#000000" opacity="0.05"></path>
                    <path d="M459,451.325026 C459,451.325026 373.991675,501.679497 247.130593,490.335459 L146,243.133362 L194.448231,234.80896 L362.022112,206 L457.127211,446.509931 L459,451.325026 Z" id="Path" fill="#F9FAFB"></path>
                    <path d="M455,443.435864 C435.167442,444.40676 412.271318,444.325852 389.213953,441.57498 C364.221705,438.662292 339.148837,432.594192 317.623256,421.428889 C299.644961,412.124469 284.246512,402.01097 270.863566,389.87477 C235.955039,358.40156 214.348837,313.335806 195,233.560523 L360.916279,205 L455,443.435864 Z" id="Path" fill="#000000" opacity="0.05"></path>
                    <path d="M519,430.864757 C519,430.864757 456.25109,443.071199 392.359806,435.553324 C367.064407,432.643179 341.687409,426.580376 319.900726,415.42482 C301.704358,406.128523 286.119128,396.023852 272.57385,383.898247 C228.837288,344.934637 205.826634,285.276662 182,164.667313 C182,164.667313 286.363923,189.646059 389.503874,135 C389.422276,135.080837 424.264649,350.108229 519,430.864757 Z" id="Path" fill="#F9FAFB"></path>
                    <path d="M393,434 C367.659401,431.081081 342.237057,425 320.411444,413.810811 C302.182561,404.486486 286.569482,394.351351 273,382.189189 C310.275204,379.189189 315.6703,359 315.6703,359 C343.217984,402.459459 393,434 393,434 Z" id="Path" fill="#000000" opacity="0.1"></path>
                    <path d="M236,207.690423 C236,207.690423 319.260553,202.959911 342.477438,185 L346,196.385301 C346,196.385301 291,220.679287 236,221 L236,207.690423 Z" id="Path" fill="#6C63FF" opacity="0.3"></path>
                    <path d="M236,266.410714 C236,266.410714 318.513378,261.936508 380.869565,232 L383,236.799603 C383,236.799603 333.508361,265.434524 236.08194,273 L236,266.410714 Z" id="Path" fill="#6C63FF" opacity="0.3"></path>
                    <path d="M243,285.410714 C243,285.410714 325.513378,280.936508 387.869565,251 L390,255.799603 C390,255.799603 340.508361,284.434524 243.08194,292 L243,285.410714 Z" id="Path" fill="#6C63FF" opacity="0.3"></path>
                    <path d="M250,309.410714 C250,309.410714 332.513378,304.936508 394.869565,275 L397,279.799603 C397,279.799603 347.508361,308.434524 250.08194,316 L250.08194,309.410714 L250,309.410714 Z" id="Path" fill="#6C63FF" opacity="0.3"></path>
                    <path d="M260,353.410714 C260,353.410714 342.513378,348.936508 404.869565,319 L407,323.799603 C407,323.799603 357.508361,352.434524 260.08194,360 L260.08194,353.410714 L260,353.410714 Z" id="Path" fill="#6C63FF" opacity="0.3"></path>
                    <ellipse id="Oval" fill="#0000FF" opacity="0.03" cx="645" cy="642" rx="82" ry="8"></ellipse>
                    <path d="M671,351.609485 L656.733214,341.715906 C656.733214,341.715906 634.103139,333.16383 627.789676,346.411164 C621.476213,359.742342 655.093353,352.867143 655.093353,352.867143 L669.36014,361 L671,351.609485 Z" id="Path" fill="#AE6E79"></path>
                    <polygon id="Rectangle" fill="#F9FAFB" transform="translate(643.400178, 429.587538) rotate(-57.263397) translate(-643.400178, -429.587538) " points="575.718956 324.224562 710.834621 324.383083 711.0814 534.950514 575.965735 534.791993"></polygon>
                    <polygon id="Rectangle" fill="#6C63FF" opacity="0.2" transform="translate(558.492323, 408.038480) rotate(-57.567040) translate(-558.492323, -408.038480) " points="539.377575 403.507725 577.596556 403.552346 577.607072 412.569234 539.38809 412.524613"></polygon>
                    <polygon id="Rectangle" fill="#6C63FF" opacity="0.2" transform="translate(594.821253, 395.046485) rotate(-57.567040) translate(-594.821253, -395.046485) " points="552.824228 390.854565 636.808614 390.952617 636.818277 399.238406 552.833891 399.140354"></polygon>
                    <polygon id="Rectangle" fill="#6C63FF" opacity="0.2" transform="translate(609.685441, 404.483827) rotate(-57.567040) translate(-609.685441, -404.483827) " points="567.688417 400.291906 651.672802 400.389958 651.682465 408.675747 567.69808 408.577696"></polygon>
                    <polygon id="Rectangle" fill="#6C63FF" opacity="0.2" transform="translate(624.535078, 413.924412) rotate(-57.567040) translate(-624.535078, -413.924412) " points="582.538053 409.732492 666.522439 409.830543 666.532102 418.116332 582.547716 418.018281"></polygon>
                    <polygon id="Rectangle" fill="#FFFFFF" transform="translate(654.363553, 432.774632) rotate(-57.567040) translate(-654.363553, -432.774632) " points="612.366529 428.582711 696.350914 428.680763 696.360578 436.966552 612.376192 436.8685"></polygon>
                    <polygon id="Rectangle" fill="#FFFFFF" transform="translate(669.296436, 442.255460) rotate(-57.567040) translate(-669.296436, -442.255460) " points="627.299412 438.063539 711.283797 438.161591 711.29346 446.44738 627.309075 446.349328"></polygon>
                    <path d="M715.899197,641.905413 C708.920752,640.267126 698.120778,637.809694 692.72079,637.236294 C684.246964,636.41715 684.246964,625.850195 690.145412,627.160825 C693.385404,627.81614 696.210013,626.095938 698.120778,624.293821 C698.702315,623.720421 699.283852,623.14702 699.782312,622.491705 C700.446926,621.672561 701.443847,621.09916 702.523844,620.853417 C705.68076,620.198102 712.409975,619.133215 716.397658,621.262989 C717.311502,621.83639 718.142269,622.655534 718.640729,623.638506 C720.468417,626.915081 721.465338,632.239516 721.963798,636.580979 C722.296105,639.284153 720.302264,641.65967 717.560732,641.905413 C717.062272,642.069242 716.480734,641.987328 715.899197,641.905413 Z" id="Path" fill="#BEBED0"></path>
                    <path d="M610.911788,645.884267 C603.930404,644.247561 593.208994,641.792502 587.723621,641.219655 C579.246226,640.401302 579.246226,629.844547 585.147158,631.153912 C589.053408,631.972265 592.377876,629.189865 594.289446,627.225817 C594.538781,626.980311 594.705004,626.734805 594.871228,626.4893 C595.619233,625.670946 596.533462,625.098099 597.613914,624.852593 C600.772159,624.197911 607.504208,623.134052 611.49357,625.26177 C612.657134,625.916452 613.654475,627.307653 614.40248,629.108029 C615.815379,632.381442 616.563384,636.882384 616.978943,640.646808 C617.228278,643.347373 615.233597,645.720597 612.574022,645.966103 C611.99224,646.047938 611.49357,645.966103 610.911788,645.884267 Z" id="Path" fill="#BEBED0"></path>
                    <path d="M612,627.90455 C601.958848,639.63574 593.316872,627.718341 592,625.670038 C592.246914,625.390724 592.411523,625.11141 592.576132,624.832096 C593.316872,623.901049 594.222222,623.249316 595.292181,622.970002 C598.419753,622.225165 605.08642,621.014804 609.037037,623.435526 C610.353909,624.273468 611.341564,625.856247 612,627.90455 Z" id="Path" fill="#000000" opacity="0.1"></path>
                    <path d="M716,625.093121 C711.708502,627.544823 697.295547,626.931897 697.295547,626.931897 C696.809717,626.52328 696.404858,626.046561 696,625.569841 C696.566802,625.093121 697.133603,624.616401 697.619433,624.071579 C698.267206,623.390551 699.238866,622.913831 700.291498,622.709523 C703.368421,622.1647 709.927126,621.279364 713.813765,623.050037 C714.704453,623.594859 715.51417,624.275887 716,625.093121 Z" id="Path" fill="#000000" opacity="0.1"></path>
                    <path d="M718,621.095085 C715.07286,624.8194 698.485733,624.009766 698.485733,624.009766 C698.485733,624.009766 693.525857,619.071 691.411811,608.302871 C689.297766,597.534741 671.409688,563.125305 671.409688,563.125305 C667.262906,557.700759 663.929219,547.823227 663.929219,547.823227 L656.855297,502.645662 C656.855297,502.645662 622.70533,547.41841 623.111877,556.972089 C623.518424,566.525767 615.631408,604.254702 615.631408,604.254702 C612.704268,609.193468 612.704268,627.491191 612.704268,627.491191 C601.890112,638.745101 592.702144,625.386144 592.702144,625.386144 C590.588099,616.723062 593.921786,588.062026 593.921786,588.062026 C593.921786,588.062026 598.881662,564.015903 599.369519,549.118641 C599.776066,534.221379 604.817252,530.497064 604.817252,530.497064 C608.720105,515.114022 615.30617,500.540614 624.331519,487.50551 C626.852112,483.943121 628.4783,482 628.4783,482 L695.883831,489.853448 C694.58288,492.687166 693.607166,495.682811 692.956691,498.759419 C688.565981,517.542923 687.102411,551.223689 687.102411,551.223689 C702.469896,561.182184 707.104534,588.062026 707.104534,588.062026 C707.185844,595.024877 718,621.095085 718,621.095085 Z" id="Path" fill="#5C5C8E"></path>
                    <g id="Group" opacity="0.05" transform="translate(600.000000, 482.000000)" fill="#000000">
                        <path d="M52.6882759,26.627957 L51.7855172,21.1075269 C51.7855172,21.1075269 17.3165517,66.0016129 17.7268966,75.5811828 C18.1372414,85.1607527 10.1765517,122.991935 10.1765517,122.991935 C7.22206897,127.944086 7.22206897,146.291398 7.22206897,146.291398 C5.49862069,148.239785 3.20068966,149.701075 0.656551724,150.43172 C3.93931034,151.324731 7.96068966,150.675269 12.3103448,146.291398 C12.3103448,146.291398 12.3103448,128.025269 15.2648276,122.991935 C15.2648276,122.991935 23.2255172,85.1607527 22.8151724,75.5811828 C22.4868966,68.1123656 43.5786207,38.9677419 52.6882759,26.627957 Z" id="Path"></path>
                        <path d="M107.674483,106.755376 C107.674483,106.755376 103.078621,79.7215054 87.4855172,69.8172043 C87.4855172,69.8172043 88.9627586,36.0451613 93.3944828,17.2107527 C94.0510345,14.1258065 95.0358621,11.122043 96.3489655,8.28064516 L28.3137931,0.405913978 C28.3137931,0.405913978 28.1496552,0.56827957 27.8213793,0.974193548 L91.2606897,8.36182796 C89.9475862,11.2032258 88.9627586,14.2069892 88.3062069,17.2919355 C83.8744828,36.1263441 82.3972414,69.8983871 82.3972414,69.8983871 C97.9082759,79.883871 102.586207,106.836559 102.586207,106.836559 C102.586207,113.899462 113.501379,140.121505 113.501379,140.121505 C111.777931,142.313441 105.212414,142.962903 100.124138,143.044086 C104.145517,143.125269 116.127586,143.206452 118.507586,140.121505 C118.589655,139.95914 107.674483,113.81828 107.674483,106.755376 Z" id="Path"></path>
                    </g>
                    <path d="M616,477.006189 C615.50769,478.200426 614.851276,479.315046 614.030759,480.350052 C611.487156,483.614299 606.235848,487.993167 596.635799,486.79893 C594.338351,486.480467 592.779369,484.490072 593.025524,482.340446 C593.107575,481.70352 593.35373,481.066594 593.763989,480.509283 C596.881954,476.130415 601.312746,472.866168 606.399951,471.035005 C608.123037,470.477695 609.928174,470.159232 611.733312,470 L616,477.006189 Z" id="Path" fill="#AE6E79"></path>
                    <path d="M703,359.030075 L668.864017,347 C668.864017,347 659.063419,351.892231 662.883991,358.869674 L696.106359,379 L703,359.030075 Z" id="Path" fill="#42383C"></path>
                    <path d="M703,361.030075 L668.864017,349 C668.864017,349 659.063419,353.892231 662.883991,360.869674 L696.023303,381 L703,361.030075 Z" id="Path" fill="#020245"></path>
                    <path d="M704.495867,339.804984 C704.495867,339.804984 704.099051,359.146445 712.590918,365.727357 C721.162148,372.308269 687.829587,376 687.829587,376 C687.829587,376 693.146924,356.257264 687.829587,345.984621 C682.51225,335.711977 704.495867,339.804984 704.495867,339.804984 Z" id="Path" fill="#AE6E79"></path>
                    <path d="M694,489.800478 C692.710556,492.615083 691.743473,495.590523 691.098751,498.646381 C651.206583,504.758096 623.402951,488.192132 623.402951,488.192132 C623.241771,487.95088 623.08059,487.709628 623,487.468376 C625.498297,483.930015 627.110102,482 627.110102,482 L694,489.800478 Z" id="Path" fill="#000000" opacity="0.1"></path>
                    <path d="M615,476.418605 C614.586207,477.697674 614.034483,478.891473 613.344828,480 C610.103448,479.317829 607.482759,471.55814 607,470.108527 C608.448276,469.511628 609.965517,469.170543 611.482759,469 L615,476.418605 Z" id="Path" fill="#000000" opacity="0.1"></path>
                    <path d="M708.611558,358 L693.670051,363.416904 L687.417356,371.663534 C687.417356,371.663534 674.587149,375.786849 672.881868,375.786849 C671.176588,375.786849 666.629172,377.403835 663.705834,384.033478 C660.782496,390.663122 650.388404,422.921998 641.293574,428.338901 C632.11754,433.674956 608,469.733749 608,469.733749 C608,469.733749 612.141396,480.971804 617.176034,479.273968 L628.788183,469.733749 C628.788183,469.733749 619.612149,478.869721 625.052806,487.116351 C625.052806,487.116351 659.158419,507.409529 706.094239,494.958735 L706.500258,482.58879 L708.611558,492.533255 L731.91706,478.061228 C731.91706,478.061228 729.80576,451.380955 726.070383,437.717422 C724.52751,431.97712 725.095937,425.913422 727.69446,420.577367 C733.703544,408.045724 743.041986,387.105752 741.905132,379.505917 C740.524667,370.531643 735.490029,366.650876 733.541137,365.438137 C733.135117,365.195589 732.566691,365.03389 732.079467,364.953041 L724.446307,364.225397 L708.611558,358 Z" id="Path" fill="#020245"></path>
                    <path d="M682,397 C682,397 673.871875,435.931298 664.867188,442.229008 C655.8625,448.526718 631.796875,468.646674 631,472" id="Path" fill="#000000" opacity="0.05"></path>
                    <path d="M687,371 C687,371 715.705495,362.040236 724,364.394073" id="Path" fill="#000000" opacity="0.1"></path>
                    <g id="Group" opacity="0.05" transform="translate(704.000000, 359.000000)" fill="#000000">
                        <path d="M21.6113636,62.9196429 C27.8340909,50.4642857 37.5045455,29.6517857 36.3272727,22.0982143 C34.8977273,13.1785714 29.6840909,9.32142857 27.6659091,8.11607143 C27.2454545,7.875 26.6568182,7.71428571 26.1522727,7.63392857 L22.7886364,7.3125 C23.125,7.39285714 23.4613636,7.55357143 23.7977273,7.71428571 C25.8159091,8.91964286 31.1136364,12.7767857 32.4590909,21.6964286 C33.6363636,29.25 23.9659091,50.0625 17.7431818,62.5178571 C15.0522727,67.8214286 14.4636364,73.8482143 16.0613636,79.5535714 C19.9295455,93.0535714 22.1159091,119.651786 22.1159091,119.651786 L1.34545455,132.026786 L1.85,134.4375 L25.9840909,120.053571 C25.9840909,120.053571 23.7977273,93.5357143 19.9295455,79.9553571 C18.4159091,74.25 18.9204545,68.2232143 21.6113636,62.9196429 Z" id="Path"></path>
                        <polygon id="Path" points="14.3795455 6.42857143 18.0795455 6.83035714 1.93409091 0.723214286 0.420454545 1.20535714"></polygon>
                    </g>
                    <path d="M679,438 C679,438 691.962306,431.958333 696.228381,433.347222 C700.494457,434.736111 716,433 716,433" id="Path" fill="#000000" opacity="0.05"></path>
                    <path d="M702.528587,346.591881 C702.038115,342.257538 704,342.852448 704,342.852448 C704,342.852448 681.438327,338.518105 686.83351,349.396456 C688.223178,352.371005 688.958885,355.685503 689.122375,359 L689.367611,359 C695.66199,358.915013 699.258779,351.606121 702.528587,346.591881 Z" id="Path" fill="#000000" opacity="0.05"></path>
                    <ellipse id="Oval" fill="#AE6E79" cx="689.5" cy="337" rx="18.5" ry="18"></ellipse>
                    <path d="M707.365195,342.271246 C708.992478,338.628933 710.212939,334.738281 709.968847,330.76485 C709.806119,326.791418 708.016108,322.735206 704.761544,320.500151 C703.052898,319.341233 701.100159,318.761775 699.391513,317.685637 C698.008323,316.857838 696.869226,315.781701 695.5674,314.871123 C689.139635,310.401012 680.759132,309.738773 673.761819,313.215526 C670.507255,314.871123 667.659511,317.437297 664.567675,319.424013 C661.475839,321.410729 657.814454,322.983546 654.153069,322.404087 C653.502156,324.142463 655.048074,325.88084 656.512628,327.122537 C659.197644,329.440372 662.208116,331.675428 665.706772,331.758207 C667.089962,331.758207 668.473152,331.509868 669.693614,332.089327 C670.507255,332.586006 671.239532,333.248244 671.727716,333.993263 C673.436363,336.228318 674.819552,338.711713 675.95865,341.360668 C676.284106,342.436805 676.935019,343.430163 677.830024,344.175182 C679.457307,345.251319 681.491409,344.340741 683.444148,344.257962 C686.373256,344.175182 689.058271,345.996338 691.255102,348.065834 C693.451933,350.135329 695.5674,352.453164 698.33378,353.529302 C700.367882,354.357101 704.517452,354.274321 705.575185,351.790926 C705.982006,350.880348 705.168365,348.810852 705.331093,347.651934 C705.819277,345.747998 706.47019,343.926842 707.365195,342.271246 Z" id="Path" fill="#000000" opacity="0.1"></path>
                    <path d="M707.365195,342.331562 C708.992478,338.682225 710.212939,334.784068 709.968847,330.802973 C709.806119,326.821877 708.016108,322.757841 704.761544,320.518475 C703.052898,319.357322 701.100159,318.776746 699.391513,317.698532 C698.008323,316.869137 696.869226,315.790924 695.5674,314.878589 C689.139635,310.399857 680.759132,309.736341 673.761819,313.219799 C670.507255,314.878589 667.659511,317.366774 664.567675,319.440262 C661.475839,321.430809 657.814454,323.00666 654.153069,322.426083 C653.502156,324.167813 655.048074,325.909542 656.512628,327.153635 C659.197644,329.475941 662.208116,331.715307 665.706772,331.798246 C667.089962,331.798246 668.473152,331.549428 669.693614,332.130004 C670.507255,332.627641 671.239532,333.291157 671.727716,334.037613 C673.436363,336.276979 674.819552,338.765164 675.95865,341.336288 C676.284106,342.414502 676.935019,343.409776 677.830024,344.156231 C679.457307,345.234445 681.491409,344.32211 683.444148,344.239171 C686.373256,344.156231 689.058271,346.06384 691.255102,348.054388 C693.451933,350.127875 695.5674,352.450181 698.33378,353.528394 C700.367882,354.357789 704.517452,354.27485 705.575185,351.786665 C705.982006,350.87433 705.249729,348.800843 705.412457,347.63969 C705.819277,345.732082 706.47019,343.990352 707.365195,342.331562 Z" id="Path" fill="#42383C"></path>
                    <path d="M514.671169,286 L391.667095,287.295095 C387.039219,287.376039 383.385632,291.099437 383.385632,295.63227 L383.385632,305.750201 C383.385632,310.283034 379.732046,314.006433 375.185361,314.087376 L286.443807,316.191906 C282.546648,316.272849 279.136634,313.763602 278.162345,310.040204 L274.021613,294.741892 C273.047324,291.018494 269.63731,288.509247 265.821342,288.59019 L147.282762,289.885285 C142.654886,289.966229 138.920108,293.689627 139.001299,298.303404 C139.001299,298.708121 139.08249,299.193782 139.08249,299.598499 L186.741494,579.419995 C187.391021,583.467167 190.882226,586.381131 195.022957,586.381131 L569.556156,588 C574.184032,588 578,584.276601 578,579.662825 C578,579.096221 577.918809,578.61056 577.837618,578.043956 L523.033823,292.79925 C522.303105,288.833021 518.73071,286 514.671169,286 Z" id="Path" fill="#FFF4E5"></path>
                    <path d="M514.671169,286 L391.667095,287.295095 C387.039219,287.376039 383.385632,291.099437 383.385632,295.63227 L383.385632,305.750201 C383.385632,310.283034 379.732046,314.006433 375.185361,314.087376 L286.443807,316.191906 C282.546648,316.272849 279.136634,313.763602 278.162345,310.040204 L274.021613,294.741892 C273.047324,291.018494 269.63731,288.509247 265.821342,288.59019 L147.282762,289.885285 C142.654886,289.966229 138.920108,293.689627 139.001299,298.303404 C139.001299,298.708121 139.08249,299.193782 139.08249,299.598499 L186.741494,579.419995 C187.391021,583.467167 190.882226,586.381131 195.022957,586.381131 L569.556156,588 C574.184032,588 578,584.276601 578,579.662825 C578,579.096221 577.918809,578.61056 577.837618,578.043956 L523.033823,292.79925 C522.303105,288.833021 518.73071,286 514.671169,286 Z" id="Path" fill="url(#linearGradient-8)" opacity="0.2"></path>
                </g>
            </g>
        </g>
    </g>
</svg>