<?xml version="1.0" encoding="utf-8"?>
<!-- Generator: Adobe Illustrator 22.0.0, SVG Export Plug-In . SVG Version: 6.00 Build 0)  -->
<svg version="1.1" id="Layer_1" xmlns="http://www.w3.org/2000/svg" xmlns:xlink="http://www.w3.org/1999/xlink" x="0px" y="0px"
	 viewBox="0 0 1147.2 824.4" style="enable-background:new 0 0 1147.2 824.4;" xml:space="preserve">
<style type="text/css">
	.st0{opacity:0.12;}
	.st1{fill:url(#SVGID_1_);}
	.st2{fill:#FBCDDC;}
	.st3{fill:#BBABF4;}
	.st4{fill:#5C5C8E;}
	.st5{opacity:5.000000e-02;enable-background:new    ;}
	.st6{fill:#F6F7F9;}
	.st7{opacity:0.2;}
	.st8{fill:#6C63FF;}
	.st9{opacity:0.5;}
	.st10{fill:#7E646B;}
	.st11{opacity:5.000000e-02;}
	.st12{fill:url(#SVGID_2_);}
	.st13{fill:#B77983;}
	.st14{fill:none;}
	.st15{fill:#EDE0D1;}
	.st16{opacity:0.2;fill:url(#SVGID_3_);enable-background:new    ;}
	.st17{fill:url(#SVGID_4_);}
	.st18{fill:#F9FAFB;}
	.st19{fill:#F4BAD9;}
	.st20{fill:#FFE0F5;}
	.st21{opacity:0.3;fill:#F7B643;enable-background:new    ;}
	.st22{fill:url(#SVGID_5_);}
	.st23{fill:#EF9EBC;}
	.st24{opacity:0.3;fill:#F97878;enable-background:new    ;}
	.st25{fill:url(#SVGID_6_);}
	.st26{fill:url(#SVGID_7_);}
	.st27{opacity:0.75;fill:#4833A2;enable-background:new    ;}
	.st28{opacity:0.5;fill:#8D64FF;enable-background:new    ;}
	.st29{opacity:0.3;fill:#73B53B;enable-background:new    ;}
	.st30{fill:url(#SVGID_8_);}
	.st31{fill:#FFFFFF;}
	.st32{opacity:0.75;fill:#8233FF;enable-background:new    ;}
	.st33{opacity:0.3;fill:#6C63FF;enable-background:new    ;}
	.st34{fill:url(#SVGID_9_);}
	.st35{opacity:0.1;enable-background:new    ;}
	.st36{opacity:3.000000e-02;fill:#0000FF;enable-background:new    ;}
	.st37{fill:#AE6E79;}
	.st38{opacity:0.2;fill:#6C63FF;enable-background:new    ;}
	.st39{fill:#BEBED0;}
	.st40{fill:#22224C;}
	.st41{fill:#42383C;}
	.st42{fill:#313160;}
	.st43{fill:#FFF4E5;}
	.st44{opacity:0.2;fill:url(#SVGID_10_);enable-background:new    ;}
</style>
<g>
	<g class="st0">
		
			<linearGradient id="SVGID_1_" gradientUnits="userSpaceOnUse" x1="1579.8433" y1="-571.9035" x2="983.9085" y2="-256.9568" gradientTransform="matrix(0.2215 -1.1185 1.0415 0.2062 641.6248 1900.1984)">
			<stop  offset="0" style="stop-color:#005AFF"/>
			<stop  offset="1.576012e-02" style="stop-color:#0057FF;stop-opacity:0.9842"/>
			<stop  offset="0.1878" style="stop-color:#0037FF;stop-opacity:0.8122"/>
			<stop  offset="0.3674" style="stop-color:#001FFF;stop-opacity:0.6326"/>
			<stop  offset="0.5556" style="stop-color:#000EFF;stop-opacity:0.4444"/>
			<stop  offset="0.7581" style="stop-color:#0003FF;stop-opacity:0.2419"/>
			<stop  offset="1" style="stop-color:#0000FF;stop-opacity:0"/>
		</linearGradient>
		<path class="st1" d="M573.6,33.3c106.9,27,197.5,104,273.1,181c68.9,70.2,134.7,154.5,103.4,257.4
			C919,573.9,813.3,651.8,722.2,698.3c-95.5,48.8-198.8,57.3-301.3,27.5C319.4,696.3,220.2,661,145.5,587.9
			C71.4,515.4,10.9,397.8,44.3,287.6C104.3,90,386.5-28.3,573.6,33.3z"/>
	</g>
	<g>
		<path class="st2" d="M767.7,239.2c0,0-2.3,14.9-7.9,17.1c-5.6,2.2,7.9,18.4,7.9,18.4l26.1-2.8l0.2-5.5c0,0-5.5-10.7,2-24.4
			S767.7,239.2,767.7,239.2z"/>
		<path class="st2" d="M830.2,138c-5.2,20.5-24,27.1-24,27.1s-12.3,10.2-13.9,13.2c-1.7,3.1-16.7,16.6-20.7,18.5s-7,4.8-5.7,8.5
			c1.2,3.4-8.7,20.9-10.2,23.5l0,0l-0.2,0.3l-3.2,3.8l-11.3,6.5l-9.6-2.5l-1.8-11.3l4.5-9.2l0,0l0,0c2.8-2.2,5.1-5,6.7-8.1
			c3-5.6,5-9.4,5-9.4s3.1-8.7,8.5-14c3.7-3.6,7.7-6.8,12-9.6l22.5-15.1c0,0,5-4.2,8.6-5.4C801,153.6,835.4,117.4,830.2,138z"/>
		<g>
			<g>
				<path class="st3" d="M833.3,279.2c0,0.1-0.1,0.2-0.1,0.3c-0.4,1.5-6.1,8.2-6.1,8.2s-16.6,12.7-22.1,15.1
					c-5.4,2.3-12.2,13.3-12.2,13.3l-6.5,15.4c0,0-12.5,10.6-13.7,13.3c-0.8,1.8-0.5,5-0.3,6.8c0,0.8,0.2,1.4,0.2,1.4l-3.6,4.2
					l-2.9,3.4l-4.1,4.7l-7.1-0.6l-22.1-2.3l-4.3-2.1l-24.1-11.9c0,0,0-0.8-0.2-2.1c0-0.6-0.1-1.2-0.2-1.9c-0.2-2.1-0.4-4.8-0.7-7
					c-0.5-4.7,2.6-12.9,2.6-12.9l5.7-16.5c-0.8-3,2.4-11.4,2.4-11.4c-0.7-1.2,2.5-13.2,3.4-14.3c0.9-1.2,2-9.6,2-9.6
					c1.8-3,3.9-17.6,3.9-17.6s2.3-18.6,2.7-23.2c0.5-4.6,7.9-15.4,8.1-15.7c-5.1,10.8,0.3,18.1,0.3,18.1l5.7-1.3l15.3-3.8
					c-0.7,0.5,0.1,5.7,0.1,5.7c1.4,1,2.4,2.5,2.8,4.1c0.3,2.3,3.3,5.8,3.8,6.4l0.1,0.1c0.3-2.3,1.5-4.3,3.4-5.5l3.8,4.6l1.5,5.6
					c0,0-0.3,0.8-2.3,2.5s1.2,5.7,1.2,5.7c1.1,1.6,1.7,7.8,1.7,7.8l0,0c2.5-2.4,6.6-2.7,6.6-2.7c1.6-1.8,2.8-3.8,3.7-6
					c0.2-1.3,1.5-2.2,2.8-1.9c0.2,0,0.4,0.1,0.5,0.2c1.1-1.1,2.4-2.1,3.7-2.9c1.9-1.1,4.2,0.8,4.2,0.8l0.6,7.3c0,0,0.2,0.3,0.5,0.7
					c0.7,0.8,1.9,2.1,2.5,1.8c1-0.4,9,0,9,0s2.8,1,3.8-0.5c0.9-1.6,6.6-5.8,6.6-5.8s1.9,14.7,2.2,18.8c0.2,4.1,3.2,4.3,3.2,4.3
					L833.3,279.2z"/>
				<circle class="st4" cx="768" cy="273" r="1.4"/>
				<circle class="st4" cx="758.7" cy="294.3" r="1.4"/>
				<circle class="st4" cx="740.6" cy="339.7" r="1.4"/>
				<circle class="st4" cx="749.1" cy="316.8" r="1.4"/>
			</g>
			<path class="st5" d="M794.4,262.4c-7,2.5-23.3,8.5-23.4,8.5l0.7-3.8c2.5-2.4,6.6-2.7,6.6-2.7c1.6-1.8,2.8-3.8,3.7-6
				c0.2-1.3,1.5-2.2,2.8-1.9c0.2,0,0.4,0.1,0.5,0.2c1.1-1.1,2.4-2.1,3.7-2.9c1.9-1.1,4.2,0.8,4.2,0.8l0.6,7.3
				C793.9,261.7,794.1,262,794.4,262.4z"/>
			<path class="st5" d="M769.5,258.8c1.1,1.6,1.7,7.8,1.7,7.8l-2.6,2.3l-6.1-14.8l-0.7-7.8l-0.1-0.4l0.1,0.1
				c0.3-2.3,1.5-4.3,3.4-5.5l3.8,4.6l1.5,5.6c0,0-0.3,0.8-2.3,2.5S769.5,258.8,769.5,258.8z"/>
		</g>
		<path class="st5" d="M803.5,230.6c0.6,11.8-8.4,21.9-20.3,22.5c-11.8,0.6-21.9-8.4-22.5-20.3c-0.6-11.8,8.4-21.9,20.2-22.5
			c11.7-0.7,21.8,8.2,22.5,19.9C803.5,230.3,803.5,230.5,803.5,230.6z"/>
		<path class="st2" d="M803.5,229.6c0.6,11.8-8.4,21.9-20.2,22.6c-11.8,0.6-21.9-8.4-22.6-20.2c-0.6-11.8,8.4-21.9,20.2-22.6l0,0
			c11.7-0.7,21.8,8.3,22.5,20C803.5,229.5,803.5,229.5,803.5,229.6z"/>
		
			<rect x="861.1" y="-1.1" transform="matrix(0.2576 -0.9663 0.9663 0.2576 558.1913 1022.384)" class="st6" width="166.6" height="298.1"/>
		<g class="st7">
			<ellipse class="st8" cx="856.9" cy="115.2" rx="31" ry="31"/>
		</g>
		<g class="st7">
			
				<rect x="993" y="51.1" transform="matrix(0.2576 -0.9663 0.9663 0.2576 625.6812 1051.7494)" class="st8" width="8.5" height="135.2"/>
		</g>
		<g class="st7">
			
				<rect x="955.5" y="96.5" transform="matrix(0.2576 -0.9663 0.9663 0.2576 585.9463 1024.5774)" class="st8" width="8.5" height="68.9"/>
		</g>
		<g class="st7">
			
				<rect x="970.3" y="101.8" transform="matrix(0.2576 -0.9663 0.9663 0.2576 571.3393 1058.6617)" class="st8" width="8.5" height="111.4"/>
		</g>
		<g class="st7">
			
				<rect x="976.1" y="113.9" transform="matrix(0.2576 -0.9663 0.9663 0.2576 552.4274 1082.0017)" class="st8" width="8.5" height="135.2"/>
		</g>
		<g class="st9">
			
				<rect x="1010.5" y="209.6" transform="matrix(0.2576 -0.9663 0.9663 0.2576 535.6525 1153.7815)" class="st8" width="16.4" height="37.4"/>
		</g>
		<path class="st2" d="M852.1,148.5c-13.6,1.3-12.4,37.5-11.4,39c0.9,1.5-2.1,18.1-2.1,18.1s-4.8,25-3.9,29.6c1,4.6-2.9,7.8-2.9,7.8
			c-5.9,2.8-13.1,11.1-15,13.4l-0.5,0.5l-0.2,0.2l-0.2,0.1c0,0,1.9,15.1,2.2,19.2c0.2,4.1,3.2,3.9,3.2,3.9l11.9-0.9
			c0,0,0.1-0.1,0.1-0.2l0.1-0.1l0.1-0.3l15.1-25.3c6.2-5.7,5.8-17.2,5.8-17.2l0.3-26.3l-1.4-15.5l0.3-8.8
			C853.5,185.3,865.7,147.2,852.1,148.5z"/>
		<path class="st10" d="M780,221.1c0.4,1,0.4,2,0.8,2.9c0.7,1.4,2.2,2,3.7,2.4c1.5,0.2,2.9,0.8,4.2,1.6c2,1.6,2.1,4.6,2,7.2
			c-0.1,1.3,0,2.5,0.4,3.8c0.4,1.2,1.5,2.1,2.8,2.2c1.5-0.1,2.5-1.4,3-2.8c0.1-0.4,0.3-0.7,0.6-1c0.7-0.5,1.8,0.1,2.3,0.9
			c0.4,0.8,0.8,1.6,1.4,2.3c0.7,0.6,1.7,0.7,2.6,0.5c0.9-0.3,1.7-0.8,2.4-1.4c1.9-1.5,3.4-3.5,4.3-5.7c0.9-2.3,0.6-4.8-0.7-6.9
			c-0.8-1.2-2-2.1-2.6-3.5c-0.9-2.3,0.5-4.8,1.3-7.2c0.8-2.2,1-4.5,0.5-6.8s-1.9-4.2-3.8-5.5c-3.9-2.3-8.9-0.7-13.3-1.6
			c-1.6-0.4-3.1-1-4.6-1.6c-2.3-0.9-4.6-1.5-7-1.8s-5.2-0.3-6.6,1.7c-0.4,0.6-0.7,1.3-1,2c-0.9,1.6-2.3,2.8-4.1,3.4
			c-1.3,0.4-2.6,0.4-3.9,0.6c-1.3,0.2-2.5,0.9-3.2,2.1c-0.6,1.2-0.2,2.6,0,4s0.2,2.9-0.8,3.8c-0.5,0.4-1.2,0.6-1.4,1.2
			c-0.3,0.7,0,1.4,0.6,1.8c0.6,0.4,1.2,0.6,1.9,0.7c2.5,0.6,5.1,0.9,7.6,0.9c2.6-0.1,5.1-1.1,6.9-3c-0.2,0.2-1.2,0.2-1.4,0.2
			C776.8,218.4,779.2,219.2,780,221.1z"/>
		<g class="st11">
			<path d="M807.5,237.2c-0.7,0.6-1.5,1.1-2.4,1.4c-0.9,0.3-1.9,0.1-2.6-0.5c-0.6-0.7-1.1-1.5-1.4-2.3c-0.5-0.8-1.6-1.4-2.3-0.9
				c-0.3,0.3-0.5,0.6-0.6,1c-0.5,1.3-1.6,2.7-3,2.8c-1.3-0.1-2.4-0.9-2.8-2.2c-0.4-1.2-0.5-2.5-0.4-3.8c0.1-2.6,0-5.5-2-7.2
				c-1.3-0.8-2.7-1.4-4.2-1.6c-1.5-0.4-3-1.1-3.7-2.4c-0.4-1-0.4-2-0.8-2.9c-0.7-1.5-2.4-2.3-4-2.6c-1.8,1.7-4.2,2.6-6.6,2.7
				c-2.6,0-5.2-0.3-7.6-0.9c-0.7-0.1-1.4-0.3-1.9-0.7c-0.1-0.1-0.2-0.2-0.3-0.3c-0.4,0.2-0.8,0.5-1.1,0.9c-0.3,0.7,0,1.4,0.6,1.8
				c0.6,0.4,1.2,0.6,1.9,0.7c2.5,0.6,5.1,0.9,7.6,0.9c2.4-0.1,4.8-1,6.6-2.7c1.6,0.3,3.3,1.1,4,2.6c0.4,1,0.4,2,0.8,2.9
				c0.7,1.4,2.2,2,3.7,2.4c1.5,0.2,2.9,0.8,4.2,1.6c2,1.6,2.1,4.6,2,7.2c-0.1,1.3,0,2.5,0.4,3.8c0.4,1.2,1.5,2.1,2.8,2.2
				c1.5-0.1,2.5-1.4,3-2.8c0.1-0.4,0.3-0.7,0.6-1c0.7-0.5,1.8,0.1,2.3,0.9c0.4,0.8,0.8,1.6,1.4,2.3c0.7,0.6,1.7,0.7,2.6,0.5
				c0.9-0.3,1.7-0.8,2.4-1.4c1.9-1.5,3.4-3.5,4.3-5.7c0.2-0.4,0.3-0.9,0.4-1.3C810.3,234.3,809.1,235.9,807.5,237.2z"/>
			<path d="M808.4,217.7c0.2-0.5,0.4-0.9,0.5-1.4c0.2-0.5,0.2-0.7,0.3-1.1C808.9,216,808.6,216.8,808.4,217.7z"/>
			<path d="M761.9,213.9c0.9-0.9,0.9-2.4,0.7-3.7c-0.2-0.7-0.3-1.5-0.3-2.3c-0.2,0.2-0.4,0.5-0.5,0.7c-0.6,1.2-0.2,2.6,0,4
				C761.8,213.1,761.9,213.5,761.9,213.9z"/>
		</g>
		<path class="st5" d="M740.6,232.1l15.3-3.9c-0.2,0.2-0.2,0.4-0.2,0.7l0,0l-0.2,0.3l-3.2,3.8l-11.3,6.5l-9.6-2.5l-1.8-11.3l4.5-9.2
			l0,0c-4.2,10.1,0.8,16.9,0.8,16.9L740.6,232.1z"/>
		<path class="st5" d="M832.9,279.5c0,0.1-0.1,0.2-0.1,0.3c-0.1,0.4-0.3,0.7-0.5,1l-6.1,3.4l-9.5,1.5l-5.6-11.7l2.6-13.3l1.7-2.5
			l0.5-0.6c0.3,2.4,1.9,14.7,2.1,18.4c0.1,4.1,3.2,4.3,3.2,4.3L832.9,279.5z"/>
	</g>
	
		<linearGradient id="SVGID_2_" gradientUnits="userSpaceOnUse" x1="867.24" y1="997.1042" x2="867.24" y2="999.5291" gradientTransform="matrix(1 0 0 -1 -33.54 1187.6814)">
		<stop  offset="0" style="stop-color:#808080;stop-opacity:0.25"/>
		<stop  offset="0.54" style="stop-color:#808080;stop-opacity:0.12"/>
		<stop  offset="1" style="stop-color:#808080;stop-opacity:0.1"/>
	</linearGradient>
	<path class="st12" d="M833.8,189.2c0.1-0.3,0.3-0.7,0.4-1c-0.4,0.8-0.7,1.6-1,2.4C833.4,190.1,833.6,189.7,833.8,189.2z"/>
	<path class="st13" d="M749.2,561.4c-0.4,4.4-11.2,2.7-11.2,2.7c-18,2.5-15-15.1-15-15.1v-0.9l0.6-16.4l0.2-4.6c0,0,19.8-9,19.3-7.1
		c-0.2,0.7,0.2,2.4,0.8,4.3c1,3.1,2.4,6.6,2.4,6.6s0.1,7.3-0.5,9.4c-0.6,2.1,3.1,7.9,3.1,7.9s0,0.4,0.1,1
		C749.3,553.1,749.4,557.2,749.2,561.4z"/>
	<path class="st13" d="M783.9,566.1c0,0-10.8,1.7-11.2-2.7c-0.2-4.1-0.1-8.3,0.2-12.4c0-0.6,0-1,0-1s3.7-5.7,3.1-7.9
		c-0.6-2.1-0.5-9.4-0.5-9.4s0.4-0.9,0.9-2.2c1.1-2.8,2.7-7.3,2.3-8.6C778.3,520,798,529,798,529l0.2,5.1l0.6,15.9v0.9
		C798.8,551,801.8,568.6,783.9,566.1z"/>
	<path class="st14" d="M853.8,256.2h-0.2C854,255.2,853.8,256.2,853.8,256.2z"/>
	<path class="st5" d="M744,524.2c-7.4,8.8-15.5,8.7-20.3,7.5l0.2-4.6c0,0,19.8-9,19.3-7.1C743,520.6,743.4,522.3,744,524.2z"/>
	<path class="st5" d="M798.2,534.2c-12.6,7.3-20.1-1.3-21.8-3.7c1.1-2.8,2.7-7.3,2.3-8.6C778.2,520,798,529,798,529L798.2,534.2z"/>
	<path class="st5" d="M784.7,461.3c0,0,12-6.9,14.6-3.8C802,460.7,784.7,461.3,784.7,461.3z"/>
	<path class="st5" d="M791.9,465.2c0,0-2,1,2.4,2.3S791.9,465.2,791.9,465.2z"/>
	<path class="st5" d="M719.2,446.1c-0.4,0.1,10,7,19.4,1.3C738.6,447.4,721.6,445.4,719.2,446.1z"/>
	<path class="st5" d="M738.1,459.3c0,0-2.9,5.6-8.7,6.4C723.6,466.6,738.1,459.3,738.1,459.3z"/>
	<path class="st5" d="M776.3,471.5c0,0,13.7,21.8,11.1,26.9S776.3,471.5,776.3,471.5z"/>
	<path class="st5" d="M749.3,558c0,1.2,0,2.4-0.1,3.3c-0.4,4.4-11.2,2.7-11.2,2.7c-9.9,1.4-13.5-3.4-14.6-7.9
		c-0.4-1.5-0.6-3-0.5-4.5c0-0.9,0.1-1.8,0.2-2.7V548c2.1-0.6,4.4-0.2,6.2,1.3c4.4,3.6,10.2,0.8,10.2,0.8s4.3,0.4,5.9,1.8
		c0.9,0.8,2.5-1.1,3.6-3c0.1,1.2,0.2,3.3,0.2,5.6C749.3,555.8,749.3,556.9,749.3,558z"/>
	<path class="st5" d="M731.9,557.8c0,0-3,2.9-8.6-1.6c-0.4-1.5-0.6-3-0.5-4.5C725.7,553.9,731,557.8,731.9,557.8z"/>
	<path class="st5" d="M749.3,558c-1,0.8-2.4,0.6-3.1-0.4l-0.1-0.1c1.2-0.9,2.2-1.9,3.2-3C749.3,555.8,749.3,556.9,749.3,558z"/>
	<path class="st5" d="M772.5,560.1c0,1.2,0,2.4,0.1,3.3c0.4,4.4,11.2,2.7,11.2,2.7c9.9,1.4,13.5-3.4,14.6-7.9
		c0.6-2.4,0.7-4.8,0.4-7.2v-0.9c-2.1-0.6-4.4-0.2-6.2,1.3c-4.4,3.6-10.2,0.8-10.2,0.8s-4.3,0.4-5.9,1.8c-0.9,0.8-2.5-1.1-3.6-3
		c-0.1,1.2-0.2,3.3-0.3,5.6C772.6,557.8,772.5,559,772.5,560.1z"/>
	<path class="st5" d="M789.9,559.8c0,0,3,2.9,8.6-1.6c0.4-1.5,0.6-3,0.6-4.5C796.2,555.9,790.9,559.8,789.9,559.8z"/>
	<path class="st5" d="M772.5,560.1c1,0.8,2.4,0.6,3.1-0.4l0.1-0.1c-1.2-0.9-2.2-1.9-3.2-3C772.6,557.8,772.5,559,772.5,560.1z"/>
	<path class="st15" d="M295.7,737c-2.4-2.9-3.5-6.6-3-10.4l43.7-357.4l3.6-29.7c0.8-6.8,6.6-12,13.5-12l128-0.9
		c7.6,0,13.6-6.2,13.6-13.8c0-0.1,0-0.2,0-0.3v-1.4c-0.3-7.6,5.7-13.9,13.2-14.2c0.2,0,0.3,0,0.5,0h134.5c7.5,0,13.7,6.1,13.7,13.7
		c0,0.6,0,1.2-0.1,1.8c-1,7.5,4.3,14.4,11.8,15.4c0.5,0.1,1,0.1,1.5,0.1l129.1,3.3c7.6,0.2,13.5,6.5,13.3,14c0,0.7-0.1,1.3-0.2,2
		l-64.6,377.1l-1.2,7.1c-0.3,1.8-1,3.6-2,5.1L295.7,737z"/>
	
		<linearGradient id="SVGID_3_" gradientUnits="userSpaceOnUse" x1="800.8016" y1="394.3879" x2="307.9526" y2="789.2609" gradientTransform="matrix(1 0 0 1 0 -66)">
		<stop  offset="0" style="stop-color:#1C1CA2"/>
		<stop  offset="0.1976" style="stop-color:#4B27A4;stop-opacity:0.8617"/>
		<stop  offset="0.4739" style="stop-color:#8736A5;stop-opacity:0.6683"/>
		<stop  offset="0.7095" style="stop-color:#B240A7;stop-opacity:0.5033"/>
		<stop  offset="0.8923" style="stop-color:#CD47A8;stop-opacity:0.3754"/>
		<stop  offset="1" style="stop-color:#D749A8;stop-opacity:0.3"/>
	</linearGradient>
	<path class="st16" d="M295.7,737c-2.4-2.9-3.5-6.6-3-10.4l43.7-357.4l3.6-29.7c0.8-6.8,6.6-12,13.5-12l128-0.9
		c7.6,0,13.6-6.2,13.6-13.8c0-0.1,0-0.2,0-0.3v-1.4c-0.3-7.6,5.7-13.9,13.2-14.2c0.2,0,0.3,0,0.5,0h134.5c7.5,0,13.7,6.1,13.7,13.7
		c0,0.6,0,1.2-0.1,1.8c-1,7.5,4.3,14.4,11.8,15.4c0.5,0.1,1,0.1,1.5,0.1l129.1,3.3c7.6,0.2,13.5,6.5,13.3,14c0,0.7-0.1,1.3-0.2,2
		l-64.6,377.1l-1.2,7.1c-0.3,1.8-1,3.6-2,5.1L295.7,737z"/>
	<g class="st9">
		
			<linearGradient id="SVGID_4_" gradientUnits="userSpaceOnUse" x1="505.9796" y1="189.8932" x2="505.9796" y2="449.9427" gradientTransform="matrix(0.8475 0.5308 0.5308 -0.8475 31.5839 403.0653)">
			<stop  offset="0" style="stop-color:#808080;stop-opacity:0.25"/>
			<stop  offset="0.54" style="stop-color:#808080;stop-opacity:0.12"/>
			<stop  offset="1" style="stop-color:#808080;stop-opacity:0.1"/>
		</linearGradient>
		<polygon class="st17" points="527.5,489.6 663.1,275.7 711.3,305 713.1,299 732.9,311.4 594.9,531.8 		"/>
	</g>
	
		<rect x="500.6" y="366" transform="matrix(0.5065 -0.8623 0.8623 0.5065 -37.7453 741.5729)" class="st18" width="256.6" height="75.6"/>
	
		<rect x="647.6" y="297.9" transform="matrix(0.5089 -0.8608 0.8608 0.5089 51.7159 739.8115)" class="st19" width="53.4" height="53.4"/>
	
		<rect x="617.2" y="350.6" transform="matrix(0.5065 -0.8623 0.8623 0.5065 -7.5818 741.5086)" class="st20" width="53.5" height="53.5"/>
	
		<rect x="601.2" y="378.6" transform="matrix(0.5065 -0.8623 0.8623 0.5065 -39.6198 741.4763)" class="st21" width="53.5" height="53.5"/>
	<g class="st9">
		
			<linearGradient id="SVGID_5_" gradientUnits="userSpaceOnUse" x1="478.7378" y1="300.5997" x2="478.7378" y2="561.0892" gradientTransform="matrix(0.9599 0.2805 0.2805 -0.9599 18.6791 672.945)">
			<stop  offset="0" style="stop-color:#808080;stop-opacity:0.25"/>
			<stop  offset="0.54" style="stop-color:#808080;stop-opacity:0.12"/>
			<stop  offset="1" style="stop-color:#808080;stop-opacity:0.1"/>
		</linearGradient>
		<polygon class="st22" points="523.5,507.2 596.2,258.4 669,278.4 674.2,281.3 601.6,530.1 		"/>
	</g>
	
		<rect x="471.8" y="348.7" transform="matrix(0.2805 -0.9599 0.9599 0.2805 60.531 853.6649)" class="st18" width="255.7" height="75.6"/>
	
		<rect x="598.5" y="270.9" transform="matrix(0.2805 -0.9599 0.9599 0.2805 164.2143 814.3475)" class="st23" width="53.5" height="53.5"/>
	
		<rect x="582.1" y="328.4" transform="matrix(0.2805 -0.9599 0.9599 0.2805 97.1527 839.9587)" class="st20" width="53.5" height="53.5"/>
	
		<rect x="562.4" y="375" transform="matrix(0.2805 -0.9599 0.9599 0.2805 38.2592 854.5613)" class="st24" width="53.5" height="53.5"/>
	<g class="st9">
		
			<linearGradient id="SVGID_6_" gradientUnits="userSpaceOnUse" x1="461.263" y1="442.5376" x2="461.263" y2="701.3612" gradientTransform="matrix(0.9968 8.019890e-02 8.019890e-02 -0.9968 67.2488 915.2367)">
			<stop  offset="0" style="stop-color:#808080;stop-opacity:0.25"/>
			<stop  offset="0.54" style="stop-color:#808080;stop-opacity:0.12"/>
			<stop  offset="1" style="stop-color:#808080;stop-opacity:0.1"/>
		</linearGradient>
		<polygon class="st25" points="523,507.9 543.5,251.3 622.9,256.3 602.2,514.3 		"/>
	</g>
	<g class="st9">
		
			<linearGradient id="SVGID_7_" gradientUnits="userSpaceOnUse" x1="443.8988" y1="374.2521" x2="443.8988" y2="633.5394" gradientTransform="matrix(0.9969 7.920996e-02 7.920996e-02 -0.9969 103.3137 851.8225)">
			<stop  offset="0" style="stop-color:#808080;stop-opacity:0.25"/>
			<stop  offset="0.54" style="stop-color:#808080;stop-opacity:0.12"/>
			<stop  offset="1" style="stop-color:#808080;stop-opacity:0.1"/>
		</linearGradient>
		<polygon class="st26" points="536.4,510.7 556.9,252.3 630.8,261.8 634.6,263.2 614.6,517 		"/>
	</g>
	
		<rect x="455.9" y="341.2" transform="matrix(8.018894e-02 -0.9968 0.9968 8.018894e-02 159.1358 930.4653)" class="st18" width="255.7" height="75.6"/>
	
		<rect x="564.7" y="259.3" transform="matrix(8.018894e-02 -0.9968 0.9968 8.018894e-02 258.9256 852.6091)" class="st27" width="53.5" height="53.5"/>
	
		<rect x="559.5" y="320" transform="matrix(8.018894e-02 -0.9968 0.9968 8.018894e-02 193.6161 903.3672)" class="st28" width="53.5" height="53.5"/>
	
		<rect x="544.3" y="377.2" transform="matrix(8.018894e-02 -0.9968 0.9968 8.018894e-02 122.6336 940.7535)" class="st29" width="53.5" height="53.5"/>
	<g class="st9">
		
			<linearGradient id="SVGID_8_" gradientUnits="userSpaceOnUse" x1="474.2226" y1="519.1446" x2="474.2226" y2="773.9255" gradientTransform="matrix(0.999 -4.553734e-02 -4.553734e-02 -0.999 112.5998 1047.7328)">
			<stop  offset="0" style="stop-color:#808080;stop-opacity:0.25"/>
			<stop  offset="0.54" style="stop-color:#808080;stop-opacity:0.12"/>
			<stop  offset="1" style="stop-color:#808080;stop-opacity:0.1"/>
		</linearGradient>
		<polygon class="st30" points="509.7,256.9 588.1,251.3 592.6,251.3 604.2,505.5 521.3,509.4 		"/>
	</g>
	
		<rect x="518" y="247.4" transform="matrix(0.999 -4.552719e-02 4.552719e-02 0.999 -16.5084 25.694)" class="st31" width="75.6" height="255.7"/>
	
		<rect x="525.8" y="256" transform="matrix(0.999 -4.552719e-02 4.552719e-02 0.999 -12.3004 25.4501)" class="st32" width="53.5" height="53.5"/>
	<polygon class="st28" points="527.8,316.7 581.3,314 583.9,372.5 530.5,375.1 	"/>
	
		<rect x="530.5" y="383.2" transform="matrix(0.999 -4.552719e-02 4.552719e-02 0.999 -18.0868 25.796)" class="st33" width="53.5" height="53.5"/>
	<path class="st18" d="M544.3,588.9l-67.2,26l-98.2,38c-3.7-6.9-9.2-16.3-15.9-27.5c-23.3-38.5-61.7-98.5-96-151.2
		c-38.6-59.4-71.8-109.5-71.8-109.5l24-6.9l196.4-57L544.3,588.9z"/>
	<path class="st5" d="M544.3,588.9l-67.2,26c-37.5,7.8-75.8,11.3-114.1,10.5c-23.3-38.5-61.7-98.5-96-151.2l-47.7-116.5l196.4-57
		L544.3,588.9z"/>
	<path class="st18" d="M594.3,572.7c0,0-104.4,61.7-260.2,47.8L209.9,317.6l59.5-10.2l205.8-35.3L592,566.8L594.3,572.7z"/>
	<path class="st5" d="M591.9,566.8c-24.6,1.2-53,1.1-81.6-2.3c-31-3.6-62.1-11.1-88.8-24.9c-22.3-11.5-41.4-24-58-39
		c-43.3-38.9-70.1-94.6-94.1-193.2l205.8-35.3L591.9,566.8z"/>
	<g class="st9">
		
			<linearGradient id="SVGID_9_" gradientUnits="userSpaceOnUse" x1="451.6593" y1="524.7643" x2="451.6593" y2="779.6196" gradientTransform="matrix(0.999 -4.553734e-02 -4.553734e-02 -0.999 112.5998 1047.7328)">
			<stop  offset="0" style="stop-color:#808080;stop-opacity:0.25"/>
			<stop  offset="0.54" style="stop-color:#808080;stop-opacity:0.12"/>
			<stop  offset="1" style="stop-color:#808080;stop-opacity:0.1"/>
		</linearGradient>
		<path class="st34" d="M449.9,254c0,0,54.3-5.4,77.4-5.4c5.9,15.7,49.4,181.2,87.9,206.8c17.8,11.8-153.7,51.1-153.7,51.1
			L449.9,254z"/>
	</g>
	<path class="st18" d="M668.5,549.9c0,0-76.9,15.1-155.2,5.8c-31-3.6-62.1-11.1-88.8-24.9c-22.3-11.5-41.4-24-58-39
		c-53.6-48.2-81.8-122-111-271.2c0,0,127.9,30.9,254.3-36.7C509.7,184,552.4,450,668.5,549.9z"/>
	<path class="st35" d="M513.3,555.7c-31-3.6-62.1-11.1-88.8-24.9c-22.3-11.5-41.4-24-58-39c45.6-3.7,52.2-28.6,52.2-28.6
		C452.4,516.8,513.3,555.7,513.3,555.7z"/>
	<path class="st33" d="M321.6,275.4c0,0,104-5.9,133-28.3l4.4,14.2c0,0-68.7,30.3-137.4,30.7V275.4z"/>
	<path class="st33" d="M321.6,345.3c0,0,100.7-5.5,176.8-42.3l2.6,5.9c0,0-60.4,35.2-179.3,44.5L321.6,345.3z"/>
	<path class="st33" d="M329.7,372.5c0,0,100.7-5.5,176.8-42.3l2.6,5.9c0,0-60.4,35.2-179.3,44.5L329.7,372.5z"/>
	<path class="st33" d="M337.8,399.8c0,0,100.7-5.5,176.8-42.3l2.6,5.9c0,0-60.4,35.2-179.3,44.5L337.8,399.8L337.8,399.8z"/>
	<path class="st33" d="M354,454.3c0,0,100.7-5.5,176.8-42.3l2.6,5.9c0,0-60.4,35.2-179.3,44.5L354,454.3L354,454.3z"/>
	<ellipse class="st36" cx="825.4" cy="812" rx="100.9" ry="9.1"/>
	<path class="st37" d="M857.2,451.2l-17.4-11.8c0,0-27.6-10.2-35.3,5.6c-7.7,15.9,33.3,7.7,33.3,7.7l17.4,9.7L857.2,451.2z"/>
	
		<rect x="739.4" y="419.2" transform="matrix(0.5408 -0.8412 0.8412 0.5408 -83.8047 944.0157)" class="st18" width="166.5" height="259.2"/>
	
		<rect x="694.2" y="516.7" transform="matrix(0.5363 -0.844 0.844 0.5363 -107.9692 848.0042)" class="st38" width="47.1" height="11.1"/>
	
		<rect x="710.8" y="501.1" transform="matrix(0.5363 -0.844 0.844 0.5363 -73.7082 878.3093)" class="st38" width="103.5" height="10.2"/>
	
		<rect x="729" y="512.7" transform="matrix(0.5363 -0.844 0.844 0.5363 -74.9771 899.0901)" class="st38" width="103.5" height="10.2"/>
	
		<rect x="747.5" y="524.4" transform="matrix(0.5363 -0.844 0.844 0.5363 -76.3042 920.0743)" class="st38" width="103.5" height="10.2"/>
	
		<rect x="784" y="547.7" transform="matrix(0.5363 -0.844 0.844 0.5363 -79.0179 961.6978)" class="st31" width="103.5" height="10.2"/>
	
		<rect x="802.5" y="559.4" transform="matrix(0.5363 -0.844 0.844 0.5363 -80.3643 982.7122)" class="st31" width="103.5" height="10.2"/>
	<path class="st39" d="M908.7,810.1c-8.4-2-21.4-5-27.9-5.7c-10.2-1-10.2-13.9-3.1-12.3c3.9,0.8,7.3-1.3,9.6-3.5
		c0.7-0.7,1.4-1.4,2-2.2c0.8-1,2-1.7,3.3-2c3.8-0.8,11.9-2.1,16.7,0.5c1.1,0.7,2.1,1.7,2.7,2.9c2.2,4,3.4,10.5,4,15.8
		c0.4,3.3-2,6.2-5.3,6.5C910.1,810.3,909.4,810.2,908.7,810.1z"/>
	<path class="st39" d="M779.2,815.2c-8.4-2-21.3-5-27.9-5.7c-10.2-1-10.2-13.9-3.1-12.3c4.7,1,8.7-2.4,11-4.8
		c0.3-0.3,0.5-0.6,0.7-0.9c0.9-1,2-1.7,3.3-2c3.8-0.8,11.9-2.1,16.7,0.5c1.4,0.8,2.6,2.5,3.5,4.7c1.7,4,2.6,9.5,3.1,14.1
		c0.3,3.3-2.1,6.2-5.3,6.5C780.5,815.4,779.9,815.3,779.2,815.2z"/>
	<path class="st35" d="M783.4,794.7c-12.2,12.6-22.7-0.2-24.3-2.4c0.3-0.3,0.5-0.6,0.7-0.9c0.9-1,2-1.7,3.3-2
		c3.8-0.8,11.9-2.1,16.7,0.5C781.4,790.8,782.6,792.5,783.4,794.7z"/>
	<path class="st35" d="M912.1,787.8c-5.3,3.6-23.1,2.7-23.1,2.7c-0.6-0.6-1.1-1.3-1.6-2c0.7-0.7,1.4-1.4,2-2.2c0.8-1,2-1.7,3.3-2
		c3.8-0.8,11.9-2.1,16.7,0.5C910.5,785.6,911.5,786.6,912.1,787.8z"/>
	<path class="st40" d="M913,785.4c-3.6,4.6-24,3.6-24,3.6s-6.1-6.1-8.7-19.4s-24.6-55.8-24.6-55.8c-5.1-6.7-9.2-18.9-9.2-18.9
		l-8.7-55.8c0,0-42,55.3-41.5,67.1s-9.2,58.4-9.2,58.4c-3.6,6.1-3.6,28.7-3.6,28.7c-13.3,13.9-24.6-2.6-24.6-2.6
		c-2.6-10.7,1.5-46.1,1.5-46.1s6.1-29.7,6.7-48.1c0.5-18.4,6.7-23,6.7-23c4.8-19,12.9-37,24-53.1c3.1-4.4,5.1-6.8,5.1-6.8l82.9,9.7
		c-1.6,3.5-2.8,7.2-3.6,11c-5.4,23.2-7.2,64.8-7.2,64.8c18.9,12.3,24.6,45.5,24.6,45.5C899.7,753.2,913,785.4,913,785.4z"/>
	<g class="st11">
		<path d="M833.2,645.8l-1.1-6.8c0,0-42,55.3-41.5,67.1s-9.2,58.4-9.2,58.4c-3.6,6.1-3.6,28.7-3.6,28.7c-2.1,2.4-4.9,4.2-8,5.1
			c4,1.1,8.9,0.3,14.2-5.1c0,0,0-22.5,3.6-28.7c0,0,9.7-46.6,9.2-58.4C796.4,696.9,822.1,661,833.2,645.8z"/>
		<path d="M900.2,744.5c0,0-5.6-33.3-24.6-45.5c0,0,1.8-41.6,7.2-64.8c0.8-3.8,2-7.5,3.6-11l-82.9-9.7c0,0-0.2,0.2-0.6,0.7l77.3,9.1
			c-1.6,3.5-2.8,7.2-3.6,11c-5.4,23.2-7.2,64.8-7.2,64.8c18.9,12.3,24.6,45.5,24.6,45.5c0,8.7,13.3,41,13.3,41
			c-2.1,2.7-10.1,3.5-16.3,3.6c4.9,0.1,19.5,0.2,22.4-3.6C913.5,785.4,900.2,753.2,900.2,744.5z"/>
	</g>
	<path class="st37" d="M787.6,606.3c-0.6,1.5-1.4,2.9-2.4,4.2c-3.1,4.1-9.5,9.6-21.2,8.1c-2.8-0.4-4.7-2.9-4.4-5.6
		c0.1-0.8,0.4-1.6,0.9-2.3c3.8-5.5,9.2-9.6,15.4-11.9c2.1-0.7,4.3-1.1,6.5-1.3L787.6,606.3z"/>
	<path class="st41" d="M895.7,463.1l-41.1-15c0,0-11.8,6.1-7.2,14.8l40,25.1L895.7,463.1z"/>
	<path class="st42" d="M895.9,463.3l-41.1-15c0,0-11.8,6.1-7.2,14.8l39.9,25.1L895.9,463.3z"/>
	<path class="st37" d="M897.2,438.3c0,0-0.5,24.1,10.2,32.3c10.8,8.2-31.2,12.8-31.2,12.8s6.7-24.6,0-37.4
		C869.5,433.2,897.2,438.3,897.2,438.3z"/>
	<path class="st35" d="M885.9,623.1c-1.6,3.5-2.8,7.2-3.6,11c-49.5,7.6-84-13-84-13c-0.2-0.3-0.4-0.6-0.5-0.9
		c3.1-4.4,5.1-6.8,5.1-6.8L885.9,623.1z"/>
	<path class="st35" d="M787.6,606.3c-0.6,1.5-1.4,2.9-2.4,4.2c-4.7-0.8-8.5-9.9-9.2-11.6c2.1-0.7,4.3-1.1,6.5-1.3L787.6,606.3z"/>
	<path class="st42" d="M901.3,459.9l-18.4,6.7l-7.7,10.2c0,0-15.8,5.1-17.9,5.1c-2.1,0-7.7,2-11.3,10.2s-16.4,48.1-27.6,54.8
		c-11.3,6.6-41,51.2-41,51.2s5.1,13.9,11.3,11.8l14.3-11.8c0,0-11.3,11.3-4.6,21.5c0,0,42,25.1,99.8,9.7l2.1-1.3l29.7-19.7
		c0,0-2.6-33-7.2-49.9c-1.9-7.1-1.2-14.6,2-21.2c7.4-15.5,18.9-41.4,17.5-50.8c-1.7-11.1-7.9-15.9-10.3-17.4
		c-0.5-0.3-1.2-0.5-1.8-0.6l-9.4-0.9L901.3,459.9z"/>
	<path class="st5" d="M869.8,511.3c0,0-10.2,47.6-21.5,55.3s-41.5,32.3-42.5,36.4"/>
	<path class="st35" d="M874.9,476.5c0,0,35.3-11.8,45.5-8.7"/>
	<g class="st11">
		<path d="M924.7,537.3c7.4-15.5,18.9-41.4,17.5-50.8c-1.7-11.1-7.9-15.9-10.3-17.4c-0.5-0.3-1.2-0.5-1.8-0.6l-4-0.4
			c0.4,0.1,0.8,0.3,1.2,0.5c2.4,1.5,8.7,6.3,10.3,17.4c1.4,9.4-10.1,35.3-17.5,50.8c-3.2,6.6-3.9,14.1-2,21.2
			c4.6,16.8,7.2,49.9,7.2,49.9l-24.7,15.4l0.6,3l28.7-17.9c0,0-2.6-33-7.2-49.9C920.9,551.4,921.5,543.9,924.7,537.3z"/>
		<polygon points="916.1,467 920.5,467.5 901.3,459.9 899.5,460.5 		"/>
	</g>
	<path class="st5" d="M865.2,559.4c0,0,15.8-8.7,21-6.7s24.1-0.5,24.1-0.5"/>
	<path class="st5" d="M895.4,444.8c-0.6-5.1,1.8-4.4,1.8-4.4s-27.6-5.1-21,7.7c1.7,3.5,2.6,7.4,2.8,11.3h0.3
		C887,459.3,891.4,450.7,895.4,444.8z"/>
	<circle class="st37" cx="879.2" cy="435.3" r="22"/>
	<path class="st35" d="M903.3,441.8c2-4.4,3.5-9.1,3.2-13.9c-0.2-4.8-2.4-9.7-6.4-12.4c-2.1-1.4-4.5-2.1-6.6-3.4
		c-1.7-1-3.1-2.3-4.7-3.4c-7.9-5.4-18.2-6.2-26.8-2c-4,2-7.5,5.1-11.3,7.5s-8.3,4.3-12.8,3.6c-0.8,2.1,1.1,4.2,2.9,5.7
		c3.3,2.8,7,5.5,11.3,5.6c1.7,0,3.4-0.3,4.9,0.4c1,0.6,1.9,1.4,2.5,2.3c2.1,2.7,3.8,5.7,5.2,8.9c0.4,1.3,1.2,2.5,2.3,3.4
		c2,1.3,4.5,0.2,6.9,0.1c3.6-0.1,6.9,2.1,9.6,4.6c2.7,2.5,5.3,5.3,8.7,6.6c2.5,1,7.6,0.9,8.9-2.1c0.5-1.1-0.5-3.6-0.3-5
		C901.4,446,902.2,443.8,903.3,441.8z"/>
	<path class="st41" d="M903.8,441.3c2-4.4,3.5-9.1,3.2-13.9c-0.2-4.8-2.4-9.7-6.4-12.4c-2.1-1.4-4.5-2.1-6.6-3.4
		c-1.7-1-3.1-2.3-4.7-3.4c-7.9-5.4-18.2-6.2-26.8-2c-4,2-7.5,5-11.3,7.5c-3.8,2.4-8.3,4.3-12.8,3.6c-0.8,2.1,1.1,4.2,2.9,5.7
		c3.3,2.8,7,5.5,11.3,5.6c1.7,0,3.4-0.3,4.9,0.4c1,0.6,1.9,1.4,2.5,2.3c2.1,2.7,3.8,5.7,5.2,8.8c0.4,1.3,1.2,2.5,2.3,3.4
		c2,1.3,4.5,0.2,6.9,0.1c3.6-0.1,6.9,2.2,9.6,4.6c2.7,2.5,5.3,5.3,8.7,6.6c2.5,1,7.6,0.9,8.9-2.1c0.5-1.1-0.4-3.6-0.2-5
		C901.9,445.4,902.7,443.3,903.8,441.3z"/>
	<path class="st43" d="M665.4,370.6l-151.5,1.6c-5.7,0.1-10.2,4.7-10.2,10.3V395c0,5.6-4.5,10.2-10.1,10.3l-109.3,2.6
		c-4.8,0.1-9-3-10.2-7.6l-5.1-18.9c-1.2-4.6-5.4-7.7-10.1-7.6l-146,1.6c-5.7,0.1-10.3,4.7-10.2,10.4c0,0.5,0.1,1.1,0.1,1.6
		l58.7,345.7c0.8,5,5.1,8.6,10.2,8.6l461.3,2c5.7,0,10.4-4.6,10.4-10.3c0-0.7-0.1-1.3-0.2-2L675.7,379
		C674.8,374.1,670.4,370.6,665.4,370.6z"/>
	
		<linearGradient id="SVGID_10_" gradientUnits="userSpaceOnUse" x1="259.6083" y1="413.1755" x2="682.8809" y2="836.4481" gradientTransform="matrix(1 0 0 1 0 -66)">
		<stop  offset="0" style="stop-color:#1C1CA2"/>
		<stop  offset="0.1588" style="stop-color:#4827A3;stop-opacity:0.8651"/>
		<stop  offset="0.3645" style="stop-color:#7B33A5;stop-opacity:0.6902"/>
		<stop  offset="0.5583" style="stop-color:#A33CA6;stop-opacity:0.5254"/>
		<stop  offset="0.7347" style="stop-color:#BF43A7;stop-opacity:0.3755"/>
		<stop  offset="0.8876" style="stop-color:#D148A8;stop-opacity:0.2455"/>
		<stop  offset="1" style="stop-color:#D749A8;stop-opacity:0.15"/>
	</linearGradient>
	<path class="st44" d="M665.4,370.6l-151.5,1.6c-5.7,0.1-10.2,4.7-10.2,10.3V395c0,5.6-4.5,10.2-10.1,10.3l-109.3,2.6
		c-4.8,0.1-9-3-10.2-7.6l-5.1-18.9c-1.2-4.6-5.4-7.7-10.1-7.6l-146,1.6c-5.7,0.1-10.3,4.7-10.2,10.4c0,0.5,0.1,1.1,0.1,1.6
		l58.7,345.7c0.8,5,5.1,8.6,10.2,8.6l461.3,2c5.7,0,10.4-4.6,10.4-10.3c0-0.7-0.1-1.3-0.2-2L675.7,379
		C674.8,374.1,670.4,370.6,665.4,370.6z"/>
</g>
</svg>
