<?xml version="1.0" encoding="utf-8"?>
<!-- Generator: Adobe Illustrator 23.1.0, SVG Export Plug-In . SVG Version: 6.00 Build 0)  -->
<svg version="1.1"
	 id="svg3070" xmlns:cc="http://creativecommons.org/ns#" xmlns:dc="http://purl.org/dc/elements/1.1/" xmlns:inkscape="http://www.inkscape.org/namespaces/inkscape" xmlns:rdf="http://www.w3.org/1999/02/22-rdf-syntax-ns#" xmlns:sodipodi="http://sodipodi.sourceforge.net/DTD/sodipodi-0.dtd" xmlns:svg="http://www.w3.org/2000/svg"
	 xmlns="http://www.w3.org/2000/svg" xmlns:xlink="http://www.w3.org/1999/xlink" x="0px" y="0px" viewBox="0 0 291 79.5"
	 style="enable-background:new 0 0 291 79.5;" xml:space="preserve">
<style type="text/css">
	.st0{fill-rule:evenodd;clip-rule:evenodd;fill:#FFFFFF;}
	.st1{fill:#FFFFFF;}
</style>
<sodipodi:namedview  bordercolor="#666666" borderopacity="1.0" fit-margin-bottom="0" fit-margin-left="0" fit-margin-right="0" fit-margin-top="0" id="base" inkscape:current-layer="layer1" inkscape:cx="142.93233" inkscape:cy="33.703355" inkscape:document-units="px" inkscape:pageopacity="0.0" inkscape:pageshadow="2" inkscape:window-height="750" inkscape:window-maximized="1" inkscape:window-width="1280" inkscape:window-x="-8" inkscape:window-y="-8" inkscape:zoom="2.8" pagecolor="#ffffff" showgrid="false">
	</sodipodi:namedview>
<g id="layer1" transform="translate(-200.55198,-393.96227)" inkscape:groupmode="layer" inkscape:label="Layer 1">
	<g id="g3019" transform="matrix(1.018827,0,0,-1.018827,170.5996,498.03288)">
		<path id="path16" inkscape:connector-curvature="0" class="st0" d="M31.2,37.7h31v10.2H42.4v38.9H31.2V37.7z"/>
		<path id="path18" inkscape:connector-curvature="0" class="st0" d="M77.9,37.7v33.8H66.7V37.7H77.9z M72.3,76.1
			c3.9,0,6.4,2.6,6.4,5.8c-0.1,3.3-2.4,5.8-6.3,5.8c-3.8,0-6.4-2.5-6.4-5.8C66,78.7,68.4,76.1,72.3,76.1L72.3,76.1L72.3,76.1z"/>
		<path id="path20" inkscape:connector-curvature="0" class="st0" d="M83.1,37.7h11.2v18.9c0,1,0.1,2,0.4,2.7c0.8,2,2.7,4.1,5.8,4.1
			c4.1,0,5.7-3.1,5.7-7.6V37.7h11.2v19.4c0,10.4-5.5,15.2-12.9,15.2c-6.1,0-8.7-3.4-10.2-5.7h0.1v4.9H83.1
			C83.3,68.3,83.1,37.7,83.1,37.7L83.1,37.7z"/>
		<path id="path22" inkscape:connector-curvature="0" class="st0" d="M133.2,86.8H122V37.7h11.2v11l2.8,3.5l8.8-14.5h13.8l-14.8,21
			l13,14.3h-13.5c0,0-9.2-12.8-10-14.3L133.2,86.8L133.2,86.8z"/>
		<path id="path24" inkscape:connector-curvature="0" class="st0" d="M188.7,51.8c0.1,0.9,0.4,2.5,0.4,4.4c0,8.7-4.4,17.6-16.1,17.6
			c-12.5,0-18.3-9.9-18.3-18.8c0-11.1,7-18,19.3-18c4.9,0,9.4,0.7,13.1,2.2l-1.5,7.4c-3-1-6.1-1.5-10-1.5c-5.2,0-9.8,2.2-10.2,6.7
			L188.7,51.8L188.7,51.8z M165.4,59.4c0.3,2.9,2.2,7.1,7,7.1c5.1,0,6.3-4.5,6.3-7.1H165.4z"/>
		<path id="path26" inkscape:connector-curvature="0" class="st0" d="M216.8,86.8v-17h-0.1c-1.6,2.4-5,4-9.5,4
			c-8.6,0-16.3-6.9-16.2-18.7c0-11,6.9-18.1,15.4-18.1c4.7,0,9.1,2,11.3,5.9h0.2l0.4-5.1h10c-0.1,2.4-0.3,6.5-0.3,10.5v38.5H216.8
			L216.8,86.8z M216.8,53.4c0-0.9-0.1-1.7-0.2-2.5c-0.7-3.1-3.3-5.3-6.6-5.3c-4.7,0-7.7,3.7-7.7,9.7c0,5.5,2.6,10,7.8,10
			c3.5,0,5.9-2.4,6.6-5.3c0.1-0.7,0.1-1.4,0.1-2L216.8,53.4L216.8,53.4z"/>
		<g>
			<path class="st1" d="M279.4,66.6v0.2c0,0-0.1-0.1-0.1-0.2H279.4z"/>
			<path class="st1" d="M308.2,100.4h-63.4c-3,0-5.5-2.4-5.5-5.4V30.9c0-3,2.5-5.4,5.5-5.4h63.4c3,0,5.5,2.4,5.5,5.4V95
				C313.7,98,311.2,100.4,308.2,100.4z M261.9,37.7h-11.2v33.8h11.2V37.7z M256.3,76.2c-3.9,0-6.3,2.6-6.3,5.8
				c0,3.3,2.6,5.8,6.4,5.8c3.9,0,6.2-2.5,6.3-5.8C262.7,78.8,260.2,76.2,256.3,76.2z M302.4,37.7h-11.2v18.1c0,4.5-1.6,7.6-5.7,7.6
				c-3.1,0-5-2.1-5.8-4.1c-0.3-0.7-0.4-1.7-0.4-2.7V37.7h-11.2c0,0,0.1,30.7,0.1,33.8h11.2v-4.7c1.5,2.3,4.1,5.5,10.1,5.5
				c7.4,0,12.9-4.8,12.9-15.2V37.7z"/>
		</g>
	</g>
</g>
</svg>
