<?xml version="1.0" encoding="utf-8"?>
<!-- Generator: Adobe Illustrator 28.3.0, SVG Export Plug-In . SVG Version: 6.00 Build 0)  -->
<svg version="1.1" id="Capa_1" xmlns="http://www.w3.org/2000/svg" xmlns:xlink="http://www.w3.org/1999/xlink" x="0px" y="0px"
	 viewBox="0 0 800 500" style="enable-background:new 0 0 800 500;" xml:space="preserve">
<style type="text/css">
	.st0{fill:#171796;}
	.st1{fill:#FFFFFF;}
	.st2{fill:#E02222;}
	.st3{fill:#3DABE2;}
	.st4{fill:#F7DB17;}
</style>
<g>
	<rect class="st0" width="800" height="500"/>
	<rect class="st1" width="800" height="333.3"/>
	<rect class="st2" width="800" height="166.7"/>
	<g>
		<path class="st1" d="M400,378.6c-53,0-96.1-43.1-96.1-96V171.8h2.7l-3.1-7L283,118l19.1-30.9l28.4,10.5l19.9-22.8l26.2,15
			L400,70.7l23.4,19.2l26.2-15l19.9,22.8l28.4-10.5L517,118l-23.8,53.8h2.8v110.7C496.1,335.5,453,378.6,400,378.6z"/>
		<g>
			<rect x="310.6" y="175" class="st2" width="35.8" height="39.3"/>
			<rect x="346.3" y="214.3" class="st2" width="35.8" height="39.3"/>
			<path class="st2" d="M310.6,282.3c0,3.6,0.2,7.1,0.6,10.6h35.1v-39.3h-35.8V282.3z"/>
			<path class="st2" d="M382.1,253.5v39.3h-35.8v39.3h35.8v37.7c3.8,0.8,7.7,1.3,11.6,1.6c4.2,0.3,8.3,0.2,12.5,0l0,0
				c4-0.3,7.8-0.8,11.7-1.6v-37.7h-35.8v-39.3h35.8v-39.3H382.1z"/>
			<path class="st2" d="M453.6,332.1v-39.3h35.1v0c0.4-3.5,0.6-7,0.6-10.6v-28.7h-35.7v39.3h-35.8v39.3H453.6z"/>
			<path class="st2" d="M453.6,353.6c7.9-6,14.8-13.3,20.4-21.5h-20.4V353.6z"/>
			<path class="st2" d="M346.3,353.6v-21.5h-20.5C331.5,340.4,338.4,347.7,346.3,353.6z"/>
			<rect x="417.9" y="214.3" class="st2" width="35.8" height="39.3"/>
			<rect x="382.1" y="175" class="st2" width="35.8" height="39.3"/>
			<rect x="453.6" y="175" class="st2" width="35.7" height="39.3"/>
		</g>
		<g>
			<g>
				<path class="st3" d="M331.5,102.9L331.5,102.9l-27.9-10.3l-15.6,25.1l6,13.6l15.1,34.3c11.3-5,23-9.1,35.2-12.2L331.5,102.9
					L331.5,102.9z"/>
				<path class="st1" d="M329.9,127.7c1,1.9,1.6,4,1.6,6.3c0,7.5-6.1,13.6-13.6,13.6c-6.6,0-12.1-4.7-13.3-11c2.3,4.1,6.8,7,11.9,7
					c7.5,0,13.7-6.1,13.7-13.7C330.1,129.2,330.1,128.5,329.9,127.7L329.9,127.7L329.9,127.7z"/>
				<polygon class="st4" points="317.5,108.9 317.4,109.2 316.5,114 320.2,117.3 320.4,117.5 320.2,117.5 315.5,119.2 314.5,124 
					314.5,124.3 314.3,124.1 310.6,120.8 305.9,122.5 305.6,122.5 305.7,122.3 306.6,117.4 302.9,114.2 302.7,114 302.9,113.9 
					307.6,112.3 308.6,107.4 308.6,107.2 308.8,107.4 312.6,110.6 317.3,109 				"/>
			</g>
			<g>
				<path class="st0" d="M376.8,95.3L376.8,95.3L351,80.6l-19.5,22.3l12.8,50.5c11.9-3,24.2-5.1,36.7-6.1L376.8,95.3L376.8,95.3z"/>
				<g>
					<path class="st2" d="M341.2,140.9c12.6-3.2,25.6-5.4,38.9-6.5l-1.1-13.1c-14,1.2-27.7,3.5-41,6.8L341.2,140.9L341.2,140.9z"/>
					<path class="st2" d="M334.7,115.5c14-3.6,28.4-6,43.1-7.2l-1.1-12.9c-15.5,1.3-30.6,3.8-45.3,7.6L334.7,115.5z"/>
				</g>
			</g>
			<g>
				<path class="st3" d="M422.7,95.3L422.7,95.3l-23-18.8l-22.9,18.8l4.3,52c6.1-0.5,12.3-0.8,18.6-0.8c6.3,0,12.5,0.3,18.7,0.8
					L422.7,95.3L422.7,95.3z"/>
				<g>
					<g transform="matrix(0.99928092,-0.03791625,0.03791625,0.99928092,-5965.3264,-1993.2203)">
						<g id="lion_24_">
							<path class="st4" d="M394.8,101c0.1-0.3,1.5-3.3,2.1-4.4c0.1-0.2-0.1-0.4-0.4-0.2c-0.1,0.1-1,0.6-1.4,0.7
								c-0.6,0.2-2.4,0.9-2.9,1.8c0-0.6-2.4-2.9-2.8-3.5c-0.1-0.1-0.1-0.1-0.2-0.1v0c0,0-0.1,0-0.2,0.1c-0.4,0.6-2.3,3.1-2.3,3.7
								c-0.6-0.9-2.5-1.5-3.1-1.6c-0.4,0-1.3-0.5-1.5-0.6c-0.3-0.2-0.5,0-0.4,0.2c0.7,1,2.4,3.9,2.5,4.3
								C384.2,101.5,389.4,99.3,394.8,101z"/>
							<path class="st4" d="M384.3,102c-0.5-0.2-1.1-0.2-1.6-0.3c-0.4,0-0.7-0.1-0.9-0.3c-0.1-0.1-0.2-0.1-0.2,0.2
								c0,1.3,0.5,2.4,1.6,3.5c-0.6,0-1.1,0.1-1.7,0.1c-0.2,0-0.2,0.1-0.2,0.3c0.3,0.7,0.9,1.4,2.1,1.8c-0.5,0.3-0.8,0.7-0.8,1.3
								c0,0.5-0.1,0.9-0.5,1.1c-0.1,0.1-0.2,0.2,0,0.3c0.6,0.4,1.4,0.4,2.2,0.2c-0.4,0.7-0.5,1.4-0.4,2.1c0.5,0.1,1,0,1.5-0.2
								c-0.1,0.1-0.1,0.4-0.1,0.7c0,0.3-0.1,0.6-0.2,0.8c-0.1,0.1-0.1,0.2,0,0.2c0.8,0.2,1.6,0.1,2.2-0.2c0,0.6,0,1.2,0.3,1.7
								c0,0.1,0.2,0.2,0.3,0.1c0.4-0.5,0.7-1,1.2-1.3c0.1,0.2,0.2,0.4,0.4,0.5c0.2,0.1,0.4,0.4,0.4,0.8c0,0.1,0,0.1,0.1,0.2
								c0.4,0,1.2-1,1.4-1.5c0.5,0.3,0.7,0.6,1.1,1.1c0.1,0.2,0.2,0.1,0.3-0.1c0.1-0.6,0.1-1.2,0.1-1.8c0.6,0.2,1.4,0.3,2.2,0
								c0.2-0.1,0.1-0.2,0-0.2c-0.2-0.3-0.3-0.6-0.3-0.9c0-0.3-0.1-0.5-0.1-0.7c0.5,0.1,1,0.2,1.5,0.1c0-0.7-0.2-1.4-0.6-2
								c0.8,0.2,1.6,0.1,2.2-0.4c0.1-0.1,0.1-0.2-0.1-0.3c-0.3-0.2-0.5-0.5-0.6-1.1c-0.1-0.6-0.4-1-0.9-1.2c1.1-0.5,1.6-1.2,1.9-1.9
								c0-0.2,0-0.2-0.2-0.2c-0.6,0-1.2,0-1.7,0c1-1.2,1.4-2.4,1.3-3.7c0-0.3-0.1-0.4-0.2-0.2c-0.2,0.2-0.4,0.3-0.8,0.4
								c-0.5,0.1-1,0.1-1.6,0.4C389.7,100.3,384.3,102,384.3,102z"/>
						</g>
					</g>
				</g>
				<g>
					<g transform="matrix(0.99928092,-0.03791625,0.03791625,0.99928092,-5965.3264,-1993.2203)">
						<g id="lion_15_">
							<path class="st4" d="M415.4,101.7c0.1-0.3,1.8-3.2,2.5-4.3c0.1-0.2-0.1-0.4-0.4-0.2c-0.1,0.1-1,0.5-1.5,0.6
								c-0.6,0.1-2.4,0.7-3.1,1.6c0-0.6-1.9-3.1-2.3-3.7c-0.1-0.1-0.1-0.1-0.2-0.1v0c0,0-0.1,0-0.2,0.1c-0.5,0.6-2.8,2.9-2.8,3.5
								c-0.6-0.9-2.3-1.7-2.9-1.8c-0.4,0-1.3-0.6-1.4-0.7c-0.3-0.2-0.5,0-0.4,0.2c0.6,1.1,2,4.1,2.1,4.4
								C410.2,99.6,415.4,101.7,415.4,101.7z"/>
							<path class="st4" d="M404.8,101.8c-0.5-0.3-1-0.3-1.6-0.4c-0.4,0-0.7-0.2-0.8-0.4c-0.1-0.2-0.2-0.1-0.2,0.2
								c-0.1,1.3,0.3,2.5,1.3,3.7c-0.6,0-1.2,0-1.7,0c-0.2,0-0.2,0.1-0.2,0.2c0.3,0.7,0.8,1.4,1.9,1.9c-0.5,0.2-0.8,0.7-0.9,1.2
								c0,0.5-0.2,0.9-0.6,1.1c-0.1,0.1-0.2,0.1-0.1,0.3c0.6,0.5,1.4,0.5,2.2,0.4c-0.4,0.6-0.6,1.3-0.6,2c0.5,0.2,1,0.1,1.5-0.1
								c-0.1,0.1-0.1,0.4-0.1,0.7c0,0.3-0.1,0.6-0.3,0.9c-0.1,0.1-0.2,0.2,0,0.2c0.8,0.2,1.6,0.2,2.2,0c0,0.6,0,1.2,0.1,1.8
								c0.1,0.1,0.2,0.2,0.3,0.1c0.4-0.5,0.6-0.8,1.1-1.1c0.2,0.5,1,1.5,1.4,1.5c0.1-0.1,0.1-0.1,0.1-0.2c0-0.4,0.2-0.7,0.4-0.8
								c0.2-0.1,0.3-0.3,0.4-0.5c0.5,0.3,0.9,0.8,1.2,1.3c0.1,0.2,0.3,0.1,0.3-0.1c0.2-0.6,0.2-1.2,0.2-1.7c0.6,0.3,1.4,0.4,2.2,0.2
								c0.2,0,0.1-0.2,0-0.2c-0.1-0.3-0.2-0.6-0.2-0.8c0-0.3,0-0.6-0.1-0.7c0.5,0.2,1,0.3,1.5,0.2c0.1-0.7,0-1.4-0.4-2.1
								c0.8,0.2,1.5,0.2,2.2-0.2c0.1-0.1,0.1-0.2,0-0.3c-0.3-0.2-0.5-0.6-0.5-1.1c-0.1-0.6-0.3-1-0.8-1.3c1.2-0.4,1.7-1.1,2.1-1.8
								c0.1-0.2,0-0.2-0.2-0.3c-0.6,0-1.1-0.1-1.7-0.1c1.1-1.1,1.5-2.3,1.6-3.5c0-0.3-0.1-0.4-0.2-0.2c-0.2,0.2-0.5,0.3-0.9,0.3
								c-0.5,0-1.1,0-1.6,0.3C415.3,102.2,409.9,100.6,404.8,101.8z"/>
						</g>
					</g>
				</g>
				<g>
					<g transform="matrix(0.99928092,-0.03791625,0.03791625,0.99928092,-5965.3264,-1993.2203)">
						<g id="lion_13_">
							<path class="st4" d="M405.4,124.7c0.1-0.3,1.7-3.3,2.4-4.3c0.1-0.2-0.1-0.4-0.4-0.2c-0.1,0.1-1,0.6-1.5,0.6
								c-0.6,0.1-2.4,0.8-3,1.7c0-0.6-2-3-2.4-3.6c-0.1-0.1-0.1-0.1-0.2-0.1v0c0,0-0.1,0-0.2,0.1c-0.5,0.6-2.7,3-2.7,3.6
								c-0.6-0.9-2.4-1.6-3-1.7c-0.4,0-1.3-0.5-1.5-0.6c-0.3-0.2-0.5,0-0.4,0.2c0.6,1,2.2,4,2.3,4.3
								C400.2,122.8,405.4,124.7,405.4,124.7z"/>
							<path class="st4" d="M394.9,125.1c-0.5-0.3-1-0.3-1.6-0.3c-0.4,0-0.7-0.1-0.8-0.4c-0.1-0.2-0.2-0.1-0.2,0.2
								c0,1.3,0.4,2.5,1.4,3.6c-0.6,0-1.2,0-1.7,0.1c-0.2,0-0.2,0.1-0.2,0.2c0.3,0.7,0.8,1.4,2,1.9c-0.5,0.3-0.8,0.7-0.9,1.2
								c0,0.5-0.2,0.9-0.5,1.1c-0.1,0.1-0.2,0.2-0.1,0.3c0.6,0.5,1.4,0.5,2.2,0.3c-0.4,0.6-0.6,1.3-0.5,2c0.5,0.1,1,0,1.5-0.1
								c-0.1,0.1-0.1,0.4-0.1,0.7c0,0.3-0.1,0.6-0.3,0.9c-0.1,0.1-0.2,0.2,0,0.2c0.8,0.2,1.6,0.1,2.2-0.1c0,0.6,0,1.2,0.1,1.7
								c0.1,0.1,0.2,0.2,0.3,0.1c0.4-0.5,0.6-0.8,1.1-1.1c0.2,0.5,1.1,1.5,1.4,1.4c0.1-0.1,0.1-0.1,0.1-0.2c0-0.4,0.1-0.7,0.4-0.8
								c0.2-0.1,0.3-0.3,0.4-0.5c0.5,0.3,0.9,0.7,1.3,1.3c0.1,0.2,0.3,0.1,0.3-0.1c0.2-0.6,0.2-1.2,0.2-1.8c0.6,0.2,1.4,0.3,2.2,0.1
								c0.2,0,0.1-0.2,0-0.2c-0.1-0.3-0.2-0.6-0.2-0.8c0-0.3-0.1-0.6-0.1-0.7c0.5,0.2,1,0.3,1.5,0.1c0.1-0.7-0.1-1.4-0.5-2.1
								c0.8,0.2,1.5,0.2,2.2-0.3c0.1-0.1,0.1-0.2-0.1-0.3c-0.3-0.2-0.5-0.6-0.5-1.1c-0.1-0.6-0.4-1-0.9-1.3c1.2-0.4,1.7-1.1,2-1.8
								c0.1-0.2,0-0.2-0.2-0.3c-0.6,0-1.1,0-1.7-0.1c1.1-1.1,1.5-2.3,1.5-3.6c0-0.3-0.1-0.4-0.2-0.2c-0.2,0.2-0.5,0.3-0.9,0.3
								c-0.5,0-1.1,0.1-1.6,0.3C405.4,125.2,399.9,123.7,394.9,125.1z"/>
						</g>
					</g>
				</g>
			</g>
			<g>
				<path class="st0" d="M468,102.9L468,102.9l-19.6-22.3l-25.7,14.7l-4.3,52c12.6,1,24.8,3.1,36.7,6.1L468,102.9L468,102.9z"/>
				<path class="st4" d="M443.8,136.5c0,0,0.1-0.1,0.1-0.1c0.1-0.7,0.6-1.1,1.2-1.3c0.5-0.2,1-0.7,1.4-1.3c0.3-0.5,0.6-1,0.9-1.5
					c0.1-0.4,0.1-1.4-1.5-1.8c-0.1,0-0.2,0-0.3,0c-0.2,0.1-0.4,0.3-0.7,0.2c-0.4,0.4-0.7,0.7-1.1,0.9c-0.1,0.4-0.4,0.5-0.7,0.6
					c-0.9,0.1-1.5,1.2-2,1.7c-0.2,0.1-0.3,0.4-0.4,0.7c0,0.6-0.1,1.1-0.5,1.1c-0.3,0-0.3,0-0.3-0.1c-0.1,0-0.3,0-0.4,0
					c0,0.1,0.1,0.1,0.1,0.2c0,0-2.6-0.4-2.2-0.9c0.5-0.6,1.1-1,1.6-1.2c0.2-0.2,0.4-0.4,0.7-0.6c0.1-0.6,0.4-1,0.9-1.4
					c0-0.2,0.1-0.4,0.2-0.6c0-0.1,0-0.2,0-0.3c-0.2-0.3-0.3-0.8-0.2-1.1c-0.1-0.2-0.1-0.4-0.1-0.5c-3.4-0.5-3.4,0.2-3.8,0
					c-0.3,0.1-0.5,0.2-0.8,0.2c-0.1,0.2-0.3,0.5-0.5,0.7c0,0.5-0.2,1-0.5,1.5c-0.2,0.5-0.4,1-0.7,1.6c0,0.2,0,0.3-0.1,0.5
					c0.1,0.6-0.1,0.9-0.5,1c-0.1,0.2-0.2,0.5-0.4,0.7c0,0.1,0,0.2,0,0.2c-2.1,0.1-2.2-0.7-2.2-0.7c0,0,0.1-0.1,0.2-0.1
					c0.2-0.4,0.4-0.7,0.7-0.7c0.2-0.5,0.4-1,0.7-1.5c0.1-0.1,0.2-0.3,0.1-0.5c0-0.1,0-0.3,0.1-0.3c0.1-0.1,0.2-0.1,0-0.2
					c-0.1-0.4,0-0.9,0.2-1.2c0.3-0.4,0.6-1.5,0.3-2c-0.1-0.3-0.1-0.6-0.1-0.9c-0.1,0-0.2,0-0.3-0.1c-0.2-0.1-0.4,0-0.6,0.3
					c-0.1,0.3-0.3,0.6-0.4,0.6c-0.1,0.8-0.5,1.5-1,1.6c-0.1,0.4-0.2,0.8-0.1,1.1c0,0.4,0,0.7-0.2,0.8c-0.2,0.1-0.4,0.2-0.5,0.5
					c0,0.1-0.1,0.2-0.1,0.3c0,0-0.6,0.1-1.4-0.3c-0.8-0.4-0.6-0.6-0.6-0.6c0.3-0.2,0.6-0.5,0.9-0.9c0-0.8,0.2-1.4,0.7-1.5
					c0-0.5,0.2-1,0.4-1.4c0.2-0.4,0.4-0.8,0.3-1.3c-0.5-0.3-0.6-2.9-0.7-3c-0.1-0.1-0.5-1.8-0.5-2.2c-0.2-0.8,0.4-2.1,0.3-2.4
					c0.2-0.6,0.5-0.9,1-1.4c0.4-1.5,0-4.6,0-4.7c-0.4,0-0.7,0.1-1,0.3c-0.3,0.2-0.6,0.2-1,0.1c-0.1-0.2-0.2-0.3-0.4-0.4
					c-0.2-0.2-0.3-0.4-0.2-0.6c-0.9,0.1-1.1-0.6-0.6-1.1c0.3-0.3,0.5-0.5,0.6-0.8c0.3-0.6,0.8-1.1,1.3-1.5c0-0.2,0-0.4,0.1-0.6
					c-0.2-0.2-0.5-0.3-0.7-0.3c-0.1-0.2-0.3-0.5-0.6-0.6c-0.2-0.1-0.2-0.2-0.1-0.4c-0.5-0.4-0.4-0.7-0.2-1v0
					c0.9-0.2,1.8-0.3,2.6,0.3c0.4,0.2,0.7,0.4,0.8,0.6l5.6,1.3c0.3,0.1,0.5,0.2,0.6,0.3c0.5,0.3,1.1,0.4,1.9,0.5
					c0.5,0.1,0.3,0.4-0.4,0.7c-0.4,0.5-1,0.8-1.7,0.8c-1,0.7-1.4,0.3-1.7-0.2c0,0.3-0.1,0.5-0.2,0.8c0,0.1,0,0.3,0,0.4
					c0.2,0.2,0.2,0.5,0.2,0.7c0,0.1,0.7,3.2,3.1,4.2c0.3,0.1,2.5,0.5,3.3,0.6c0.8,0.1,3,1,3.4,0.9c0.4-0.2,4.4,0.4,4.7,0.7
					c0.5,0.5,1.2,0.5,1.8,0.2c0.8-0.4,1.5-0.3,2.4,0c0.4-0.1,0.7-0.2,1.1-0.2c0.3-0.3,0.6-0.4,1-0.4c0.6,0,1,0.1,0.9,0.8
					c0,0.2-0.1,0.4-0.3,0.4c-2,1.7-0.7,1.9-2.5,2.7c-0.1,0.3-0.3,0.4-0.7,0.4c-0.3,0.3-0.6,0.5-0.9,0.5c0,0.2-0.1,0.9-0.5,1.5
					c0.2,0.4,0,3-0.3,4.2c-0.4,2.2-1,2.8-1,2.9c0,0.1,0,0.1-0.1,0.2c-0.6,0.3-1.1,0.7-1.6,1.1c-0.1,0-0.1,0.1-0.2,0
					c-0.4,0.8-1,1.6-1.8,2.4c-0.1,0.6-0.4,1-1,1.2c0,0.2-0.2,0.3-0.3,0.3c0,0,0.1,0.1,0.1,0.1c0,0-0.9,0.2-1.7-0.1
					C443.7,136.8,443.8,136.5,443.8,136.5z"/>
				<path class="st2" d="M431.2,107c0.4-0.3,0.8-0.6,1.2-0.8c0.6-0.4,1.2-0.8,1.8-1c0.9-0.5,1.8-0.7,2.8-0.8c1-0.2,2-0.2,2.9-0.1
					c0.8,0,1.6,0.3,2.3,0.7c0.7,0.3,1.4,0.7,2,1c0.7,0.4,1.4,0.8,2.2,1.1c0.9,0.4,1.9,0.5,3,0.5c0.5,0,1.1,0,1.6-0.1
					c0.4-0.1,0.7,0.2,0.2,0.4c-3.4,2.1-6,0.2-8.3-0.6c0.8,0.6,1.6,1.1,2.2,1.7c0.9,0.8,1.8,1.7,3.5,2.4c1,0.5,2.1,0.8,3.6,0.8
					c0.5,0,1,0,1.6-0.1c0.3,0,0.4,0,0.4,0.1c0,0.1,0,0.3-0.2,0.4c-0.9,0.6-1.7,0.7-2.6,0.8c-1.7,0.1-3.6-0.5-5.3-1.4
					c-1.4-0.7-2.3-1.6-3.4-2.4c-1.1-0.8-2-1.2-3-1.5c-1-0.2-2.1-0.2-3,0.1c0,0-3.2,0.3-3.2-0.8C433.7,107.5,431.9,107.9,431.2,107z"
					/>
				<path class="st2" d="M428.3,131.8c0,0.7,1.9,1,1.9,1c0.3,0.3,0.2,0.7-0.1,1c-0.6,0.6-1.4,0.5-2.3,0.3c-0.6-0.2-0.8-0.5-0.7-0.8
					c-0.9-0.1-0.7-0.7,0-0.9C427.6,132.2,427.9,132.1,428.3,131.8L428.3,131.8z"/>
				<path class="st2" d="M433.4,135.3c0,0.1,0,0.2,0,0.2c0.1,0.4,0.2,0.7-0.2,1.1c-0.3,0.2-0.6,0.4-0.9,0.5c-0.4,0.2-0.7,0.1-1,0
					c-0.5-0.2-0.5-0.4-0.4-0.6c-0.2,0.1-0.4,0.1-0.5,0c-0.1-0.1-0.2-0.2-0.3-0.3c-0.1-0.2-0.2-0.4,0.1-0.5c0.4-0.2,0.6-0.3,0.9-0.6
					c0.1-0.2,0.2-0.4,0.4-0.4C431.6,135.6,433.4,135.3,433.4,135.3z"/>
				<path class="st2" d="M439.4,135.7c0.2,0.3,0.3,0.6,0.1,0.9c-0.2,0.3-0.6,0.4-0.9,0.4c-0.6,0-1.2,0-1.7-0.2
					c-0.5-0.2-0.5-0.5-0.5-0.7c-0.3-0.2-0.4-0.3-0.4-0.5c0-0.2,0.2-0.3,0.5-0.2c0.2-0.1,0.4-0.2,0.6-0.2c0.1-0.1,0.4-0.6,0.4-0.4
					C437.3,135.5,439.4,135.7,439.4,135.7z"/>
				<path class="st2" d="M446.1,137.2c0.3,0.3,0.4,0.7,0.1,1c-0.4,0.4-0.8,0.8-1.3,0.9c-1,0.3-1.7,0.2-2.1-0.2
					c-0.4-0.3-0.2-0.6,0-0.7c-0.6,0.1-0.8-0.3-0.7-0.7c0-0.2,0.1-0.2,0.3-0.2c0.3,0,0.7-0.2,1-0.3c0.1-0.2,0.3-0.4,0.5-0.6
					C444,137.4,446.1,137.2,446.1,137.2z"/>
			</g>
			<g>
				<path class="st3" d="M490.2,165.6l21.1-47.8l-15.6-25.1L468,102.9l-12.8,50.5C467.2,156.6,478.9,160.6,490.2,165.6L490.2,165.6z
					"/>
				<path class="st2" d="M463.3,121.4c13.9,3.5,27.4,8.2,40.3,13.9l-8.1,18.5c-11.9-5.3-24.3-9.6-37.1-12.8L463.3,121.4z"/>
				<path class="st4" d="M484,102.7l0,0.2l1,4.9l-3.8,3.3l-0.2,0.2l0.2,0.1l4.7,1.6l1,4.9l0,0.2l0.2-0.1l3.8-3.3l4.7,1.6l0.2,0.1
					l0-0.2l-1-4.9l3.8-3.3l0.2-0.2l-0.2-0.1l-4.7-1.6l-1-4.9l0-0.2l-0.2,0.2l-3.8,3.3l-4.7-1.6L484,102.7z"/>
			</g>
		</g>
	</g>
</g>
<g>
	<polygon class="st4" points="405.3,119.7 402.6,125.2 399.8,119.7 397.1,125.2 394.3,119.7 394.3,130.7 405.3,130.7 	"/>
	<polygon class="st4" points="395.2,101.8 392.5,107.4 389.7,101.8 387,107.4 384.2,101.8 384.2,112.9 395.2,112.9 	"/>
	<polygon class="st4" points="403.3,101.8 406,107.4 408.8,101.8 411.5,107.4 414.3,101.8 414.3,112.9 403.3,112.9 	"/>
</g>
<g>
	<path class="st1" d="M502.7,137.1c-12.9-5.7-26.3-10.4-40-13.8l1-3.9c13.8,3.5,27.5,8.3,40.6,14L502.7,137.1z"/>
</g>
<g>
	<path class="st1" d="M494.6,155.6c-11.9-5.3-24.3-9.5-36.8-12.7l1-3.9c12.7,3.2,25.3,7.6,37.4,13L494.6,155.6z"/>
</g>
</svg>
