<?xml version="1.0" encoding="utf-8"?>
<!-- Generator: Adobe Illustrator 16.0.0, SVG Export Plug-In . SVG Version: 6.00 Build 0)  -->
<!DOCTYPE svg PUBLIC "-//W3C//DTD SVG 1.1//EN" "http://www.w3.org/Graphics/SVG/1.1/DTD/svg11.dtd" [
	<!ENTITY ns_extend "http://ns.adobe.com/Extensibility/1.0/">
	<!ENTITY ns_ai "http://ns.adobe.com/AdobeIllustrator/10.0/">
	<!ENTITY ns_graphs "http://ns.adobe.com/Graphs/1.0/">
	<!ENTITY ns_vars "http://ns.adobe.com/Variables/1.0/">
	<!ENTITY ns_imrep "http://ns.adobe.com/ImageReplacement/1.0/">
	<!ENTITY ns_sfw "http://ns.adobe.com/SaveForWeb/1.0/">
	<!ENTITY ns_custom "http://ns.adobe.com/GenericCustomNamespace/1.0/">
	<!ENTITY ns_adobe_xpath "http://ns.adobe.com/XPath/1.0/">
]>
<svg version="1.1" id="Capa_1" xmlns:x="&ns_extend;" xmlns:i="&ns_ai;" xmlns:graph="&ns_graphs;"
	 xmlns="http://www.w3.org/2000/svg" xmlns:xlink="http://www.w3.org/1999/xlink" x="0px" y="0px" width="800px" height="500px"
	 viewBox="0 0 800 500" enable-background="new 0 0 800 500" xml:space="preserve">
<metadata>
	<sfw  xmlns="&ns_sfw;">
		<slices></slices>
		<sliceSourceBounds  width="800" height="500" x="79.5" y="30.5" bottomLeftOrigin="true"></sliceSourceBounds>
	</sfw>
</metadata>
<g>
	<rect fill="#171796" width="800" height="500"/>
	<rect fill="#FFFFFF" width="800" height="333.334"/>
	<rect fill="#E02222" width="800" height="166.667"/>
	<g>
		<path fill="#FFFFFF" d="M400.029,378.557c-52.962,0-96.051-43.087-96.051-96.049V171.824h2.666l-3.062-7.016l-20.622-46.817
			l19.108-30.855l28.365,10.501l19.921-22.766l26.245,15.04l23.402-19.166l23.401,19.166l26.246-15.04l19.918,22.769l28.366-10.501
			l19.104,30.849l-23.75,53.836h2.79v110.684C496.079,335.47,452.991,378.557,400.029,378.557z"/>
		<g>
			<rect x="310.562" y="174.967" fill="#E02222" width="35.762" height="39.292"/>
			<rect x="346.324" y="214.259" fill="#E02222" width="35.762" height="39.288"/>
			<path fill="#E02222" d="M310.562,282.289c0,3.567,0.221,7.087,0.632,10.551h35.13v-39.293h-35.762V282.289z"/>
			<path fill="#E02222" d="M382.086,253.547v39.293h-35.759v39.289h35.759v37.707c3.792,0.775,7.674,1.307,11.619,1.582
				c4.164,0.256,8.329,0.242,12.491,0l0.002,0.002c3.957-0.277,7.847-0.811,11.651-1.59v-37.701h-35.761V292.84h35.763v-39.293
				H382.086z"/>
			<path fill="#E02222" d="M453.613,332.129v-39.287h35.094v-0.002c0.414-3.475,0.636-7.008,0.636-10.586v-28.703H453.61v39.289
				h-35.759v39.289H453.613z"/>
			<path fill="#E02222" d="M453.613,353.621c7.931-5.986,14.842-13.253,20.418-21.49h-20.418V353.621z"/>
			<path fill="#E02222" d="M346.327,353.645v-21.516h-20.452C331.459,340.378,338.384,347.654,346.327,353.645z"/>
			<rect x="417.852" y="214.259" fill="#E02222" width="35.762" height="39.288"/>
			<rect x="382.089" y="174.967" fill="#E02222" width="35.763" height="39.292"/>
			<rect x="453.613" y="174.967" fill="#E02222" width="35.729" height="39.292"/>
		</g>
		<g>
			<g>
				<path fill="#0093DD" d="M331.546,102.895l-0.043,0.049l-27.811-10.3l-15.564,25.129l5.962,13.556l15.103,34.287
					c11.279-4.987,23.036-9.073,35.184-12.169l-12.828-50.549L331.546,102.895z"/>
				<path fill="#FFFFFF" d="M329.943,127.744c0.996,1.889,1.56,4.036,1.56,6.31c0,7.487-6.105,13.595-13.591,13.595
					c-6.601,0-12.125-4.745-13.345-10.996c2.346,4.15,6.805,6.962,11.896,6.962c7.525,0,13.662-6.136,13.662-13.662
					c0-0.751-0.062-1.49-0.182-2.21V127.744z"/>
				<polygon fill="#F7DB17" points="317.484,108.936 317.439,109.161 316.492,114.039 320.235,117.312 320.408,117.461 
					320.191,117.535 315.493,119.156 314.532,124.032 314.484,124.256 314.314,124.104 310.562,120.844 305.859,122.451 
					305.641,122.526 305.688,122.299 306.632,117.422 302.893,114.151 302.717,113.999 302.936,113.925 307.634,112.308 
					308.594,107.429 308.639,107.206 308.812,107.354 312.563,110.616 317.268,109.013 				"/>
			</g>
			<g>
				<path fill="#171796" d="M376.809,95.33l-0.049,0.038l-25.728-14.744l-19.486,22.271l12.827,50.547
					c11.903-3.028,24.183-5.096,36.744-6.135l-4.311-51.977H376.809z"/>
				<g>
					<path fill="#E02222" d="M341.188,140.898c12.587-3.204,25.573-5.395,38.86-6.49l-1.091-13.138
						c-14.021,1.16-27.727,3.468-41.011,6.848L341.188,140.898L341.188,140.898z"/>
					<path fill="#E02222" d="M334.744,115.493c13.975-3.557,28.389-5.985,43.137-7.205l-1.069-12.898
						c-15.473,1.278-30.597,3.828-45.253,7.559L334.744,115.493z"/>
				</g>
			</g>
			<g>
				<path fill="#0093DD" d="M422.701,95.341l-0.058,0.03l-22.942-18.788l-22.895,18.751l4.311,51.974
					c6.131-0.506,12.326-0.776,18.584-0.776c6.288,0,12.512,0.271,18.669,0.783l4.328-51.974H422.701z"/>
				<g>
					<g transform="matrix(0.99928092,-0.03791625,0.03791625,0.99928092,-5965.3264,-1993.2203)">
						<g id="lion_24_">
							<path fill="#F7DB17" d="M394.845,101.034c0.099-0.323,1.529-3.34,2.137-4.408c0.123-0.196-0.127-0.388-0.419-0.164
								c-0.141,0.107-1.007,0.618-1.44,0.66c-0.599,0.153-2.361,0.871-2.928,1.81c-0.048-0.574-2.373-2.934-2.845-3.519
								c-0.078-0.083-0.126-0.11-0.17-0.103v0.002c-0.044-0.002-0.104,0.028-0.163,0.115c-0.423,0.618-2.3,3.128-2.305,3.707
								c-0.638-0.892-2.469-1.465-3.081-1.569c-0.438-0.009-1.335-0.455-1.484-0.55c-0.312-0.201-0.544,0.008-0.407,0.193
								c0.685,1.021,2.365,3.944,2.492,4.259C384.231,101.468,389.43,99.343,394.845,101.034z"/>
							<path fill="#F7DB17" d="M384.329,101.973c-0.544-0.231-1.08-0.242-1.612-0.258c-0.412-0.006-0.697-0.095-0.883-0.297
								c-0.138-0.147-0.223-0.055-0.215,0.205c0.043,1.286,0.483,2.428,1.579,3.539c-0.554,0.03-1.112,0.067-1.668,0.115
								c-0.191,0.02-0.227,0.103-0.169,0.257c0.332,0.72,0.87,1.362,2.053,1.77c-0.491,0.29-0.763,0.716-0.813,1.285
								c0,0.541-0.146,0.926-0.468,1.117c-0.142,0.081-0.191,0.163-0.048,0.257c0.623,0.423,1.376,0.413,2.165,0.187
								c-0.356,0.667-0.495,1.353-0.4,2.067c0.506,0.113,0.995-0.002,1.475-0.183c-0.064,0.148-0.089,0.426-0.097,0.748
								c-0.008,0.279-0.077,0.556-0.219,0.838c-0.072,0.081-0.148,0.208,0.019,0.245c0.817,0.189,1.566,0.064,2.199-0.197
								c0.022,0.587,0.05,1.171,0.251,1.744c0.047,0.139,0.178,0.24,0.303,0.052c0.354-0.53,0.738-0.984,1.222-1.294
								c0.083,0.216,0.196,0.398,0.396,0.504c0.236,0.122,0.369,0.396,0.4,0.812c0.002,0.071,0,0.145,0.093,0.214
								c0.357,0.003,1.204-0.964,1.362-1.491c0.508,0.271,0.707,0.567,1.102,1.068c0.138,0.18,0.24,0.062,0.305-0.069
								c0.127-0.592,0.116-1.165,0.094-1.751c0.65,0.213,1.407,0.278,2.21,0.029c0.162-0.053,0.079-0.173,0-0.245
								c-0.161-0.27-0.278-0.593-0.308-0.869c-0.033-0.32-0.054-0.544-0.131-0.688c0.494,0.145,0.987,0.224,1.486,0.07
								c0.041-0.721-0.182-1.391-0.587-2.028c0.804,0.161,1.586,0.115,2.178-0.354c0.133-0.104,0.076-0.183-0.068-0.254
								c-0.334-0.163-0.513-0.538-0.552-1.076c-0.094-0.563-0.396-0.971-0.908-1.219c1.146-0.496,1.633-1.182,1.908-1.921
								c0.049-0.161,0.009-0.238-0.184-0.244c-0.558-0.004-1.156-0.015-1.716,0c1.011-1.193,1.372-2.371,1.319-3.656
								c-0.013-0.262-0.104-0.351-0.229-0.189c-0.173,0.215-0.421,0.345-0.826,0.382c-0.535,0.058-1.045,0.099-1.569,0.369
								C389.688,100.28,384.329,101.973,384.329,101.973z"/>
						</g>
					</g>
					<path fill="#0093DD" d="M388.227,106.998c0,0,0.193-1.113-1.025-1.723c-1.218-0.608-1.599-0.319-1.599-0.319
						s0.12,1.121,0.879,1.447C387.238,106.731,388.227,106.998,388.227,106.998z"/>
					<path fill="#0093DD" d="M390.881,106.998c0,0-0.193-1.113,1.025-1.723c1.218-0.608,1.599-0.319,1.599-0.319
						s-0.121,1.121-0.878,1.447C391.868,106.731,390.881,106.998,390.881,106.998z"/>
					<g>
						<g>
							<path fill="#0093DD" d="M391.275,112.477L391.275,112.477c-1.277-0.004-1.836-0.815-1.859-0.85
								c-0.032-0.051-0.052-0.11-0.053-0.17l-0.044-2.572c-0.003-0.175,0.137-0.318,0.31-0.321c0.155,0.002,0.318,0.137,0.321,0.311
								l0.042,2.464c0.134,0.148,0.535,0.506,1.284,0.509c0.175,0,0.315,0.142,0.315,0.316
								C391.591,112.337,391.449,112.477,391.275,112.477z"/>
						</g>
						<g>
							<path fill="#0093DD" d="M388.041,112.532c-0.172,0-0.312-0.139-0.315-0.312c-0.002-0.175,0.137-0.316,0.312-0.319
								c0.984-0.014,1.367-0.611,1.371-0.616c0.092-0.148,0.286-0.193,0.434-0.103c0.148,0.092,0.194,0.287,0.102,0.435
								c-0.022,0.037-0.571,0.896-1.898,0.915C388.044,112.532,388.042,112.532,388.041,112.532z"/>
						</g>
					</g>
				</g>
				<g>
					<g transform="matrix(0.99928092,-0.03791625,0.03791625,0.99928092,-5965.3264,-1993.2203)">
						<g id="lion_15_">
							<path fill="#F7DB17" d="M415.388,101.744c0.128-0.314,1.809-3.238,2.492-4.26c0.138-0.185-0.095-0.394-0.408-0.193
								c-0.148,0.095-1.045,0.542-1.482,0.55c-0.612,0.105-2.444,0.678-3.081,1.57c-0.005-0.58-1.882-3.089-2.306-3.707
								c-0.059-0.088-0.119-0.118-0.163-0.116v-0.002c-0.043-0.007-0.091,0.021-0.17,0.103c-0.471,0.586-2.797,2.944-2.844,3.52
								c-0.567-0.939-2.329-1.657-2.928-1.81c-0.435-0.043-1.3-0.553-1.441-0.661c-0.291-0.223-0.542-0.031-0.418,0.164
								c0.607,1.069,2.038,4.085,2.136,4.409C410.19,99.618,415.388,101.744,415.388,101.744z"/>
							<path fill="#F7DB17" d="M404.842,101.838c-0.524-0.27-1.035-0.311-1.569-0.368c-0.405-0.037-0.654-0.167-0.827-0.383
								c-0.124-0.159-0.215-0.071-0.229,0.189c-0.052,1.285,0.31,2.464,1.32,3.657c-0.561-0.016-1.159-0.004-1.717,0
								c-0.192,0.005-0.231,0.082-0.185,0.243c0.276,0.74,0.764,1.425,1.909,1.921c-0.513,0.248-0.813,0.655-0.908,1.22
								c-0.039,0.537-0.217,0.913-0.552,1.076c-0.144,0.072-0.2,0.149-0.067,0.253c0.593,0.47,1.374,0.516,2.178,0.354
								c-0.406,0.639-0.629,1.309-0.588,2.029c0.498,0.153,0.993,0.074,1.487-0.07c-0.077,0.145-0.098,0.368-0.132,0.688
								c-0.029,0.276-0.146,0.601-0.308,0.87c-0.078,0.072-0.162,0.191,0,0.245c0.804,0.248,1.559,0.185,2.211-0.029
								c-0.024,0.586-0.035,1.158,0.094,1.751c0.063,0.131,0.166,0.248,0.305,0.069c0.394-0.501,0.593-0.798,1.101-1.069
								c0.159,0.527,1.005,1.494,1.363,1.491c0.093-0.069,0.091-0.143,0.093-0.214c0.03-0.415,0.163-0.688,0.4-0.812
								c0.2-0.105,0.312-0.287,0.395-0.503c0.485,0.309,0.87,0.763,1.224,1.293c0.125,0.188,0.256,0.087,0.302-0.052
								c0.202-0.572,0.229-1.157,0.25-1.743c0.635,0.262,1.383,0.387,2.201,0.196c0.167-0.036,0.091-0.163,0.018-0.244
								c-0.142-0.283-0.21-0.56-0.219-0.838c-0.007-0.323-0.032-0.6-0.098-0.749c0.481,0.181,0.971,0.297,1.476,0.183
								c0.096-0.714-0.044-1.399-0.399-2.066c0.788,0.226,1.541,0.235,2.165-0.188c0.143-0.094,0.094-0.175-0.048-0.257
								c-0.321-0.19-0.468-0.576-0.468-1.116c-0.051-0.57-0.322-0.996-0.814-1.285c1.184-0.407,1.721-1.05,2.054-1.771
								c0.058-0.154,0.021-0.237-0.17-0.256c-0.557-0.048-1.114-0.085-1.667-0.115c1.096-1.112,1.535-2.253,1.578-3.54
								c0.008-0.259-0.076-0.353-0.214-0.204c-0.186,0.201-0.472,0.291-0.883,0.296c-0.532,0.017-1.07,0.026-1.612,0.259
								C415.291,102.249,409.932,100.556,404.842,101.838z"/>
						</g>
					</g>
					<path fill="#0093DD" d="M411.394,107.273c0,0-0.193-1.113,1.024-1.722c1.219-0.609,1.599-0.32,1.599-0.32
						s-0.119,1.121-0.877,1.448C412.381,107.007,411.394,107.273,411.394,107.273z"/>
					<path fill="#0093DD" d="M408.738,107.273c0,0,0.193-1.113-1.025-1.722c-1.218-0.609-1.598-0.32-1.598-0.32
						s0.12,1.121,0.878,1.448C407.752,107.007,408.738,107.273,408.738,107.273z"/>
					<g>
						<g>
							<path fill="#0093DD" d="M408.344,112.753c-0.174,0-0.315-0.141-0.315-0.313c-0.001-0.175,0.14-0.316,0.314-0.317
								c0.748-0.002,1.148-0.358,1.285-0.509l0.042-2.463c0.002-0.175,0.15-0.289,0.319-0.311c0.175,0.003,0.313,0.146,0.312,0.321
								l-0.045,2.571c-0.001,0.061-0.02,0.119-0.053,0.17C410.18,111.938,409.622,112.749,408.344,112.753
								C408.344,112.753,408.344,112.753,408.344,112.753z"/>
						</g>
						<g>
							<path fill="#0093DD" d="M411.578,112.808c-0.001,0-0.002,0-0.004,0c-1.327-0.019-1.876-0.877-1.898-0.914
								c-0.093-0.148-0.047-0.343,0.101-0.435c0.147-0.091,0.342-0.048,0.434,0.099c0.021,0.031,0.411,0.606,1.373,0.62
								c0.175,0.002,0.313,0.145,0.312,0.319C411.892,112.669,411.751,112.808,411.578,112.808z"/>
						</g>
					</g>
				</g>
				<g>
					<g transform="matrix(0.99928092,-0.03791625,0.03791625,0.99928092,-5965.3264,-1993.2203)">
						<g id="lion_13_">
							<path fill="#F7DB17" d="M405.44,124.713c0.116-0.32,1.703-3.296,2.354-4.338c0.132-0.19-0.107-0.392-0.414-0.181
								c-0.146,0.1-1.027,0.575-1.465,0.598c-0.607,0.123-2.421,0.755-3.028,1.667c-0.023-0.579-1.98-3.027-2.424-3.632
								c-0.061-0.085-0.123-0.113-0.166-0.109v-0.002c-0.045-0.006-0.091,0.022-0.167,0.107c-0.453,0.601-2.701,3.032-2.73,3.608
								c-0.597-0.921-2.38-1.581-2.984-1.715c-0.434-0.028-1.316-0.511-1.461-0.614c-0.299-0.214-0.543-0.014-0.412,0.178
								c0.641,1.049,2.168,4.018,2.275,4.338C400.177,122.754,405.44,124.713,405.44,124.713z"/>
							<path fill="#F7DB17" d="M394.903,125.144c-0.534-0.254-1.045-0.278-1.581-0.318c-0.407-0.024-0.659-0.146-0.838-0.356
								c-0.13-0.155-0.219-0.063-0.223,0.197c-0.012,1.286,0.388,2.453,1.436,3.612c-0.56,0.003-1.158,0.033-1.715,0.056
								c-0.193,0.012-0.229,0.09-0.176,0.249c0.299,0.731,0.808,1.4,1.969,1.858c-0.504,0.265-0.793,0.682-0.869,1.248
								c-0.021,0.539-0.188,0.92-0.517,1.094c-0.143,0.076-0.195,0.155-0.061,0.255c0.607,0.451,1.391,0.472,2.188,0.284
								c-0.386,0.65-0.586,1.327-0.522,2.046c0.504,0.138,0.995,0.043,1.483-0.117c-0.071,0.146-0.086,0.37-0.108,0.691
								c-0.021,0.277-0.127,0.604-0.279,0.88c-0.076,0.074-0.155,0.196,0.008,0.244c0.81,0.224,1.563,0.135,2.208-0.1
								c-0.005,0.586,0.003,1.159,0.15,1.746c0.067,0.13,0.174,0.244,0.307,0.061c0.377-0.515,0.567-0.816,1.064-1.104
								c0.177,0.521,1.054,1.462,1.411,1.446c0.09-0.072,0.086-0.146,0.085-0.217c0.019-0.416,0.143-0.694,0.375-0.824
								c0.197-0.111,0.304-0.297,0.379-0.516c0.494,0.295,0.894,0.735,1.264,1.254c0.131,0.184,0.258,0.079,0.301-0.062
								c0.184-0.578,0.19-1.164,0.194-1.751c0.643,0.241,1.394,0.342,2.205,0.127c0.166-0.043,0.087-0.167,0.011-0.245
								c-0.15-0.278-0.228-0.553-0.246-0.831c-0.017-0.322-0.051-0.599-0.121-0.744c0.486,0.165,0.979,0.265,1.481,0.135
								c0.071-0.718-0.09-1.398-0.468-2.054c0.797,0.201,1.549,0.187,2.159-0.255c0.141-0.099,0.089-0.179-0.056-0.256
								c-0.328-0.181-0.486-0.562-0.503-1.101c-0.07-0.569-0.354-0.985-0.855-1.26c1.169-0.444,1.686-1.104,1.995-1.834
								c0.053-0.156,0.015-0.238-0.178-0.251c-0.557-0.03-1.116-0.049-1.669-0.062c1.059-1.146,1.462-2.302,1.463-3.588
								c0-0.261-0.088-0.351-0.22-0.198c-0.18,0.207-0.463,0.306-0.874,0.324c-0.531,0.033-1.067,0.061-1.603,0.31
								C405.359,125.219,399.949,123.698,394.903,125.144z"/>
						</g>
					</g>
					<path fill="#0093DD" d="M401.625,130.366c0,0-0.229-1.106,0.97-1.754c1.198-0.648,1.587-0.37,1.587-0.37
						s-0.084,1.123-0.831,1.475C402.604,130.069,401.625,130.366,401.625,130.366z"/>
					<path fill="#0093DD" d="M398.971,130.451c0,0,0.159-1.119-1.079-1.689c-1.237-0.568-1.608-0.268-1.608-0.268
						s0.156,1.117,0.925,1.42S398.971,130.451,398.971,130.451z"/>
					<g>
						<g>
							<path fill="#0093DD" d="M398.741,135.941c-0.168,0-0.309-0.135-0.313-0.305c-0.006-0.175,0.129-0.32,0.304-0.327
								c0.747-0.025,1.137-0.395,1.268-0.548l-0.037-2.465c-0.003-0.174,0.136-0.317,0.311-0.32c0.159-0.02,0.317,0.136,0.32,0.311
								l0.039,2.572c0.001,0.061-0.017,0.121-0.049,0.172c-0.021,0.035-0.554,0.864-1.829,0.91
								C398.75,135.941,398.745,135.941,398.741,135.941z"/>
						</g>
						<g>
							<path fill="#0093DD" d="M401.927,135.893c-1.286,0-1.847-0.819-1.87-0.854c-0.098-0.145-0.058-0.34,0.087-0.438
								c0.145-0.095,0.339-0.057,0.437,0.086c0.021,0.031,0.449,0.6,1.392,0.574c0.002,0,0.004,0,0.006,0
								c0.172,0,0.312,0.138,0.315,0.311c0.003,0.174-0.136,0.318-0.311,0.321C401.964,135.893,401.944,135.893,401.927,135.893z"/>
						</g>
					</g>
				</g>
			</g>
			<g>
				<path fill="#171796" d="M467.961,102.923l-0.061,0.021l-19.526-22.319l-25.673,14.717l-4.331,51.974
					c12.567,1.042,24.841,3.117,36.742,6.15l12.845-50.541L467.961,102.923z"/>
				<path fill="#F7DB17" d="M443.827,136.524c0.038-0.034,0.079-0.068,0.12-0.101c0.112-0.712,0.566-1.107,1.178-1.341
					c0.493-0.188,0.968-0.664,1.425-1.282c0.282-0.487,0.565-0.971,0.85-1.46c0.058-0.365,0.058-1.365-1.519-1.807
					c-0.101,0.004-0.213-0.007-0.331-0.043c-0.217,0.14-0.438,0.262-0.709,0.25c-0.361,0.368-0.732,0.671-1.108,0.927
					c-0.133,0.366-0.396,0.514-0.717,0.559c-0.91,0.108-1.457,1.243-1.958,1.707c-0.202,0.15-0.33,0.414-0.418,0.733
					c-0.043,0.598-0.146,1.064-0.476,1.073c-0.293-0.012-0.34-0.043-0.349-0.074c-0.128-0.012-0.253-0.012-0.385,0.019
					c0.049,0.054,0.091,0.111,0.123,0.169c0,0-2.606-0.376-2.174-0.947c0.451-0.595,1.06-0.983,1.644-1.205
					c0.195-0.235,0.418-0.447,0.691-0.625c0.077-0.567,0.449-1.017,0.91-1.434c0.04-0.205,0.106-0.412,0.222-0.617
					c-0.026-0.121,0.009-0.182,0.011-0.298c-0.185-0.343-0.296-0.758-0.158-1.103c-0.056-0.166-0.072-0.383-0.051-0.548
					c-3.437-0.469-3.378,0.155-3.766,0.001c-0.252,0.098-0.511,0.187-0.803,0.207c-0.115,0.234-0.277,0.468-0.491,0.703
					c-0.011,0.49-0.184,0.983-0.499,1.474c-0.183,0.525-0.408,1.049-0.708,1.575c0.007,0.169-0.018,0.338-0.107,0.509
					c0.085,0.604-0.12,0.899-0.452,1.049c-0.089,0.243-0.221,0.488-0.425,0.731c-0.009,0.08-0.016,0.162-0.024,0.24
					c-2.124,0.138-2.189-0.695-2.189-0.695c0.048-0.038,0.1-0.065,0.156-0.079c0.168-0.396,0.375-0.664,0.658-0.735
					c0.208-0.489,0.428-1.03,0.692-1.497c0.09-0.142,0.158-0.289,0.115-0.451c-0.004-0.133,0.005-0.257,0.117-0.333
					c0.062-0.053,0.171-0.103,0.031-0.176c-0.126-0.436-0.046-0.854,0.167-1.175c0.286-0.427,0.603-1.464,0.302-1.975
					c-0.056-0.284-0.111-0.608-0.074-0.876c-0.104-0.006-0.183,0.009-0.285-0.063c-0.23-0.143-0.424-0.007-0.6,0.252
					c-0.129,0.322-0.256,0.606-0.385,0.606c-0.119,0.834-0.53,1.482-0.956,1.65c-0.1,0.383-0.162,0.766-0.109,1.147
					c0.045,0.418,0,0.703-0.192,0.751c-0.212,0.053-0.409,0.176-0.532,0.517c-0.034,0.093-0.073,0.206-0.076,0.342
					c0,0-0.608,0.109-1.428-0.334c-0.817-0.444-0.576-0.584-0.576-0.584c0.33-0.241,0.624-0.548,0.889-0.911
					c0.046-0.83,0.236-1.394,0.682-1.483c0.043-0.51,0.202-0.968,0.42-1.4c0.22-0.395,0.359-0.824,0.279-1.35
					c-0.475-0.297-0.566-2.913-0.688-2.99c-0.099-0.062-0.512-1.831-0.545-2.15c-0.175-0.81,0.364-2.146,0.285-2.417
					c0.19-0.6,0.461-0.937,1.036-1.351c0.416-1.496-0.015-4.568,0.032-4.656c-0.398,0.008-0.729,0.125-1.017,0.307
					c-0.319,0.212-0.64,0.184-0.96,0.051c-0.099-0.16-0.25-0.292-0.424-0.417c-0.221-0.192-0.271-0.409-0.224-0.642
					c-0.947,0.053-1.126-0.647-0.56-1.059c0.315-0.251,0.547-0.514,0.635-0.8c0.254-0.648,0.798-1.089,1.322-1.543
					c0-0.184,0.043-0.371,0.101-0.559c-0.233-0.157-0.479-0.271-0.748-0.292c-0.1-0.241-0.279-0.502-0.585-0.649
					c-0.176-0.106-0.234-0.206-0.125-0.442c-0.501-0.449-0.377-0.721-0.25-0.979v-0.005c0.891-0.215,1.771-0.261,2.626,0.263
					c0.372,0.154,0.653,0.352,0.827,0.605l5.629,1.299c0.271,0.055,0.501,0.18,0.639,0.343c0.466,0.273,1.063,0.396,1.929,0.494
					c0.451,0.053,0.312,0.364-0.383,0.738c-0.417,0.536-0.959,0.825-1.679,0.756c-0.995,0.657-1.351,0.261-1.68-0.173
					c-0.044,0.272-0.123,0.541-0.242,0.799c0.045,0.142,0.048,0.295-0.014,0.436c0.16,0.244,0.236,0.482,0.184,0.746
					c0.026,0.141,0.685,3.174,3.146,4.222c0.253,0.108,2.456,0.471,3.302,0.56c0.796,0.085,3.017,1.03,3.421,0.935
					c0.419-0.181,4.385,0.377,4.715,0.749c0.47,0.535,1.199,0.464,1.821,0.198c0.845-0.358,1.545-0.346,2.409,0.033
					c0.37-0.143,0.736-0.211,1.105-0.173c0.315-0.342,0.65-0.426,0.997-0.436c0.563-0.02,0.968,0.065,0.863,0.789
					c-0.03,0.195-0.146,0.383-0.293,0.449c-1.961,1.688-0.723,1.931-2.494,2.746c-0.135,0.256-0.341,0.415-0.689,0.363
					c-0.258,0.311-0.559,0.471-0.888,0.523c0.036,0.232-0.062,0.874-0.536,1.547c0.155,0.445,0.039,3.005-0.277,4.183
					c-0.358,2.151-1.025,2.769-1.035,2.93c0,0.056-0.046,0.111-0.14,0.167c-0.57,0.306-1.104,0.656-1.594,1.059
					c-0.068,0.048-0.142,0.082-0.215,0.018c-0.358,0.773-1.022,1.562-1.76,2.356c-0.111,0.584-0.441,0.979-0.99,1.186
					c-0.038,0.179-0.153,0.286-0.324,0.332c0.039,0.043,0.076,0.086,0.108,0.129c0,0-0.919,0.24-1.741-0.124
					C443.69,136.802,443.827,136.524,443.827,136.524z"/>
				<path fill="#E02222" d="M431.219,106.989c0.395-0.307,0.799-0.594,1.218-0.841c0.582-0.435,1.183-0.817,1.826-1.03
					c0.919-0.469,1.838-0.746,2.76-0.829c0.975-0.167,1.952-0.177,2.924-0.118c0.812,0.047,1.6,0.272,2.349,0.703
					c0.682,0.336,1.359,0.678,2.038,1.014c0.719,0.401,1.438,0.763,2.158,1.068c0.909,0.357,1.933,0.479,3.026,0.521
					c0.533,0.018,1.059,0.018,1.576-0.118c0.417-0.111,0.677,0.153,0.217,0.437c-3.375,2.071-6.021,0.229-8.275-0.596
					c0.825,0.559,1.554,1.137,2.171,1.728c0.857,0.826,1.814,1.665,3.514,2.439c1.027,0.469,2.15,0.837,3.588,0.849
					c0.488,0.005,1.013-0.015,1.583-0.107c0.288-0.049,0.41-0.021,0.415,0.131c0.003,0.1-0.022,0.303-0.193,0.416
					c-0.871,0.583-1.69,0.737-2.604,0.796c-1.74,0.11-3.603-0.462-5.305-1.376c-1.361-0.73-2.277-1.624-3.363-2.422
					c-1.082-0.8-2.02-1.244-3.024-1.456c-0.989-0.213-2.062-0.188-2.968,0.092c0,0-3.243,0.273-3.191-0.758
					C433.656,107.53,431.899,107.916,431.219,106.989z"/>
				<path fill="#E02222" d="M428.271,131.794c0.013,0.74,1.941,0.982,1.941,0.982c0.295,0.304,0.205,0.683-0.076,0.963
					c-0.636,0.625-1.428,0.533-2.264,0.288c-0.604-0.239-0.752-0.493-0.693-0.751c-0.859-0.07-0.685-0.729,0.024-0.928
					c0.364-0.102,0.693-0.265,0.994-0.483L428.271,131.794z"/>
				<path fill="#E02222" d="M433.397,135.326c-0.009,0.08-0.016,0.162-0.024,0.24c0.132,0.358,0.153,0.713-0.209,1.068
					c-0.292,0.185-0.602,0.378-0.909,0.529c-0.366,0.178-0.702,0.093-1.008-0.019c-0.539-0.192-0.499-0.381-0.428-0.562
					c-0.169,0.067-0.362,0.077-0.53-0.008c-0.131-0.082-0.214-0.165-0.342-0.251c-0.117-0.209-0.158-0.399,0.123-0.549
					c0.356-0.157,0.6-0.273,0.876-0.561c0.098-0.217,0.22-0.379,0.394-0.423C431.58,135.586,433.397,135.326,433.397,135.326z"/>
				<path fill="#E02222" d="M439.431,135.685c0.248,0.27,0.287,0.607,0.061,0.908c-0.226,0.293-0.555,0.386-0.865,0.405
					c-0.649,0.044-1.174-0.013-1.663-0.21c-0.465-0.191-0.52-0.469-0.505-0.738c-0.336-0.16-0.404-0.318-0.367-0.474
					c0.046-0.205,0.231-0.308,0.466-0.243c0.203-0.096,0.405-0.161,0.607-0.199c0.124-0.135,0.429-0.559,0.375-0.389
					C437.296,135.521,439.431,135.685,439.431,135.685z"/>
				<path fill="#E02222" d="M446.146,137.162c0.307,0.34,0.422,0.666,0.126,0.989c-0.366,0.398-0.843,0.785-1.324,0.91
					c-1.021,0.26-1.657,0.212-2.068-0.18c-0.359-0.344-0.221-0.605,0.01-0.714c-0.631,0.051-0.757-0.28-0.739-0.726
					c0.035-0.222,0.108-0.192,0.33-0.186c0.344,0.01,0.654-0.176,0.978-0.281c0.122-0.213,0.287-0.396,0.489-0.552
					C443.953,137.41,446.146,137.162,446.146,137.162z"/>
			</g>
			<g>
				<path fill="#0093DD" d="M490.179,165.598l21.098-47.82l-15.562-25.13l-27.757,10.276l-12.845,50.541
					c12.105,3.087,23.822,7.167,35.064,12.135L490.179,165.598z"/>
				<path fill="#E02222" d="M463.273,121.364c13.901,3.545,27.358,8.229,40.27,13.939l-8.14,18.459
					c-11.895-5.26-24.291-9.575-37.103-12.841L463.273,121.364z"/>
				<path fill="#F7DB17" d="M483.971,102.745l0.044,0.227l0.95,4.918l-3.778,3.293l-0.174,0.151l0.219,0.077l4.735,1.638
					l0.961,4.917l0.047,0.227l0.176-0.149l3.784-3.283l4.74,1.625l0.22,0.074l-0.044-0.226l-0.951-4.92l3.78-3.294l0.172-0.151
					l-0.219-0.073l-4.735-1.64l-0.962-4.918l-0.044-0.229l-0.174,0.155l-3.788,3.282l-4.739-1.627L483.971,102.745z"/>
			</g>
		</g>
	</g>
</g>
</svg>
