<?xml version="1.0" encoding="utf-8"?>
<!-- Generator: Adobe Illustrator 16.0.0, SVG Export Plug-In . SVG Version: 6.00 Build 0)  -->
<!DOCTYPE svg PUBLIC "-//W3C//DTD SVG 1.1//EN" "http://www.w3.org/Graphics/SVG/1.1/DTD/svg11.dtd">
<svg version="1.1" id="Capa_2" xmlns="http://www.w3.org/2000/svg" xmlns:xlink="http://www.w3.org/1999/xlink" x="0px" y="0px"
	 width="800px" height="500px" viewBox="0 0 800 500" enable-background="new 0 0 800 500" xml:space="preserve">
<g>
	<rect fill="#FFFFFF" width="800" height="500"/>
	<g>
		<rect y="306.094" fill="#B22234" width="800" height="40.411"/>
		<rect y="382.907" fill="#B22234" width="800" height="40.412"/>
		<rect y="229.594" fill="#B22234" width="800" height="40.411"/>
		<rect y="153.094" fill="#B22234" width="800" height="40.411"/>
		<rect y="76.594" fill="#B22234" width="800" height="40.411"/>
		<rect y="0.122" fill="#B22234" width="800" height="40.411"/>
		<rect y="459.617" fill="#B22234" width="800" height="40.411"/>
	</g>
	<g>
		<rect y="-0.185" fill="#3C3B6E" width="382.105" height="270.453"/>
		<g>
			<polygon fill="#FFFFFF" points="31.842,11.407 28.369,22.085 17.129,22.085 26.222,28.685 22.75,39.364 31.842,32.764 
				40.935,39.364 37.461,28.686 46.555,22.085 35.315,22.085 			"/>
			<polygon fill="#FFFFFF" points="31.842,65.497 28.369,76.176 17.129,76.176 26.222,82.775 22.75,93.454 31.842,86.854 
				40.935,93.454 37.461,82.775 46.555,76.176 35.315,76.176 			"/>
			<polygon fill="#FFFFFF" points="31.842,119.587 28.369,130.266 17.129,130.266 26.222,136.866 22.75,147.544 31.842,140.945 
				40.935,147.544 37.461,136.866 46.555,130.266 35.315,130.266 			"/>
			<polygon fill="#FFFFFF" points="31.842,173.678 28.369,184.356 17.129,184.356 26.222,190.956 22.75,201.635 31.842,195.035 
				40.935,201.635 37.461,190.957 46.555,184.356 35.315,184.356 			"/>
			<polygon fill="#FFFFFF" points="35.315,238.447 31.842,227.768 28.369,238.447 17.129,238.447 26.222,245.046 22.75,255.726 
				31.842,249.125 40.935,255.726 37.461,245.046 46.555,238.447 			"/>
			<polygon fill="#FFFFFF" points="63.684,38.452 60.211,49.131 48.971,49.131 58.064,55.73 54.592,66.409 63.684,59.81 
				72.777,66.409 69.304,55.73 78.397,49.131 67.158,49.131 			"/>
			<polygon fill="#FFFFFF" points="63.684,92.542 60.211,103.221 48.971,103.221 58.064,109.821 54.592,120.499 63.684,113.899 
				72.777,120.499 69.304,109.82 78.397,103.221 67.157,103.221 			"/>
			<polygon fill="#FFFFFF" points="63.684,146.632 60.211,157.311 48.971,157.311 58.064,163.911 54.592,174.59 63.684,167.99 
				72.777,174.59 69.304,163.911 78.397,157.311 67.157,157.311 			"/>
			<polygon fill="#FFFFFF" points="67.158,211.402 63.684,200.723 60.21,211.402 48.971,211.402 58.064,218.001 54.592,228.679 
				63.684,222.08 72.777,228.679 69.304,218.001 78.397,211.402 			"/>
			<polygon fill="#FFFFFF" points="95.526,11.407 92.053,22.085 80.814,22.085 89.906,28.685 86.433,39.364 95.526,32.763 
				104.62,39.364 101.146,28.685 110.239,22.085 99,22.085 			"/>
			<polygon fill="#FFFFFF" points="95.526,65.497 92.053,76.176 80.814,76.176 89.906,82.775 86.433,93.454 95.526,86.854 
				104.62,93.454 101.146,82.775 110.239,76.176 99,76.176 			"/>
			<polygon fill="#FFFFFF" points="95.526,119.587 92.053,130.266 80.814,130.266 89.906,136.866 86.433,147.544 95.526,140.944 
				104.62,147.544 101.146,136.866 110.239,130.266 99,130.266 			"/>
			<polygon fill="#FFFFFF" points="95.526,173.678 92.053,184.356 80.814,184.356 89.906,190.956 86.433,201.635 95.526,195.035 
				104.62,201.635 101.146,190.956 110.239,184.356 99,184.356 			"/>
			<polygon fill="#FFFFFF" points="99,238.447 95.526,227.768 92.053,238.447 80.814,238.447 89.906,245.046 86.433,255.726 
				95.526,249.125 104.62,255.726 101.146,245.046 110.239,238.447 			"/>
			<polygon fill="#FFFFFF" points="127.369,38.452 123.895,49.131 112.656,49.131 121.749,55.73 118.275,66.409 127.369,59.81 
				136.461,66.409 132.988,55.73 142.082,49.131 130.841,49.131 			"/>
			<polygon fill="#FFFFFF" points="127.369,92.542 123.896,103.221 112.656,103.221 121.749,109.82 118.275,120.499 
				127.369,113.899 136.461,120.499 132.988,109.821 142.082,103.221 130.841,103.221 			"/>
			<polygon fill="#FFFFFF" points="127.369,146.632 123.896,157.311 112.656,157.311 121.749,163.911 118.275,174.59 
				127.369,167.99 136.461,174.59 132.988,163.911 142.082,157.311 130.841,157.311 			"/>
			<polygon fill="#FFFFFF" points="130.842,211.402 127.369,200.723 123.895,211.402 112.656,211.402 121.749,218.001 
				118.275,228.679 127.369,222.08 136.461,228.679 132.988,218.001 142.082,211.402 			"/>
			<polygon fill="#FFFFFF" points="159.21,11.407 155.737,22.085 144.498,22.085 153.591,28.685 150.118,39.364 159.211,32.764 
				168.303,39.364 164.83,28.685 173.923,22.085 162.683,22.085 			"/>
			<polygon fill="#FFFFFF" points="159.21,65.497 155.737,76.176 144.498,76.176 153.591,82.775 150.118,93.454 159.211,86.854 
				168.303,93.454 164.83,82.775 173.923,76.176 162.683,76.176 			"/>
			<polygon fill="#FFFFFF" points="159.21,119.587 155.737,130.266 144.498,130.266 153.591,136.866 150.118,147.544 
				159.211,140.944 168.303,147.544 164.83,136.866 173.923,130.266 162.684,130.266 			"/>
			<polygon fill="#FFFFFF" points="159.21,173.678 155.737,184.356 144.498,184.356 153.591,190.956 150.118,201.635 
				159.211,195.035 168.303,201.635 164.83,190.956 173.923,184.356 162.683,184.356 			"/>
			<polygon fill="#FFFFFF" points="162.683,238.447 159.21,227.768 155.737,238.447 144.498,238.447 153.591,245.046 
				150.118,255.726 159.211,249.125 168.303,255.726 164.83,245.046 173.923,238.447 			"/>
			<polygon fill="#FFFFFF" points="191.053,38.452 187.579,49.131 176.34,49.131 185.433,55.73 181.959,66.409 191.053,59.809 
				200.146,66.409 196.672,55.73 205.765,49.131 194.526,49.131 			"/>
			<polygon fill="#FFFFFF" points="191.053,92.542 187.579,103.221 176.34,103.221 185.433,109.82 181.959,120.499 191.053,113.899 
				200.146,120.499 196.672,109.82 205.765,103.221 194.526,103.221 			"/>
			<polygon fill="#FFFFFF" points="191.053,146.632 187.579,157.311 176.34,157.311 185.433,163.911 181.959,174.59 
				191.053,167.989 200.146,174.59 196.672,163.911 205.765,157.311 194.526,157.311 			"/>
			<polygon fill="#FFFFFF" points="194.526,211.402 191.053,200.723 187.579,211.402 176.34,211.402 185.433,218.001 
				181.959,228.679 191.053,222.08 200.146,228.679 196.672,218.001 205.765,211.402 			"/>
			<polygon fill="#FFFFFF" points="222.895,11.407 219.422,22.085 208.182,22.085 217.275,28.685 213.802,39.364 222.895,32.764 
				231.988,39.364 228.515,28.685 237.607,22.085 226.368,22.085 			"/>
			<polygon fill="#FFFFFF" points="222.895,65.497 219.422,76.176 208.182,76.176 217.275,82.775 213.802,93.454 222.895,86.854 
				231.988,93.454 228.515,82.775 237.607,76.176 226.368,76.176 			"/>
			<polygon fill="#FFFFFF" points="222.895,119.587 219.421,130.266 208.182,130.266 217.275,136.866 213.802,147.544 
				222.895,140.944 231.988,147.544 228.515,136.866 237.607,130.266 226.368,130.266 			"/>
			<polygon fill="#FFFFFF" points="222.895,173.678 219.422,184.356 208.182,184.356 217.275,190.956 213.802,201.635 
				222.895,195.035 231.988,201.635 228.515,190.956 237.607,184.356 226.368,184.356 			"/>
			<polygon fill="#FFFFFF" points="226.368,238.447 222.895,227.768 219.422,238.447 208.182,238.447 217.275,245.046 
				213.802,255.726 222.895,249.125 231.988,255.726 228.515,245.046 237.607,238.447 			"/>
			<polygon fill="#FFFFFF" points="254.736,38.452 251.264,49.131 240.024,49.131 249.117,55.73 245.644,66.409 254.737,59.81 
				263.83,66.409 260.356,55.73 269.45,49.131 258.21,49.131 			"/>
			<polygon fill="#FFFFFF" points="254.736,92.542 251.264,103.221 240.024,103.221 249.117,109.82 245.644,120.499 
				254.737,113.899 263.83,120.499 260.356,109.821 269.45,103.221 258.209,103.221 			"/>
			<polygon fill="#FFFFFF" points="254.736,146.632 251.264,157.311 240.024,157.311 249.117,163.911 245.644,174.59 
				254.737,167.99 263.83,174.59 260.356,163.912 269.45,157.311 258.209,157.311 			"/>
			<polygon fill="#FFFFFF" points="258.21,211.402 254.736,200.723 251.263,211.402 240.024,211.402 249.117,218.001 
				245.644,228.679 254.737,222.08 263.83,228.679 260.356,218.001 269.45,211.402 			"/>
			<polygon fill="#FFFFFF" points="286.579,11.407 283.105,22.085 271.866,22.085 280.959,28.685 277.485,39.364 286.579,32.763 
				295.672,39.364 292.199,28.685 301.291,22.085 290.052,22.085 			"/>
			<polygon fill="#FFFFFF" points="286.579,65.497 283.105,76.176 271.866,76.176 280.959,82.775 277.485,93.454 286.579,86.854 
				295.672,93.454 292.199,82.775 301.291,76.176 290.052,76.176 			"/>
			<polygon fill="#FFFFFF" points="286.579,119.587 283.105,130.266 271.866,130.266 280.959,136.866 277.485,147.544 
				286.579,140.944 295.672,147.544 292.199,136.866 301.291,130.266 290.052,130.266 			"/>
			<polygon fill="#FFFFFF" points="286.579,173.678 283.105,184.356 271.866,184.356 280.959,190.956 277.485,201.635 
				286.579,195.035 295.672,201.635 292.199,190.956 301.291,184.356 290.052,184.356 			"/>
			<polygon fill="#FFFFFF" points="290.052,238.447 286.579,227.768 283.105,238.447 271.866,238.447 280.959,245.046 
				277.485,255.726 286.579,249.125 295.672,255.726 292.199,245.046 301.291,238.447 			"/>
			<polygon fill="#FFFFFF" points="318.42,38.452 314.947,49.131 303.708,49.131 312.801,55.73 309.328,66.409 318.42,59.809 
				327.514,66.409 324.041,55.73 333.133,49.131 321.894,49.131 			"/>
			<polygon fill="#FFFFFF" points="318.42,92.542 314.947,103.221 303.708,103.221 312.801,109.82 309.328,120.499 318.42,113.899 
				327.514,120.499 324.041,109.82 333.133,103.221 321.894,103.221 			"/>
			<polygon fill="#FFFFFF" points="318.42,146.632 314.947,157.311 303.708,157.311 312.801,163.911 309.328,174.59 318.42,167.99 
				327.514,174.59 324.041,163.911 333.133,157.311 321.894,157.311 			"/>
			<polygon fill="#FFFFFF" points="321.894,211.402 318.42,200.723 314.947,211.402 303.708,211.402 312.801,218.001 
				309.328,228.679 318.42,222.08 327.514,228.679 324.041,218.001 333.133,211.402 			"/>
			<polygon fill="#FFFFFF" points="344.644,28.686 341.171,39.364 350.263,32.764 359.355,39.364 355.883,28.686 364.976,22.085 
				353.736,22.085 350.263,11.407 346.79,22.085 335.55,22.085 			"/>
			<polygon fill="#FFFFFF" points="350.263,65.497 346.79,76.176 335.55,76.176 344.644,82.775 341.171,93.454 350.263,86.854 
				359.355,93.454 355.883,82.775 364.976,76.176 353.736,76.176 			"/>
			<polygon fill="#FFFFFF" points="350.263,119.587 346.79,130.266 335.55,130.266 344.644,136.866 341.171,147.544 
				350.263,140.945 359.355,147.544 355.883,136.866 364.976,130.266 353.736,130.266 			"/>
			<polygon fill="#FFFFFF" points="350.263,173.678 346.79,184.356 335.55,184.356 344.644,190.957 341.171,201.635 
				350.263,195.035 359.355,201.635 355.883,190.957 364.976,184.356 353.736,184.356 			"/>
			<polygon fill="#FFFFFF" points="353.736,238.447 350.263,227.768 346.79,238.447 335.55,238.447 344.644,245.046 
				341.171,255.726 350.263,249.125 359.355,255.726 355.883,245.046 364.976,238.447 			"/>
		</g>
	</g>
</g>
</svg>
