<?xml version="1.0" encoding="utf-8"?>
<!-- Generator: Adobe Illustrator 22.0.0, SVG Export Plug-In . SVG Version: 6.00 Build 0)  -->
<svg version="1.1" id="Layer_1" xmlns="http://www.w3.org/2000/svg" xmlns:xlink="http://www.w3.org/1999/xlink" x="0px" y="0px"
	 viewBox="0 0 103 103" style="enable-background:new 0 0 103 103;" xml:space="preserve">
<style type="text/css">
	.st0{fill:#368BA4;stroke:#368BA4;stroke-width:4;}
	.st1{fill:#FEF4E6;}
</style>
<title>brand-touchpoints-icon</title>
<desc>Created with Sketch.</desc>
<g id="Service-cards">
	<g id="Cards" transform="translate(-1928.000000, -141.000000)">
		<g id="Card-5" transform="translate(1785.000000, 103.000000)">
			<g id="brand-touchpoints-icon" transform="translate(145.000000, 40.000000)">
				<circle id="Circle" class="st0" cx="49.5" cy="49.5" r="49.5"/>
				<g id="Connectivity" transform="translate(25.000000, 35.000000)">
					<path id="Fill-168" class="st1" d="M39.1,0.7c-0.9,0.9-1,2.3-0.2,3.3c2.6,3.2,4.1,7.3,4.1,11.8s-1.5,8.6-4.1,11.8
						c-0.8,1-0.7,2.4,0.2,3.3c1.1,1.1,2.8,1,3.7-0.2C46,26.6,48,21.4,48,15.8S46.1,5,42.8,1C41.9-0.2,40.2-0.3,39.1,0.7z M8.9,0.7
						C7.8-0.3,6.1-0.2,5.2,1C1.9,5,0,10.2,0,15.8s1.9,10.8,5.2,14.9c0.9,1.2,2.7,1.3,3.7,0.2c0.9-0.9,1-2.3,0.2-3.3
						C6.5,24.4,5,20.3,5,15.8S6.5,7.3,9.1,4C9.9,3,9.8,1.6,8.9,0.7z"/>
					<path id="Fill-169" class="st1" d="M32.7,6.7c-0.8,0.8-1,2.2-0.3,3.2c1,1.6,1.6,3.5,1.6,5.5s-0.6,3.9-1.6,5.5
						c-0.7,1-0.5,2.3,0.3,3.2c1.1,1.1,3,0.9,3.9-0.4c1.6-2.4,2.5-5.2,2.5-8.2s-0.9-5.9-2.5-8.2C35.7,5.8,33.8,5.6,32.7,6.7z
						 M15.3,6.7c-1.1-1.1-3-0.9-3.9,0.4C9.9,9.5,9,12.3,9,15.4s0.9,5.9,2.5,8.2c0.9,1.3,2.8,1.6,3.9,0.4c0.8-0.9,1-2.2,0.3-3.2
						c-1-1.6-1.6-3.5-1.6-5.5s0.6-3.9,1.6-5.5C16.3,8.9,16.2,7.6,15.3,6.7z"/>
					<path id="Fill-170" class="st1" d="M30,16c0,3.3-2.7,6-6,6s-6-2.7-6-6s2.7-6,6-6S30,12.7,30,16"/>
				</g>
			</g>
		</g>
	</g>
</g>
</svg>
