<?xml version="1.0" encoding="utf-8"?>
<!-- Generator: Adobe Illustrator 22.0.0, SVG Export Plug-In . SVG Version: 6.00 Build 0)  -->
<svg version="1.1" id="Layer_1" xmlns="http://www.w3.org/2000/svg" xmlns:xlink="http://www.w3.org/1999/xlink" x="0px" y="0px"
	 viewBox="0 0 103 103" style="enable-background:new 0 0 103 103;" xml:space="preserve">
<style type="text/css">
	.st0{fill:#497DC7;stroke:#497DC7;stroke-width:4;}
	.st1{fill:#FEF4E6;}
</style>
<title>brand-guidelines-icon</title>
<desc>Created with Sketch.</desc>
<g id="Service-cards">
	<g id="Cards" transform="translate(-1512.000000, -141.000000)">
		<g id="Card-4" transform="translate(1369.000000, 103.000000)">
			<g id="brand-guidelines-icon" transform="translate(145.000000, 40.000000)">
				<circle id="Circle" class="st0" cx="49.5" cy="49.5" r="49.5"/>
				<path id="Fill-297" class="st1" d="M48.5,61c-2.2,0-4-1.8-4-4s1.8-4,4-4s4,1.8,4,4S50.8,61,48.5,61z M68.2,43.7L50.6,26.8
					c-1.2-1.1-3-1.1-4.2,0L28.9,43.7c-2,1.9-0.6,5.2,2.1,5.2h1.5V69c0,2.8,2.2,5,5,5h22c2.8,0,5-2.2,5-5V48.8H66
					C68.8,48.8,70.1,45.5,68.2,43.7z"/>
			</g>
		</g>
	</g>
</g>
</svg>
