<?xml version="1.0" encoding="UTF-8"?>
<svg width="103px" height="103px" viewBox="0 0 103 103" version="1.1" xmlns="http://www.w3.org/2000/svg" xmlns:xlink="http://www.w3.org/1999/xlink">
    <!-- Generator: Sketch 52.5 (67469) - http://www.bohemiancoding.com/sketch -->
    <title>brand-touchpoints-icon</title>
    <desc>Created with Sketch.</desc>
    <g id="Service-cards" stroke="none" stroke-width="1" fill="none" fill-rule="evenodd">
        <g id="Cards" transform="translate(-1928.000000, -141.000000)">
            <g id="Card-5" transform="translate(1785.000000, 103.000000)">
                <g id="brand-touchpoints-icon" transform="translate(145.000000, 40.000000)">
                    <circle id="Circle" stroke="#FFFFFF" stroke-width="4" cx="49.5" cy="49.5" r="49.5"></circle>
                    <g id="Connectivity" transform="translate(25.000000, 35.000000)" fill="#FFFFFF">
                        <path d="M39.093,0.734282077 C38.21,1.61428208 38.093,3.03428208 38.871,4.01428208 C41.455,7.25428208 43,11.3642821 43,15.8242821 C43,20.2842821 41.455,24.3942821 38.871,27.6442821 C38.093,28.6142821 38.21,30.0342821 39.093,30.9142821 C40.153,31.9742821 41.903,31.8742821 42.832,30.6942821 C46.066,26.6042821 48,21.4342821 48,15.8242821 C48,10.2142821 46.066,5.04428208 42.832,0.954282077 C41.903,-0.225717923 40.153,-0.325717923 39.093,0.734282077 Z M8.907,0.734282077 C7.847,-0.325717923 6.097,-0.225717923 5.167,0.954282077 C1.933,5.04428208 0,10.2142821 0,15.8242821 C0,21.4342821 1.933,26.6042821 5.167,30.6942821 C6.097,31.8742821 7.847,31.9742821 8.907,30.9142821 C9.79,30.0342821 9.907,28.6142821 9.129,27.6442821 C6.545,24.3942821 5,20.2842821 5,15.8242821 C5,11.3642821 6.545,7.25428208 9.129,4.01428208 C9.907,3.03428208 9.79,1.61428208 8.907,0.734282077 Z" id="Fill-168"></path>
                        <path d="M32.655,6.73139095 C31.808,7.57139095 31.698,8.89139095 32.357,9.89139095 C33.395,11.471391 34,13.351391 34,15.381391 C34,17.411391 33.395,19.301391 32.357,20.871391 C31.698,21.871391 31.808,23.191391 32.655,24.041391 C33.788,25.171391 35.659,24.941391 36.54,23.611391 C38.096,21.251391 39,18.421391 39,15.381391 C39,12.341391 38.096,9.52139095 36.54,7.16139095 C35.659,5.82139095 33.788,5.59139095 32.655,6.73139095 Z M15.345,6.73139095 C14.211,5.59139095 12.341,5.82139095 11.459,7.16139095 C9.904,9.52139095 9,12.341391 9,15.381391 C9,18.421391 9.904,21.251391 11.459,23.611391 C12.341,24.941391 14.211,25.171391 15.345,24.041391 C16.192,23.191391 16.302,21.871391 15.643,20.871391 C14.604,19.301391 14,17.411391 14,15.381391 C14,13.351391 14.604,11.471391 15.643,9.89139095 C16.302,8.89139095 16.192,7.57139095 15.345,6.73139095 Z" id="Fill-169"></path>
                        <path d="M30,16 C30,19.31 27.313,22 24,22 C20.686,22 18,19.31 18,16 C18,12.69 20.686,10 24,10 C27.313,10 30,12.69 30,16" id="Fill-170"></path>
                    </g>
                </g>
            </g>
        </g>
    </g>
</svg>