<?xml version="1.0" encoding="utf-8"?>
<!-- Generator: Adobe Illustrator 22.0.0, SVG Export Plug-In . SVG Version: 6.00 Build 0)  -->
<svg version="1.1" id="Layer_1" xmlns="http://www.w3.org/2000/svg" xmlns:xlink="http://www.w3.org/1999/xlink" x="0px" y="0px"
	 viewBox="0 0 103 103" style="enable-background:new 0 0 103 103;" xml:space="preserve">
<style type="text/css">
	.st0{fill:#7537F8;stroke:#7537F8;stroke-width:4;}
	.st1{fill:#FEF4E6;}
</style>
<title>brand-research-icon</title>
<desc>Created with Sketch.</desc>
<g id="Service-cards">
	<g id="Cards" transform="translate(-265.000000, -141.000000)">
		<g id="Card-1" transform="translate(120.000000, 103.000000)">
			<g id="brand-research-icon" transform="translate(147.000000, 40.000000)">
				<circle id="Circle" class="st0" cx="49.5" cy="49.5" r="49.5"/>
				<path id="Fill-210" class="st1" d="M50.5,50.5c-3.9,0-7-3.1-7-7s3.1-7,7-7s7,3.1,7,7S54.4,50.5,50.5,50.5z M49.6,26
					c-8.5,0.5-15.6,7.1-16.5,15.5c-0.4,4.2,0.6,8.1,2.7,11.3l13,20.2c0.8,1.2,2.6,1.2,3.4,0l13-20.2c1.8-2.7,2.8-6,2.8-9.4
					C68,33.5,59.6,25.5,49.6,26z"/>
			</g>
		</g>
	</g>
</g>
</svg>
