<?xml version="1.0" encoding="UTF-8"?>
<svg width="36px" height="48px" viewBox="0 0 36 48" version="1.1" xmlns="http://www.w3.org/2000/svg" xmlns:xlink="http://www.w3.org/1999/xlink">
    <!-- Generator: Sketch 52.5 (67469) - http://www.bohemiancoding.com/sketch -->
    <title>Fill 230 Copy</title>
    <desc>Created with Sketch.</desc>
    <g id="rv1" stroke="none" stroke-width="1" fill="none" fill-rule="evenodd">
        <g id="Home-(1680px)-[XL-/-15&quot;-Laptop]-Copy" transform="translate(-315.000000, -1852.000000)" fill="#FFFFFF">
            <g id="Our-Services" transform="translate(0.000000, 1678.000000)">
                <g id="6-Paper_3" transform="translate(171.000000, 174.000000)">
                    <path d="M174.59,17 L168,17 C165.24,17 163,14.76 163,12 L163,5.41 C163,4.52 164.08,4.08 164.71,4.71 L175.29,15.29 C175.92,15.92 175.48,17 174.59,17 Z M168,38 L156,38 C154.9,38 154,37.1 154,36 C154,34.9 154.9,34 156,34 L168,34 C169.1,34 170,34.9 170,36 C170,37.1 169.1,38 168,38 Z M156,25 L163,25 C164.1,25 165,25.9 165,27 C165,28.1 164.1,29 163,29 L156,29 C154.9,29 154,28.1 154,27 C154,25.9 154.9,25 156,25 Z M178.54,12.54 L167.46,1.46 C166.53,0.53 165.26,0 163.93,0 L149,0 C146.24,0 144,2.24 144,5 L144,43 C144,45.76 146.24,48 149,48 L175,48 C177.76,48 180,45.76 180,43 L180,16.07 C180,14.74 179.47,13.47 178.54,12.54 Z" id="Fill-230-Copy"></path>
                </g>
            </g>
        </g>
    </g>
</svg>