<?xml version="1.0" encoding="UTF-8"?>
<svg width="37px" height="49px" viewBox="0 0 37 49" version="1.1" xmlns="http://www.w3.org/2000/svg" xmlns:xlink="http://www.w3.org/1999/xlink">
    <!-- Generator: Sketch 52.5 (67469) - http://www.bohemiancoding.com/sketch -->
    <title>Fill 209</title>
    <desc>Created with Sketch.</desc>
    <g id="rv1" stroke="none" stroke-width="1" fill="none" fill-rule="evenodd">
        <g id="Home-(1680px)-[XL-/-15&quot;-Laptop]-Copy" transform="translate(-1536.000000, -1821.000000)" fill="#FFFFFF">
            <g id="Our-Services" transform="translate(0.000000, 1678.000000)">
                <g id="3-Pointer_2-Copy" transform="translate(1536.000000, 143.000000)">
                    <path d="M29.08,19.75 C28.298,18.96 28.298,17.7 29.08,16.92 L36.251,9.75 C37.511,8.49 36.619,6.33 34.837,6.33 L5.841,6.33 L5.841,2.83 C5.841,1.45 4.722,0.33 3.341,0.33 C1.96,0.33 0.841,1.45 0.841,2.83 L0.841,45.83 C0.841,47.21 1.96,48.33 3.341,48.33 C4.722,48.33 5.841,47.21 5.841,45.83 L5.841,30.33 L34.837,30.33 C36.619,30.33 37.511,28.18 36.251,26.92 L29.08,19.75" id="Fill-209"></path>
                </g>
            </g>
        </g>
    </g>
</svg>