<?xml version="1.0" encoding="utf-8"?>
<!-- Generator: Adobe Illustrator 22.0.0, SVG Export Plug-In . SVG Version: 6.00 Build 0)  -->
<svg version="1.1" id="Layer_1" xmlns="http://www.w3.org/2000/svg" xmlns:xlink="http://www.w3.org/1999/xlink" x="0px" y="0px"
	 viewBox="0 0 103 103" style="enable-background:new 0 0 103 103;" xml:space="preserve">
<style type="text/css">
	.st0{fill:#682AEC;stroke:#682AEC;stroke-width:4;}
	.st1{fill:#FEF4E6;}
</style>
<title>brand-strategy-icon</title>
<desc>Created with Sketch.</desc>
<g id="Service-cards">
	<g id="Cards" transform="translate(-684.000000, -141.000000)">
		<g id="Card-2" transform="translate(536.000000, 103.000000)">
			<g id="brand-strategy-icon" transform="translate(150.000000, 40.000000)">
				<circle id="Circle" class="st0" cx="49.5" cy="49.5" r="49.5"/>
				<path id="Fill-296-Copy" class="st1" d="M34.5,39c-1.4,0-2.5-1.1-2.5-2.5s1.1-2.5,2.5-2.5s2.5,1.1,2.5,2.5S35.9,39,34.5,39z
					 M61.5,56c-3.3,0-6,2.1-7.1,5H40.8c-2.3,0-4.2-1.9-4.2-4.2s1.9-4.2,4.2-4.2h14.5c5.1,0,9.2-4.1,9.2-9.2s-4.2-9.2-9.2-9.2H41.6
					c-1-2.9-3.8-5-7.1-5c-4.1,0-7.5,3.4-7.5,7.5s3.4,7.5,7.5,7.5c3.3,0,6-2.1,7.1-5h13.7c2.3,0,4.2,1.9,4.2,4.2s-1.9,4.2-4.2,4.2
					H40.8c-5.1,0-9.2,4.2-9.2,9.2c0,5.1,4.1,9.2,9.2,9.2h13.7c1,2.9,3.8,5,7.1,5c4.1,0,7.5-3.4,7.5-7.5S65.6,56,61.5,56z"/>
			</g>
		</g>
	</g>
</g>
</svg>
