<?xml version="1.0" encoding="UTF-8"?>
<svg width="42px" height="42px" viewBox="0 0 42 42" version="1.1" xmlns="http://www.w3.org/2000/svg" xmlns:xlink="http://www.w3.org/1999/xlink">
    <!-- Generator: Sketch 52.5 (67469) - http://www.bohemiancoding.com/sketch -->
    <title>Fill 296 Copy</title>
    <desc>Created with Sketch.</desc>
    <g id="rv1" stroke="none" stroke-width="1" fill="none" fill-rule="evenodd">
        <g id="Home-(1680px)-[XL-/-15&quot;-Laptop]-Copy" transform="translate(-728.000000, -1850.000000)" fill="#FFFFFF">
            <g id="Our-Services" transform="translate(0.000000, 1678.000000)">
                <g id="22-Way" transform="translate(592.000000, 172.000000)">
                    <path d="M143.5,10 C142.121,10 141,8.879 141,7.5 C141,6.122 142.121,5 143.5,5 C144.878,5 146,6.122 146,7.5 C146,8.879 144.878,10 143.5,10 Z M170.5,27 C167.236,27 164.466,29.089 163.436,32 L149.75,32 C147.407,32 145.5,30.093 145.5,27.75 C145.5,25.407 147.407,23.5 149.75,23.5 L164.25,23.5 C169.35,23.5 173.5,19.351 173.5,14.25 C173.5,9.15 169.35,5 164.25,5 L150.564,5 C149.534,2.089 146.764,0 143.5,0 C139.358,0 136,3.358 136,7.5 C136,11.642 139.358,15 143.5,15 C146.764,15 149.534,12.911 150.564,10 L164.25,10 C166.593,10 168.5,11.907 168.5,14.25 C168.5,16.593 166.593,18.5 164.25,18.5 L149.75,18.5 C144.649,18.5 140.5,22.65 140.5,27.75 C140.5,32.851 144.649,37 149.75,37 L163.436,37 C164.466,39.911 167.236,42 170.5,42 C174.642,42 178,38.642 178,34.5 C178,30.358 174.642,27 170.5,27 Z" id="Fill-296-Copy"></path>
                </g>
            </g>
        </g>
    </g>
</svg>