<svg width="36" height="50" viewBox="0 0 36 50" fill="none" xmlns="http://www.w3.org/2000/svg">
<path d="M2.07622 28.077H15.6091L14.1482 47.6924C13.9944 49.7694 16.6087 50.7693 17.8389 49.077C24.0671 40.3847 34.9857 25.154 34.9857 25.154C35.9853 23.7694 34.9857 21.8463 33.2941 21.8463H19.7612L21.2222 2.23089C21.3759 0.153965 18.7616 -0.846035 17.5314 0.846273L0.38461 24.8463C-0.614977 26.154 0.38461 28.077 2.07622 28.077Z" fill="#7537F8"/>
<path d="M2.07622 28.077H15.6091L14.1482 47.6924C13.9944 49.7694 16.6087 50.7693 17.8389 49.077C24.0671 40.3847 34.9857 25.154 34.9857 25.154C35.9853 23.7694 34.9857 21.8463 33.2941 21.8463H19.7612L21.2222 2.23089C21.3759 0.153965 18.7616 -0.846035 17.5314 0.846273L0.38461 24.8463C-0.614977 26.154 0.38461 28.077 2.07622 28.077Z" fill="url(#paint0_linear_602_332)"/>
<defs>
<linearGradient id="paint0_linear_602_332" x1="7" y1="46.5" x2="31" y2="6" gradientUnits="userSpaceOnUse">
<stop stop-color="#7537F8"/>
<stop offset="1" stop-color="#37D5F8"/>
</linearGradient>
</defs>
</svg>
