<svg width="5565" height="5395" viewBox="0 0 5565 5395" fill="none" xmlns="http://www.w3.org/2000/svg">
<g clip-path="url(#clip0_102_1146)">
<path d="M2394.7 0C2272.41 0 2152.72 11.1968 2036.38 32.0898C2036.21 32.0487 2036.04 32.0091 2035.87 31.9702C2035.69 32.0722 2035.51 32.1756 2035.34 32.2803C1282 167.976 673.107 722.254 459.108 1445.78C375.866 1485.9 -33.7474 1708.04 2.23261 2184.78C22.7266 2456.66 146.901 2644.15 306.783 2745.85C382.282 2793.88 465.31 2822.86 548.756 2834C652.194 3067.51 798.865 3277.26 978.248 3454.23C979.246 3455.31 980.302 3456.34 981.412 3457.3C1249.7 3720.84 1590.44 3910.65 1971.57 3992.12V4375.97C1966.26 4374.4 1960.68 4373.95 1955.18 4374.64C1914.89 4380.18 1882.01 4395.81 1859.83 4419.68C1837.65 4443.55 1827.68 4474.89 1829.58 4504.39C1831.35 4531.96 1842.93 4558.16 1861.67 4579.19C1813.06 4679.03 1767.96 4878.64 1817.9 5273.45C1817.95 5274.02 1818.02 5274.59 1818.1 5275.15C1819.86 5289.01 1821.39 5302.36 1823.39 5316.71C1829.49 5361 1867.87 5394.36 1912.47 5394.37C2119.63 5394.47 3008.6 5394.47 3222.1 5394.47C3269.43 5394.47 3309.24 5356.88 3311.92 5309.65C3316.69 5218.77 3321.69 5025.23 3228.51 4901.66C3131.23 4772.71 2971.7 4748.61 2857.94 4814.74C2804.24 4761.36 2770.6 4670.47 2746.32 4562.28C2745.71 4560 2744.9 4557.78 2743.9 4555.64C2761.31 4531.81 2772.77 4502.47 2766.65 4469.43C2757.55 4420.27 2717.91 4388.87 2677.86 4373.06C2637.81 4357.25 2593.35 4351.27 2551.89 4345.86C2549.53 4345.81 2547.18 4345.96 2544.85 4346.33V4030.97C2606.81 4026.4 2668.01 4019.2 2728.29 4009.14C2728.49 4009.14 2728.69 4009.14 2728.89 4009.14C2729.17 4009.04 2729.43 4008.94 2729.71 4008.85C3357.15 3903.71 3886.96 3508.79 4176.45 2966.41C4307.63 3071.81 4447.94 3120.91 4592.17 3110.27C4746.02 3098.93 4900.94 3021.69 5057.15 2887.35C5155.71 2900.69 5245.84 2886.42 5320.57 2839.73C5413.38 2781.73 5477.92 2676.97 5511.12 2530.98C5544.57 2383.86 5565.81 2227.98 5564.36 2088.48C5562.92 1948.97 5540.6 1824.78 5475.26 1741.02C5424.61 1676.1 5357.72 1634.62 5287.49 1620.31C5292.87 1414.93 5264.87 1197.32 5179.2 1062.66C5136.49 995.55 5073.99 962.308 5014.67 963.652C4994.9 964.102 4975.49 968.384 4957.27 976.543C4884.38 1009.18 4834.45 1091.43 4828.42 1195.41C4817.59 1384.23 4828.23 1632.95 4754.32 1784.02C4719.68 1854.83 4702.69 1946.15 4693.17 2034.16C4668.21 2039.97 4641.61 2051.75 4619.09 2074.55C4604.09 2089.73 4592.03 2109.26 4583.26 2132.77C4528.21 2146.4 4474.48 2146.4 4410.72 2116.68C4412.28 2084.19 4413.22 2051.53 4413.22 2018.65C4413.22 905.086 3508.43 0.15625 2394.73 0.15625L2394.7 0ZM2231.67 4030.35C2244.19 4031.36 2256.8 4032.04 2269.39 4032.81C2270.01 4032.87 2270.63 4032.91 2271.26 4032.93C2285.88 4033.81 2300.47 4034.84 2315.17 4035.41L2310.69 4350.9H2233.16L2231.67 4030.35Z" fill="#070922"/>
<path d="M2230.95 5010.2C2253.63 5010.2 2276.89 5013.5 2301.03 5021.29C2301.14 5021.33 2301.25 5021.37 2301.36 5021.41C2315.73 5026.07 2330.41 5032.29 2345.48 5040.35C2392.8 5065.77 2421.65 5139.61 2433.23 5212.95C2439.45 5252.3 2441.08 5288.46 2441.36 5314.44C2224.7 5314.44 1996.11 5314.44 1912.49 5314.44C1907.3 5314.44 1903.31 5310.99 1902.61 5305.88C1901.24 5296.06 1900.27 5287.07 1899.02 5277.5C1904.64 5263.9 1916.74 5236.3 1935.17 5203.81C1961.06 5158.16 1999.24 5106.01 2039.37 5079.3C2082.09 5050.79 2131.04 5025.46 2182.26 5015.33C2198.26 5012.17 2214.46 5010.37 2230.95 5010.33V5010.2Z" fill="white"/>
<path d="M1930.31 4620.98C1936.76 4622.69 1943.38 4624.1 1950.27 4624.96C1950.3 4624.96 1950.34 4624.96 1950.37 4624.96C1975.33 4628.03 2021.04 4628.94 2084.06 4629.59C2136.06 4630.13 2198.58 4630.05 2262.44 4629.69C2262.88 4725.52 2264.43 4836.04 2268.75 4933.13C2251.56 4930.99 2234.59 4930.15 2218.02 4930.76C2200.48 4931.41 2183.35 4933.5 2166.77 4936.78C2100.49 4949.88 2042.8 4980.79 1995.02 5012.68C1947.28 5044.46 1911.11 5090.68 1883.59 5134.36C1860.11 4845.36 1896.87 4694.61 1930.31 4621.06L1930.31 4620.98Z" fill="white"/>
<path d="M2675.75 4611.35C2699.82 4709.53 2733.12 4800.88 2795.4 4865.37C2694.91 4976.82 2672.14 5122.69 2672.14 5122.69C2670.4 5133.16 2672.88 5143.88 2679.04 5152.52C2685.21 5161.15 2694.55 5166.98 2705.01 5168.73C2715.48 5170.47 2726.2 5167.99 2734.84 5161.83C2743.47 5155.66 2749.3 5146.32 2751.05 5135.86C2751.05 5135.86 2774.52 5005.63 2857.37 4915.92C2933.65 4833.25 3074.62 4830.36 3164.64 4949.69C3230.22 5036.68 3236.44 5220.59 3232.02 5305.15C3231.68 5310.7 3227.71 5314.49 3222.06 5314.49C3107.84 5314.49 2814.49 5314.49 2521.44 5314.39C2521.14 5285.33 2519.22 5244.5 2512.26 5200.43C2499.09 5117.03 2469.75 5016.2 2383.29 4969.8C2372.15 4963.83 2361.02 4958.82 2349.89 4954.31C2344.78 4854.05 2342.92 4732.9 2342.43 4629.1C2453.54 4628.23 2537.45 4627.78 2634.93 4621.23C2649.44 4620.25 2663.07 4616.72 2675.75 4611.3V4611.35Z" fill="white"/>
<path d="M2233.51 4430.9H2264.52C2263.51 4434.21 2262.93 4437.65 2262.8 4441.11C2262.57 4466.31 2262.36 4505.55 2262.28 4549.67C2198.62 4550.07 2136.3 4550.16 2084.83 4549.67C2022.59 4549.02 1972.56 4547.14 1960.11 4545.61C1926.3 4541.35 1910.63 4518.01 1909.42 4499.3C1908.82 4489.93 1911.1 4482.09 1918.45 4474.18C1925.79 4466.27 1939.71 4457.56 1966.06 4453.95C1967.92 4453.69 1969.77 4453.31 1971.57 4452.79V4475.53C1971.57 4483.36 1973.87 4491.03 1978.18 4497.57C1982.5 4504.11 1988.64 4509.24 1995.85 4512.32C2082.32 4549.27 2152.68 4531.23 2206.28 4513.52C2214.3 4510.86 2221.27 4505.74 2226.2 4498.89C2231.13 4492.03 2233.76 4483.79 2233.72 4475.35L2233.51 4430.9Z" fill="white"/>
<path d="M2544.84 4425.51C2584.2 4430.72 2622.52 4437.08 2648.47 4447.32C2675.15 4457.86 2684.8 4466.69 2687.98 4483.85C2688.89 4488.77 2684.73 4503.8 2671.59 4517.66C2658.46 4531.51 2638.58 4540.85 2629.52 4541.46C2535.02 4547.82 2453 4548.27 2342.28 4549.14C2342.28 4532.24 2342.28 4514.88 2342.4 4500.37C2378.6 4521.42 2413.26 4528.76 2443.76 4524.8C2478.68 4520.27 2504.39 4503.89 2524.93 4491.95C2530.99 4488.43 2536.02 4483.39 2539.51 4477.32C2543 4471.25 2544.84 4464.37 2544.84 4457.36V4425.51Z" fill="white"/>
<path d="M2464.84 4035.21V4433.55C2453.27 4439.56 2442.72 4444.27 2433.47 4445.47C2422.6 4446.88 2408.29 4443.27 2389.52 4433.55L2395.15 4036.97C2418.52 4036.97 2441.65 4036.01 2464.84 4035.21Z" fill="#070922"/>
<path d="M2051.57 4007.52C2084.68 4013.2 2118 4018.22 2151.63 4022.27L2153.59 4446.05C2121.59 4455.46 2091.15 4458.34 2051.57 4446.36V4007.52Z" fill="#070922"/>
<path d="M1120.13 3424.63C1165.31 3482.1 1213.26 3537.57 1263.61 3591.07C1198.92 3544.44 1136.95 3494.41 1078.59 3440.35C1092.43 3435.05 1106.28 3429.82 1120.13 3424.63Z" fill="#00B1CD"/>
<path d="M3595.97 3345.64C3645.92 3364.45 3696.25 3385.06 3746.81 3406.78C3568.38 3580.59 3356.68 3720.2 3122.06 3815.31C3307.46 3690.85 3466.17 3530.42 3595.97 3345.64Z" fill="#00B1CD"/>
<path d="M1343.59 3345.39C1470.15 3537.6 1629.46 3714.98 1822.36 3870.96C1742.45 3846.27 1665.19 3815.75 1590.07 3781.37C1444.27 3667.36 1313.26 3537.4 1199.05 3395.29C1247.17 3378.01 1295.32 3361.24 1343.59 3345.39Z" fill="#00B1CD"/>
<path d="M1844.07 3211.45C1942.38 3508.95 2061.33 3763.33 2188.41 3944.8C2131.95 3938.81 2076.27 3930.41 2021.36 3919.67C1773.06 3748.64 1574.27 3545.13 1422.77 3320.12C1562.28 3276.83 1702.57 3240.06 1844.07 3211.45Z" fill="#00B1CD"/>
<path d="M3088.51 3200.23C3229.08 3228.08 3371.75 3266.53 3516.89 3317.13C3314.33 3598.9 3041.63 3819.2 2708.62 3931.31C2614.29 3946.69 2517.7 3955.15 2419.33 3956.39C2713.13 3792.36 2935.77 3522.6 3088.51 3200.23Z" fill="#00B1CD"/>
<path d="M2362.73 3146.21C2330.12 3435.51 2288.7 3691.36 2244.87 3885.51C2129.73 3716.38 2017.95 3476.93 1924 3196.19C2068.73 3170.19 2214.83 3153.06 2362.73 3146.21Z" fill="#00B1CD"/>
<path d="M2521.22 3142.77C2680.64 3143.58 2842.37 3157.28 3006.87 3185.2C2849.44 3509.2 2620.35 3771.24 2319.66 3918.12C2366.44 3715.12 2410.16 3446.72 2443.96 3143.48C2469.66 3142.96 2495.4 3142.64 2521.22 3142.77Z" fill="#00B1CD"/>
<path d="M771.105 2820.41C847.091 3010.47 947.382 3191.29 1069.39 3357.79C1051.27 3364.66 1033.18 3371.65 1015.09 3378.69C861.022 3222.43 733.826 3040.1 639.562 2839.06C684.43 2838.03 728.623 2831.76 771.105 2820.41Z" fill="#00B1CD"/>
<path d="M941.008 2776C955.88 2776.53 1025.91 2778.96 1076.61 2780.76C1130.25 2952.6 1204.25 3118.86 1299.62 3276C1248.78 3292.85 1198.07 3310.48 1147.49 3328.87C1029.1 3170.49 931.109 2998.42 856.145 2817.48C862.969 2817.48 869.841 2817.13 876.809 2816.19C893.246 2813.96 908.265 2809.89 922.082 2799.69C929.941 2793.88 936.517 2785.3 941.008 2776Z" fill="#00B1CD"/>
<path d="M1711.98 2728.69C1743.34 2870.13 1779.59 3006.47 1819.78 3135.66C1671.08 3165.92 1523.94 3204.79 1378.02 3250.61C1286.37 3102.49 1214.46 2945.9 1161.57 2783.75C1220.94 2785.84 1241.55 2786.62 1295.46 2788.46C1372.25 2791.13 1492.43 2803.4 1600.62 2777.17C1640.06 2767.6 1678.53 2752.43 1711.98 2728.69Z" fill="#00B1CD"/>
<path d="M4568 2216.74C4567.76 2224.19 4567.6 2231.71 4567.82 2239.63C4571.35 2363.16 4589.01 2497.35 4649.63 2614.32C4707.01 2725.02 4805.3 2818.7 4957.93 2865.29C4827.47 2967.35 4703.39 3021.76 4586.23 3030.39C4515.66 3035.59 4446.63 3024.6 4378.21 2996.35C4457.14 2735.7 4516.61 2477.45 4534.83 2219.94C4546.05 2219.4 4557.11 2218.3 4568 2216.74Z" fill="#070922"/>
<path d="M4008.55 2003.3C4139.88 2061.75 4245.29 2129.69 4324.21 2203.36C4282.52 2643.55 4093.44 3040.68 3806.98 3345.43C3751.59 3321.09 3696.53 3298.45 3641.79 3277.54C3878.78 2909.79 4006.66 2457.03 4008.55 2003.3Z" fill="#00B1CD"/>
<path d="M2110.81 1836.04C2120.19 1869.44 2140.92 1899.79 2171.85 1920.31C2257.47 1977.18 2343.82 2017.53 2430.25 2041.46C2427.03 2395.43 2404.27 2748.37 2370.81 3067.03C2211.63 3073.83 2054.61 3092.25 1899.37 3120.45C1853.38 2974.45 1812.35 2818.75 1778.21 2656.86C1799.79 2619.92 1812.95 2574.44 1815.11 2520.98C1817.25 2467.4 1803.98 2421.5 1780.85 2385.21C1807.5 2357.58 1830.52 2326.32 1844.54 2290C1863.14 2241.85 1862.95 2184.13 1834.33 2128.32C1808.36 2077.67 1766.06 2044.93 1719.17 2026.7C1718.28 1983.35 1711.52 1939.38 1697.73 1897.5C1840.32 1872.23 1978.09 1851.81 2110.81 1836.04Z" fill="#00B1CD"/>
<path d="M3338.53 1827.05C3567.85 1857.42 3765.15 1907.08 3928.66 1970.33C3932.52 2426.02 3804.15 2882.88 3563.8 3248.75C3414.27 3195.66 3267.15 3155.31 3122.1 3125.84C3124.6 3120.03 3127.3 3114.37 3129.76 3108.54C3292.71 2721.43 3361.57 2268.51 3338.53 1827.05Z" fill="#00B1CD"/>
<path d="M3147.77 1807.11C3185.26 1810.1 3222.01 1813.58 3258.04 1817.52C3282.58 2252.08 3215.11 2699.6 3056.03 3077.5C3051.33 3088.66 3046.25 3099.51 3041.4 3110.55C2865.63 3079.64 2692.87 3064.66 2522.75 3063.79C2499 3063.67 2475.37 3064.14 2451.73 3064.55C2484.26 2751.22 2506.29 2406.34 2510.01 2058.79C2706.83 2090.24 2902.96 2036.46 3090.56 1897.42C3121.29 1874.68 3140.61 1842.09 3147.77 1807.11Z" fill="#00B1CD"/>
<path d="M2996.26 1741.37C2991.1 1742.35 2986.18 1744.34 2981.79 1747.23C2743.01 1903.87 2521.88 1925.45 2292.69 1772.97C2288.31 1770.06 2283.41 1768.04 2278.25 1767.02C2273.1 1766.01 2267.79 1766.02 2262.64 1767.06C2257.49 1768.09 2252.59 1770.13 2248.23 1773.06C2243.87 1775.99 2240.13 1779.75 2237.22 1784.12C2231.34 1792.95 2229.22 1803.76 2231.31 1814.15C2233.4 1824.55 2239.54 1833.69 2248.37 1839.57C2501.37 2007.89 2769.65 1982.08 3025.67 1814.12C3030.07 1811.24 3033.85 1807.52 3036.81 1803.18C3039.76 1798.84 3041.83 1793.95 3042.9 1788.81C3043.97 1783.66 3044.01 1778.36 3043.03 1773.2C3042.05 1768.04 3040.06 1763.12 3037.18 1758.73C3034.3 1754.34 3030.58 1750.56 3026.23 1747.6C3021.89 1744.64 3017.01 1742.57 3011.86 1741.5C3006.72 1740.43 3001.42 1740.39 2996.26 1741.37Z" fill="#070922"/>
<path d="M2998.21 1706.8C3002.69 1706.59 3007.18 1706.8 3011.59 1707.48C3029.25 1710.11 3045.87 1719.57 3057.47 1735.25C3080.72 1766.68 3074.32 1809.91 3042.94 1833.12C2856.64 1971.22 2674.69 2018.73 2487.77 1976.05C2482.51 1973.44 2476.74 1972.01 2470.87 1971.87C2470.83 1971.87 2470.79 1971.87 2470.75 1971.87C2387.19 1950.38 2302.59 1911.04 2216.1 1853.59C2183.71 1832.1 2175.02 1789.07 2196.51 1756.66C2218.13 1724.12 2261.1 1715.48 2293.52 1737.05C2514.73 1883.85 2746.84 1878.25 2959.56 1720.66C2971.33 1711.93 2984.77 1707.38 2998.21 1706.76L2998.21 1706.8Z" fill="#FF9CAE"/>
<path d="M3132.51 1704.71C3153.66 1713.48 3174.71 1722.32 3195.68 1730.84C3178.05 1729.25 3160.29 1727.76 3142.36 1726.39C3139.72 1718.97 3136.37 1711.75 3132.51 1704.71Z" fill="#00B1CD"/>
<path d="M2650.25 1487.56C2650.08 1489.34 2649.96 1491.17 2649.76 1492.93C2641.08 1568.87 2608.72 1622.79 2560.58 1647.81C2512.43 1672.84 2449.71 1668.33 2382.57 1631.8C2377.72 1629.16 2372.88 1626.32 2368.04 1623.36C2468.21 1611.77 2564.41 1569.68 2650.25 1487.56Z" fill="white"/>
<path d="M2725.87 1357.95C2858.41 1401.14 3059.37 1469.04 3182.18 1522.46C3281.19 1565.51 3371.27 1604.15 3439.99 1635.51C3474.35 1651.19 3503.4 1665.08 3525.13 1676.5C3546.85 1687.93 3562.22 1698.58 3563.57 1699.84C3573.64 1709.29 3577.4 1729.31 3572.12 1739.06C3569.48 1743.94 3565.71 1748.42 3553.76 1752.11C3541.82 1755.8 3521.09 1757.45 3490.23 1750.86C3429.63 1737.85 3258.2 1670.98 3109.23 1608.46C2960.24 1545.92 2828.9 1487.17 2828.9 1487.17C2824.1 1485.02 2818.93 1483.84 2813.68 1483.69C2808.43 1483.55 2803.2 1484.44 2798.29 1486.31C2793.39 1488.18 2788.9 1491.01 2785.08 1494.61C2781.26 1498.22 2778.19 1502.55 2776.05 1507.34C2771.72 1517.03 2771.41 1528.03 2775.2 1537.94C2778.98 1547.84 2786.54 1555.84 2796.22 1560.18C2796.22 1560.18 2866.34 1591.5 2961.34 1632.44C2943.96 1637.18 2927.17 1645.12 2911.91 1656.45C2764.04 1765.99 2622.76 1793.87 2474.37 1740.66C2516.04 1742.82 2557.38 1735.26 2595.68 1715.35C2676.64 1673.27 2720.82 1588.77 2731.52 1495.21C2736.5 1451.64 2734.57 1405.28 2725.87 1357.95Z" fill="#00B1CD"/>
<path d="M3050.85 1198.95C3048.65 1268.22 3029.75 1327.73 2999.89 1366.37C2966.99 1354.62 2934.2 1343.23 2901.85 1332.17C2958.03 1299.13 3008.86 1255.74 3050.85 1198.95Z" fill="white"/>
<path d="M1108.72 1146.39C1112.42 1146.49 1116.25 1146.91 1120.26 1147.72C1136.33 1150.94 1155.53 1161.31 1174.11 1181.25C1211.26 1221.14 1244.13 1298.74 1241.61 1410.63C1239.16 1516.64 1238.3 1604.84 1237.96 1674.86C1126.68 1704.8 1045.2 1762.44 1045.2 1762.44C1040.85 1765.39 1037.12 1769.16 1034.23 1773.55C1031.33 1777.93 1029.33 1782.85 1028.34 1788.01C1027.35 1793.17 1027.38 1798.47 1028.44 1803.62C1029.49 1808.77 1031.55 1813.66 1034.5 1818.01C1040.45 1826.79 1049.65 1832.85 1060.06 1834.85C1070.48 1836.86 1081.27 1834.64 1090.05 1828.69C1090.05 1828.69 1310.12 1687.76 1475.52 1759.47C1586.44 1807.69 1632.39 1904.03 1638.64 2008.56C1623.38 2007.11 1608.01 2006.59 1592.67 2006.82C1561.73 2007.29 1530.91 2010.78 1501.26 2015.82C1382.65 2035.97 1280.28 2082.85 1280.28 2082.85C1275.5 2085.02 1271.19 2088.12 1267.6 2091.95C1264.01 2095.79 1261.22 2100.3 1259.37 2105.22C1257.52 2110.14 1256.66 2115.37 1256.84 2120.62C1257.02 2125.87 1258.23 2131.04 1260.4 2135.82C1262.57 2140.6 1265.67 2144.91 1269.51 2148.5C1273.34 2152.08 1277.85 2154.88 1282.77 2156.72C1287.69 2158.57 1292.92 2159.42 1298.17 2159.25C1303.42 2159.07 1308.59 2157.86 1313.37 2155.68C1313.37 2155.68 1408.87 2112.66 1514.66 2094.69C1567.55 2085.7 1622.35 2083.5 1666.32 2093.87C1710.28 2104.23 1742.26 2124.12 1763.13 2164.82C1782.51 2202.61 1781.57 2230.99 1769.91 2261.17C1761.45 2283.09 1745.66 2305.59 1725.32 2327.31C1683.35 2297.28 1633.59 2281.71 1585.48 2273.11C1557.89 2268.17 1530.46 2265.55 1504.85 2264.4C1428.02 2260.93 1367.45 2270.65 1367.45 2270.65C1356.97 2272.26 1347.55 2277.98 1341.28 2286.53C1335.01 2295.09 1332.4 2305.79 1334.01 2316.27C1335.63 2326.75 1341.35 2336.17 1349.9 2342.44C1358.46 2348.71 1369.15 2351.32 1379.64 2349.71C1379.64 2349.71 1478.22 2335.19 1571.4 2351.86C1617.98 2360.19 1661.68 2376.43 1690.69 2401.74C1719.7 2427.05 1737.51 2459.57 1735.18 2517.77C1732.74 2578.39 1715.07 2616.07 1689.03 2643.46C1662.99 2670.84 1626.1 2688.67 1581.77 2699.41C1493.1 2720.91 1379.64 2711.33 1298.23 2708.5C1149.43 2703.42 953.538 2696.42 928.486 2695.53C925.536 2691.34 922.513 2687.21 919.501 2683.15C905.212 2663.85 888.277 2645.66 873.701 2629.69C859.124 2613.71 846.538 2598.35 844.638 2595.08C839.315 2585.9 830.564 2579.22 820.312 2576.49C810.06 2573.77 799.147 2575.23 789.97 2580.55C780.794 2585.87 774.106 2594.62 771.381 2604.87C768.656 2615.12 770.117 2626.04 775.439 2635.22C786.039 2653.49 799.803 2667.4 814.599 2683.61C829.395 2699.83 844.858 2716.79 855.205 2730.76C856.904 2733.06 857.162 2734.33 858.408 2736.45C822.422 2737.5 779.542 2713.28 738.544 2665.14C694.697 2613.65 656.924 2539.89 637.138 2470.06C605.336 2358 589.345 2245.6 587.919 2151.74C586.492 2057.88 601.969 1981.83 621.572 1949.16C631.071 1933.35 637.752 1929.45 639.443 1928.61C643.375 1932.14 651.072 1952.72 647.431 1962.87C645.659 1967.82 644.876 1973.06 645.131 1978.31C645.386 1983.56 646.672 1988.7 648.916 1993.45C651.159 1998.2 654.317 2002.46 658.208 2005.99C662.098 2009.52 666.646 2012.25 671.591 2014.02C676.536 2015.8 681.784 2016.58 687.031 2016.32C692.278 2016.07 697.422 2014.78 702.172 2012.54C706.922 2010.3 711.182 2007.14 714.711 2003.25C718.241 1999.36 720.972 1994.81 722.744 1989.86C725.646 1981.77 727.57 1973.63 728.681 1965.55C807.704 1917.65 924.218 1814.95 947.041 1627.32C963.211 1493.87 977.725 1386.17 998.232 1306.95C1018.74 1227.73 1044.96 1179.99 1077.47 1156.78C1087.74 1149.44 1097.65 1146.19 1108.74 1146.39H1108.72Z" fill="white"/>
<path d="M3131.81 1119.96C3165.65 1225.88 3192.94 1335.95 3213.68 1448.93C3174.03 1431.69 3127.14 1413.23 3077.43 1394.65C3127.92 1322.59 3145.55 1224.38 3131.81 1119.96Z" fill="#00B1CD"/>
<path d="M5026.48 1041.43C5053.86 1042.22 5082.42 1059.55 5111.67 1105.49C5179.2 1211.64 5211.61 1420.34 5207.47 1615.86C5118.97 1624.71 5034.69 1679.07 4985.4 1775.7C4935.25 1874.09 4919.86 1956.45 4917.86 2015.88C4897.41 2028 4879.75 2042.75 4866.34 2062.11C4808.85 2145.21 4804.42 2296.59 4921.44 2408.61C4910.62 2434.74 4905.24 2463.48 4907.32 2493.24C4911.95 2559.72 4960.28 2625.99 5052.75 2658.85C5145.73 2691.9 5225.5 2673.99 5264.76 2623.36C5284.39 2598.05 5291.6 2562.29 5279.19 2531.07C5266.79 2499.86 5238.17 2476.53 5200.52 2463.16C5190.52 2459.62 5179.53 2460.18 5169.95 2464.74C5160.37 2469.3 5152.99 2477.48 5149.44 2487.48C5145.9 2497.48 5146.47 2508.48 5151.03 2518.05C5155.59 2527.63 5163.76 2535.01 5173.76 2538.55C5196.26 2546.54 5203.07 2556.19 5204.84 2560.63C5206.6 2565.06 5206.73 2567.64 5201.53 2574.34C5191.14 2587.74 5150.26 2608.6 5079.54 2583.46C5008.21 2558.11 4989.58 2523.02 4987.12 2487.68C4984.66 2452.33 5005.16 2411.6 5032.75 2389.67C5040.87 2383.23 5065.87 2374.14 5097.9 2370.29C5129.95 2366.45 5168.46 2366.28 5205.01 2368.03C5278.11 2371.53 5342.63 2382.3 5342.63 2382.3C5347.81 2383.17 5353.11 2383.02 5358.23 2381.84C5363.35 2380.66 5368.19 2378.48 5372.47 2375.43C5376.75 2372.38 5380.38 2368.52 5383.17 2364.07C5385.95 2359.61 5387.83 2354.65 5388.7 2349.47C5389.57 2344.29 5389.41 2338.99 5388.23 2333.87C5387.05 2328.75 5384.88 2323.91 5381.83 2319.63C5378.78 2315.36 5374.92 2311.72 5370.46 2308.93C5366.01 2306.15 5361.05 2304.27 5355.87 2303.4C5355.87 2303.4 5287.54 2291.88 5208.86 2288.11C5189.19 2287.17 5168.83 2286.67 5148.51 2287.01C5128.18 2287.35 5107.88 2288.51 5088.35 2290.86C5049.29 2295.55 5012.72 2303.42 4982.98 2327.03C4977.49 2331.4 4972.23 2336.1 4967.18 2341.05C4886.99 2255.51 4901.58 2151.79 4932.14 2107.62C4939.98 2096.29 4970.15 2076.19 5012.14 2061.11C5054.13 2046.04 5106.53 2033.87 5157.14 2024.8C5258.36 2006.67 5351.83 2000.57 5351.83 2000.57C5357.07 2000.23 5362.2 1998.86 5366.91 1996.54C5371.62 1994.22 5375.84 1991 5379.3 1987.05C5382.77 1983.11 5385.43 1978.51 5387.12 1973.54C5388.81 1968.57 5389.51 1963.31 5389.17 1958.07C5388.83 1952.82 5387.46 1947.7 5385.14 1942.99C5382.82 1938.27 5379.59 1934.06 5375.65 1930.6C5371.7 1927.13 5367.1 1924.48 5362.13 1922.79C5357.16 1921.09 5351.89 1920.4 5346.65 1920.74C5346.65 1920.74 5249.59 1926.98 5143.04 1946.07C5095.5 1954.59 5046 1965.62 5001.18 1980.35C5007.22 1935.85 5022.38 1879.35 5056.69 1812.03C5101.21 1724.78 5171.29 1690.5 5243.88 1694.8C5303.19 1698.28 5364.93 1729.52 5412.18 1790.08C5458.23 1849.11 5483.01 1958.47 5484.37 2089.16C5485.72 2219.85 5465.45 2370.82 5433.1 2513.11C5402.99 2645.51 5348.5 2727.8 5278.16 2771.76C5207.81 2815.71 5117.07 2824.51 5004.35 2795.35C4856.17 2756.94 4772.57 2677.63 4720.67 2577.5C4668.78 2477.37 4651.17 2354.7 4647.8 2237.34C4647.06 2210.88 4649.41 2190.71 4653.37 2174.77C4653.37 2174.73 4653.37 2174.69 4653.37 2174.65C4658.76 2153.03 4667.25 2139.43 4675.97 2130.6C4679.02 2127.51 4682.33 2124.94 4685.75 2122.61C4679.23 2231.23 4682.75 2318.08 4682.75 2318.08C4683.18 2328.68 4687.81 2338.67 4695.61 2345.86C4703.41 2353.04 4713.75 2356.84 4724.35 2356.4C4729.6 2356.19 4734.75 2354.94 4739.52 2352.73C4744.28 2350.52 4748.57 2347.4 4752.13 2343.53C4755.69 2339.67 4758.45 2335.14 4760.26 2330.21C4762.07 2325.27 4762.88 2320.03 4762.67 2314.78C4762.67 2314.78 4758.02 2200.24 4769.64 2072.65C4778.04 1979.91 4796.14 1880.36 4826.14 1819.04C4915.63 1636.12 4897.87 1380.46 4908.23 1199.88C4912.91 1119.18 4951.8 1066.5 4989.91 1049.43C5001.82 1044.1 5014.03 1041.04 5026.48 1041.4V1041.43Z" fill="white"/>
<path d="M2305.87 1006.04C2339.03 1006.76 2375.39 1017.16 2413.16 1037.72C2480.3 1074.25 2547.61 1142.4 2594.48 1232.58C2619.27 1280.27 2635.65 1329.07 2644.37 1375.72C2637.66 1384.15 2630.91 1392.17 2624.13 1399.88C2568.2 1228.29 2384.11 1159.19 2351.32 1296.78C2348.42 1308.88 2346.52 1320.67 2345.42 1332.17C2374.42 1342.47 2403.93 1345.98 2434.13 1338.58C2408.83 1360.48 2378.63 1371.28 2345.13 1374.98C2350.62 1440.87 2382.8 1494.67 2417.73 1534.67C2372.54 1546.37 2325.52 1549.29 2276.28 1545.68C2248.34 1514.62 2222.68 1478.1 2201.28 1436.93C2154.41 1346.75 2137.29 1252.53 2145.97 1176.58C2154.65 1100.64 2187.02 1046.74 2235.17 1021.72C2256.23 1010.77 2280.08 1005.48 2305.87 1006.04Z" fill="white"/>
<path d="M1398.47 797.227C1486.78 812.394 1578.72 821.872 1672.77 826.445C1606.4 1114.33 1581.71 1424.16 1588.96 1735.61C1565.39 1716.31 1538.32 1699.54 1507.37 1686.09C1452.32 1662.22 1395.93 1655.07 1342.28 1657.75C1334.15 1658.16 1326.1 1658.85 1318.12 1659.69C1318.53 1592.07 1319.36 1510.67 1321.63 1412.48C1324.44 1287.51 1289.99 1191.42 1236.69 1131.37C1282.39 1017.62 1336.35 905.935 1398.51 797.246L1398.47 797.227Z" fill="#00B1CD"/>
<path d="M2337.69 789.805C2346.63 836.798 2354.85 884.827 2362.37 933.945C2307.11 922.821 2250.92 927.75 2200.07 954.18C2119.1 996.262 2074.92 1080.72 2064.23 1174.28C2053.54 1267.83 2074.23 1374.23 2126.9 1475.59C2162.44 1543.95 2208.25 1601.67 2259.66 1645.84C2209.46 1644.39 2159.46 1667.85 2129.83 1712.46C2120.85 1726.01 2114.48 1740.54 2110.4 1755.49C1969.65 1772.03 1823.42 1793.71 1671.94 1820.78C1657.61 1479.7 1681.41 1139.7 1754.89 829.102C1947.39 832.77 2146.09 817.536 2337.69 789.805Z" fill="#00B1CD"/>
<path d="M2741.45 759.121C2779.38 759.121 2821.06 773.606 2863.19 803.066C2924.47 845.917 2982.52 919.553 3018.23 1012.34C3024.73 1029.22 3030 1046.06 3034.5 1062.81C2928.66 961.678 2781.81 937.712 2757.43 1066.68C2752.43 1092.88 2751.82 1118.37 2754.62 1142.77C2777.52 1147.27 2799.93 1144.48 2821.43 1130.78C2806.13 1160.28 2785.63 1175.37 2761.63 1180.47C2771.91 1220.65 2790.34 1257.26 2811.12 1288.95C2805.59 1291.37 2799.98 1293.72 2794.32 1296C2757.77 1283.94 2727.89 1274.35 2700.44 1265.55C2691.62 1241.55 2681.12 1217.6 2668.82 1193.93C2645.88 1149.79 2618.68 1110.08 2588.45 1075.59C2574.68 1001.39 2579.26 931.317 2598.13 877.305C2617.79 821.027 2650.5 784.113 2692.35 768.008C2707.73 762.089 2724.21 759.113 2741.45 759.121Z" fill="white"/>
<path d="M2589.43 745.586C2557.96 775.915 2534.5 814.838 2519.48 857.812C2504.95 899.423 2497.78 945.489 2497.57 993.867C2484.7 984.938 2471.6 976.745 2458.27 969.492C2454.89 967.652 2451.46 965.948 2448.04 964.219C2438.89 900.323 2428.39 838.256 2416.96 777.5C2429.21 775.493 2441.59 773.663 2453.76 771.562C2499.75 763.621 2544.86 754.793 2589.43 745.586Z" fill="#00B1CD"/>
<path d="M1091.73 713.749C1161.96 741.643 1237.03 763.818 1315.6 781.092C1260.9 878.91 1212.71 979.103 1170.83 1080.94C1159.57 1075.72 1147.95 1071.71 1135.99 1069.31C1127.04 1067.52 1117.95 1066.64 1108.84 1066.68V1066.58C1081.51 1066.7 1054.15 1075.07 1030.97 1091.62C974.383 1132.01 943.34 1199.69 920.773 1286.87C898.206 1374.05 883.821 1483.7 867.59 1617.65C850.169 1760.87 770.764 1841.26 707.473 1884.33C702.263 1877.59 696.2 1871.39 689.309 1865.86C688.459 1865.18 687.51 1864.56 686.613 1863.9C705.241 1472.1 832.413 1076.67 1091.71 713.746L1091.73 713.749Z" fill="#00B1CD"/>
<path d="M1001.49 671.484C1003.15 673.233 1004.96 674.827 1006.9 676.25C1010.34 677.952 1013.9 679.521 1017.37 681.191C757.121 1051.22 626.986 1455.13 607.021 1855.14C600.997 1857.84 595.296 1861.23 589.892 1865.21C577.548 1799.55 605.713 1730.55 605.713 1730.55C607.863 1725.75 609.051 1720.59 609.204 1715.33C609.357 1710.08 608.474 1704.86 606.606 1699.95C604.738 1695.04 601.92 1690.54 598.315 1686.72C594.71 1682.9 590.388 1679.83 585.595 1677.68C580.802 1675.53 575.632 1674.34 570.381 1674.19C565.129 1674.04 559.899 1674.93 554.99 1676.8C545.079 1680.57 537.069 1688.12 532.724 1697.79C532.724 1697.79 469.049 1830.66 534.638 1946.27C513.856 2001.06 506.683 2071.5 507.92 2152.93C509.469 2254.82 526.469 2373.14 560.166 2491.88C583.081 2572.74 624.403 2654.51 677.627 2717.01C688.154 2729.37 699.301 2741.1 710.986 2751.93C593.251 2772.45 461.616 2749.54 349.716 2678.36C211.198 2590.24 100.928 2429.59 82.0212 2178.77C46.0172 1701.71 507.646 1511.29 507.646 1511.29C508.985 1510.68 510.289 1509.99 511.552 1509.24C516.186 1506.66 520.262 1503.2 523.545 1499.04C526.827 1494.87 529.251 1490.1 530.673 1485C619.297 1175.12 783.363 897.038 1001.45 671.501L1001.49 671.484Z" fill="#00B1CD"/>
<path d="M2925.73 660.742C2963.57 722.935 2998.33 788.233 3029.86 856.406C2996.78 809.246 2957.93 769.904 2915.64 740.332C2884.48 718.545 2850.73 702.016 2815.99 692.207C2853.71 682.094 2890.13 671.532 2925.73 660.742Z" fill="#00B1CD"/>
<path d="M1083.92 591.172C1077.68 599.236 1071.63 607.349 1065.52 615.449C1063.84 614.669 1062.17 613.872 1060.5 613.086C1068.25 605.723 1076.04 598.407 1083.92 591.172Z" fill="#00B1CD"/>
<path d="M3320.23 505.586C3710.25 867.479 3902.75 1370.57 3926.18 1883.03C3835.59 1849.77 3736.55 1820.61 3628.55 1796.45C3634 1790.46 3638.75 1784.02 3642.47 1777.15C3667.71 1730.53 3654.71 1675.66 3618.29 1641.5C3603.49 1627.62 3586.4 1618.33 3562.36 1605.68C3538.31 1593.04 3508.27 1578.72 3473.2 1562.71C3424.98 1540.71 3365.24 1514.71 3301.81 1487.19C3250.8 1177.64 3151.62 883.989 3004.27 635.84C3041.98 623.333 3078.65 610.611 3113.04 597.559C3192.59 567.37 3261.86 537.02 3320.23 505.586Z" fill="#00B1CD"/>
<path d="M3463.66 401.66C3987.5 748.77 4333.2 1343.29 4333.2 2018.5C4333.2 2046.93 4332.26 2075.14 4331.05 2103.28C4244.11 2032.44 4135.89 1969.07 4007.36 1914.96C3990.11 1377.35 3794.28 846.514 3391.48 462.93C3420.27 443.18 3444.49 422.834 3463.66 401.66Z" fill="#00B1CD"/>
<path d="M1756.63 187.715C1601.48 348.827 1468.43 523.509 1358.27 707.266C1281.77 691.924 1208.98 672.188 1141.65 647.129C1220.73 544.201 1310.19 443.994 1411.77 347.656C1520.38 283.583 1635.8 229.87 1756.63 187.715Z" fill="#00B1CD"/>
<path d="M3001.42 177.441C3139.62 222.986 3271.1 283.31 3393.61 357.148C3377.34 371.879 3355.27 388.091 3328.12 405.254C3230.46 320.469 3121.52 244.109 3001.42 177.441Z" fill="#00B1CD"/>
<path d="M1953.51 130.898C1836.16 314.098 1750.86 522.572 1692.26 746.074C1606.62 742.373 1523.19 734.409 1443.04 722.187C1571.69 512.918 1731.1 315.965 1920.38 138.633C1931.35 135.869 1942.46 133.473 1953.51 130.898Z" fill="#00B1CD"/>
<path d="M2099.41 102.754C2196.31 254.96 2269.77 465.344 2322.24 711.074C2141.86 736.729 1955.33 750.779 1775.29 748.301C1839.35 510.773 1934.16 292.754 2065.71 107.91C2076.88 105.998 2088.17 104.474 2099.41 102.754Z" fill="#00B1CD"/>
<path d="M2276.85 83.9453C2524.21 181.741 2725.55 360.896 2880.73 590.781C2747.02 630.269 2597.29 665.603 2440.15 692.734C2427.47 694.923 2414.57 696.828 2401.81 698.906C2351.78 461.338 2282.03 253.114 2186.46 91.4844C2216.39 88.2814 2246.52 85.7683 2276.85 83.9453Z" fill="#00B1CD"/>
<path d="M2457.9 81.582C2506.55 83.145 2554.83 86.1435 2602.51 91.2305C2859.03 174.649 3075.37 297.136 3254.33 447.539C3205.78 472.75 3148.69 498.474 3084.66 522.773C3045.93 537.47 3004.35 551.864 2961.01 565.918C2828.21 363.188 2660.88 195.299 2457.9 81.582Z" fill="#00B1CD"/>
</g>
<defs>
<clipPath id="clip0_102_1146">
<rect width="5564.43" height="5394.47" fill="white"/>
</clipPath>
</defs>
</svg>
