<?xml version="1.0" encoding="utf-8"?>
<!-- Generator: Adobe Illustrator 23.1.0, SVG Export Plug-In . SVG Version: 6.00 Build 0)  -->
<svg version="1.1" id="Layer_1" xmlns="http://www.w3.org/2000/svg" xmlns:xlink="http://www.w3.org/1999/xlink" x="0px" y="0px"
	 viewBox="0 0 65 65" style="enable-background:new 0 0 65 65;" xml:space="preserve">
<style type="text/css">
	.st0{fill:#7537F8;}
</style>
<path class="st0" d="M53.4,41.8c-5.1,0-9.3,3.2-10.9,7.7H21.3c-3.6,0-6.6-3-6.6-6.6s3-6.6,6.6-6.6h22.4c7.9,0,14.3-6.4,14.3-14.3
	S51.6,7.7,43.7,7.7H22.5C20.9,3.2,16.7,0,11.6,0C5.2,0,0,5.2,0,11.6s5.2,11.6,11.6,11.6c5.1,0,9.3-3.2,10.9-7.7h21.2
	c3.6,0,6.6,3,6.6,6.6s-3,6.6-6.6,6.6H21.3C13.4,28.6,7,35.1,7,42.9s6.4,14.3,14.3,14.3h21.2c1.6,4.5,5.9,7.7,10.9,7.7
	C59.8,65,65,59.8,65,53.4S59.8,41.8,53.4,41.8z M11.6,15.5c-2.1,0-3.9-1.7-3.9-3.9s1.7-3.9,3.9-3.9s3.9,1.7,3.9,3.9
	S13.7,15.5,11.6,15.5z"/>
</svg>
