<svg width="3614" height="4221" viewBox="0 0 3614 4221" fill="none" xmlns="http://www.w3.org/2000/svg">
<g clip-path="url(#clip0_102_1364)">
<path d="M3154.13 0.0632562C3146.24 -0.374421 3138.39 1.53907 3131.58 5.5613C3124.77 9.58353 3119.3 15.5336 3115.87 22.6609L2964.62 337.251L2793.74 692.661C2793.51 693.52 2793.31 694.386 2793.13 695.259C2792.21 697.116 2791.43 699.043 2790.81 701.02C2790.51 703.038 2790.37 705.075 2790.38 707.114C2790.15 707.967 2789.96 708.827 2789.79 709.692L2786.59 1136.63C2720.79 1233.84 2636.84 1333.81 2617.35 1356.86C2581.25 1352.76 2539.96 1358.44 2504.79 1387.41C2482.77 1405.54 2466.79 1436.55 2467.7 1470.73C2468.61 1504.91 2482.85 1540.82 2510.41 1582.17C2511.72 1584.14 2513.09 1586.01 2514.42 1587.95C2454.32 1608.11 2394.7 1607.01 2331.16 1587.07C2254.63 1563.07 2172.86 1509.62 2088.25 1429.59C2047.1 1270.23 2014.98 1105.65 1993.36 934.966C1992.7 929.718 1991 924.652 1988.36 920.066C1985.72 915.479 1982.2 911.464 1978 908.247C1973.8 905.03 1969.01 902.676 1963.89 901.325C1958.78 899.974 1953.45 899.652 1948.21 900.376L1721.8 931.743C1721.02 874.851 1711.23 814.612 1691.84 754.126C1661.42 659.263 1612.23 578.606 1552.8 520.686C1554.18 520.086 1555.54 519.489 1556.92 518.889C1594.3 502.66 1613.67 459.942 1601.25 421.135L1575.78 341.587C1568.74 319.559 1552.44 301.603 1531.21 292.466C1520.6 287.899 1509.23 285.736 1497.91 285.979C1486.6 286.219 1475.32 288.86 1464.91 293.872L730.492 647.466C692.55 665.733 675.134 711.46 691.351 750.337L711.156 797.837C719.388 817.598 735.22 833.266 755.082 841.274C766.427 845.851 778.55 847.613 790.531 846.782C785.46 912.681 793.252 984.658 814.828 1057.35L800.98 1059.26C763.662 930.146 644.305 835.63 503.656 835.63V835.53C333.301 835.53 194.223 974.607 194.223 1144.96C194.223 1297.07 304.961 1424.23 450.121 1449.69C450.901 1457.62 451.594 1465.53 452.387 1473.46C278.905 1623.75 199.164 1870.02 155.941 2151.97C111.989 2438.7 105.262 2764.57 84.6328 3072.31C27.3588 3130.57 -1.75699 3188.18 0.0820136 3243.95C2.03801 3303.29 44.3056 3351.22 100.141 3373.4C105.912 3375.69 111.888 3377.74 117.973 3379.63C114.832 3444.85 111.259 3526.8 109.398 3606.86C107.238 3699.76 106.271 3780.93 114.242 3826.82C123.909 3882.47 151.011 3950.45 189.184 4012.85C227.357 4075.26 275.305 4132.76 338.539 4157.27C385.25 4175.37 435.381 4179.97 480.668 4164.55C515.154 4152.81 545.649 4127.48 564.32 4092.13C601.421 4097.67 635.707 4097.53 667.582 4090.88C742.124 4075.33 795.308 4018.5 821.43 3937.31C836.588 3931.99 851.514 3923.06 863.91 3910C882.687 3890.22 895.518 3862.89 902.797 3828.19C917.092 3760.02 912.468 3673.29 900.961 3590.59C898.442 3572.49 895.559 3554.8 892.445 3537.56C899.788 3539.99 907.678 3540.24 915.16 3538.28L977.348 3519.59L981.215 3685.51C966.975 3690.41 953.832 3698.42 942.973 3709.3C924.163 3728.06 913.656 3753.49 913.656 3779.96V3799.96C913.656 3826.43 924.163 3851.88 942.973 3870.64C949.388 3877.07 956.624 3882.45 964.379 3886.85C942.892 3956.93 927.601 4053.61 962.152 4150.93C962.198 4151.04 962.244 4151.14 962.291 4151.24C974.963 4185.98 1008.03 4209.59 1045.1 4210.13C1142.72 4212.14 1434.38 4217.04 1552.51 4219.04C1577.02 4219.57 1600.76 4209.95 1618.03 4192.53C1635.38 4175.13 1644.74 4151.47 1644.19 4127.03C1643.05 4084.1 1638.4 4022.27 1621 3961.65C1603.61 3901.04 1573.16 3838.73 1513.21 3805.17C1461.57 3776.33 1409.76 3765.18 1362.82 3765.09H1362.47C1362.14 3762.93 1361.79 3760.78 1361.32 3758.65L1356.38 3405.8L1639.25 3320.78L1647.53 3681.15C1606.41 3687.21 1573.52 3721.52 1570.65 3764C1569.78 3776.83 1568.84 3790.92 1567.96 3803.98C1566.27 3828.81 1574.97 3853.26 1591.98 3871.46C1609.03 3889.81 1632.96 3900.09 1657.74 3900.09H1659.75C1651.43 3971.22 1644.42 4066.12 1655.77 4144.94C1655.88 4145.7 1656.02 4146.46 1656.18 4147.22C1664.64 4188.73 1701.67 4218.94 1744.03 4218.94C1877.75 4219.24 2304.9 4219.21 2452.78 4219.21C2477.18 4219.21 2500.85 4209.32 2517.92 4191.42C2534.94 4173.55 2543.83 4149.51 2542.65 4124.91C2540.31 4080.37 2533.86 4014.97 2515.07 3949.43C2496.28 3883.88 2465.49 3816.55 2407.7 3773.21C2333.64 3717.72 2254.69 3695.13 2181.98 3693.51V3693.41C2128.94 3692.22 2079.3 3702.28 2037.22 3718.78C2033.3 3713.23 2028.75 3708.18 2023.72 3703.64V3205.3L2545.22 3048.54C2551.93 3046.53 2557.99 3042.79 2562.8 3037.7L2732.8 2857.7C2733.6 2856.74 2734.35 2855.75 2735.05 2854.72C2735.65 2853.97 2736.23 2853.2 2736.79 2852.41C2740.93 2846.22 2743.27 2838.98 2743.52 2831.53C2743.52 2830.61 2743.49 2829.68 2743.42 2828.76C2743.31 2825.81 2742.87 2822.88 2742.12 2820.03C2741.93 2819.18 2741.72 2818.33 2741.48 2817.49C2740.31 2813.96 2738.66 2810.62 2736.57 2807.55C2736.53 2807.46 2736.49 2807.38 2736.45 2807.3C2571.36 2571.57 2427.56 2324.01 2309.93 2061.55C2470.05 2123.76 2637.34 2097.97 2779.81 2036.65L2764.3 4099.33C2764.06 4131.28 2776.62 4162.04 2799.07 4184.76C2799.1 4184.8 2799.14 4184.84 2799.17 4184.88C2821.69 4207.52 2852.37 4220.27 2884.32 4220.27H3157.08C3220.96 4220.27 3274.22 4169.19 3276.98 4105.41L3383.27 1639.43C3435.14 1602.87 3482.32 1555.84 3511.1 1530.08C3511.7 1529.33 3512.28 1528.57 3512.82 1527.79C3513.2 1527.61 3513.58 1527.43 3513.95 1527.24C3513.95 1527.24 3654.97 1383.63 3601.55 1227.3C3590.84 1195.95 3572.72 1170.19 3548.72 1155.4C3564.75 1104.45 3574.47 1043.2 3550.73 985.112C3525.79 924.067 3475.28 884.818 3419.39 876.301C3418.31 876.141 3417.23 876.053 3416.16 875.913L3423.64 702.495V702.024C3423.7 700.729 3423.7 699.432 3423.64 698.137C3423.61 697.87 3423.58 697.605 3423.54 697.339C3423.43 695.864 3423.24 694.397 3422.97 692.944C3422.94 692.877 3422.91 692.81 3422.87 692.744C3422.6 691.333 3422.26 689.936 3421.84 688.562C3421.8 688.465 3421.77 688.37 3421.74 688.274C3421.7 688.227 3421.67 688.179 3421.64 688.132C3421.53 687.766 3421.41 687.401 3421.29 687.038L3302.55 348.933C3302.52 348.873 3302.49 348.812 3302.45 348.752L3189.47 27.053C3186.85 19.5926 3182.07 13.0771 3175.75 8.32864C3169.42 3.58015 3161.84 0.812215 3153.94 0.374536L3154.13 0.0632562ZM503.705 1060.04C530.477 1060.04 554.094 1072.26 569.603 1091.33L468.217 1105.38C458.579 1106.71 449.757 1111.51 443.405 1118.88C437.052 1126.25 433.604 1135.69 433.705 1145.41C433.865 1161.93 434.715 1178.65 435.131 1195.24C424.847 1181.22 418.705 1163.94 418.705 1145.04C418.705 1097.71 456.375 1060.04 503.705 1060.04ZM578.568 2702.27C605.475 2792.78 633.128 2882.23 661.732 2970.16C660.376 2969.13 659.034 2968 657.67 2967.06C632.334 2949.58 604.291 2940.4 582.768 2935.53C580.582 2856.66 578.04 2778.33 578.568 2702.27ZM700.853 3087.23C716.562 3133.07 732.614 3178.29 749.017 3222.9C724.938 3188.87 701.809 3157.39 680.971 3129.4C690.083 3115.07 696.706 3101.09 700.853 3087.23Z" fill="#070922"/>
<path d="M2844.94 4019.98H3200.58L3197.07 4101.68C3196.13 4123.5 3178.9 4140 3157.09 4140H2884.33C2873.67 4140 2863.47 4135.77 2855.95 4128.25C2848.4 4120.57 2844.25 4110.34 2844.33 4099.71L2844.94 4019.98Z" fill="#FF5345"/>
<path d="M1362.71 3844.83C1396.9 3844.73 1434.52 3852.73 1474.2 3874.89C1506.05 3892.74 1529.77 3933.53 1544.14 3983.6C1558.5 4033.64 1563.22 4090.04 1564.25 4128.91C1564.35 4131.63 1563.19 4134.31 1561.4 4136.1C1561.36 4136.15 1561.31 4136.19 1561.26 4136.24C1559.35 4138.17 1556.92 4139.15 1554.27 4139.09C1554.21 4139.09 1554.14 4139.09 1554.08 4139.09C1435.96 4137.09 1143.44 4132.18 1046.54 4130.18C1046.46 4130.18 1046.39 4130.18 1046.31 4130.18C1042.27 4130.08 1038.96 4127.73 1037.54 4123.91C1009.97 4045.95 1024.66 3960.64 1044.28 3899.99H1120.43C1072.2 3983.01 1073.75 4069.95 1073.75 4069.95C1073.75 4080.56 1077.97 4090.73 1085.47 4098.23C1092.97 4105.73 1103.14 4109.95 1113.75 4109.95C1124.36 4109.95 1134.53 4105.73 1142.03 4098.23C1149.54 4090.73 1153.75 4080.56 1153.75 4069.95C1153.75 4069.95 1156.41 3955.6 1230.29 3889.89C1245.68 3876.24 1283.78 3854.36 1329.73 3847.41C1340.31 3845.8 1351.32 3844.86 1362.71 3844.83Z" fill="#FF5345"/>
<path d="M2178.1 3773.4C2235.58 3774.31 2299.27 3791.68 2359.7 3836.96C2395.52 3863.82 2421.99 3914.74 2438.18 3971.21C2454.35 4027.64 2460.58 4087.96 2462.73 4128.71C2462.85 4131.5 2461.83 4134.22 2460.01 4136.14C2458.2 4138.03 2455.74 4139.12 2452.79 4139.12C2304.89 4139.12 1877.38 4139.13 1744.12 4138.83C1744.08 4138.83 1744.05 4138.83 1744.02 4138.83C1739.28 4138.83 1735.86 4135.81 1734.8 4131.33C1725.5 4064.09 1732.38 3968.72 1740.4 3899.99H1832.61C1825.03 3910.83 1819.91 3918.62 1819.91 3918.62C1814.24 3927.58 1812.35 3938.43 1814.67 3948.78C1817 3959.13 1823.34 3968.14 1832.3 3973.81C1841.26 3979.49 1852.1 3981.38 1862.46 3979.06C1872.81 3976.74 1881.81 3970.41 1887.49 3961.45C1887.49 3961.45 1910.04 3925.94 1944.74 3886.45C1968.21 3859.75 1997.08 3831.9 2025.36 3813.68C2025.43 3813.64 2025.5 3813.6 2025.56 3813.56C2027.92 3812.02 2030.66 3810.37 2033.81 3808.54C2069.36 3788.02 2120.62 3772.49 2178.1 3773.4Z" fill="#FF5345"/>
<path d="M1660.45 3760H1962.65C1938.12 3778.3 1916.33 3799.28 1897.16 3819.98H1657.73C1654.87 3819.98 1652.41 3818.89 1650.56 3816.9C1650.51 3816.84 1650.46 3816.79 1650.4 3816.74C1648.54 3814.74 1647.58 3812.03 1647.77 3809.3C1648.66 3796.16 1649.59 3782.06 1650.46 3769.3C1650.83 3763.75 1654.81 3760 1660.45 3760Z" fill="#FFB900"/>
<path d="M1013.71 3759.98H1263.71C1269.06 3759.98 1274.06 3762.06 1277.81 3765.82C1277.84 3765.86 1277.88 3765.9 1277.91 3765.94C1280.57 3768.59 1282.4 3772.02 1283.22 3775.73C1244.69 3786.05 1212.89 3802.37 1189.55 3819.99H1013.71C1008.36 3819.99 1003.36 3817.93 999.608 3814.17C999.568 3814.12 999.528 3814.09 999.488 3814.05C995.838 3810.41 993.707 3805.28 993.707 3799.98V3779.98C993.707 3774.68 995.838 3769.57 999.488 3765.94C999.528 3765.9 999.568 3765.86 999.608 3765.82C1003.36 3762.05 1008.36 3759.98 1013.71 3759.98Z" fill="#FFB900"/>
<path d="M277.031 3570.12C271.794 3569.68 266.522 3570.28 261.518 3571.88C256.513 3573.49 251.873 3576.06 247.863 3579.45C243.853 3582.85 240.551 3587 238.146 3591.67C235.741 3596.34 234.28 3601.44 233.847 3606.68C230.246 3649.97 221.59 3699.44 225.488 3747.48C227.437 3771.5 232.694 3796 246.445 3818.3C260.197 3840.6 283.268 3858.96 311.405 3868.05C316.404 3869.66 321.671 3870.28 326.908 3869.86C332.145 3869.44 337.25 3867.99 341.928 3865.6C346.606 3863.21 350.766 3859.92 354.172 3855.92C357.577 3851.92 360.161 3847.29 361.777 3842.29C365.036 3832.19 364.151 3821.22 359.321 3811.78C354.49 3802.33 346.107 3795.2 336.015 3791.93C323.458 3787.88 318.987 3783.52 314.55 3776.33C310.113 3769.13 306.537 3757.33 305.214 3741.02C302.567 3708.39 309.604 3661.02 313.573 3613.3C314.01 3608.07 313.411 3602.8 311.811 3597.79C310.21 3592.79 307.638 3588.15 304.245 3584.14C300.852 3580.13 296.703 3576.83 292.033 3574.42C287.363 3572.02 282.265 3570.55 277.031 3570.12Z" fill="#070922"/>
<path d="M388.532 3500.28C378.001 3499 367.394 3501.95 359.042 3508.5C350.691 3515.04 345.281 3524.63 344.001 3535.16C338.62 3579.37 326.556 3630.33 329.118 3681.78C331.68 3733.23 357.592 3790.38 417.692 3816.64C427.41 3820.89 438.416 3821.1 448.29 3817.23C458.165 3813.36 466.098 3805.73 470.349 3796.02C472.453 3791.21 473.588 3786.02 473.691 3780.77C473.793 3775.52 472.862 3770.3 470.947 3765.41C469.032 3760.52 466.17 3756.05 462.529 3752.27C458.887 3748.48 454.537 3745.45 449.724 3743.34C415.554 3728.41 410.751 3712.55 409.02 3677.8C407.29 3643.04 417.356 3594.61 423.415 3544.83C424.051 3539.61 423.654 3534.32 422.246 3529.26C420.837 3524.2 418.444 3519.46 415.205 3515.33C411.965 3511.19 407.943 3507.73 403.366 3505.15C398.79 3502.56 393.748 3500.91 388.532 3500.28Z" fill="#070922"/>
<path d="M1277.54 3491.08L1280.21 3681.47C1274.78 3680.56 1269.27 3679.98 1263.71 3679.98H1061.15L1058.88 3581.84C1124.08 3552.55 1204.93 3517.77 1277.54 3491.08Z" fill="#FFB900"/>
<path d="M1943.71 3309.55V3680H1727.52L1720.43 3372.04C1788.35 3351.78 1866.52 3329.39 1943.71 3309.57V3309.55Z" fill="#FFB900"/>
<path d="M579.508 3020.12C591.277 3023.69 603.901 3027.16 612.243 3032.91C623.611 3040.75 626.23 3044.28 626.051 3053.6C625.871 3062.91 618.407 3086.5 584.528 3122.64C577.276 3130.38 573.394 3140.68 573.734 3151.28C574.075 3161.88 578.61 3171.91 586.344 3179.16C591.451 3183.75 597.653 3186.95 604.354 3188.45C611.055 3189.95 618.03 3189.7 624.606 3187.72C648.673 3220.2 675.317 3256.62 701.11 3293.79C736.037 3344.13 767.487 3394.21 777.086 3416.08C791.75 3449.46 811.007 3524.23 821.774 3601.62C832.542 3679.02 835.061 3761.65 824.547 3811.78C819.421 3836.22 811.756 3848.83 805.934 3854.96C800.111 3861.1 795.983 3862.49 789.684 3863.17C777.086 3864.52 753.43 3852.93 750.465 3850.26C712.182 3815.8 676.093 3735.46 654.469 3664.57C632.844 3593.69 623.2 3533.68 623.2 3533.68C622.37 3528.49 620.526 3523.51 617.775 3519.04C615.023 3514.56 611.417 3510.68 607.162 3507.59C602.907 3504.51 598.088 3502.3 592.977 3501.08C587.867 3499.86 582.567 3499.66 577.379 3500.49C566.906 3502.17 557.529 3507.94 551.31 3516.53C545.091 3525.13 542.538 3535.84 544.215 3546.31C544.215 3546.31 554.571 3611.3 577.946 3687.91C601.322 3764.53 635.233 3854.19 696.95 3909.73C707.926 3919.61 721.677 3928.79 738.043 3935.1C719.483 3982.31 692.665 4003.97 651.286 4012.6C599.365 4023.44 514.632 4006.69 400.563 3953.71C395.798 3951.5 390.642 3950.25 385.392 3950.02C380.142 3949.8 374.9 3950.62 369.965 3952.42C365.029 3954.23 360.498 3956.98 356.63 3960.54C352.761 3964.1 349.631 3968.38 347.418 3973.15C342.951 3982.77 342.49 3993.77 346.134 4003.73C349.779 4013.7 357.23 4021.81 366.852 4026.27C408.002 4045.39 446.364 4060.83 482.379 4072.37C474.926 4080.04 465.821 4085.14 454.918 4088.85C432.223 4096.58 400.006 4095.3 367.497 4082.7C333.981 4069.71 290.595 4025.31 257.457 3971.14C224.32 3916.97 200.144 3853.69 193.102 3813.15C188.723 3787.94 187.261 3700.36 189.391 3608.73C191.145 3533.25 194.471 3456.2 197.497 3392.56C300.621 3396.15 428.636 3355.87 557.223 3262.35C561.472 3259.26 565.071 3255.36 567.814 3250.88C570.557 3246.4 572.392 3241.43 573.212 3236.24C574.032 3231.05 573.82 3225.75 572.592 3220.64C571.363 3215.53 569.141 3210.72 566.051 3206.47C562.962 3202.22 559.066 3198.62 554.586 3195.88C550.106 3193.13 545.129 3191.3 539.94 3190.48C534.751 3189.66 529.452 3189.87 524.345 3191.1C519.237 3192.33 514.421 3194.55 510.172 3197.64C353.352 3311.69 200.552 3327.2 129.723 3299.07C94.3081 3285 80.9502 3267.3 80.0942 3241.33C79.4942 3223.08 88.5493 3195.78 112.633 3163.01C137.901 3203.82 173.436 3231.26 213.766 3240.92C272.344 3254.96 333.418 3239.16 388.727 3212.19C444.038 3185.23 494.366 3146.11 530.973 3103.34C553.123 3077.47 570.843 3049.6 579.508 3020.12Z" fill="white"/>
<path d="M1888.88 1486.39L1671.97 1536.86C1695.24 1604.87 1718.83 1671.86 1742.65 1738.05L1941.15 1691.88C1921.75 1624.01 1904.39 1555.5 1888.88 1486.39ZM1593.65 1555.1L1395.35 1601.23C1415.42 1669.96 1436.08 1737.71 1457.36 1804.44L1664.18 1756.31C1640.4 1690.08 1616.86 1623.1 1593.65 1555.1ZM1317.32 1619.4L1098.57 1670.3C1111.3 1740.53 1124.93 1809.91 1139.45 1878.42L1379.21 1822.62C1357.98 1755.85 1337.35 1688.1 1317.32 1619.4ZM1020.58 1688.46L730.758 1755.9C745.036 1825.53 760.294 1894.52 776.559 1962.86L1061.52 1896.55C1046.98 1828.01 1033.34 1758.64 1020.58 1688.46ZM1964.08 1768.66L1770.07 1813.81C1773.94 1824.34 1777.7 1835.15 1781.58 1845.63C1802 1900.79 1822.64 1955.21 1843.47 2009.03L2031.3 1965.32C2006.95 1900.39 1984.58 1834.82 1964.08 1768.66ZM1691.58 1832.07L1482.14 1880.82C1504.07 1947.35 1526.57 2012.92 1549.72 2077.39L1764.84 2027.33C1745.24 1976.54 1725.77 1925.36 1706.54 1873.4C1701.5 1859.79 1696.59 1845.76 1691.58 1832.07ZM1403.9 1899.03L1156.5 1956.59C1160 1972.2 1163.41 1987.9 1167.01 2003.42C1179.05 2055.38 1191.73 2106.72 1204.86 2157.64L1471.3 2095.65C1453.61 2046.19 1436.2 1996.25 1419.23 1945.63C1414.06 1930.2 1409.01 1914.57 1403.9 1899.03ZM1078.59 1974.73L795.543 2040.59C812.436 2107.86 830.319 2174.47 849.234 2240.41L1126.99 2175.77C1113.86 2124.79 1101.12 2073.46 1089.08 2021.49C1085.49 2005.99 1082.09 1990.32 1078.59 1974.73ZM2060.64 2040.65L1873.22 2084.26C1897.61 2145.95 1922.29 2206.7 1947.24 2266.53L2139.35 2221.82C2111.34 2162 2085.12 2101.61 2060.64 2040.65ZM1794.21 2102.64L1577.42 2153.09C1590.82 2189.17 1604.34 2225.04 1618.14 2260.45C1628.04 2285.86 1638.09 2311.05 1648.2 2336.12L1868.04 2284.96C1843.15 2225.07 1818.53 2164.33 1794.21 2102.64ZM1498.88 2171.37L1225.37 2235C1236.5 2275.98 1247.86 2316.74 1259.72 2357.02C1266.13 2378.79 1272.75 2400.37 1279.37 2421.94L1569.37 2354.46C1560.72 2332.89 1552.09 2311.3 1543.59 2289.5C1528.41 2250.56 1513.57 2211.09 1498.88 2171.37ZM1147.55 2253.11L871.695 2317.31C890.539 2379.83 910.376 2441.69 931.129 2502.97L1201.32 2440.1C1182.5 2378.6 1164.66 2316.2 1147.55 2253.11ZM2175 2295.67L1978.45 2341.39C2000.57 2393.22 2022.9 2444.37 2045.46 2494.73C2048.49 2501.49 2051.61 2507.98 2054.64 2514.71L2257.93 2452.66C2228.82 2400.81 2201.23 2348.46 2175 2295.67ZM1899.37 2359.81L1678.98 2411.08C1706.29 2476.51 1734.35 2540.69 1763.12 2603.68L1977.54 2538.23C1951.2 2479.66 1925.09 2420.31 1899.37 2359.81ZM1600.02 2429.46L1303.51 2498.46C1324.79 2564.41 1346.98 2629.48 1370.35 2693.42C1373.66 2702.49 1377.13 2711.42 1380.48 2720.45L1685.89 2627.25C1656.48 2562.57 1627.88 2496.6 1600.02 2429.46ZM1225.48 2516.62L957.594 2578.95C986.669 2660.89 1017.48 2741.69 1050.15 2821.27L1303.82 2743.85C1300.98 2736.17 1298.03 2728.59 1295.21 2720.88C1274.95 2665.44 1255.48 2609.28 1236.77 2552.41C1232.89 2540.59 1229.3 2528.5 1225.48 2516.62ZM2298.77 2523.83L2088.34 2588.05C2115.49 2646.8 2142.94 2704.63 2170.74 2761.23L2401.73 2687.74C2365.69 2633.67 2331.43 2579.02 2298.77 2523.83ZM2010.8 2611.7L1797.16 2676.92C1825.4 2736.6 1854.32 2795.11 1883.92 2852.5L2093.61 2785.79C2065.69 2728.73 2038.04 2670.85 2010.8 2611.7ZM1719.78 2700.53L1408.98 2795.37C1433.28 2857.74 1458.64 2919.07 1485.04 2979.42L1806.64 2877.09C1777.01 2819.31 1748.02 2760.52 1719.78 2700.53ZM1332.22 2818.81L1081.11 2895.45C1107.99 2958.12 1136.02 3020.04 1165.25 3081.18L1408.41 3003.81C1391.34 2964.58 1374.56 2925.08 1358.36 2885.04C1349.49 2863.12 1340.83 2840.98 1332.22 2818.81Z" fill="white"/>
<path d="M623.316 2362.05C711.433 2693.26 822.718 3031.62 946.07 3373.56C949.499 3383.07 956.4 3390.92 965.386 3395.55C974.372 3400.18 984.776 3401.23 994.507 3398.5C1533.84 3247.21 2060.49 3089.29 2564 2919.65L2511.95 2974.77L1971.56 3137.21C1971.43 3137.25 1971.31 3137.29 1971.19 3137.33L926.893 3451.26C800.076 3160.78 694.687 2822.19 595.955 2475.49C602.644 2436.42 611.107 2398.29 623.316 2362.05Z" fill="#070922"/>
<path d="M1074.57 2280C1071.95 2279.95 1069.33 2280.16 1066.75 2280.61C1056.31 2282.46 1047.02 2288.37 1040.93 2297.06L1028.53 2314.77L998.433 2305.38C993.793 2303.93 988.817 2303.71 983.79 2304.74C978.762 2305.77 973.783 2308.02 969.134 2311.37C964.485 2314.72 960.259 2319.1 956.697 2324.26C953.136 2329.42 950.307 2335.27 948.375 2341.45C944.47 2353.95 944.447 2367.09 948.311 2377.99C952.175 2388.9 959.611 2396.67 968.98 2399.6L969.429 2399.74C964.313 2408.39 962.638 2418.64 964.737 2428.47C966.836 2438.29 972.555 2446.97 980.758 2452.77C985.061 2455.78 989.917 2457.92 995.047 2459.06C1000.18 2460.19 1005.48 2460.31 1010.65 2459.4C1015.83 2458.49 1020.77 2456.56 1025.2 2453.74C1029.63 2450.92 1033.47 2447.25 1036.48 2442.94L1049.25 2424.68L1088.98 2437.1C1093.62 2438.56 1098.59 2438.77 1103.62 2437.75C1108.65 2436.72 1113.63 2434.47 1118.28 2431.12C1122.93 2427.77 1127.15 2423.4 1130.71 2418.24C1134.28 2413.08 1137.1 2407.24 1139.04 2401.05C1140.97 2394.86 1141.98 2388.45 1141.99 2382.18C1142 2375.91 1141.02 2369.9 1139.11 2364.49C1137.2 2359.09 1134.38 2354.41 1130.84 2350.7C1127.29 2346.99 1123.07 2344.33 1118.43 2342.89L1108.45 2339.76C1113.37 2331.11 1114.89 2320.93 1112.7 2311.22C1110.52 2301.5 1104.79 2292.95 1096.64 2287.24C1090.16 2282.7 1082.48 2280.18 1074.57 2280Z" fill="#FF5345"/>
<path d="M1423.02 2214.73C1420.52 2214.59 1418.04 2214.68 1415.64 2215C1405.93 2216.28 1397.87 2221.2 1393.22 2228.67L1388 2237.07L1355.39 2229.49C1350.98 2228.47 1346.31 2228.76 1341.66 2230.35C1337 2231.94 1332.44 2234.79 1328.24 2238.74C1324.05 2242.69 1320.29 2247.67 1317.19 2253.38C1314.09 2259.1 1311.7 2265.44 1310.17 2272.05C1307.08 2285.38 1307.65 2298.99 1311.75 2309.88C1315.84 2320.77 1323.14 2328.04 1332.03 2330.11L1332.28 2330.21C1330.76 2337.31 1331.89 2345.09 1335.52 2352.38C1339.14 2359.67 1345.06 2366.1 1352.39 2370.71C1361.48 2376.35 1372.04 2378.8 1381.75 2377.51C1391.46 2376.22 1399.53 2371.3 1404.17 2363.83L1413.37 2349.04L1452.02 2358.03C1456.43 2359.05 1461.09 2358.76 1465.75 2357.17C1470.4 2355.59 1474.96 2352.74 1479.16 2348.79C1483.36 2344.84 1487.12 2339.87 1490.22 2334.15C1493.32 2328.44 1495.7 2322.1 1497.24 2315.49C1500.33 2302.15 1499.77 2288.54 1495.67 2277.65C1491.57 2266.75 1484.27 2259.47 1475.38 2257.4L1465.75 2255.18C1465.58 2248.92 1463.56 2242.54 1459.91 2236.68C1456.26 2230.82 1451.1 2225.7 1444.99 2221.86C1438.22 2217.65 1430.57 2215.18 1423.02 2214.77L1423.02 2214.73Z" fill="#FF5345"/>
<path d="M1753.67 2129.98C1751.04 2129.99 1748.43 2130.25 1745.86 2130.76C1735.46 2132.84 1726.31 2138.97 1720.43 2147.8L1710.02 2163.42L1691.6 2154.22C1686.9 2151.87 1681.78 2150.46 1676.54 2150.09C1671.3 2149.71 1666.04 2150.38 1661.05 2152.04C1650.99 2155.39 1642.67 2162.61 1637.93 2172.09C1635.58 2176.79 1634.17 2181.91 1633.8 2187.15C1633.43 2192.39 1634.09 2197.65 1635.75 2202.63C1637.41 2207.62 1640.04 2212.23 1643.48 2216.2C1646.93 2220.16 1651.12 2223.41 1655.82 2225.76L1665.29 2230.51L1660.43 2237.8C1654.54 2246.62 1652.41 2257.43 1654.49 2267.83C1656.57 2278.23 1662.69 2287.38 1671.52 2293.26C1680.35 2299.15 1691.15 2301.29 1701.55 2299.21C1711.95 2297.13 1721.1 2291 1726.99 2282.17L1737.4 2266.57L1755.82 2275.76C1760.51 2278.11 1765.63 2279.52 1770.87 2279.89C1776.11 2280.26 1781.37 2279.6 1786.36 2277.94C1791.34 2276.27 1795.95 2273.65 1799.92 2270.21C1803.89 2266.76 1807.14 2262.57 1809.49 2257.88C1814.23 2248.39 1815.01 2237.4 1811.65 2227.34C1808.3 2217.28 1801.08 2208.96 1791.6 2204.22L1782.12 2199.47L1786.99 2192.17C1792.87 2183.35 1795.01 2172.54 1792.93 2162.14C1790.85 2151.74 1784.72 2142.59 1775.89 2136.7C1769.31 2132.32 1761.58 2129.98 1753.67 2129.98Z" fill="#FF5345"/>
<path d="M992.457 2033.58C986.128 2033.44 980.602 2035.35 976.578 2039.07L948.473 2065L905.465 2051.76C900.444 2050.22 895.167 2049.67 889.937 2050.17C884.707 2050.66 879.627 2052.18 874.984 2054.64C870.341 2057.09 866.228 2060.44 862.879 2064.49C859.53 2068.54 857.01 2073.21 855.465 2078.23C853.919 2083.25 853.378 2088.52 853.873 2093.76C854.368 2098.99 855.889 2104.07 858.348 2108.71C860.807 2113.35 864.157 2117.47 868.206 2120.82C872.256 2124.16 876.926 2126.68 881.949 2128.23L882.279 2128.33C879.569 2133.98 879.186 2141.14 881.185 2148.72C883.184 2156.3 887.457 2163.89 893.353 2170.32C896.916 2174.18 900.972 2177.51 905.287 2180.14C909.601 2182.76 914.09 2184.61 918.499 2185.6C922.908 2186.58 927.15 2186.68 930.982 2185.87C934.815 2185.07 938.161 2183.39 940.833 2180.92L968.939 2154.99L1011.95 2168.23C1022.08 2171.34 1033.04 2170.31 1042.42 2165.34C1051.79 2160.38 1058.81 2151.9 1061.93 2141.76C1063.47 2136.74 1064.01 2131.47 1063.52 2126.24C1063.03 2121.01 1061.51 2115.93 1059.05 2111.28C1056.59 2106.64 1053.25 2102.52 1049.2 2099.18C1045.15 2095.83 1040.48 2093.31 1035.46 2091.76H1035.3C1037.99 2086.09 1038.35 2078.91 1036.32 2071.31C1034.29 2063.72 1029.98 2056.13 1024.05 2049.71C1016.86 2041.92 1007.82 2036.43 998.917 2034.44C996.716 2033.94 994.55 2033.67 992.452 2033.62L992.457 2033.58Z" fill="#FF5345"/>
<path d="M1320.72 1947.5C1311.52 1947.5 1303.98 1950.93 1299.76 1957.02L1295.38 1963.34L1261.3 1950.57C1256.68 1948.84 1251.65 1948.34 1246.5 1949.1C1241.35 1949.85 1236.17 1951.85 1231.27 1954.99C1226.37 1958.12 1221.84 1962.32 1217.94 1967.35C1214.03 1972.38 1210.84 1978.14 1208.53 1984.3C1203.87 1996.74 1203.1 2010.06 1206.39 2021.33C1209.69 2032.6 1216.78 2040.9 1226.11 2044.4L1236.75 2048.38C1233.15 2054.55 1233.01 2062.61 1236.35 2070.9C1239.69 2079.19 1246.26 2087.09 1254.72 2092.97C1259.08 2095.99 1263.8 2098.38 1268.63 2100.02C1273.45 2101.65 1278.28 2102.49 1282.84 2102.49C1287.4 2102.49 1291.6 2101.65 1295.19 2100.02C1298.79 2098.38 1301.71 2095.99 1303.8 2092.97L1314.47 2077.56L1346.11 2089.42C1350.73 2091.15 1355.76 2091.66 1360.91 2090.9C1366.07 2090.15 1371.24 2088.15 1376.15 2085.02C1381.05 2081.89 1385.58 2077.69 1389.49 2072.66C1393.39 2067.63 1396.59 2061.87 1398.9 2055.71C1401.21 2049.55 1402.59 2043.1 1402.96 2036.74C1403.32 2030.39 1402.67 2024.24 1401.04 2018.66C1399.4 2013.08 1396.82 2008.17 1393.43 2004.21C1390.05 2000.25 1385.93 1997.32 1381.3 1995.59L1369.7 1991.23C1369.81 1985.41 1367.9 1979.1 1364.2 1973.04C1360.51 1966.98 1355.18 1961.43 1348.84 1957.04C1344.48 1954.02 1339.76 1951.62 1334.93 1949.99C1330.1 1948.36 1325.27 1947.52 1320.72 1947.52V1947.5Z" fill="#FF5345"/>
<path d="M1646.79 1874.9C1644.3 1874.71 1641.84 1874.75 1639.45 1875C1629.76 1876.04 1621.66 1880.71 1616.91 1887.99L1612.1 1895.36L1592.87 1884.87C1588.25 1882.35 1583.19 1880.77 1577.96 1880.22C1572.74 1879.66 1567.46 1880.14 1562.42 1881.63C1552.24 1884.62 1543.67 1891.53 1538.59 1900.84C1533.51 1910.16 1532.34 1921.1 1535.33 1931.28C1538.33 1941.45 1545.24 1950.02 1554.55 1955.1L1568.32 1962.62L1559.94 1975.49C1557.58 1979.1 1556.13 1983.24 1555.65 1987.69C1555.17 1992.13 1555.69 1996.78 1557.16 2001.37C1558.63 2005.97 1561.04 2010.42 1564.23 2014.47C1567.43 2018.52 1571.36 2022.1 1575.8 2024.99C1580.23 2027.87 1585.09 2030.02 1590.09 2031.31C1595.08 2032.59 1600.13 2032.99 1604.93 2032.48C1609.73 2031.97 1614.19 2030.56 1618.06 2028.33C1621.93 2026.1 1625.13 2023.09 1627.48 2019.48L1639.29 2001.33L1664.55 2015.1C1669.16 2017.62 1674.22 2019.2 1679.44 2019.76C1684.67 2020.32 1689.95 2019.85 1694.99 2018.37C1700.03 2016.88 1704.73 2014.42 1708.82 2011.13C1712.91 2007.83 1716.31 2003.76 1718.82 1999.15C1721.34 1994.53 1722.92 1989.47 1723.48 1984.25C1724.04 1979.02 1723.57 1973.74 1722.09 1968.7C1720.61 1963.66 1718.14 1958.96 1714.85 1954.87C1711.55 1950.78 1707.48 1947.38 1702.87 1944.87L1683.08 1934.07L1684.45 1931.98C1689.19 1924.69 1690.19 1915.38 1687.22 1906.1C1684.24 1896.83 1677.54 1888.34 1668.59 1882.5C1661.91 1878.15 1654.32 1875.5 1646.79 1874.9Z" fill="#FF5345"/>
<path d="M1911.99 1819.32C1910.05 1819.29 1908.16 1819.39 1906.34 1819.61C1901.79 1820.18 1897.72 1821.53 1894.38 1823.59C1891.05 1825.64 1888.5 1828.36 1886.89 1831.58L1886.77 1831.83L1871.69 1824.98C1866.97 1822.82 1861.83 1821.72 1856.56 1821.72C1851.29 1821.72 1846 1822.82 1840.99 1824.98C1830.88 1829.33 1822.52 1837.67 1817.75 1848.16C1812.98 1858.65 1812.19 1870.43 1815.56 1880.91C1818.93 1891.4 1826.18 1899.72 1835.72 1904.06L1847.88 1909.59L1846.89 1911.56C1843.64 1918.07 1844.39 1926.24 1848.99 1934.29C1853.59 1942.34 1861.66 1949.61 1871.42 1954.49C1881.18 1959.37 1891.83 1961.46 1901.03 1960.31C1910.23 1959.16 1917.22 1954.86 1920.48 1948.36L1922.82 1943.65L1935.71 1949.51C1940.44 1951.66 1945.58 1952.76 1950.84 1952.75C1956.11 1952.75 1961.4 1951.64 1966.41 1949.49C1971.42 1947.33 1976.05 1944.18 1980.04 1940.2C1984.03 1936.22 1987.3 1931.5 1989.66 1926.3C1994.43 1915.82 1995.21 1904.03 1991.84 1893.55C1988.47 1883.07 1981.22 1874.74 1971.69 1870.41L1961.4 1865.72C1963.49 1859.23 1962.05 1851.52 1957.35 1844.08C1952.65 1836.64 1945.03 1830 1935.95 1825.43C1928.18 1821.54 1919.79 1819.39 1911.98 1819.29L1911.99 1819.32Z" fill="#FF5345"/>
<path d="M947.165 1725.9C936.59 1726.66 926.747 1731.58 919.802 1739.59L883.005 1782.05L835.759 1767.13C825.648 1763.94 814.68 1764.89 805.271 1769.78C795.861 1774.67 788.78 1783.09 785.583 1793.21C782.388 1803.32 783.34 1814.28 788.23 1823.69C793.119 1833.1 801.546 1840.18 811.657 1843.38L825.954 1847.89L817.165 1858.03C810.227 1866.04 806.756 1876.49 807.514 1887.06C808.272 1897.63 813.198 1907.47 821.208 1914.42C829.222 1921.36 839.666 1924.84 850.244 1924.09C860.822 1923.33 870.668 1918.41 877.614 1910.39L909.021 1874.16L961.657 1890.8C971.769 1894 982.736 1893.05 992.146 1888.16C1001.56 1883.27 1008.64 1874.84 1011.83 1864.73C1013.42 1859.72 1014 1854.45 1013.55 1849.22C1013.1 1843.98 1011.62 1838.89 1009.2 1834.23C1006.78 1829.57 1003.46 1825.43 999.436 1822.05C995.414 1818.67 990.768 1816.12 985.759 1814.53L966.071 1808.32L980.251 1791.96C987.189 1783.94 990.66 1773.5 989.902 1762.92C989.144 1752.35 984.219 1742.51 976.208 1735.57C972.239 1732.13 967.632 1729.51 962.649 1727.85C957.665 1726.19 952.404 1725.53 947.165 1725.9Z" fill="#FF5345"/>
<path d="M3205.45 1673.64C3229.71 1687.83 3258.64 1691.34 3283.73 1686.68C3289.72 1685.57 3295.56 1684.02 3301.34 1682.29L3204.04 3939.98H3135.25L3205.45 1673.64Z" fill="#2F6DF6"/>
<path d="M1286.13 1660.06C1283.51 1659.9 1280.89 1660 1278.3 1660.35C1273.09 1661.06 1268.08 1662.79 1263.54 1665.43C1259 1668.08 1255.03 1671.6 1251.85 1675.78L1235.91 1696.76L1207.81 1680.35C1198.69 1675.04 1187.41 1674.12 1176.44 1677.79C1165.48 1681.46 1155.73 1689.42 1149.33 1699.92C1146.16 1705.13 1143.91 1710.8 1142.71 1716.62C1141.51 1722.43 1141.39 1728.28 1142.34 1733.83C1143.29 1739.37 1145.3 1744.5 1148.26 1748.93C1151.22 1753.36 1155.07 1756.99 1159.59 1759.63L1179.35 1771.15L1171.85 1781.03C1168.67 1785.22 1166.35 1789.99 1165.02 1795.07C1163.68 1800.15 1163.36 1805.44 1164.07 1810.65C1164.78 1815.85 1166.51 1820.87 1169.16 1825.41C1171.81 1829.94 1175.32 1833.91 1179.51 1837.09C1187.95 1843.5 1198.6 1846.3 1209.11 1844.87C1219.62 1843.44 1229.12 1837.89 1235.54 1829.45L1248.98 1811.76L1279.59 1829.61C1284.1 1832.25 1289.19 1833.83 1294.58 1834.27C1299.96 1834.72 1305.53 1834.01 1310.96 1832.19C1316.4 1830.37 1321.59 1827.48 1326.24 1823.68C1330.89 1819.88 1334.92 1815.24 1338.08 1810.04C1344.47 1799.53 1346.98 1787.34 1345.05 1776.15C1343.13 1764.96 1336.92 1755.69 1327.81 1750.37L1305.52 1737.36L1315.54 1724.2C1318.72 1720.02 1321.05 1715.25 1322.38 1710.17C1323.72 1705.09 1324.05 1699.79 1323.34 1694.59C1322.63 1689.38 1320.9 1684.37 1318.25 1679.83C1315.6 1675.29 1312.09 1671.32 1307.91 1668.14C1301.61 1663.35 1294.03 1660.54 1286.13 1660.06Z" fill="#FF5345"/>
<path d="M2262.46 1646.76C2277.34 1653.08 2292.25 1658.7 2307.24 1663.4C2393.22 1690.37 2481.48 1688.45 2565.6 1653.99C2633.41 1731.76 2712.55 1790.23 2781.36 1832.48L2780.48 1948.23C2664.83 2004.6 2534.53 2035.58 2406.22 2007.45C2343.83 1873.37 2296.9 1754.08 2262.46 1646.76Z" fill="white"/>
<path d="M1498.3 1603.05C1492.88 1602.45 1487.14 1603.09 1481.4 1604.92C1469.81 1608.64 1458.93 1617.02 1451.17 1628.24C1443.4 1639.46 1439.38 1652.6 1439.99 1664.75C1440.61 1676.91 1445.8 1687.1 1454.43 1693.07L1464.6 1700.1L1460.89 1704.63C1455.39 1711.36 1453.38 1720.48 1455.3 1730C1457.23 1739.51 1462.93 1748.63 1471.15 1755.35C1479.37 1762.08 1489.44 1765.85 1499.14 1765.85C1508.84 1765.85 1517.38 1762.08 1522.89 1755.35L1530.66 1745.86L1554.43 1762.31C1563.06 1768.28 1574.42 1769.55 1586.01 1765.84C1597.6 1762.12 1608.48 1753.74 1616.24 1742.52C1624 1731.3 1628.02 1718.18 1627.41 1706.03C1626.79 1693.87 1621.61 1683.69 1612.98 1677.72L1596.01 1665.96L1596.52 1665.35C1602.02 1658.62 1604.02 1649.5 1602.1 1640C1600.18 1630.49 1594.48 1621.37 1586.27 1614.65C1578.05 1607.92 1567.98 1604.14 1558.28 1604.14C1553.47 1604.14 1548.9 1605.07 1544.83 1606.87C1540.75 1608.67 1537.25 1611.32 1534.53 1614.65L1529.96 1620.23L1512.99 1608.47C1508.71 1605.51 1503.72 1603.67 1498.3 1603.06L1498.3 1603.05Z" fill="#FF5345"/>
<path d="M1763.45 1535.22C1758.13 1534.71 1752.61 1535.36 1747.2 1537.13C1741.79 1538.91 1736.6 1541.77 1731.93 1545.56C1727.26 1549.36 1723.2 1554.01 1719.98 1559.24C1713.47 1569.81 1710.79 1582.13 1712.51 1593.5C1714.24 1604.86 1720.23 1614.34 1729.18 1619.85L1755.56 1636.08L1747.71 1649.34C1743.66 1656.19 1743.44 1664.94 1747.11 1673.67C1750.79 1682.39 1758.05 1690.36 1767.3 1695.84C1776.55 1701.32 1787.03 1703.85 1796.44 1702.88C1805.85 1701.91 1813.42 1697.52 1817.48 1690.67L1824.62 1678.6L1839.18 1687.54C1843.6 1690.27 1848.63 1691.94 1853.95 1692.45C1859.28 1692.97 1864.8 1692.32 1870.21 1690.55C1875.62 1688.77 1880.81 1685.91 1885.48 1682.12C1890.15 1678.32 1894.22 1673.68 1897.44 1668.44C1900.66 1663.21 1902.98 1657.49 1904.26 1651.6C1905.54 1645.72 1905.76 1639.8 1904.91 1634.17C1904.05 1628.54 1902.14 1623.31 1899.28 1618.79C1896.42 1614.27 1892.67 1610.54 1888.24 1607.82L1872.36 1598.05L1876.73 1590.67C1880.79 1583.81 1881.01 1575.07 1877.34 1566.35C1873.67 1557.63 1866.41 1549.65 1857.16 1544.16C1852.58 1541.45 1847.65 1539.43 1842.64 1538.22C1837.64 1537.01 1832.67 1536.63 1828 1537.11C1818.59 1538.09 1811.03 1542.48 1806.97 1549.34L1803.3 1555.53L1778.24 1540.12C1773.8 1537.4 1768.78 1535.73 1763.45 1535.22Z" fill="#FF5345"/>
<path d="M2951.71 1524.89L2914.31 3939.98H2845.54L2863.2 1592.39C2897.22 1569.25 2926.55 1546.92 2951.71 1524.89Z" fill="#2F6DF6"/>
<path d="M937.008 1320.14C929.128 1319.48 921.231 1321.17 914.312 1325C883.948 1341.83 860.077 1368.14 852.261 1400.41C844.445 1432.69 852.161 1465.76 867.808 1497.62C870.123 1502.33 873.345 1506.55 877.288 1510.02C881.231 1513.49 885.818 1516.15 890.789 1517.85C895.761 1519.55 901.018 1520.25 906.261 1519.91C911.503 1519.58 916.628 1518.22 921.344 1515.9C928.262 1512.5 934.05 1507.17 938.011 1500.55C941.972 1493.94 943.936 1486.32 943.668 1478.62C1095.7 1540.3 1250.14 1519.12 1394 1434.46C1403.14 1429.07 1409.76 1420.28 1412.42 1410.02C1415.08 1399.75 1413.56 1388.85 1408.18 1379.71C1405.51 1375.18 1401.98 1371.22 1397.79 1368.06C1393.59 1364.89 1388.81 1362.59 1383.73 1361.27C1373.46 1358.61 1362.56 1360.13 1353.41 1365.51C1217.81 1445.31 1089.66 1461.06 952.359 1395.41C952.619 1395.26 952.829 1395.13 953.099 1394.98C957.695 1392.44 961.745 1389.01 965.015 1384.89C968.286 1380.78 970.714 1376.07 972.161 1371.02C973.609 1365.96 974.047 1360.68 973.45 1355.46C972.854 1350.24 971.234 1345.18 968.685 1340.59C963.538 1331.31 954.917 1324.46 944.72 1321.54C942.201 1320.82 939.619 1320.35 937.008 1320.14Z" fill="#070922"/>
<path d="M3102.79 1316.2C3103.02 1317.22 3103.21 1318.24 3103.45 1319.26C3108.93 1342.15 3119.31 1364.17 3134.37 1383.81L3055.21 3939.98H2994.33L3033.06 1437.6C3061.92 1398.87 3083.16 1359.3 3102.79 1316.2Z" fill="#2F6DF6"/>
<path d="M3495.35 1221.17C3499.3 1220.98 3502.33 1221.41 3504.45 1222.16C3510.1 1224.12 3517.53 1228.58 3525.85 1252.93C3558.42 1348.23 3457.32 1470.07 3455.5 1472.25C3421.49 1502.85 3373.83 1549.62 3328.8 1579.73C3305.86 1595.08 3283.87 1605.3 3269.14 1608.03C3254.4 1610.77 3250.12 1609.84 3241.99 1601.71C3207.99 1567.71 3208.71 1535.94 3227.83 1488.54C3246.94 1441.14 3289.28 1386.61 3332.98 1339.62C3376.6 1292.73 3430.13 1245.81 3467.85 1228.85C3477.28 1224.61 3485 1222.45 3491.09 1221.59C3492.61 1221.38 3494.03 1221.23 3495.35 1221.17Z" fill="white"/>
<path d="M842.965 1134.22C877.9 1213.73 926.546 1280.05 982.594 1326.82C1052.88 1385.48 1138.09 1414.21 1217.34 1388.79C1291.95 1364.86 1342.94 1298.82 1367.91 1217.23C1426.6 1251.02 1491.32 1263.77 1552.52 1244.14C1553.13 1243.94 1553.7 1243.69 1554.31 1243.49C1549.8 1248.42 1546.6 1254.4 1545 1260.89C1543.4 1267.38 1543.45 1274.17 1545.15 1280.63C1547.97 1290.86 1554.74 1299.54 1563.96 1304.78C1573.18 1310.02 1584.11 1311.38 1594.33 1308.56L1841.79 1240.3C1850.62 1296.65 1860.88 1352.56 1872.12 1408.15L715.035 1677.41C702.487 1612.47 690.664 1547.06 679.762 1481.04L782.086 1459.11C787.222 1458.01 792.091 1455.9 796.415 1452.92C800.738 1449.94 804.433 1446.13 807.286 1441.72C810.139 1437.31 812.095 1432.38 813.043 1427.22C813.991 1422.05 813.91 1416.75 812.809 1411.61C810.584 1401.24 804.332 1392.18 795.428 1386.42C786.525 1380.66 775.698 1378.67 765.328 1380.89L667.262 1401.9C677.087 1399.18 686.463 1394.61 694.762 1388.17C694.822 1388.13 694.883 1388.08 694.942 1388.03C766.938 1331.52 813.106 1243.37 813.106 1145.08C813.106 1142.84 813.007 1140.62 812.987 1138.39L842.965 1134.22Z" fill="white"/>
<path d="M1920.42 984.984C1942.3 1145.05 1973.43 1299.83 2012.3 1450.14C2012.32 1456.68 2013.94 1463.12 2017.03 1468.89C2063.64 1645.6 2121.53 1815.81 2189.41 1980.2C2190.42 1986.69 2193.02 1992.82 2196.97 1998.07C2316.94 2284.8 2467.04 2553.96 2641.5 2808.6C2119.97 2987.19 1571.77 3152.82 1008.92 3311.18C877.429 2944.66 758.921 2582.82 671.069 2231.92C669.132 2224.19 664.932 2217.22 659.008 2211.9C653.084 2206.57 645.705 2203.14 637.817 2202.03C629.929 2200.92 621.89 2202.2 614.731 2205.69C607.571 2209.18 601.618 2214.73 597.631 2221.62C469.642 2443.33 497.532 2715.75 503.706 2970.96C503.963 2971.59 504.237 2972.2 504.526 2972.82C504.451 2975.11 504.574 2977.41 504.894 2979.69C506.719 2986.99 498.581 3018.16 470.187 3051.33C441.794 3084.5 398.355 3118.49 353.666 3140.28C308.977 3162.06 263.816 3170.66 232.395 3163.13C202.067 3155.86 178.974 3138.51 164.016 3085.69C185.257 2772.95 191.962 2445.36 235.073 2164.12C278.506 1880.79 359.48 1648.03 519.077 1520.41C524.315 1516.23 528.416 1510.79 531.003 1504.6C533.59 1498.41 534.58 1491.67 533.881 1485C531.266 1460.08 528.887 1435.24 526.769 1410.51C522.582 1361.76 519.348 1313.36 517.124 1265.32C517.125 1265.32 517.123 1265.32 517.124 1265.32C515.801 1236.62 515.297 1208.21 514.702 1179.77L584.916 1170.04C580.387 1184.87 571.965 1197.92 560.717 1208.13C547.955 1219.62 539.265 1234.93 535.891 1251.76C529.64 1282.91 532.103 1314.48 546.577 1341.02C560.998 1367.46 585.681 1386.28 614.331 1398.38C629.164 1404.8 645.299 1406.27 660.678 1403.38L625.327 1410.96C615.31 1413.11 606.499 1419.02 600.71 1427.47C594.921 1435.92 592.596 1446.27 594.213 1456.39C609.197 1550.04 625.975 1642.56 644.23 1734.16C644.227 1734.46 644.227 1734.75 644.23 1735.05C644.339 1735.25 644.451 1735.45 644.562 1735.65C663.694 1831.55 684.48 1926.42 707.333 2019.99C707.333 2020.04 707.333 2020.08 707.333 2020.13C707.367 2020.18 707.4 2020.24 707.434 2020.29C730.246 2113.67 755.114 2205.76 781.769 2296.73C781.768 2296.91 781.768 2297.09 781.769 2297.26C781.89 2297.5 782.015 2297.73 782.141 2297.97C841.033 2498.81 909.454 2693.68 988.156 2882.09C988.156 2882.12 988.156 2882.15 988.156 2882.19C1025.72 2972.11 1065.42 3060.69 1107.75 3147.62C1111.95 3156.26 1119.13 3163.09 1127.96 3166.88C1136.79 3170.66 1146.7 3171.14 1155.85 3168.22L2475.85 2748.22C2481.8 2746.33 2487.23 2743.06 2491.7 2738.7C2496.16 2734.33 2499.54 2728.97 2501.56 2723.06C2503.59 2717.15 2504.2 2710.85 2503.35 2704.66C2502.5 2698.47 2500.21 2692.57 2496.67 2687.42C2179.35 2226.22 1991.46 1723.78 1913.31 1184.37C1912.5 1178.76 1910.5 1173.38 1907.45 1168.59C1904.4 1163.8 1900.36 1159.72 1895.61 1156.62C1890.86 1153.51 1885.5 1151.45 1879.89 1150.58C1874.28 1149.7 1868.55 1150.03 1863.08 1151.54L1592.39 1226.21C1649.6 1192.23 1688.52 1130.1 1707.47 1057.32C1711.17 1043.14 1714.07 1028.43 1716.36 1013.38L1920.42 984.984Z" fill="white"/>
<path d="M3396.21 954.163C3400.01 954.263 3403.73 954.592 3407.34 955.142C3436.24 959.546 3460.76 976.16 3476.68 1015.13C3490.07 1047.91 3482.24 1099.98 3467.65 1144.6C3456.43 1147.27 3445.48 1151.21 3435.04 1155.91C3376.15 1182.39 3321.24 1234.78 3274.41 1285.13C3254.43 1306.61 3234.3 1329.75 3215.66 1354.15C3212.1 1351.57 3208.87 1348.88 3205.95 1346.1C3204.36 1344.1 3202.58 1342.26 3200.64 1340.59C3190.65 1329.12 3184.94 1315.97 3181.27 1300.63C3174.06 1270.57 3178.46 1230.17 3191.93 1188.09C3218.87 1103.94 3283.92 1013.52 3310.41 989.774C3338.8 964.323 3369.59 953.514 3396.21 954.163Z" fill="white"/>
<path d="M503.705 915.551C618.848 915.551 713.651 999.988 730.501 1110C732.246 1121.4 733.138 1133.05 733.138 1144.98C733.138 1218.15 699.075 1282.82 645.873 1324.73C645.803 1324.7 645.733 1324.66 645.663 1324.63C628.556 1317.44 620.88 1309.92 616.854 1302.54C612.83 1295.16 610.733 1285.33 614.334 1267.36C614.395 1267.31 614.455 1267.26 614.515 1267.2C647.734 1237.06 668.675 1193.21 668.675 1145C668.675 1136.09 667.903 1127.33 666.524 1118.73C666.525 1118.58 666.525 1118.43 666.524 1118.28C666.491 1118.24 666.46 1118.2 666.427 1118.16C666.327 1117.79 666.325 1117.4 666.285 1117.03C652.946 1039.21 584.798 980.05 503.687 980.05C413.059 980.05 338.708 1054.41 338.707 1145.03C338.707 1212.81 380.03 1271.45 439.039 1296.71C440.287 1319.88 441.977 1343.18 443.668 1366.48C346.002 1340.16 274.234 1251.22 274.234 1144.97C274.234 1017.91 376.628 915.541 503.687 915.541L503.705 915.551Z" fill="#FFB900"/>
<path d="M3064.02 854.593C3069.79 855.273 3074.56 858.582 3082.05 868.01C3092.03 880.579 3102.52 904.663 3107.81 936.956C3118.39 1001.54 3109.19 1097.17 3066.87 1197.27C3030.75 1282.71 3006.53 1342.81 2961.89 1399.36C2927.38 1443.08 2879.73 1486.25 2801.42 1537.6C2799.88 1538.9 2798.44 1540.32 2797.11 1541.84C2796.2 1542.65 2795.33 1543.51 2794.51 1544.4C2788.37 1551.13 2784.71 1559.76 2784.14 1568.85C2783.85 1569.48 2783.59 1570.12 2783.34 1570.76L2782.09 1737.6C2710.18 1688.38 2633 1621.81 2576.99 1537.8C2554.56 1504.15 2548.03 1480.75 2547.71 1468.6C2547.39 1456.44 2549.67 1454.09 2555.66 1449.16C2567.64 1439.3 2608.53 1434.78 2623.65 1438.71C2630.9 1440.6 2638.53 1440.4 2645.68 1438.16C2652.83 1435.91 2659.2 1431.71 2664.08 1426.02C2664.08 1426.02 2780.76 1290.1 2859.8 1171.31C2879.26 1142.08 2896.5 1113.85 2909.49 1087.87C2950.54 1005.77 2997.49 918.936 3032.56 877.835C3048.4 859.267 3062.28 854.21 3057.77 854.671C3060.05 854.441 3062.1 854.371 3064.02 854.571V854.593Z" fill="white"/>
<path d="M926.927 792.66C911.234 860.743 914.959 944.266 942.064 1028.79C942.644 1030.6 943.232 1032.39 943.822 1034.18C992.373 987.306 1047.45 947.557 1113.69 919.984C1062.94 990.425 1024.75 1066.57 997.689 1147.76C1062.27 1248.12 1154.64 1305.07 1235.97 1286.35C1222.86 1297.72 1208.29 1306.1 1192.45 1311.18C1144 1326.72 1087.29 1310.76 1031.44 1264.14C975.588 1217.53 923.966 1141.01 893.88 1047.19C867.213 964.032 862.238 882.129 874.232 815.551C891.796 807.918 909.363 800.292 926.927 792.66Z" fill="white"/>
<path d="M2869.43 760.141L2963.2 781.723L2962.34 837.719C2929.65 879.181 2897.89 935.182 2867.67 993.52L2869.43 760.141Z" fill="#2F6DF6"/>
<path d="M3341.29 755.336L3335.74 883.91C3307.84 893.153 3280.96 908.73 3257.01 930.199C3247.69 938.555 3237.73 948.935 3227.52 960.883L3232.81 789.594L3341.29 755.336Z" fill="#2F6DF6"/>
<path d="M3093.75 723.656L3153.16 777.27L3151.6 827.699C3149.39 824.459 3147.12 821.275 3144.7 818.227C3122.54 790.327 3086.98 771.25 3049.66 775.062C3047.45 775.292 3045.44 775.792 3043.34 776.156L3043.46 768.207L3093.75 723.656Z" fill="#2F6DF6"/>
<path d="M1361.23 604.77C1341.86 670.622 1341.96 753.569 1365.62 838.734C1399.64 798.592 1442.21 765.555 1493.71 739.984C1450.63 800.861 1419.97 866.731 1404.7 938.734C1452.85 1031.91 1524.13 1097.09 1595.31 1115C1576.93 1140.53 1554.01 1158.07 1527.63 1166.53C1484.3 1180.42 1434.36 1169.03 1384.33 1133.15C1391.43 1060.44 1382.67 979.844 1356.68 898.793C1326.47 804.61 1277.78 724.436 1218.92 666.605L1361.23 604.77Z" fill="white"/>
<path d="M3025.48 395.277L3236.29 400.941L3332.28 674.281L3203.51 714.945L3120.82 640.297C3113.51 633.702 3104.04 630.031 3094.2 629.984C3084.35 629.937 3074.84 633.518 3067.48 640.043L2992.59 706.391L2887.54 682.23L3025.48 395.277Z" fill="#EFAFFA"/>
<path d="M1499.61 365.98L1525.07 445.531C1505.25 454.146 1485.42 462.756 1465.6 471.371C1464.2 471.632 1462.82 471.971 1461.46 472.387L1159.1 603.773C1157.72 604.53 1156.39 605.371 1155.11 606.293C1143.66 611.269 1132.21 616.238 1120.76 621.215C1120.72 621.248 1120.68 621.282 1120.64 621.315C1021.95 664.2 923.27 707.082 824.584 749.967C822.389 750.696 820.265 751.624 818.236 752.741C807.162 757.553 796.087 762.361 785.014 767.174L765.209 719.655L1499.61 365.98Z" fill="#FFB900"/>
<path d="M3146.15 144.301L3207.91 320.16L3063.47 316.273L3146.15 144.301Z" fill="#2F6DF6"/>
</g>
<defs>
<clipPath id="clip0_102_1364">
<rect width="3613.64" height="4220.27" fill="white"/>
</clipPath>
</defs>
</svg>
