<svg width="50" height="50" viewBox="0 0 50 50" fill="none" xmlns="http://www.w3.org/2000/svg">
<path d="M41.0769 32.1538C37.1538 32.1538 33.9231 34.6154 32.6923 38.0769H16.3846C13.6154 38.0769 11.3077 35.7692 11.3077 33C11.3077 30.2308 13.6154 27.9231 16.3846 27.9231H33.6154C39.6923 27.9231 44.6154 23 44.6154 16.9231C44.6154 10.8462 39.6923 5.92308 33.6154 5.92308H17.3077C16.0769 2.46154 12.8462 0 8.92308 0C4 0 0 4 0 8.92308C0 13.8462 4 17.8462 8.92308 17.8462C12.8462 17.8462 16.0769 15.3846 17.3077 11.9231H33.6154C36.3846 11.9231 38.6923 14.2308 38.6923 17C38.6923 19.7692 36.3846 22.0769 33.6154 22.0769H16.3846C10.3077 22 5.38462 27 5.38462 33C5.38462 39 10.3077 44 16.3846 44H32.6923C33.9231 47.4615 37.2308 49.9231 41.0769 49.9231C46 50 50 46 50 41.0769C50 36.1538 46 32.1538 41.0769 32.1538ZM8.92308 11.9231C7.30769 11.9231 5.92308 10.6154 5.92308 8.92308C5.92308 7.23077 7.23077 5.92308 8.92308 5.92308C10.6154 5.92308 11.9231 7.23077 11.9231 8.92308C11.9231 10.6154 10.5385 11.9231 8.92308 11.9231Z" fill="url(#paint0_linear_602_330)"/>
<defs>
<linearGradient id="paint0_linear_602_330" x1="43.5" y1="9.02529e-07" x2="5.5" y2="44.5" gradientUnits="userSpaceOnUse">
<stop stop-color="#37D5F8"/>
<stop offset="1" stop-color="#7537F8"/>
</linearGradient>
</defs>
</svg>
