<svg width="4168" height="4950" viewBox="0 0 4168 4950" fill="none" xmlns="http://www.w3.org/2000/svg">
<g clip-path="url(#clip0_102_1051)">
<path d="M1567.36 0.0205078C1530.67 0.0205078 1494.41 0.52082 1458.67 1.46582C1151.66 8.26582 875.407 43.3755 667.404 97.8525C551.244 128.277 456.369 164.326 387.404 207.032C318.435 249.738 269.044 302.736 269.044 371.681C269.044 382.346 270.599 392.501 272.853 402.423C216.336 438.851 169.277 478.14 133.888 522.032C90.6791 575.624 62.3452 639.608 62.3452 711.739C62.3452 812.851 115.079 894.753 193.927 963.009C195.638 964.49 197.577 965.892 199.318 967.364C232.5 1135.17 289.299 1423.18 351.505 1739.45C162.774 1900.03 47.0021 2065.93 11.6811 2239.53C-29.6519 2442.68 43.4479 2649.68 221.857 2851.74C226.7 2865.33 237.6 2890.01 259.201 2912.29C286.507 2940.45 335.385 2961.34 397.56 2954.28C403.652 2963.15 411.446 2973.31 421.33 2983.54C410.646 2985.47 395.561 2985.86 373.966 2982.25C333.068 2975.43 294.519 2992.1 277.54 3018.81C260.56 3045.52 258.957 3072.59 271.173 3098.67C280.55 3118.7 289.993 3123.92 302.443 3134.24C308.765 3139.48 315.767 3144.83 323.283 3150.18C314.55 3155.01 307.19 3161.35 300.685 3167.93C286.938 3181.83 276.268 3198.92 271.31 3219.98C266.352 3241.04 269.177 3269.3 287.462 3290C305.747 3310.7 333.156 3319.86 365.158 3321.64C416.32 3324.49 464.445 3328.09 513.419 3315.22C558.505 3303.36 601.495 3275.57 639.806 3227.85C654.69 3316.84 688.369 3451.46 758.576 3582.32C807.031 3672.64 873.867 3760.67 963.224 3827.54L967.052 3960.94C949.714 3991.51 944.406 4023.95 949.669 4052.27C955.616 4084.26 972.616 4109.51 990.509 4128.93C998.492 4137.59 1006.87 4144.98 1015.08 4151.76C1005.13 4255.45 997.212 4406.75 1028.09 4568.59C1034.94 4604.47 1045.66 4638.94 1059.69 4671.62C1060 4672.37 1060.34 4673.1 1060.7 4673.83C1117.53 4804.4 1229.34 4904.9 1378.05 4940.59C1474.4 4963.71 1557.27 4940.39 1617.03 4898.24C1676.8 4856.1 1715 4797.55 1734.73 4746C1757.4 4686.74 1749.03 4615.09 1725.31 4543.09C1701.6 4471.08 1660.77 4398.74 1605.72 4343.48C1533.27 4270.73 1506.68 4148.58 1500.04 4112.46C1518.77 4090.36 1532.44 4069.5 1537.52 4047.97C1543.92 4020.88 1534.89 3992.12 1520.18 3975.72C1516.07 3971.14 1511.78 3967.31 1507.46 3963.89C1570.09 3963.11 1633.05 3959.03 1694.67 3951.7C1683.63 4047.73 1685.58 4157.09 1745.53 4235.88C1800.32 4307.89 1845.97 4349.76 1885.8 4391.04C1925.64 4432.31 1960.63 4473.14 2002.09 4550.55C2049.22 4638.53 2118.71 4702.91 2195.33 4735.76C2271.96 4768.61 2357.85 4769.06 2428.3 4725.72C2499.22 4682.1 2536.36 4606.34 2551.31 4534.9C2566.26 4463.47 2564.86 4395.77 2529.53 4347.91C2504.01 4313.33 2433.84 4233.77 2363.44 4150.2C2328.24 4108.41 2293.5 4066.35 2266.02 4030.92C2238.53 3995.48 2217.64 3963.78 2213.91 3955.39C2197.32 3917.95 2175.76 3864.71 2166.02 3803.11C2175.69 3796.04 2185.6 3789.07 2194.04 3781.52C2279.67 3705.04 2348.83 3636.45 2405.02 3526.74C2461.21 3417.03 2504.36 3268.63 2546.78 3028.67C2563.8 2932.44 2591.61 2781.86 2624.44 2606.39C2667.13 2651.31 2714.78 2686.7 2769.92 2705.25C2773.43 2715.74 2777.26 2726.04 2781.52 2735.94C2788.23 2751.52 2795.93 2766.01 2806.94 2778.97C2817.94 2791.93 2834 2804.82 2856.08 2807.31C2874.69 2809.4 2892.9 2802.32 2907.13 2791.64C2939.08 2820.98 2984.62 2849 3047.03 2863.56C3051.1 2867.42 3055.31 2871.26 3059.73 2875.04C3092.6 2903.18 3135.53 2928.13 3186.54 2931.58C3223.22 2934.07 3254.44 2912.03 3271.66 2888.13C3283.64 2871.5 3291.67 2853.44 3297.64 2835.65C3304.37 2833.36 3311.07 2830.58 3317.7 2827.11C3351.91 2809.21 3371.19 2777.9 3384.55 2747.09C3395 2722.99 3401.79 2698.12 3406.54 2675.59C3411.55 2672.28 3416.47 2668.82 3421.29 2665.22C3434.78 2768.16 3468.98 2886.43 3565.04 2951.17C3658.41 3014.04 3754.68 3024.18 3832.21 3013.09C3909.73 3002 3968.89 2971.54 3999.42 2951.39C4089.44 2891.84 4167.35 2736 4167.35 2454.22C4167.32 2449.97 4166.62 2445.75 4165.27 2441.72C4162.1 2412.28 4148.02 2385.64 4128.87 2364.36C4107.04 2340.1 4078.4 2320.91 4044.77 2305.1C3977.5 2273.47 3889.42 2255.49 3792.31 2255.49C3695.19 2255.49 3607.09 2273.47 3539.83 2305.1C3518.76 2315 3499.67 2326.23 3482.97 2339.2H3437.64C3428.65 2320 3414.22 2293.1 3393.2 2265.96C3354.46 2215.91 3289.25 2161.7 3197.36 2161.7C3124.89 2161.7 3043.53 2165.45 2975.27 2193.34C2974.28 2192.66 2973.33 2191.97 2972.29 2191.31C2964.29 2186.23 2953.87 2182.18 2942.48 2180.39C2931.09 2178.6 2918.72 2179.07 2906.8 2183.03C2885.41 2190.13 2867.53 2205.1 2850.65 2226.8C2845.65 2219.64 2840.75 2212.27 2836.11 2204.45C2822.22 2181.02 2809.93 2154.66 2799.12 2125.74C2788.32 2096.82 2778.99 2065.34 2771.02 2031.62C2763.54 1999.97 2757.31 1966.28 2752.11 1930.98C2824.95 1548.12 2897.96 1166.9 2936.51 966.368C2937.85 965.225 2939.36 964.138 2940.69 962.989C3019.53 894.733 3072.27 812.832 3072.27 711.72C3072.27 639.617 3043.96 575.65 3000.76 522.052C2965.39 478.157 2918.33 438.838 2861.78 402.403C2864.03 392.482 2865.57 382.324 2865.57 371.661C2865.57 302.716 2816.18 249.719 2747.21 207.013C2678.24 164.307 2583.37 128.257 2467.21 97.833C2259.24 43.367 1983.06 8.25629 1676.11 1.44629C1640.36 0.496289 1604.08 0.000976562 1567.36 0.000976562V0.0205078ZM452.599 2254.77C467.816 2332.49 481.739 2403.86 496.115 2477.48C440.203 2417.46 426.6 2362.88 436.72 2305.66C439.629 2289.22 445.038 2272.21 452.599 2254.77Z" fill="#070922"/>
<path d="M1453.23 4026.07C1456.44 4027.39 1459.31 4028.42 1460.02 4028.93C1459.87 4029.29 1459.84 4028.72 1459.63 4029.61C1458.4 4034.83 1451.08 4050.69 1428.62 4073.88C1424.47 4078.17 1421.33 4083.33 1419.43 4088.99C1417.54 4094.65 1416.93 4100.66 1417.66 4106.58C1417.66 4106.58 1435.77 4286.24 1549.01 4399.94C1593.06 4444.17 1629.28 4507.28 1649.32 4568.12C1656.85 4590.99 1661.84 4613.53 1664.53 4634.35C1584.28 4714.49 1503.67 4757.68 1420.1 4761.62C1333.7 4765.69 1238.09 4728.31 1128.73 4630.06C1119.21 4605.74 1111.73 4580.24 1106.64 4553.61C1080.67 4417.46 1084.26 4287.21 1092.23 4188.96C1098.67 4188.39 1104.87 4186.27 1110.31 4182.78C1115.75 4179.29 1120.26 4174.54 1123.46 4168.92C1125.72 4164.18 1127.02 4159.04 1127.3 4153.79C1127.57 4148.55 1126.81 4143.3 1125.05 4138.35C1123.3 4133.4 1120.58 4128.84 1117.07 4124.94C1113.55 4121.03 1109.3 4117.86 1104.55 4115.6C1104.55 4115.6 1071.83 4099.15 1049.32 4074.72C1038.06 4062.51 1030.49 4049.46 1028.3 4037.67C1028.19 4037.09 1028.41 4036.42 1028.3 4035.84C1053.67 4051.8 1087.21 4069.85 1128.58 4082.65C1214.19 4109.15 1333.53 4110.13 1453.21 4026.07L1453.23 4026.07Z" fill="#FFB900"/>
<path d="M2842.15 1033.87C2801.73 1244.29 2739.69 1568.04 2672.77 1919.79C2672.77 1919.86 2672.77 1919.94 2672.77 1920.02C2633.02 2129 2596.46 2322.16 2561.35 2509.25C2561.29 2509.55 2561.23 2509.86 2561.17 2510.16C2521.88 2719.5 2487.63 2903.95 2468.02 3014.75C2426.25 3251.07 2384.19 3391.96 2333.82 3490.29C2283.46 3588.63 2224.74 3646.88 2140.76 3721.89C2069.46 3785.59 1892.12 3846.46 1697.5 3871C1502.87 3895.53 1289.26 3886.75 1140.8 3834.02C994.515 3782.07 895.635 3668.53 829.098 3544.51C762.56 3420.49 729.853 3287.08 716.911 3205.45C714.933 3193.24 710.019 3166.08 704.567 3136.46C717.149 3116.06 728.015 3095.49 736.403 3073.24C755.329 3023.03 759.643 2966.22 746.774 2894.75C725.072 2774.21 671.517 2712.92 613.805 2662.69C583.907 2508.99 549.851 2334.83 514.86 2156.19C537.4 2128.29 564.167 2099.81 594.821 2070.97C598.647 2067.38 601.727 2063.06 603.884 2058.27C606.04 2053.48 607.232 2048.31 607.392 2043.06C607.552 2037.81 606.676 2032.58 604.814 2027.67C602.952 2022.75 600.14 2018.26 596.54 2014.43C589.272 2006.7 579.233 2002.18 568.63 2001.85C563.379 2001.69 558.149 2002.57 553.237 2004.43C548.324 2006.29 543.824 2009.1 539.997 2012.69C445.458 2101.61 375.569 2192.33 357.966 2291.85C341.451 2385.22 378.262 2480.96 472.653 2566.07C466.159 2588.83 453.342 2626.49 431.305 2664.92C398.857 2721.5 350.525 2775.13 273.493 2789.24C112.124 2602.88 55.0741 2427.83 90.1141 2255.6C126.154 2078.47 263.859 1897.49 509.645 1716.33C518.18 1710.03 523.865 1700.61 525.451 1690.12C527.037 1679.63 524.393 1668.95 518.102 1660.41C514.986 1656.18 511.069 1652.61 506.572 1649.89C502.074 1647.18 497.085 1645.38 491.891 1644.59C481.407 1643 470.722 1645.64 462.184 1651.93C448.392 1662.1 435.033 1672.29 421.833 1682.5C370.192 1420.02 326.133 1196.7 294.196 1035.08C357.874 1073.63 432.972 1108.46 518.044 1139.63C788.323 1238.64 1158.56 1299.14 1567.34 1299.14C1976.12 1299.14 2346.36 1238.64 2616.64 1139.63C2702.49 1108.17 2778.13 1072.96 2842.18 1033.98L2842.15 1033.87Z" fill="#6D3AEF"/>
<path d="M2162.33 1296.5C2156.14 1296.66 2149.92 1297.02 2143.69 1297.58C2005.72 1310.01 1897.46 1416.11 1840.14 1561.29C1829.66 1546.59 1818.72 1532.51 1807.21 1519.26C1735.58 1436.77 1642.84 1382.82 1542.93 1377.58C1528.67 1376.83 1514.26 1377.08 1499.75 1378.38C1390.59 1388.15 1297.66 1455.52 1234.12 1552.46C1173.53 1644.92 1138.75 1765.38 1135.47 1896.84C1120.12 1910.47 1106.94 1923.93 1097.68 1938.3C1085.63 1956.99 1078.16 1979.32 1082.19 2002.15C1086.22 2024.97 1101.4 2043.09 1117.95 2054.55C1128.13 2061.59 1139.26 2066.84 1151.13 2071.19C1204.21 2341.22 1390.69 2544.23 1602.54 2525.23C1717.13 2514.96 1814.13 2440.06 1878.15 2331.95C1962.58 2431.59 2090.57 2587.34 2143.38 2672.75C2156.88 2694.61 2165.75 2715.32 2172.03 2733.24C2157.01 2723.03 2138.28 2709.46 2115.12 2687.15C2063.74 2637.65 1992.58 2557.43 1898.99 2437.15C1892.47 2428.78 1882.89 2423.34 1872.37 2422.03C1861.84 2420.72 1851.22 2423.64 1842.85 2430.15C1838.71 2433.38 1835.24 2437.39 1832.64 2441.96C1830.04 2446.52 1828.37 2451.56 1827.72 2456.77C1827.07 2461.98 1827.45 2467.27 1828.84 2472.34C1830.24 2477.4 1832.62 2482.14 1835.84 2486.29C1930.9 2608.46 2003.78 2690.98 2059.61 2744.77C2115.44 2798.55 2148.94 2826.71 2192.34 2831.6C2214.05 2834.04 2243.65 2819.59 2253.44 2799.26C2263.22 2778.92 2261.51 2761.17 2258.52 2743.48C2252.52 2708.09 2235.45 2669.53 2211.45 2630.68C2145.77 2524.46 1999.19 2350.04 1916.6 2253.67C1920.04 2245.13 1923.29 2236.45 1926.39 2227.64C2007.81 2336.31 2120.87 2402.65 2241.88 2391.8C2351.22 2381.99 2443.89 2310.69 2504.94 2207.91C2562.02 2111.82 2592.99 1987.66 2588.73 1853.53C2604.1 1845.83 2617.83 1837.75 2629.67 1828.53C2647.28 1814.84 2665.14 1796.86 2665.92 1767.79C2666.7 1738.73 2645.71 1716.53 2624.34 1704.06C2608.24 1694.67 2587.73 1687.72 2564.2 1681.33C2534.58 1570.39 2482.14 1474.17 2412.72 1405.45C2342.91 1336.35 2255.21 1294.17 2162.36 1296.5L2162.33 1296.5Z" fill="#070922"/>
<path d="M1636.9 4762.54C1620.49 4788.13 1598.2 4813.65 1570.92 4832.89C1527.13 4863.77 1472.05 4880.89 1396.7 4862.81C1360.85 4854.21 1327.9 4841.17 1297.81 4824.63C1340.38 4837.8 1382.43 4843.48 1423.89 4841.52C1499.58 4837.96 1570.54 4809.55 1636.9 4762.54Z" fill="white"/>
<path d="M1328.5 4122.89C1290.88 4123.55 1255.57 4136.95 1229.08 4163.44C1207.16 4185.37 1198.89 4213.76 1195.47 4242.27C1193.31 4260.31 1193.32 4279.12 1194.53 4298.28C1194.55 4298.83 1194.59 4299.38 1194.63 4299.92C1195.34 4310.49 1196.31 4321.13 1197.72 4331.89C1201.12 4357.99 1206.38 4384.43 1212.42 4409.86C1212.42 4410.03 1212.42 4410.2 1212.42 4410.37C1212.5 4410.57 1212.57 4410.77 1212.64 4410.96C1220.85 4445.3 1230.51 4477.71 1239.4 4504.38C1250.16 4536.67 1264.49 4564.31 1281.1 4587.21C1281.65 4588.02 1282.23 4588.81 1282.84 4589.58C1333.47 4657.72 1404.69 4682.3 1462.43 4658.78C1477 4652.84 1491.15 4645.77 1503.93 4633.93C1516.72 4622.1 1527.25 4603.74 1529.28 4584.21C1533.36 4545.13 1514.16 4511.76 1481.28 4467.78C1458.29 4437.09 1442.41 4380.38 1435.12 4327.92C1427.84 4275.46 1427.67 4228.86 1427.35 4211.06C1426.89 4184.74 1415.4 4159.09 1396.8 4143.83C1378.21 4128.58 1356.25 4123.53 1336.04 4122.98C1333.52 4122.88 1330.99 4122.88 1328.48 4122.98L1328.5 4122.89Z" fill="#070922"/>
<path d="M1424.79 4526.27C1445.76 4556.83 1449.43 4574.11 1449.53 4575.26C1447.8 4576.85 1441.97 4580.7 1432.29 4584.65C1421.26 4589.14 1396.62 4587.79 1371.06 4567.58C1387.21 4552.85 1405.12 4538.71 1424.79 4526.27Z" fill="#FFB900"/>
<path d="M1372.15 4419.69C1375.72 4432.27 1379.93 4444.74 1384.85 4456.92C1362.51 4470.78 1342.37 4486.18 1324.24 4502.11C1321.12 4494.93 1318.1 4487.4 1315.31 4479.04C1310.63 4465 1305.71 4449.01 1300.94 4432.13C1323.78 4427.73 1347.85 4423.53 1372.15 4419.69Z" fill="#FFB900"/>
<path d="M1352.85 4313.56C1353.73 4321.82 1354.7 4330.23 1355.9 4338.87C1356.01 4339.64 1356.14 4340.44 1356.25 4341.21C1331.25 4345.18 1306.29 4349.53 1282.36 4354.2C1280.69 4345.34 1279.23 4336.57 1277.99 4327.95C1289.63 4325.11 1301.74 4322.43 1314.28 4320C1326.76 4317.58 1339.66 4315.4 1352.85 4313.56Z" fill="#FFB900"/>
<path d="M1854.44 4242.34C1951.97 4279.33 2002.87 4331.34 2041.06 4386.56C2091.32 4459.24 2114.39 4544.68 2186.94 4602.91C2224.55 4633.08 2265.74 4647.71 2305.16 4646.95C2344.58 4646.19 2380.32 4631.01 2411.02 4609.9C2426.82 4599.03 2441.54 4586.54 2455.31 4573.07C2439.75 4608.11 2416.74 4638.94 2386.39 4657.62C2340.45 4685.88 2284.54 4686.97 2226.86 4662.25C2169.18 4637.52 2111.89 4586.11 2072.62 4512.79C2027.68 4428.9 1985.52 4379.18 1943.38 4335.51C1914.49 4305.57 1885.86 4277.94 1854.44 4242.34Z" fill="white"/>
<path d="M2316.72 4218.77C2322.35 4225.43 2327.19 4231.09 2332.78 4237.68C2308.41 4263.61 2281.7 4275.57 2255.76 4283.44C2254.43 4283.84 2249.44 4284.32 2237.54 4276.95C2264.77 4258.48 2291.48 4238.62 2316.72 4218.77Z" fill="#FFB900"/>
<path d="M1333.89 4202.87C1341.68 4203.08 1345.62 4205.25 1346.08 4205.62C1346.54 4206 1347.24 4204.37 1347.38 4212.4C1347.48 4216.65 1347.57 4224.25 1347.79 4233.55C1331.02 4235.76 1314.69 4238.39 1299.04 4241.43C1291.09 4242.97 1283.34 4244.63 1275.72 4246.33C1278.26 4231.36 1282.91 4222.71 1285.67 4219.96C1292.22 4213.41 1318.3 4202.43 1333.89 4202.85V4202.87Z" fill="#FFB900"/>
<path d="M2245.72 4133.61C2252.13 4141.46 2258.7 4149.38 2265.33 4157.39C2238.02 4178.77 2209.16 4199.9 2180.72 4218.64C2175.35 4211.33 2169.95 4203.6 2164.53 4195.33C2191.6 4178.67 2219.15 4158.32 2245.72 4133.61Z" fill="#FFB900"/>
<path d="M2183.67 4055.04C2187.45 4060.04 2191.65 4065.46 2195.76 4070.8C2172.64 4092.94 2148.47 4111.06 2124.57 4125.94C2121.7 4120.32 2118.87 4114.61 2116.06 4108.81C2139.72 4091.23 2162.58 4072.84 2183.67 4055.04Z" fill="#FFB900"/>
<path d="M2127.99 3957.6C2132.28 3968.07 2136.54 3978.25 2140.35 3986.86C2122.39 4002.21 2103.12 4018.03 2083.26 4033.32C2074.43 4008.79 2078.78 3999.03 2091.19 3984.57C2098.99 3975.49 2112.01 3966.13 2127.99 3957.6Z" fill="#FFB900"/>
<path d="M1044.73 3878.97C1066.78 3890.32 1089.65 3900.76 1114.01 3909.41C1200.5 3940.13 1301.26 3956.67 1406.41 3962.19C1307.31 4032.07 1220.5 4027.35 1152.27 4006.23C1102.02 3990.68 1064.93 3965.89 1046.84 3952.19L1044.73 3878.97Z" fill="#070922"/>
<path d="M2092.89 3847.09C2095.46 3858.85 2098.32 3870.16 2101.39 3881.07C2074.97 3893.52 2050.11 3909.61 2030.51 3932.44C2002.28 3965.32 1990.64 4016.56 2010.14 4066.31C2042.08 4147.92 2082.07 4222.85 2124.92 4277.66C2146.35 4305.06 2168.33 4327.64 2192.97 4343.5C2217.61 4359.35 2248.3 4369.28 2278.97 4360C2311.22 4350.21 2350.05 4332.35 2384.61 4298.73C2422.54 4343.28 2454.73 4381.28 2465.18 4395.43C2467.73 4398.89 2470.66 4407.64 2473.11 4419.36C2443.83 4466.7 2404.95 4516.99 2365.68 4543.98C2344.03 4558.87 2323.39 4566.59 2303.61 4566.97C2283.84 4567.35 2263.01 4561.37 2236.99 4540.51C2190.95 4503.53 2165.49 4425.84 2106.86 4341.06C2050.68 4259.82 1958.84 4178.82 1785.74 4138.83C1768.81 4083.67 1768.57 4008.79 1776.97 3940.2C1897.37 3920.45 2007.33 3889.52 2092.89 3847.09Z" fill="#FFB900"/>
<path d="M490.021 3039.51C489.721 3041.28 489.441 3042.96 488.634 3046.58C482.486 3074.23 471.704 3107.36 463.478 3120.49C461.657 3123.4 458.551 3126.27 454.239 3128.93C438.109 3123.93 411.222 3111.8 388.907 3097.83C375.086 3089.18 362.388 3080.02 353.478 3072.64C349.746 3069.55 347.169 3066.37 345.118 3063.95C345.018 3063.05 344.938 3061.93 345.018 3061.74C345.438 3061.08 341.701 3058 360.76 3061.17C417.82 3070.71 459.607 3060.01 486.053 3042.34C487.422 3041.43 488.733 3040.47 490.021 3039.51Z" fill="white"/>
<path d="M3063.44 2729.06C3070.92 2738.46 3078.72 2747.8 3086.6 2757.29C3107.18 2782.01 3138.31 2809.11 3178.09 2826.95C3187.78 2831.3 3198.2 2835.02 3209.1 2837.81C3208.32 2839.07 3207.54 2840.29 3206.76 2841.37C3199.28 2851.74 3197.98 2852.21 3191.95 2851.8C3164.77 2849.96 3135.76 2834.84 3111.74 2814.28C3087.72 2793.72 3069.19 2767.14 3063.83 2755.27C3061.9 2751 3060.74 2738.13 3063.44 2729.06Z" fill="white"/>
<path d="M515.353 2674.9C515.223 2676.79 515.762 2678.28 515.582 2680.18C511.738 2722.27 499.508 2758.83 499.508 2758.83C497.814 2763.8 497.118 2769.06 497.457 2774.3C497.796 2779.55 499.163 2784.67 501.483 2789.38C503.803 2794.1 507.028 2798.31 510.975 2801.78C514.922 2805.24 519.515 2807.9 524.488 2809.59C534.53 2813.01 545.517 2812.29 555.033 2807.61C564.548 2802.92 571.813 2794.65 575.23 2784.61C575.23 2784.61 580.195 2767.21 585.504 2743.85C624.546 2780.51 652.241 2821.26 668.004 2908.81C679.135 2970.63 675.199 3008.56 661.5 3044.9C647.801 3081.25 621.794 3117.9 585.074 3168.11C552.279 3212.95 525.087 3229.43 493.062 3237.85C461.036 3246.27 420.925 3244.63 369.586 3241.78C352.287 3240.82 349.704 3237.43 349.664 3237.52C350.727 3233.99 353.96 3227.83 357.555 3224.2C359.343 3222.39 360.856 3221.92 361.266 3221.76C379.679 3222.34 407.383 3223.2 437.535 3218.01C470.036 3212.41 508.512 3199.27 531.266 3162.95C550.539 3132.18 559.758 3095.32 566.734 3063.95C573.711 3032.57 577.027 3006.88 577.027 3006.88C578.358 2996.62 575.664 2986.24 569.51 2977.93C563.356 2969.62 554.219 2964.01 544.02 2962.29C530.201 2959.96 518.391 2955.87 508.219 2950.88C505.849 2949.29 503.315 2947.95 500.66 2946.9C465.993 2926.73 454.312 2896.39 454.312 2896.39C450.618 2887.49 443.838 2880.22 435.216 2875.93C426.593 2871.63 416.708 2870.58 407.379 2872.99C355.721 2886.31 334.753 2873.95 319.605 2859.22C406.939 2831.79 465.584 2765.78 500.66 2704.61C506.507 2694.41 510.563 2684.82 515.353 2674.9Z" fill="white"/>
<path d="M3108.42 2610.51C3110.36 2616.81 3112.93 2622.97 3116.35 2628.79C3128.03 2648.66 3146.55 2664.2 3170.37 2676.97C3204.44 2695.22 3227.99 2709.77 3259.28 2715.35C3276.28 2718.39 3293.34 2717.62 3311.66 2714C3311.48 2714.41 3311.33 2714.86 3311.15 2715.27C3301.71 2737.04 3289.59 2751.53 3280.6 2756.23C3258.48 2767.81 3236.09 2765.26 3210.82 2753.93C3185.56 2742.6 3160.85 2721.37 3148.12 2706.09C3115.78 2667.15 3094.96 2627.6 3094.55 2619.18C3094.35 2614.97 3091.49 2619.32 3096.95 2615.62C3099 2614.24 3102.8 2612.4 3108.42 2610.51Z" fill="white"/>
<path d="M3494.24 2577.48C3508.11 2587.05 3523.35 2595.61 3539.83 2603.36C3601.37 2632.29 3680.45 2649.65 3767.81 2652.42C3775.89 2652.79 3784.08 2652.99 3792.37 2652.99C3889.46 2652.99 3977.52 2634.98 4044.77 2603.36C4057.24 2597.5 4069.02 2591.18 4080.02 2584.3C4058.89 2764.1 3996.34 2857.52 3955.31 2884.65C3934.33 2898.51 3883.14 2925.02 3820.88 2933.93C3758.61 2942.84 3685.66 2935.97 3609.73 2884.85C3541.98 2839.18 3509.43 2735.56 3498.65 2638.91C3496.26 2617.46 3494.98 2596.87 3494.24 2577.48Z" fill="#FFB900"/>
<path d="M3198.22 2562.27C3210.47 2566.76 3223.66 2569.22 3237.37 2569.22H3410.06C3382.81 2594.31 3352.43 2617.08 3333.28 2624.28C3298.62 2637.26 3285.29 2638.76 3273.3 2636.62C3261.31 2634.48 3242.94 2625.14 3208.11 2606.48C3193.13 2598.46 3187.15 2591.45 3185.28 2588.26C3183.4 2585.08 3183.63 2585.37 3184.27 2582.42C3185.08 2578.75 3190.3 2570.62 3198.22 2562.27Z" fill="white"/>
<path d="M1184.83 2444.73C1182.21 2444.69 1179.59 2444.91 1177.01 2445.39C1156.51 2449.18 1138.57 2457.92 1123.71 2469.82C1122.65 2470.23 1121.61 2470.69 1120.59 2471.19C1114.58 2474.99 1109.69 2480.32 1106.43 2486.64C1092.39 2503.15 1082.74 2522.9 1078.3 2543.14C1077.18 2548.27 1077.08 2553.57 1078 2558.74C1078.92 2563.92 1080.86 2568.85 1083.69 2573.28C1086.52 2577.7 1090.2 2581.52 1094.51 2584.53C1098.82 2587.53 1103.68 2589.65 1108.81 2590.78C1115.04 2592.12 1121.5 2591.96 1127.66 2590.3C1133.82 2588.65 1139.49 2585.54 1144.2 2581.25C1208.52 2667.19 1284.41 2722.4 1367.54 2751.23C1467.28 2785.81 1575.06 2783.11 1685.26 2760.93C1690.41 2759.9 1695.3 2757.86 1699.66 2754.93C1704.03 2752 1707.77 2748.24 1710.68 2743.87C1713.59 2739.49 1715.6 2734.59 1716.62 2729.43C1717.63 2724.28 1717.62 2718.97 1716.58 2713.82C1715.55 2708.67 1713.51 2703.78 1710.58 2699.42C1707.65 2695.05 1703.89 2691.31 1699.52 2688.4C1695.14 2685.49 1690.24 2683.47 1685.08 2682.46C1679.93 2681.45 1674.62 2681.46 1669.47 2682.5C1567.97 2702.92 1475.31 2703.93 1393.73 2675.64C1322.22 2650.85 1257.45 2603.95 1199.57 2521.66C1208.04 2518.15 1215.04 2511.85 1219.42 2503.8C1223.8 2495.75 1225.28 2486.45 1223.61 2477.44C1221.93 2468.34 1217.14 2460.11 1210.07 2454.14C1203 2448.18 1194.08 2444.85 1184.83 2444.73Z" fill="#070922"/>
<path d="M3792.37 2442.99C3849.43 2442.99 3900.92 2454.36 3934.69 2470.24C3951.57 2478.17 3963.81 2487.27 3970.24 2494.42C3976.66 2501.56 3977.01 2504.88 3977.01 2506.72C3977.01 2508.56 3976.66 2511.86 3970.24 2519.01C3963.81 2526.15 3951.57 2535.25 3934.69 2543.19C3900.92 2559.06 3849.43 2570.45 3792.37 2570.45C3735.3 2570.45 3683.83 2559.06 3650.06 2543.19C3633.17 2535.25 3620.94 2526.15 3614.51 2519.01C3608.09 2511.86 3607.72 2508.56 3607.72 2506.72C3607.72 2504.88 3608.09 2501.56 3614.51 2494.42C3620.94 2487.27 3633.17 2478.17 3650.06 2470.24C3683.83 2454.36 3735.3 2442.99 3792.37 2442.99Z" fill="#7D4C54"/>
<path d="M3237.37 2419.22H3424.04C3421.5 2427.54 3419.85 2436.17 3419.14 2445.04C3418.54 2446.58 3418.04 2448.15 3417.64 2449.75C3417.64 2449.75 3416 2464.83 3414.77 2489.22H3237.37C3217.61 2489.22 3202.37 2473.98 3202.37 2454.22C3202.37 2434.46 3217.61 2419.22 3237.37 2419.22Z" fill="white"/>
<path d="M3792.31 2337.99C3880.21 2337.99 3959.59 2355.25 4013.58 2380.63C4040.57 2393.31 4060.99 2408.08 4073.07 2421.51C4083.34 2432.92 4087.22 2441.96 4088.2 2450.02C4087.85 2451.4 4087.57 2452.81 4087.36 2454.22C4087.36 2457.59 4087.19 2460.69 4087.17 2464.02C4085.22 2470.69 4081.04 2478.14 4073.07 2486.99C4068.15 2492.46 4061.79 2498.15 4054.23 2503.83C4053.4 2477.85 4041.68 2454.58 4026.08 2437.25C4009.9 2419.27 3989.42 2405.75 3965.89 2394.69C3918.83 2372.56 3858.65 2360.45 3792.37 2360.45C3726.09 2360.45 3665.91 2372.56 3618.85 2394.69C3595.32 2405.75 3574.85 2419.27 3558.68 2437.25C3543.06 2454.6 3531.32 2477.91 3530.51 2503.93C3522.89 2498.22 3516.48 2492.49 3511.53 2486.99C3502.71 2477.19 3498.51 2469.11 3496.86 2461.92C3496.96 2461.42 3497.15 2458.69 3497.15 2458.69C3497.58 2454.81 3497.45 2450.89 3496.74 2447.05C3498.31 2439.74 3502.52 2431.51 3511.53 2421.51C3523.61 2408.08 3544.03 2393.31 3571.02 2380.63C3625 2355.25 3704.4 2337.99 3792.31 2337.99Z" fill="#FFB900"/>
<path d="M3197.37 2241.72C3258.28 2241.72 3299.99 2276.26 3329.94 2314.96C3336.32 2323.2 3341.79 2331.36 3346.7 2339.22H3237.37C3174.32 2339.22 3122.37 2391.18 3122.37 2454.22C3122.37 2474.16 3127.58 2492.98 3136.68 2509.41C3132.07 2514.28 3127.74 2519.51 3123.83 2525.16C3095.03 2529.11 3071.68 2536.19 3052.13 2549.43C3027.83 2565.89 3013.37 2596.62 3014.65 2623.12C3015.2 2634.58 3017.33 2645.36 3020.55 2655.68C3005.68 2667.93 2994.77 2683.71 2988.87 2699.69C2982.74 2716.27 2980.23 2733.1 2981.29 2749.51C2970.8 2742.08 2961.95 2734.31 2954.45 2726.56C2958.2 2717.24 2958.3 2706.84 2954.73 2697.45C2951.16 2688.05 2944.19 2680.35 2935.2 2675.86C2925.7 2671.14 2914.72 2670.39 2904.66 2673.76C2894.61 2677.14 2886.31 2684.37 2881.58 2693.87C2874.13 2708.85 2868.68 2715.29 2864.18 2720.57C2861.29 2716.18 2858.35 2712.07 2855.02 2704.34C2836.29 2660.79 2825.44 2573.17 2827.19 2555.64C2837.01 2457.43 2854.24 2358.73 2909.88 2281.11C2920.99 2265.65 2928 2261.32 2930.35 2260.1C2933.4 2263.1 2940.61 2273.57 2940.61 2273.57C2942.68 2278.4 2945.68 2282.77 2949.45 2286.44C2953.21 2290.11 2957.65 2293 2962.53 2294.94C2967.41 2296.89 2972.62 2297.86 2977.88 2297.79C2983.13 2297.73 2988.32 2296.62 2993.15 2294.55C2999.42 2291.84 3004.9 2287.57 3009.05 2282.14C3013.2 2276.72 3015.9 2270.32 3016.88 2263.56C3065.94 2247.44 3134.08 2241.72 3197.37 2241.72Z" fill="white"/>
<path d="M2753.26 2221.04C2757.77 2229.64 2762.42 2238.1 2767.35 2246.27C2775.8 2260.3 2784.9 2273.68 2794.69 2286.37C2798.43 2291.22 2802.36 2295.87 2806.31 2300.51C2768.13 2381.08 2755.55 2468.26 2747.6 2547.72C2745.92 2564.53 2746.3 2584.79 2748.56 2606.62C2733.34 2596.98 2718.35 2585.33 2703.6 2571.84C2709.33 2438.91 2725.77 2321.81 2753.26 2221.04Z" fill="#6D3AEF"/>
<path d="M1887.54 1966.21C1890.13 2067.84 1872 2162.59 1837.54 2239.81C1835.36 2243.16 1833.69 2246.82 1832.6 2250.66C1827.56 2261.24 1822.22 2271.49 1816.56 2281.33C1762.51 2375.22 1684.77 2434.09 1595.06 2442.13C1440.23 2456.01 1289.91 2308.59 1234.96 2089.65C1275.13 2094.07 1321.05 2094.69 1370.41 2092.13C1401.92 2357.33 1580.88 2418.59 1696.08 2316.91C1665.08 2274.01 1626.78 2232.52 1579.98 2192.62C1654.58 2191.32 1715.17 2201.42 1762.37 2222.42C1786.69 2166.15 1799.21 2093.74 1792.87 2006.74C1805.44 2002.08 1817.74 1997.25 1829.83 1992.23C1833.64 1990.68 1837.42 1989.11 1841.17 1987.52C1845.55 1988.36 1850.03 1988.46 1854.44 1987.83C1860.02 1986.83 1865.33 1984.66 1870.01 1981.45C1874.69 1978.25 1878.64 1974.08 1881.58 1969.24C1883.61 1968.25 1885.54 1967.21 1887.54 1966.21Z" fill="white"/>
<path d="M2510.94 1885.45C2509.36 1991.54 2484.06 2088.48 2440.55 2161.74C2389.52 2247.65 2317.38 2301.19 2234.38 2308.63C2202.71 2311.47 2171.32 2307.13 2140.96 2296.78C2200.73 2274.97 2247.77 2240.95 2282.37 2194.92C2251.37 2148.82 2212.07 2108.42 2167.37 2071.72C2228.67 2076.82 2281.27 2091.12 2326.27 2113.52C2345.65 2061.49 2355.21 2000.14 2355.37 1929.65C2366.77 1926.93 2378.02 1924.16 2389.06 1921.31C2433.4 1910.19 2474.58 1898.12 2510.94 1885.45Z" fill="white"/>
<path d="M4021.41 1742.17C4013.05 1743.43 4005.31 1747.3 3999.3 1753.23C3993.28 1759.16 3989.29 1766.84 3987.91 1775.18C3987.91 1775.18 3962.2 1924.68 3930.1 2007.23C3889.96 2110.42 3918.63 2197.39 3955.53 2245.92C3958.71 2250.1 3962.68 2253.62 3967.22 2256.26C3971.75 2258.91 3976.77 2260.64 3981.97 2261.35C3987.18 2262.06 3992.47 2261.73 3997.55 2260.4C4002.63 2259.06 4007.4 2256.74 4011.58 2253.56C4015.77 2250.38 4019.28 2246.41 4021.93 2241.87C4024.57 2237.33 4026.3 2232.32 4027.01 2227.11C4027.72 2221.91 4027.4 2216.61 4026.06 2211.53C4024.72 2206.45 4022.4 2201.68 4019.22 2197.5C3997.11 2168.43 3974.38 2114.02 4004.65 2036.21C4042.94 1937.76 4066.84 1788.26 4066.84 1788.26C4068.57 1777.8 4066.08 1767.08 4059.91 1758.45C4053.73 1749.83 4044.39 1744.01 4033.93 1742.27C4029.78 1741.58 4025.56 1741.54 4021.41 1742.17Z" fill="#6D3AEF" fill-opacity="0.25"/>
<path d="M3543.22 1631.94C3539.75 1632.3 3536.33 1633.11 3533.07 1634.36C3528.16 1636.23 3523.67 1639.06 3519.86 1642.67C3516.05 1646.29 3512.98 1650.61 3510.84 1655.41C3484.32 1714.86 3501.96 1773.49 3515.8 1821.8C3529.65 1870.11 3539.51 1909.52 3529.51 1938.79C3516.63 1976.52 3489 2018.21 3467.7 2061C3457.04 2082.39 3447.63 2104.44 3444.73 2129.53C3441.83 2154.62 3447.93 2184.05 3466.19 2206.78C3469.48 2210.87 3473.55 2214.28 3478.16 2216.81C3482.77 2219.33 3487.83 2220.92 3493.05 2221.49C3498.27 2222.06 3503.56 2221.59 3508.6 2220.11C3513.65 2218.64 3518.35 2216.19 3522.44 2212.89C3530.71 2206.25 3536 2196.59 3537.14 2186.04C3538.29 2175.5 3535.2 2164.93 3528.56 2156.66C3523.67 2150.59 3523.11 2148.1 3524.2 2138.71C3525.29 2129.32 3530.5 2114.33 3539.3 2096.66C3556.89 2061.33 3587.42 2016.82 3605.24 1964.65C3625.94 1904.02 3606.29 1847.14 3592.72 1799.77C3579.14 1752.4 3571.43 1715.98 3583.91 1688.03C3586.05 1683.23 3587.22 1678.06 3587.36 1672.81C3587.51 1667.56 3586.61 1662.33 3584.73 1657.42C3582.85 1652.52 3580.03 1648.03 3576.42 1644.21C3572.8 1640.4 3568.47 1637.34 3563.67 1635.2C3557.26 1632.33 3550.21 1631.21 3543.22 1631.94Z" fill="#6D3AEF" fill-opacity="0.25"/>
<path d="M1522.95 1457.19C1603.41 1455.68 1681.72 1496.71 1746.84 1571.7C1811.67 1646.37 1859.9 1754.79 1878.54 1878.93C1868.2 1884.76 1857.24 1890.45 1845.82 1896.02C1843.33 1897.21 1840.76 1898.38 1838.22 1899.55C1832.71 1902.16 1826.89 1904.66 1821.15 1907.21C1738.37 1943.13 1634.59 1971.83 1533.4 1989.38C1394.74 2013.41 1258.09 2016.11 1192.42 1999.22C1190.83 1999.05 1189.22 1998.99 1187.62 1999.04C1176.03 1995.53 1167.54 1991.59 1163.46 1988.77C1162.16 1987.87 1162.2 1987.88 1161.72 1987.5C1162.22 1986.28 1163.03 1984.56 1164.9 1981.66C1169.91 1973.89 1181.05 1961.48 1199.22 1946.91C1203.89 1943.17 1207.66 1938.42 1210.25 1933.03C1212.85 1927.63 1214.2 1921.72 1214.2 1915.74C1214.3 1790.8 1247.55 1677.89 1301.02 1596.31C1354.48 1514.73 1426 1465.3 1506.84 1458.06C1512.22 1457.58 1517.59 1457.29 1522.95 1457.19Z" fill="#6D3AEF"/>
<path d="M3835.23 1421.78C3824.64 1422.34 3814.71 1427.09 3807.62 1434.98C3751.86 1497.02 3729.56 1575.3 3724.59 1643.44C3722.11 1677.51 3723.95 1709.27 3728.93 1736.6C3733.9 1763.94 3740.37 1786.39 3755.76 1806.23C3760.6 1812.47 3761.31 1819.69 3753.22 1841.76C3745.13 1863.83 3728.09 1892.83 3712.07 1922.93C3690.19 1964.04 3685.15 2016.24 3687.01 2068.4C3688.87 2120.56 3695.14 2170.39 3726.93 2207.68C3733.82 2215.75 3743.63 2220.75 3754.2 2221.59C3764.78 2222.43 3775.25 2219.03 3783.32 2212.15C3791.39 2205.27 3796.4 2195.46 3797.24 2184.89C3798.09 2174.31 3794.69 2163.84 3787.81 2155.76C3782.51 2149.55 3768.47 2108.13 3766.95 2065.55C3765.44 2022.96 3773.95 1976.9 3782.68 1960.51C3797.26 1933.11 3816.11 1902.6 3828.32 1869.3C3840.53 1836 3845.95 1791.97 3818.98 1757.21C3818.47 1756.55 3811.25 1742.1 3807.64 1722.27C3804.02 1702.43 3802.37 1676.73 3804.38 1649.26C3808.38 1594.33 3826.99 1533.12 3867.13 1488.46C3874.22 1480.57 3877.88 1470.18 3877.31 1459.59C3876.74 1449 3871.99 1439.06 3864.1 1431.97C3860.2 1428.46 3855.63 1425.76 3850.68 1424.01C3845.73 1422.26 3840.48 1421.5 3835.23 1421.78Z" fill="#6D3AEF" fill-opacity="0.25"/>
<path d="M2164.46 1376.48C2232.4 1374.7 2298.57 1405.05 2356.41 1462.31C2418.1 1523.38 2468.32 1614.84 2493.3 1723.03C2495 1730.37 2498.73 1737.08 2504.07 1742.39C2509.42 1747.7 2516.15 1751.39 2523.5 1753.05C2548.8 1758.73 2562.23 1764.52 2573.01 1769.51C2564.97 1774.96 2554.86 1781.11 2540.82 1787.72C2538.69 1787.96 2536.59 1788.39 2534.53 1789.02C2416.43 1840.39 2156.26 1893.14 1962.76 1904.98C1963.09 1902.01 1963.09 1899.02 1962.76 1896.06C1952.83 1807.48 1928.88 1725.21 1894.18 1653.2C1935.18 1494.84 2034.24 1387.78 2150.8 1377.27C2155.35 1376.86 2159.89 1376.61 2164.42 1376.49L2164.46 1376.48Z" fill="#6D3AEF"/>
<path d="M2895.08 530.45C2921.78 551.954 2944.1 573.795 2961.53 595.411C2996.52 638.825 3010.16 677.539 3010.16 711.76C3010.16 759.707 2980.36 819.863 2909.96 880.803C2839.57 941.745 2733.72 999.35 2602.07 1047.58C2338.78 1144.03 1972.04 1204.47 1567.31 1204.47C1162.57 1204.47 795.835 1144.03 532.541 1047.58C400.895 999.35 295.046 941.745 224.65 880.803C154.253 819.863 124.455 759.707 124.455 711.76C124.455 677.567 138.136 638.833 173.146 595.411C187.828 577.201 206.701 558.875 228.01 540.686C226.085 552.319 224.729 564.167 224.729 576.467C224.729 663.48 273.351 732.284 343.869 788.811C414.389 845.337 512.204 893.59 632.15 934.278C872.039 1015.65 1200.15 1065.27 1562.42 1065.27C1924.7 1065.27 2252.81 1015.65 2492.7 934.278C2612.64 893.59 2710.46 845.337 2780.98 788.811C2851.5 732.284 2900.14 663.48 2900.14 576.467C2900.14 560.561 2898.27 545.263 2895.08 530.45Z" fill="#4BA687"/>
<path d="M327.756 491.153C345.006 507.389 365.003 522.478 387.404 536.35C456.37 579.055 551.244 615.126 667.404 645.549C899.722 706.394 1216.88 743.36 1567.31 743.36C1917.73 743.36 2234.89 706.394 2467.21 645.549C2583.37 615.126 2678.24 579.055 2747.21 536.35C2767.22 523.961 2785.29 510.588 2801.27 496.329C2825.24 526.705 2834.73 553.803 2834.73 576.467C2834.73 611.656 2810.26 659.278 2748.63 708.674C2687.01 758.068 2593.65 805.209 2477.38 844.649C2244.85 923.528 1920.44 973.067 1562.42 973.067C1204.4 973.067 880.019 923.528 647.482 844.649C531.214 805.209 437.835 758.068 376.213 708.674C314.59 659.278 290.119 611.656 290.119 576.467C290.119 552.541 300.874 523.503 327.756 491.153Z" fill="#4BA687"/>
<path d="M505.705 239.278C489.135 262.029 479.084 287.567 479.084 316.721C479.084 378.088 522.614 423.854 580.959 459.981C639.304 496.109 718.798 526.253 815.959 551.7C1010.28 602.594 1274.93 633.399 1567.37 633.399C1859.81 633.399 2124.47 602.594 2318.79 551.7C2415.95 526.253 2495.45 496.109 2553.79 459.981C2612.14 423.854 2655.67 378.088 2655.67 316.721C2655.67 287.598 2645.62 262.089 2629.08 239.356C2659.51 252.432 2687.29 265.791 2709.36 279.454C2767.91 315.709 2789.03 349.518 2789.03 371.7C2789.03 393.882 2767.91 427.711 2709.36 463.967C2650.81 500.222 2561.15 535.257 2449.3 564.553C2225.59 623.142 1912.76 660.061 1567.31 660.061C1221.86 660.061 909.021 623.142 685.314 564.553C573.459 535.257 483.807 500.222 425.256 463.967C366.706 427.711 345.588 393.882 345.588 371.7C345.588 349.518 366.706 315.709 425.256 279.454C447.364 265.764 475.207 252.378 505.705 239.278Z" fill="#4BA687"/>
<path d="M2429.47 204.161C2463.65 217.646 2492.98 231.692 2515.92 245.899C2563.84 275.572 2579.08 302.149 2579.08 316.721C2579.08 331.115 2564.07 357.231 2517.52 386.467L2429.47 204.161Z" fill="#4BA687"/>
<path d="M2331.86 186.018L2445.94 422.208C2405.14 439.451 2356.91 455.965 2300.86 470.645C2115.16 519.282 1854.82 550.04 1567.37 550.04C1547.58 550.04 1528.27 549.55 1508.75 549.26L2331.86 186.018Z" fill="#4BA687"/>
<path d="M1567.37 83.3994C1818.24 83.3994 2048.41 106.824 2226.39 145.118L1326.25 542.364C1135.94 530.48 965.846 505.211 833.869 470.645C741.017 446.327 666.75 417.213 618.83 387.54C570.909 357.867 555.666 331.293 555.666 316.721C555.666 302.149 570.909 275.572 618.83 245.899C666.75 216.226 741.017 187.113 833.869 162.794C1019.57 114.157 1279.91 83.3994 1567.37 83.3994Z" fill="#4BA687"/>
</g>
<defs>
<clipPath id="clip0_102_1051">
<rect width="4166.92" height="4949.7" fill="white" transform="translate(0.429688)"/>
</clipPath>
</defs>
</svg>
