<?xml version="1.0" encoding="utf-8"?>
<!-- Generator: Adobe Illustrator 23.1.0, SVG Export Plug-In . SVG Version: 6.00 Build 0)  -->
<svg version="1.1" id="Layer_1" xmlns="http://www.w3.org/2000/svg" xmlns:xlink="http://www.w3.org/1999/xlink" x="0px" y="0px"
	 viewBox="0 0 65 65" style="enable-background:new 0 0 65 65;" xml:space="preserve">
<style type="text/css">
	.st0{fill:#7537F8;}
</style>
<g>
	<g>
		<circle class="st0" cx="24" cy="11.6" r="11.6"/>
	</g>
	<path class="st0" d="M23.2,46.4c0,1.9,0.2,3.7,0.7,5.5c0.5,2-1.1,3.8-3.1,3.8H5.7c-3.2,0-5.7-2.6-5.7-5.8c0-12.2,10.7-22.1,24-22.1
		c0.4,0,0.8,0,1.2,0c2.5,0.1,3.9,2.9,2.4,5C24.8,36.7,23.2,41.4,23.2,46.4z"/>
	<path class="st0" d="M46.4,27.9c-10.3,0-18.6,8.3-18.6,18.6S36.2,65,46.4,65S65,56.7,65,46.4S56.7,27.9,46.4,27.9z M57.2,43.1
		l-11,10.9c-0.6,0.6-1.4,0.9-2.2,0.9c-0.8,0-1.6-0.3-2.2-0.9l-6.3-6.3c-1.2-1.2-1.2-3.2,0-4.4c1.2-1.2,3.2-1.2,4.4,0l4.1,4.1
		l8.8-8.8c1.2-1.2,3.2-1.2,4.4,0C58.5,40,58.5,41.9,57.2,43.1z"/>
</g>
</svg>
