<svg width="50" height="50" viewBox="0 0 50 50" fill="none" xmlns="http://www.w3.org/2000/svg">
<path d="M18.4617 17.8462C23.3897 17.8462 27.3847 13.8512 27.3847 8.92308C27.3847 3.995 23.3897 0 18.4617 0C13.5336 0 9.53857 3.995 9.53857 8.92308C9.53857 13.8512 13.5336 17.8462 18.4617 17.8462Z" fill="#7537F8"/>
<path d="M18.4617 17.8462C23.3897 17.8462 27.3847 13.8512 27.3847 8.92308C27.3847 3.995 23.3897 0 18.4617 0C13.5336 0 9.53857 3.995 9.53857 8.92308C9.53857 13.8512 13.5336 17.8462 18.4617 17.8462Z" fill="url(#paint0_linear_602_334)"/>
<path d="M17.8462 35.6925C17.8462 37.154 18 38.5386 18.3846 39.9232C18.7692 41.4617 17.5385 42.8463 16 42.8463H4.38462C1.92308 42.8463 0 40.8463 0 38.3848C0 29.0002 8.23077 21.3848 18.4615 21.3848C18.7692 21.3848 19.0769 21.3848 19.3846 21.3848C21.3077 21.4617 22.3846 23.6155 21.2308 25.2309C19.0769 28.2309 17.8462 31.8463 17.8462 35.6925Z" fill="#7537F8"/>
<path d="M17.8462 35.6925C17.8462 37.154 18 38.5386 18.3846 39.9232C18.7692 41.4617 17.5385 42.8463 16 42.8463H4.38462C1.92308 42.8463 0 40.8463 0 38.3848C0 29.0002 8.23077 21.3848 18.4615 21.3848C18.7692 21.3848 19.0769 21.3848 19.3846 21.3848C21.3077 21.4617 22.3846 23.6155 21.2308 25.2309C19.0769 28.2309 17.8462 31.8463 17.8462 35.6925Z" fill="url(#paint1_linear_602_334)"/>
<path d="M35.6925 21.4614C27.7694 21.4614 21.3848 27.846 21.3848 35.7691C21.3848 43.6922 27.8463 49.9999 35.6925 49.9999C43.5386 49.9999 50.0002 43.6153 50.0002 35.6922C50.0002 27.7691 43.6155 21.4614 35.6925 21.4614ZM44.0002 33.1537L35.5386 41.5383C35.0771 41.9999 34.4617 42.2307 33.8463 42.2307C33.2309 42.2307 32.6155 41.9999 32.154 41.5383L27.3078 36.6922C26.3848 35.7691 26.3848 34.2307 27.3078 33.3076C28.2309 32.3845 29.7694 32.3845 30.6925 33.3076L33.8463 36.4614L40.6155 29.6922C41.5386 28.7691 43.0771 28.7691 44.0002 29.6922C45.0002 30.7691 45.0002 32.2307 44.0002 33.1537Z" fill="#7537F8"/>
<path d="M35.6925 21.4614C27.7694 21.4614 21.3848 27.846 21.3848 35.7691C21.3848 43.6922 27.8463 49.9999 35.6925 49.9999C43.5386 49.9999 50.0002 43.6153 50.0002 35.6922C50.0002 27.7691 43.6155 21.4614 35.6925 21.4614ZM44.0002 33.1537L35.5386 41.5383C35.0771 41.9999 34.4617 42.2307 33.8463 42.2307C33.2309 42.2307 32.6155 41.9999 32.154 41.5383L27.3078 36.6922C26.3848 35.7691 26.3848 34.2307 27.3078 33.3076C28.2309 32.3845 29.7694 32.3845 30.6925 33.3076L33.8463 36.4614L40.6155 29.6922C41.5386 28.7691 43.0771 28.7691 44.0002 29.6922C45.0002 30.7691 45.0002 32.2307 44.0002 33.1537Z" fill="url(#paint2_linear_602_334)"/>
<defs>
<linearGradient id="paint0_linear_602_334" x1="2" y1="45" x2="39" y2="1.5" gradientUnits="userSpaceOnUse">
<stop stop-color="#7537F8"/>
<stop offset="1" stop-color="#37D5F8"/>
</linearGradient>
<linearGradient id="paint1_linear_602_334" x1="5.74396e-07" y1="43" x2="21.7201" y2="18.2544" gradientUnits="userSpaceOnUse">
<stop stop-color="#7537F8"/>
<stop offset="1" stop-color="#37D5F8"/>
</linearGradient>
<linearGradient id="paint2_linear_602_334" x1="18.5" y1="50" x2="43.3895" y2="8.93304" gradientUnits="userSpaceOnUse">
<stop stop-color="#7537F8"/>
<stop offset="1" stop-color="#37D5F8"/>
</linearGradient>
</defs>
</svg>
