<?xml version="1.0" encoding="UTF-8"?>
<svg width="49px" height="37px" viewBox="0 0 49 37" version="1.1" xmlns="http://www.w3.org/2000/svg" xmlns:xlink="http://www.w3.org/1999/xlink">
    <!-- Generator: Sketch 52.5 (67469) - http://www.bohemiancoding.com/sketch -->
    <title>Fill 251</title>
    <desc>Created with Sketch.</desc>
    <g id="rv1" stroke="none" stroke-width="1" fill="none" fill-rule="evenodd">
        <g id="Home-(1680px)-[XL-/-15&quot;-Laptop]-Copy" transform="translate(-1154.000000, -1847.000000)" fill="#FFFFFF">
            <g id="Our-Services" transform="translate(0.000000, 1678.000000)">
                <g id="2-Picture-Copy" transform="translate(1154.000000, 169.000000)">
                    <path d="M41.011,30.331 L8.881,30.331 C7.071,30.331 6.191,28.111 7.511,26.871 L19.471,15.621 C20.241,14.901 21.441,14.901 22.211,15.621 L31.281,24.151 C32.061,24.891 33.301,24.871 34.061,24.111 L35.431,22.741 C36.211,21.961 37.471,21.961 38.251,22.741 L42.431,26.921 C43.691,28.181 42.791,30.331 41.011,30.331 Z M38.841,6.331 C41.051,6.331 42.841,8.121 42.841,10.331 C42.841,12.541 41.051,14.331 38.841,14.331 C36.631,14.331 34.841,12.541 34.841,10.331 C34.841,8.121 36.631,6.331 38.841,6.331 Z M43.841,0.331 L5.841,0.331 C3.081,0.331 0.841,2.571 0.841,5.331 L0.841,31.331 C0.841,34.091 3.081,36.331 5.841,36.331 L43.841,36.331 C46.601,36.331 48.841,34.091 48.841,31.331 L48.841,5.331 C48.841,2.571 46.601,0.331 43.841,0.331 Z" id="Fill-251"></path>
                </g>
            </g>
        </g>
    </g>
</svg>