<?xml version="1.0" encoding="utf-8"?>
<!-- Generator: Adobe Illustrator 22.0.0, SVG Export Plug-In . SVG Version: 6.00 Build 0)  -->
<svg version="1.1" id="Layer_1" xmlns="http://www.w3.org/2000/svg" xmlns:xlink="http://www.w3.org/1999/xlink" x="0px" y="0px"
	 viewBox="0 0 103 103" style="enable-background:new 0 0 103 103;" xml:space="preserve">
<style type="text/css">
	.st0{fill:#5954D9;stroke:#5954D9;stroke-width:4;}
	.st1{fill:#FEF4E6;}
</style>
<title>visual-identity-icon</title>
<desc>Created with Sketch.</desc>
<g id="Service-cards">
	<g id="Cards" transform="translate(-1097.000000, -141.000000)">
		<g id="Card-3" transform="translate(952.000000, 103.000000)">
			<g id="visual-identity-icon" transform="translate(147.000000, 40.000000)">
				<circle id="Circle" class="st0" cx="49.5" cy="49.5" r="49.5"/>
				<path id="Fill-251" class="st1" d="M66,62.3H33.9c-1.8,0-2.7-2.2-1.4-3.5l12-11.2c0.8-0.7,2-0.7,2.7,0l9.1,8.5
					c0.8,0.7,2,0.7,2.8,0l1.4-1.4c0.8-0.8,2-0.8,2.8,0l4.2,4.2C68.7,60.2,67.8,62.3,66,62.3z M63.8,38.3c2.2,0,4,1.8,4,4s-1.8,4-4,4
					c-2.2,0-4-1.8-4-4C59.8,40.1,61.6,38.3,63.8,38.3z M68.8,32.3h-38c-2.8,0-5,2.2-5,5v26c0,2.8,2.2,5,5,5h38c2.8,0,5-2.2,5-5v-26
					C73.8,34.6,71.6,32.3,68.8,32.3z"/>
			</g>
		</g>
	</g>
</g>
</svg>
