<?xml version="1.0" encoding="utf-8"?>
<!-- Generator: Adobe Illustrator 22.0.0, SVG Export Plug-In . SVG Version: 6.00 Build 0)  -->
<svg version="1.1" id="Layer_1" xmlns="http://www.w3.org/2000/svg" xmlns:xlink="http://www.w3.org/1999/xlink" x="0px" y="0px"
	 viewBox="0 0 103 103" style="enable-background:new 0 0 103 103;" xml:space="preserve">
<style type="text/css">
	.st0{fill:#28C097;stroke:#28C097;stroke-width:4;}
	.st1{fill:#FEF4E6;}
</style>
<title>web-development-icon</title>
<desc>Created with Sketch.</desc>
<g id="Service-cards">
	<g id="Cards" transform="translate(-2344.000000, -141.000000)">
		<g id="Card-6" transform="translate(2201.000000, 103.000000)">
			<g id="web-development-icon" transform="translate(145.000000, 40.000000)">
				<circle id="Circle" class="st0" cx="49.5" cy="49.5" r="49.5"/>
				<path id="Fill-79" class="st1" d="M64,55c0,0.5-0.5,1-1,1H33c-0.5,0-1-0.5-1-1V37c0-0.5,0.5-1,1-1h30c0.5,0,1,0.5,1,1V55z
					 M63,31H33c-3.3,0-6,2.7-6,6v21c0,3.3,2.7,6,6,6h12.5v4h-5c-1.4,0-2.5,1.1-2.5,2.5s1.1,2.5,2.5,2.5h15c1.4,0,2.5-1.1,2.5-2.5
					S56.9,68,55.5,68h-5v-4H63c3.3,0,6-2.7,6-6V37C69,33.7,66.3,31,63,31z"/>
			</g>
		</g>
	</g>
</g>
</svg>
