<?xml version="1.0" encoding="utf-8"?>
<!-- Generator: Adobe Illustrator 22.0.0, SVG Export Plug-In . SVG Version: 6.00 Build 0)  -->
<svg version="1.1" id="Layer_1" xmlns="http://www.w3.org/2000/svg" xmlns:xlink="http://www.w3.org/1999/xlink" x="0px" y="0px"
	 viewBox="0 0 1023.6 237.9" style="enable-background:new 0 0 1023.6 237.9;" xml:space="preserve">
<style type="text/css">
	.st0{fill:#FFFFFF;}
</style>
<g>
	<path class="st0" d="M56.2,29.2l-2.4-11.6c-1-4.1-1.8-5.4-17.5-5.5h-0.8v59.1c0,0.9,0.7,1.2,2.9,1.4l7.5,0.7l0.3,3.8H15.8l0.3-3.8
		l7.5-0.7c2.1-0.2,2.9-0.7,2.9-1.5V12h-0.8C10.6,12,9.2,12.7,8,16.8L5,29.2H0L1.9,8H61v21.2H56.2z"/>
	<path class="st0" d="M98.7,77l0.3-3.8l4.5-0.4c2.3-0.1,2.8-0.7,2.8-1.7V47.1c0-10.9-4-14.3-10.6-14.3c-5.1,0-10.1,3-13.1,5.5v32.9
		c0,0.9,0.4,1.4,3,1.5l5.1,0.4L91,77H67.1l0.3-3.8l4.4-0.4c2-0.1,2.8-0.6,2.8-1.7V11.5c0-1.4-0.3-2.1-1.2-2.3l-7.7-2.4L66,4l16.6-4
		v34h0.6c5.6-4.8,11.5-8,17.7-8c3.3,0,6.9,1.1,9.3,3.5c2.9,2.9,4.1,7,4.1,12.3v29.3c0,0.9,0.4,1.4,3.3,1.7l4.3,0.4l0.3,3.8H98.7z"/>
	<path class="st0" d="M147.9,78.6c-12.8,0-22.2-10.4-22.2-24.7c0-16.1,11.6-27.7,25.3-27.7c10.4,0,17,6.5,17,16
		c0,1.9-0.2,4.3-0.6,5.9l-33.3-0.4c-0.1,0.4-0.1,2.2-0.1,2.7c0,12.5,7.3,21.4,17.3,21.4c5.1,0,10.2-2,14.1-6.7l2.2,1.3
		C163.8,74,156.5,78.6,147.9,78.6z M149,29.9c-6.1,0-12.6,5.3-14.4,14.3c0,0,25-0.1,24.5-0.1C159.7,35.5,155.7,29.9,149,29.9z"/>
	<path class="st0" d="M265,77l0.3-3.8l4.3-0.4c2.3-0.1,2.8-0.7,2.8-1.7V46.7c0-10.7-4.4-13.9-10.2-13.9c-4.5,0-9.3,2.9-12.4,5.6
		c0.1,0.8,0.1,5.7,0.1,6.5v26.2c0,0.9,0.3,1.4,3.2,1.7l4.6,0.4l0.3,3.8h-23.5l0.3-3.8l4.3-0.4c2.3-0.1,2.8-0.7,2.8-1.7V46.7
		c0-10.7-4.4-13.9-10.2-13.9c-4.5,0-9.3,2.9-12.3,5.4v33c0,0.9,0.4,1.4,3,1.5l5.3,0.4l0.3,3.8h-24.1l0.3-3.8l4.4-0.4
		c2-0.1,2.8-0.6,2.8-1.7v-31c0-5.3-0.7-6-3.6-6.7l-4.4-0.7l0.1-3l15.9-3.6v8h0.3c5.4-4.6,11.2-8,16.9-8c3.2,0,6.6,1.1,8.9,3.3
		c1.4,1.4,2.5,3.3,3.2,5.4h0.4c5.5-5.1,11.7-8.7,17.6-8.7c3.4,0,6.9,1.1,9.3,3.5c2.8,2.8,4.1,6.9,4.1,12v29.5c0,0.9,0.3,1.4,3.2,1.7
		l4.3,0.4l0.3,3.8H265z"/>
	<path class="st0" d="M294.8,77l0.3-3.8l4.6-0.4c1.9-0.1,2.8-0.6,2.8-1.7v-31c0-5.3-0.7-6-3.8-6.7l-4.4-0.7l0.2-3l15.8-3.6v45.2
		c0,0.9,0.6,1.4,3.1,1.5l4.6,0.4l0.3,3.8H294.8z M305.3,16.1c-3.8,0-5.6-3-5.6-6.2s1.9-6.2,5.6-6.2c3.8,0,5.6,2.9,5.6,6.2
		C310.9,13.1,309,16.1,305.3,16.1z"/>
	<path class="st0" d="M375.5,76.7l-16.5,2v-7.4h-0.3c-3.6,4-9.2,7.3-15.6,7.3c-11.6,0-20.7-10.3-20.7-24.7
		c0-15.1,10.6-27.4,26.4-27.4c3.2,0,7,0.9,9.9,2h0.2V9.1c0-1.1-0.2-1.8-1-2l-8.6-2l0.4-2.7l17-2.4v70.2c0,1.1,0.2,1.9,1.1,2.1
		l7.8,1.8L375.5,76.7z M359,37.2c-3.3-3.3-7.3-6.4-12.7-6.4c-9.1,0-15.2,8.2-15.2,20.1c0,12.7,6.3,21,15.8,21
		c5.1,0,8.9-2.2,12.2-5.1V37.2z"/>
	<path class="st0" d="M403.6,78.7c-3.3,0-7.7-0.9-10.7-2h-0.2v21.8c0,0.9,0.4,1.4,3.1,1.5l5.7,0.4l0.3,3.8h-24.7l0.3-3.8l4.5-0.4
		c2-0.1,2.8-0.6,2.8-1.7V39.9c0-5.1-0.6-5.7-3.4-6.5l-4.6-0.7l0.2-3l15.8-3.6v8.4h0.4c4-4.3,9.7-7.8,16-7.8c12,0,20,10.4,20,24.1
		C429.1,65.6,419.4,78.7,403.6,78.7z M405.8,33.3c-5.5,0-10.2,3.2-13.1,6.6v28.4c3.4,3.2,7.4,6.1,12.7,6.1c8.4,0,15.2-8.2,15.2-20.6
		C420.6,41.4,414.7,33.3,405.8,33.3z"/>
	<path class="st0" d="M460.8,78.7c-14.5,0-24.1-11.2-24.1-26.1c0-15.1,11.4-26.5,25.6-26.5c14.1,0,24,10.6,24,25.2
		C486.3,66.6,475.3,78.7,460.8,78.7z M471.8,34.8c-2.1-2.1-5.6-4.5-10.5-4.5c-9.1,0-15.8,7.8-15.8,19.9c0,8.2,2,15.6,6.1,19.8
		c2,2.1,5.4,4.4,10.4,4.4c8.8,0,15.8-7.7,15.8-19.8C477.7,46.5,475.9,39.1,471.8,34.8z"/>
	<path class="st0" d="M491.3,77l0.3-3.8l4.6-0.4c1.9-0.1,2.8-0.6,2.8-1.7v-31c0-5.3-0.7-6-3.8-6.7l-4.4-0.7l0.2-3l15.8-3.6v45.2
		c0,0.9,0.6,1.4,3.1,1.5l4.6,0.4l0.3,3.8H491.3z M501.8,16.1c-3.8,0-5.6-3-5.6-6.2s1.9-6.2,5.6-6.2c3.8,0,5.6,2.9,5.6,6.2
		C507.4,13.1,505.5,16.1,501.8,16.1z"/>
	<path class="st0" d="M553.2,77l0.3-3.8l4.5-0.4c2.3-0.1,2.8-0.7,2.8-1.7V47.1c0-10.9-4-14.3-10.6-14.3c-5.1,0-10.1,3-13.1,5.5v32.9
		c0,0.9,0.4,1.4,3,1.5l5.1,0.4l0.3,3.8h-23.9l0.3-3.8l4.4-0.4c2-0.1,2.8-0.6,2.8-1.7V39.9c0-5.1-0.6-5.7-3.4-6.5l-4.6-0.7l0.1-3
		l15.9-3.6v8h0.6c5.6-4.8,11.5-8,17.7-8c3.3,0,6.9,1.1,9.3,3.5c2.9,2.9,4.1,7,4.1,12.3v29.3c0,0.9,0.4,1.4,3.3,1.7l4.4,0.4l0.3,3.8
		H553.2z"/>
	<path class="st0" d="M597.6,78.7c-7.5,0-12.7-4.2-12.6-14.4l0.7-31.2l-8.7-0.4l0.1-3.2l7.5-4.5l5.2-7l3.9,0.4l-0.1,9.4h17.9
		l-0.8,5.1h-17.1l-0.7,29.4c-0.2,7.3,3,10.1,8.8,10.1c3,0,6.3-1.2,9.3-2.9l0.7,2.9C608,76,602.4,78.7,597.6,78.7z"/>
	<path class="st0" d="M669.5,78.7c-3.2,0-9.2-1.2-12.3-2.5H657l-5,3.2h-1.2V11.3c0-1.2-0.3-1.9-1.1-2.1l-8.3-2.4l0.3-2.8l16.9-4
		v34.5h0.4c4-4.3,9.7-7.8,16-7.8c12,0,20,10.4,20,24.1C695.1,65.6,685.3,78.7,669.5,78.7z M671.8,33.3c-5.5,0-10.2,3.2-13.1,6.6
		v28.4c3.4,3.2,7.4,6.1,12.7,6.1c8.5,0,15.2-8.2,15.2-20.6C686.6,41.4,680.6,33.3,671.8,33.3z"/>
	<path class="st0" d="M724.9,78.6c-12.8,0-22.2-10.4-22.2-24.7c0-16.1,11.6-27.7,25.3-27.7c10.4,0,17,6.5,17,16
		c0,1.9-0.2,4.3-0.6,5.9l-33.3-0.4c-0.1,0.4-0.1,2.2-0.1,2.7c0,12.5,7.3,21.4,17.3,21.4c5.1,0,10.2-2,14.1-6.7l2.2,1.3
		C740.8,74,733.5,78.6,724.9,78.6z M726,29.9c-6.1,0-12.6,5.3-14.4,14.3c0,0,25-0.1,24.5-0.1C736.7,35.5,732.6,29.9,726,29.9z"/>
	<path class="st0" d="M771.2,78.7c-7.5,0-12.7-4.2-12.6-14.4l0.7-31.2l-8.7-0.4l0.1-3.2l7.5-4.5l5.2-7l3.9,0.4l-0.1,9.4H785
		l-0.8,5.1h-17.1l-0.7,29.4c-0.2,7.3,3,10.1,8.8,10.1c3,0,6.3-1.2,9.3-2.9l0.7,2.9C781.7,76,776.1,78.7,771.2,78.7z"/>
	<path class="st0" d="M868.7,31.4l-3.4,0.6c-2.8,0.4-3.5,1.2-5.2,6.1l-12.8,39.8h-5.4l-12-32.2l-12.7,32.2h-5.4l-14.6-42.4
		c-0.8-2.3-1.5-3-3.9-3.3l-3.3-0.6l-0.3-3.8h22.1l-0.3,3.6l-3.6,0.6c-1.8,0.2-2.8,1.3-2.1,3.2l11.2,33.1L827.4,40l-1.7-4.6
		c-0.9-2.3-1.7-2.9-4.2-3.2l-3.4-0.8l-0.3-3.6h22.4l-0.3,3.6l-3.5,0.6c-1.9,0.2-2.9,1.2-2.2,3.2l11.9,33.4l9.3-30.4
		c1.1-4,1-5.7-2.4-6.2l-3.4-0.6l-0.3-3.6H869L868.7,31.4z"/>
	<path class="st0" d="M891.7,78.6c-12.8,0-22.2-10.4-22.2-24.7c0-16.1,11.6-27.7,25.3-27.7c10.4,0,17,6.5,17,16
		c0,1.9-0.2,4.3-0.6,5.9L878,47.5c-0.1,0.4-0.1,2.2-0.1,2.7c0,12.5,7.3,21.4,17.3,21.4c5.1,0,10.2-2,14.1-6.7l2.2,1.3
		C907.6,74,900.3,78.6,891.7,78.6z M892.8,29.9c-6.1,0-12.6,5.3-14.4,14.3c0,0,25-0.1,24.5-0.1C903.5,35.5,899.5,29.9,892.8,29.9z"
		/>
	<path class="st0" d="M941.5,78.6c-12.8,0-22.2-10.4-22.2-24.7c0-16.1,11.6-27.7,25.3-27.7c10.4,0,17,6.5,17,16
		c0,1.9-0.2,4.3-0.6,5.9l-33.3-0.4c-0.1,0.4-0.1,2.2-0.1,2.7c0,12.5,7.3,21.4,17.3,21.4c5.1,0,10.2-2,14.1-6.7l2.2,1.3
		C957.4,74,950.1,78.6,941.5,78.6z M942.6,29.9c-6.1,0-12.6,5.3-14.4,14.3c0,0,25-0.1,24.5-0.1C953.3,35.5,949.3,29.9,942.6,29.9z"
		/>
	<path class="st0" d="M1000.1,77l0.3-3.8l4.5-0.4c2.3-0.1,2.8-0.7,2.8-1.7V47.1c0-10.9-4-14.3-10.6-14.3c-5.1,0-10.1,3-13.1,5.5
		v32.9c0,0.9,0.4,1.4,3,1.5l5.1,0.4l0.3,3.8h-23.9l0.3-3.8l4.4-0.4c2-0.1,2.8-0.6,2.8-1.7V39.9c0-5.1-0.6-5.7-3.4-6.5l-4.6-0.7
		l0.1-3l15.9-3.6v8h0.6c5.6-4.8,11.5-8,17.7-8c3.3,0,6.9,1.1,9.3,3.5c2.9,2.9,4.1,7,4.1,12.3v29.3c0,0.9,0.4,1.4,3.3,1.7l4.4,0.4
		l0.3,3.8H1000.1z"/>
	<path class="st0" d="M31.9,204.1c-4.3,4.3-10.2,7.4-15.7,7.4c-6.1,0-15.1-5.6-14.7-7.4l12-59.7c0.2-1.2,0-2-0.8-2.2l-7.6-2.4
		l0.3-2.8l18-4.4l-6.1,25.7l-6.5,26.2h1c7-13.3,14.6-26.1,21.3-26.1c5.9,0,9.7,7.3,9.7,15.6C43,185.2,38.7,197.5,31.9,204.1z
		 M29.9,165.1c-3.8,0-9.1,8.2-19.6,26.6l-2.1,9.1c3.5,3.4,9.1,6.7,12.7,6.7c1.5,0,3.4-1,5-2.7c4.8-4.8,9.3-19,9.3-28.8
		C35.2,170.2,33.5,165.2,29.9,165.1z"/>
	<path class="st0" d="M63.5,158.6c2.2,0,7.7,1.9,7.7,3.5c0,2.9-3.4,13.5-5.7,21.2c-2.1,6.7-4.4,13.7-4.4,16.2c0,2.5,2.7,5,5.3,5
		c3.3,0,11.2-12.9,20.3-31.3l2.7-13.6l8.1,0.6l-3.9,16.2c0,0-5.2,25.5-6,28.1l3.3,1l8.7-7.4l1.9,2c-2.7,4.8-9.4,11.2-13.6,11.2
		c-2.3,0-7.7-1.9-7.7-3.5c0-2.3,4.5-19.1,6.9-28.2h-1c-6.7,14.1-12.6,24-16.4,28c-2.4,2.5-5,3.8-8,3.8c-4.1,0-8-3.3-8-7.7
		c0-3.6,2.3-12.2,4.6-20l5.4-18.3l-3.3-0.6l-8.5,8.8l-1.9-2C52.8,166.3,59.3,158.6,63.5,158.6z"/>
	<path class="st0" d="M138.4,171.7c-2.4,0-4-2-4-4.3c0-0.9,0.2-1.8,0.6-2.5c-2.7-1.1-6-2.2-9.3-2.3c-2.9,0.9-5.7,4.4-5.9,7.6
		c-0.3,4.2,3.5,7.6,8.4,12.3c3.8,3.6,9.9,9.5,9.5,15.2c-0.6,8.5-9.8,13.6-17.5,13.6c-7.8,0-14.1-2.1-14.1-8.1c0-3,2.1-5.2,5.2-5.2
		c2.4,0,4,2,4,4.3c0,0.8-0.3,1.8-0.7,2.4c2.8,1.2,6.9,2.3,10.4,2.5c2.9-1.2,5.9-5,6.1-8.1c0.2-4.1-4-8-8.5-12
		c-3.9-3.6-9.8-9.4-9.5-15.2c0.7-8.9,10.1-13.4,17.2-13.4c7,0,13.1,1.7,13.1,7.8C143.5,169.5,141.4,171.7,138.4,171.7z"/>
	<path class="st0" d="M158.4,211.3c-2.2,0-7.8-2.1-7.5-3.5l11.3-42.5l-3.3-0.6l-8.5,8.8l-1.9-2c2.5-5.2,9.1-12.9,13.3-12.9
		c2.3,0,8.5,1.9,8.1,3.5l-11.7,42.4l3.3,1l8.8-7.4l1.9,2C169.4,204.9,162.6,211.3,158.4,211.3z M170.5,148.7c-3.5,0-5.5-2.4-5.5-5.6
		c0-4.1,2.8-7.2,5.6-7.2c3.4,0,5.4,2.4,5.4,5.6C176,145.6,173.4,148.7,170.5,148.7z"/>
	<path class="st0" d="M213.6,211.3c-2.2,0-7.5-1.9-7.5-3.5c0-3,3.4-13.5,5.7-21.2c2-6.7,4.3-13.8,4.3-16.4c0-2.4-2.7-4.9-5.3-4.9
		c-3.3,0-11.2,12.9-20.2,31.3l-2.5,13.6l-8.1-0.6l3.8-16.2l5.9-27.7l-3.2-0.7l-8.7,8.5l-1.8-2c2.5-5.2,9.1-12.9,13.3-12.9
		c2.2,0,8,1.9,8,3.5c0,2.3-4.6,19.1-7,28.2h1.1c6.7-14.1,12.5-24,16.2-28c2.4-2.5,4.9-3.8,7.6-3.8c4.1,0,8.3,3.3,8.3,7.7
		c0,3.6-2.2,12.2-4.6,20c-2.1,7.1-4.2,14.5-5.5,18.2l3.3,1l8.8-7.4l1.9,2C224.7,204.9,217.8,211.3,213.6,211.3z"/>
	<path class="st0" d="M241.8,192.8c0,8.3,4.8,12.6,9.9,12.6c3.2,0,7.7-2.9,13.3-7.1l1.5,2c-5.4,6.3-11.2,10.9-17.8,10.9
		c-8.4,0-14.7-7.4-14.7-17.1c0-17.8,12.5-35.6,25.6-35.6c7.1,0,11.6,4.6,11.6,9.8c0,7.1-6.5,10.1-29.4,22
		C241.8,191.2,241.8,192,241.8,192.8z M242.2,187.2C260,177.7,264,174,264,168.5c0-3-5.5-5.2-8.2-5.2c-2.3,0-4,1-5.1,2.1
		c-2.8,2.9-6.7,11-8.7,21.7L242.2,187.2z"/>
	<path class="st0" d="M304.7,171.7c-2.4,0-4-2-4-4.3c0-0.9,0.2-1.8,0.6-2.5c-2.7-1.1-6-2.2-9.3-2.3c-2.9,0.9-5.7,4.4-5.9,7.6
		c-0.3,4.2,3.5,7.6,8.4,12.3c3.8,3.6,9.9,9.5,9.5,15.2c-0.6,8.5-9.8,13.6-17.5,13.6c-7.8,0-14.1-2.1-14.1-8.1c0-3,2.1-5.2,5.2-5.2
		c2.4,0,4,2,4,4.3c0,0.8-0.3,1.8-0.7,2.4c2.8,1.2,6.9,2.3,10.4,2.5c2.9-1.2,5.9-5,6.1-8.1c0.2-4.1-4-8-8.5-12
		c-3.9-3.6-9.8-9.4-9.5-15.2c0.7-8.9,10.1-13.4,17.2-13.4c7,0,13.1,1.7,13.1,7.8C309.8,169.5,307.7,171.7,304.7,171.7z"/>
	<path class="st0" d="M342.9,171.7c-2.4,0-4-2-4-4.3c0-0.9,0.2-1.8,0.6-2.5c-2.7-1.1-6-2.2-9.3-2.3c-2.9,0.9-5.7,4.4-5.9,7.6
		c-0.3,4.2,3.5,7.6,8.4,12.3c3.8,3.6,9.9,9.5,9.5,15.2c-0.6,8.5-9.8,13.6-17.5,13.6c-7.8,0-14.1-2.1-14.1-8.1c0-3,2.1-5.2,5.2-5.2
		c2.4,0,4,2,4,4.3c0,0.8-0.3,1.8-0.7,2.4c2.8,1.2,6.9,2.3,10.4,2.5c2.9-1.2,5.9-5,6.1-8.1c0.2-4.1-4-8-8.5-12
		c-3.9-3.6-9.8-9.4-9.5-15.2c0.7-8.9,10.1-13.4,17.2-13.4c7,0,13.1,1.7,13.1,7.8C348,169.5,345.9,171.7,342.9,171.7z"/>
	<path class="st0" d="M439.4,211.4c-7.4,0-11.8-4.8-16.2-14.1c-5.6,7.3-13.8,14-23.6,14c-12.4,0-19.6-8.6-19.6-18.1
		c0-9.2,7.1-17,16.2-20.6c-6.3-3-10.6-8.5-10.6-15.6c0-9.5,8.1-17.9,20.2-17.9c10.8,0,17.2,7.1,17.2,14.7c0,6.7-4.3,13.4-14.1,17.3
		c6.9,3,13.6,8.9,17.5,15.6c0,0,7.7-10.6,7.8-12.5c0.1-1.2-0.8-1.9-2.4-2.1l-3.9-0.6l-0.2-3.6h23.1l-0.4,3.6l-3.5,0.6
		c-2.9,0.8-6.1,2.4-8.4,5.6c0,0-9.8,12.5-9.8,12.6c5.1,10.2,8.4,14.4,14,14.4c2.8,0,5.7-1.7,9-3.5l1.7,2.9
		C448.9,208.6,444.6,211.4,439.4,211.4z M399.6,174.6c-6.9,3.5-11.4,8.8-11.4,15.6c-0.1,7.7,6.5,14.4,15.4,14.4
		c5.9,0,12.3-4,17.6-11.3C415.7,182.9,408.7,178.3,399.6,174.6z M404.3,143.3c-7,0-11.4,5.1-11.4,10.9c0,7.3,4.2,11.8,12.4,15.2
		c6.7-3.1,9.8-8,9.8-14.5C415.1,148.9,411.2,143.3,404.3,143.3z"/>
	<path class="st0" d="M505.7,162.9c-0.8,0-2.3,1.2-3.3,2.2c-4,4-9.5,17.1-9.5,27.7c0,8.3,4.8,12.6,9.9,12.6c3.2,0,7.7-2.9,13.3-7.1
		l1.5,2c-5.4,6.3-11.2,10.9-17.8,10.9c-8.4,0-14.7-7.4-14.7-17.1c0-17.3,12.2-35.6,26.2-35.6c6.4,0,11.9,3.5,11.9,8.5
		c0,3.2-2.1,5.9-5.1,5.9c-2.9,0-4.3-1.4-4.3-4.1c0-1.2,0.3-2.3,0.8-3C514,164.9,509.3,162.9,505.7,162.9z"/>
	<path class="st0" d="M560.9,164.6c-3.3,2.9-14.7,24.2-18.2,31.9l-2.5,13.6l-8.1-0.6l3.8-16.2l5.9-28.2l-3.3-0.6l-8.5,8.8l-1.9-2
		c2.5-5.2,9.1-12.9,13.3-12.9c2.3,0,8,1.9,8,3.5c0,2.3-4.5,19.1-7.1,28.2h1.4c2.8-7.5,9.4-21.3,12.7-25.5c3.8-4.8,5.4-6.2,9.3-6.2
		s6.6,3,6.6,6.6s-2.2,6.3-5.2,6.3c-3.1,0-5.3-2.2-4.2-6.2C562.8,165.3,561.2,164.4,560.9,164.6z"/>
	<path class="st0" d="M579.9,192.8c0,8.3,4.8,12.6,9.9,12.6c3.2,0,7.7-2.9,13.3-7.1l1.5,2c-5.4,6.3-11.2,10.9-17.8,10.9
		c-8.4,0-14.7-7.4-14.7-17.1c0-17.8,12.5-35.6,25.6-35.6c7.1,0,11.6,4.6,11.6,9.8c0,7.1-6.5,10.1-29.4,22
		C579.9,191.2,579.9,192,579.9,192.8z M580.4,187.2c17.8-9.5,21.8-13.1,21.8-18.7c0-3-5.5-5.2-8.2-5.2c-2.3,0-4,1-5.1,2.1
		c-2.8,2.9-6.7,11-8.7,21.7L580.4,187.2z"/>
	<path class="st0" d="M647.8,166.8l2.2-8.3h6.9l-5.4,19.7l-5.9,26.3l3.3,1l8.7-7.4l1.9,2c-2.7,4.8-9.4,11.2-13.6,11.2
		c-2.3,0-8-1.9-8-3.5c0-1.3,3.1-11.6,6.3-21.7h-1c-7,12.7-14.3,25.2-21.2,25.2c-6,0-10.1-5.6-10.1-14.3c0-11.3,5.4-24.6,12.3-31.5
		c4-4,9.1-7.1,13.7-7.1c5.2,0,7.7,5.1,9.1,8.4H647.8z M633.4,163.5c-1.7,0-3,0.8-4.4,2.2c-4,4-9.4,19.8-9.4,29.3
		c0,6.4,2,9.7,5.4,9.7c4.1,0,9.3-8.2,19.7-25.6l1.5-6.4C643.7,169.1,638.3,163.5,633.4,163.5z"/>
	<path class="st0" d="M678.6,145h7.1l-3,15.1h13.6l0.3,5h-14.9l-8.3,39.4l3.3,1l8.8-7.4l1.9,2c-2.8,4.8-9.5,11.2-13.7,11.2
		c-2.3,0-7.8-1.7-7.5-3.1l8.6-42.8l-9.2-0.4l0.3-3.2c0,0,9.9-3.2,9.9-3.1L678.6,145z"/>
	<path class="st0" d="M708.8,211.3c-2.2,0-7.8-2.1-7.5-3.5l11.3-42.5l-3.3-0.6l-8.5,8.8l-1.9-2c2.5-5.2,9.1-12.9,13.3-12.9
		c2.3,0,8.5,1.9,8.1,3.5l-11.7,42.4l3.3,1l8.8-7.4l1.9,2C719.7,204.9,713,211.3,708.8,211.3z M720.8,148.7c-3.5,0-5.5-2.4-5.5-5.6
		c0-4.1,2.8-7.2,5.6-7.2c3.4,0,5.4,2.4,5.4,5.6C726.4,145.6,723.7,148.7,720.8,148.7z"/>
	<path class="st0" d="M746.6,209.6l-8,1.7v-45.7l-3.2-0.7l-8.5,8.8l-1.9-2c2.5-5.2,8.9-13.1,13.1-13.1c2.3,0,8,2.1,8,3.9l-0.6,41.9
		h0.8l13.3-21.3c3.4-5.3,5.1-9.4,5.1-12.3c-0.1-3-2.7-5-6.5-5.7c0.9-4.4,3.5-6.5,7-6.5c3.6,0,7.2,2.4,7.1,7.7
		c0.1,5.3-4.3,12.4-12.8,24.4L746.6,209.6z"/>
	<path class="st0" d="M787.2,211.3c-2.2,0-7.8-2.1-7.5-3.5l11.3-42.5l-3.3-0.6l-8.5,8.8l-1.9-2c2.5-5.2,9.1-12.9,13.3-12.9
		c2.3,0,8.5,1.9,8.1,3.5l-11.7,42.4l3.3,1l8.8-7.4l1.9,2C798.1,204.9,791.4,211.3,787.2,211.3z M799.2,148.7c-3.5,0-5.5-2.4-5.5-5.6
		c0-4.1,2.8-7.2,5.6-7.2c3.4,0,5.4,2.4,5.4,5.6C804.7,145.6,802.1,148.7,799.2,148.7z"/>
	<path class="st0" d="M819.8,145h7.1l-3,15.1h13.6l0.3,5h-14.9l-8.3,39.4l3.3,1l8.8-7.4l1.9,2c-2.8,4.8-9.5,11.2-13.7,11.2
		c-2.3,0-7.8-1.7-7.5-3.1l8.6-42.8l-9.2-0.4l0.3-3.2c0,0,9.9-3.2,9.9-3.1L819.8,145z"/>
	<path class="st0" d="M876.8,185.1l-12.8,19.1l-6.5,11.6c-8,15.4-13.8,22.1-21.9,22.1c-4.4,0-8.6-2.8-8.6-7.1c0-3.2,2.8-5.5,5.3-5.5
		c3.3,0,6.5,2.9,6.2,6.7l3,0.2c0.4-0.1,15.1-21.8,15.1-21.8l-4.3-1.2l0.3-43.8l-3.2-0.7l-8.5,8.8l-1.9-2c2.5-5.2,8.9-13.1,13.1-13.1
		c2.3,0,8,2.1,8,3.9l-0.9,41.9h1.1l19.1-31.9l0.3-1.8c-2.8-1-5.5-3-5.5-6.1c0-3.3,2.3-6.2,5.6-6.2c4.2,0,6.8,2.9,6.8,7.1
		C886.7,170.7,881.2,178.8,876.8,185.1z"/>
	<path class="st0" d="M890.7,211.3c-4.1,0-7-3.3-7-6.8c0-3.5,2.9-6.6,7-6.6c4,0,6.7,3.1,6.7,6.6
		C897.4,207.9,894.7,211.3,890.7,211.3z"/>
</g>
</svg>
