<?xml version="1.0" encoding="utf-8"?>
<!-- Generator: Adobe Illustrator 22.0.0, SVG Export Plug-In . SVG Version: 6.00 Build 0)  -->
<svg version="1.1" id="Layer_1" xmlns="http://www.w3.org/2000/svg" xmlns:xlink="http://www.w3.org/1999/xlink" x="0px" y="0px"
	 viewBox="0 0 1027.2 238.6" style="enable-background:new 0 0 1027.2 238.6;" xml:space="preserve">
<style type="text/css">
	.st0{fill:#FFFFFF;}
</style>
<g>
	<path class="st0" d="M59.9,29.2l-2.4-11.6c-1-4.1-1.8-5.4-17.5-5.5h-0.8v59.1c0,0.9,0.7,1.2,2.9,1.4l7.5,0.7l0.3,3.8H19.4l0.3-3.8
		l7.5-0.7c2.1-0.2,2.9-0.7,2.9-1.5V12h-0.8c-15.1,0-16.6,0.7-17.8,4.8l-3,12.4h-5L5.5,8h59.1v21.2H59.9z"/>
	<path class="st0" d="M102.4,77l0.3-3.8l4.5-0.4c2.3-0.1,2.8-0.7,2.8-1.7V47.1c0-10.9-4-14.3-10.6-14.3c-5.1,0-10.1,3-13.1,5.5v32.9
		c0,0.9,0.4,1.4,3,1.5l5.1,0.4l0.3,3.8H70.8l0.3-3.8l4.4-0.4c2-0.1,2.8-0.6,2.8-1.7V11.5c0-1.4-0.3-2.1-1.2-2.3l-7.7-2.4L69.7,4
		l16.6-4v34h0.6c5.6-4.8,11.5-8,17.7-8c3.3,0,6.9,1.1,9.3,3.5c2.9,2.9,4.1,7,4.1,12.3v29.3c0,0.9,0.4,1.4,3.3,1.7l4.3,0.4l0.3,3.8
		H102.4z"/>
	<path class="st0" d="M151.6,78.6c-12.8,0-22.2-10.4-22.2-24.7c0-16.1,11.6-27.7,25.3-27.7c10.4,0,17,6.5,17,16
		c0,1.9-0.2,4.3-0.6,5.9l-33.3-0.4c-0.1,0.4-0.1,2.2-0.1,2.7c0,12.5,7.3,21.4,17.3,21.4c5.1,0,10.2-2,14.1-6.7l2.2,1.3
		C167.5,74,160.2,78.6,151.6,78.6z M152.7,29.9c-6.1,0-12.6,5.3-14.4,14.3c0,0,25-0.1,24.5-0.1C163.4,35.5,159.3,29.9,152.7,29.9z"
		/>
	<path class="st0" d="M268.7,77l0.3-3.8l4.3-0.4c2.3-0.1,2.8-0.7,2.8-1.7V46.7c0-10.7-4.4-13.9-10.2-13.9c-4.5,0-9.3,2.9-12.4,5.6
		c0.1,0.8,0.1,5.7,0.1,6.5v26.2c0,0.9,0.3,1.4,3.2,1.7l4.6,0.4l0.3,3.8h-23.5l0.3-3.8l4.3-0.4c2.3-0.1,2.8-0.7,2.8-1.7V46.7
		c0-10.7-4.4-13.9-10.2-13.9c-4.5,0-9.3,2.9-12.3,5.4v33c0,0.9,0.4,1.4,3,1.5l5.3,0.4l0.3,3.8h-24.1l0.3-3.8l4.4-0.4
		c2-0.1,2.8-0.6,2.8-1.7v-31c0-5.3-0.7-6-3.6-6.7l-4.4-0.7l0.1-3l15.9-3.6v8h0.3c5.4-4.6,11.2-8,16.9-8c3.2,0,6.6,1.1,8.9,3.3
		c1.4,1.4,2.5,3.3,3.2,5.4h0.4c5.5-5.1,11.7-8.7,17.6-8.7c3.4,0,6.9,1.1,9.3,3.5c2.8,2.8,4.1,6.9,4.1,12v29.5c0,0.9,0.3,1.4,3.2,1.7
		l4.3,0.4l0.3,3.8H268.7z"/>
	<path class="st0" d="M298.4,77l0.3-3.8l4.6-0.4c1.9-0.1,2.8-0.6,2.8-1.7v-31c0-5.3-0.7-6-3.8-6.7l-4.4-0.7l0.2-3l15.8-3.6v45.2
		c0,0.9,0.6,1.4,3.1,1.5l4.6,0.4l0.3,3.8H298.4z M308.9,16.1c-3.8,0-5.6-3-5.6-6.2s1.9-6.2,5.6-6.2c3.8,0,5.6,2.9,5.6,6.2
		C314.6,13.1,312.7,16.1,308.9,16.1z"/>
	<path class="st0" d="M379.1,76.7l-16.5,2v-7.4h-0.3c-3.6,4-9.2,7.3-15.6,7.3c-11.6,0-20.7-10.3-20.7-24.7
		c0-15.1,10.6-27.4,26.4-27.4c3.2,0,7,0.9,9.9,2h0.2V9.1c0-1.1-0.2-1.8-1-2l-8.6-2l0.4-2.7l17-2.4v70.2c0,1.1,0.2,1.9,1.1,2.1
		l7.8,1.8L379.1,76.7z M362.6,37.2c-3.3-3.3-7.3-6.4-12.7-6.4c-9.1,0-15.2,8.2-15.2,20.1c0,12.7,6.3,21,15.8,21
		c5.1,0,8.9-2.2,12.2-5.1V37.2z"/>
	<path class="st0" d="M407.2,78.7c-3.3,0-7.7-0.9-10.7-2h-0.2v21.8c0,0.9,0.4,1.4,3.1,1.5l5.7,0.4l0.3,3.8h-24.7l0.3-3.8l4.5-0.4
		c2-0.1,2.8-0.6,2.8-1.7V39.9c0-5.1-0.6-5.7-3.4-6.5l-4.6-0.7l0.2-3l15.8-3.6v8.4h0.4c4-4.3,9.7-7.8,16-7.8c12,0,20,10.4,20,24.1
		C432.8,65.6,423,78.7,407.2,78.7z M409.5,33.3c-5.5,0-10.2,3.2-13.1,6.6v28.4c3.4,3.2,7.4,6.1,12.7,6.1c8.4,0,15.2-8.2,15.2-20.6
		C424.3,41.4,418.3,33.3,409.5,33.3z"/>
	<path class="st0" d="M464.5,78.7c-14.5,0-24.1-11.2-24.1-26.1c0-15.1,11.4-26.5,25.6-26.5c14.1,0,24,10.6,24,25.2
		C490,66.6,478.9,78.7,464.5,78.7z M475.4,34.8c-2.1-2.1-5.6-4.5-10.5-4.5c-9.1,0-15.8,7.8-15.8,19.9c0,8.2,2,15.6,6.1,19.8
		c2,2.1,5.4,4.4,10.4,4.4c8.8,0,15.8-7.7,15.8-19.8C481.4,46.5,479.5,39.1,475.4,34.8z"/>
	<path class="st0" d="M494.9,77l0.3-3.8l4.6-0.4c1.9-0.1,2.8-0.6,2.8-1.7v-31c0-5.3-0.7-6-3.8-6.7l-4.4-0.7l0.2-3l15.8-3.6v45.2
		c0,0.9,0.6,1.4,3.1,1.5l4.6,0.4l0.3,3.8H494.9z M505.4,16.1c-3.8,0-5.6-3-5.6-6.2s1.9-6.2,5.6-6.2c3.8,0,5.6,2.9,5.6,6.2
		C511.1,13.1,509.2,16.1,505.4,16.1z"/>
	<path class="st0" d="M556.8,77l0.3-3.8l4.5-0.4c2.3-0.1,2.8-0.7,2.8-1.7V47.1c0-10.9-4-14.3-10.6-14.3c-5.1,0-10.1,3-13.1,5.5v32.9
		c0,0.9,0.4,1.4,3,1.5l5.1,0.4l0.3,3.8h-23.9l0.3-3.8l4.4-0.4c2-0.1,2.8-0.6,2.8-1.7V39.9c0-5.1-0.6-5.7-3.4-6.5l-4.6-0.7l0.1-3
		l15.9-3.6v8h0.6c5.6-4.8,11.5-8,17.7-8c3.3,0,6.9,1.1,9.3,3.5c2.9,2.9,4.1,7,4.1,12.3v29.3c0,0.9,0.4,1.4,3.3,1.7l4.4,0.4l0.3,3.8
		H556.8z"/>
	<path class="st0" d="M601.2,78.7c-7.5,0-12.7-4.2-12.6-14.4l0.7-31.2l-8.7-0.4l0.1-3.2l7.5-4.5l5.2-7l3.9,0.4l-0.1,9.4H615
		l-0.8,5.1h-17.1l-0.7,29.4c-0.2,7.3,3,10.1,8.8,10.1c3,0,6.3-1.2,9.3-2.9l0.7,2.9C611.7,76,606.1,78.7,601.2,78.7z"/>
	<path class="st0" d="M673.1,78.7c-3.2,0-9.2-1.2-12.3-2.5h-0.2l-5,3.2h-1.2V11.3c0-1.2-0.3-1.9-1.1-2.1l-8.3-2.4l0.3-2.8l16.9-4
		v34.5h0.4c4-4.3,9.7-7.8,16-7.8c12,0,20,10.4,20,24.1C698.8,65.6,688.9,78.7,673.1,78.7z M675.4,33.3c-5.5,0-10.2,3.2-13.1,6.6
		v28.4c3.4,3.2,7.4,6.1,12.7,6.1c8.5,0,15.2-8.2,15.2-20.6C690.3,41.4,684.3,33.3,675.4,33.3z"/>
	<path class="st0" d="M728.5,78.6c-12.8,0-22.2-10.4-22.2-24.7c0-16.1,11.6-27.7,25.3-27.7c10.4,0,17,6.5,17,16
		c0,1.9-0.2,4.3-0.6,5.9l-33.3-0.4c-0.1,0.4-0.1,2.2-0.1,2.7c0,12.5,7.3,21.4,17.3,21.4c5.1,0,10.2-2,14.1-6.7l2.2,1.3
		C744.5,74,737.2,78.6,728.5,78.6z M729.6,29.9c-6.1,0-12.6,5.3-14.4,14.3c0,0,25-0.1,24.5-0.1C740.4,35.5,736.3,29.9,729.6,29.9z"
		/>
	<path class="st0" d="M774.8,78.7c-7.5,0-12.7-4.2-12.6-14.4l0.7-31.2l-8.7-0.4l0.1-3.2l7.5-4.5l5.2-7l3.9,0.4l-0.1,9.4h17.9
		l-0.8,5.1h-17.1l-0.7,29.4c-0.2,7.3,3,10.1,8.8,10.1c3,0,6.3-1.2,9.3-2.9l0.7,2.9C785.3,76,779.7,78.7,774.8,78.7z"/>
	<path class="st0" d="M872.3,31.4l-3.4,0.6c-2.8,0.4-3.5,1.2-5.2,6.1l-12.8,39.8h-5.4l-12-32.2l-12.7,32.2h-5.4l-14.6-42.4
		c-0.8-2.3-1.5-3-3.9-3.3l-3.3-0.6l-0.3-3.8h22.1l-0.3,3.6l-3.6,0.6c-1.8,0.2-2.8,1.3-2.1,3.2l11.2,33.1L831.1,40l-1.7-4.6
		c-0.9-2.3-1.7-2.9-4.2-3.2l-3.4-0.8l-0.3-3.6h22.4l-0.3,3.6l-3.5,0.6c-1.9,0.2-2.9,1.2-2.2,3.2l11.9,33.4l9.3-30.4
		c1.1-4,1-5.7-2.4-6.2l-3.4-0.6l-0.3-3.6h19.8L872.3,31.4z"/>
	<path class="st0" d="M895.4,78.6c-12.8,0-22.2-10.4-22.2-24.7c0-16.1,11.6-27.7,25.3-27.7c10.4,0,17,6.5,17,16
		c0,1.9-0.2,4.3-0.6,5.9l-33.3-0.4c-0.1,0.4-0.1,2.2-0.1,2.7c0,12.5,7.3,21.4,17.3,21.4c5.1,0,10.2-2,14.1-6.7l2.2,1.3
		C911.3,74,904,78.6,895.4,78.6z M896.5,29.9c-6.1,0-12.6,5.3-14.4,14.3c0,0,25-0.1,24.5-0.1C907.2,35.5,903.1,29.9,896.5,29.9z"/>
	<path class="st0" d="M945.2,78.6c-12.8,0-22.2-10.4-22.2-24.7c0-16.1,11.6-27.7,25.3-27.7c10.4,0,17,6.5,17,16
		c0,1.9-0.2,4.3-0.6,5.9l-33.3-0.4c-0.1,0.4-0.1,2.2-0.1,2.7c0,12.5,7.3,21.4,17.3,21.4c5.1,0,10.2-2,14.1-6.7l2.2,1.3
		C961.1,74,953.8,78.6,945.2,78.6z M946.3,29.9c-6.1,0-12.6,5.3-14.4,14.3c0,0,25-0.1,24.5-0.1C957,35.5,952.9,29.9,946.3,29.9z"/>
	<path class="st0" d="M1003.7,77l0.3-3.8l4.5-0.4c2.3-0.1,2.8-0.7,2.8-1.7V47.1c0-10.9-4-14.3-10.6-14.3c-5.1,0-10.1,3-13.1,5.5
		v32.9c0,0.9,0.4,1.4,3,1.5l5.1,0.4L996,77h-23.9l0.3-3.8l4.4-0.4c2-0.1,2.8-0.6,2.8-1.7V39.9c0-5.1-0.6-5.7-3.4-6.5l-4.6-0.7l0.1-3
		l15.9-3.6v8h0.6c5.6-4.8,11.5-8,17.7-8c3.3,0,6.9,1.1,9.3,3.5c2.9,2.9,4.1,7,4.1,12.3v29.3c0,0.9,0.4,1.4,3.3,1.7l4.4,0.4l0.3,3.8
		H1003.7z"/>
	<path class="st0" d="M28.1,211.3c-3.2,0-9.2-1.2-12.3-2.5h-0.2l-5,3.2H9.4v-68.1c0-1.2-0.3-1.9-1.1-2.1L0,139.3l0.3-2.8l16.9-4
		v34.5h0.4c4-4.3,9.7-7.8,16-7.8c12,0,20,10.4,20,24.1C53.7,198.2,43.9,211.3,28.1,211.3z M30.4,165.9c-5.5,0-10.2,3.2-13.1,6.6
		v28.4c3.4,3.2,7.4,6.1,12.7,6.1c8.5,0,15.2-8.2,15.2-20.6C45.2,174,39.2,165.9,30.4,165.9z"/>
	<path class="st0" d="M113.2,209.3l-16.6,2v-8.1h-0.6c-5.6,4.8-11.5,8.1-17.7,8.1c-3.3,0-6.9-1.1-9.3-3.6c-2.9-2.8-4.1-7-4.1-12.2
		l0.2-29.4c0-1.5-0.7-1.2-3.5-1.7l-4.2-0.4l-0.3-3.6h16.5l-0.8,29.8c0,11,4,14.4,10.6,14.4c5.1,0,10.1-3,13.1-5.6v-32.8
		c0-1-0.4-1.4-3-1.7l-5.5-0.4l-0.3-3.6h16.8v42.4c0,1.1,0.2,1.9,1,2.1l8,1.8L113.2,209.3z"/>
	<path class="st0" d="M135.2,211.3c-5.2,0-10.4-0.8-14.4-2.3l-0.7-14.3h5l2.3,9.8c2.5,1.8,5.5,2.9,9.1,2.9c5.4,0,10.9-3.6,10.9-9.3
		c0-5.6-6-7.7-12.4-10.1c-7.3-2.8-14.6-5.7-14.6-15.2c0-7.3,6.1-14.4,17.2-14.4c4.9,0,8,0.9,10.7,1.8l3.3-1.1l0.9,15.5h-4.9
		l-2.1-9.6c-2.5-1.7-5.9-2.7-8.8-2.7c-5.5,0-9.4,3.3-9.4,7.8c0,5.4,5,7.3,12.2,10.1c7.3,2.8,14.8,6,14.8,15.4
		C154.4,203.6,147.9,211.3,135.2,211.3z"/>
	<path class="st0" d="M161,209.6l0.3-3.8l4.6-0.4c1.9-0.1,2.8-0.6,2.8-1.7v-31c0-5.3-0.7-6-3.8-6.7l-4.4-0.7l0.2-3l15.8-3.6v45.2
		c0,0.9,0.6,1.4,3.1,1.5l4.6,0.4l0.3,3.8H161z M171.5,148.7c-3.8,0-5.6-3-5.6-6.2s1.9-6.2,5.6-6.2c3.8,0,5.6,2.9,5.6,6.2
		C177.2,145.7,175.3,148.7,171.5,148.7z"/>
	<path class="st0" d="M222.9,209.6l0.3-3.8l4.5-0.4c2.3-0.1,2.8-0.7,2.8-1.7v-24.1c0-10.9-4-14.3-10.6-14.3c-5.1,0-10.1,3-13.1,5.5
		v32.9c0,0.9,0.4,1.4,3,1.5l5.1,0.4l0.3,3.8h-23.9l0.3-3.8l4.4-0.4c2-0.1,2.8-0.6,2.8-1.7v-31.3c0-5.1-0.6-5.7-3.4-6.5l-4.6-0.7
		l0.1-3l15.9-3.6v8h0.6c5.6-4.8,11.5-8,17.7-8c3.3,0,6.9,1.1,9.3,3.5c2.9,2.9,4.1,7,4.1,12.3v29.3c0,0.9,0.4,1.4,3.3,1.7l4.4,0.4
		l0.3,3.8H222.9z"/>
	<path class="st0" d="M272.3,211.2c-12.8,0-22.2-10.4-22.2-24.8c0-16.1,11.6-27.7,25.3-27.7c10.4,0,17,6.5,17,16
		c0,1.9-0.2,4.3-0.6,5.9l-33.3-0.4c-0.1,0.4-0.1,2.2-0.1,2.7c0,12.5,7.3,21.4,17.3,21.4c5.1,0,10.2-2,14.1-6.7l2.2,1.3
		C288.2,206.6,280.9,211.2,272.3,211.2z M273.4,162.5c-6.1,0-12.6,5.3-14.4,14.3c0,0,25-0.1,24.5-0.1
		C284.1,168.1,280,162.5,273.4,162.5z"/>
	<path class="st0" d="M316.7,211.3c-5.2,0-10.4-0.8-14.4-2.3l-0.7-14.3h5l2.3,9.8c2.5,1.8,5.5,2.9,9.1,2.9c5.4,0,10.9-3.6,10.9-9.3
		c0-5.6-6-7.7-12.4-10.1c-7.3-2.8-14.6-5.7-14.6-15.2c0-7.3,6.1-14.4,17.2-14.4c4.9,0,8,0.9,10.7,1.8l3.3-1.1l0.9,15.5h-4.9
		l-2.1-9.6c-2.5-1.7-5.9-2.7-8.8-2.7c-5.5,0-9.4,3.3-9.4,7.8c0,5.4,5,7.3,12.2,10.1c7.3,2.8,14.8,6,14.8,15.4
		C335.9,203.6,329.4,211.3,316.7,211.3z"/>
	<path class="st0" d="M360.5,211.3c-5.2,0-10.4-0.8-14.4-2.3l-0.7-14.3h5l2.3,9.8c2.5,1.8,5.5,2.9,9.1,2.9c5.4,0,10.9-3.6,10.9-9.3
		c0-5.6-6-7.7-12.4-10.1c-7.3-2.8-14.6-5.7-14.6-15.2c0-7.3,6.1-14.4,17.2-14.4c4.9,0,8,0.9,10.7,1.8l3.3-1.1l0.9,15.5h-4.9L371,165
		c-2.5-1.7-5.9-2.7-8.8-2.7c-5.5,0-9.4,3.3-9.4,7.8c0,5.4,5,7.3,12.2,10.1c7.3,2.8,14.8,6,14.8,15.4
		C379.8,203.6,373.3,211.3,360.5,211.3z"/>
	<path class="st0" d="M475.4,211.4c-7.4,0-11.8-4.8-16.2-14.1c-5.6,7.3-13.8,14-23.6,14c-12.4,0-19.6-8.6-19.6-18.1
		c0-9.2,7.1-17,16.2-20.6c-6.3-3-10.6-8.5-10.6-15.6c0-9.5,8.1-17.9,20.2-17.9c10.8,0,17.2,7.1,17.2,14.7c0,6.7-4.3,13.4-14.1,17.3
		c6.8,3,13.6,8.9,17.5,15.6c0,0,7.7-10.6,7.8-12.5c0.1-1.2-0.8-1.9-2.4-2.1l-3.9-0.6l-0.2-3.6h23.1l-0.4,3.6l-3.5,0.6
		c-2.9,0.8-6.1,2.4-8.4,5.6c0,0-9.8,12.5-9.8,12.6c5.1,10.2,8.4,14.4,14,14.4c2.8,0,5.7-1.7,9-3.5l1.7,2.9
		C484.9,208.6,480.5,211.4,475.4,211.4z M435.5,174.6c-6.9,3.5-11.4,8.8-11.4,15.6c-0.1,7.7,6.5,14.4,15.4,14.4
		c5.9,0,12.3-4,17.6-11.3C451.6,182.9,444.6,178.3,435.5,174.6z M440.2,143.3c-7,0-11.4,5.1-11.4,10.9c0,7.3,4.2,11.8,12.4,15.2
		c6.7-3.1,9.8-8,9.8-14.5C451,148.9,447.1,143.3,440.2,143.3z"/>
	<path class="st0" d="M543.7,211.2c-12.8,0-22.2-10.4-22.2-24.8c0-16.1,11.8-27.7,25.7-27.7c9.9,0,15.8,5.1,15.8,10.3
		c0,4.2-3,5.6-5.6,5.6c-4,0-6.7-4.2-5.1-9.7v-0.2c-1.5-1.1-4.1-2-7-2c-8.7,0-15.5,8-15.5,19.9c0,12.4,7.3,21.7,17.3,21.7
		c5.1,0,10.2-2,14.1-6.7l2.2,1.3C559.7,206.6,552.4,211.2,543.7,211.2z"/>
	<path class="st0" d="M602.3,169.8c-2.3,0-4.3-1.7-5.3-3.5c-3.4,2.1-8.5,7.2-11.3,12.7v24.9c0,0.9,0.4,1.4,3,1.5l5.9,0.4l0.3,3.8
		h-24.6l0.3-3.8l4.4-0.4c2-0.1,2.8-0.6,2.8-1.7v-31.3c0-5.1-0.6-5.7-3.4-6.5l-4.5-0.7l0.2-3l15.7-3.6V173h0.4
		c6.4-10.7,10.4-14.5,15.1-14.5c4,0,6.2,2.5,6.2,5.6C607.5,167.3,605.6,169.8,602.3,169.8z"/>
	<path class="st0" d="M632.5,211.2c-12.8,0-22.2-10.4-22.2-24.8c0-16.1,11.6-27.7,25.3-27.7c10.4,0,17,6.5,17,16
		c0,1.9-0.2,4.3-0.6,5.9l-33.3-0.4c-0.1,0.4-0.1,2.2-0.1,2.7c0,12.5,7.3,21.4,17.3,21.4c5.1,0,10.2-2,14.1-6.7l2.2,1.3
		C648.4,206.6,641.1,211.2,632.5,211.2z M633.6,162.5c-6.1,0-12.6,5.3-14.4,14.3c0,0,25-0.1,24.5-0.1
		C644.3,168.1,640.2,162.5,633.6,162.5z"/>
	<path class="st0" d="M695.8,211.3c-4,0-7.1-2.4-7.1-8.2h-0.4c-4.2,4.5-8.5,8.2-13.8,8.2c-7.3,0-13.5-5.4-13.5-12.8
		c0-9.3,8.4-14.4,28.2-19.2v-1c0.1-11.8-4.1-14.9-11.3-14.9c-4.2,0-8.7,1.8-8.7,2.9c0,0.6,2.2,2.3,2.2,5.1c0,2.5-2.2,5-5.4,5
		c-3.1,0-5.3-2-5.3-4.9c0-5.3,11.5-12.8,20.4-12.8c12.3,0,16.6,5,15.9,21.5l-0.9,21.1c-0.1,2.5,0.8,3.9,2.4,3.9
		c1.5,0,3.3-1.2,5.6-3.1l1.9,2.4C702.6,208.6,699.3,211.3,695.8,211.3z M688.9,182.8c-14.8,3.9-19.9,8-19.9,13.8
		c0,5.3,3.8,8.5,8.4,8.5c3.9,0,7.2-2.4,10.8-5.7L688.9,182.8z"/>
	<path class="st0" d="M726.5,211.3c-7.5,0-12.7-4.2-12.6-14.4l0.7-31.2l-8.7-0.4l0.1-3.2l7.5-4.5l5.2-7l3.9,0.4l-0.1,9.4h17.9
		l-0.8,5.1h-17.1l-0.7,29.4c-0.2,7.3,3,10.1,8.8,10.1c3,0,6.3-1.2,9.3-2.9l0.7,2.9C737,208.6,731.4,211.3,726.5,211.3z"/>
	<path class="st0" d="M747,209.6l0.3-3.8l4.6-0.4c1.9-0.1,2.8-0.6,2.8-1.7v-31c0-5.3-0.7-6-3.8-6.7l-4.4-0.7l0.2-3l15.8-3.6v45.2
		c0,0.9,0.6,1.4,3.1,1.5l4.6,0.4l0.3,3.8H747z M757.5,148.7c-3.8,0-5.6-3-5.6-6.2s1.9-6.2,5.6-6.2c3.8,0,5.6,2.9,5.6,6.2
		C763.2,145.7,761.3,148.7,757.5,148.7z"/>
	<path class="st0" d="M825,164l-3.6,0.8c-2.4,0.2-3.2,1.2-5,5.9l-15.2,39.8h-5.5L778.8,168c-1-2.3-1.7-2.8-4.3-3.2l-3.4-0.7
		l-0.4-3.8h23.1l-0.3,3.6l-4.1,0.6c-1.8,0.2-2.7,1-2,3l13,33.8l11.4-31.2c1.3-3.6,1.3-5.1-1.5-5.4l-4.3-0.8l-0.3-3.6h19.8L825,164z"
		/>
	<path class="st0" d="M830.1,209.6l0.3-3.8l4.6-0.4c1.9-0.1,2.8-0.6,2.8-1.7v-31c0-5.3-0.7-6-3.8-6.7l-4.4-0.7l0.2-3l15.8-3.6v45.2
		c0,0.9,0.6,1.4,3.1,1.5l4.6,0.4l0.3,3.8H830.1z M840.6,148.7c-3.8,0-5.6-3-5.6-6.2s1.9-6.2,5.6-6.2c3.8,0,5.6,2.9,5.6,6.2
		C846.3,145.7,844.4,148.7,840.6,148.7z"/>
	<path class="st0" d="M875.7,211.3c-7.5,0-12.7-4.2-12.6-14.4l0.7-31.2l-8.7-0.4l0.1-3.2l7.5-4.5l5.2-7l3.9,0.4l-0.1,9.4h17.9
		l-0.8,5.1h-17.1l-0.7,29.4c-0.2,7.3,3,10.1,8.8,10.1c3,0,6.3-1.2,9.3-2.9l0.7,2.9C886.2,208.6,880.5,211.3,875.7,211.3z"/>
	<path class="st0" d="M948,164l-3.6,0.8c-2.3,0.2-3.2,1.2-5.1,5.9l-13.5,36.7l-5.3,16.8c-3.1,9.6-6.4,14.5-12.9,14.5
		c-4.4,0-7.2-2.4-7.2-5.7c0-3.1,1.7-5.5,5.2-5.5c3.3,0,5.1,1.7,6.3,4c1.9-0.9,3.2-3.5,4.9-8.5l4.2-12v-0.1L901.7,168
		c-1-2.2-1.4-2.8-4.2-3.2l-3.2-0.7l-0.4-3.8h22.8l-0.3,3.6l-3.8,0.6c-1.8,0.1-2.8,1-1.9,3l13.7,32.6l10.5-29.9
		c1.2-3.8,0.9-5.1-2.1-5.4l-4.1-0.8l-0.3-3.6h20L948,164z"/>
	<path class="st0" d="M952.6,211.3c-4.1,0-7-3.3-7-6.8c0-3.5,2.9-6.6,7-6.6c4,0,6.7,3.1,6.7,6.6
		C959.3,207.9,956.5,211.3,952.6,211.3z"/>
</g>
</svg>
