<?xml version="1.0" encoding="utf-8"?>
<!-- Generator: Adobe Illustrator 22.0.0, SVG Export Plug-In . SVG Version: 6.00 Build 0)  -->
<svg version="1.1" xmlns="http://www.w3.org/2000/svg" xmlns:xlink="http://www.w3.org/1999/xlink" x="0px" y="0px"
	 viewBox="0 0 3300.5 2056.5" style="enable-background:new 0 0 3300.5 2056.5;" xml:space="preserve">
<style type="text/css">
	.st0{fill:#7800FF;}
	.st1{fill:#FFFFFF;}
</style>
<g id="Artwork_1_">
	<g id="Ideogram">
		<g>
			<g>
				<path class="st0" d="M2496.4,1335c9.9-4.1,19.8-8,29.9-11.7c65.9-33.8,114.7-153.1,114.7-295s-48.7-261.2-114.7-295
					c-10-3.7-20-7.7-29.9-11.7c-244.1-100.2-439.2-295.3-539.4-539.4c-3.9-9.5-7.7-19.1-11.3-28.8h-0.1
					c-33.5-66.2-153-115.2-295.3-115.2s-261.8,49-295.3,115.2h-0.2c-3.6,9.7-7.4,19.3-11.3,28.8c73.2,197.6,177.4,380.1,306.8,541.6
					c8.4,10.5,17,21,25.6,31.3c8.6,10.3,17.4,20.6,26.2,30.8c0,0,0.1,0.1,0.1,0.1c5.2,5.9,10.4,11.8,15.6,17.7
					c15.7,17.6,31.7,34.9,48,51.9c0,0,0,0,0,0c40.5,42.2,82.8,82.5,126.8,120.9c0,0,0,0,0,0c20.3,17.7,41.1,35,62.1,51.9
					C1869,1097,1789.1,1172.9,1716,1255l12.3,15.3c118.4,147.7,215.1,310,288.3,483.2C2125.5,1566.3,2294.1,1418,2496.4,1335z"/>
				<path class="st0" d="M804.1,721.5c-9.9,4.1-19.8,8-29.9,11.7c-65.9,33.8-114.7,153.1-114.7,295c0,141.9,48.7,261.2,114.7,295
					c10,3.7,20,7.7,29.9,11.7c244.1,100.2,439.2,295.3,539.4,539.4c3.9,9.5,7.7,19.1,11.3,28.8h0.1c33.5,66.2,153,115.2,295.3,115.2
					s261.8-49,295.3-115.2h0.2c3.6-9.7,7.4-19.3,11.3-28.8c-73.2-197.6-177.4-380.1-306.8-541.6c-8.4-10.5-17-21-25.6-31.3
					s-17.4-20.6-26.2-30.8c0,0-0.1-0.1-0.1-0.1c-5.2-5.9-10.4-11.8-15.6-17.7c-15.7-17.6-31.7-34.9-48-51.9c0,0,0,0,0,0
					c-40.5-42.2-82.8-82.5-126.8-120.9c0,0,0,0,0,0c-20.3-17.7-41.1-35-62.1-51.9c85.8-68.8,165.7-144.7,238.8-226.7l-12.3-15.3
					c-118.4-147.7-215.1-310-288.3-483.2C1175,490.2,1006.4,638.5,804.1,721.5z"/>
			</g>
		</g>
		<g>
			<path class="st0" d="M1776.7,1192.2c-23.7,23.7-64.5,53.5-74.5,46.1l13.8,16.7"/>
			<path class="st0" d="M1524.8,863.9c23.7-23.7,61.9-51.5,71.9-44.2l-12.2-18.2"/>
		</g>
	</g>
</g>
<g id="Layer_10">
	<g>
		<path class="st1" d="M205.2,392.2h54.2c22.2,0,38.6,12.5,38.6,32.5c0,12.3-6.9,21.3-16.4,25.8v0.2c13.6,3,22.6,15,22.6,31
			c0,21.5-15.3,36.5-40.2,36.5h-58.7V392.2z M255.1,442.8c11.5,0,17.8-6.2,17.8-14.8c0-10.1-7.1-15.7-19.1-15.7h-23.1v30.5H255.1z
			 M257.1,498c12.5,0,20.5-7.1,20.5-17.5c0-11.5-7.6-18.2-21.2-18.2h-25.6V498H257.1z"/>
		<path class="st1" d="M402.4,429.9v88.2h-22.8v-9.7c-9,7.1-18.9,11.8-31.4,11.8c-16.9,0-28.4-9.5-28.4-28.9v-61.4h24v55.9
			c0,10.4,4.4,14.5,12,14.5c8.5,0,15.9-4.2,22.8-10.1v-60.3H402.4z"/>
		<path class="st1" d="M416.5,506.6l9.5-15.2c9.3,7.6,19.2,10.4,26.3,10.4c7.4,0,13.8-3,13.8-8.6c0-7.1-9.5-9-19.1-12.2
			c-14.1-4.8-25.6-10.9-25.6-25.8c0-17.8,15.3-27.7,35.6-27.7c12.5,0,24.7,4.1,33.2,10.2l-9.2,15c-8.1-4.9-16.1-7.4-22.9-7.4
			c-7.9,0-12.9,3.4-12.9,7.9c0,6,7.4,8.1,15.5,10.8c14.5,4.8,30.3,9.9,30.3,27.7c0,18.5-17.8,28.2-37.7,28.2
			C439.5,520,425.7,515.4,416.5,506.6z"/>
		<path class="st1" d="M505.2,404.9c0-8.8,5.5-14.5,14.1-14.5s14.3,5.6,14.3,14.5c0,8.8-5.6,14.5-14.3,14.5S505.2,413.7,505.2,404.9
			z M507.4,429.9h23.8v88.2h-23.8V429.9z"/>
		<path class="st1" d="M636,456.5v61.6h-24.3v-55.9c0-9.9-3.4-14.6-11.8-14.6c-7.1,0-15,3.4-22.6,9.2v61.4h-24.7v-88.2h22.8v9.3
			c9.9-7.4,20.6-11.6,31.8-11.6C625,427.6,636,437.7,636,456.5z"/>
		<path class="st1" d="M724.1,491.6l9.7,15.5c-10.9,8.6-24.9,13.1-37.9,13.1c-27.5,0-44.3-19.2-44.3-45c0-25.4,16.6-47.6,46-47.6
			c19.6,0,37,10.8,37,30.7c0,13.4-7.8,25.2-27.7,25.2h-32.8c2.3,10.8,9.7,17.5,23.3,17.5C706.2,501,716.2,497.5,724.1,491.6z
			 M673.7,467.3h28.2c7.2,0,11.1-4.1,11.1-9.7c0-6.4-6-11.8-15.5-11.8C686.4,445.8,676.2,453.2,673.7,467.3z"/>
		<path class="st1" d="M744.3,506.6l9.5-15.2c9.3,7.6,19.2,10.4,26.3,10.4c7.4,0,13.8-3,13.8-8.6c0-7.1-9.5-9-19.1-12.2
			c-14.1-4.8-25.6-10.9-25.6-25.8c0-17.8,15.3-27.7,35.6-27.7c12.5,0,24.7,4.1,33.2,10.2l-9.2,15c-8.1-4.9-16.1-7.4-22.9-7.4
			c-7.9,0-12.9,3.4-12.9,7.9c0,6,7.4,8.1,15.5,10.8c14.5,4.8,30.3,9.9,30.3,27.7c0,18.5-17.8,28.2-37.7,28.2
			C767.2,520,753.4,515.4,744.3,506.6z"/>
		<path class="st1" d="M827.7,506.6l9.5-15.2c9.3,7.6,19.2,10.4,26.3,10.4c7.4,0,13.8-3,13.8-8.6c0-7.1-9.5-9-19.1-12.2
			c-14.1-4.8-25.6-10.9-25.6-25.8c0-17.8,15.3-27.7,35.6-27.7c12.5,0,24.7,4.1,33.2,10.2l-9.2,15c-8.1-4.9-16.1-7.4-22.9-7.4
			c-7.9,0-12.9,3.4-12.9,7.9c0,6,7.4,8.1,15.5,10.8c14.5,4.8,30.3,9.9,30.3,27.7c0,18.5-17.8,28.2-37.7,28.2
			C850.6,520,836.9,515.4,827.7,506.6z"/>
		<path class="st0" d="M954.7,488.8l23.8-23.3l-23.8-23.3l11.5-11.8l36,34.9l-36,35.1L954.7,488.8z"/>
	</g>
	<g>
		<path class="st0" d="M2312.7,1592.5l36-34.9l11.5,11.8l-23.8,23.3l23.8,23.3l-11.5,11.6L2312.7,1592.5z"/>
		<path class="st1" d="M2413.9,1583c0-40.7,26.5-66,62.4-66c22,0,40,10.1,49.7,27l-18.7,12.5c-7.9-13.1-19.4-17.6-30.3-17.6
			c-22.4,0-37.4,15.5-37.4,43.2c0,28,16.2,42.5,36.3,42.5c16.2,0,28.2-9,35.8-17.8l15.7,15.3c-12.5,14.6-30.7,25-53.3,25
			C2440.7,1647.2,2413.9,1624.8,2413.9,1583z"/>
		<path class="st1" d="M2604,1557.9l-4.9,19c-3.9-1.2-7.1-1.9-10.8-1.9c-7.6,0-16.1,3.2-23.3,9.9v60.3h-24.3v-88.2h23.5v10.2
			c7.1-7.4,16.1-12.5,26.5-12.5C2595.2,1554.8,2600.3,1555.8,2604,1557.9z"/>
		<path class="st1" d="M2679.4,1618.8l9.7,15.5c-10.9,8.6-24.9,13.1-37.9,13.1c-27.5,0-44.3-19.2-44.3-45c0-25.4,16.6-47.6,46-47.6
			c19.6,0,37,10.8,37,30.7c0,13.4-7.8,25.2-27.7,25.2h-32.8c2.3,10.8,9.7,17.5,23.3,17.5C2661.4,1628.1,2671.4,1624.6,2679.4,1618.8
			z M2628.9,1594.4h28.2c7.2,0,11.1-4.1,11.1-9.7c0-6.4-6-11.8-15.5-11.8C2641.6,1572.9,2631.4,1580.3,2628.9,1594.4z"/>
		<path class="st1" d="M2779.7,1591.4v53.8h-21.2v-11.5c-6.2,8.3-15.7,13.6-28.6,13.6c-18.2,0-30.3-10.8-30.3-27.3
			c0-21.7,20.6-29.1,43-29.1c5.1,0,10.2,0.4,15,1.1v-1.2c0-11.5-7.8-16.9-18.7-16.9c-8.3,0-17.6,3-26.8,10.1l-10.2-15
			c9.5-9,24.2-14.1,38.8-14.1C2764,1554.8,2779.7,1567.8,2779.7,1591.4z M2757.7,1606.1c-4.6-0.4-9-0.5-13.2-0.5
			c-11.5,0-21,3.4-21,12.9c0,6.5,4.8,11.1,12.3,11.1C2748.9,1629.5,2756.8,1619.7,2757.7,1606.1z"/>
		<path class="st1" d="M2862.3,1638.2c-7.4,5.6-16.2,9-27.7,9c-19.2,0-30.2-12-30.2-32.3v-41.3h-13.2v-16.6h13.2v-27.3h24v27.3h28.6
			v16.6h-28.6v39.2c0,10.4,6.7,13.1,12.2,13.1c4.4,0,9.5-1.8,14.1-4.8L2862.3,1638.2z"/>
		<path class="st1" d="M2870.9,1532c0-8.8,5.5-14.5,14.1-14.5c8.6,0,14.3,5.6,14.3,14.5s-5.6,14.5-14.3,14.5
			C2876.4,1546.5,2870.9,1540.8,2870.9,1532z M2873,1557.1h23.8v88.2H2873V1557.1z"/>
		<path class="st1" d="M3001.6,1557.1l-33.9,88.2h-25.2l-33.3-88.2h24.5l21.9,67.2l22.4-67.2H3001.6z"/>
		<path class="st1" d="M3011.3,1532c0-8.8,5.5-14.5,14.1-14.5c8.6,0,14.3,5.6,14.3,14.5s-5.6,14.5-14.3,14.5
			C3016.8,1546.5,3011.3,1540.8,3011.3,1532z M3013.4,1557.1h23.8v88.2h-23.8V1557.1z"/>
		<path class="st1" d="M3122.1,1638.2c-7.4,5.6-16.2,9-27.7,9c-19.2,0-30.2-12-30.2-32.3v-41.3H3051v-16.6h13.2v-27.3h24v27.3h28.6
			v16.6h-28.6v39.2c0,10.4,6.7,13.1,12.2,13.1c4.4,0,9.5-1.8,14.1-4.8L3122.1,1638.2z"/>
		<path class="st1" d="M3214,1557.1l-36.2,90.5c-6,15-15.7,33-36,33c-8.1,0-15.7-2.8-21.3-7.9l8.5-16.6c3.4,2.6,7.1,4.2,11.6,4.2
			c7.1,0,11.3-4.4,14.8-12.5l2.3-5.6l-33.9-85h24.7l20.8,59.3l20.1-59.3H3214z"/>
	</g>
</g>
</svg>
