<?xml version="1.0" encoding="UTF-8"?>
<svg width="606px" height="450px" viewBox="0 0 606 450" version="1.1" xmlns="http://www.w3.org/2000/svg" xmlns:xlink="http://www.w3.org/1999/xlink">
    <!-- Generator: Sketch 52.5 (67469) - http://www.bohemiancoding.com/sketch -->
    <title>ILUS_PLY_Folder</title>
    <desc>Created with Sketch.</desc>
    <defs>
        <linearGradient x1="39.1058375%" y1="-0.230996098%" x2="60.3381759%" y2="100.510607%" id="linearGradient-1">
            <stop stop-color="#005AFF" offset="0%"></stop>
            <stop stop-color="#0057FF" stop-opacity="0.9842" offset="1.576012%"></stop>
            <stop stop-color="#0037FF" stop-opacity="0.8122" offset="18.78%"></stop>
            <stop stop-color="#001FFF" stop-opacity="0.6326" offset="36.74%"></stop>
            <stop stop-color="#000EFF" stop-opacity="0.4444" offset="55.56%"></stop>
            <stop stop-color="#0003FF" stop-opacity="0.2419" offset="75.81%"></stop>
            <stop stop-color="#0000FF" stop-opacity="0" offset="100%"></stop>
        </linearGradient>
        <linearGradient x1="52.01%" y1="99.0458333%" x2="52.01%" y2="-1.98333333%" id="linearGradient-2">
            <stop stop-color="#808080" stop-opacity="0.25" offset="0%"></stop>
            <stop stop-color="#808080" stop-opacity="0.12" offset="54%"></stop>
            <stop stop-color="#808080" stop-opacity="0.1" offset="100%"></stop>
        </linearGradient>
        <linearGradient x1="97.7358057%" y1="7.16296296%" x2="2.96141691%" y2="96.8864122%" id="linearGradient-3">
            <stop stop-color="#1C1CA2" offset="0%"></stop>
            <stop stop-color="#4B27A4" stop-opacity="0.8617" offset="19.76%"></stop>
            <stop stop-color="#8736A5" stop-opacity="0.6683" offset="47.39%"></stop>
            <stop stop-color="#B240A7" stop-opacity="0.5033" offset="70.95%"></stop>
            <stop stop-color="#CD47A8" stop-opacity="0.3754" offset="89.23%"></stop>
            <stop stop-color="#D749A8" stop-opacity="0.3" offset="100%"></stop>
        </linearGradient>
        <linearGradient x1="16.3941207%" y1="91.9662142%" x2="83.6127565%" y2="8.01940275%" id="linearGradient-4">
            <stop stop-color="#808080" stop-opacity="0.25" offset="0%"></stop>
            <stop stop-color="#808080" stop-opacity="0.12" offset="54%"></stop>
            <stop stop-color="#808080" stop-opacity="0.1" offset="100%"></stop>
        </linearGradient>
        <linearGradient x1="25.6436813%" y1="95.8726831%" x2="74.428392%" y2="4.11686534%" id="linearGradient-5">
            <stop stop-color="#808080" stop-opacity="0.25" offset="0%"></stop>
            <stop stop-color="#808080" stop-opacity="0.12" offset="54%"></stop>
            <stop stop-color="#808080" stop-opacity="0.1" offset="100%"></stop>
        </linearGradient>
        <linearGradient x1="39.5996631%" y1="98.8051617%" x2="60.3825344%" y2="1.21832875%" id="linearGradient-6">
            <stop stop-color="#808080" stop-opacity="0.25" offset="0%"></stop>
            <stop stop-color="#808080" stop-opacity="0.12" offset="54%"></stop>
            <stop stop-color="#808080" stop-opacity="0.1" offset="100%"></stop>
        </linearGradient>
        <linearGradient x1="56.4791842%" y1="99.3091263%" x2="43.554086%" y2="0.687275394%" id="linearGradient-7">
            <stop stop-color="#808080" stop-opacity="0.25" offset="0%"></stop>
            <stop stop-color="#808080" stop-opacity="0.12" offset="54%"></stop>
            <stop stop-color="#808080" stop-opacity="0.1" offset="100%"></stop>
        </linearGradient>
        <linearGradient x1="10.5141727%" y1="-6.26236934%" x2="88.7962788%" y2="107.185125%" id="linearGradient-8">
            <stop stop-color="#1C1CA2" offset="0%"></stop>
            <stop stop-color="#4827A3" stop-opacity="0.8651" offset="15.88%"></stop>
            <stop stop-color="#7B33A5" stop-opacity="0.6902" offset="36.45%"></stop>
            <stop stop-color="#A33CA6" stop-opacity="0.5254" offset="55.83%"></stop>
            <stop stop-color="#BF43A7" stop-opacity="0.3755" offset="73.47%"></stop>
            <stop stop-color="#D148A8" stop-opacity="0.2455" offset="88.76%"></stop>
            <stop stop-color="#D749A8" stop-opacity="0.15" offset="100%"></stop>
        </linearGradient>
    </defs>
    <g id="rv2" stroke="none" stroke-width="1" fill="none" fill-rule="evenodd">
        <g id="Case-study-(1680px)-[XL-/-15&quot;-Laptop]" transform="translate(-153.000000, -4979.000000)">
            <g id="ILUS_PLY_Folder" transform="translate(153.000000, 4979.000000)">
                <g id="Group" opacity="0.12" fill="url(#linearGradient-1)">
                    <path d="M302.974675,9.20385144 C363.019156,24.3565337 413.908117,67.5697387 456.371753,110.782944 C495.072078,150.179917 532.031169,197.489959 514.450325,255.238514 C496.981818,312.594223 437.611364,356.312517 386.441558,382.408803 C332.800325,409.795873 274.777922,414.566162 217.20487,397.842091 C160.193506,381.286382 104.474026,361.475653 62.5159091,320.451169 C20.8948052,279.763411 -13.0873377,213.765062 5.67305195,151.91967 C39.3743506,41.0244842 197.882792,-25.3667125 302.974675,9.20385144 Z" id="Path"></path>
                </g>
                <g id="Group" transform="translate(377.000000, 5.000000)">
                    <path d="M36.4036855,118.886647 C36.4036855,118.886647 35.1095823,127.243027 31.9587224,128.476855 C28.8078624,129.710682 36.4036855,138.796142 36.4036855,138.796142 L51.0889435,137.225816 L51.2014742,134.141246 C51.2014742,134.141246 48.1068796,128.140356 52.3267813,120.456973 C56.546683,112.773591 36.4036855,118.886647 36.4036855,118.886647 Z" id="Path" fill="#FBCDDC"></path>
                    <path d="M71.5695332,62.1305638 C68.6437346,73.6275964 58.0658477,77.3290801 58.0658477,77.3290801 C58.0658477,77.3290801 51.1452088,83.0495549 50.2449631,84.7320475 C49.2884521,86.4706231 40.8486486,94.0418398 38.5980344,95.1074184 C36.3474201,96.172997 34.6594595,97.7994065 35.3909091,99.8744807 C36.0660934,101.781306 30.4958231,111.595846 29.6518428,113.054006 L29.539312,113.222255 L27.7388206,115.353412 L21.3808354,118.998813 L15.9793612,117.596736 L14.9665848,111.259347 L17.4985258,106.099703 C19.0739558,104.865875 20.368059,103.295549 21.2683047,101.556973 C22.9562654,98.4163205 24.0815725,96.2851632 24.0815725,96.2851632 C24.0815725,96.2851632 25.8257985,91.4059347 28.8641278,88.4335312 C30.9459459,86.4145401 33.1965602,84.6198813 35.6159705,83.0495549 L48.2756757,74.5810089 C48.2756757,74.5810089 51.0889435,72.2255193 53.1144963,71.5525223 C55.1400491,70.8795252 74.4953317,50.5774481 71.5695332,62.1305638 Z" id="Path" fill="#FBCDDC"></path>
                    <g transform="translate(0.000000, 105.875371)">
                        <g>
                            <path d="M73.3137592,35.4445104 C73.3137592,35.5005935 73.2574939,35.5566766 73.2574939,35.6127596 C73.0324324,36.4540059 69.8253071,40.2115727 69.8253071,40.2115727 C69.8253071,40.2115727 60.485258,47.3341246 57.3906634,48.6801187 C54.3523342,49.9700297 50.5262899,56.1391691 50.5262899,56.1391691 L46.8690418,64.7759644 C46.8690418,64.7759644 39.8358722,70.7207715 39.160688,72.2350148 C38.7105651,73.2445104 38.8793612,75.0391691 38.9918919,76.0486647 C38.9918919,76.4973294 39.1044226,76.8338279 39.1044226,76.8338279 L37.0788698,79.1893175 L35.4471744,81.0961424 L33.1402948,83.7320475 L29.1454545,83.395549 L16.7108108,82.105638 L14.2914005,80.9278932 L0.731449631,74.2540059 C0.731449631,74.2540059 0.731449631,73.8053412 0.618918919,73.0762611 C0.618918919,72.7397626 0.562653563,72.4032641 0.506388206,72.0106825 C0.393857494,70.8329377 0.281326781,69.3186944 0.112530713,68.0848665 C-0.168796069,65.4489614 1.57542998,60.8501484 1.57542998,60.8501484 L4.78255528,51.5964392 C4.33243243,49.9139466 6.13292383,45.2029674 6.13292383,45.2029674 C5.73906634,44.5299703 7.53955774,37.8 8.04594595,37.1830861 C8.55233415,36.510089 9.17125307,31.7991098 9.17125307,31.7991098 C10.1840295,30.1166172 11.365602,21.9284866 11.365602,21.9284866 C11.365602,21.9284866 12.6597052,11.4970326 12.8847666,8.91721068 C13.1660934,6.33738872 17.3297297,0.28041543 17.4422604,0.112166172 C14.5727273,6.16913947 17.6110565,10.2632047 17.6110565,10.2632047 L20.8181818,9.53412463 L29.4267813,7.40296736 C29.0329238,7.68338279 29.4830467,10.5997033 29.4830467,10.5997033 C30.2707617,11.1605341 30.8334152,12.0017804 31.0584767,12.8991098 C31.2272727,14.1890208 32.9152334,16.1519288 33.1965602,16.4884273 L33.2528256,16.5445104 C33.4216216,15.2545994 34.0968059,14.1329377 35.1658477,13.4599407 L37.3039312,16.0397626 L38.1479115,19.1804154 C38.1479115,19.1804154 37.9791155,19.6290801 36.8538084,20.5824926 C35.7285012,21.535905 37.5289926,23.7792285 37.5289926,23.7792285 C38.1479115,24.6765579 38.4855037,28.1537092 38.4855037,28.1537092 C39.8921376,26.8077151 42.1990172,26.6394659 42.1990172,26.6394659 C43.0992629,25.6299703 43.7744472,24.5083086 44.2808354,23.2744807 C44.3933661,22.5454006 45.1248157,22.0406528 45.8562654,22.2089021 C45.9687961,22.2089021 46.0813268,22.2649852 46.1375921,22.3210682 C46.7565111,21.7041543 47.4879607,21.1433234 48.2194103,20.6946588 C49.2884521,20.0777448 50.5825553,21.1433234 50.5825553,21.1433234 L50.9201474,25.2373887 C50.9201474,25.2373887 51.0326781,25.405638 51.2014742,25.6299703 C51.5953317,26.078635 52.270516,26.8077151 52.6081081,26.6394659 C53.1707617,26.4151335 57.6719902,26.6394659 57.6719902,26.6394659 C57.6719902,26.6394659 59.2474201,27.2002967 59.8100737,26.3590504 C60.3164619,25.4617211 63.5235872,23.1062315 63.5235872,23.1062315 C63.5235872,23.1062315 64.592629,31.3504451 64.7614251,33.6498516 C64.8739558,35.9492582 66.5619165,36.0614243 66.5619165,36.0614243 L73.3137592,35.4445104 Z" id="Path" fill="#BBABF4"></path>
                            <ellipse id="Oval" fill="#5C5C8E" cx="36.5724816" cy="31.9673591" rx="1" ry="1"></ellipse>
                            <ellipse id="Oval" fill="#5C5C8E" cx="31.3398034" cy="43.9130564" rx="1" ry="1"></ellipse>
                            <ellipse id="Oval" fill="#5C5C8E" cx="21.155774" cy="69.3747774" rx="1" ry="1"></ellipse>
                            <ellipse id="Oval" fill="#5C5C8E" cx="25.9383292" cy="56.5317507" rx="1" ry="1"></ellipse>
                        </g>
                        <path d="M51.4265356,26.0225519 C47.4879607,27.4246291 38.3167076,30.7896142 38.2604423,30.7896142 L38.6542998,28.658457 C40.0609337,27.3124629 42.3678133,27.1442136 42.3678133,27.1442136 C43.268059,26.1347181 43.9432432,25.0130564 44.4496314,23.7792285 C44.5621622,23.0501484 45.2936118,22.5454006 46.0250614,22.7136499 C46.1375921,22.7136499 46.2501229,22.7697329 46.3063882,22.825816 C46.9253071,22.2089021 47.6567568,21.6480712 48.3882064,21.1994065 C49.4572482,20.5824926 50.7513514,21.6480712 50.7513514,21.6480712 L51.0889435,25.7421365 C51.1452088,25.6299703 51.2577396,25.7982196 51.4265356,26.0225519 Z" id="Path" fill="#000000" opacity="0.05"></path>
                        <path d="M37.4164619,24.0035608 C38.0353808,24.9008902 38.372973,28.3780415 38.372973,28.3780415 L36.9100737,29.6679525 L33.477887,21.3676558 L33.0840295,16.9931751 L33.0277641,16.7688427 L33.0840295,16.8249258 C33.2528256,15.5350148 33.9280098,14.4133531 34.9970516,13.7403561 L37.1351351,16.320178 L37.9791155,19.4608309 C37.9791155,19.4608309 37.8103194,19.9094955 36.6850123,20.862908 C35.5597052,21.8163205 37.4164619,24.0035608 37.4164619,24.0035608 Z" id="Path" fill="#000000" opacity="0.05"></path>
                    </g>
                    <path d="M56.546683,114.063501 C56.8842752,120.681306 51.8203931,126.345697 45.1248157,126.682196 C38.4855037,127.018694 32.8027027,121.971217 32.4651106,115.297329 C32.1275184,108.679525 37.1914005,103.015134 43.8307125,102.678635 C50.4137592,102.286053 56.0965602,107.277448 56.4904177,113.839169 C56.546683,113.895252 56.546683,114.007418 56.546683,114.063501 Z" id="Path" fill="#000000" opacity="0.05"></path>
                    <path d="M56.546683,113.502671 C56.8842752,120.120475 51.8203931,125.784866 45.1810811,126.177448 C38.541769,126.513947 32.8589681,121.466469 32.4651106,114.848665 C32.1275184,108.230861 37.1914005,102.566469 43.8307125,102.173887 C43.8307125,102.173887 43.8307125,102.173887 43.8307125,102.173887 C50.4137592,101.781306 56.0965602,106.828783 56.4904177,113.390504 C56.546683,113.446588 56.546683,113.446588 56.546683,113.502671 Z" id="Path" fill="#FBCDDC"></path>
                    <polygon id="Rectangle" fill="#F6F7F9" transform="translate(135.780022, 67.775354) rotate(-75.073012) translate(-135.780022, -67.775354) " points="88.9829322 -16.1118425 182.353628 -15.9882853 182.577112 151.662551 89.2064162 151.538994"></polygon>
                    <g opacity="0.2" transform="translate(68.081081, 30.724036)" fill="#6C63FF" id="Oval">
                        <ellipse transform="translate(18.535232, 18.622040) rotate(-3.083521) translate(-18.535232, -18.622040) " cx="18.5352323" cy="18.6220402" rx="17.4429333" ry="17.3867538"></ellipse>
                    </g>
                    <g opacity="0.2" transform="translate(127.722359, 39.136499)" fill="#6C63FF" id="Rectangle">
                        <polygon transform="translate(37.793445, 12.261891) rotate(-75.073012) translate(-37.793445, -12.261891) " points="35.3786199 -25.7690193 40.1055017 -25.7628477 40.208271 50.2928013 35.4813891 50.2866297"></polygon>
                    </g>
                    <g opacity="0.2" transform="translate(124.909091, 50.913947)" fill="#6C63FF" id="Rectangle">
                        <polygon transform="translate(19.464485, 7.429099) rotate(-75.073012) translate(-19.464485, -7.429099) " points="17.0646992 -11.9529832 21.8122751 -11.9467406 21.8642711 26.8111818 17.1166952 26.8049391"></polygon>
                    </g>
                    <g opacity="0.2" transform="translate(121.533170, 62.691395)" fill="#6C63FF" id="Rectangle">
                        <polygon transform="translate(31.201014, 10.492184) rotate(-75.073012) translate(-31.201014, -10.492184) " points="28.791587 -20.8442757 33.5259781 -20.8380789 33.6104404 41.8286429 28.8760493 41.822446"></polygon>
                    </g>
                    <g opacity="0.2" transform="translate(118.157248, 74.468843)" fill="#6C63FF" id="Rectangle">
                        <polygon transform="translate(37.898808, 12.193088) rotate(-75.073012) translate(-37.898808, -12.193088) " points="35.4839824 -25.8378221 40.2108642 -25.8316505 40.3136335 50.2239985 35.5867516 50.2178269"></polygon>
                    </g>
                    <g opacity="0.5" transform="translate(165.982801, 105.314540)" fill="#6C63FF" id="Rectangle">
                        <polygon transform="translate(11.559166, 7.537785) rotate(-75.073012) translate(-11.559166, -7.537785) " points="6.95066248 -2.98578628 16.1396129 -2.9736337 16.1676696 18.0613573 6.97871923 18.0492047"></polygon>
                    </g>
                    <path d="M83.8916462,68.0192878 C76.2395577,68.748368 76.914742,89.0504451 77.4773956,89.8916914 C77.9837838,90.7329377 76.2958231,100.04273 76.2958231,100.04273 C76.2958231,100.04273 73.595086,114.063501 74.1014742,116.643323 C74.6641278,119.223145 72.4697789,121.017804 72.4697789,121.017804 C69.1501229,122.588131 65.0990172,127.243027 64.0299754,128.532938 L63.7486486,128.869436 L63.6923833,128.925519 C63.6923833,128.925519 63.7486486,128.925519 63.7486486,128.925519 C63.7486486,128.925519 64.8176904,137.169733 64.9864865,139.469139 C65.0990172,141.768546 66.7869779,141.880712 66.7869779,141.880712 L73.3700246,141.432047 C73.3700246,141.488131 73.3137592,141.544214 73.3137592,141.600297 C73.3137592,141.600297 73.3137592,141.65638 73.3137592,141.65638 L73.3700246,141.65638 L81.9223587,126.906528 C85.4108108,123.709792 85.1857494,117.260237 85.1857494,117.260237 L85.3545455,102.510386 L84.5668305,93.8175074 L84.7356265,88.8821958 C84.6793612,88.6578635 91.5437346,67.2902077 83.8916462,68.0192878 Z" id="Path" fill="#FBCDDC"></path>
                    <path d="M43.3243243,108.735608 C43.5493857,109.296439 43.5493857,109.85727 43.7744472,110.362018 C44.1683047,111.147181 45.012285,111.48368 45.8562654,111.708012 C46.7002457,111.820178 47.4879607,112.156677 48.2194103,112.605341 C49.3447174,113.502671 49.4009828,115.185163 49.3447174,116.643323 C49.2884521,117.372404 49.3447174,118.045401 49.5697789,118.774481 C49.7948403,119.447478 50.4137592,119.952226 51.1452088,120.008309 C51.9891892,119.952226 52.5518428,119.223145 52.8331695,118.437982 C52.8894349,118.21365 53.0019656,118.045401 53.1707617,117.877151 C53.5646192,117.596736 54.1835381,117.933234 54.4648649,118.381899 C54.6899263,118.830564 54.9149877,119.279228 55.2525799,119.67181 C55.6464373,120.008309 56.2090909,120.064392 56.7154791,119.952226 C57.2218673,119.783976 57.6719902,119.503561 58.0658477,119.167062 C59.1348894,118.325816 59.9788698,117.204154 60.485258,115.970326 C60.9916462,114.680415 60.8228501,113.278338 60.0914005,112.100593 C59.6412776,111.427596 58.9660934,110.922849 58.6285012,110.137685 C58.122113,108.847774 58.909828,107.445697 59.3599509,106.099703 C59.8100737,104.865875 59.9226044,103.575964 59.6412776,102.286053 C59.3599509,100.996142 58.5722359,99.9305638 57.5031941,99.2014837 C55.3088452,97.9115727 52.4955774,98.8089021 50.0199017,98.3041543 C49.119656,98.079822 48.2756757,97.7433234 47.4316953,97.4068249 C46.1375921,96.9020772 44.8434889,96.5655786 43.4931204,96.3973294 C42.1427518,96.2290801 40.5673219,96.2290801 39.7796069,97.3507418 C39.5545455,97.6872404 39.3857494,98.079822 39.2169533,98.4724036 C38.7105651,99.3697329 37.9228501,100.04273 36.9100737,100.379228 C36.1786241,100.603561 35.4471744,100.603561 34.7157248,100.715727 C33.9842752,100.827893 33.3090909,101.220475 32.9152334,101.893472 C32.5776413,102.566469 32.8027027,103.351632 32.9152334,104.136795 C33.0277641,104.921958 33.0277641,105.763205 32.4651106,106.267953 C32.1837838,106.492285 31.7899263,106.604451 31.6773956,106.94095 C31.5085995,107.333531 31.6773956,107.726113 32.0149877,107.950445 C32.3525799,108.174777 32.690172,108.286944 33.0840295,108.343027 C34.4906634,108.679525 35.9535627,108.847774 37.3601966,108.847774 C38.8230958,108.791691 40.2297297,108.230861 41.2425061,107.165282 C41.1299754,107.277448 40.5673219,107.277448 40.4547912,107.277448 C41.5238329,107.221365 42.8742015,107.67003 43.3243243,108.735608 Z" id="Path" fill="#7E646B"></path>
                    <g opacity="0.05" transform="translate(31.508600, 100.827893)" fill="#000000" id="Path">
                        <path d="M27.2886978,16.937092 C26.8948403,17.2735905 26.4447174,17.5540059 25.9383292,17.7222552 C25.431941,17.8905045 24.8692875,17.7783383 24.47543,17.4418398 C24.1378378,17.0492582 23.8565111,16.6005935 23.687715,16.1519288 C23.4063882,15.7032641 22.7874693,15.3667656 22.3936118,15.647181 C22.2248157,15.8154303 22.112285,15.9836795 22.0560197,16.2080119 C21.7746929,16.937092 21.155774,17.7222552 20.368059,17.7783383 C19.6366093,17.7222552 19.0176904,17.2735905 18.792629,16.5445104 C18.5675676,15.8715134 18.5113022,15.1424332 18.5675676,14.4133531 C18.6238329,12.9551929 18.5675676,11.3287834 17.4422604,10.3753709 C16.7108108,9.92670623 15.9230958,9.59020772 15.0791155,9.47804154 C14.2351351,9.2537092 13.3911548,8.8611276 12.9972973,8.13204748 C12.7722359,7.57121662 12.7722359,7.01038576 12.5471744,6.50563798 C12.153317,5.66439169 11.1968059,5.215727 10.2965602,5.04747774 C9.28378378,6.00089021 7.93341523,6.50563798 6.58304668,6.56172107 C5.12014742,6.56172107 3.65724816,6.39347181 2.30687961,6.05697329 C1.91302211,6.00089021 1.51916462,5.88872404 1.23783784,5.66439169 C1.18157248,5.60830861 1.12530713,5.55222552 1.06904177,5.49614243 C0.843980344,5.60830861 0.618918919,5.77655786 0.45012285,6.00089021 C0.281326781,6.39347181 0.45012285,6.78605341 0.787714988,7.01038576 C1.12530713,7.2347181 1.46289926,7.34688427 1.85675676,7.40296736 C3.26339066,7.73946588 4.72628993,7.90771513 6.13292383,7.90771513 C7.48329238,7.85163205 8.83366093,7.34688427 9.84643735,6.39347181 C10.746683,6.56172107 11.7031941,7.01038576 12.0970516,7.85163205 C12.322113,8.41246291 12.322113,8.97329377 12.5471744,9.47804154 C12.9410319,10.2632047 13.7850123,10.5997033 14.6289926,10.8240356 C15.472973,10.9362018 16.260688,11.2727003 16.9921376,11.721365 C18.1174447,12.6186944 18.1737101,14.3011869 18.1174447,15.7593472 C18.0611794,16.4884273 18.1174447,17.1614243 18.3425061,17.8905045 C18.5675676,18.5635015 19.1864865,19.0682493 19.9179361,19.1243323 C20.7619165,19.0682493 21.32457,18.3391691 21.6058968,17.5540059 C21.6621622,17.3296736 21.7746929,17.1614243 21.9434889,16.9931751 C22.3373464,16.7127596 22.9562654,17.0492582 23.2375921,17.4979228 C23.4626536,17.9465875 23.687715,18.3952522 24.0253071,18.7878338 C24.4191646,19.1243323 24.9818182,19.1804154 25.4882064,19.0682493 C25.9945946,18.9 26.4447174,18.6195846 26.8385749,18.2830861 C27.9076167,17.4418398 28.7515971,16.320178 29.2579853,15.0863501 C29.370516,14.8620178 29.4267813,14.5816024 29.4830467,14.35727 C28.8641278,15.3106825 28.1889435,16.2080119 27.2886978,16.937092 Z"></path>
                        <path d="M27.795086,6.00089021 C27.9076167,5.72047478 28.0201474,5.49614243 28.0764128,5.215727 C28.1889435,4.93531157 28.1889435,4.8231454 28.2452088,4.59881306 C28.0764128,5.04747774 27.9076167,5.49614243 27.795086,6.00089021 Z"></path>
                        <path d="M1.63169533,3.86973294 C2.13808354,3.36498516 2.13808354,2.52373887 2.02555283,1.79465875 C1.91302211,1.40207715 1.85675676,0.953412463 1.85675676,0.504747774 C1.74422604,0.616913947 1.63169533,0.785163205 1.57542998,0.897329377 C1.23783784,1.57032641 1.46289926,2.35548961 1.57542998,3.14065282 C1.57542998,3.42106825 1.63169533,3.64540059 1.63169533,3.86973294 Z"></path>
                    </g>
                    <path d="M21.155774,114.904748 L29.7643735,112.717507 C29.6518428,112.829674 29.6518428,112.94184 29.6518428,113.110089 L29.539312,113.278338 L27.7388206,115.409496 L21.3808354,119.054896 L15.9793612,117.652819 L14.9665848,111.31543 L17.4985258,106.155786 C15.1353808,111.820178 17.9486486,115.633828 17.9486486,115.633828 L21.155774,114.904748 Z" id="Path" fill="#000000" opacity="0.05"></path>
                    <path d="M73.595086,140.75905 C73.595086,140.815134 73.5388206,140.871217 73.5388206,140.9273 C73.4825553,141.151632 73.3700246,141.319881 73.2574939,141.488131 L69.8253071,143.394955 L64.4800983,144.236202 L61.3292383,137.674481 L62.7921376,130.21543 L63.7486486,128.813353 L64.0299754,128.476855 C64.1987715,129.822849 65.0990172,136.721068 65.2115479,138.796142 C65.2678133,141.095549 67.0120393,141.207715 67.0120393,141.207715 L73.595086,140.75905 Z" id="Path" fill="#000000" opacity="0.05"></path>
                </g>
                <path d="M450.6,95.4166667 C450.7,95.2916667 450.9,95.125 451,95 C450.6,95.3333333 450.3,95.6666667 450,96 C450.2,95.7916667 450.4,95.625 450.6,95.4166667 Z" id="Path" fill="url(#linearGradient-2)"></path>
                <path d="M402.941084,304.308766 C402.714597,306.770361 396.59944,305.81929 396.59944,305.81929 C386.407511,307.217924 388.106166,297.371541 388.106166,297.371541 L388.106166,296.868033 L388.445897,287.692995 L388.559141,285.119509 C388.559141,285.119509 399.770262,280.084427 399.487153,281.147388 C399.373909,281.539006 399.600396,282.490077 399.940127,283.553039 C400.506345,285.287345 401.299051,287.245432 401.299051,287.245432 C401.299051,287.245432 401.355673,291.329443 401.015942,292.504296 C400.676211,293.679148 402.771218,296.923979 402.771218,296.923979 C402.771218,296.923979 402.771218,297.14776 402.82784,297.483432 C402.997706,299.665301 403.054328,301.959061 402.941084,304.308766 Z" id="Path" fill="#B77983"></path>
                <path d="M422.42443,306.819694 C422.42443,306.819694 416.286468,307.768641 416.059136,305.312542 C415.94547,303.023904 416.002303,300.679445 416.172802,298.390807 C416.172802,298.055885 416.172802,297.832603 416.172802,297.832603 C416.172802,297.832603 418.275622,294.650838 417.934624,293.422788 C417.593626,292.250559 417.650459,288.175667 417.650459,288.175667 C417.650459,288.175667 417.877791,287.673283 418.161956,286.947617 C418.787119,285.384645 419.696447,282.872725 419.469115,282.147059 C419.241783,281.086471 430.437881,286.11031 430.437881,286.11031 L430.551547,288.957153 L430.892545,297.832603 L430.892545,298.334987 C430.892545,298.390807 432.597534,308.215205 422.42443,306.819694 Z" id="Path" fill="#B77983"></path>
                <path d="M462.575,133.722222 L462.375,133.722222 C462.775,132.722222 462.575,133.722222 462.575,133.722222 Z" id="Path"></path>
                <path d="M400,283.491226 C395.990148,288.402849 391.600985,288.347035 389,287.677268 L389.108374,285.109829 C389.108374,285.109829 399.837438,280.086578 399.566502,281.147042 C399.458128,281.481925 399.674877,282.430762 400,283.491226 Z" id="Path" fill="#000000" opacity="0.05"></path>
                <path d="M431,289.322214 C424.06422,293.576791 419.93578,288.56455 419,287.165785 C419.605505,285.533893 420.486239,282.911208 420.266055,282.153544 C419.990826,281.046188 430.889908,286.291557 430.889908,286.291557 L431,289.322214 Z" id="Path" fill="#000000" opacity="0.05"></path>
                <path d="M423,249 C423,249 429.448974,244.500788 430.846251,246.522173 C432.29727,248.608764 423,249 423,249 Z" id="Path" fill="#000000" opacity="0.05"></path>
                <path d="M427.209215,251 C427.209215,251 426.286576,251.387142 428.316382,251.890427 C430.346187,252.393711 427.209215,251 427.209215,251 Z" id="Path" fill="#000000" opacity="0.05"></path>
                <path d="M386.00634,240.080295 C385.779666,240.134322 391.673175,243.862192 397,240.782647 C397,240.782647 387.36638,239.702105 386.00634,240.080295 Z" id="Path" fill="#000000" opacity="0.05"></path>
                <path d="M397,247 C397,247 395.272,250.458461 391.816,250.952526 C388.36,251.508351 397,247 397,247 Z" id="Path" fill="#000000" opacity="0.05"></path>
                <path d="M419,254 C419,254 426.192711,265.912253 424.827671,268.699065 C423.462631,271.485876 419,254 419,254 Z" id="Path" fill="#000000" opacity="0.05"></path>
                <path d="M403,302.569872 C403,303.220852 403,303.871832 402.943237,304.360067 C402.716183,306.746994 396.585737,305.824772 396.585737,305.824772 C390.966161,306.584249 388.922679,303.980328 388.298282,301.539153 C388.071229,300.725428 387.957702,299.911703 388.014465,299.097978 C388.014465,298.609743 388.071229,298.121508 388.127992,297.633273 L388.127992,297.145038 C389.320023,296.819548 390.625581,297.036541 391.647322,297.850266 C394.144911,299.803206 397.437188,298.284253 397.437188,298.284253 C397.437188,298.284253 399.878014,298.501246 400.786228,299.260723 C401.297098,299.69471 402.205313,298.663991 402.82971,297.633273 C402.886473,298.284253 402.943237,299.423468 402.943237,300.67118 C403,301.376408 403,301.97314 403,302.569872 Z" id="Path" fill="#000000" opacity="0.05"></path>
                <path d="M394,302.476002 C394,302.476002 392.356251,304.128527 389.287921,301.564264 C389.068754,300.709509 388.959171,299.854755 389.013963,299 C390.60292,300.25364 393.506875,302.476002 394,302.476002 Z" id="Path" fill="#000000" opacity="0.05"></path>
                <path d="M404,302.752789 C403.375,303.153426 402.5,303.053267 402.0625,302.55247 C402.0625,302.55247 402,302.50239 402,302.50239 C402.75,302.051673 403.375,301.550876 404,301 C404,301.651036 404,302.201912 404,302.752789 Z" id="Path" fill="#000000" opacity="0.05"></path>
                <path d="M416,303.569872 C416,304.220852 416,304.871832 416.056681,305.360067 C416.283406,307.746994 422.404972,306.824772 422.404972,306.824772 C428.016408,307.584249 430.05693,304.980328 430.680423,302.539153 C431.02051,301.237193 431.077191,299.935233 430.907147,298.633273 L430.907147,298.145038 C429.716843,297.819548 428.413176,298.036541 427.392915,298.850266 C424.898943,300.803206 421.611436,299.284253 421.611436,299.284253 C421.611436,299.284253 419.174145,299.501246 418.267247,300.260723 C417.757116,300.69471 416.850218,299.663991 416.226725,298.633273 C416.170044,299.284253 416.113362,300.423468 416.056681,301.67118 C416.056681,302.32216 416,302.97314 416,303.569872 Z" id="Path" fill="#000000" opacity="0.05"></path>
                <path d="M426,303.476002 C426,303.476002 427.630435,305.128527 430.673913,302.564264 C430.891304,301.709509 431,300.854755 431,300 C429.423913,301.25364 426.543478,303.476002 426,303.476002 Z" id="Path" fill="#000000" opacity="0.05"></path>
                <path d="M416,303.752789 C416.625,304.153426 417.5,304.053267 417.9375,303.55247 C417.9375,303.55247 418,303.50239 418,303.50239 C417.25,303.051673 416.625,302.550876 416,302 C416.0625,302.600956 416,303.201912 416,303.752789 Z" id="Path" fill="#000000" opacity="0.05"></path>
                <path d="M148.750999,403 C147.403367,401.372415 146.785703,399.295842 147.066459,397.163145 L171.604591,196.577369 L173.626039,179.908657 C174.07525,176.092252 177.332027,173.173824 181.206469,173.173824 L253.080172,172.668712 C257.347673,172.668712 260.716753,169.189048 260.716753,164.923654 C260.716753,164.86753 260.716753,164.811406 260.716753,164.755283 L260.716753,163.969552 C260.548299,159.704158 263.917379,156.168371 268.128728,156 C268.241031,156 268.297182,156 268.409485,156 L343.933025,156 C348.144375,156 351.625757,159.42354 351.625757,163.688934 C351.625757,164.025676 351.625757,164.362418 351.569606,164.699159 C351.008092,168.90843 353.984113,172.780959 358.195463,173.342195 C358.476219,173.398319 358.756976,173.398319 359.037733,173.398319 L431.529101,175.250398 C435.796602,175.362645 439.10953,178.898432 438.997227,183.107703 C438.997227,183.500568 438.941076,183.83731 438.884925,184.230175 L402.611165,395.872302 L401.937349,399.857078 C401.768895,400.867303 401.375836,401.877528 400.814323,402.719382 L148.750999,403 Z" id="Path" fill="#EDE0D1"></path>
                <path d="M148.750999,403 C147.403367,401.372415 146.785703,399.295842 147.066459,397.163145 L171.604591,196.577369 L173.626039,179.908657 C174.07525,176.092252 177.332027,173.173824 181.206469,173.173824 L253.080172,172.668712 C257.347673,172.668712 260.716753,169.189048 260.716753,164.923654 C260.716753,164.86753 260.716753,164.811406 260.716753,164.755283 L260.716753,163.969552 C260.548299,159.704158 263.917379,156.168371 268.128728,156 C268.241031,156 268.297182,156 268.409485,156 L343.933025,156 C348.144375,156 351.625757,159.42354 351.625757,163.688934 C351.625757,164.025676 351.625757,164.362418 351.569606,164.699159 C351.008092,168.90843 353.984113,172.780959 358.195463,173.342195 C358.476219,173.398319 358.756976,173.398319 359.037733,173.398319 L431.529101,175.250398 C435.796602,175.362645 439.10953,178.898432 438.997227,183.107703 C438.997227,183.500568 438.941076,183.83731 438.884925,184.230175 L402.611165,395.872302 L401.937349,399.857078 C401.768895,400.867303 401.375836,401.877528 400.814323,402.719382 L148.750999,403 Z" id="Path" fill="url(#linearGradient-3)" opacity="0.2"></path>
                <g id="Group" opacity="0.5" transform="translate(278.000000, 140.000000)" fill="url(#linearGradient-4)">
                    <polygon id="Path" points="0.281553398 124.139924 77.9902913 0.112547529 115.943689 23.860076 38.2349515 147.887452"></polygon>
                </g>
                <polygon id="Rectangle" fill="#F9FAFB" transform="translate(335.681142, 216.119026) rotate(-59.570766) translate(-335.681142, -216.119026) " points="263.619135 194.888858 407.743568 194.887435 407.743149 237.349194 263.618716 237.350616"></polygon>
                <polygon id="Rectangle" fill="#F4BAD9" transform="translate(362.078075, 169.195492) rotate(-59.408665) translate(-362.078075, -169.195492) " points="347.082752 154.200332 377.073695 154.200035 377.073398 184.190652 347.082455 184.190949"></polygon>
                <polygon id="Rectangle" fill="#FFE0F5" transform="translate(345.138505, 200.215435) rotate(-59.570766) translate(-345.138505, -200.215435) " points="330.11399 185.191085 360.163316 185.190789 360.16302 215.239784 330.113693 215.240081"></polygon>
                <polygon id="Rectangle" fill="#F7B643" opacity="0.3" transform="translate(335.136174, 217.014758) rotate(-59.570766) translate(-335.136174, -217.014758) " points="320.111659 201.990408 350.160986 201.990112 350.160689 232.039107 320.111363 232.039404"></polygon>
                <g id="Group" opacity="0.5" transform="translate(276.000000, 127.000000)" fill="url(#linearGradient-5)">
                    <polygon id="Path" points="0.448 140.11875 41.16 0.16875 83.888 12.7125 43.232 152.6625"></polygon>
                </g>
                <polygon id="Rectangle" fill="#F9FAFB" transform="translate(318.424174, 204.432063) rotate(-73.710690) translate(-318.424174, -204.432063) " points="246.615098 183.201868 390.233509 183.200994 390.23325 225.662258 246.61484 225.663132"></polygon>
                <polygon id="Rectangle" fill="#EF9EBC" transform="translate(333.745222, 152.137521) rotate(-73.710690) translate(-333.745222, -152.137521) " points="318.720704 137.113289 348.769922 137.113106 348.769739 167.161752 318.720522 167.161935"></polygon>
                <polygon id="Rectangle" fill="#FFE0F5" transform="translate(323.612638, 186.933934) rotate(-73.710690) translate(-323.612638, -186.933934) " points="308.58812 171.909703 338.637338 171.90952 338.637155 201.958165 308.587938 201.958348"></polygon>
                <polygon id="Rectangle" fill="#F97878" opacity="0.3" transform="translate(313.419117, 215.038418) rotate(-73.710690) translate(-313.419117, -215.038418) " points="298.3946 200.014186 328.443817 200.014003 328.443634 230.062649 298.394417 230.062832"></polygon>
                <g id="Group" opacity="0.5" transform="translate(276.000000, 129.000000)" fill="url(#linearGradient-6)">
                    <polygon id="Path" points="0 145.022932 11.592 0.336090226 56 3.92105263 44.352 148.607895"></polygon>
                </g>
                <polygon id="Rectangle" fill="#F9FAFB" transform="translate(307.521560, 203.314321) rotate(-85.400097) translate(-307.521560, -203.314321) " points="235.713933 182.084343 379.329264 182.084084 379.329188 224.544298 235.713856 224.544557"></polygon>
                <polygon id="Rectangle" fill="#4833A2" opacity="0.75" transform="translate(311.899100, 149.024218) rotate(-85.400097) translate(-311.899100, -149.024218) " points="296.87484 134.000294 326.923414 134.000239 326.923359 164.048142 296.874786 164.048197"></polygon>
                <polygon id="Rectangle" fill="#8D64FF" opacity="0.5" transform="translate(308.984013, 185.153222) rotate(-85.400097) translate(-308.984013, -185.153222) " points="293.959753 170.129297 324.008327 170.129243 324.008272 200.177146 293.959699 200.1772"></polygon>
                <polygon id="Rectangle" fill="#73B53B" opacity="0.3" transform="translate(303.288967, 216.268740) rotate(-85.400097) translate(-303.288967, -216.268740) " points="288.264707 201.244815 318.313281 201.244761 318.313226 231.292664 288.264653 231.292718"></polygon>
                <g id="Group" opacity="0.5" transform="translate(268.000000, 128.000000)" fill="url(#linearGradient-7)">
                    <polygon id="Path" points="0.282608696 2.41060606 45.2173913 0.392424242 51.8869565 145.533333 6.95217391 147.551515"></polygon>
                </g>
                <polygon id="Rectangle" fill="#FFFFFF" transform="translate(294.756343, 201.609916) rotate(-2.609902) translate(-294.756343, -201.609916) " points="273.525966 129.801097 315.986867 129.801053 315.98672 273.418735 273.525819 273.418779"></polygon>
                <polygon id="Rectangle" fill="#8233FF" opacity="0.75" transform="translate(292.312676, 147.183027) rotate(-2.609902) translate(-292.312676, -147.183027) " points="277.288497 132.158509 307.336886 132.158478 307.336855 162.207544 277.288466 162.207575"></polygon>
                <polygon id="Path" fill="#8D64FF" opacity="0.5" points="279 168.502455 309.516934 167 311 199.553191 280.540107 201"></polygon>
                <polygon id="Rectangle" fill="#6C63FF" opacity="0.3" transform="translate(295.569610, 219.583569) rotate(-2.609902) translate(-295.569610, -219.583569) " points="280.545431 204.559052 310.59382 204.559021 310.593789 234.608087 280.5454 234.608117"></polygon>
                <path d="M288,320.010224 L250.270983,334.631071 L195.13721,356 C193.059868,352.119852 189.971928,346.833854 186.210255,340.535643 C173.128616,318.885544 151.569178,285.145129 132.311659,255.509798 C110.639931,222.106788 92,193.933542 92,193.933542 L105.474649,190.053394 L215.742194,158 L288,320.010224 Z" id="Path" fill="#F9FAFB"></path>
                <path d="M289,319.485598 L251.161231,334.054042 C230.045846,338.424575 208.48,340.385712 186.914154,339.937452 C173.794462,318.364949 152.172308,284.745462 132.858769,255.216347 L106,189.938512 L216.588308,158 L289,319.485598 Z" id="Path" fill="#000000" opacity="0.05"></path>
                <path d="M316,310.982623 C316,310.982623 257.336108,345.667346 169.789802,337.853446 L100,167.577875 L133.433923,161.843934 L249.075963,142 L314.707596,307.665931 L316,310.982623 Z" id="Path" fill="#F9FAFB"></path>
                <path d="M315,307.608173 C301.193488,308.282519 285.254264,308.226324 269.202791,306.315676 C251.804341,304.292638 234.349767,300.077975 219.364651,292.322994 C206.848992,285.86051 196.129302,278.836071 186.812713,270.406744 C162.511008,248.54669 147.469767,217.24579 134,161.837016 L249.503256,142 L315,307.608173 Z" id="Path" fill="#000000" opacity="0.05"></path>
                <path d="M358,298.031233 C358,298.031233 314.801937,306.531429 270.817433,301.296209 C253.40339,299.269672 235.933172,295.047721 220.934625,287.27933 C208.407748,280.805671 197.67845,273.769085 188.353511,265.325182 C158.244068,238.192107 142.402906,196.648104 126,112.659416 C126,112.659416 197.846973,130.053856 268.851332,92 C268.795157,92.0562927 292.781598,241.794839 358,298.031233 Z" id="Path" fill="#F9FAFB"></path>
                <path d="M271,301 C253.683924,298.976216 236.311989,294.76 221.39782,287.002162 C208.941417,280.537297 198.27248,273.51027 189,265.077838 C214.47139,262.997838 218.158038,249 218.158038,249 C236.982289,279.131892 271,301 271,301 Z" id="Path" fill="#000000" opacity="0.1"></path>
                <path d="M163,143.757238 C163,143.757238 221.282387,140.47216 237.534207,128 L240,135.906459 C240,135.906459 201.5,152.777283 163,153 L163,143.757238 Z" id="Path" fill="#6C63FF" opacity="0.3"></path>
                <path d="M163,183.5 C163,183.5 219.692865,180.444444 262.536232,160 L264,163.277778 C264,163.277778 229.995541,182.833333 163.056299,188 L163,183.5 Z" id="Path" fill="#6C63FF" opacity="0.3"></path>
                <path d="M168,198.5 C168,198.5 224.692865,195.444444 267.536232,175 L269,178.277778 C269,178.277778 234.995541,197.833333 168.056299,203 L168,198.5 Z" id="Path" fill="#6C63FF" opacity="0.3"></path>
                <path d="M172,213.5 C172,213.5 228.692865,210.444444 271.536232,190 L273,193.277778 C273,193.277778 238.995541,212.833333 172.056299,218 L172.056299,213.5 L172,213.5 Z" id="Path" fill="#6C63FF" opacity="0.3"></path>
                <path d="M181,244.5 C181,244.5 237.692865,241.444444 280.536232,221 L282,224.277778 C282,224.277778 247.995541,243.833333 181.056299,249 L181.056299,244.5 L181,244.5 Z" id="Path" fill="#6C63FF" opacity="0.3"></path>
                <ellipse id="Oval" fill="#0000FF" opacity="0.03" cx="446.5" cy="445" rx="56.5" ry="5"></ellipse>
                <path d="M464,242.597376 L454.272646,235.851754 C454.272646,235.851754 438.843049,230.020793 434.538416,239.053066 C430.233782,248.142506 453.154559,243.45487 453.154559,243.45487 L462.881913,249 L464,242.597376 Z" id="Path" fill="#AE6E79"></path>
                <polygon id="Rectangle" fill="#F9FAFB" transform="translate(444.495002, 297.554636) rotate(-57.263397) translate(-444.495002, -297.554636) " points="397.737291 224.764252 491.254209 224.763291 491.252712 370.345019 397.735794 370.34598"></polygon>
                <polygon id="Rectangle" fill="#6C63FF" opacity="0.2" transform="translate(385.836148, 282.628639) rotate(-57.567040) translate(-385.836148, -282.628639) " points="372.60986 279.511773 399.0625 279.511503 399.062436 285.745505 372.609796 285.745775"></polygon>
                <polygon id="Rectangle" fill="#6C63FF" opacity="0.2" transform="translate(410.934101, 273.629709) rotate(-57.567040) translate(-410.934101, -273.629709) " points="381.869924 270.765735 439.998337 270.765141 439.998278 276.493683 381.869865 276.494278"></polygon>
                <polygon id="Rectangle" fill="#6C63FF" opacity="0.2" transform="translate(421.203072, 280.166502) rotate(-57.567040) translate(-421.203072, -280.166502) " points="392.138894 277.302528 450.267307 277.301933 450.267249 283.030476 392.138836 283.03107"></polygon>
                <polygon id="Rectangle" fill="#6C63FF" opacity="0.2" transform="translate(431.461989, 286.705541) rotate(-57.567040) translate(-431.461989, -286.705541) " points="402.397812 283.841568 460.526225 283.840973 460.526166 289.569515 402.397753 289.57011"></polygon>
                <polygon id="Rectangle" fill="#FFFFFF" transform="translate(452.069084, 299.762182) rotate(-57.567040) translate(-452.069084, -299.762182) " points="423.004906 296.898209 481.133319 296.897614 481.133261 302.626156 423.004848 302.626751"></polygon>
                <polygon id="Rectangle" fill="#FFFFFF" transform="translate(462.385512, 306.329096) rotate(-57.567040) translate(-462.385512, -306.329096) " points="433.321335 303.465122 491.449748 303.464528 491.449689 309.19307 433.321276 309.193665"></polygon>
                <path d="M492.932798,443.935509 C488.280502,442.818495 481.080518,441.142973 477.480527,440.752018 C471.83131,440.193511 471.83131,432.988769 475.763608,433.88238 C477.923603,434.329186 479.806675,433.156321 481.080518,431.927605 C481.46821,431.53665 481.855901,431.145695 482.188208,430.69889 C482.631284,430.140383 483.295898,429.749428 484.015896,429.581875 C486.120507,429.13507 490.60665,428.40901 493.265105,429.861129 C493.874334,430.252084 494.428179,430.810591 494.760486,431.4808 C495.978945,433.714828 496.643559,437.345125 496.975866,440.305213 C497.197404,442.148286 495.868176,443.767957 494.040488,443.935509 C493.708181,444.047211 493.32049,443.99136 492.932798,443.935509 Z" id="Path" fill="#BEBED0"></path>
                <path d="M419.941192,446.921091 C415.286936,445.805155 408.139329,444.131251 404.482414,443.740674 C398.830817,443.182706 398.830817,435.984918 402.764772,436.877667 C405.368939,437.435635 407.585251,435.538544 408.859631,434.199421 C409.025854,434.03203 409.13667,433.86464 409.247485,433.69725 C409.746155,433.139282 410.355641,432.748704 411.075943,432.581314 C413.18144,432.134939 417.669472,431.409581 420.329047,432.860298 C421.104756,433.306672 421.76965,434.255218 422.26832,435.482747 C423.210253,437.714619 423.708923,440.783443 423.985962,443.350096 C424.152185,445.191391 422.822398,446.809498 421.049348,446.976888 C420.661494,447.032685 420.329047,446.976888 419.941192,446.921091 Z" id="Path" fill="#BEBED0"></path>
                <path d="M423,435.757441 C415.971193,443.222744 409.921811,435.638944 409,434.335479 C409.17284,434.157733 409.288066,433.979988 409.403292,433.802243 C409.921811,433.209758 410.555556,432.795019 411.304527,432.617274 C413.493827,432.143287 418.160494,431.373057 420.925926,432.913516 C421.847737,433.446752 422.539095,434.453976 423,435.757441 Z" id="Path" fill="#000000" opacity="0.1"></path>
                <path d="M495,431.474497 C491.995951,433.435858 481.906883,432.945518 481.906883,432.945518 C481.566802,432.618624 481.283401,432.237248 481,431.855873 C481.396761,431.474497 481.793522,431.093121 482.133603,430.657263 C482.587045,430.112441 483.267206,429.731065 484.004049,429.567618 C486.157895,429.13176 490.748988,428.423491 493.469636,429.840029 C494.093117,430.275887 494.659919,430.82071 495,431.474497 Z" id="Path" fill="#000000" opacity="0.1"></path>
                <path d="M495,430.439259 C492.978879,433.021451 481.525863,432.460105 481.525863,432.460105 C481.525863,432.460105 478.101187,429.035893 476.641489,421.56999 C475.181791,414.104087 462.830499,390.246878 462.830499,390.246878 C459.967245,386.48586 457.665413,379.637437 457.665413,379.637437 L452.781038,348.314325 C452.781038,348.314325 429.201299,379.356764 429.48201,385.980648 C429.762722,392.604532 424.316925,418.76326 424.316925,418.76326 C422.295804,422.187471 422.295804,434.873893 422.295804,434.873893 C414.828887,442.676603 408.484814,433.414393 408.484814,433.414393 C407.025116,427.40799 409.326948,407.536338 409.326948,407.536338 C409.326948,407.536338 412.751624,390.864359 413.088477,380.535591 C413.369189,370.206823 416.850007,367.624631 416.850007,367.624631 C419.544835,356.959055 424.092356,346.854826 430.324144,337.817153 C432.064553,335.347231 433.187398,334 433.187398,334 L479.729312,339.445057 C478.831036,341.409768 478.157329,343.486749 477.708191,345.619864 C474.67651,358.643093 473.66595,381.995091 473.66595,381.995091 C484.276833,388.899648 487.47694,407.536338 487.47694,407.536338 C487.533083,412.363914 495,430.439259 495,430.439259 Z" id="Path" fill="#5C5C8E"></path>
                <g id="Group" opacity="0.05" transform="translate(415.000000, 334.000000)" fill="#000000">
                    <path d="M35.8634483,18.3397849 L35.2489655,14.5376344 C35.2489655,14.5376344 11.7868966,45.4580645 12.0662069,52.055914 C12.3455172,58.6537634 6.92689655,84.7096774 6.92689655,84.7096774 C4.91586207,88.1204301 4.91586207,100.756989 4.91586207,100.756989 C3.74275862,102.098925 2.17862069,103.105376 0.446896552,103.608602 C2.68137931,104.223656 5.41862069,103.776344 8.37931034,100.756989 C8.37931034,100.756989 8.37931034,88.1763441 10.3903448,84.7096774 C10.3903448,84.7096774 15.8089655,58.6537634 15.5296552,52.055914 C15.3062069,46.911828 29.6627586,26.8387097 35.8634483,18.3397849 Z" id="Path"></path>
                    <path d="M73.2910345,73.5268817 C73.2910345,73.5268817 70.1627586,54.9075269 59.5489655,48.0860215 C59.5489655,48.0860215 60.5544828,24.8258065 63.5710345,11.8537634 C64.017931,9.72903226 64.6882759,7.66021505 65.582069,5.70322581 L19.2724138,0.279569892 C19.2724138,0.279569892 19.1606897,0.391397849 18.9372414,0.670967742 L62.1186207,5.75913978 C61.2248276,7.71612903 60.5544828,9.78494624 60.1075862,11.9096774 C57.0910345,24.8817204 56.0855172,48.1419355 56.0855172,48.1419355 C66.6434483,55.0193548 69.8275862,73.5827957 69.8275862,73.5827957 C69.8275862,78.4473118 77.2572414,96.5075269 77.2572414,96.5075269 C76.0841379,98.0172043 71.6151724,98.4645161 68.1517241,98.5204301 C70.8889655,98.5763441 79.0448276,98.6322581 80.6648276,96.5075269 C80.7206897,96.3956989 73.2910345,78.3913978 73.2910345,73.5268817 Z" id="Path"></path>
                </g>
                <path d="M425,329.945545 C424.657523,330.788536 424.200888,331.575327 423.630093,332.305919 C421.860631,334.610093 418.207546,337.701059 411.529251,336.858068 C409.931027,336.633271 408.846517,335.228286 409.017756,333.710903 C409.074835,333.261308 409.246073,332.811713 409.531471,332.418318 C411.700489,329.327352 414.782779,327.023178 418.321705,325.730592 C419.520373,325.337196 420.776121,325.112399 422.031869,325 L425,329.945545 Z" id="Path" fill="#AE6E79"></path>
                <path d="M486,249.270677 L462.687622,241 C462.687622,241 455.99453,244.363409 458.603701,249.160401 L481.292147,263 L486,249.270677 Z" id="Path" fill="#42383C"></path>
                <path d="M486,249.270677 L462.687622,241 C462.687622,241 455.99453,244.363409 458.603701,249.160401 L481.235426,263 L486,249.270677 Z" id="Path" fill="#020245"></path>
                <path d="M486.311907,235.565664 C486.311907,235.565664 486.032666,249.156961 492.008424,253.781386 C498.04003,258.405811 474.583784,261 474.583784,261 C474.583784,261 478.325613,247.126726 474.583784,239.908112 C470.841954,232.689498 486.311907,235.565664 486.311907,235.565664 Z" id="Path" fill="#AE6E79"></path>
                <path d="M480,339.633679 C479.110102,341.666449 478.442679,343.815378 477.99773,346.022386 C450.466515,350.436402 431.278093,338.472095 431.278093,338.472095 C431.166856,338.297858 431.055619,338.12362 431,337.949383 C432.724177,335.3939 433.836549,334 433.836549,334 L480,339.633679 Z" id="Path" fill="#000000" opacity="0.1"></path>
                <path d="M425,329.72093 C424.637931,330.534884 424.155172,331.294574 423.551724,332 C420.715517,331.565891 418.422414,326.627907 418,325.705426 C419.267241,325.325581 420.594828,325.108527 421.922414,325 L425,329.72093 Z" id="Path" fill="#000000" opacity="0.1"></path>
                <path d="M488.827424,248 L478.457573,251.76494 L474.118015,257.49664 C474.118015,257.49664 465.213469,260.362491 464.029953,260.362491 C462.846438,260.362491 459.690396,261.486353 457.661512,266.094191 C455.632628,270.702028 448.418818,293.12309 442.106734,296.888031 C435.738293,300.596778 419,325.658918 419,325.658918 C419,325.658918 421.874252,333.469764 425.368441,332.289708 L433.42762,325.658918 C433.42762,325.658918 427.059178,332.008743 430.835157,337.740443 C430.835157,337.740443 454.50547,351.844921 487.08033,343.191177 L488.263846,342.460666 L505.002139,331.390618 C505.002139,331.390618 503.536833,312.846882 500.944371,303.350242 C499.873571,299.360529 500.268076,295.146043 502.071528,291.437296 C506.242012,282.72736 512.723169,268.173337 511.934159,262.891182 C510.976075,256.653743 507.481886,253.956473 506.129296,253.113576 C505.847507,252.944996 505.453002,252.83261 505.114854,252.776417 L499.817213,252.270679 L488.827424,248 Z" id="Path" fill="#020245"></path>
                <path d="M471,276 C471,276 465.2625,302.992366 458.90625,307.358779 C452.55,311.725191 435.5625,325.675027 435,328" id="Path" fill="#000000" opacity="0.05"></path>
                <path d="M474,257 C474,257 494.171429,250.600169 500,252.28148" id="Path" fill="#000000" opacity="0.1"></path>
                <g id="Group" opacity="0.05" transform="translate(487.000000, 247.000000)" fill="#000000">
                    <path d="M14.6022727,43.8107143 C18.8068182,35.1380952 25.3409091,20.6464286 24.5454545,15.3869048 C23.5795455,9.17619048 20.0568182,6.49047619 18.6931818,5.65119048 C18.4090909,5.48333333 18.0113636,5.37142857 17.6704545,5.31547619 L15.3977273,5.09166667 C15.625,5.14761905 15.8522727,5.25952381 16.0795455,5.37142857 C17.4431818,6.21071429 21.0227273,8.89642857 21.9318182,15.1071429 C22.7272727,20.3666667 16.1931818,34.8583333 11.9886364,43.5309524 C10.1704545,47.2238095 9.77272727,51.4202381 10.8522727,55.3928571 C13.4659091,64.7928571 14.9431818,83.3130952 14.9431818,83.3130952 L0.909090909,91.9297619 L1.25,93.6083333 L17.5568182,83.5928571 C17.5568182,83.5928571 16.0795455,65.1285714 13.4659091,55.672619 C12.4431818,51.7 12.7840909,47.5035714 14.6022727,43.8107143 Z" id="Path"></path>
                    <polygon id="Path" points="9.71590909 4.47619048 12.2159091 4.75595238 1.30681818 0.503571429 0.284090909 0.839285714"></polygon>
                </g>
                <path d="M469,303 C469,303 477.758315,298.166667 480.640798,299.277778 C483.523282,300.388889 494,299 494,299" id="Path" fill="#000000" opacity="0.05"></path>
                <path d="M485.019058,238.971217 C484.692077,236.166642 486,236.551584 486,236.551584 C486,236.551584 470.958885,233.747009 474.555673,240.785942 C475.482119,242.71065 475.97259,244.855325 476.081583,247 L476.245074,247 C480.441327,246.945008 482.839186,242.215725 485.019058,238.971217 Z" id="Path" fill="#000000" opacity="0.05"></path>
                <circle id="Oval" fill="#AE6E79" cx="476.5" cy="233.5" r="12.5"></circle>
                <path d="M490.165047,237.08991 C491.298333,234.633467 492.148297,232.009539 491.978304,229.329782 C491.864976,226.650026 490.618361,223.914441 488.35179,222.407079 C487.16184,221.625483 485.801897,221.234685 484.611947,220.508918 C483.648654,219.950635 482.855354,219.224868 481.948725,218.610757 C477.472246,215.596031 471.635824,215.149405 466.762695,217.494192 C464.496124,218.610757 462.512874,220.341433 460.359631,221.681311 C458.206388,223.021189 455.656495,224.081926 453.106602,223.691128 C452.653287,224.863522 453.729909,226.035915 454.749866,226.873339 C456.619788,228.43653 458.716366,229.943893 461.152931,229.999721 C462.116224,229.999721 463.079517,229.832237 463.929481,230.223034 C464.496124,230.558004 465.006102,231.00463 465.346088,231.507084 C466.536038,233.014447 467.499331,234.689295 468.292631,236.475799 C468.519288,237.201566 468.972603,237.871505 469.59591,238.37396 C470.729196,239.099727 472.145803,238.485616 473.505746,238.429788 C475.54566,238.37396 477.415582,239.602181 478.945518,240.997888 C480.475453,242.393594 481.948725,243.956785 483.875311,244.682553 C485.291918,245.240835 488.181797,245.185007 488.918432,243.510159 C489.201754,242.896048 488.635111,241.500342 488.74844,240.718746 C489.088425,239.434697 489.54174,238.206475 490.165047,237.08991 Z" id="Path" fill="#000000" opacity="0.1"></path>
                <path d="M490.165047,237.130589 C491.298333,234.669407 492.148297,232.040418 491.978304,229.355493 C491.864976,226.670568 490.618361,223.929707 488.35179,222.419437 C487.16184,221.636334 485.801897,221.244782 484.611947,220.517615 C483.648654,219.958255 482.855354,219.231088 481.948725,218.615793 C477.472246,215.595252 471.635824,215.147765 466.762695,217.497074 C464.496124,218.615793 462.512874,220.293871 460.359631,221.692269 C458.206388,223.034732 455.656495,224.097515 453.106602,223.705963 C452.653287,224.880618 453.729909,226.055273 454.749866,226.894312 C456.619788,228.460518 458.716366,229.970788 461.152931,230.026724 C462.116224,230.026724 463.079517,229.858917 463.929481,230.250468 C464.496124,230.586084 465.006102,231.033571 465.346088,231.536995 C466.536038,233.047265 467.499331,234.725343 468.292631,236.459357 C468.519288,237.186525 468.972603,237.857756 469.59591,238.361179 C470.729196,239.088346 472.145803,238.473051 473.505746,238.417115 C475.54566,238.361179 477.415582,239.647706 478.945518,240.990168 C480.475453,242.388567 481.948725,243.954773 483.875311,244.68194 C485.291918,245.2413 488.181797,245.185364 488.918432,243.507286 C489.201754,242.89199 488.691775,241.493592 488.805104,240.710489 C489.088425,239.423962 489.54174,238.249307 490.165047,237.130589 Z" id="Path" fill="#42383C"></path>
                <path d="M356.145867,197 L270.967647,197.900563 C267.762921,197.956848 265.232875,200.545966 265.232875,203.697936 L265.232875,210.733583 C265.232875,213.885553 262.702829,216.474672 259.554327,216.530957 L198.102317,217.994371 C195.403602,218.050657 193.042225,216.305816 192.367546,213.716698 L189.500161,203.078799 C188.825482,200.489681 186.464105,198.744841 183.821613,198.801126 L101.735671,199.701689 C98.5309458,199.757974 95.9446764,202.347092 96.0008996,205.555347 C96.0008996,205.836773 96.0571229,206.174484 96.0571229,206.45591 L129.060169,401.033771 C129.509955,403.84803 131.927555,405.874296 134.794941,405.874296 L394.152782,407 C397.357507,407 400,404.410882 400,401.202627 C400,400.80863 399.943777,400.470919 399.887554,400.076923 L361.936861,201.727955 C361.430852,198.969981 358.957029,197 356.145867,197 Z" id="Path" fill="#FFF4E5"></path>
                <path d="M356.145867,197 L270.967647,197.900563 C267.762921,197.956848 265.232875,200.545966 265.232875,203.697936 L265.232875,210.733583 C265.232875,213.885553 262.702829,216.474672 259.554327,216.530957 L198.102317,217.994371 C195.403602,218.050657 193.042225,216.305816 192.367546,213.716698 L189.500161,203.078799 C188.825482,200.489681 186.464105,198.744841 183.821613,198.801126 L101.735671,199.701689 C98.5309458,199.757974 95.9446764,202.347092 96.0008996,205.555347 C96.0008996,205.836773 96.0571229,206.174484 96.0571229,206.45591 L129.060169,401.033771 C129.509955,403.84803 131.927555,405.874296 134.794941,405.874296 L394.152782,407 C397.357507,407 400,404.410882 400,401.202627 C400,400.80863 399.943777,400.470919 399.887554,400.076923 L361.936861,201.727955 C361.430852,198.969981 358.957029,197 356.145867,197 Z" id="Path" fill="url(#linearGradient-8)" opacity="0.2"></path>
            </g>
        </g>
    </g>
</svg>