<?xml version="1.0" encoding="utf-8"?>
<!-- Generator: Adobe Illustrator 22.0.0, SVG Export Plug-In . SVG Version: 6.00 Build 0)  -->
<svg version="1.1" id="Layer_1" xmlns="http://www.w3.org/2000/svg" xmlns:xlink="http://www.w3.org/1999/xlink" x="0px" y="0px"
	 viewBox="0 0 523 458.9" style="enable-background:new 0 0 523 458.9;" xml:space="preserve">
<style type="text/css">
	.st0{opacity:0.12;}
	.st1{fill:url(#Path_1_);}
	.st2{fill:#5C5C8E;}
	.st3{fill:#01012D;}
	.st4{opacity:0.6;fill:url(#SVGID_1_);enable-background:new    ;}
	.st5{opacity:0.6;fill:url(#SVGID_2_);enable-background:new    ;}
	.st6{opacity:0.6;fill:url(#SVGID_3_);enable-background:new    ;}
	.st7{fill:none;stroke:#2F2E41;stroke-width:2;stroke-miterlimit:10;}
	.st8{fill:#2F2E41;}
	.st9{fill:#FFFFFF;}
	.st10{opacity:0.3;fill:url(#SVGID_4_);enable-background:new    ;}
	.st11{opacity:0.2;enable-background:new    ;}
	.st12{opacity:0.1;}
	.st13{fill:none;stroke:#3F3D56;stroke-width:4;stroke-miterlimit:10;}
	.st14{opacity:0.75;fill:#8233FF;enable-background:new    ;}
	.st15{fill:#201B60;}
	.st16{opacity:0.75;fill:#4833A2;enable-background:new    ;}
	.st17{fill:#4833A2;}
	.st18{fill:#330422;}
	.st19{fill:#8C4D59;}
	.st20{fill:#9F616A;}
	.st21{fill:#474799;}
	.st22{opacity:0.9;fill:url(#SVGID_5_);enable-background:new    ;}
	.st23{fill:#BE9FD3;}
	.st24{fill:#A0616A;}
	.st25{fill:#2C2170;}
	.st26{opacity:0.2;fill:url(#SVGID_6_);enable-background:new    ;}
	.st27{opacity:0.2;fill:none;stroke:#3F3D56;stroke-width:4;stroke-miterlimit:10;enable-background:new    ;}
	.st28{opacity:0.5;fill:url(#SVGID_7_);enable-background:new    ;}
	.st29{opacity:0.5;fill:url(#SVGID_8_);enable-background:new    ;}
	.st30{opacity:0.5;fill:url(#SVGID_9_);enable-background:new    ;}
</style>
<title>ILUS_PLY_Folder</title>
<desc>Created with Sketch.</desc>
<g id="rv2">
	<g id="Case-study-_x28_1680px_x29_-_x5B_XL-_x2F_-15_x22_-Laptop_x5D_" transform="translate(-153.000000, -4979.000000)">
		<g id="ILUS_PLY_Folder" transform="translate(153.000000, 4979.000000)">
			<g id="Group" class="st0">
				
					<linearGradient id="Path_1_" gradientUnits="userSpaceOnUse" x1="-1899.9337" y1="721.2688" x2="-1899.7213" y2="720.2614" gradientTransform="matrix(518.5723 0 0 -407.5164 985458 293930.9062)">
					<stop  offset="0" style="stop-color:#005AFF"/>
					<stop  offset="1.576012e-02" style="stop-color:#0057FF;stop-opacity:0.9842"/>
					<stop  offset="0.1878" style="stop-color:#0037FF;stop-opacity:0.8122"/>
					<stop  offset="0.3674" style="stop-color:#001FFF;stop-opacity:0.6326"/>
					<stop  offset="0.5556" style="stop-color:#000EFF;stop-opacity:0.4444"/>
					<stop  offset="0.7581" style="stop-color:#0003FF;stop-opacity:0.2419"/>
					<stop  offset="1" style="stop-color:#0000FF;stop-opacity:0"/>
				</linearGradient>
				<path id="Path" class="st1" d="M304.8,12.2c60,15.2,110.9,58.4,153.4,101.6c38.7,39.4,75.7,86.7,58.1,144.5
					c-17.5,57.4-76.8,101.1-128,127.2c-53.6,27.4-111.7,32.2-169.2,15.4c-57-16.6-112.7-36.4-154.7-77.4
					C22.7,282.8-11.3,216.8,7.5,154.9C41.2,44,199.7-22.4,304.8,12.2z"/>
			</g>
		</g>
	</g>
</g>
<g>
	<g>
		<path class="st2" d="M192.1,133.2l-97,19.8c-10.2,2.1-16.7,12-14.6,22.1c0.3,1.3,0.7,2.6,1.2,3.8l110.6,252.4
			c5,11.5,17.8,17.3,29.8,13.7l111.8-34.4c11.1-3.4,17.4-15.2,13.9-26.3c-0.4-1.3-0.9-2.5-1.5-3.7L221.5,146.1
			C215.4,136,207.9,130.4,192.1,133.2z"/>
		<path class="st3" d="M97.9,158.5l16-3.1l0,0c2.2,4.6,7.2,7.1,12.2,6.2l55.7-11.3c2.2-0.4,3.7-2.5,3.3-4.7c0-0.2-0.1-0.4-0.1-0.6
			l-1.6-4.7l15.9-3.1c6.8-1.3,13.6,1.9,16.9,7.9l128.2,235.7c4.1,7.6,1.3,17.1-6.3,21.3c-0.9,0.5-1.9,0.9-2.9,1.2l-110.1,33.5
			c-9.5,2.9-19.7-1.7-23.7-10.8L89.7,174.5c-2.6-5.8,0-12.6,5.8-15.2C96.2,159,97.1,158.7,97.9,158.5z"/>
		
			<linearGradient id="SVGID_1_" gradientUnits="userSpaceOnUse" x1="279.7066" y1="-1076.5631" x2="131.7066" y2="-800.5631" gradientTransform="matrix(1 0 0 -1 0 -652)">
			<stop  offset="0" style="stop-color:#1C1CA2"/>
			<stop  offset="0.1588" style="stop-color:#4827A3;stop-opacity:0.8651"/>
			<stop  offset="0.3645" style="stop-color:#7B33A5;stop-opacity:0.6902"/>
			<stop  offset="0.5583" style="stop-color:#A33CA6;stop-opacity:0.5254"/>
			<stop  offset="0.7347" style="stop-color:#BF43A7;stop-opacity:0.3755"/>
			<stop  offset="0.8876" style="stop-color:#D148A8;stop-opacity:0.2455"/>
			<stop  offset="1" style="stop-color:#D749A8;stop-opacity:0.15"/>
		</linearGradient>
		<path class="st4" d="M192.1,133.2l-97,19.8c-10.2,2.1-16.7,12-14.6,22.1c0.3,1.3,0.7,2.6,1.2,3.8l110.6,252.4
			c5,11.5,17.8,17.3,29.8,13.7l111.8-34.4c11.1-3.4,17.4-15.2,13.9-26.3c-0.4-1.3-0.9-2.5-1.5-3.7L221.5,146.1
			C215.4,136,207.9,130.4,192.1,133.2z"/>
		
			<linearGradient id="SVGID_2_" gradientUnits="userSpaceOnUse" x1="142.5047" y1="-964.5109" x2="149.5047" y2="-961.5109" gradientTransform="matrix(1 0 0 -1 0 -652)">
			<stop  offset="0" style="stop-color:#1C1CA2"/>
			<stop  offset="1" style="stop-color:#4949A8;stop-opacity:0.15"/>
		</linearGradient>
		<path class="st5" d="M192.1,133.2l-97,19.8c-10.2,2.1-16.7,12-14.6,22.1c0.3,1.3,0.7,2.6,1.2,3.8l110.6,252.4
			c5,11.5,17.8,17.3,29.8,13.7l111.8-34.4c11.1-3.4,17.4-15.2,13.9-26.3c-0.4-1.3-0.9-2.5-1.5-3.7L221.5,146.1
			C215.4,136,207.9,130.4,192.1,133.2z"/>
		
			<radialGradient id="SVGID_3_" cx="278.5" cy="117" r="90.9093" gradientTransform="matrix(1 0 0 -1 0 460)" gradientUnits="userSpaceOnUse">
			<stop  offset="0" style="stop-color:#000000"/>
			<stop  offset="0.7043" style="stop-color:#000000;stop-opacity:0.4529"/>
			<stop  offset="1" style="stop-color:#000000;stop-opacity:0.15"/>
		</radialGradient>
		<path class="st6" d="M192.1,133.2l-97,19.8c-10.2,2.1-16.7,12-14.6,22.1c0.3,1.3,0.7,2.6,1.2,3.8l110.6,252.4
			c5,11.5,17.8,17.3,29.8,13.7l111.8-34.4c11.1-3.4,17.4-15.2,13.9-26.3c-0.4-1.3-0.9-2.5-1.5-3.7L221.5,146.1
			C215.4,136,207.9,130.4,192.1,133.2z"/>
		<line class="st7" x1="164.5" y1="146.9" x2="140.9" y2="151.8"/>
		<ellipse class="st8" cx="136.4" cy="152.6" rx="2.4" ry="2.1"/>
		<polygon class="st9" points="149.7,173.4 253.7,396.5 393.2,357.2 393.2,352.4 285.7,142.6 152.1,171.6 151.5,172.1 		"/>
		
			<linearGradient id="SVGID_4_" gradientUnits="userSpaceOnUse" x1="322.856" y1="-1017.4955" x2="203.3928" y2="-801.8669" gradientTransform="matrix(1 0 0 -1 0 -652)">
			<stop  offset="0" style="stop-color:#1C1CA2"/>
			<stop  offset="0.1588" style="stop-color:#4827A3;stop-opacity:0.8651"/>
			<stop  offset="0.3645" style="stop-color:#7B33A5;stop-opacity:0.6902"/>
			<stop  offset="0.5583" style="stop-color:#A33CA6;stop-opacity:0.5254"/>
			<stop  offset="0.7347" style="stop-color:#BF43A7;stop-opacity:0.3755"/>
			<stop  offset="0.8876" style="stop-color:#D148A8;stop-opacity:0.2455"/>
			<stop  offset="1" style="stop-color:#D749A8;stop-opacity:0.15"/>
		</linearGradient>
		<polygon class="st10" points="149.7,173.4 253.7,396.5 393.2,357.2 393.2,352.4 285.7,142.6 152.1,171.6 151.5,172.1 		"/>
		<polygon class="st11" points="149.7,173.4 253.7,396.5 393.2,357.2 393.2,352.4 254.3,392.9 151.5,172.1 		"/>
		<g class="st12">
			<line class="st13" x1="335.3" y1="267.7" x2="228.9" y2="295"/>
			<line class="st13" x1="341.3" y1="279.2" x2="234.3" y2="307"/>
			<line class="st13" x1="327.4" y1="295" x2="260.3" y2="313.1"/>
		</g>
		<polygon class="st14" points="266.4,346.3 276.2,367.7 276.6,368.7 278.3,368.3 359.5,347.6 359.5,344.5 348.6,324 268.2,345.7 
			267.5,346 		"/>
		<polygon class="st11" points="266.4,346.3 276.2,367.7 276.6,368.7 278.3,368.3 359.5,347.6 359.5,344.5 277.9,366.3 267.5,346 		
			"/>
		<path class="st15" d="M276.6,218.6c-7.6-19.3-28.5-30.4-45.4-25.2c-15.5,4.8-21.7,21.8-15.2,38.2c6.5,16.5,24.1,28.3,40.5,26.1
			C274.5,255.8,284.2,237.9,276.6,218.6z"/>
		<path class="st16" d="M276.6,216.9c-6.9-18.1-26-28.5-41.4-23.6c-14.1,4.5-19.8,20.4-13.9,35.8s22,26.5,37,24.5
			C274.7,251.6,283.5,235,276.6,216.9z"/>
		<path class="st17" d="M281.1,214.4c-7.6-19.3-28.7-30.4-45.7-25.2c-15.6,4.8-21.9,21.8-15.3,38.2c6.5,16.4,24.3,28.3,40.8,26.1
			C279,251.5,288.7,233.7,281.1,214.4z"/>
		<circle class="st18" cx="422.5" cy="132.8" r="22.2"/>
		<polygon class="st19" points="436.2,407.6 436.4,428.9 427,428.2 426.1,408.1 		"/>
		<polygon class="st20" points="401.7,411.8 401.7,428.8 391.5,430 391.5,411.8 		"/>
		<path class="st19" d="M449.5,219.4c0,0-1.2,26-2.4,27.8S435,275,435,275l-5.4-16.9c0,0,8.5-13.9,7.3-21.8
			c-1.2-7.9-0.4-17.5-0.4-17.5L449.5,219.4z"/>
		<circle class="st20" cx="415.1" cy="139.6" r="16.9"/>
		<path class="st20" d="M429,141.4c0,0-0.6,24.2,3.6,27.8s-24.2,0.6-24.2,0.6s6-16.9,1.2-20.6C404.8,145.6,429,141.4,429,141.4z"/>
		<path class="st21" d="M406.6,168.6c0,0,3.6-6.7,8.5-6s20.6,1.8,21.2,3s2.4,5.4,3.6,6.7c1.2,1.2,10.3,3,10.9,10.3
			S429,233.9,429,233.9s3.3,10.4,2.4,12.7c-1,2.7,2.7,10,2.4,12.7c-0.3,3,9.1,21.2,4.2,44.7v38.1c0,0,5.3,64.9,0.5,69.7
			s-17.2,1.8-20.2,0s-7.7-80.5-7.7-80.5l-0.5-12.2c-0.1-0.3-0.5-0.3-0.5,0l-2.7,40.6c0,0,2.1,53.9-2.1,55.7
			c-4.2,1.8-16.6,2.4-17.8-1.2c-0.6-1.8-9-29.7-10.9-60.6c-1.1-17.7-4.7-38.8-5.5-50.8c-0.7-11.4,0.2-22.8,2.7-34
			c2.5-11.4,6.2-24.8,10.3-30.3c7.9-10.3,12.7-42.9,12.7-42.9L386,177c0,0,6-6,9.7-6S406.6,168.6,406.6,168.6z"/>
		
			<linearGradient id="SVGID_5_" gradientUnits="userSpaceOnUse" x1="379.6712" y1="-392.7896" x2="400.3378" y2="-394.1229" gradientTransform="matrix(1 0 0 -1 0 -104)">
			<stop  offset="0" style="stop-color:#4949A8;stop-opacity:0.15"/>
			<stop  offset="1" style="stop-color:#1C1C7A"/>
		</linearGradient>
		<path class="st22" d="M406.6,169.3c0,0,3.6-6.7,8.5-6s20.6,1.8,21.2,3s2.4,5.4,3.6,6.7c1.2,1.2,10.4,3,10.9,10.3
			c0.8,11.5-25.4,46-21.8,51.3c0,0,3,10.3,2.4,12.7s3,9.7,2.4,12.7s9.1,21.2,4.2,44.7v38.1c0,0,5.3,64.9,0.5,69.7s-17.2,1.8-20.2,0
			s-7.7-80.5-7.7-80.5l-0.5-12.2c-0.1-0.3-0.5-0.3-0.5,0l-2.7,40.6c0,0,2.1,53.9-2.1,55.7c-4.2,1.8-16.6,2.4-17.8-1.2
			c-0.6-1.8-9-29.7-10.9-60.6c-1.1-17.7-4.7-38.8-5.5-50.8c-0.7-11.4,0.2-22.8,2.7-34c2.5-11.4,6.2-24.8,10.3-30.3
			c7.9-10.3,12.7-42.9,12.7-42.9L386,177.7c0,0,6-6,9.7-6S406.6,169.3,406.6,169.3z"/>
		<path class="st23" d="M373.3,268.8c2.5-11.4,6.2-24.7,10.3-30.2c7.9-10.3,12.7-42.9,12.7-42.9L386,177c0,0,6-6,9.7-6
			s10.9-2.4,10.9-2.4s3.6-6.7,8.5-6s20.6,1.8,21.2,3s2.4,5.4,3.6,6.7c1.2,1.2,10.3,3,10.9,10.3S429,233.9,429,233.9s3,10.3,2.4,12.7
			s4.4,16.5,3.8,19.5C435.2,266.1,435,281.4,373.3,268.8z"/>
		<path class="st23" d="M447.1,178.3l3.2,2.2c0,0,2.3,38.9,0.4,41.4c-1.8,2.4-14.4,1.2-15.4-0.9S447.1,178.3,447.1,178.3z"/>
		<path class="st20" d="M392.8,213c-1.8,12.3-3.5,23.2-15,30c-11.6,6.9-23.9,12.5-37,16.5c-1.9,2.5-23.7,18.4-22,10
			c1.7-8.5,9-13.4,18.8-17.9c9.8-4.7,25.1-16.6,33.6-23.1s7.6-12.4,9.5-19.4C382.6,202.1,390.4,212.3,392.8,213z"/>
		<path class="st15" d="M436.6,419.4c0.6-0.3,1.3-0.1,1.5,0.5c0.1,4,0.5,16.9,0.4,18.8c0,1.1,0,3.6,0,4.6c0,0.7-0.5,1.2-1.2,1.2
			c-2.3,0-40.6-3.9-42.1-7.8c-1.8-4.6,6-9.6,9.8-10.1c6-0.6,16.2,3.3,17,2.4c2.2,0,3.2-6.1,3.2-6.9c0-0.7,0.7-1.2,1.4-1
			C429.1,421.8,434.7,420.6,436.6,419.4z"/>
		<path class="st23" d="M394.5,175.3l-8.5,1.8c0,0-2,11.7-4.4,17.1s-7.2,18.8-5.3,19.4c1.8,0.6,21.2,10,22.5,5.1
			C400,213.9,403,175.3,394.5,175.3z"/>
		<path class="st18" d="M475.6,104.7c-0.1-1.9-0.5-3.3-0.8-3.6c-1.9,0.3-2.7,11.7-11,16.5c3.1-3.8,5-8.7,5-14
			c0-12.3-9.9-22.2-22.2-22.2c-12.3,0-22.2,9.9-22.2,22.2c0,9.6,6.1,17.8,14.7,20.9c4.6,3.9,10.8,5.9,17.2,5.1
			C468.5,128.1,477.1,116.9,475.6,104.7z"/>
		<circle class="st18" cx="428.5" cy="136.6" r="16.3"/>
		<ellipse class="st18" cx="414.7" cy="130.4" rx="14.5" ry="11.3"/>
		<ellipse class="st24" cx="410.9" cy="142" rx="2.7" ry="4.9"/>
		<path class="st25" d="M391.5,422.4c-2.6-1.1-3.4,5.9-6.7,6.5c-2,0.3-9.5-1-11.5-1.5c-5-1.2-17.1-3-20.4,6.2
			c-4.1,11.5,39.3,12.3,43.4,12.5c2.5,0.1,5.1-0.1,6.6-0.5c0.7-0.2,1.1-0.7,1.1-1.4c0-1.7,0-5.3-0.1-7.7c-0.2-2.9,0.4-17.4-2.1-16.2
			C399.5,422.3,392.7,422.6,391.5,422.4z"/>
		
			<linearGradient id="SVGID_6_" gradientUnits="userSpaceOnUse" x1="428.4624" y1="-221.0216" x2="468.1291" y2="-200.0216" gradientTransform="matrix(1 0 0 -1 0 -104)">
			<stop  offset="0" style="stop-color:#000000"/>
			<stop  offset="1" style="stop-color:#4949A8;stop-opacity:0.15"/>
		</linearGradient>
		<path class="st26" d="M475.6,104.7c-0.1-1.9-0.5-3.3-0.8-3.6c-1.9,0.3-2.7,11.7-11,16.5c3.1-3.8,5-8.7,5-14
			c0-12.3-9.9-22.2-22.2-22.2c-12.3,0-22.2,9.9-22.2,22.2c0,9.6,6.1,17.8,14.7,20.9c4.6,3.9,10.8,5.9,17.2,5.1
			C468.5,128.1,477.1,116.9,475.6,104.7z"/>
	</g>
</g>
<line class="st27" x1="346.5" y1="335.5" x2="279.4" y2="353.5"/>
<linearGradient id="SVGID_7_" gradientUnits="userSpaceOnUse" x1="361.3542" y1="-327.0168" x2="407.0137" y2="-322.9601" gradientTransform="matrix(1 0 0 -1 0 -104)">
	<stop  offset="0" style="stop-color:#4949A8;stop-opacity:0.15"/>
	<stop  offset="1" style="stop-color:#21003A;stop-opacity:0.7"/>
</linearGradient>
<path class="st28" d="M450.5,184.9c0.2-1,0.3-1.8,0.3-2.3c-0.6-7.3-9.7-9.1-10.9-10.3c-1.2-1.3-3-5.5-3.6-6.7s-16.3-2.3-21.2-3
	c-4.9-0.7-8.5,6-8.5,6s-7.2,2.4-10.9,2.4s-9.7,6-9.7,6v0.1l0,0c0,0-2,11.7-4.4,17.1c-2.4,5.4-7.2,18.8-5.3,19.4
	c1.1,0.4,9,4.1,15.1,5.8c-2,7.6-4.7,15.2-7.8,19.3c-4.1,5.5-7.8,18.8-10.3,30.2c61.7,12.6,61.9-2.7,61.9-2.7
	c0.6-3-4.4-17.1-3.8-19.5S429,234,429,234s2.8-5.5,6.3-12.8c1.2,2.1,13.6,3.2,15.4,0.8C452.2,219.9,451,195.2,450.5,184.9z"/>
<linearGradient id="SVGID_8_" gradientUnits="userSpaceOnUse" x1="415.4773" y1="-464.8935" x2="438.9105" y2="-469.2052" gradientTransform="matrix(1 0 0 -1 0 -104)">
	<stop  offset="0" style="stop-color:#4949A8;stop-opacity:0"/>
	<stop  offset="1" style="stop-color:#21003A;stop-opacity:0.7"/>
</linearGradient>
<path class="st29" d="M409.6,319.1c0,0,29.5-5.2,28.4-6c-0.7-0.5,1.3,40,2.3,69.7c0.3,9.5-0.5,18.3-0.2,23.8
	c0.2,4.5-0.1,6.5-4.6,7.2c-4.7,0.7-11.6,1.9-17.2-1.3C415.1,410.6,409.6,319.1,409.6,319.1z"/>
<linearGradient id="SVGID_9_" gradientUnits="userSpaceOnUse" x1="235.6379" y1="213.1505" x2="265.6645" y2="265.158" gradientTransform="matrix(1 0 0 -1 0 460)">
	<stop  offset="0" style="stop-color:#4D0049"/>
	<stop  offset="0.2269" style="stop-color:#41003E;stop-opacity:0.8071"/>
	<stop  offset="0.635" style="stop-color:#210020;stop-opacity:0.4603"/>
	<stop  offset="1" style="stop-color:#000000;stop-opacity:0.15"/>
</linearGradient>
<path class="st30" d="M281.1,214.4c-7.6-19.3-28.7-30.4-45.7-25.2c-15.6,4.8-21.9,21.8-15.3,38.2c6.5,16.4,24.3,28.3,40.8,26.1
	C279,251.5,288.7,233.7,281.1,214.4z"/>
</svg>
